<?xml version="1.0" encoding="UTF-8" standalone="no"?>
<!-- Created with Inkscape (http://www.inkscape.org/) -->

<svg
   xmlns:dc="http://purl.org/dc/elements/1.1/"
   xmlns:cc="http://creativecommons.org/ns#"
   xmlns:rdf="http://www.w3.org/1999/02/22-rdf-syntax-ns#"
   xmlns:svg="http://www.w3.org/2000/svg"
   xmlns="http://www.w3.org/2000/svg"
   xmlns:sodipodi="http://sodipodi.sourceforge.net/DTD/sodipodi-0.dtd"
   xmlns:inkscape="http://www.inkscape.org/namespaces/inkscape"
   width="210mm"
   height="297mm"
   id="svg3039"
   version="1.1"
   inkscape:version="0.48.4 r9939"
   sodipodi:docname="logoAgileFrance.svg"
   inkscape:export-filename="/home/bob/Desktop/GRIBOUILLE ACADEMIE/SCRIBE EXT/AGILE FRANCE 2017/05 BADGE-PROGRAMME/Scribus_Dossier-Agenda/Images/logoAgileFrance.png"
   inkscape:export-xdpi="150"
   inkscape:export-ydpi="150">
  <defs
     id="defs3" />
  <sodipodi:namedview
     inkscape:document-units="mm"
     id="base"
     pagecolor="#ffffff"
     bordercolor="#666666"
     borderopacity="1.0"
     inkscape:pageopacity="0"
     inkscape:pageshadow="2"
     inkscape:zoom="0.74785157"
     inkscape:cx="718.75461"
     inkscape:cy="485.56984"
     inkscape:current-layer="g3070"
     showgrid="false"
     units="mm"
     inkscape:window-width="1317"
     inkscape:window-height="744"
     inkscape:window-x="49"
     inkscape:window-y="24"
     inkscape:window-maximized="1" />
  <metadata
     id="metadata4">
    <rdf:RDF>
      <cc:Work
         rdf:about="">
        <dc:format>image/svg+xml</dc:format>
        <dc:type
           rdf:resource="http://purl.org/dc/dcmitype/StillImage" />
        <dc:title></dc:title>
      </cc:Work>
    </rdf:RDF>
  </metadata>
  <g
     inkscape:label="Layer 1"
     inkscape:groupmode="layer"
     id="layer1"
     style="display:inline">
    <g
       inkscape:export-ydpi="150"
       inkscape:export-xdpi="150"
       inkscape:export-filename="/home/bob/Desktop/GRIBOUILLE ACADEMIE/SCRIBE EXT/AGILE FRANCE 2017/SOURIRE/sourire.png"
       transform="matrix(0.08836105,0,0,0.08836105,653.87296,486.08845)"
       id="g3070"
       style="display:inline">
      <g
         id="g2987"
         transform="matrix(4.5157729,0,0,4.5157729,1254.5973,62.121808)"
         inkscape:export-xdpi="150"
         inkscape:export-ydpi="150">
        <path
           style="fill:#ffffff;fill-opacity:1;stroke:none"
           d="m -1122.4024,215.19729 c -6.0462,-9.52756 -16.3759,-58.62657 -18.9703,-90.16985 l -0.9178,-11.15868 63.8299,-10.36559 c 35.1062,-5.701096 68.4533,-10.831662 74.1043,-11.401266 l 10.27459,-1.035636 5.89798,28.364272 c 3.24402,15.60036 8.88217,36.96984 12.5293,47.48771 3.64713,10.51789 5.61959,19.68997 4.3833,20.38241 -7.24631,4.05854 -67.16007,19.09753 -98.02677,24.60584 -40.748,7.27163 -50.2064,7.85774 -53.1044,3.2908 l 0,0 z"
           id="use3011"
           inkscape:connector-curvature="0" />
        <path
           inkscape:connector-curvature="0"
           id="path3083"
           d="m -1315.0947,239.54781 c -4.8401,-4.98194 -8.008,-11.22775 -12.8308,-25.29784 -6.7549,-19.7067 -17.0102,-65.63377 -18.0686,-80.91797 -0.5164,-7.45819 -0.4078,-8.25041 1.2551,-9.1532 2.9505,-1.60179 16.9928,-4.97115 79.2957,-19.02657 62.2743,-14.048945 61.0031,-13.859402 64.2048,-9.573143 0.6161,0.824724 2.0109,5.539673 3.0994,10.477663 5.3927,24.46163 10.8936,40.85079 22.9727,68.44387 9.082,20.74654 9.4983,22.18003 7.085,24.3955 -3.8456,3.53043 -44.1701,19.84555 -65.9178,26.67014 -20.8814,6.55271 -68.8643,18.47063 -74.3649,18.47063 -1.5931,0 -3.7977,-1.47037 -6.7306,-4.48908 z"
           style="fill:#3066aa" />
        <path
           inkscape:connector-curvature="0"
           id="path3033"
           d="m -939.06643,132.62927 c -1.97753,-2.17568 -12.26601,-22.30523 -16.57325,-32.42573 -4.65322,-10.933705 -15.87679,-44.020394 -18.82967,-55.50957 -3.62042,-14.086372 -3.79027,-15.695231 -1.83535,-17.3859 1.63507,-1.414027 116.08901,-38.620042 131.17068,-42.640222 6.48066,-1.727457 7.69876,-1.822724 8.79644,-0.687964 0.70075,0.724438 3.3168,7.3728572 5.81331,14.7742717 8.3766,24.8338843 9.86921,28.0663493 31.62305,68.4836223 6.7794,12.595843 7.64245,11.38809 -16.62477,23.26472 -25.0798,12.274342 -42.26123,19.482832 -63.20116,26.516112 -22.89062,7.6885 -54.33199,17.23479 -56.7638,17.23479 -1.15455,0 -2.76348,-0.73086 -3.57548,-1.62413 z"
           style="fill:#e40203" />
        <path
           style="fill:#000000"
           d="m -1230.2911,373.99776 c -2.8798,-3.82553 -12.3944,-22.70152 -18.1573,-36.02225 -2.0982,-4.8498 -2.1352,-4.87628 -5.86,-4.1965 -9.9525,1.81634 -11.2142,1.82955 -13.7861,0.14437 -2.0341,-1.33277 -2.5145,-2.36497 -2.2711,-4.87884 0.2731,-2.8203 1.0868,-3.59256 7.0468,-6.68844 3.7059,-1.925 6.914,-3.95745 7.129,-4.51655 0.2151,-0.5591 -1.2065,-5.7341 -3.1591,-11.5 -3.9693,-11.72105 -5.4074,-25.81895 -3.2887,-32.2388 1.3957,-4.22907 7.1867,-10.22613 12.5084,-12.95357 5.6216,-2.88114 14.1641,-3.38933 18.5524,-1.10367 6.4068,3.33698 9.7584,11.19585 6.9848,16.37833 -1.4904,2.78478 -6.4971,2.50563 -10.1472,-0.56574 -3.8742,-3.25992 -6.316,-3.15551 -9.8946,0.42308 -2.2494,2.24944 -2.923,3.83835 -2.923,6.89466 0,6.76417 6.802,26.50857 9.4872,27.53901 0.7164,0.2749 4.2983,-0.0133 7.9598,-0.64049 7.4971,-1.28421 9.4734,-0.63529 10.9854,3.60704 1.1823,3.31741 -1.1341,6.16252 -7.2419,8.89496 -2.3702,1.06035 -4.5533,2.56346 -4.8514,3.34025 -0.298,0.77679 3.1283,10.03569 7.6142,20.57534 4.4858,10.53965 8.4137,20.45152 8.7287,22.02638 0.4761,2.38062 -0.051,3.45148 -3.1259,6.35158 -5.141,4.84865 -8.1456,4.63593 -12.2904,-0.87015 z m 45.7734,-12.39166 c -2.4602,-2.26082 -4.4049,-6.93024 -10.9323,-26.25 -4.3668,-12.925 -9.5538,-27.70496 -11.5266,-32.84435 -1.9727,-5.13939 -3.8568,-11.03269 -4.1867,-13.09622 -0.5218,-3.26283 -0.2431,-4.03263 2.1381,-5.90566 4.2469,-3.34058 9.3643,-2.59719 13.7752,2.00106 1.7621,1.83692 1.948,1.76214 7.5,-3.01732 9.1528,-7.87917 11.0626,-8.57059 23.7716,-8.60634 10.6185,-0.0299 11.2822,0.0948 15.9875,3.00387 3.8215,2.36267 5.6318,4.43125 8.1716,9.33738 3.9353,7.60199 4.035,9.44599 0.6915,12.78949 -2.237,2.237 -3.1139,2.48451 -6.75,1.90521 -3.1888,-0.50803 -5.1268,-1.68939 -8.179,-4.98568 -5.3187,-5.74399 -7.177,-6.1781 -15.5544,-3.63353 -5.9047,1.79349 -7.3396,2.69023 -9.4801,5.92486 -3.8294,5.7865 -4.1184,11.97851 -1.0329,22.12723 3.8741,12.74282 9.5674,34.8129 9.5674,37.08848 0,1.10133 -1.1046,3.10697 -2.4546,4.45697 -3.3335,3.33355 -7.6788,3.22197 -11.5063,-0.29545 z m 93.4609,-25.89443 c -12.8648,-1.93412 -21.1689,-7.76968 -25.827,-18.14939 -5.1098,-11.38613 -6.0496,-31.09561 -1.923,-40.3284 1.0761,-2.40778 4.3851,-6.65703 7.3533,-9.44278 10.654,-9.99924 23.2459,-15.42251 37.2329,-16.03597 4.8599,-0.21315 9.2474,-0.64169 9.75,-0.95231 0.5026,-0.31061 0.9138,-2.10282 0.9138,-3.98268 0,-4.77062 3.2779,-6.84482 9.3728,-5.93084 2.4785,0.37167 5.1831,1.42363 6.0103,2.3377 2.0884,2.30759 7.3172,16.32797 14.6246,39.21416 3.4095,10.67822 6.8768,20.1798 7.7051,21.11462 0.9042,1.02042 3.3477,1.8197 6.1143,2 3.8322,0.24975 4.8662,0.76339 6.1405,3.05032 1.3652,2.45001 1.3687,3.03939 0.032,5.40284 -2.7159,4.80322 -6.567,6.84716 -12.9011,6.84716 -4.7852,0 -6.3836,-0.47982 -9.4892,-2.84853 l -3.7346,-2.84853 -6.2171,5.96999 c -9.7326,9.34575 -19.947,13.6756 -34.3373,14.55548 -4.3014,0.26301 -9.1707,0.27523 -10.8207,0.0272 z m 21.0477,-19.27364 c 11.7594,-5.20176 19.4598,-13.91636 19.4425,-22.00337 -0.018,-8.61645 -7.7538,-21.38679 -15.2806,-25.22668 -11.3478,-5.78924 -32.0115,5.32347 -36.2143,19.47567 -3.8614,13.00272 0.834,25.47603 11.0047,29.23385 5.1322,1.89625 14.9814,1.20394 21.0477,-1.47947 z m 70.70081,-6.62042 c -2.69451,-1.88729 -5.21501,-9.81962 -13.17451,-41.46151 -9.4404,-37.52897 -9.5531,-38.66668 -4.1092,-41.48181 6.1525,-3.18159 11.2572,-1.22471 13.9852,5.36119 0.7109,1.71634 1.8177,3.12062 2.4595,3.12062 0.64181,0 2.90381,-2.07783 5.02661,-4.61741 8.6503,-10.34848 25.3307,-17.5618 41.0826,-17.76579 8.2893,-0.10735 9.5567,0.14799 15.6717,3.15731 10.5952,5.21419 19.8436,16.65566 26.096,32.28407 3.7533,9.38182 8.7136,27.67203 8.7136,32.12995 0,3.2606 -0.4913,4.14081 -3.25,5.82283 -4.1586,2.5355 -8.9253,2.55785 -11.1926,0.0525 -0.9639,-1.0651 -3.7563,-7.7026 -6.2052,-14.75 -8.3793,-24.11297 -16.9882,-37.94524 -24.8346,-39.90285 -4.6452,-1.15894 -19.4004,1.34692 -24.1013,4.0931 -2.246,1.31209 -5.7842,4.26793 -7.8627,6.56855 -8.7439,9.67854 -10.4402,20.88007 -6.1716,40.75539 3.422,15.93381 3.4632,22.41799 0.1634,25.7178 -2.8898,2.88979 -8.8456,3.33347 -12.2969,0.91606 z m 120.2515,-35.39658 c -10.3437,-2.51814 -18.2562,-12.27258 -22.1696,-27.33028 -2.437,-9.37669 -2.2003,-24.62216 0.5082,-32.73465 4.2402,-12.70023 14.1022,-21.87981 28.463,-26.49355 13.2246,-4.24871 21.753,-3.17543 28.5507,3.59304 2.9463,2.93367 3.2893,3.80778 2.832,7.21751 -0.5363,3.99827 -3.6452,8.21842 -6.7895,9.21639 -0.9839,0.31227 -4.0685,-0.41287 -6.8546,-1.61143 -10.3663,-4.45946 -19.8042,-0.37415 -25.8879,11.20589 -3.2153,6.12005 -3.3315,6.72822 -2.9386,15.37215 0.4944,10.8768 3.0574,17.55463 7.649,19.929 6.7694,3.5006 19.2341,0.87014 37.7847,-7.97381 8.0165,-3.82188 9.7485,-4.32021 11.6355,-3.34777 4.4043,2.26965 6.7171,5.17224 6.7171,8.43005 0,11.81888 -41.4745,28.91575 -59.5,24.52746 z m 86.9038,-25.15377 c -12.1695,-1.50969 -21.2397,-8.51094 -25.3872,-19.59633 -4.3572,-11.64546 -3.6135,-30.94934 1.6183,-42.00841 3.0612,-6.4709 10.7478,-15.0631 17.1273,-19.14526 7.8912,-5.04945 19.3824,-8.33825 29.7378,-8.51101 11.1136,-0.18541 14.8851,1.08266 20.9225,7.03473 6.3847,6.29452 7.9862,9.64734 8.0319,16.81512 0.065,10.24801 -5.1008,16.96005 -17.9544,23.32663 -9.0813,4.49808 -19.2275,7.22373 -31.7193,8.52097 l -11.2807,1.17148 -0.303,3.10082 c -0.3919,4.01154 3.2747,8.46189 9.4246,11.43899 3.8374,1.85764 5.6574,2.12396 11.2887,1.65184 9.3184,-0.78122 17.1532,-3.55829 34.7575,-12.31997 16.6668,-8.29504 17.0949,-8.34152 21.3816,-2.32133 2.1681,3.04476 2.171,3.10646 0.3195,6.59672 -2.3184,4.37046 -6.9754,8.12344 -15.2361,12.27836 -9.019,4.53641 -28.5457,10.87422 -35.6328,11.56544 -3.3,0.32186 -7.125,0.71396 -8.5,0.87133 -1.375,0.15737 -5.2433,-0.0542 -8.5962,-0.47012 z m 16.0256,-52.03895 c 15.5712,-3.94004 21.53,-9.18247 18.0614,-15.89002 -3.1653,-6.12087 -15.4562,-6.34938 -28.1806,-0.52393 -6.892,3.15526 -10.0789,5.89381 -11.9391,10.25962 -1.7917,4.20498 -1.7294,5.78096 0.3091,7.81947 2.0326,2.03263 9.3493,1.47246 21.7492,-1.66514 z m -539.21271,44.45442 c -3.633,-1.45934 -12.9167,-26.28698 -19.2611,-51.51022 -5.6045,-22.28184 -10.9044,-48.93691 -11.6227,-58.45457 l -0.6142,-8.13815 5.3906,-1.55128 c 14.2876,-4.11156 139.2209,-31.672411 143.571,-31.672411 4.419,0 5.634,2.203628 8.2704,15.000001 4.829,23.43801 11.4117,43.62677 22.6025,69.3199 4.0957,9.40351 7.4468,18.28368 7.4468,19.73371 0,3.69587 -2.0322,5.1103 -14,9.74413 -46.9978,18.19716 -61.656,22.56407 -111.2369,33.13935 -22.6505,4.83123 -27.6561,5.55053 -30.5464,4.38954 z m 39.7833,-18.79297 c 16.225,-3.57818 34.933,-8.07211 41.5734,-9.98651 18.1143,-5.22228 60.4266,-20.94273 60.4266,-22.45054 0,-0.41344 -1.8524,-4.99182 -4.1164,-10.17416 -10.848,-24.83132 -18.5653,-48.94517 -22.9455,-71.6968 -0.6644,-3.4509 -1.5595,-6.49167 -1.9893,-6.75726 -0.9865,-0.60968 -132.1455,28.32831 -133.207,29.38984 -1.4357,1.43565 7.4168,44.57855 13.8316,67.40887 2.9155,10.3764 8.7737,26.06834 11.0109,29.49429 1.0323,1.58088 2.1446,2.11344 3.6962,1.76972 1.2207,-0.27042 15.4945,-3.41927 31.7195,-6.99745 z m 155.0738,-1.28366 c -2.4579,-2.00268 -8.4838,-19.1347 -12.4093,-35.28062 -5.888,-24.21777 -13.0716,-78.49651 -10.8292,-81.825 1.0896,-1.61733 1.1136,-1.6221 46.1647,-9.163083 86.8852,-14.543478 104.22641,-17.062978 106.62471,-15.491498 2.7494,1.80145 2.6949,1.60899 5.834,20.596791 3.5909,21.72133 8.1775,39.11846 16.445,62.37718 3.9029,10.98008 7.0894,20.88008 7.081,22 -0.033,4.44582 -1.5662,5.26486 -21.8609,11.68151 -40.11271,12.68256 -60.72911,17.23527 -112.42871,24.82745 -17.072,2.50707 -21.8191,2.56052 -24.6213,0.27727 z m 33.5644,-12.75531 c 26.9338,-4.12967 46.0435,-7.67197 59.8618,-11.09643 15.9915,-3.96303 49.86951,-14.46766 51.40961,-15.94072 1.207,-1.15444 0.389,-4.41117 -5.6897,-22.65291 -7.2786,-21.84256 -10.92,-36.34758 -13.7584,-54.80463 -2.33,-15.150951 -2.2861,-15.000001 -4.3634,-15.000001 -4.51351,0 -133.62171,21.123571 -134.50461,22.006491 -1.3074,1.30738 0.6094,18.66 5.0251,45.49261 3.5988,21.86833 4.799,27.33981 9.1036,41.5009 3.5455,11.66384 4.829,14 7.6917,14 1.2994,0 12.6503,-1.57739 25.2243,-3.50531 z m 152.12461,-70.24469 c -2.0725,-2.34429 -12.8551,-24.03381 -17.3692,-34.93862 -4.8768,-11.781033 -16.6393,-47.431828 -19.734,-59.811378 -3.7943,-15.17802 -3.9723,-16.91156 -1.9235,-18.73325 1.7135,-1.52361 121.6643,-41.61297 137.4704,-45.9447 6.7919,-1.86133 8.0685,-1.96398 9.2189,-0.74128 0.7344,0.78058 3.476,7.94423 6.0925,15.9192301 8.7789,26.7584299 10.3432,30.2413999 33.1417,73.7908799 7.1051,13.571977 8.0096,12.270627 -17.4231,25.067655 -26.2843,13.225573 -44.2909,20.992693 -66.2365,28.571033 -23.9901,8.28433 -56.9414,18.57043 -59.4901,18.57043 -1.21,0 -2.8962,-0.7875 -3.7471,-1.75 z m 38.8904,-21.10318 c 16.4157,-5.41925 35.2468,-11.99425 41.8468,-14.61111 16.4599,-6.526293 56.3737,-26.043221 57.0928,-27.917101 0.3303,-0.86066 -1.5776,-5.36614 -4.3713,-10.322917 -12.4337,-22.06082 -25.062,-50.89668 -29.846,-68.1512499 -0.9692,-3.49556 -2.3398,-6.5772401 -3.0459,-6.8481901 -1.4796,-0.56779 -128.9497,41.27994 -129.7665,42.60167 -0.7086,1.14649 5.687,22.78332 13.7751,46.602077 8.85,26.062501 19.5263,48.500001 23.0776,48.500001 0.7649,0 14.8217,-4.43393 31.2374,-9.85318 z M -1154.5568,77.190979 c -4.1995,-1.18155 -10.4444,-6.93017 -13.0848,-12.045037 -2.7224,-5.27374 -2.6157,-15.12218 0.2143,-19.78984 2.6919,-4.43962 3.5433,-4.96594 8.0638,-4.98469 4.2614,-0.0177 5.9122,1.77576 8.327,9.04602 2.3361,7.03335 5.2885,9.26804 12.8835,9.75165 10.8603,0.69153 24.344,-4.47077 31.0419,-11.88456 5.154,-5.70491 7.2559,-18.73709 4.0286,-24.97808 -1.8038,-3.48821 -4.4272,-3.78377 -7.0693,-0.79647 -2.6366,2.98105 -14.8914,8.52132 -23.086,10.43697 -8.0896,1.8911 -17.246,1.29324 -27.1785,-1.7746 -5.5805,-1.72361 -7.5372,-2.99919 -12.7393,-8.30473 -4.9175,-5.01528 -7.474,-8.94135 -12.789,-19.6399194 -7.9703,-16.0435506 -9.5711,-22.7042706 -9.5949,-39.9252506 -0.016,-11.43969 0.2068,-13.00344 2.5086,-17.62249 3.2466,-6.51514 12.4412,-15.26888 20.0973,-19.13364 8.5031,-4.29235 16.26,-6.15334 28.6287,-6.86843 6.4148,-0.37086 11.1536,-1.10548 11.7475,-1.82113 0.6707,-0.80815 0.5105,-2.798407 -0.4911,-6.100077 -3.0558,-10.073 -1.4943,-13.855105 5.7203,-13.855105 6.8445,0 8.4446,2.83759 18.1074,32.111612 8.2543,25.00703 19.8927,62.4761501 23.8684,76.8429206 3.7876,13.6869794 3.4002,33.2089594 -0.8362,42.1364494 -4.2847,9.02927 -19.6131,21.522767 -31.8611,25.968547 -10.7457,3.90048 -28.531,5.47399 -36.5071,3.22988 z m 26.6424,-65.844147 c 7.1784,-3.5178297 12.7884,-9.2788094 14.2854,-14.6699499 2.6886,-9.6821701 0.075,-25.9614001 -7.1188,-44.3483001 -3.9912,-10.20065 -9.2115,-16.21615 -15.5414,-17.90849 -3.5502,-0.9492 -5.6953,-0.78807 -13.3106,0.99978 -4.9931,1.17224 -12.2473,3.71674 -16.1206,5.65444 -9.3862,4.69573 -10.7838,7.58695 -10.8145,22.37183 -0.035,17.04064 4.2251,30.0171601 13.6854,41.6837306 3.248,4.0055497 8.5092,7.4475094 14.2927,9.3504794 4.5755,1.5055 14.1382,0.0539 20.6424,-3.13352 z m -176.1424,57.38304 c -6.8768,-1.07559 -14.2795,-3.68967 -18.5,-6.53283 -12.6504,-8.52192 -18.8136,-26.57188 -17.8066,-52.14945 0.5401,-13.7172799 3.3862,-21.16482 10.6861,-27.96302 9.6248,-8.96331 27.709,-18.38917 39.8254,-20.75791 5.392,-1.05411 16.8614,-0.95197 27.2951,0.24309 2.4712,0.28306 2.4962,0.21046 2.1728,-6.31505 -0.2535,-5.11411 0.044,-6.97282 1.3214,-8.25 3.3603,-3.36032 13.65,-1.20423 16.0072,3.35416 2.3537,4.5516 11.7882,32.92252 19.0559,57.3042103 7.8704,26.4034097 8.2307,26.9512797 18.2134,27.6930297 l 6.7293,0.5 0.303,3.6267 c 0.2667,3.19235 -0.204,4.06063 -3.93,7.25 -3.8227,3.27209 -4.802,3.6233 -10.1027,3.6233 -3.2283,0 -7.1305,-0.65201 -8.6716,-1.44892 -2.9916,-1.54702 -9.0987,-7.98114 -9.0987,-9.58588 0,-0.53086 -0.8317,-0.9652 -1.8482,-0.9652 -1.1871,0 -2.4896,1.42265 -3.6418,3.97765 -4.2464,9.41701 -20.082,20.65465 -34.6629,24.59837 -5.3942,1.45899 -27.7928,2.666497 -33.3471,1.79775 z m 28.1425,-17.86026 c 10.658,-3.16507 25.3365,-14.85575 30.1509,-24.01351 2.041,-3.88227 2.6348,-6.45305 2.6563,-11.5 0.024,-5.6363197 -0.5325,-7.6487097 -4.1888,-15.14515989 -7.3679,-15.10622011 -18.7545,-24.85484011 -29.031,-24.85484011 -5.6662,0 -18.2119,4.23276 -25.2203,8.50899 -17.9906,10.9770601 -25.1821,30.95422 -18.3556,50.98905 2.2762,6.6804 9.5382,13.88962 15.986,15.86999 6.4043,1.967 21.6029,2.04595 28.0025,0.14548 z m 212.9867,-42.7635097 c -1.3599,-1.7874997 -4.4924,-8.20000019 -6.9611,-14.2500002 -11.3336,-27.7754801 -16.5962,-47.9135001 -17.4221,-66.6686401 l -0.5139,-11.66865 4.7924,-0.71866 c 7.7778,-1.166357 9.7476,0.0655 11.3086,7.07202 2.6059,11.69677 7.0262,26.2525 13.9647,45.98393 13.0602,37.1400906 13.2153,38.2294506 5.9169,41.5427303 -6.014,2.7301397 -8.2207,2.4727997 -11.0855,-1.29273 z m 39.8626,-12.9182802 c -7.7834,-9.1843001 -20.5636,-45.7350801 -31.558,-90.2545671 -5.3858,-21.808675 -7.1521,-32.387485 -7.3043,-43.747895 -0.1123,-8.38078 0.1505,-10.04813 1.9698,-12.5 1.485,-2.0013 3.1288,-2.91776 5.617,-3.1317 4.9657,-0.42693 8.1226,3.58394 10.2536,13.02704 8.1494,36.11429 16.7778,67.532202 26.7788,97.508612 9.5609,28.6571 10.933,33.57248 9.965,35.6971101 -1.4115,3.09789 -4.6814,5.23329 -9.3061,6.07742 -3.2142,0.58668 -3.8895,0.30502 -6.4158,-2.67602 z m 56.67381,-19.2952101 c -14.3516,-3.2746 -23.852,-12.86052 -28.8073,-29.06661 -2.5016,-8.18104 -2.4802,-30.16006 0.038,-39.469897 5.9725,-22.078005 21.7473,-37.321945 45.4062,-43.878145 18.1411,-5.02715 30.4608,-4.82456 40.5503,0.66685 9.8165,5.34283 17.0164,16.46683 16.8976,26.10733 -0.1774,14.403875 -9.2134,23.928632 -30.7507,32.414092 -12.1739,4.79636 -22.3779,6.7473 -38.8302,7.42409 -15.4974,0.6375 -16.6698,1.13972 -16.6698,7.14086 0,6.48498 4.3481,13.52416 11.1665,18.07726 3.312,2.21173 7.892,4.52884 10.1777,5.14915 11.6266,3.15535 34.0944,-2.98021 61.2641,-16.73015 9.0979,-4.60424 17.5632,-8.37134 18.8117,-8.37134 2.3253,0 4.8152,2.19608 5.868,5.1754 1.0807,3.05858 -1.2711,8.60256 -5.0608,11.92997 -7.7434,6.79879 -38.2149,19.26274 -54.929,22.46801 -11.712,2.24598 -27.6012,2.68157 -35.1326,0.96313 z m 17.9081,-62.138667 c 12.8013,-2.17581 26.7314,-6.74967 31.8504,-10.45785 9.5104,-6.889285 9.0085,-19.087415 -0.9952,-24.188445 -4.3453,-2.21573 -18.137,-2.36932 -26.1168,-0.29084 -3.0844,0.80339 -9.4983,3.30897 -14.253,5.56794 -6.5379,3.10615 -9.3523,5.08362 -11.5469,8.11316 -3.1244,4.31308 -5.4192,12.511105 -4.859,17.358195 0.6311,5.460327 9.1716,6.744627 25.9205,3.89784 z m -149.75841,-24.351375 c -2.9807,-1.27388 -4.3153,-4.11186 -4.3153,-9.17601 0,-5.85745 3.7619,-9.87046 9.2528,-9.87046 5.1625,0 7.6254,1.46436 9.3318,5.54837 2.0077,4.805 1.7603,7.93904 -0.8676,10.99424 -2.5168,2.92588 -9.4036,4.21256 -13.4017,2.50386 z"
           id="path3072"
           inkscape:connector-curvature="0" />
      </g>
    </g>
  </g>
</svg>
