<?xml version="1.0" encoding="UTF-8" standalone="no"?>
<!-- Created with Inkscape (http://www.inkscape.org/) -->

<svg
   xmlns:dc="http://purl.org/dc/elements/1.1/"
   xmlns:cc="http://creativecommons.org/ns#"
   xmlns:rdf="http://www.w3.org/1999/02/22-rdf-syntax-ns#"
   xmlns:svg="http://www.w3.org/2000/svg"
   xmlns="http://www.w3.org/2000/svg"
   xmlns:sodipodi="http://sodipodi.sourceforge.net/DTD/sodipodi-0.dtd"
   xmlns:inkscape="http://www.inkscape.org/namespaces/inkscape"
   version="1.1"
   id="svg2"
   xml:space="preserve"
   width="1122.5197"
   height="793.70074"
   viewBox="0 0 1122.5197 793.70074"
   sodipodi:docname="Pomme.svg"
   inkscape:version="0.92.2 5c3e80d, 2017-08-06"><metadata
     id="metadata8"><rdf:RDF><cc:Work
         rdf:about=""><dc:format>image/svg+xml</dc:format><dc:type
           rdf:resource="http://purl.org/dc/dcmitype/StillImage" /><dc:title></dc:title></cc:Work></rdf:RDF></metadata><defs
     id="defs6" /><sodipodi:namedview
     pagecolor="#ffffff"
     bordercolor="#666666"
     borderopacity="1"
     objecttolerance="10"
     gridtolerance="10"
     guidetolerance="10"
     inkscape:pageopacity="0"
     inkscape:pageshadow="2"
     inkscape:window-width="1015"
     inkscape:window-height="704"
     id="namedview4"
     showgrid="false"
     inkscape:zoom="0.68593502"
     inkscape:cx="589.00378"
     inkscape:cy="244.36793"
     inkscape:window-x="204"
     inkscape:window-y="20"
     inkscape:window-maximized="0"
     inkscape:current-layer="g12" /><g
     id="g10"
     inkscape:groupmode="layer"
     inkscape:label="Pomme"
     transform="matrix(1.3333333,0,0,-1.3333333,0,793.70077)"><g
       id="g12"><g
         id="g14"
         transform="matrix(1,0,0,-1,0,595.27557)"><path
           d="m 49.645,24.934 h 335.003 c 14.274,0 25.77,11.492 25.77,25.769 v 335.004 c 0,14.277 -11.496,25.77 -25.77,25.77 H 49.645 c -14.278,0 -25.77,-11.493 -25.77,-25.77 V 50.703 c 0,-14.277 11.492,-25.769 25.77,-25.769 z"
           style="fill:#ffb4e6;fill-opacity:1;fill-rule:nonzero;stroke:#000000;stroke-width:10.30780315;stroke-linecap:round;stroke-linejoin:round;stroke-miterlimit:4;stroke-dasharray:none;stroke-opacity:1"
           id="path16"
           inkscape:connector-curvature="0" /></g><text
         transform="scale(1,-1)"
         style="font-variant:normal;font-weight:normal;font-size:40.72727585px;font-family:Arial;-inkscape-font-specification:Arial;writing-mode:lr-tb;fill:#000000;fill-opacity:1;fill-rule:nonzero;stroke:none"
         id="text20"
         x="146.71204"
         y="-210.64557"><tspan
           sodipodi:role="line"
           id="tspan18"
           x="146.71204"
           y="-210.64557">APPLE</tspan></text>
<path
         d="m 179.973,255.276 c -20.895,2.043 -36.274,11.609 -48.758,30.332 -12.25,18.375 -20.102,44.136 -23.344,76.621 -0.785,7.847 -0.769,29.019 0.024,34.05 2.777,17.649 10.414,32.618 22.671,44.438 9.313,8.984 19.547,14.98 31.739,18.602 7.39,2.195 12.949,2.937 22.039,2.945 8.922,0.008 13.609,-0.641 21.375,-2.957 2.515,-0.75 4.726,-1.211 4.914,-1.02 0.691,0.707 0.953,14.723 0.426,22.653 -0.914,13.769 -2.778,22.601 -6.297,29.875 -3.449,7.125 -7.332,10.238 -13.903,11.136 -3.73,0.512 -5.593,2.121 -5.593,4.828 0,4.333 3.57,5.731 10.476,4.102 4.035,-0.953 6.922,-2.531 10.27,-5.621 5.418,-5 9.187,-12.254 11.73,-22.566 0.699,-2.844 1.395,-5.168 1.539,-5.165 0.149,0.008 1.063,1.258 2.032,2.778 3.921,6.152 9.757,11.238 16.644,14.508 4.793,2.277 8,3.172 13.883,3.882 4.734,0.575 11.918,0.012 14.691,-1.148 5.344,-2.23 4.989,-18.871 -0.617,-28.77 -4.941,-8.738 -14.746,-16.109 -25.199,-18.941 -3.07,-0.832 -4.996,-1.004 -11.617,-1.039 l -7.938,-0.039 v -1.656 c 0,-0.91 -0.137,-3.242 -0.301,-5.176 -0.351,-4.191 -0.664,-4.063 5.938,-2.387 7.789,1.973 14.168,2.735 22.894,2.735 10.547,-0.008 17.629,-1.153 26.461,-4.301 20.356,-7.25 37.618,-23.852 45.34,-43.606 4.301,-11.004 5.508,-18.425 5.508,-33.886 0,-35.141 -8.418,-70.207 -22.125,-92.153 -5.512,-8.828 -14.035,-18.133 -20.738,-22.64 -10.856,-7.301 -21.399,-10.411 -35.137,-10.364 -8.582,0.032 -14.77,0.981 -23.699,3.649 -7.629,2.277 -8.836,2.359 -13.211,0.926 -4.758,-1.567 -10.043,-2.879 -15.004,-3.727 -4.148,-0.715 -13.82,-1.219 -17.113,-0.898 z m 15.187,10.367 c 4.332,0.644 9.668,1.984 14.953,3.746 5.696,1.898 8.453,1.898 14.266,-0.02 9.957,-3.277 16.488,-4.39 25.773,-4.39 12.797,0 22.774,3.609 32.696,11.824 13.472,11.156 24.484,33.316 30.101,60.574 3.153,15.313 4.387,27.496 4.379,43.258 -0.008,11.359 -0.41,15.719 -2.039,22 -6.516,25.144 -27.453,44.465 -53.301,49.187 -5.988,1.094 -18.261,1.079 -24.953,-0.031 -6.836,-1.133 -12.902,-2.75 -17.582,-4.687 -4.398,-1.821 -4.062,-1.848 -10.844,0.949 -11.527,4.758 -25.089,5.98 -37.839,3.406 -27.172,-5.484 -47.95,-26.762 -52.981,-54.258 -1,-5.464 -1.144,-26.207 -0.242,-34.972 3.949,-38.45 14.801,-67.129 31.441,-83.094 2.125,-2.043 5.18,-4.606 6.785,-5.695 6.227,-4.227 14.555,-7.371 22.059,-8.325 3.535,-0.449 12.641,-0.171 17.328,0.528 z m 41.258,213.199 c 4.297,0.824 7.441,2.074 11.191,4.441 3.754,2.371 8.536,7.5 10.321,11.075 1.707,3.418 2.902,8.656 2.718,11.91 -0.14,2.398 -0.191,2.484 -1.753,2.894 -2.129,0.555 -9.555,-0.293 -13.012,-1.48 -9.305,-3.203 -16.395,-9.953 -19.125,-18.215 -1.203,-3.645 -1.77,-9.652 -0.996,-10.586 0.75,-0.902 6.07,-0.922 10.656,-0.039 z"
         style="fill:#000000;fill-opacity:1;fill-rule:nonzero;stroke:none"
         id="path22"
         inkscape:connector-curvature="0" /><g
         id="g24"
         transform="matrix(1,0,0,-1,0,595.27557)"><path
           d="m 31.09,430.461 h 134 c 5.711,0 10.308,4.594 10.308,10.305 V 574.77 c 0,5.71 -4.597,10.304 -10.308,10.304 h -134 c -5.711,0 -10.309,-4.594 -10.309,-10.304 V 440.766 c 0,-5.711 4.598,-10.305 10.309,-10.305 z"
           style="fill:#ffb4e6;fill-opacity:1;fill-rule:nonzero;stroke:#000000;stroke-width:4.12312078;stroke-linecap:round;stroke-linejoin:round;stroke-miterlimit:4;stroke-dasharray:none;stroke-opacity:1"
           id="path26"
           inkscape:connector-curvature="0" /></g><text
         transform="scale(1,-1)"
         style="font-variant:normal;font-weight:normal;font-size:16.29091072px;font-family:Arial;-inkscape-font-specification:Arial;writing-mode:lr-tb;fill:#000000;fill-opacity:1;fill-rule:nonzero;stroke:none"
         id="text30"
         x="71.416977"
         y="-20.938046"><tspan
           sodipodi:role="line"
           id="tspan28"
           x="71.416977"
           y="-20.938046">APPLE</tspan></text>
<path
         d="m 83.223,38.791 c -8.36,0.817 -14.512,4.645 -19.504,12.133 -4.903,7.348 -8.043,17.652 -9.34,30.648 -0.313,3.137 -0.305,11.606 0.012,13.622 1.109,7.058 4.164,13.046 9.066,17.773 3.727,3.594 7.82,5.992 12.699,7.441 2.953,0.879 5.18,1.176 8.813,1.176 3.57,0.004 5.445,-0.254 8.551,-1.183 1.007,-0.297 1.89,-0.481 1.964,-0.407 0.278,0.285 0.383,5.891 0.172,9.063 -0.367,5.508 -1.113,9.039 -2.519,11.949 -1.379,2.852 -2.934,4.094 -5.563,4.453 -1.492,0.207 -2.234,0.852 -2.234,1.934 0,1.73 1.426,2.289 4.187,1.64 1.618,-0.382 2.77,-1.015 4.11,-2.25 2.168,-2 3.676,-4.902 4.691,-9.027 0.281,-1.137 0.559,-2.066 0.617,-2.062 0.059,0 0.422,0.5 0.813,1.109 1.566,2.461 3.902,4.496 6.656,5.801 1.918,0.914 3.199,1.269 5.555,1.554 1.894,0.231 4.765,0.004 5.875,-0.457 2.136,-0.894 1.996,-7.55 -0.246,-11.511 -1.977,-3.493 -5.899,-6.442 -10.078,-7.575 -1.231,-0.332 -2,-0.402 -4.649,-0.414 l -3.176,-0.015 v -0.664 c 0,-0.364 -0.054,-1.297 -0.117,-2.071 -0.144,-1.675 -0.269,-1.625 2.375,-0.957 3.113,0.793 5.664,1.098 9.156,1.094 4.219,0 7.051,-0.461 10.582,-1.719 8.145,-2.898 15.047,-9.539 18.137,-17.441 1.723,-4.402 2.203,-7.371 2.203,-13.555 0,-14.058 -3.367,-28.082 -8.847,-36.863 -2.207,-3.527 -5.618,-7.25 -8.297,-9.055 -4.344,-2.918 -8.559,-4.164 -14.055,-4.144 -3.434,0.011 -5.906,0.39 -9.48,1.457 -3.051,0.914 -3.536,0.945 -5.282,0.371 -1.906,-0.625 -4.019,-1.149 -6.004,-1.488 -1.66,-0.286 -5.527,-0.489 -6.843,-0.36 z m 6.074,4.145 c 1.734,0.258 3.867,0.793 5.98,1.5 2.278,0.758 3.383,0.758 5.707,-0.008 3.981,-1.313 6.594,-1.758 10.309,-1.758 5.117,0 9.109,1.445 13.078,4.731 5.391,4.461 9.793,13.328 12.039,24.23 1.262,6.125 1.758,10.996 1.754,17.305 -0.004,4.543 -0.164,6.285 -0.816,8.797 -2.606,10.058 -10.981,17.789 -21.321,19.675 -2.394,0.438 -7.304,0.434 -9.98,-0.011 -2.734,-0.453 -5.16,-1.102 -7.035,-1.875 -1.758,-0.727 -1.625,-0.739 -4.336,0.379 -4.61,1.902 -10.035,2.394 -15.137,1.363 C 68.672,115.069 60.359,106.561 58.348,95.561 57.949,93.373 57.891,85.076 58.25,81.572 59.832,66.194 64.172,54.721 70.828,48.334 c 0.852,-0.816 2.07,-1.844 2.715,-2.277 2.488,-1.692 5.82,-2.949 8.82,-3.332 1.418,-0.18 5.059,-0.067 6.934,0.211 z m 16.504,85.281 c 1.719,0.328 2.976,0.828 4.476,1.777 1.5,0.946 3.414,3 4.125,4.43 0.684,1.367 1.164,3.461 1.09,4.762 -0.054,0.961 -0.078,0.996 -0.703,1.16 -0.851,0.219 -3.82,-0.117 -5.203,-0.594 -3.723,-1.281 -6.559,-3.98 -7.652,-7.285 -0.481,-1.457 -0.707,-3.859 -0.395,-4.234 0.297,-0.36 2.426,-0.368 4.262,-0.016 z"
         style="fill:#000000;fill-opacity:1;fill-rule:nonzero;stroke:none"
         id="path32"
         inkscape:connector-curvature="0" /><g
         id="g34"
         transform="matrix(1,0,0,-1,0,595.27557)"><path
           d="m 435.656,429.871 h 95.719 c 4.078,0 7.359,3.281 7.359,7.363 v 95.715 c 0,4.078 -3.281,7.364 -7.359,7.364 h -95.719 c -4.078,0 -7.359,-3.286 -7.359,-7.364 v -95.715 c 0,-4.082 3.281,-7.363 7.359,-7.363 z"
           style="fill:#ffb4e6;fill-opacity:1;fill-rule:nonzero;stroke:#000000;stroke-width:2.94508696;stroke-linecap:round;stroke-linejoin:round;stroke-miterlimit:4;stroke-dasharray:none;stroke-opacity:1"
           id="path36"
           inkscape:connector-curvature="0" /></g><text
         transform="scale(1,-1)"
         style="font-variant:normal;font-weight:normal;font-size:11.63636398px;font-family:Arial;-inkscape-font-specification:Arial;writing-mode:lr-tb;fill:#000000;fill-opacity:1;fill-rule:nonzero;stroke:none"
         id="text40"
         x="464.24887"
         y="-62.635223"><tspan
           sodipodi:role="line"
           id="tspan38"
           x="464.24887"
           y="-62.635223">APPLE</tspan></text>
<path
         d="m 472.895,75.385 c -5.969,0.586 -10.364,3.32 -13.93,8.668 -3.5,5.25 -5.746,12.609 -6.672,21.891 -0.223,2.242 -0.219,8.293 0.008,9.73 0.793,5.043 2.976,9.32 6.476,12.695 2.664,2.567 5.586,4.282 9.071,5.317 2.109,0.625 3.699,0.84 6.297,0.84 2.546,0.003 3.886,-0.184 6.105,-0.844 0.719,-0.215 1.352,-0.348 1.406,-0.293 0.196,0.203 0.27,4.207 0.121,6.473 -0.261,3.933 -0.793,6.457 -1.8,8.535 -0.985,2.035 -2.094,2.925 -3.973,3.183 -1.063,0.145 -1.598,0.606 -1.598,1.379 0,1.238 1.02,1.637 2.996,1.172 1.153,-0.273 1.977,-0.723 2.934,-1.605 1.547,-1.43 2.625,-3.5 3.352,-6.45 0.199,-0.812 0.398,-1.476 0.437,-1.472 0.043,0 0.305,0.355 0.582,0.793 1.121,1.757 2.785,3.211 4.754,4.144 1.371,0.649 2.285,0.906 3.969,1.11 1.351,0.164 3.402,0.003 4.195,-0.329 1.527,-0.636 1.426,-5.39 -0.176,-8.222 -1.414,-2.496 -4.211,-4.602 -7.199,-5.41 -0.879,-0.239 -1.426,-0.286 -3.32,-0.297 l -2.266,-0.012 v -0.473 c 0,-0.257 -0.039,-0.925 -0.086,-1.48 -0.101,-1.195 -0.191,-1.16 1.695,-0.68 2.227,0.563 4.047,0.781 6.54,0.781 3.015,-0.003 5.039,-0.328 7.562,-1.226 5.816,-2.074 10.746,-6.816 12.953,-12.461 1.231,-3.145 1.574,-5.266 1.574,-9.684 0,-10.039 -2.406,-20.058 -6.32,-26.328 -1.574,-2.523 -4.012,-5.179 -5.926,-6.468 -3.101,-2.086 -6.113,-2.973 -10.039,-2.961 -2.453,0.007 -4.219,0.281 -6.773,1.043 -2.176,0.648 -2.524,0.675 -3.774,0.265 -1.359,-0.449 -2.867,-0.824 -4.285,-1.066 -1.187,-0.203 -3.949,-0.348 -4.89,-0.258 z m 4.339,2.965 c 1.239,0.183 2.762,0.566 4.274,1.07 1.625,0.543 2.414,0.539 4.074,-0.008 2.844,-0.933 4.711,-1.254 7.363,-1.254 3.657,0 6.508,1.032 9.344,3.379 3.848,3.188 6.996,9.52 8.598,17.309 0.902,4.371 1.254,7.855 1.254,12.359 -0.004,3.242 -0.118,4.489 -0.582,6.285 -1.864,7.184 -7.844,12.704 -15.231,14.051 -1.711,0.313 -5.219,0.309 -7.129,-0.008 -1.953,-0.324 -3.687,-0.785 -5.023,-1.339 -1.258,-0.52 -1.16,-0.528 -3.098,0.273 -3.297,1.359 -7.172,1.707 -10.812,0.973 -7.766,-1.567 -13.7,-7.649 -15.137,-15.504 -0.285,-1.563 -0.328,-7.485 -0.07,-9.992 1.129,-10.985 4.23,-19.18 8.984,-23.743 0.605,-0.582 1.48,-1.312 1.937,-1.625 1.778,-1.207 4.161,-2.105 6.301,-2.379 1.012,-0.128 3.614,-0.046 4.953,0.153 z m 11.789,60.914 c 1.227,0.234 2.125,0.59 3.196,1.269 1.074,0.676 2.437,2.141 2.949,3.164 0.488,0.977 0.828,2.473 0.777,3.403 -0.039,0.683 -0.054,0.711 -0.5,0.824 -0.609,0.16 -2.73,-0.082 -3.718,-0.422 -2.661,-0.914 -4.684,-2.844 -5.465,-5.203 -0.344,-1.043 -0.504,-2.758 -0.285,-3.023 0.214,-0.258 1.734,-0.266 3.046,-0.012 z"
         style="fill:#000000;fill-opacity:1;fill-rule:nonzero;stroke:none"
         id="path42"
         inkscape:connector-curvature="0" /><g
         id="g44"
         transform="matrix(1,0,0,-1,0,595.27557)"><path
           d="m 203.852,430.461 h 134 c 5.711,0 10.308,4.594 10.308,10.305 V 574.77 c 0,5.71 -4.597,10.304 -10.308,10.304 h -134 c -5.711,0 -10.309,-4.594 -10.309,-10.304 V 440.766 c 0,-5.711 4.598,-10.305 10.309,-10.305 z"
           style="fill:#ffb4e6;fill-opacity:1;fill-rule:nonzero;stroke:#000000;stroke-width:4.12312078;stroke-linecap:round;stroke-linejoin:round;stroke-miterlimit:4;stroke-dasharray:none;stroke-opacity:1"
           id="path46"
           inkscape:connector-curvature="0" /></g><text
         transform="scale(1,-1)"
         style="font-variant:normal;font-weight:normal;font-size:16.29091072px;font-family:Arial;-inkscape-font-specification:Arial;writing-mode:lr-tb;fill:#000000;fill-opacity:1;fill-rule:nonzero;stroke:none"
         id="text50"
         x="244.17853"
         y="-20.938046"><tspan
           sodipodi:role="line"
           id="tspan48"
           x="244.17853"
           y="-20.938046">APPLE</tspan></text>
<path
         d="m 255.984,38.791 c -8.359,0.817 -14.511,4.645 -19.504,12.133 -4.902,7.348 -8.042,17.652 -9.339,30.648 -0.313,3.137 -0.305,11.606 0.011,13.622 1.11,7.058 4.164,13.046 9.067,17.773 3.726,3.594 7.82,5.992 12.699,7.441 2.953,0.879 5.18,1.176 8.812,1.176 3.571,0.004 5.446,-0.254 8.551,-1.183 1.008,-0.297 1.891,-0.481 1.965,-0.407 0.277,0.285 0.383,5.891 0.172,9.063 -0.367,5.508 -1.113,9.039 -2.52,11.949 -1.378,2.852 -2.933,4.094 -5.562,4.453 -1.492,0.207 -2.238,0.852 -2.238,1.934 0,1.73 1.429,2.289 4.191,1.64 1.617,-0.382 2.77,-1.015 4.109,-2.25 2.168,-2 3.676,-4.902 4.692,-9.027 0.281,-1.137 0.558,-2.066 0.617,-2.062 0.059,0 0.422,0.5 0.813,1.109 1.566,2.461 3.902,4.496 6.656,5.801 1.918,0.914 3.199,1.269 5.554,1.554 1.895,0.231 4.766,0.004 5.875,-0.457 2.137,-0.894 1.997,-7.55 -0.246,-11.511 -1.976,-3.493 -5.898,-6.442 -10.078,-7.575 -1.23,-0.332 -2,-0.402 -4.648,-0.414 l -3.176,-0.015 v -0.664 c 0,-0.364 -0.055,-1.297 -0.117,-2.071 -0.145,-1.675 -0.27,-1.625 2.371,-0.957 3.117,0.793 5.668,1.098 9.16,1.094 4.219,0 7.051,-0.461 10.582,-1.719 8.145,-2.898 15.047,-9.539 18.137,-17.441 1.723,-4.402 2.203,-7.371 2.203,-13.555 0,-14.058 -3.367,-28.082 -8.848,-36.863 -2.207,-3.527 -5.617,-7.25 -8.297,-9.055 -4.343,-2.918 -8.558,-4.164 -14.054,-4.144 -3.434,0.011 -5.906,0.39 -9.481,1.457 -3.05,0.914 -3.535,0.945 -5.285,0.371 -1.902,-0.625 -4.015,-1.149 -6,-1.488 -1.66,-0.286 -5.527,-0.489 -6.844,-0.36 z m 6.075,4.145 c 1.73,0.258 3.867,0.793 5.98,1.5 2.277,0.758 3.383,0.758 5.707,-0.008 3.981,-1.313 6.594,-1.758 10.309,-1.758 5.117,0 9.109,1.445 13.078,4.731 5.39,4.461 9.793,13.328 12.039,24.23 1.262,6.125 1.758,10.996 1.754,17.305 -0.004,4.543 -0.164,6.285 -0.817,8.797 -2.605,10.058 -10.98,17.789 -21.32,19.675 -2.394,0.438 -7.305,0.434 -9.98,-0.011 -2.735,-0.453 -5.164,-1.102 -7.036,-1.875 -1.757,-0.727 -1.625,-0.739 -4.335,0.379 -4.61,1.902 -10.036,2.394 -15.137,1.363 -10.867,-2.195 -19.18,-10.703 -21.192,-21.703 -0.398,-2.188 -0.457,-10.485 -0.097,-13.989 1.582,-15.378 5.922,-26.851 12.578,-33.238 0.851,-0.816 2.07,-1.844 2.715,-2.277 2.488,-1.692 5.82,-2.949 8.82,-3.332 1.418,-0.18 5.059,-0.067 6.934,0.211 z m 16.504,85.281 c 1.718,0.328 2.976,0.828 4.476,1.777 1.5,0.946 3.414,3 4.125,4.43 0.684,1.367 1.164,3.461 1.09,4.762 -0.059,0.961 -0.078,0.996 -0.703,1.16 -0.852,0.219 -3.821,-0.117 -5.203,-0.594 -3.723,-1.281 -6.559,-3.98 -7.653,-7.285 -0.48,-1.457 -0.707,-3.859 -0.394,-4.234 0.297,-0.36 2.426,-0.368 4.262,-0.016 z"
         style="fill:#000000;fill-opacity:1;fill-rule:nonzero;stroke:none"
         id="path52"
         inkscape:connector-curvature="0" /><g
         id="g54"
         transform="matrix(1,0,0,-1,0,595.27557)"><path
           d="m 562.957,429.871 h 95.715 c 4.078,0 7.363,3.281 7.363,7.363 v 95.715 c 0,4.078 -3.285,7.364 -7.363,7.364 h -95.715 c -4.078,0 -7.363,-3.286 -7.363,-7.364 v -95.715 c 0,-4.082 3.285,-7.363 7.363,-7.363 z"
           style="fill:#ffb4e6;fill-opacity:1;fill-rule:nonzero;stroke:#000000;stroke-width:2.94508696;stroke-linecap:round;stroke-linejoin:round;stroke-miterlimit:4;stroke-dasharray:none;stroke-opacity:1"
           id="path56"
           inkscape:connector-curvature="0" /></g><text
         transform="scale(1,-1)"
         style="font-variant:normal;font-weight:normal;font-size:11.63636398px;font-family:Arial;-inkscape-font-specification:Arial;writing-mode:lr-tb;fill:#000000;fill-opacity:1;fill-rule:nonzero;stroke:none"
         id="text60"
         x="591.54688"
         y="-62.635223"><tspan
           sodipodi:role="line"
           id="tspan58"
           x="591.54688"
           y="-62.635223">APPLE</tspan></text>
<path
         d="m 600.191,75.385 c -5.968,0.586 -10.363,3.32 -13.929,8.668 -3.5,5.25 -5.742,12.609 -6.668,21.891 -0.227,2.242 -0.223,8.293 0.004,9.73 0.793,5.043 2.976,9.32 6.48,12.695 2.66,2.567 5.582,4.282 9.067,5.317 2.113,0.625 3.699,0.84 6.296,0.84 2.551,0.003 3.891,-0.184 6.106,-0.844 0.719,-0.215 1.351,-0.348 1.406,-0.293 0.195,0.203 0.274,4.207 0.121,6.473 -0.261,3.933 -0.793,6.457 -1.801,8.535 -0.984,2.035 -2.093,2.925 -3.968,3.183 -1.067,0.145 -1.602,0.606 -1.602,1.379 0,1.238 1.024,1.637 2.996,1.172 1.153,-0.273 1.977,-0.723 2.934,-1.605 1.547,-1.43 2.625,-3.5 3.351,-6.45 0.2,-0.812 0.399,-1.476 0.442,-1.472 0.039,0 0.301,0.355 0.578,0.793 1.121,1.757 2.789,3.211 4.754,4.144 1.371,0.649 2.289,0.906 3.969,1.11 1.351,0.164 3.406,0.003 4.199,-0.329 1.523,-0.636 1.422,-5.39 -0.18,-8.222 -1.41,-2.496 -4.211,-4.602 -7.199,-5.41 -0.875,-0.239 -1.426,-0.286 -3.32,-0.297 l -2.266,-0.012 v -0.473 c 0,-0.257 -0.039,-0.925 -0.086,-1.48 -0.102,-1.195 -0.191,-1.16 1.695,-0.68 2.227,0.563 4.051,0.781 6.543,0.781 3.012,-0.003 5.035,-0.328 7.559,-1.226 5.816,-2.074 10.75,-6.816 12.953,-12.461 1.23,-3.145 1.574,-5.266 1.574,-9.684 0,-10.039 -2.402,-20.058 -6.32,-26.328 -1.574,-2.523 -4.012,-5.179 -5.926,-6.468 -3.101,-2.086 -6.113,-2.973 -10.039,-2.961 -2.453,0.007 -4.219,0.281 -6.769,1.043 -2.18,0.648 -2.528,0.675 -3.774,0.265 -1.359,-0.449 -2.871,-0.824 -4.289,-1.066 -1.184,-0.203 -3.949,-0.348 -4.891,-0.258 z m 4.34,2.965 c 1.239,0.183 2.762,0.566 4.274,1.07 1.629,0.543 2.414,0.539 4.074,-0.008 2.848,-0.933 4.711,-1.254 7.363,-1.254 3.656,0 6.508,1.032 9.344,3.379 3.848,3.188 6.996,9.52 8.602,17.309 0.898,4.371 1.253,7.855 1.25,12.359 -0.004,3.242 -0.118,4.489 -0.583,6.285 -1.863,7.184 -7.843,12.704 -15.23,14.051 -1.711,0.313 -5.219,0.309 -7.129,-0.008 -1.953,-0.324 -3.687,-0.785 -5.023,-1.339 -1.258,-0.52 -1.16,-0.528 -3.098,0.273 -3.293,1.359 -7.168,1.707 -10.812,0.973 -7.762,-1.567 -13.7,-7.649 -15.137,-15.504 -0.285,-1.563 -0.328,-7.485 -0.071,-9.992 1.129,-10.985 4.231,-19.18 8.985,-23.743 0.609,-0.582 1.48,-1.312 1.937,-1.625 1.782,-1.207 4.161,-2.105 6.305,-2.379 1.008,-0.128 3.609,-0.046 4.949,0.153 z m 11.789,60.914 c 1.227,0.234 2.125,0.59 3.196,1.269 1.074,0.676 2.441,2.141 2.949,3.164 0.488,0.977 0.832,2.473 0.777,3.403 -0.039,0.683 -0.054,0.711 -0.5,0.824 -0.609,0.16 -2.73,-0.082 -3.719,-0.422 -2.656,-0.914 -4.683,-2.844 -5.464,-5.203 -0.344,-1.043 -0.504,-2.758 -0.282,-3.023 0.211,-0.258 1.731,-0.266 3.043,-0.012 z"
         style="fill:#000000;fill-opacity:1;fill-rule:nonzero;stroke:none"
         id="path62"
         inkscape:connector-curvature="0" /><g
         id="g64"
         transform="matrix(1,0,0,-1,0,595.27557)"><path
           d="m 690.789,429.871 h 95.715 c 4.078,0 7.363,3.281 7.363,7.363 v 95.715 c 0,4.078 -3.285,7.364 -7.363,7.364 h -95.715 c -4.078,0 -7.363,-3.286 -7.363,-7.364 v -95.715 c 0,-4.082 3.285,-7.363 7.363,-7.363 z"
           style="fill:#ffb4e6;fill-opacity:1;fill-rule:nonzero;stroke:#000000;stroke-width:2.94508696;stroke-linecap:round;stroke-linejoin:round;stroke-miterlimit:4;stroke-dasharray:none;stroke-opacity:1"
           id="path66"
           inkscape:connector-curvature="0" /></g><text
         transform="scale(1,-1)"
         style="font-variant:normal;font-weight:normal;font-size:11.63636398px;font-family:Arial;-inkscape-font-specification:Arial;writing-mode:lr-tb;fill:#000000;fill-opacity:1;fill-rule:nonzero;stroke:none"
         id="text70"
         x="719.3797"
         y="-62.635223"><tspan
           sodipodi:role="line"
           id="tspan68"
           x="719.3797"
           y="-62.635223">APPLE</tspan></text>
<path
         d="m 728.027,75.385 c -5.972,0.586 -10.367,3.32 -13.933,8.668 -3.5,5.25 -5.742,12.609 -6.668,21.891 -0.227,2.242 -0.223,8.293 0.004,9.73 0.797,5.043 2.976,9.32 6.48,12.695 2.66,2.567 5.582,4.282 9.067,5.317 2.113,0.625 3.703,0.84 6.296,0.84 2.551,0.003 3.891,-0.184 6.11,-0.844 0.719,-0.215 1.347,-0.348 1.402,-0.293 0.199,0.203 0.274,4.207 0.121,6.473 -0.261,3.933 -0.793,6.457 -1.797,8.535 -0.988,2.035 -2.097,2.925 -3.972,3.183 -1.067,0.145 -1.598,0.606 -1.598,1.379 0,1.238 1.02,1.637 2.992,1.172 1.153,-0.273 1.977,-0.723 2.934,-1.605 1.547,-1.43 2.625,-3.5 3.351,-6.45 0.2,-0.812 0.399,-1.476 0.442,-1.472 0.039,0 0.301,0.355 0.578,0.793 1.121,1.757 2.789,3.211 4.758,4.144 1.367,0.649 2.285,0.906 3.965,1.11 1.351,0.164 3.406,0.003 4.199,-0.329 1.527,-0.636 1.422,-5.39 -0.176,-8.222 -1.414,-2.496 -4.215,-4.602 -7.199,-5.41 -0.879,-0.239 -1.43,-0.286 -3.32,-0.297 l -2.27,-0.012 v -0.473 c 0,-0.257 -0.039,-0.925 -0.086,-1.48 -0.102,-1.195 -0.191,-1.16 1.695,-0.68 2.227,0.563 4.051,0.781 6.543,0.781 3.012,-0.003 5.039,-0.328 7.559,-1.226 5.816,-2.074 10.75,-6.816 12.957,-12.461 1.227,-3.145 1.574,-5.266 1.574,-9.684 0,-10.039 -2.406,-20.058 -6.324,-26.328 -1.574,-2.523 -4.008,-5.179 -5.926,-6.468 -3.101,-2.086 -6.113,-2.973 -10.039,-2.961 -2.449,0.007 -4.219,0.281 -6.769,1.043 -2.18,0.648 -2.524,0.675 -3.774,0.265 -1.359,-0.449 -2.871,-0.824 -4.289,-1.066 -1.184,-0.203 -3.949,-0.348 -4.887,-0.258 z m 4.336,2.965 c 1.239,0.183 2.766,0.566 4.274,1.07 1.629,0.543 2.414,0.539 4.078,-0.008 2.844,-0.933 4.711,-1.254 7.363,-1.254 3.656,0 6.508,1.032 9.34,3.379 3.852,3.188 6.996,9.52 8.602,17.309 0.902,4.371 1.253,7.855 1.25,12.359 0,3.242 -0.118,4.489 -0.582,6.285 -1.864,7.184 -7.844,12.704 -15.231,14.051 -1.707,0.313 -5.215,0.309 -7.129,-0.008 -1.953,-0.324 -3.687,-0.785 -5.023,-1.339 -1.258,-0.52 -1.16,-0.528 -3.098,0.273 -3.293,1.359 -7.168,1.707 -10.812,0.973 -7.762,-1.567 -13.7,-7.649 -15.137,-15.504 -0.285,-1.563 -0.324,-7.485 -0.07,-9.992 1.128,-10.985 4.23,-19.18 8.984,-23.743 0.609,-0.582 1.48,-1.312 1.941,-1.625 1.778,-1.207 4.157,-2.105 6.301,-2.379 1.012,-0.128 3.609,-0.046 4.949,0.153 z m 11.789,60.914 c 1.231,0.234 2.125,0.59 3.2,1.269 1.07,0.676 2.437,2.141 2.949,3.164 0.488,0.977 0.828,2.473 0.773,3.403 -0.039,0.683 -0.054,0.711 -0.5,0.824 -0.609,0.16 -2.73,-0.082 -3.719,-0.422 -2.656,-0.914 -4.683,-2.844 -5.46,-5.203 -0.348,-1.043 -0.508,-2.758 -0.286,-3.023 0.211,-0.258 1.735,-0.266 3.043,-0.012 z"
         style="fill:#000000;fill-opacity:1;fill-rule:nonzero;stroke:none"
         id="path72"
         inkscape:connector-curvature="0" /><g
         id="g74"
         transform="matrix(1,0,0,-1,0,595.27557)"><path
           d="M 457.746,24.934 H 792.75 c 14.277,0 25.77,11.492 25.77,25.769 v 335.004 c 0,14.277 -11.493,25.77 -25.77,25.77 H 457.746 c -14.277,0 -25.769,-11.493 -25.769,-25.77 V 50.703 c 0,-14.277 11.492,-25.769 25.769,-25.769 z"
           style="fill:#ffb4e6;fill-opacity:1;fill-rule:nonzero;stroke:#000000;stroke-width:10.30780315;stroke-linecap:round;stroke-linejoin:round;stroke-miterlimit:4;stroke-dasharray:none;stroke-opacity:1"
           id="path76"
           inkscape:connector-curvature="0" /></g><text
         transform="scale(1,-1)"
         style="font-variant:normal;font-weight:normal;font-size:40.72727585px;font-family:Arial;-inkscape-font-specification:Arial;writing-mode:lr-tb;fill:#000000;fill-opacity:1;fill-rule:nonzero;stroke:none"
         id="text80"
         x="554.81439"
         y="-210.64557"><tspan
           sodipodi:role="line"
           id="tspan78"
           x="554.81439"
           y="-210.64557">APPLE</tspan></text>
<path
         d="m 588.074,255.276 c -20.894,2.043 -36.273,11.609 -48.754,30.332 -12.254,18.375 -20.105,44.136 -23.347,76.621 -0.785,7.847 -0.77,29.019 0.023,34.05 2.777,17.649 10.414,32.618 22.672,44.438 9.312,8.984 19.547,14.98 31.742,18.602 7.387,2.195 12.949,2.937 22.035,2.945 8.922,0.008 13.614,-0.641 21.375,-2.957 2.516,-0.75 4.727,-1.211 4.914,-1.02 0.692,0.707 0.957,14.723 0.43,22.653 -0.918,13.769 -2.781,22.601 -6.301,29.875 -3.449,7.125 -7.332,10.238 -13.902,11.136 -3.731,0.512 -5.594,2.121 -5.594,4.828 0,4.333 3.571,5.731 10.477,4.102 4.035,-0.953 6.926,-2.531 10.269,-5.621 5.418,-5 9.188,-12.254 11.731,-22.566 0.703,-2.844 1.394,-5.168 1.543,-5.165 0.144,0.008 1.058,1.258 2.027,2.778 3.922,6.152 9.758,11.238 16.645,14.508 4.793,2.277 8,3.172 13.882,3.882 4.735,0.575 11.918,0.012 14.696,-1.148 5.34,-2.23 4.984,-18.871 -0.621,-28.77 -4.942,-8.738 -14.746,-16.109 -25.196,-18.941 -3.074,-0.832 -5,-1.004 -11.621,-1.039 l -7.937,-0.039 v -1.656 c 0,-0.91 -0.133,-3.242 -0.297,-5.176 -0.356,-4.191 -0.668,-4.063 5.933,-2.387 7.79,1.973 14.172,2.735 22.895,2.735 10.547,-0.008 17.633,-1.153 26.461,-4.301 20.359,-7.25 37.617,-23.852 45.34,-43.606 4.301,-11.004 5.508,-18.425 5.508,-33.886 0,-35.141 -8.418,-70.207 -22.125,-92.153 -5.512,-8.828 -14.036,-18.133 -20.739,-22.64 -10.855,-7.301 -21.394,-10.411 -35.136,-10.364 -8.582,0.032 -14.766,0.981 -23.7,3.649 -7.625,2.277 -8.836,2.359 -13.211,0.926 -4.757,-1.567 -10.043,-2.879 -15,-3.727 -4.152,-0.715 -13.824,-1.219 -17.117,-0.898 z m 15.188,10.367 c 4.332,0.644 9.668,1.984 14.957,3.746 5.691,1.898 8.449,1.898 14.265,-0.02 9.954,-3.277 16.485,-4.39 25.77,-4.39 12.797,0 22.777,3.609 32.699,11.824 13.469,11.156 24.485,33.316 30.098,60.574 3.156,15.313 4.387,27.496 4.379,43.258 -0.008,11.359 -0.41,15.719 -2.039,22 -6.516,25.144 -27.45,44.465 -53.301,49.187 -5.985,1.094 -18.262,1.079 -24.953,-0.031 -6.832,-1.133 -12.903,-2.75 -17.582,-4.687 -4.399,-1.821 -4.063,-1.848 -10.844,0.949 -11.527,4.758 -25.09,5.98 -37.84,3.406 -27.172,-5.484 -47.949,-26.762 -52.98,-54.258 -1,-5.464 -1.145,-26.207 -0.243,-34.972 3.95,-38.45 14.801,-67.129 31.442,-83.094 2.129,-2.043 5.18,-4.606 6.785,-5.695 6.227,-4.227 14.559,-7.371 22.059,-8.325 3.539,-0.449 12.64,-0.171 17.328,0.528 z m 41.261,213.199 c 4.297,0.824 7.438,2.074 11.188,4.441 3.754,2.371 8.535,7.5 10.32,11.075 1.711,3.418 2.907,8.656 2.719,11.91 -0.141,2.398 -0.191,2.484 -1.754,2.894 -2.129,0.555 -9.551,-0.293 -13.012,-1.48 -9.304,-3.203 -16.394,-9.953 -19.125,-18.215 -1.203,-3.645 -1.769,-9.652 -0.996,-10.586 0.75,-0.902 6.071,-0.922 10.66,-0.039 z"
         style="fill:#000000;fill-opacity:1;fill-rule:nonzero;stroke:none"
         id="path82"
         inkscape:connector-curvature="0" /></g></g></svg>