<?xml version="1.0" encoding="UTF-8" standalone="no"?>
<!-- Created with Inkscape (http://www.inkscape.org/) -->

<svg
   xmlns:dc="http://purl.org/dc/elements/1.1/"
   xmlns:cc="http://creativecommons.org/ns#"
   xmlns:rdf="http://www.w3.org/1999/02/22-rdf-syntax-ns#"
   xmlns:svg="http://www.w3.org/2000/svg"
   xmlns="http://www.w3.org/2000/svg"
   xmlns:sodipodi="http://sodipodi.sourceforge.net/DTD/sodipodi-0.dtd"
   xmlns:inkscape="http://www.inkscape.org/namespaces/inkscape"
   version="1.1"
   id="svg2"
   xml:space="preserve"
   width="1122.5197"
   height="793.70074"
   viewBox="0 0 1122.5197 793.70074"
   sodipodi:docname="BananA.svg"
   inkscape:version="0.92.2 5c3e80d, 2017-08-06"><metadata
     id="metadata8"><rdf:RDF><cc:Work
         rdf:about=""><dc:format>image/svg+xml</dc:format><dc:type
           rdf:resource="http://purl.org/dc/dcmitype/StillImage" /><dc:title></dc:title></cc:Work></rdf:RDF></metadata><defs
     id="defs6" /><sodipodi:namedview
     pagecolor="#ffffff"
     bordercolor="#666666"
     borderopacity="1"
     objecttolerance="10"
     gridtolerance="10"
     guidetolerance="10"
     inkscape:pageopacity="0"
     inkscape:pageshadow="2"
     inkscape:window-width="758"
     inkscape:window-height="480"
     id="namedview4"
     showgrid="false"
     inkscape:zoom="0.29734129"
     inkscape:cx="981.65217"
     inkscape:cy="90.804746"
     inkscape:window-x="0"
     inkscape:window-y="0"
     inkscape:window-maximized="0"
     inkscape:current-layer="g10" /><g
     id="g10"
     inkscape:groupmode="layer"
     inkscape:label="Banane"
     transform="matrix(1.3333333,0,0,-1.3333333,0,793.70077)"><g
       id="g12"><g
         id="g14"
         transform="matrix(1,0,0,-1,0,595.27557)"><path
           d="m 49.645,24.934 h 335.003 c 14.274,0 25.77,11.492 25.77,25.769 v 335.004 c 0,14.277 -11.496,25.77 -25.77,25.77 H 49.645 c -14.278,0 -25.77,-11.493 -25.77,-25.77 V 50.703 c 0,-14.277 11.492,-25.769 25.77,-25.769 z"
           style="fill:#ffd200;fill-opacity:1;fill-rule:nonzero;stroke:#000000;stroke-width:10.30780315;stroke-linecap:round;stroke-linejoin:round;stroke-miterlimit:4;stroke-dasharray:none;stroke-opacity:1"
           id="path16"
           inkscape:connector-curvature="0" /></g><text
         transform="matrix(1,0,0,-1,132.9367,210.64554)"
         style="font-variant:normal;font-weight:normal;font-size:40.72727585px;font-family:Arial;-inkscape-font-specification:Arial;writing-mode:lr-tb;fill:#000000;fill-opacity:1;fill-rule:nonzero;stroke:none"
         id="text20"><tspan
           sodipodi:role="line"
           id="tspan18"
           x="0"
           y="0">BANANA</tspan></text>
<path
         d="m 160.832,258.139 c -34.394,3.781 -63.504,15.805 -89.926,37.14 -6.468,5.227 -15.586,14.2 -16.789,16.524 -0.918,1.777 -2.566,10.508 -2.57,13.613 0,2.703 6.031,15.004 8.195,16.703 1.856,1.461 2.332,1.391 8.336,-1.265 9.399,-4.157 19.356,-5.95 35.309,-6.352 29.672,-0.754 61.812,6.231 102.109,22.195 29.152,11.547 47.926,22.645 66.942,39.567 27.82,24.762 46.527,60.133 50.449,95.398 l 0.691,6.242 -2.07,8.02 c -1.137,4.41 -2.942,11.387 -4.012,15.508 -1.785,6.875 -1.879,7.64 -1.164,9.355 1.102,2.633 2.844,2.938 18.051,3.149 l 12.984,0.183 1.449,-1.359 c 1.356,-1.273 1.446,-1.688 1.446,-6.637 0,-2.902 -0.285,-8.304 -0.637,-12.004 -1.156,-12.164 1.082,-17.425 17.125,-40.25 11.617,-16.523 13.977,-22.586 15.508,-39.859 2.07,-23.297 -2.5,-46.766 -13.473,-69.148 -15.969,-32.579 -44.148,-58.891 -85.199,-79.551 -28.898,-14.543 -53.387,-22.438 -81.84,-26.395 -7.664,-1.066 -33.777,-1.562 -40.914,-0.777 z m 42.594,10.519 c 46.726,7.032 96.418,30.719 127.719,60.899 24.496,23.609 38.265,50.961 41.589,82.597 0.805,7.692 0.383,22.43 -0.839,29.235 -1.887,10.492 -3.485,13.683 -15.336,30.644 -14.649,20.961 -17.926,29.282 -16.473,41.836 0.855,7.399 0.84,10.426 -0.051,10.493 -2.894,0.203 -12.558,-0.219 -12.914,-0.567 -0.246,-0.234 0.981,-5.828 2.723,-12.426 3.07,-11.629 3.156,-12.152 2.797,-17.015 -0.856,-11.621 -4.219,-26.446 -8.848,-38.977 -15.848,-42.945 -48.363,-76.855 -94.891,-98.961 -10.726,-5.097 -28.386,-12.054 -42.57,-16.765 -21.914,-7.286 -40.598,-11.598 -59.969,-13.844 -8.234,-0.953 -31.601,-0.945 -38.109,0.019 -5.883,0.868 -15.137,3.028 -19.688,4.594 -1.75,0.602 -3.476,1.098 -3.836,1.098 -0.355,0 -1.351,-1.469 -2.21,-3.266 -1.532,-3.207 -1.547,-3.344 -0.868,-7.555 0.813,-5.05 1.743,-6.324 9.946,-13.628 24.031,-21.395 54.078,-35.122 85.031,-38.844 2.773,-0.336 5.801,-0.711 6.726,-0.832 0.922,-0.125 8.618,-0.145 17.094,-0.047 11.91,0.137 17.129,0.433 22.977,1.312 z"
         style="fill:#000000;fill-opacity:1;fill-rule:nonzero;stroke:none"
         id="path22"
         inkscape:connector-curvature="0" /><g
         id="g24"
         transform="matrix(1,0,0,-1,0,595.27557)"><path
           d="M 457.746,24.934 H 792.75 c 14.277,0 25.77,11.492 25.77,25.769 v 335.004 c 0,14.277 -11.493,25.77 -25.77,25.77 H 457.746 c -14.277,0 -25.769,-11.493 -25.769,-25.77 V 50.703 c 0,-14.277 11.492,-25.769 25.769,-25.769 z"
           style="fill:#ffd200;fill-opacity:1;fill-rule:nonzero;stroke:#000000;stroke-width:10.30780315;stroke-linecap:round;stroke-linejoin:round;stroke-miterlimit:4;stroke-dasharray:none;stroke-opacity:1"
           id="path26"
           inkscape:connector-curvature="0" /></g><text
         transform="matrix(1,0,0,-1,541.03908,210.64554)"
         style="font-variant:normal;font-weight:normal;font-size:40.72727585px;font-family:Arial;-inkscape-font-specification:Arial;writing-mode:lr-tb;fill:#000000;fill-opacity:1;fill-rule:nonzero;stroke:none"
         id="text30"><tspan
           sodipodi:role="line"
           id="tspan28"
           x="0"
           y="0">BANANA</tspan></text>
<path
         d="m 568.934,258.139 c -34.391,3.781 -63.504,15.805 -89.926,37.14 -6.469,5.227 -15.586,14.2 -16.789,16.524 -0.918,1.777 -2.567,10.508 -2.571,13.613 0,2.703 6.032,15.004 8.196,16.703 1.855,1.461 2.332,1.391 8.336,-1.265 9.398,-4.157 19.355,-5.95 35.308,-6.352 29.676,-0.754 61.817,6.231 102.11,22.195 29.156,11.547 47.925,22.645 66.941,39.567 27.82,24.762 46.527,60.133 50.449,95.398 l 0.692,6.242 -2.067,8.02 c -1.14,4.41 -2.945,11.387 -4.015,15.508 -1.782,6.875 -1.879,7.64 -1.164,9.355 1.101,2.633 2.847,2.938 18.05,3.149 l 12.985,0.183 1.449,-1.359 c 1.359,-1.273 1.449,-1.688 1.449,-6.637 0,-2.902 -0.289,-8.304 -0.64,-12.004 -1.157,-12.164 1.086,-17.425 17.128,-40.25 11.614,-16.523 13.973,-22.586 15.508,-39.859 2.067,-23.297 -2.504,-46.766 -13.472,-69.148 -15.969,-32.579 -44.153,-58.891 -85.203,-79.551 -28.899,-14.543 -53.383,-22.438 -81.84,-26.395 -7.664,-1.066 -33.778,-1.562 -40.914,-0.777 z m 42.593,10.519 c 46.731,7.032 96.418,30.719 127.719,60.899 24.496,23.609 38.266,50.961 41.59,82.597 0.809,7.692 0.383,22.43 -0.84,29.235 -1.883,10.492 -3.484,13.683 -15.336,30.644 -14.648,20.961 -17.926,29.282 -16.472,41.836 0.855,7.399 0.839,10.426 -0.051,10.493 -2.895,0.203 -12.559,-0.219 -12.914,-0.567 -0.246,-0.234 0.98,-5.828 2.722,-12.426 3.071,-11.629 3.157,-12.152 2.797,-17.015 -0.855,-11.621 -4.219,-26.446 -8.844,-38.977 -15.851,-42.945 -48.367,-76.855 -94.894,-98.961 -10.723,-5.097 -28.387,-12.054 -42.57,-16.765 -21.911,-7.286 -40.594,-11.598 -59.965,-13.844 -8.239,-0.953 -31.606,-0.945 -38.114,0.019 -5.878,0.868 -15.132,3.028 -19.687,4.594 -1.75,0.602 -3.477,1.098 -3.836,1.098 -0.355,0 -1.352,-1.469 -2.211,-3.266 -1.531,-3.207 -1.547,-3.344 -0.867,-7.555 0.816,-5.05 1.742,-6.324 9.945,-13.628 24.031,-21.395 54.082,-35.122 85.031,-38.844 2.774,-0.336 5.801,-0.711 6.727,-0.832 0.926,-0.125 8.617,-0.145 17.094,-0.047 11.91,0.137 17.129,0.433 22.976,1.312 z"
         style="fill:#000000;fill-opacity:1;fill-rule:nonzero;stroke:none"
         id="path32"
         inkscape:connector-curvature="0" /><g
         id="g34"
         transform="matrix(1,0,0,-1,0,595.27557)"><path
           d="m 31.09,430.461 h 134 c 5.711,0 10.308,4.594 10.308,10.305 V 574.77 c 0,5.71 -4.597,10.304 -10.308,10.304 h -134 c -5.711,0 -10.309,-4.594 -10.309,-10.304 V 440.766 c 0,-5.711 4.598,-10.305 10.309,-10.305 z"
           style="fill:#ffd200;fill-opacity:1;fill-rule:nonzero;stroke:#000000;stroke-width:4.12312078;stroke-linecap:round;stroke-linejoin:round;stroke-miterlimit:4;stroke-dasharray:none;stroke-opacity:1"
           id="path36"
           inkscape:connector-curvature="0" /></g><text
         transform="matrix(1,0,0,-1,64.406856,20.938062)"
         style="font-variant:normal;font-weight:normal;font-size:16.29091072px;font-family:Arial;-inkscape-font-specification:Arial;writing-mode:lr-tb;fill:#000000;fill-opacity:1;fill-rule:nonzero;stroke:none"
         id="text40"><tspan
           sodipodi:role="line"
           id="tspan38"
           x="0"
           y="0">BANANA</tspan></text>
<path
         d="m 75.566,39.936 c -13.757,1.511 -25.402,6.32 -35.972,14.855 -2.586,2.09 -6.235,5.68 -6.715,6.61 -0.367,0.711 -1.027,4.203 -1.027,5.445 0,1.082 2.41,6 3.277,6.683 0.742,0.583 0.934,0.555 3.336,-0.507 3.758,-1.664 7.742,-2.379 14.121,-2.543 11.871,-0.301 24.727,2.496 40.844,8.879 11.664,4.621 19.172,9.058 26.777,15.828 11.129,9.902 18.609,24.051 20.18,38.16 l 0.277,2.496 -0.828,3.207 c -0.457,1.766 -1.176,4.555 -1.606,6.203 -0.714,2.75 -0.75,3.059 -0.464,3.742 0.441,1.055 1.136,1.176 7.218,1.262 l 5.196,0.07 0.578,-0.543 c 0.543,-0.507 0.578,-0.671 0.578,-2.656 0,-1.16 -0.113,-3.32 -0.254,-4.801 -0.461,-4.863 0.434,-6.968 6.852,-16.097 4.644,-6.61 5.589,-9.035 6.203,-15.946 0.828,-9.32 -1.004,-18.707 -5.391,-27.656 C 152.359,69.592 141.086,59.069 124.668,50.803 113.105,44.987 103.313,41.83 91.93,40.244 88.863,39.819 78.418,39.623 75.566,39.936 Z m 17.036,4.207 c 18.691,2.812 38.566,12.289 51.089,24.359 9.797,9.445 15.305,20.387 16.633,33.039 0.324,3.078 0.156,8.973 -0.336,11.696 -0.754,4.195 -1.39,5.472 -6.133,12.257 -5.859,8.383 -7.171,11.711 -6.589,16.735 0.343,2.957 0.336,4.168 -0.02,4.195 -1.156,0.082 -5.023,-0.086 -5.164,-0.227 -0.098,-0.093 0.391,-2.332 1.086,-4.968 1.23,-4.653 1.266,-4.864 1.121,-6.809 -0.344,-4.648 -1.687,-10.578 -3.539,-15.59 C 134.41,101.651 121.402,88.088 102.793,79.244 98.504,77.209 91.438,74.424 85.766,72.541 77,69.627 69.527,67.901 61.777,67.002 58.484,66.619 49.137,66.623 46.535,67.01 c -2.355,0.348 -6.055,1.211 -7.875,1.84 -0.703,0.238 -1.394,0.437 -1.535,0.437 -0.145,0 -0.543,-0.59 -0.883,-1.308 -0.613,-1.282 -0.621,-1.336 -0.347,-3.02 0.324,-2.019 0.695,-2.531 3.976,-5.453 9.613,-8.559 21.633,-14.047 34.012,-15.535 1.109,-0.137 2.32,-0.285 2.691,-0.336 0.371,-0.047 3.446,-0.055 6.836,-0.016 4.766,0.055 6.852,0.172 9.192,0.524 z"
         style="fill:#000000;fill-opacity:1;fill-rule:nonzero;stroke:none"
         id="path42"
         inkscape:connector-curvature="0" /><g
         id="g44"
         transform="matrix(1,0,0,-1,0,595.27557)"><path
           d="m 203.852,430.461 h 134 c 5.711,0 10.308,4.594 10.308,10.305 V 574.77 c 0,5.71 -4.597,10.304 -10.308,10.304 h -134 c -5.711,0 -10.309,-4.594 -10.309,-10.304 V 440.766 c 0,-5.711 4.598,-10.305 10.309,-10.305 z"
           style="fill:#ffd200;fill-opacity:1;fill-rule:nonzero;stroke:#000000;stroke-width:4.12312078;stroke-linecap:round;stroke-linejoin:round;stroke-miterlimit:4;stroke-dasharray:none;stroke-opacity:1"
           id="path46"
           inkscape:connector-curvature="0" /></g><text
         transform="matrix(1,0,0,-1,237.16841,20.938062)"
         style="font-variant:normal;font-weight:normal;font-size:16.29091072px;font-family:Arial;-inkscape-font-specification:Arial;writing-mode:lr-tb;fill:#000000;fill-opacity:1;fill-rule:nonzero;stroke:none"
         id="text50"><tspan
           sodipodi:role="line"
           id="tspan48"
           x="0"
           y="0">BANANA</tspan></text>
<path
         d="m 248.328,39.936 c -13.758,1.511 -25.402,6.32 -35.973,14.855 -2.585,2.09 -6.234,5.68 -6.714,6.61 -0.368,0.711 -1.028,4.203 -1.028,5.445 0,1.082 2.41,6 3.278,6.683 0.742,0.583 0.933,0.555 3.336,-0.507 3.757,-1.664 7.742,-2.379 14.121,-2.543 11.871,-0.301 24.726,2.496 40.843,8.879 11.664,4.621 19.172,9.058 26.778,15.828 11.129,9.902 18.609,24.051 20.179,38.16 l 0.278,2.496 -0.828,3.207 c -0.457,1.766 -1.18,4.555 -1.606,6.203 -0.715,2.75 -0.75,3.059 -0.465,3.742 0.442,1.055 1.137,1.176 7.219,1.262 l 5.195,0.07 0.579,-0.543 c 0.543,-0.507 0.578,-0.671 0.578,-2.656 0,-1.16 -0.114,-3.32 -0.254,-4.801 -0.461,-4.863 0.433,-6.968 6.851,-16.097 4.645,-6.61 5.59,-9.035 6.203,-15.946 0.829,-9.32 -1.003,-18.707 -5.39,-27.656 C 325.121,69.592 313.848,59.069 297.426,50.803 285.867,44.987 276.074,41.83 264.691,40.244 261.625,39.819 251.18,39.623 248.328,39.936 Z m 17.035,4.207 c 18.692,2.812 38.567,12.289 51.09,24.359 9.797,9.445 15.305,20.387 16.633,33.039 0.324,3.078 0.156,8.973 -0.336,11.696 -0.754,4.195 -1.391,5.472 -6.133,12.257 -5.859,8.383 -7.172,11.711 -6.59,16.735 0.344,2.957 0.336,4.168 -0.019,4.195 -1.156,0.082 -5.024,-0.086 -5.164,-0.227 -0.102,-0.093 0.39,-2.332 1.086,-4.968 1.23,-4.653 1.261,-4.864 1.121,-6.809 -0.344,-4.648 -1.688,-10.578 -3.539,-15.59 -6.34,-17.179 -19.348,-30.742 -37.957,-39.586 -4.289,-2.035 -11.356,-4.82 -17.028,-6.703 -8.765,-2.914 -16.238,-4.64 -23.988,-5.539 -3.293,-0.383 -12.641,-0.379 -15.242,0.008 -2.356,0.348 -6.055,1.211 -7.875,1.84 -0.703,0.238 -1.395,0.437 -1.535,0.437 -0.145,0 -0.543,-0.59 -0.887,-1.308 -0.609,-1.282 -0.617,-1.336 -0.348,-3.02 0.328,-2.019 0.7,-2.531 3.981,-5.453 9.613,-8.559 21.633,-14.047 34.012,-15.535 1.109,-0.137 2.32,-0.285 2.691,-0.336 0.371,-0.047 3.445,-0.055 6.836,-0.016 4.766,0.055 6.851,0.172 9.191,0.524 z"
         style="fill:#000000;fill-opacity:1;fill-rule:nonzero;stroke:none"
         id="path52"
         inkscape:connector-curvature="0" /><g
         id="g54"
         transform="matrix(1,0,0,-1,0,595.27557)"><path
           d="m 435.656,429.871 h 95.719 c 4.078,0 7.359,3.281 7.359,7.363 v 95.715 c 0,4.078 -3.281,7.364 -7.359,7.364 h -95.719 c -4.078,0 -7.359,-3.286 -7.359,-7.364 v -95.715 c 0,-4.082 3.281,-7.363 7.359,-7.363 z"
           style="fill:#ffd200;fill-opacity:1;fill-rule:nonzero;stroke:#000000;stroke-width:2.94508696;stroke-linecap:round;stroke-linejoin:round;stroke-miterlimit:4;stroke-dasharray:none;stroke-opacity:1"
           id="path56"
           inkscape:connector-curvature="0" /></g><text
         transform="matrix(1,0,0,-1,459.45593,62.635192)"
         style="font-variant:normal;font-weight:normal;font-size:11.63636398px;font-family:Arial;-inkscape-font-specification:Arial;writing-mode:lr-tb;fill:#000000;fill-opacity:1;fill-rule:nonzero;stroke:none"
         id="text60"><tspan
           sodipodi:role="line"
           id="tspan58"
           x="0"
           y="0">BANANA</tspan></text>
<path
         d="m 467.426,76.205 c -9.828,1.078 -18.145,4.516 -25.692,10.614 -1.851,1.492 -4.453,4.054 -4.796,4.718 -0.266,0.508 -0.735,3.004 -0.735,3.891 0,0.769 1.723,4.285 2.34,4.773 0.531,0.414 0.668,0.395 2.383,-0.363 2.683,-1.187 5.527,-1.699 10.086,-1.816 8.48,-0.215 17.664,1.781 29.176,6.343 8.328,3.297 13.691,6.469 19.125,11.305 7.949,7.074 13.292,17.18 14.414,27.254 l 0.199,1.785 -0.594,2.289 c -0.324,1.262 -0.84,3.258 -1.144,4.434 -0.512,1.965 -0.54,2.183 -0.333,2.672 0.313,0.754 0.813,0.84 5.157,0.902 l 3.711,0.051 0.414,-0.391 c 0.386,-0.363 0.414,-0.48 0.414,-1.894 0,-0.828 -0.082,-2.371 -0.184,-3.43 -0.332,-3.477 0.309,-4.98 4.895,-11.5 3.316,-4.723 3.992,-6.453 4.429,-11.387 0.59,-6.66 -0.714,-13.363 -3.851,-19.758 -4.563,-9.308 -12.613,-16.828 -24.34,-22.73 -8.258,-4.152 -15.254,-6.41 -23.383,-7.539 -2.191,-0.305 -9.652,-0.449 -11.691,-0.223 z m 12.172,3.004 c 13.347,2.008 27.547,8.778 36.488,17.399 7,6.75 10.934,14.562 11.883,23.601 0.23,2.195 0.109,6.41 -0.239,8.352 -0.539,3 -0.996,3.91 -4.382,8.758 -4.184,5.988 -5.121,8.363 -4.707,11.953 0.246,2.113 0.242,2.976 -0.016,2.996 -0.824,0.058 -3.586,-0.063 -3.687,-0.16 -0.071,-0.071 0.281,-1.668 0.777,-3.551 0.879,-3.324 0.902,-3.473 0.801,-4.863 -0.246,-3.321 -1.207,-7.555 -2.528,-11.137 -4.531,-12.27 -13.82,-21.957 -27.113,-28.274 -3.066,-1.457 -8.109,-3.441 -12.164,-4.789 -6.262,-2.082 -11.598,-3.312 -17.133,-3.957 -2.351,-0.273 -9.031,-0.269 -10.887,0.008 -1.683,0.246 -4.328,0.863 -5.625,1.313 -0.503,0.171 -0.996,0.312 -1.097,0.312 -0.102,0 -0.387,-0.422 -0.633,-0.933 -0.438,-0.915 -0.441,-0.954 -0.246,-2.157 0.23,-1.445 0.496,-1.808 2.84,-3.894 6.867,-6.114 15.453,-10.035 24.297,-11.102 0.793,-0.094 1.656,-0.199 1.921,-0.234 0.262,-0.035 2.461,-0.043 4.883,-0.016 3.403,0.039 4.895,0.125 6.567,0.375 z"
         style="fill:#000000;fill-opacity:1;fill-rule:nonzero;stroke:none"
         id="path62"
         inkscape:connector-curvature="0" /><g
         id="g64"
         transform="matrix(1,0,0,-1,0,595.27557)"><path
           d="m 562.957,429.871 h 95.715 c 4.078,0 7.363,3.281 7.363,7.363 v 95.715 c 0,4.078 -3.285,7.364 -7.363,7.364 h -95.715 c -4.078,0 -7.363,-3.286 -7.363,-7.364 v -95.715 c 0,-4.082 3.285,-7.363 7.363,-7.363 z"
           style="fill:#ffd200;fill-opacity:1;fill-rule:nonzero;stroke:#000000;stroke-width:2.94508696;stroke-linecap:round;stroke-linejoin:round;stroke-miterlimit:4;stroke-dasharray:none;stroke-opacity:1"
           id="path66"
           inkscape:connector-curvature="0" /></g><text
         transform="matrix(1,0,0,-1,586.75392,62.635192)"
         style="font-variant:normal;font-weight:normal;font-size:11.63636398px;font-family:Arial;-inkscape-font-specification:Arial;writing-mode:lr-tb;fill:#000000;fill-opacity:1;fill-rule:nonzero;stroke:none"
         id="text70"><tspan
           sodipodi:role="line"
           id="tspan68"
           x="0"
           y="0">BANANA</tspan></text>
<path
         d="m 594.723,76.205 c -9.825,1.078 -18.145,4.516 -25.692,10.614 -1.847,1.492 -4.453,4.054 -4.797,4.718 -0.261,0.508 -0.734,3.004 -0.734,3.891 0,0.769 1.723,4.285 2.34,4.773 0.531,0.414 0.668,0.395 2.383,-0.363 2.683,-1.187 5.531,-1.699 10.09,-1.816 8.476,-0.215 17.66,1.781 29.171,6.343 8.332,3.297 13.696,6.469 19.125,11.305 7.95,7.074 13.297,17.18 14.414,27.254 l 0.2,1.785 -0.59,2.289 c -0.328,1.262 -0.844,3.258 -1.149,4.434 -0.507,1.965 -0.535,2.183 -0.332,2.672 0.317,0.754 0.813,0.84 5.157,0.902 l 3.711,0.051 0.414,-0.391 c 0.386,-0.363 0.414,-0.48 0.414,-1.894 0,-0.828 -0.082,-2.371 -0.184,-3.43 -0.328,-3.477 0.309,-4.98 4.895,-11.5 3.316,-4.723 3.992,-6.453 4.429,-11.387 0.594,-6.66 -0.715,-13.363 -3.847,-19.758 -4.563,-9.308 -12.618,-16.828 -24.344,-22.73 -8.258,-4.152 -15.254,-6.41 -23.383,-7.539 -2.191,-0.305 -9.652,-0.449 -11.691,-0.223 z m 12.172,3.004 c 13.351,2.008 27.546,8.778 36.492,17.399 6.996,6.75 10.929,14.562 11.879,23.601 0.23,2.195 0.113,6.41 -0.239,8.352 -0.539,3 -0.996,3.91 -4.382,8.758 -4.184,5.988 -5.122,8.363 -4.707,11.953 0.246,2.113 0.242,2.976 -0.012,2.996 -0.828,0.058 -3.59,-0.063 -3.692,-0.16 -0.07,-0.071 0.282,-1.668 0.778,-3.551 0.879,-3.324 0.902,-3.473 0.801,-4.863 -0.247,-3.321 -1.208,-7.555 -2.528,-11.137 -4.527,-12.27 -13.82,-21.957 -27.113,-28.274 -3.063,-1.457 -8.109,-3.441 -12.16,-4.789 -6.262,-2.082 -11.602,-3.312 -17.137,-3.957 -2.352,-0.273 -9.027,-0.269 -10.887,0.008 -1.679,0.246 -4.324,0.863 -5.625,1.313 -0.5,0.171 -0.996,0.312 -1.097,0.312 -0.102,0 -0.387,-0.422 -0.629,-0.933 -0.442,-0.915 -0.446,-0.954 -0.25,-2.157 0.234,-1.445 0.5,-1.808 2.84,-3.894 6.867,-6.114 15.453,-10.035 24.296,-11.102 0.793,-0.094 1.657,-0.199 1.922,-0.234 0.262,-0.035 2.461,-0.043 4.883,-0.016 3.402,0.039 4.895,0.125 6.567,0.375 z"
         style="fill:#000000;fill-opacity:1;fill-rule:nonzero;stroke:none"
         id="path72"
         inkscape:connector-curvature="0" /><g
         id="g74"
         transform="matrix(1,0,0,-1,0,595.27557)"><path
           d="m 690.789,429.871 h 95.715 c 4.078,0 7.363,3.281 7.363,7.363 v 95.715 c 0,4.078 -3.285,7.364 -7.363,7.364 h -95.715 c -4.078,0 -7.363,-3.286 -7.363,-7.364 v -95.715 c 0,-4.082 3.285,-7.363 7.363,-7.363 z"
           style="fill:#ffd200;fill-opacity:1;fill-rule:nonzero;stroke:#000000;stroke-width:2.94508696;stroke-linecap:round;stroke-linejoin:round;stroke-miterlimit:4;stroke-dasharray:none;stroke-opacity:1"
           id="path76"
           inkscape:connector-curvature="0" /></g><text
         transform="matrix(1,0,0,-1,714.58678,62.635192)"
         style="font-variant:normal;font-weight:normal;font-size:11.63636398px;font-family:Arial;-inkscape-font-specification:Arial;writing-mode:lr-tb;fill:#000000;fill-opacity:1;fill-rule:nonzero;stroke:none"
         id="text80"><tspan
           sodipodi:role="line"
           id="tspan78"
           x="0"
           y="0">BANANA</tspan></text>
<path
         d="m 722.559,76.205 c -9.829,1.078 -18.145,4.516 -25.696,10.614 -1.847,1.492 -4.453,4.054 -4.797,4.718 -0.261,0.508 -0.734,3.004 -0.734,3.891 0,0.769 1.723,4.285 2.344,4.773 0.527,0.414 0.664,0.395 2.379,-0.363 2.687,-1.187 5.531,-1.699 10.09,-1.816 8.476,-0.215 17.66,1.781 29.171,6.343 8.332,3.297 13.696,6.469 19.129,11.305 7.95,7.074 13.293,17.18 14.414,27.254 l 0.196,1.785 -0.59,2.289 c -0.324,1.262 -0.84,3.258 -1.149,4.434 -0.507,1.965 -0.535,2.183 -0.332,2.672 0.317,0.754 0.813,0.84 5.161,0.902 l 3.707,0.051 0.414,-0.391 c 0.39,-0.363 0.414,-0.48 0.414,-1.894 0,-0.828 -0.082,-2.371 -0.184,-3.43 -0.328,-3.477 0.313,-4.98 4.895,-11.5 3.32,-4.723 3.992,-6.453 4.429,-11.387 0.594,-6.66 -0.715,-13.363 -3.847,-19.758 -4.563,-9.308 -12.614,-16.828 -24.344,-22.73 -8.258,-4.152 -15.254,-6.41 -23.383,-7.539 -2.187,-0.305 -9.652,-0.449 -11.687,-0.223 z m 12.168,3.004 c 13.351,2.008 27.546,8.778 36.492,17.399 6.996,6.75 10.933,14.562 11.883,23.601 0.23,2.195 0.109,6.41 -0.243,8.352 -0.539,3 -0.996,3.91 -4.382,8.758 -4.184,5.988 -5.122,8.363 -4.704,11.953 0.243,2.113 0.239,2.976 -0.015,2.996 -0.828,0.058 -3.59,-0.063 -3.692,-0.16 -0.07,-0.071 0.282,-1.668 0.782,-3.551 0.875,-3.324 0.898,-3.473 0.797,-4.863 -0.243,-3.321 -1.207,-7.555 -2.528,-11.137 -4.527,-12.27 -13.816,-21.957 -27.113,-28.274 -3.063,-1.457 -8.109,-3.441 -12.16,-4.789 -6.262,-2.082 -11.602,-3.312 -17.133,-3.957 -2.356,-0.273 -9.031,-0.269 -10.891,0.008 -1.679,0.246 -4.324,0.863 -5.625,1.313 -0.5,0.171 -0.992,0.312 -1.097,0.312 -0.102,0 -0.383,-0.422 -0.629,-0.933 -0.438,-0.915 -0.442,-0.954 -0.25,-2.157 0.234,-1.445 0.5,-1.808 2.844,-3.894 6.863,-6.114 15.449,-10.035 24.292,-11.102 0.793,-0.094 1.657,-0.199 1.922,-0.234 0.266,-0.035 2.461,-0.043 4.883,-0.016 3.406,0.039 4.895,0.125 6.567,0.375 z"
         style="fill:#000000;fill-opacity:1;fill-rule:nonzero;stroke:none"
         id="path82"
         inkscape:connector-curvature="0" /></g></g></svg>