<?xml version="1.0" encoding="UTF-8" standalone="no"?>
<!-- Created with Inkscape (http://www.inkscape.org/) -->

<svg
   xmlns:dc="http://purl.org/dc/elements/1.1/"
   xmlns:cc="http://creativecommons.org/ns#"
   xmlns:rdf="http://www.w3.org/1999/02/22-rdf-syntax-ns#"
   xmlns:svg="http://www.w3.org/2000/svg"
   xmlns="http://www.w3.org/2000/svg"
   xmlns:sodipodi="http://sodipodi.sourceforge.net/DTD/sodipodi-0.dtd"
   xmlns:inkscape="http://www.inkscape.org/namespaces/inkscape"
   version="1.1"
   id="svg2"
   xml:space="preserve"
   width="1122.5197"
   height="793.70074"
   viewBox="0 0 1122.5197 793.70074"
   sodipodi:docname="Boat.svg"
   inkscape:version="0.92.2 5c3e80d, 2017-08-06"><metadata
     id="metadata8"><rdf:RDF><cc:Work
         rdf:about=""><dc:format>image/svg+xml</dc:format><dc:type
           rdf:resource="http://purl.org/dc/dcmitype/StillImage" /><dc:title></dc:title></cc:Work></rdf:RDF></metadata><defs
     id="defs6" /><sodipodi:namedview
     pagecolor="#ffffff"
     bordercolor="#666666"
     borderopacity="1"
     objecttolerance="10"
     gridtolerance="10"
     guidetolerance="10"
     inkscape:pageopacity="0"
     inkscape:pageshadow="2"
     inkscape:window-width="1101"
     inkscape:window-height="564"
     id="namedview4"
     showgrid="false"
     inkscape:zoom="0.60106677"
     inkscape:cx="354.59209"
     inkscape:cy="157.35309"
     inkscape:window-x="99"
     inkscape:window-y="0"
     inkscape:window-maximized="0"
     inkscape:current-layer="g12" /><g
     id="g10"
     inkscape:groupmode="layer"
     inkscape:label="Bateau"
     transform="matrix(1.3333333,0,0,-1.3333333,0,793.70077)"><g
       id="g12"><g
         id="g14"
         transform="matrix(1,0,0,-1,0,595.27557)"><path
           d="m 49.645,24.934 h 335.003 c 14.274,0 25.77,11.492 25.77,25.769 v 335.004 c 0,14.277 -11.496,25.77 -25.77,25.77 H 49.645 c -14.278,0 -25.77,-11.493 -25.77,-25.77 V 50.703 c 0,-14.277 11.492,-25.769 25.77,-25.769 z"
           style="fill:#4bb4e6;fill-opacity:1;fill-rule:nonzero;stroke:#000000;stroke-width:10.30780315;stroke-linecap:round;stroke-linejoin:round;stroke-miterlimit:4;stroke-dasharray:none;stroke-opacity:1"
           id="path16"
           inkscape:connector-curvature="0" /></g><path
         d="m 77.227,286.947 c -5.692,1.356 -10.692,3.957 -15.414,8.02 -3.364,2.895 -4.774,4.922 -5.098,7.312 -0.442,3.313 2.234,6.559 5.41,6.563 1.148,0 2.055,-0.59 4.875,-3.188 5.66,-5.21 10.465,-7.234 17.176,-7.234 6.707,0 11.328,1.942 17.097,7.188 4.926,4.48 5.754,4.441 11.036,-0.516 4.875,-4.578 10.109,-6.672 16.656,-6.672 3.629,0 8.226,1.074 9.937,2.324 0.801,0.59 0.625,0.852 -3.488,5.16 -6.73,7.047 -12.043,15.02 -15.461,23.188 -3.812,9.121 -3.906,14.262 -0.285,16.324 0.801,0.457 9.785,0.613 45.094,0.789 l 44.09,0.215 v 16.293 16.289 l -19.766,0.219 c -16.578,0.18 -19.922,0.32 -20.754,0.867 -1.492,0.984 -2.855,4.106 -2.566,5.883 0.132,0.816 9.879,22.848 21.656,48.953 l 21.418,47.469 0.223,7.82 c 0.238,8.289 0.41,8.973 2.613,10.516 1.14,0.8 3.929,0.828 5.168,0.054 0.496,-0.308 1.465,-1.64 2.152,-2.961 0.692,-1.316 14.184,-31.136 29.984,-66.265 31.04,-69.008 29.817,-65.969 27.879,-69.145 -1.589,-2.605 -0.484,-2.504 -29.996,-2.742 l -27.148,-0.215 v -6.519 -6.516 l 34.101,-0.258 c 28.957,-0.215 34.754,-0.363 38.446,-0.98 10.523,-1.754 16.273,-4.18 18.472,-7.789 0.793,-1.293 0.856,-2.235 0.856,-12.821 0,-9.035 -0.129,-11.675 -0.617,-12.621 -0.641,-1.242 -4.696,-4.722 -10.149,-8.714 -1.742,-1.278 -3.101,-2.524 -3.019,-2.774 0.3,-0.894 3.656,-1.707 7.922,-1.922 7.472,-0.371 12.32,1.516 18.582,7.223 4.718,4.305 5.609,4.25 10.855,-0.672 4.766,-4.473 10.121,-6.672 16.246,-6.672 6.621,0 11.582,1.981 16.438,6.559 1.672,1.578 3.468,3.093 3.992,3.367 1.449,0.762 3.371,0.598 4.637,-0.402 1.097,-0.864 1.148,-1.079 1.148,-5.145 v -4.242 l -2.742,-2.629 c -6.59,-6.332 -14.653,-9.672 -23.324,-9.672 -6.668,0 -12.735,1.91 -18.664,5.879 -1.95,1.305 -3.649,2.375 -3.774,2.375 -0.121,0 -1.039,-0.664 -2.035,-1.477 -2.617,-2.132 -6.969,-4.386 -10.715,-5.55 -2.758,-0.856 -4.195,-1.012 -9.34,-1.012 -5.144,0 -6.586,0.156 -9.34,1.012 -3.746,1.164 -8.097,3.418 -10.714,5.55 -0.997,0.813 -1.997,1.477 -2.223,1.477 -0.227,0 -1.172,-0.606 -2.098,-1.344 -2.582,-2.051 -6.535,-4.125 -10.379,-5.441 -3.109,-1.063 -4.113,-1.192 -9.558,-1.219 -5.227,-0.031 -6.535,0.109 -9.328,0.984 -4.028,1.266 -6.832,2.661 -10.297,5.118 -1.477,1.046 -2.785,1.902 -2.91,1.902 -0.125,0 -1.461,-0.856 -2.965,-1.902 -3.574,-2.485 -6.367,-3.868 -10.348,-5.118 -2.746,-0.859 -4.148,-1.015 -9.113,-1.007 -7.953,0.015 -11.809,1.199 -18.567,5.695 l -3.586,2.387 -3.589,-2.387 c -6.758,-4.496 -10.614,-5.68 -18.567,-5.695 -4.961,-0.008 -6.367,0.148 -9.109,1.007 -4.055,1.274 -7.82,3.141 -10.746,5.329 -1.246,0.929 -2.418,1.687 -2.61,1.687 -0.187,0 -1.171,-0.664 -2.187,-1.473 -2.41,-1.914 -7.899,-4.73 -11.188,-5.742 -3.742,-1.148 -13.636,-1.137 -17.593,0.016 -3.61,1.055 -8.223,3.347 -11.086,5.508 -1.235,0.933 -2.371,1.695 -2.524,1.695 -0.156,0 -1.215,-0.715 -2.351,-1.59 -3.008,-2.312 -9.379,-5.191 -13.235,-5.98 -4.074,-0.832 -10.074,-0.828 -13.593,0.007 z m 102.07,12.137 c 3.836,1 7.262,3.024 11.109,6.57 3.106,2.86 3.649,3.192 5.211,3.192 1.571,0 2.09,-0.324 5.18,-3.215 5.832,-5.457 11.09,-7.48 18.457,-7.113 6.156,0.308 10.98,2.461 15.512,6.926 2.64,2.605 3.871,3.394 5.285,3.398 1.734,0 2.715,-0.609 6.16,-3.863 4.855,-4.578 9.82,-6.559 16.441,-6.559 6.121,0 11.481,2.199 16.246,6.672 3.739,3.512 4.516,3.91 7.016,3.602 1.856,-0.227 2.223,-0.094 4.996,1.8 1.649,1.121 2.965,2.239 2.926,2.477 -0.27,1.66 -12.063,1.933 -84.004,1.945 -57.414,0.008 -66.359,-0.074 -66.359,-0.613 0,-0.344 1.281,-1.711 2.851,-3.043 2.399,-2.035 3.114,-2.414 4.551,-2.414 1.477,0 2.094,-0.356 4.621,-2.645 4.758,-4.312 7.375,-5.89 11.871,-7.156 2.746,-0.773 8.891,-0.754 11.93,0.039 z m 121.652,28.442 c 0,2.796 -0.015,2.828 -1.519,3.554 -2.258,1.086 -7.746,2.086 -13.887,2.535 -8.184,0.602 -154.973,0.547 -155.348,-0.054 -0.16,-0.262 0.368,-1.778 1.176,-3.367 l 1.469,-2.887 77.105,-0.235 c 78.977,-0.242 80.203,-0.269 86.875,-1.918 3.989,-0.984 4.129,-0.902 4.129,2.372 z m -37.726,45.503 c -0.426,1.958 -42.684,95.407 -43.227,95.586 -0.375,0.125 -0.5,-11.925 -0.5,-48.019 0,-26.5 0.129,-48.313 0.289,-48.473 0.16,-0.16 10.059,-0.289 21.992,-0.289 h 21.703 z m -54.371,49.958 c 0,20.632 -0.149,31.386 -0.434,31.39 -0.551,0.008 -28.52,-62.101 -28.199,-62.621 0.133,-0.215 6.508,-0.336 14.437,-0.269 l 14.196,0.113 z"
         style="fill:#000000;fill-opacity:1;fill-rule:nonzero;stroke:none"
         id="path18"
         inkscape:connector-curvature="0" /><text
         transform="scale(1,-1)"
         style="font-variant:normal;font-weight:normal;font-size:40.72727585px;font-family:Arial;-inkscape-font-specification:Arial;writing-mode:lr-tb;fill:#000000;fill-opacity:1;fill-rule:nonzero;stroke:none"
         id="text22"
         x="153.58162"
         y="-210.64552"><tspan
           sodipodi:role="line"
           id="tspan20"
           x="153.58162"
           y="-210.64552">BOAT</tspan></text>
<g
         id="g24"
         transform="matrix(1,0,0,-1,0,595.27557)"><path
           d="m 31.09,430.461 h 134 c 5.711,0 10.308,4.594 10.308,10.305 V 574.77 c 0,5.71 -4.597,10.304 -10.308,10.304 h -134 c -5.711,0 -10.309,-4.594 -10.309,-10.304 V 440.766 c 0,-5.711 4.598,-10.305 10.309,-10.305 z"
           style="fill:#4bb4e6;fill-opacity:1;fill-rule:nonzero;stroke:#000000;stroke-width:4.12312078;stroke-linecap:round;stroke-linejoin:round;stroke-miterlimit:4;stroke-dasharray:none;stroke-opacity:1"
           id="path26"
           inkscape:connector-curvature="0" /></g><path
         d="m 42.121,51.459 c -2.277,0.543 -4.277,1.582 -6.164,3.207 -1.344,1.156 -1.91,1.969 -2.039,2.926 -0.176,1.324 0.895,2.625 2.164,2.625 0.461,0 0.82,-0.234 1.949,-1.273 2.266,-2.086 4.188,-2.895 6.871,-2.895 2.684,0 4.532,0.777 6.84,2.875 1.969,1.789 2.301,1.773 4.414,-0.207 1.949,-1.832 4.043,-2.668 6.664,-2.668 1.45,0 3.289,0.43 3.973,0.93 0.32,0.234 0.25,0.34 -1.395,2.062 -2.691,2.821 -4.816,6.008 -6.183,9.274 -1.527,3.652 -1.563,5.707 -0.117,6.531 0.32,0.183 3.918,0.246 18.039,0.316 l 17.636,0.086 v 6.516 6.515 l -7.906,0.09 c -6.633,0.071 -7.969,0.129 -8.301,0.348 -0.597,0.391 -1.144,1.641 -1.027,2.352 0.051,0.328 3.949,9.136 8.664,19.582 l 8.567,18.988 0.089,3.125 c 0.094,3.316 0.161,3.59 1.043,4.207 0.457,0.32 1.571,0.332 2.067,0.023 0.199,-0.125 0.586,-0.656 0.863,-1.183 0.273,-0.528 5.672,-12.457 11.992,-26.508 12.418,-27.606 11.926,-26.387 11.153,-27.656 -0.637,-1.043 -0.196,-1.004 -12,-1.098 l -10.86,-0.086 v -2.609 -2.606 l 13.641,-0.101 c 11.582,-0.09 13.902,-0.149 15.379,-0.395 4.211,-0.703 6.508,-1.672 7.39,-3.113 0.317,-0.52 0.34,-0.895 0.34,-5.129 0,-3.617 -0.051,-4.672 -0.246,-5.051 -0.258,-0.496 -1.879,-1.887 -4.058,-3.484 -0.7,-0.512 -1.243,-1.012 -1.208,-1.11 0.118,-0.359 1.461,-0.683 3.168,-0.769 2.989,-0.149 4.926,0.605 7.434,2.891 1.887,1.722 2.242,1.699 4.34,-0.27 1.906,-1.789 4.051,-2.668 6.5,-2.668 2.648,0 4.633,0.789 6.574,2.621 0.668,0.633 1.387,1.238 1.598,1.348 0.578,0.304 1.347,0.238 1.855,-0.16 0.438,-0.344 0.457,-0.43 0.457,-2.059 v -1.695 l -1.093,-1.055 c -2.637,-2.531 -5.864,-3.867 -9.333,-3.867 -2.667,0 -5.093,0.765 -7.464,2.351 -0.782,0.524 -1.461,0.95 -1.508,0.95 -0.051,0 -0.418,-0.266 -0.817,-0.59 -1.046,-0.852 -2.789,-1.754 -4.285,-2.219 -1.101,-0.344 -1.679,-0.406 -3.738,-0.406 -2.055,0 -2.633,0.062 -3.734,0.406 -1.5,0.465 -3.239,1.367 -4.286,2.219 -0.398,0.324 -0.8,0.59 -0.89,0.59 -0.09,0 -0.469,-0.243 -0.84,-0.536 -1.031,-0.82 -2.613,-1.652 -4.148,-2.175 -1.247,-0.426 -1.645,-0.481 -3.825,-0.489 -2.09,-0.011 -2.613,0.043 -3.73,0.395 -1.613,0.504 -2.735,1.062 -4.121,2.043 -0.59,0.422 -1.114,0.762 -1.164,0.762 -0.051,0 -0.582,-0.34 -1.184,-0.762 -1.43,-0.992 -2.547,-1.543 -4.141,-2.043 -1.097,-0.348 -1.66,-0.41 -3.644,-0.406 -3.184,0.007 -4.723,0.48 -7.426,2.277 l -1.437,0.957 -1.434,-0.957 c -2.703,-1.797 -4.246,-2.27 -7.426,-2.277 -1.984,-0.004 -2.547,0.058 -3.644,0.406 -1.621,0.508 -3.129,1.254 -4.301,2.129 -0.496,0.371 -0.965,0.676 -1.043,0.676 -0.074,0 -0.469,-0.266 -0.875,-0.59 -0.961,-0.766 -3.16,-1.891 -4.473,-2.297 -1.5,-0.457 -5.457,-0.453 -7.039,0.008 -1.441,0.422 -3.289,1.336 -4.433,2.203 -0.492,0.371 -0.95,0.676 -1.012,0.676 -0.063,0 -0.484,-0.286 -0.938,-0.637 -1.203,-0.922 -3.753,-2.074 -5.296,-2.391 -1.629,-0.332 -4.028,-0.332 -5.438,0.004 z m 40.828,4.856 c 1.535,0.398 2.906,1.207 4.446,2.629 1.242,1.14 1.46,1.273 2.085,1.273 0.625,0 0.836,-0.129 2.071,-1.285 2.332,-2.18 4.433,-2.992 7.383,-2.844 2.461,0.121 4.39,0.984 6.203,2.77 1.058,1.043 1.551,1.359 2.117,1.359 0.691,0 1.086,-0.246 2.465,-1.547 1.941,-1.832 3.926,-2.621 6.574,-2.621 2.449,0 4.594,0.879 6.5,2.668 1.496,1.402 1.805,1.562 2.805,1.441 0.742,-0.093 0.89,-0.039 2,0.719 0.656,0.449 1.183,0.895 1.168,0.992 -0.11,0.664 -4.825,0.774 -33.602,0.778 -22.965,0.004 -26.543,-0.032 -26.543,-0.246 0,-0.137 0.512,-0.684 1.141,-1.215 0.961,-0.817 1.246,-0.969 1.82,-0.969 0.59,0 0.836,-0.141 1.848,-1.059 1.902,-1.722 2.953,-2.355 4.75,-2.859 1.097,-0.309 3.554,-0.301 4.769,0.016 z m 48.664,11.375 c 0,1.121 -0.008,1.132 -0.609,1.422 -0.902,0.433 -3.098,0.835 -5.555,1.015 -3.273,0.238 -61.988,0.219 -62.136,-0.023 -0.067,-0.106 0.144,-0.711 0.468,-1.348 l 0.586,-1.152 30.844,-0.094 c 31.59,-0.098 32.082,-0.109 34.75,-0.77 1.594,-0.39 1.652,-0.359 1.652,0.95 z M 116.52,85.893 c -0.168,0.781 -17.071,38.16 -17.29,38.234 -0.148,0.047 -0.199,-4.773 -0.199,-19.207 0,-10.601 0.051,-19.328 0.117,-19.391 0.063,-0.062 4.02,-0.117 8.797,-0.117 h 8.68 z m -21.747,19.98 c 0,8.254 -0.058,12.555 -0.171,12.559 -0.223,0 -11.411,-24.844 -11.282,-25.051 0.055,-0.086 2.602,-0.133 5.774,-0.105 l 5.679,0.043 z"
         style="fill:#000000;fill-opacity:1;fill-rule:nonzero;stroke:none"
         id="path28"
         inkscape:connector-curvature="0" /><text
         transform="scale(1,-1)"
         style="font-variant:normal;font-weight:normal;font-size:16.29091072px;font-family:Arial;-inkscape-font-specification:Arial;writing-mode:lr-tb;fill:#000000;fill-opacity:1;fill-rule:nonzero;stroke:none"
         id="text32"
         x="75.964806"
         y="-20.938023"><tspan
           sodipodi:role="line"
           id="tspan30"
           x="75.964806"
           y="-20.938023">BOAT</tspan></text>
<g
         id="g34"
         transform="matrix(1,0,0,-1,0,595.27557)"><path
           d="m 435.656,429.871 h 95.719 c 4.078,0 7.359,3.281 7.359,7.363 v 95.715 c 0,4.078 -3.281,7.364 -7.359,7.364 h -95.719 c -4.078,0 -7.359,-3.286 -7.359,-7.364 v -95.715 c 0,-4.082 3.281,-7.363 7.359,-7.363 z"
           style="fill:#4bb4e6;fill-opacity:1;fill-rule:nonzero;stroke:#000000;stroke-width:2.94508696;stroke-linecap:round;stroke-linejoin:round;stroke-miterlimit:4;stroke-dasharray:none;stroke-opacity:1"
           id="path36"
           inkscape:connector-curvature="0" /></g><path
         d="m 443.539,84.436 c -1.625,0.386 -3.055,1.129 -4.406,2.293 -0.961,0.824 -1.363,1.402 -1.453,2.086 -0.129,0.949 0.636,1.875 1.543,1.875 0.328,0 0.59,-0.168 1.394,-0.911 1.617,-1.488 2.988,-2.066 4.906,-2.066 1.918,0 3.239,0.555 4.887,2.055 1.406,1.281 1.645,1.269 3.153,-0.149 1.394,-1.308 2.886,-1.906 4.757,-1.906 1.039,0 2.352,0.309 2.84,0.664 0.231,0.168 0.18,0.242 -0.996,1.473 -1.922,2.015 -3.441,4.293 -4.418,6.625 -1.09,2.609 -1.117,4.078 -0.082,4.668 0.231,0.129 2.797,0.172 12.883,0.222 l 12.598,0.063 v 4.656 4.653 l -5.645,0.062 c -4.738,0.051 -5.695,0.094 -5.93,0.25 -0.429,0.281 -0.816,1.172 -0.734,1.68 0.039,0.234 2.82,6.527 6.187,13.984 l 6.118,13.563 0.066,2.234 c 0.066,2.371 0.117,2.566 0.746,3.008 0.324,0.226 1.121,0.234 1.477,0.015 0.14,-0.089 0.418,-0.468 0.613,-0.847 0.199,-0.375 4.055,-8.895 8.566,-18.934 8.871,-19.715 8.52,-18.848 7.969,-19.754 -0.457,-0.746 -0.14,-0.719 -8.57,-0.785 l -7.758,-0.062 v -1.86 -1.863 l 9.742,-0.074 c 8.274,-0.063 9.93,-0.106 10.985,-0.282 3.007,-0.5 4.648,-1.191 5.277,-2.222 0.226,-0.371 0.246,-0.641 0.246,-3.664 0,-2.582 -0.035,-3.336 -0.176,-3.606 -0.183,-0.355 -1.344,-1.351 -2.902,-2.492 -0.496,-0.363 -0.883,-0.719 -0.859,-0.789 0.085,-0.258 1.042,-0.488 2.261,-0.551 2.137,-0.105 3.52,0.434 5.309,2.063 1.347,1.23 1.601,1.215 3.101,-0.192 1.364,-1.277 2.895,-1.906 4.645,-1.906 1.891,0 3.309,0.566 4.695,1.875 0.477,0.449 0.992,0.883 1.141,0.961 0.414,0.219 0.961,0.172 1.324,-0.113 0.313,-0.246 0.328,-0.309 0.328,-1.469 v -1.215 l -0.785,-0.75 c -1.883,-1.808 -4.184,-2.765 -6.664,-2.765 -1.902,0 -3.637,0.546 -5.332,1.679 -0.555,0.375 -1.043,0.68 -1.078,0.68 -0.035,0 -0.297,-0.188 -0.582,-0.422 -0.746,-0.609 -1.988,-1.254 -3.059,-1.586 -0.789,-0.242 -1.199,-0.289 -2.672,-0.289 -1.468,0 -1.879,0.047 -2.668,0.289 -1.07,0.332 -2.312,0.977 -3.062,1.586 -0.281,0.234 -0.567,0.422 -0.633,0.422 -0.062,0 -0.336,-0.172 -0.598,-0.383 -0.738,-0.586 -1.867,-1.18 -2.964,-1.555 -0.891,-0.304 -1.176,-0.339 -2.735,-0.347 -1.492,-0.008 -1.867,0.031 -2.664,0.281 -1.148,0.359 -1.953,0.758 -2.941,1.461 -0.422,0.297 -0.797,0.543 -0.832,0.543 -0.035,0 -0.418,-0.246 -0.848,-0.543 -1.02,-0.711 -1.816,-1.106 -2.957,-1.461 -0.785,-0.246 -1.184,-0.293 -2.602,-0.289 -2.273,0.004 -3.375,0.344 -5.304,1.625 l -1.028,0.684 -1.023,-0.684 c -1.93,-1.281 -3.031,-1.621 -5.305,-1.625 -1.418,-0.004 -1.82,0.043 -2.601,0.289 -1.16,0.363 -2.235,0.895 -3.071,1.52 -0.355,0.265 -0.691,0.484 -0.746,0.484 -0.054,0 -0.336,-0.192 -0.625,-0.422 -0.687,-0.547 -2.258,-1.352 -3.199,-1.641 -1.066,-0.328 -3.894,-0.324 -5.023,0.004 -1.032,0.301 -2.352,0.957 -3.168,1.575 -0.352,0.265 -0.68,0.484 -0.723,0.484 -0.043,0 -0.348,-0.203 -0.672,-0.453 -0.859,-0.66 -2.68,-1.485 -3.781,-1.711 -1.164,-0.238 -2.879,-0.235 -3.883,0.004 z m 29.164,3.468 c 1.094,0.286 2.074,0.864 3.172,1.875 0.887,0.817 1.043,0.915 1.488,0.915 0.45,0 0.598,-0.094 1.481,-0.918 1.668,-1.559 3.168,-2.141 5.273,-2.036 1.758,0.09 3.137,0.704 4.434,1.981 0.754,0.742 1.105,0.969 1.508,0.969 0.496,0 0.777,-0.172 1.761,-1.102 1.387,-1.309 2.805,-1.875 4.696,-1.875 1.75,0 3.281,0.629 4.644,1.906 1.067,1.004 1.289,1.118 2.004,1.032 0.531,-0.067 0.637,-0.028 1.426,0.511 0.473,0.321 0.848,0.641 0.836,0.707 -0.074,0.477 -3.446,0.555 -24,0.559 -16.403,0 -18.961,-0.024 -18.961,-0.176 0,-0.098 0.367,-0.488 0.816,-0.871 0.684,-0.582 0.891,-0.687 1.301,-0.687 0.422,0 0.598,-0.102 1.32,-0.758 1.36,-1.231 2.106,-1.684 3.391,-2.043 0.785,-0.223 2.539,-0.215 3.41,0.011 z m 34.758,8.125 c 0,0.801 -0.004,0.809 -0.438,1.016 -0.644,0.309 -2.21,0.598 -3.964,0.727 -2.34,0.168 -44.278,0.156 -44.387,-0.016 -0.047,-0.078 0.105,-0.512 0.336,-0.965 l 0.422,-0.824 22.027,-0.066 c 22.566,-0.071 22.918,-0.079 24.824,-0.547 1.137,-0.282 1.18,-0.258 1.18,0.675 z m -10.781,13 c -0.121,0.559 -12.196,27.258 -12.352,27.313 -0.105,0.035 -0.14,-3.41 -0.14,-13.719 0,-7.574 0.035,-13.804 0.082,-13.851 0.046,-0.047 2.875,-0.082 6.285,-0.082 h 6.199 z m -15.535,14.274 c 0,5.894 -0.04,8.969 -0.122,8.969 -0.16,0.004 -8.148,-17.743 -8.058,-17.891 0.039,-0.062 1.859,-0.094 4.125,-0.078 l 4.055,0.035 z"
         style="fill:#000000;fill-opacity:1;fill-rule:nonzero;stroke:none"
         id="path38"
         inkscape:connector-curvature="0" /><text
         transform="scale(1,-1)"
         style="font-variant:normal;font-weight:normal;font-size:11.63636398px;font-family:Arial;-inkscape-font-specification:Arial;writing-mode:lr-tb;fill:#000000;fill-opacity:1;fill-rule:nonzero;stroke:none"
         id="text42"
         x="467.71161"
         y="-62.635159"><tspan
           sodipodi:role="line"
           id="tspan40"
           x="467.71161"
           y="-62.635159">BOAT</tspan></text>
<g
         id="g44"
         transform="matrix(1,0,0,-1,0,595.27557)"><path
           d="M 457.746,24.934 H 792.75 c 14.277,0 25.77,11.492 25.77,25.769 v 335.004 c 0,14.277 -11.493,25.77 -25.77,25.77 H 457.746 c -14.277,0 -25.769,-11.493 -25.769,-25.77 V 50.703 c 0,-14.277 11.492,-25.769 25.769,-25.769 z"
           style="fill:#4bb4e6;fill-opacity:1;fill-rule:nonzero;stroke:#000000;stroke-width:10.30780315;stroke-linecap:round;stroke-linejoin:round;stroke-miterlimit:4;stroke-dasharray:none;stroke-opacity:1"
           id="path46"
           inkscape:connector-curvature="0" /></g><path
         d="m 485.328,286.947 c -5.691,1.356 -10.691,3.957 -15.414,8.02 -3.363,2.895 -4.773,4.922 -5.094,7.312 -0.445,3.313 2.231,6.559 5.41,6.563 1.145,0 2.051,-0.59 4.872,-3.188 5.66,-5.21 10.468,-7.234 17.175,-7.234 6.707,0 11.332,1.942 17.098,7.188 4.926,4.48 5.754,4.441 11.035,-0.516 4.879,-4.578 10.11,-6.672 16.66,-6.672 3.625,0 8.223,1.074 9.934,2.324 0.801,0.59 0.625,0.852 -3.488,5.16 -6.727,7.047 -12.043,15.02 -15.461,23.188 -3.813,9.121 -3.903,14.262 -0.285,16.324 0.8,0.457 9.785,0.613 45.093,0.789 l 44.094,0.215 v 16.293 16.289 l -19.766,0.219 c -16.582,0.18 -19.925,0.32 -20.757,0.867 -1.493,0.984 -2.856,4.106 -2.567,5.883 0.133,0.816 9.879,22.848 21.656,48.953 l 21.418,47.469 0.227,7.82 c 0.234,8.289 0.406,8.973 2.609,10.516 1.141,0.8 3.93,0.828 5.168,0.054 0.496,-0.308 1.465,-1.64 2.157,-2.961 0.687,-1.316 14.179,-31.136 29.98,-66.265 31.043,-69.008 29.816,-65.969 27.883,-69.145 -1.594,-2.605 -0.488,-2.504 -29.996,-2.742 l -27.153,-0.215 v -6.519 -6.516 l 34.102,-0.258 c 28.957,-0.215 34.758,-0.363 38.445,-0.98 10.524,-1.754 16.274,-4.18 18.477,-7.789 0.789,-1.293 0.851,-2.235 0.851,-12.821 0,-9.035 -0.125,-11.675 -0.613,-12.621 -0.644,-1.242 -4.695,-4.722 -10.152,-8.714 -1.742,-1.278 -3.102,-2.524 -3.016,-2.774 0.297,-0.894 3.653,-1.707 7.918,-1.922 7.473,-0.371 12.32,1.516 18.582,7.223 4.719,4.305 5.61,4.25 10.856,-0.672 4.765,-4.473 10.125,-6.672 16.246,-6.672 6.621,0 11.586,1.981 16.437,6.559 1.676,1.578 3.469,3.093 3.992,3.367 1.454,0.762 3.372,0.598 4.641,-0.402 1.098,-0.864 1.145,-1.079 1.145,-5.145 v -4.242 l -2.739,-2.629 c -6.593,-6.332 -14.652,-9.672 -23.328,-9.672 -6.668,0 -12.734,1.91 -18.66,5.879 -1.953,1.305 -3.652,2.375 -3.773,2.375 -0.125,0 -1.043,-0.664 -2.039,-1.477 -2.618,-2.132 -6.969,-4.386 -10.715,-5.55 -2.754,-0.856 -4.196,-1.012 -9.34,-1.012 -5.145,0 -6.582,0.156 -9.34,1.012 -3.746,1.164 -8.098,3.418 -10.715,5.55 -0.996,0.813 -1.996,1.477 -2.223,1.477 -0.226,0 -1.167,-0.606 -2.097,-1.344 -2.582,-2.051 -6.535,-4.125 -10.379,-5.441 -3.109,-1.063 -4.109,-1.192 -9.555,-1.219 -5.226,-0.031 -6.539,0.109 -9.332,0.984 -4.027,1.266 -6.832,2.661 -10.297,5.118 -1.476,1.046 -2.785,1.902 -2.91,1.902 -0.125,0 -1.457,-0.856 -2.965,-1.902 -3.574,-2.485 -6.367,-3.868 -10.347,-5.118 -2.746,-0.859 -4.149,-1.015 -9.114,-1.007 -7.953,0.015 -11.808,1.199 -18.566,5.695 l -3.586,2.387 -3.59,-2.387 c -6.758,-4.496 -10.609,-5.68 -18.566,-5.695 -4.961,-0.008 -6.363,0.148 -9.106,1.007 -4.058,1.274 -7.82,3.141 -10.75,5.329 -1.246,0.929 -2.418,1.687 -2.605,1.687 -0.192,0 -1.176,-0.664 -2.192,-1.473 -2.41,-1.914 -7.898,-4.73 -11.187,-5.742 -3.742,-1.148 -13.637,-1.137 -17.594,0.016 -3.609,1.055 -8.222,3.347 -11.086,5.508 -1.234,0.933 -2.367,1.695 -2.523,1.695 -0.156,0 -1.215,-0.715 -2.352,-1.59 -3.008,-2.312 -9.379,-5.191 -13.234,-5.98 -4.074,-0.832 -10.074,-0.828 -13.594,0.007 z m 102.07,12.137 c 3.836,1 7.262,3.024 11.114,6.57 3.101,2.86 3.644,3.192 5.207,3.192 1.57,0 2.09,-0.324 5.179,-3.215 5.836,-5.457 11.09,-7.48 18.457,-7.113 6.157,0.308 10.981,2.461 15.512,6.926 2.641,2.605 3.871,3.394 5.285,3.398 1.739,0 2.719,-0.609 6.164,-3.863 4.856,-4.578 9.817,-6.559 16.438,-6.559 6.125,0 11.48,2.199 16.246,6.672 3.742,3.512 4.52,3.91 7.016,3.602 1.855,-0.227 2.226,-0.094 5,1.8 1.644,1.121 2.961,2.239 2.922,2.477 -0.27,1.66 -12.059,1.933 -84.004,1.945 -57.414,0.008 -66.356,-0.074 -66.356,-0.613 0,-0.344 1.281,-1.711 2.848,-3.043 2.402,-2.035 3.113,-2.414 4.551,-2.414 1.476,0 2.093,-0.356 4.625,-2.645 4.753,-4.312 7.375,-5.89 11.867,-7.156 2.746,-0.773 8.89,-0.754 11.929,0.039 z m 121.653,28.442 c 0,2.796 -0.012,2.828 -1.52,3.554 -2.258,1.086 -7.742,2.086 -13.886,2.535 -8.184,0.602 -154.973,0.547 -155.344,-0.054 -0.164,-0.262 0.363,-1.778 1.172,-3.367 l 1.472,-2.887 77.102,-0.235 c 78.976,-0.242 80.203,-0.269 86.879,-1.918 3.984,-0.984 4.125,-0.902 4.125,2.372 z m -37.727,45.503 c -0.426,1.958 -42.683,95.407 -43.226,95.586 -0.375,0.125 -0.5,-11.925 -0.5,-48.019 0,-26.5 0.132,-48.313 0.289,-48.473 0.16,-0.16 10.058,-0.289 21.992,-0.289 h 21.703 z m -54.367,49.958 c 0,20.632 -0.148,31.386 -0.437,31.39 -0.551,0.008 -28.52,-62.101 -28.2,-62.621 0.133,-0.215 6.508,-0.336 14.438,-0.269 l 14.199,0.113 z"
         style="fill:#000000;fill-opacity:1;fill-rule:nonzero;stroke:none"
         id="path48"
         inkscape:connector-curvature="0" /><text
         transform="scale(1,-1)"
         style="font-variant:normal;font-weight:normal;font-size:40.72727585px;font-family:Arial;-inkscape-font-specification:Arial;writing-mode:lr-tb;fill:#000000;fill-opacity:1;fill-rule:nonzero;stroke:none"
         id="text52"
         x="561.68396"
         y="-210.64552"><tspan
           sodipodi:role="line"
           id="tspan50"
           x="561.68396"
           y="-210.64552">BOAT</tspan></text>
<g
         id="g54"
         transform="matrix(1,0,0,-1,0,595.27557)"><path
           d="m 203.852,430.461 h 134 c 5.711,0 10.308,4.594 10.308,10.305 V 574.77 c 0,5.71 -4.597,10.304 -10.308,10.304 h -134 c -5.711,0 -10.309,-4.594 -10.309,-10.304 V 440.766 c 0,-5.711 4.598,-10.305 10.309,-10.305 z"
           style="fill:#4bb4e6;fill-opacity:1;fill-rule:nonzero;stroke:#000000;stroke-width:4.12312078;stroke-linecap:round;stroke-linejoin:round;stroke-miterlimit:4;stroke-dasharray:none;stroke-opacity:1"
           id="path56"
           inkscape:connector-curvature="0" /></g><path
         d="m 214.883,51.459 c -2.278,0.543 -4.278,1.582 -6.164,3.207 -1.344,1.156 -1.91,1.969 -2.039,2.926 -0.176,1.324 0.894,2.625 2.164,2.625 0.461,0 0.82,-0.234 1.949,-1.273 2.266,-2.086 4.187,-2.895 6.871,-2.895 2.684,0 4.531,0.777 6.84,2.875 1.969,1.789 2.301,1.773 4.414,-0.207 1.949,-1.832 4.043,-2.668 6.664,-2.668 1.449,0 3.289,0.43 3.973,0.93 0.32,0.234 0.25,0.34 -1.395,2.062 -2.691,2.821 -4.82,6.008 -6.183,9.274 -1.528,3.652 -1.563,5.707 -0.118,6.531 0.321,0.183 3.914,0.246 18.039,0.316 l 17.637,0.086 v 6.516 6.515 l -7.906,0.09 c -6.633,0.071 -7.969,0.129 -8.301,0.348 -0.598,0.391 -1.144,1.641 -1.027,2.352 0.051,0.328 3.949,9.136 8.664,19.582 l 8.566,18.988 0.09,3.125 c 0.094,3.316 0.16,3.59 1.043,4.207 0.457,0.32 1.57,0.332 2.066,0.023 0.2,-0.125 0.586,-0.656 0.864,-1.183 0.273,-0.528 5.672,-12.457 11.992,-26.508 12.418,-27.606 11.926,-26.387 11.152,-27.656 -0.636,-1.043 -0.195,-1.004 -12,-1.098 l -10.859,-0.086 v -2.609 -2.606 l 13.641,-0.101 c 11.582,-0.09 13.902,-0.149 15.378,-0.395 4.211,-0.703 6.508,-1.672 7.391,-3.113 0.316,-0.52 0.34,-0.895 0.34,-5.129 0,-3.617 -0.051,-4.672 -0.246,-5.051 -0.258,-0.496 -1.879,-1.887 -4.059,-3.484 -0.699,-0.512 -1.242,-1.012 -1.207,-1.11 0.117,-0.359 1.461,-0.683 3.168,-0.769 2.988,-0.149 4.926,0.605 7.43,2.891 1.89,1.722 2.246,1.699 4.344,-0.27 1.906,-1.789 4.05,-2.668 6.5,-2.668 2.648,0 4.632,0.789 6.574,2.621 0.668,0.633 1.387,1.238 1.597,1.348 0.579,0.304 1.348,0.238 1.856,-0.16 0.437,-0.344 0.457,-0.43 0.457,-2.059 v -1.695 l -1.094,-1.055 c -2.636,-2.531 -5.863,-3.867 -9.332,-3.867 -2.668,0 -5.094,0.765 -7.465,2.351 -0.781,0.524 -1.461,0.95 -1.507,0.95 -0.051,0 -0.418,-0.266 -0.817,-0.59 -1.047,-0.852 -2.789,-1.754 -4.285,-2.219 -1.102,-0.344 -1.68,-0.406 -3.738,-0.406 -2.055,0 -2.633,0.062 -3.735,0.406 -1.5,0.465 -3.238,1.367 -4.285,2.219 -0.398,0.324 -0.801,0.59 -0.89,0.59 -0.09,0 -0.469,-0.243 -0.84,-0.536 -1.032,-0.82 -2.614,-1.652 -4.149,-2.175 -1.246,-0.426 -1.644,-0.481 -3.824,-0.489 -2.09,-0.011 -2.617,0.043 -3.73,0.395 -1.614,0.504 -2.735,1.062 -4.122,2.043 -0.589,0.422 -1.113,0.762 -1.164,0.762 -0.05,0 -0.582,-0.34 -1.183,-0.762 -1.43,-0.992 -2.547,-1.543 -4.141,-2.043 -1.097,-0.348 -1.66,-0.41 -3.644,-0.406 -3.184,0.007 -4.723,0.48 -7.426,2.277 l -1.438,0.957 -1.433,-0.957 c -2.703,-1.797 -4.246,-2.27 -7.426,-2.277 -1.984,-0.004 -2.547,0.058 -3.645,0.406 -1.621,0.508 -3.128,1.254 -4.3,2.129 -0.496,0.371 -0.965,0.676 -1.043,0.676 -0.074,0 -0.469,-0.266 -0.875,-0.59 -0.961,-0.766 -3.16,-1.891 -4.473,-2.297 -1.5,-0.457 -5.457,-0.453 -7.039,0.008 -1.445,0.422 -3.289,1.336 -4.434,2.203 -0.496,0.371 -0.949,0.676 -1.011,0.676 -0.063,0 -0.485,-0.286 -0.938,-0.637 -1.203,-0.922 -3.754,-2.074 -5.297,-2.391 -1.629,-0.332 -4.027,-0.332 -5.437,0.004 z m 40.828,4.856 c 1.535,0.398 2.906,1.207 4.445,2.629 1.242,1.14 1.457,1.273 2.086,1.273 0.625,0 0.832,-0.129 2.071,-1.285 2.332,-2.18 4.433,-2.992 7.382,-2.844 2.461,0.121 4.391,0.984 6.203,2.77 1.059,1.043 1.551,1.359 2.118,1.359 0.691,0 1.086,-0.246 2.464,-1.547 1.942,-1.832 3.926,-2.621 6.575,-2.621 2.449,0 4.593,0.879 6.5,2.668 1.496,1.402 1.804,1.562 2.804,1.441 0.743,-0.093 0.891,-0.039 2,0.719 0.657,0.449 1.184,0.895 1.168,0.992 -0.109,0.664 -4.824,0.774 -33.601,0.778 -22.965,0.004 -26.543,-0.032 -26.543,-0.246 0,-0.137 0.512,-0.684 1.14,-1.215 0.961,-0.817 1.247,-0.969 1.821,-0.969 0.59,0 0.836,-0.141 1.847,-1.059 1.903,-1.722 2.954,-2.355 4.75,-2.859 1.098,-0.309 3.555,-0.301 4.77,0.016 z m 48.664,11.375 c 0,1.121 -0.008,1.132 -0.609,1.422 -0.903,0.433 -3.098,0.835 -5.555,1.015 -3.273,0.238 -61.988,0.219 -62.137,-0.023 -0.066,-0.106 0.145,-0.711 0.469,-1.348 l 0.586,-1.152 30.844,-0.094 c 31.59,-0.098 32.082,-0.109 34.75,-0.77 1.593,-0.39 1.652,-0.359 1.652,0.95 z m -15.094,18.203 c -0.168,0.781 -17.074,38.16 -17.289,38.234 -0.148,0.047 -0.199,-4.773 -0.199,-19.207 0,-10.601 0.051,-19.328 0.113,-19.391 0.067,-0.062 4.024,-0.117 8.797,-0.117 h 8.684 z m -21.746,19.98 c 0,8.254 -0.058,12.555 -0.176,12.559 -0.218,0 -11.406,-24.844 -11.277,-25.051 0.055,-0.086 2.602,-0.133 5.773,-0.105 l 5.68,0.043 z"
         style="fill:#000000;fill-opacity:1;fill-rule:nonzero;stroke:none"
         id="path58"
         inkscape:connector-curvature="0" /><text
         transform="scale(1,-1)"
         style="font-variant:normal;font-weight:normal;font-size:16.29091072px;font-family:Arial;-inkscape-font-specification:Arial;writing-mode:lr-tb;fill:#000000;fill-opacity:1;fill-rule:nonzero;stroke:none"
         id="text62"
         x="248.72638"
         y="-20.938023"><tspan
           sodipodi:role="line"
           id="tspan60"
           x="248.72638"
           y="-20.938023">BOAT</tspan></text>
<g
         id="g64"
         transform="matrix(1,0,0,-1,0,595.27557)"><path
           d="m 562.957,429.871 h 95.715 c 4.078,0 7.363,3.281 7.363,7.363 v 95.715 c 0,4.078 -3.285,7.364 -7.363,7.364 h -95.715 c -4.078,0 -7.363,-3.286 -7.363,-7.364 v -95.715 c 0,-4.082 3.285,-7.363 7.363,-7.363 z"
           style="fill:#4bb4e6;fill-opacity:1;fill-rule:nonzero;stroke:#000000;stroke-width:2.94508696;stroke-linecap:round;stroke-linejoin:round;stroke-miterlimit:4;stroke-dasharray:none;stroke-opacity:1"
           id="path66"
           inkscape:connector-curvature="0" /></g><path
         d="m 570.836,84.436 c -1.625,0.386 -3.055,1.129 -4.402,2.293 -0.961,0.824 -1.364,1.402 -1.457,2.086 -0.125,0.949 0.636,1.875 1.546,1.875 0.329,0 0.586,-0.168 1.391,-0.911 1.617,-1.488 2.992,-2.066 4.91,-2.066 1.914,0 3.235,0.555 4.883,2.055 1.406,1.281 1.645,1.269 3.152,-0.149 1.395,-1.308 2.891,-1.906 4.762,-1.906 1.035,0 2.348,0.309 2.836,0.664 0.231,0.168 0.18,0.242 -0.996,1.473 -1.922,2.015 -3.441,4.293 -4.418,6.625 -1.09,2.609 -1.113,4.078 -0.082,4.668 0.23,0.129 2.797,0.172 12.887,0.222 l 12.597,0.063 v 4.656 4.653 l -5.648,0.062 c -4.738,0.051 -5.692,0.094 -5.93,0.25 -0.426,0.281 -0.816,1.172 -0.734,1.68 0.039,0.234 2.824,6.527 6.187,13.984 l 6.121,13.563 0.063,2.234 c 0.07,2.371 0.117,2.566 0.746,3.008 0.328,0.226 1.125,0.234 1.477,0.015 0.14,-0.089 0.418,-0.468 0.617,-0.847 0.195,-0.375 4.051,-8.895 8.566,-18.934 8.867,-19.715 8.52,-18.848 7.965,-19.754 -0.453,-0.746 -0.137,-0.719 -8.57,-0.785 l -7.758,-0.062 v -1.86 -1.863 l 9.742,-0.074 c 8.274,-0.063 9.934,-0.106 10.984,-0.282 3.008,-0.5 4.653,-1.191 5.282,-2.222 0.226,-0.371 0.242,-0.641 0.242,-3.664 0,-2.582 -0.035,-3.336 -0.176,-3.606 -0.183,-0.355 -1.34,-1.351 -2.898,-2.492 -0.5,-0.363 -0.887,-0.719 -0.864,-0.789 0.086,-0.258 1.043,-0.488 2.262,-0.551 2.137,-0.105 3.524,0.434 5.309,2.063 1.351,1.23 1.605,1.215 3.101,-0.192 1.364,-1.277 2.895,-1.906 4.645,-1.906 1.89,0 3.308,0.566 4.695,1.875 0.477,0.449 0.992,0.883 1.141,0.961 0.414,0.219 0.965,0.172 1.324,-0.113 0.316,-0.246 0.328,-0.309 0.328,-1.469 v -1.215 l -0.781,-0.75 c -1.883,-1.808 -4.188,-2.765 -6.664,-2.765 -1.906,0 -3.641,0.546 -5.332,1.679 -0.559,0.375 -1.043,0.68 -1.078,0.68 -0.036,0 -0.297,-0.188 -0.582,-0.422 -0.75,-0.609 -1.993,-1.254 -3.063,-1.586 -0.789,-0.242 -1.199,-0.289 -2.668,-0.289 -1.473,0 -1.883,0.047 -2.668,0.289 -1.07,0.332 -2.316,0.977 -3.062,1.586 -0.286,0.234 -0.571,0.422 -0.637,0.422 -0.063,0 -0.332,-0.172 -0.598,-0.383 -0.738,-0.586 -1.867,-1.18 -2.965,-1.555 -0.89,-0.304 -1.175,-0.339 -2.73,-0.347 -1.496,-0.008 -1.867,0.031 -2.668,0.281 -1.148,0.359 -1.949,0.758 -2.941,1.461 -0.422,0.297 -0.797,0.543 -0.832,0.543 -0.036,0 -0.415,-0.246 -0.844,-0.543 -1.024,-0.711 -1.821,-1.106 -2.957,-1.461 -0.785,-0.246 -1.188,-0.293 -2.606,-0.289 -2.273,0.004 -3.375,0.344 -5.304,1.625 l -1.024,0.684 -1.027,-0.684 c -1.93,-1.281 -3.031,-1.621 -5.305,-1.625 -1.418,-0.004 -1.816,0.043 -2.601,0.289 -1.161,0.363 -2.235,0.895 -3.071,1.52 -0.355,0.265 -0.691,0.484 -0.746,0.484 -0.055,0 -0.336,-0.192 -0.625,-0.422 -0.687,-0.547 -2.258,-1.352 -3.195,-1.641 -1.07,-0.328 -3.899,-0.324 -5.027,0.004 -1.032,0.301 -2.352,0.957 -3.168,1.575 -0.352,0.265 -0.676,0.484 -0.723,0.484 -0.043,0 -0.344,-0.203 -0.672,-0.453 -0.855,-0.66 -2.676,-1.485 -3.781,-1.711 -1.164,-0.238 -2.875,-0.235 -3.883,0.004 z M 600,87.904 c 1.094,0.286 2.074,0.864 3.176,1.875 0.887,0.817 1.039,0.915 1.488,0.915 0.445,0 0.594,-0.094 1.477,-0.918 1.668,-1.559 3.168,-2.141 5.277,-2.036 1.758,0.09 3.137,0.704 4.43,1.981 0.754,0.742 1.105,0.969 1.511,0.969 0.496,0 0.774,-0.172 1.758,-1.102 1.387,-1.309 2.805,-1.875 4.699,-1.875 1.75,0 3.282,0.629 4.641,1.906 1.07,1.004 1.289,1.118 2.004,1.032 0.531,-0.067 0.637,-0.028 1.43,0.511 0.468,0.321 0.843,0.641 0.836,0.707 -0.079,0.477 -3.45,0.555 -24.004,0.559 -16.403,0 -18.957,-0.024 -18.957,-0.176 0,-0.098 0.363,-0.488 0.812,-0.871 0.688,-0.582 0.891,-0.687 1.301,-0.687 0.422,0 0.598,-0.102 1.32,-0.758 1.36,-1.231 2.11,-1.684 3.391,-2.043 0.785,-0.223 2.543,-0.215 3.41,0.011 z m 34.758,8.125 c 0,0.801 -0.004,0.809 -0.434,1.016 -0.644,0.309 -2.215,0.598 -3.969,0.727 -2.335,0.168 -44.277,0.156 -44.382,-0.016 -0.047,-0.078 0.101,-0.512 0.336,-0.965 l 0.418,-0.824 22.031,-0.066 c 22.562,-0.071 22.914,-0.079 24.82,-0.547 1.141,-0.282 1.18,-0.258 1.18,0.675 z m -10.781,13 c -0.122,0.559 -12.196,27.258 -12.348,27.313 -0.109,0.035 -0.145,-3.41 -0.145,-13.719 0,-7.574 0.039,-13.804 0.082,-13.851 0.047,-0.047 2.875,-0.082 6.286,-0.082 h 6.199 z m -15.532,14.274 c 0,5.894 -0.043,8.969 -0.125,8.969 -0.156,0.004 -8.148,-17.743 -8.058,-17.891 0.039,-0.062 1.859,-0.094 4.125,-0.078 l 4.058,0.035 z"
         style="fill:#000000;fill-opacity:1;fill-rule:nonzero;stroke:none"
         id="path68"
         inkscape:connector-curvature="0" /><text
         transform="scale(1,-1)"
         style="font-variant:normal;font-weight:normal;font-size:11.63636398px;font-family:Arial;-inkscape-font-specification:Arial;writing-mode:lr-tb;fill:#000000;fill-opacity:1;fill-rule:nonzero;stroke:none"
         id="text72"
         x="595.00958"
         y="-62.635159"><tspan
           sodipodi:role="line"
           id="tspan70"
           x="595.00958"
           y="-62.635159">BOAT</tspan></text>
<g
         id="g74"
         transform="matrix(1,0,0,-1,0,595.27557)"><path
           d="m 690.789,429.871 h 95.715 c 4.078,0 7.363,3.281 7.363,7.363 v 95.715 c 0,4.078 -3.285,7.364 -7.363,7.364 h -95.715 c -4.078,0 -7.363,-3.286 -7.363,-7.364 v -95.715 c 0,-4.082 3.285,-7.363 7.363,-7.363 z"
           style="fill:#4bb4e6;fill-opacity:1;fill-rule:nonzero;stroke:#000000;stroke-width:2.94508696;stroke-linecap:round;stroke-linejoin:round;stroke-miterlimit:4;stroke-dasharray:none;stroke-opacity:1"
           id="path76"
           inkscape:connector-curvature="0" /></g><path
         d="m 698.668,84.436 c -1.625,0.386 -3.055,1.129 -4.402,2.293 -0.961,0.824 -1.364,1.402 -1.457,2.086 -0.125,0.949 0.636,1.875 1.546,1.875 0.329,0 0.586,-0.168 1.391,-0.911 1.617,-1.488 2.992,-2.066 4.91,-2.066 1.914,0 3.235,0.555 4.883,2.055 1.41,1.281 1.645,1.269 3.152,-0.149 1.395,-1.308 2.891,-1.906 4.762,-1.906 1.035,0 2.348,0.309 2.84,0.664 0.227,0.168 0.176,0.242 -1,1.473 -1.922,2.015 -3.441,4.293 -4.414,6.625 -1.09,2.609 -1.117,4.078 -0.082,4.668 0.226,0.129 2.793,0.172 12.883,0.222 l 12.597,0.063 v 4.656 4.653 l -5.648,0.062 c -4.738,0.051 -5.691,0.094 -5.93,0.25 -0.426,0.281 -0.816,1.172 -0.734,1.68 0.039,0.234 2.824,6.527 6.187,13.984 l 6.121,13.563 0.063,2.234 c 0.07,2.371 0.117,2.566 0.746,3.008 0.328,0.226 1.125,0.234 1.477,0.015 0.144,-0.089 0.421,-0.468 0.617,-0.847 0.195,-0.375 4.051,-8.895 8.566,-18.934 8.867,-19.715 8.52,-18.848 7.965,-19.754 -0.453,-0.746 -0.137,-0.719 -8.57,-0.785 l -7.758,-0.062 v -1.86 -1.863 l 9.746,-0.074 c 8.273,-0.063 9.93,-0.106 10.984,-0.282 3.004,-0.5 4.649,-1.191 5.278,-2.222 0.226,-0.371 0.242,-0.641 0.242,-3.664 0,-2.582 -0.035,-3.336 -0.176,-3.606 -0.183,-0.355 -1.34,-1.351 -2.898,-2.492 -0.5,-0.363 -0.887,-0.719 -0.864,-0.789 0.086,-0.258 1.043,-0.488 2.266,-0.551 2.133,-0.105 3.52,0.434 5.309,2.063 1.347,1.23 1.601,1.215 3.101,-0.192 1.36,-1.277 2.891,-1.906 4.641,-1.906 1.89,0 3.308,0.566 4.695,1.875 0.481,0.449 0.992,0.883 1.141,0.961 0.414,0.219 0.965,0.172 1.328,-0.113 0.312,-0.246 0.324,-0.309 0.324,-1.469 v -1.215 l -0.781,-0.75 c -1.883,-1.808 -4.188,-2.765 -6.664,-2.765 -1.906,0 -3.641,0.546 -5.332,1.679 -0.559,0.375 -1.043,0.68 -1.078,0.68 -0.036,0 -0.297,-0.188 -0.582,-0.422 -0.75,-0.609 -1.993,-1.254 -3.063,-1.586 -0.785,-0.242 -1.199,-0.289 -2.668,-0.289 -1.469,0 -1.883,0.047 -2.668,0.289 -1.07,0.332 -2.316,0.977 -3.062,1.586 -0.285,0.234 -0.571,0.422 -0.633,0.422 -0.067,0 -0.336,-0.172 -0.602,-0.383 -0.738,-0.586 -1.867,-1.18 -2.965,-1.555 -0.89,-0.304 -1.175,-0.339 -2.73,-0.347 -1.492,-0.008 -1.867,0.031 -2.664,0.281 -1.152,0.359 -1.953,0.758 -2.945,1.461 -0.422,0.297 -0.793,0.543 -0.832,0.543 -0.036,0 -0.414,-0.246 -0.844,-0.543 -1.024,-0.711 -1.82,-1.106 -2.957,-1.461 -0.785,-0.246 -1.188,-0.293 -2.606,-0.289 -2.273,0.004 -3.371,0.344 -5.304,1.625 l -1.024,0.684 -1.027,-0.684 c -1.93,-1.281 -3.031,-1.621 -5.305,-1.625 -1.414,-0.004 -1.816,0.043 -2.601,0.289 -1.157,0.363 -2.235,0.895 -3.071,1.52 -0.355,0.265 -0.691,0.484 -0.746,0.484 -0.051,0 -0.336,-0.192 -0.625,-0.422 -0.687,-0.547 -2.254,-1.352 -3.195,-1.641 -1.07,-0.328 -3.895,-0.324 -5.027,0.004 -1.032,0.301 -2.348,0.957 -3.168,1.575 -0.352,0.265 -0.676,0.484 -0.719,0.484 -0.047,0 -0.348,-0.203 -0.672,-0.453 -0.859,-0.66 -2.68,-1.485 -3.781,-1.711 -1.164,-0.238 -2.879,-0.235 -3.887,0.004 z m 29.164,3.468 c 1.098,0.286 2.074,0.864 3.176,1.875 0.887,0.817 1.039,0.915 1.488,0.915 0.449,0 0.598,-0.094 1.481,-0.918 1.664,-1.559 3.168,-2.141 5.273,-2.036 1.758,0.09 3.137,0.704 4.43,1.981 0.754,0.742 1.105,0.969 1.511,0.969 0.497,0 0.778,-0.172 1.762,-1.102 1.387,-1.309 2.805,-1.875 4.695,-1.875 1.75,0 3.282,0.629 4.641,1.906 1.07,1.004 1.293,1.118 2.004,1.032 0.531,-0.067 0.637,-0.028 1.43,0.511 0.468,0.321 0.847,0.641 0.836,0.707 -0.079,0.477 -3.446,0.555 -24.004,0.559 -16.403,0 -18.957,-0.024 -18.957,-0.176 0,-0.098 0.367,-0.488 0.812,-0.871 0.688,-0.582 0.891,-0.687 1.301,-0.687 0.422,0 0.598,-0.102 1.32,-0.758 1.36,-1.231 2.11,-1.684 3.395,-2.043 0.781,-0.223 2.539,-0.215 3.406,0.011 z m 34.758,8.125 c 0,0.801 -0.004,0.809 -0.434,1.016 -0.644,0.309 -2.211,0.598 -3.968,0.727 -2.336,0.168 -44.278,0.156 -44.383,-0.016 -0.047,-0.078 0.105,-0.512 0.336,-0.965 l 0.418,-0.824 22.031,-0.066 c 22.562,-0.071 22.914,-0.079 24.82,-0.547 1.141,-0.282 1.18,-0.258 1.18,0.675 z m -10.777,13 c -0.122,0.559 -12.196,27.258 -12.352,27.313 -0.106,0.035 -0.145,-3.41 -0.145,-13.719 0,-7.574 0.039,-13.804 0.086,-13.851 0.043,-0.047 2.871,-0.082 6.282,-0.082 h 6.203 z m -15.536,14.274 c 0,5.894 -0.043,8.969 -0.125,8.969 -0.156,0.004 -8.148,-17.743 -8.054,-17.891 0.035,-0.062 1.859,-0.094 4.125,-0.078 l 4.054,0.035 z"
         style="fill:#000000;fill-opacity:1;fill-rule:nonzero;stroke:none"
         id="path78"
         inkscape:connector-curvature="0" /><text
         transform="scale(1,-1)"
         style="font-variant:normal;font-weight:normal;font-size:11.63636398px;font-family:Arial;-inkscape-font-specification:Arial;writing-mode:lr-tb;fill:#000000;fill-opacity:1;fill-rule:nonzero;stroke:none"
         id="text82"
         x="722.84247"
         y="-62.635159"><tspan
           sodipodi:role="line"
           id="tspan80"
           x="722.84247"
           y="-62.635159">BOAT</tspan></text>
<text
         xml:space="preserve"
         style="font-style:normal;font-weight:normal;font-size:30px;line-height:125%;font-family:Sans;letter-spacing:0px;word-spacing:0px;fill:#000000;fill-opacity:1;stroke:none;stroke-width:0.75px;stroke-linecap:butt;stroke-linejoin:miter;stroke-opacity:1"
         x="177.18498"
         y="-1.5654305e-05"
         id="text86"
         transform="scale(1,-1)"><tspan
           sodipodi:role="line"
           id="tspan84"
           x="177.18498"
           y="26.542953"
           style="stroke-width:0.75px"></tspan></text>
</g></g></svg>