<?xml version="1.0" encoding="UTF-8" standalone="no"?>
<!-- Created with Inkscape (http://www.inkscape.org/) -->

<svg
   xmlns:dc="http://purl.org/dc/elements/1.1/"
   xmlns:cc="http://creativecommons.org/ns#"
   xmlns:rdf="http://www.w3.org/1999/02/22-rdf-syntax-ns#"
   xmlns:svg="http://www.w3.org/2000/svg"
   xmlns="http://www.w3.org/2000/svg"
   xmlns:sodipodi="http://sodipodi.sourceforge.net/DTD/sodipodi-0.dtd"
   xmlns:inkscape="http://www.inkscape.org/namespaces/inkscape"
   version="1.1"
   id="svg2"
   xml:space="preserve"
   width="1122.5197"
   height="793.70074"
   viewBox="0 0 1122.5197 793.70074"
   sodipodi:docname="Burger.svg"
   inkscape:version="0.92.2 5c3e80d, 2017-08-06"><metadata
     id="metadata8"><rdf:RDF><cc:Work
         rdf:about=""><dc:format>image/svg+xml</dc:format><dc:type
           rdf:resource="http://purl.org/dc/dcmitype/StillImage" /><dc:title></dc:title></cc:Work></rdf:RDF></metadata><defs
     id="defs6" /><sodipodi:namedview
     pagecolor="#ffffff"
     bordercolor="#666666"
     borderopacity="1"
     objecttolerance="10"
     gridtolerance="10"
     guidetolerance="10"
     inkscape:pageopacity="0"
     inkscape:pageshadow="2"
     inkscape:window-width="640"
     inkscape:window-height="480"
     id="namedview4"
     showgrid="false"
     inkscape:zoom="0.29734129"
     inkscape:cx="561.25983"
     inkscape:cy="396.85037"
     inkscape:window-x="112"
     inkscape:window-y="0"
     inkscape:window-maximized="0"
     inkscape:current-layer="g10" /><g
     id="g10"
     inkscape:groupmode="layer"
     inkscape:label="Burger"
     transform="matrix(1.3333333,0,0,-1.3333333,0,793.70077)"><g
       id="g12"><g
         id="g14"
         transform="matrix(1,0,0,-1,0,595.27557)"><path
           d="m 49.645,24.934 h 335.003 c 14.274,0 25.77,11.492 25.77,25.769 v 335.004 c 0,14.277 -11.496,25.77 -25.77,25.77 H 49.645 c -14.278,0 -25.77,-11.493 -25.77,-25.77 V 50.703 c 0,-14.277 11.492,-25.769 25.77,-25.769 z"
           style="fill:#ffd200;fill-opacity:1;fill-rule:nonzero;stroke:#000000;stroke-width:10.30780315;stroke-linecap:round;stroke-linejoin:round;stroke-miterlimit:4;stroke-dasharray:none;stroke-opacity:1"
           id="path16"
           inkscape:connector-curvature="0" /></g><text
         transform="matrix(1,0,0,-1,128.4921,210.64555)"
         style="font-variant:normal;font-weight:normal;font-size:40.72727585px;font-family:Arial;-inkscape-font-specification:Arial;writing-mode:lr-tb;fill:#000000;fill-opacity:1;fill-rule:nonzero;stroke:none"
         id="text20"><tspan
           x="0 27.165092 56.570187 86.016006 117.62037 144.78546"
           y="0"
           sodipodi:role="line"
           id="tspan18">BURGER</tspan></text>
<path
         d="m 104.582,270.979 c -21.789,1.976 -40.707,15.996 -48.883,36.215 -2.613,6.468 -4.222,14.066 -4.222,19.945 0,4.156 0.07,4.441 1.472,5.844 1.449,1.449 1.567,1.472 6.973,1.472 3.027,0 5.641,0.141 5.812,0.309 0.168,0.172 -1.007,1.84 -2.613,3.707 -5.394,6.266 -7.613,10.117 -9.887,17.156 -1.851,5.731 -2.32,15.805 -1.031,22.227 1.637,8.175 5.492,15.515 11.496,21.898 2.153,2.285 3.91,4.285 3.91,4.449 0,0.164 -0.679,0.649 -1.504,1.075 -2.144,1.109 -4.863,3.964 -6.136,6.445 -0.746,1.457 -1.184,3.48 -1.387,6.41 l -0.301,4.277 -1.761,0.289 c -2.262,0.375 -3.875,1.258 -4.528,2.473 -0.758,1.422 -0.625,9.363 0.254,15.277 5.527,37.043 34.32,65.723 71.82,71.543 3.426,0.532 22.098,0.664 93.258,0.664 82.461,0 89.348,-0.062 94.078,-0.882 38.11,-6.59 66.536,-36.77 70.731,-75.09 0.906,-8.266 0.762,-10.215 -0.895,-12.067 -1.054,-1.179 -2.011,-1.679 -3.648,-1.898 l -2.219,-0.297 -0.027,-3.781 c -0.043,-5.93 -2.473,-10.195 -7.797,-13.676 l -1.262,-0.824 3.043,-3.211 c 5.918,-6.246 9.785,-13.02 11.902,-20.852 1.458,-5.394 1.59,-16.511 0.262,-21.425 -2.254,-8.305 -6.574,-16.235 -11.383,-20.895 -3.168,-3.066 -2.914,-3.301 3.539,-3.301 h 5.594 l 1.785,-1.785 1.789,-1.789 -0.285,-4.641 c -0.902,-14.675 -6.687,-27.796 -16.715,-37.906 -8.41,-8.484 -17.972,-13.746 -29.972,-16.496 L 331,270.725 220.098,270.643 c -60.996,-0.047 -112.977,0.105 -115.516,0.336 z m 231.457,11.988 c 14.856,4.289 26.5,14.531 32.18,28.301 1.793,4.34 3.402,10.82 2.98,11.972 -0.183,0.5 -31.484,0.629 -154.195,0.629 -140.188,0 -153.992,-0.07 -154.274,-0.8 -0.167,-0.442 0.157,-2.676 0.723,-4.969 4.465,-18.074 18.574,-31.68 36.922,-35.598 4.074,-0.867 9.84,-0.91 117.957,-0.805 l 113.676,0.106 z m 5.719,52.012 c 7.984,1.004 14.265,4.093 19.98,9.843 6.731,6.774 9.367,12.934 9.719,22.723 0.184,5.047 0.039,6.84 -0.828,10.27 -2.93,11.589 -13.195,21.707 -24.766,24.406 -1.754,0.41 -3.343,0.648 -3.531,0.531 -0.187,-0.113 -0.48,-1.996 -0.648,-4.183 -0.539,-7.004 -3.274,-12.028 -8.797,-16.18 -3.664,-2.75 -7.012,-3.789 -12.223,-3.789 -5.207,0 -8.555,1.039 -12.219,3.789 -5.195,3.902 -8.144,9.004 -8.793,15.195 -0.218,2.09 -0.668,3.445 -1.453,4.36 -1.074,1.246 -1.437,1.332 -6.504,1.496 -6.172,0.195 -7.41,-0.02 -8.824,-1.536 -0.969,-1.042 -1.019,-1.734 -1.019,-14.039 0,-7.121 -0.231,-14.168 -0.512,-15.66 -1.188,-6.304 -5.594,-11.933 -11.559,-14.758 -3.047,-1.445 -3.718,-1.566 -8.609,-1.566 -4.949,0 -5.527,0.106 -8.578,1.609 -6.281,3.094 -10.61,9.016 -11.602,15.879 -0.25,1.75 -0.461,8.657 -0.469,15.348 -0.007,11.219 -0.085,12.262 -0.972,13.359 l -0.965,1.188 h -17.504 c -15.059,0 -17.562,-0.106 -17.887,-0.754 -0.207,-0.418 -0.906,-1.973 -1.55,-3.461 -4.684,-10.746 -20.415,-10.746 -25.098,0 -0.645,1.488 -1.344,3.043 -1.551,3.461 -0.308,0.621 -1.98,0.781 -9.394,0.898 -9.895,0.157 -10.844,0.047 -12.309,-1.418 -0.883,-0.878 -0.996,-1.695 -1,-7.168 -0.008,-10.55 -1.137,-14.429 -5.512,-18.875 -3.281,-3.335 -6.879,-4.878 -11.875,-5.105 -5.707,-0.254 -9.054,1.059 -13.152,5.156 -4.492,4.496 -5.27,6.883 -5.625,17.301 -0.246,7.293 -0.383,8.277 -1.27,9.074 -0.89,0.801 -2.129,0.887 -12.148,0.832 -12.734,-0.07 -15.258,-0.5 -21.746,-3.699 -7.754,-3.824 -14.492,-11.586 -17.211,-19.824 -1.176,-3.574 -1.371,-5.008 -1.402,-10.442 -0.032,-5.253 0.16,-6.933 1.14,-10.082 1.633,-5.261 4.156,-9.574 7.957,-13.601 5.656,-5.996 12.762,-9.695 20.324,-10.582 5.27,-0.617 245.067,-0.613 249.985,0.008 z m -76.789,32.175 c 2.566,1.165 5.16,4.102 5.504,6.231 0.148,0.91 0.328,7.891 0.406,15.512 l 0.133,13.863 1.414,2.883 c 1.722,3.508 5.117,6.609 8.437,7.711 1.961,0.652 4.121,0.785 10.672,0.656 7.586,-0.145 8.399,-0.254 10.668,-1.414 4.231,-2.16 7.875,-7.442 7.875,-11.41 0,-0.633 0.254,-2.321 0.559,-3.75 0.64,-2.989 3.25,-6.266 5.855,-7.356 1.942,-0.812 6.078,-0.886 8.047,-0.144 1.551,0.586 4.445,3.16 5.352,4.761 0.312,0.551 0.707,4.297 0.875,8.317 0.48,11.492 -0.153,11.09 17.375,11.09 13.472,0 15.289,0.258 16.07,2.289 0.613,1.597 0.297,3.461 -0.785,4.609 l -1.094,1.168 H 217.277 c -79.777,0 -145.418,-0.141 -145.867,-0.312 -1.207,-0.465 -2.359,-3.02 -2.004,-4.438 0.172,-0.672 0.766,-1.641 1.324,-2.144 0.942,-0.852 2.653,-0.938 23.52,-1.172 21.828,-0.246 22.57,-0.285 24.523,-1.336 2.809,-1.512 5.743,-4.551 6.985,-7.235 0.887,-1.918 1.09,-3.593 1.316,-10.863 0.223,-7.047 0.43,-8.836 1.16,-9.949 2.758,-4.207 8.657,-4.309 11.676,-0.199 0.926,1.257 1.078,2.382 1.328,9.832 0.336,10.011 1.078,12.34 5.082,15.937 3.95,3.555 5.285,3.813 19.645,3.813 7.59,0 13.035,-0.211 13.898,-0.535 2.985,-1.129 5.278,-4.133 5.93,-7.782 0.453,-2.523 1.555,-3.781 3.305,-3.781 1.75,0 2.847,1.258 3.3,3.781 0.2,1.11 0.661,2.606 1.024,3.328 0.992,1.961 4.004,4.395 5.871,4.739 0.906,0.168 10.723,0.234 21.812,0.152 22.954,-0.176 22.114,-0.027 26.403,-4.68 3.769,-4.089 3.789,-4.199 4.086,-21.183 0.222,-12.789 0.39,-15.356 1.097,-16.637 2.52,-4.566 7.735,-6.414 12.278,-4.352 z m 106.402,66.786 c 0.395,1.039 -1.105,9.613 -2.57,14.672 -3.684,12.707 -10.176,23.378 -19.965,32.804 -7.793,7.504 -16.934,13.067 -27.16,16.531 -11.52,3.895 -2.422,3.563 -102.586,3.747 -80.203,0.144 -90.238,0.074 -94.52,-0.641 -8.554,-1.434 -14.957,-3.574 -22.582,-7.555 -16.039,-8.367 -28.425,-22.168 -34.828,-38.812 -2.875,-7.465 -5.351,-19.289 -4.371,-20.875 0.246,-0.399 43.227,-0.551 154.328,-0.551 128.985,0 154.031,0.109 154.254,0.68 z"
         style="fill:#000000;fill-opacity:1;fill-rule:nonzero;stroke:none"
         id="path22"
         inkscape:connector-curvature="0" /><g
         id="g24"
         transform="matrix(1,0,0,-1,0,595.27557)"><path
           d="M 457.746,24.934 H 792.75 c 14.277,0 25.77,11.492 25.77,25.769 v 335.004 c 0,14.277 -11.493,25.77 -25.77,25.77 H 457.746 c -14.277,0 -25.769,-11.493 -25.769,-25.77 V 50.703 c 0,-14.277 11.492,-25.769 25.769,-25.769 z"
           style="fill:#ffd200;fill-opacity:1;fill-rule:nonzero;stroke:#000000;stroke-width:10.30780315;stroke-linecap:round;stroke-linejoin:round;stroke-miterlimit:4;stroke-dasharray:none;stroke-opacity:1"
           id="path26"
           inkscape:connector-curvature="0" /></g><text
         transform="matrix(1,0,0,-1,536.59447,210.64555)"
         style="font-variant:normal;font-weight:normal;font-size:40.72727585px;font-family:Arial;-inkscape-font-specification:Arial;writing-mode:lr-tb;fill:#000000;fill-opacity:1;fill-rule:nonzero;stroke:none"
         id="text30"><tspan
           x="0 27.165092 56.570187 86.016006 117.62037 144.78546"
           y="0"
           sodipodi:role="line"
           id="tspan28">BURGER</tspan></text>
<path
         d="m 512.684,270.979 c -21.786,1.976 -40.707,15.996 -48.879,36.215 -2.617,6.468 -4.227,14.066 -4.227,19.945 0,4.156 0.07,4.441 1.473,5.844 1.449,1.449 1.57,1.472 6.976,1.472 3.024,0 5.637,0.141 5.809,0.309 0.172,0.172 -1.004,1.84 -2.613,3.707 -5.395,6.266 -7.61,10.117 -9.887,17.156 -1.848,5.731 -2.316,15.805 -1.031,22.227 1.636,8.175 5.492,15.515 11.5,21.898 2.148,2.285 3.906,4.285 3.906,4.449 0,0.164 -0.676,0.649 -1.504,1.075 -2.144,1.109 -4.863,3.964 -6.137,6.445 -0.746,1.457 -1.183,3.48 -1.386,6.41 l -0.301,4.277 -1.762,0.289 c -2.262,0.375 -3.875,1.258 -4.527,2.473 -0.758,1.422 -0.625,9.363 0.258,15.277 5.527,37.043 34.316,65.723 71.816,71.543 3.43,0.532 22.098,0.664 93.262,0.664 82.461,0 89.343,-0.062 94.074,-0.882 38.109,-6.59 66.535,-36.77 70.734,-75.09 0.903,-8.266 0.758,-10.215 -0.898,-12.067 -1.055,-1.179 -2.012,-1.679 -3.649,-1.898 l -2.218,-0.297 -0.028,-3.781 c -0.039,-5.93 -2.472,-10.195 -7.797,-13.676 l -1.257,-0.824 3.039,-3.211 c 5.922,-6.246 9.785,-13.02 11.902,-20.852 1.457,-5.394 1.594,-16.511 0.262,-21.425 -2.254,-8.305 -6.574,-16.235 -11.383,-20.895 -3.164,-3.066 -2.914,-3.301 3.539,-3.301 h 5.594 l 1.789,-1.785 1.785,-1.789 -0.285,-4.641 c -0.903,-14.675 -6.688,-27.796 -16.715,-37.906 -8.41,-8.484 -17.973,-13.746 -29.973,-16.496 l -4.843,-1.113 -110.903,-0.082 c -60.996,-0.047 -112.976,0.105 -115.515,0.336 z m 231.461,11.988 c 14.851,4.289 26.496,14.531 32.175,28.301 1.793,4.34 3.407,10.82 2.981,11.972 -0.184,0.5 -31.485,0.629 -154.196,0.629 -140.187,0 -153.992,-0.07 -154.269,-0.8 -0.172,-0.442 0.152,-2.676 0.719,-4.969 4.465,-18.074 18.574,-31.68 36.922,-35.598 4.074,-0.867 9.839,-0.91 117.961,-0.805 l 113.671,0.106 z m 5.714,52.012 c 7.989,1.004 14.266,4.093 19.981,9.843 6.73,6.774 9.367,12.934 9.723,22.723 0.179,5.047 0.039,6.84 -0.829,10.27 -2.933,11.589 -13.195,21.707 -24.765,24.406 -1.758,0.41 -3.348,0.648 -3.535,0.531 -0.188,-0.113 -0.481,-1.996 -0.649,-4.183 -0.539,-7.004 -3.269,-12.028 -8.797,-16.18 -3.66,-2.75 -7.011,-3.789 -12.218,-3.789 -5.211,0 -8.559,1.039 -12.219,3.789 -5.196,3.902 -8.149,9.004 -8.793,15.195 -0.219,2.09 -0.672,3.445 -1.457,4.36 -1.074,1.246 -1.438,1.332 -6.504,1.496 -6.172,0.195 -7.406,-0.02 -8.82,-1.536 -0.973,-1.042 -1.024,-1.734 -1.024,-14.039 0,-7.121 -0.23,-14.168 -0.512,-15.66 -1.187,-6.304 -5.593,-11.933 -11.554,-14.758 -3.051,-1.445 -3.723,-1.566 -8.614,-1.566 -4.949,0 -5.527,0.106 -8.574,1.609 -6.281,3.094 -10.609,9.016 -11.601,15.879 -0.254,1.75 -0.465,8.657 -0.473,15.348 -0.008,11.219 -0.082,12.262 -0.973,13.359 l -0.961,1.188 h -17.507 c -15.059,0 -17.559,-0.106 -17.883,-0.754 -0.207,-0.418 -0.906,-1.973 -1.555,-3.461 -4.683,-10.746 -20.414,-10.746 -25.094,0 -0.648,1.488 -1.347,3.043 -1.554,3.461 -0.309,0.621 -1.981,0.781 -9.395,0.898 -9.894,0.157 -10.844,0.047 -12.308,-1.418 -0.883,-0.878 -0.997,-1.695 -1,-7.168 -0.004,-10.55 -1.137,-14.429 -5.512,-18.875 -3.278,-3.335 -6.875,-4.878 -11.875,-5.105 -5.707,-0.254 -9.055,1.059 -13.153,5.156 -4.492,4.496 -5.269,6.883 -5.621,17.301 -0.25,7.293 -0.386,8.277 -1.269,9.074 -0.895,0.801 -2.129,0.887 -12.152,0.832 -12.735,-0.07 -15.258,-0.5 -21.743,-3.699 -7.757,-3.824 -14.496,-11.586 -17.215,-19.824 -1.175,-3.574 -1.371,-5.008 -1.402,-10.442 -0.031,-5.253 0.16,-6.933 1.141,-10.082 1.633,-5.261 4.16,-9.574 7.957,-13.601 5.656,-5.996 12.765,-9.695 20.328,-10.582 5.266,-0.617 245.062,-0.613 249.98,0.008 z m -76.789,32.175 c 2.567,1.165 5.16,4.102 5.508,6.231 0.145,0.91 0.328,7.891 0.402,15.512 l 0.133,13.863 1.414,2.883 c 1.723,3.508 5.118,6.609 8.438,7.711 1.965,0.652 4.125,0.785 10.672,0.656 7.586,-0.145 8.398,-0.254 10.668,-1.414 4.23,-2.16 7.879,-7.442 7.879,-11.41 0,-0.633 0.25,-2.321 0.558,-3.75 0.641,-2.989 3.246,-6.266 5.852,-7.356 1.941,-0.812 6.078,-0.886 8.047,-0.144 1.55,0.586 4.445,3.16 5.351,4.761 0.313,0.551 0.707,4.297 0.875,8.317 0.481,11.492 -0.148,11.09 17.375,11.09 13.473,0 15.289,0.258 16.071,2.289 0.613,1.597 0.296,3.461 -0.786,4.609 l -1.093,1.168 H 625.383 c -79.781,0 -145.422,-0.141 -145.871,-0.312 -1.203,-0.465 -2.36,-3.02 -2.004,-4.438 0.172,-0.672 0.765,-1.641 1.324,-2.144 0.941,-0.852 2.652,-0.938 23.523,-1.172 21.825,-0.246 22.567,-0.285 24.52,-1.336 2.813,-1.512 5.742,-4.551 6.984,-7.235 0.887,-1.918 1.09,-3.593 1.317,-10.863 0.222,-7.047 0.429,-8.836 1.16,-9.949 2.762,-4.207 8.656,-4.309 11.676,-0.199 0.926,1.257 1.078,2.382 1.328,9.832 0.336,10.011 1.078,12.34 5.082,15.937 3.953,3.555 5.285,3.813 19.644,3.813 7.594,0 13.036,-0.211 13.899,-0.535 2.988,-1.129 5.277,-4.133 5.933,-7.782 0.454,-2.523 1.551,-3.781 3.301,-3.781 1.75,0 2.848,1.258 3.301,3.781 0.199,1.11 0.66,2.606 1.023,3.328 0.997,1.961 4.008,4.395 5.872,4.739 0.906,0.168 10.722,0.234 21.812,0.152 22.957,-0.176 22.113,-0.027 26.402,-4.68 3.77,-4.089 3.789,-4.199 4.086,-21.183 0.223,-12.789 0.391,-15.356 1.098,-16.637 2.52,-4.566 7.734,-6.414 12.277,-4.352 z m 106.403,66.786 c 0.398,1.039 -1.106,9.613 -2.571,14.672 -3.683,12.707 -10.175,23.378 -19.964,32.804 -7.793,7.504 -16.934,13.067 -27.161,16.531 -11.519,3.895 -2.422,3.563 -102.586,3.747 -80.199,0.144 -90.238,0.074 -94.519,-0.641 -8.555,-1.434 -14.957,-3.574 -22.582,-7.555 -16.039,-8.367 -28.422,-22.168 -34.828,-38.812 -2.875,-7.465 -5.348,-19.289 -4.371,-20.875 0.246,-0.399 43.23,-0.551 154.332,-0.551 128.98,0 154.031,0.109 154.25,0.68 z"
         style="fill:#000000;fill-opacity:1;fill-rule:nonzero;stroke:none"
         id="path32"
         inkscape:connector-curvature="0" /><g
         id="g34"
         transform="matrix(1,0,0,-1,0,595.27557)"><path
           d="m 31.09,430.461 h 134 c 5.711,0 10.308,4.594 10.308,10.305 V 574.77 c 0,5.71 -4.597,10.304 -10.308,10.304 h -134 c -5.711,0 -10.309,-4.594 -10.309,-10.304 V 440.766 c 0,-5.711 4.598,-10.305 10.309,-10.305 z"
           style="fill:#ffd200;fill-opacity:1;fill-rule:nonzero;stroke:#000000;stroke-width:4.12312078;stroke-linecap:round;stroke-linejoin:round;stroke-miterlimit:4;stroke-dasharray:none;stroke-opacity:1"
           id="path36"
           inkscape:connector-curvature="0" /></g><text
         transform="matrix(1,0,0,-1,62.62905,20.938053)"
         style="font-variant:normal;font-weight:normal;font-size:16.29091072px;font-family:Arial;-inkscape-font-specification:Arial;writing-mode:lr-tb;fill:#000000;fill-opacity:1;fill-rule:nonzero;stroke:none"
         id="text40"><tspan
           x="0 10.866037 22.628075 34.406403 47.048149 57.914185"
           y="0"
           sodipodi:role="line"
           id="tspan38">BURGER</tspan></text>
<path
         d="m 53.066,45.072 c -8.714,0.79 -16.285,6.399 -19.554,14.485 -1.047,2.59 -1.688,5.625 -1.688,7.976 0,1.664 0.028,1.778 0.59,2.34 0.578,0.578 0.625,0.59 2.789,0.59 1.207,0 2.254,0.055 2.324,0.121 0.067,0.07 -0.402,0.738 -1.047,1.485 -2.156,2.507 -3.042,4.046 -3.953,6.863 -0.742,2.293 -0.929,6.32 -0.414,8.89 0.657,3.27 2.196,6.207 4.598,8.758 0.859,0.914 1.562,1.715 1.562,1.782 0,0.066 -0.269,0.257 -0.601,0.429 -0.856,0.442 -1.942,1.586 -2.453,2.578 -0.297,0.582 -0.473,1.391 -0.555,2.563 l -0.117,1.711 -0.707,0.117 c -0.906,0.148 -1.551,0.5 -1.813,0.988 -0.3,0.567 -0.25,3.746 0.106,6.11 2.211,14.82 13.726,26.289 28.726,28.617 1.371,0.215 8.84,0.265 37.305,0.265 32.984,0 35.738,-0.023 37.629,-0.351 15.242,-2.637 26.613,-14.707 28.293,-30.035 0.363,-3.309 0.305,-4.086 -0.359,-4.828 -0.422,-0.473 -0.805,-0.672 -1.457,-0.758 l -0.891,-0.121 -0.008,-1.512 c -0.019,-2.371 -0.992,-4.078 -3.121,-5.469 l -0.504,-0.332 1.219,-1.281 c 2.367,-2.5 3.914,-5.211 4.758,-8.344 0.586,-2.156 0.636,-6.605 0.105,-8.566 -0.902,-3.324 -2.629,-6.496 -4.551,-8.36 -1.269,-1.226 -1.168,-1.32 1.414,-1.32 h 2.239 l 0.715,-0.715 0.714,-0.715 -0.113,-1.855 c -0.363,-5.871 -2.676,-11.121 -6.687,-15.164 -3.364,-3.395 -7.188,-5.5 -11.989,-6.598 l -1.937,-0.445 -44.36,-0.035 C 74.875,44.92 54.078,44.979 53.066,45.072 Z m 92.582,4.793 c 5.942,1.719 10.598,5.813 12.872,11.321 0.714,1.738 1.363,4.328 1.191,4.789 -0.074,0.203 -12.594,0.254 -61.676,0.254 -56.078,0 -61.597,-0.032 -61.711,-0.321 -0.066,-0.175 0.063,-1.07 0.289,-1.988 1.785,-7.23 7.43,-12.672 14.77,-14.238 1.629,-0.348 3.933,-0.363 47.183,-0.324 l 45.469,0.043 z m 2.286,20.805 c 3.195,0.402 5.707,1.641 7.992,3.938 2.695,2.711 3.75,5.175 3.89,9.089 0.075,2.02 0.016,2.739 -0.332,4.11 -1.171,4.637 -5.277,8.68 -9.906,9.762 -0.703,0.164 -1.34,0.257 -1.414,0.214 -0.074,-0.046 -0.191,-0.8 -0.258,-1.675 -0.215,-2.801 -1.308,-4.813 -3.519,-6.473 -1.465,-1.102 -2.805,-1.516 -4.887,-1.516 -2.086,0 -3.426,0.414 -4.891,1.516 -2.078,1.562 -3.257,3.602 -3.515,6.078 -0.086,0.836 -0.27,1.379 -0.582,1.742 -0.43,0.5 -0.574,0.535 -2.602,0.602 -2.469,0.078 -2.965,-0.008 -3.527,-0.617 -0.391,-0.414 -0.41,-0.692 -0.41,-5.614 0,-2.847 -0.094,-5.668 -0.203,-6.265 -0.477,-2.52 -2.239,-4.774 -4.625,-5.903 -1.219,-0.578 -1.489,-0.625 -3.446,-0.625 -1.976,0 -2.207,0.043 -3.429,0.645 -2.512,1.234 -4.243,3.605 -4.641,6.348 -0.102,0.703 -0.184,3.464 -0.188,6.14 -0.003,4.488 -0.035,4.906 -0.39,5.344 l -0.383,0.477 h -7.004 c -6.023,0 -7.023,-0.043 -7.152,-0.305 -0.082,-0.164 -0.364,-0.789 -0.621,-1.383 -1.875,-4.297 -8.164,-4.297 -10.039,0 -0.258,0.594 -0.539,1.219 -0.622,1.383 -0.125,0.25 -0.792,0.312 -3.757,0.363 -3.957,0.063 -4.34,0.016 -4.922,-0.57 -0.356,-0.352 -0.399,-0.676 -0.403,-2.867 0,-4.219 -0.453,-5.77 -2.203,-7.551 -1.312,-1.332 -2.75,-1.949 -4.75,-2.039 -2.281,-0.102 -3.621,0.422 -5.261,2.062 -1.797,1.797 -2.11,2.754 -2.25,6.918 -0.098,2.918 -0.153,3.313 -0.508,3.629 -0.356,0.324 -0.852,0.356 -4.86,0.336 -5.093,-0.031 -6.101,-0.199 -8.699,-1.48 -3.101,-1.532 -5.797,-4.633 -6.883,-7.93 -0.472,-1.43 -0.546,-2.004 -0.562,-4.176 -0.012,-2.101 0.066,-2.773 0.457,-4.035 0.652,-2.102 1.664,-3.828 3.184,-5.441 2.261,-2.399 5.105,-3.875 8.128,-4.231 2.11,-0.246 98.028,-0.246 99.993,0.004 z m -30.715,12.871 c 1.027,0.465 2.066,1.641 2.203,2.492 0.058,0.364 0.133,3.157 0.16,6.207 l 0.055,5.543 0.566,1.153 c 0.688,1.402 2.047,2.644 3.375,3.086 0.785,0.261 1.649,0.312 4.27,0.261 3.031,-0.058 3.359,-0.101 4.265,-0.566 1.692,-0.863 3.153,-2.977 3.153,-4.563 0,-0.253 0.097,-0.929 0.222,-1.5 0.254,-1.195 1.297,-2.507 2.34,-2.941 0.777,-0.324 2.434,-0.355 3.219,-0.059 0.621,0.235 1.777,1.262 2.141,1.903 0.125,0.222 0.285,1.719 0.351,3.328 0.191,4.598 -0.062,4.437 6.949,4.437 5.391,0 6.117,0.102 6.426,0.915 0.246,0.64 0.121,1.382 -0.312,1.843 l -0.438,0.469 H 98.145 c -31.915,0 -58.168,-0.059 -58.348,-0.125 -0.484,-0.187 -0.945,-1.207 -0.801,-1.777 0.067,-0.27 0.305,-0.657 0.527,-0.856 0.379,-0.344 1.063,-0.375 9.411,-0.469 8.73,-0.097 9.027,-0.113 9.808,-0.535 1.125,-0.605 2.297,-1.82 2.793,-2.894 0.356,-0.766 0.434,-1.438 0.528,-4.344 0.085,-2.82 0.171,-3.535 0.464,-3.98 1.102,-1.684 3.461,-1.723 4.668,-0.079 0.371,0.5 0.43,0.95 0.532,3.93 0.136,4.008 0.433,4.938 2.031,6.375 1.582,1.422 2.117,1.527 7.859,1.527 3.039,0 5.215,-0.085 5.559,-0.214 1.195,-0.454 2.113,-1.653 2.375,-3.114 0.179,-1.007 0.621,-1.511 1.32,-1.511 0.699,0 1.141,0.504 1.32,1.511 0.079,0.446 0.266,1.043 0.411,1.332 0.398,0.786 1.601,1.758 2.347,1.895 0.364,0.066 4.289,0.094 8.727,0.062 9.179,-0.07 8.844,-0.011 10.558,-1.871 1.508,-1.636 1.516,-1.683 1.637,-8.476 0.086,-5.114 0.156,-6.141 0.438,-6.653 1.007,-1.828 3.093,-2.566 4.91,-1.742 z m 42.562,26.715 c 0.157,0.414 -0.441,3.844 -1.027,5.867 -1.477,5.086 -4.074,9.352 -7.988,13.125 -3.118,3 -6.774,5.227 -10.864,6.61 -4.605,1.558 -0.968,1.425 -41.035,1.5 -32.078,0.058 -36.094,0.031 -37.804,-0.258 -3.422,-0.574 -5.985,-1.43 -9.036,-3.02 -6.414,-3.347 -11.371,-8.867 -13.929,-15.527 -1.153,-2.984 -2.141,-7.715 -1.75,-8.348 0.097,-0.16 17.293,-0.222 61.73,-0.222 51.594,0 61.613,0.046 61.703,0.273 z"
         style="fill:#000000;fill-opacity:1;fill-rule:nonzero;stroke:none"
         id="path42"
         inkscape:connector-curvature="0" /><g
         id="g44"
         transform="matrix(1,0,0,-1,0,595.27557)"><path
           d="m 203.852,430.461 h 134 c 5.711,0 10.308,4.594 10.308,10.305 V 574.77 c 0,5.71 -4.597,10.304 -10.308,10.304 h -134 c -5.711,0 -10.309,-4.594 -10.309,-10.304 V 440.766 c 0,-5.711 4.598,-10.305 10.309,-10.305 z"
           style="fill:#ffd200;fill-opacity:1;fill-rule:nonzero;stroke:#000000;stroke-width:4.12312078;stroke-linecap:round;stroke-linejoin:round;stroke-miterlimit:4;stroke-dasharray:none;stroke-opacity:1"
           id="path46"
           inkscape:connector-curvature="0" /></g><text
         transform="matrix(1,0,0,-1,235.39059,20.938053)"
         style="font-variant:normal;font-weight:normal;font-size:16.29091072px;font-family:Arial;-inkscape-font-specification:Arial;writing-mode:lr-tb;fill:#000000;fill-opacity:1;fill-rule:nonzero;stroke:none"
         id="text50"><tspan
           x="0 10.866037 22.628075 34.406403 47.048149 57.914185"
           y="0"
           sodipodi:role="line"
           id="tspan48">BURGER</tspan></text>
<path
         d="m 225.828,45.072 c -8.715,0.79 -16.285,6.399 -19.555,14.485 -1.046,2.59 -1.687,5.625 -1.687,7.976 0,1.664 0.027,1.778 0.59,2.34 0.578,0.578 0.625,0.59 2.789,0.59 1.207,0 2.254,0.055 2.32,0.121 0.07,0.07 -0.398,0.738 -1.043,1.485 -2.156,2.507 -3.043,4.046 -3.953,6.863 -0.742,2.293 -0.93,6.32 -0.414,8.89 0.656,3.27 2.195,6.207 4.598,8.758 0.859,0.914 1.562,1.715 1.562,1.782 0,0.066 -0.269,0.257 -0.601,0.429 -0.856,0.442 -1.942,1.586 -2.454,2.578 -0.296,0.582 -0.472,1.391 -0.554,2.563 l -0.121,1.711 -0.703,0.117 c -0.907,0.148 -1.551,0.5 -1.813,0.988 -0.301,0.567 -0.25,3.746 0.106,6.11 2.21,14.82 13.726,26.289 28.726,28.617 1.371,0.215 8.84,0.265 37.305,0.265 32.984,0 35.738,-0.023 37.629,-0.351 15.242,-2.637 26.613,-14.707 28.293,-30.035 0.363,-3.309 0.304,-4.086 -0.36,-4.828 -0.422,-0.473 -0.804,-0.672 -1.461,-0.758 l -0.886,-0.121 -0.008,-1.512 c -0.02,-2.371 -0.992,-4.078 -3.121,-5.469 l -0.504,-0.332 1.219,-1.281 c 2.367,-2.5 3.914,-5.211 4.757,-8.344 0.582,-2.156 0.637,-6.605 0.106,-8.566 -0.902,-3.324 -2.629,-6.496 -4.555,-8.36 -1.265,-1.226 -1.164,-1.32 1.418,-1.32 h 2.238 l 0.715,-0.715 0.715,-0.715 -0.117,-1.855 c -0.359,-5.871 -2.672,-11.121 -6.684,-15.164 -3.363,-3.395 -7.187,-5.5 -11.988,-6.598 l -1.937,-0.445 -44.364,-0.035 c -24.398,-0.016 -45.191,0.043 -46.203,0.136 z m 92.582,4.793 c 5.942,1.719 10.598,5.813 12.871,11.321 0.715,1.738 1.364,4.328 1.192,4.789 -0.075,0.203 -12.594,0.254 -61.676,0.254 -56.078,0 -61.598,-0.032 -61.711,-0.321 -0.066,-0.175 0.062,-1.07 0.289,-1.988 1.785,-7.23 7.43,-12.672 14.77,-14.238 1.628,-0.348 3.933,-0.363 47.183,-0.324 l 45.469,0.043 z m 2.285,20.805 c 3.196,0.402 5.707,1.641 7.993,3.938 2.695,2.711 3.746,5.175 3.89,9.089 0.074,2.02 0.016,2.739 -0.332,4.11 -1.172,4.637 -5.277,8.68 -9.906,9.762 -0.703,0.164 -1.34,0.257 -1.414,0.214 -0.074,-0.046 -0.192,-0.8 -0.258,-1.675 -0.215,-2.801 -1.309,-4.813 -3.52,-6.473 -1.464,-1.102 -2.804,-1.516 -4.886,-1.516 -2.086,0 -3.426,0.414 -4.891,1.516 -2.078,1.562 -3.258,3.602 -3.516,6.078 -0.085,0.836 -0.269,1.379 -0.582,1.742 -0.429,0.5 -0.574,0.535 -2.601,0.602 -2.469,0.078 -2.965,-0.008 -3.527,-0.617 -0.391,-0.414 -0.411,-0.692 -0.411,-5.614 0,-2.847 -0.093,-5.668 -0.203,-6.265 -0.476,-2.52 -2.238,-4.774 -4.625,-5.903 -1.218,-0.578 -1.488,-0.625 -3.445,-0.625 -1.977,0 -2.211,0.043 -3.43,0.645 -2.511,1.234 -4.242,3.605 -4.64,6.348 -0.102,0.703 -0.184,3.464 -0.188,6.14 -0.004,4.488 -0.035,4.906 -0.39,5.344 l -0.383,0.477 h -7.004 c -6.024,0 -7.024,-0.043 -7.153,-0.305 -0.082,-0.164 -0.363,-0.789 -0.621,-1.383 -1.875,-4.297 -8.168,-4.297 -10.039,0 -0.258,0.594 -0.539,1.219 -0.621,1.383 -0.125,0.25 -0.793,0.312 -3.758,0.363 -3.957,0.063 -4.339,0.016 -4.921,-0.57 -0.356,-0.352 -0.399,-0.676 -0.403,-2.867 0,-4.219 -0.453,-5.77 -2.203,-7.551 -1.312,-1.332 -2.75,-1.949 -4.75,-2.039 -2.281,-0.102 -3.621,0.422 -5.262,2.062 -1.797,1.797 -2.109,2.754 -2.25,6.918 -0.097,2.918 -0.152,3.313 -0.507,3.629 -0.356,0.324 -0.852,0.356 -4.86,0.336 -5.094,-0.031 -6.101,-0.199 -8.699,-1.48 -3.102,-1.532 -5.797,-4.633 -6.883,-7.93 -0.473,-1.43 -0.551,-2.004 -0.562,-4.176 -0.012,-2.101 0.062,-2.773 0.457,-4.035 0.652,-2.102 1.664,-3.828 3.183,-5.441 2.262,-2.399 5.106,-3.875 8.129,-4.231 2.11,-0.246 98.027,-0.246 99.992,0.004 z M 289.98,83.541 c 1.028,0.465 2.063,1.641 2.204,2.492 0.058,0.364 0.132,3.157 0.16,6.207 l 0.054,5.543 0.567,1.153 c 0.687,1.402 2.047,2.644 3.375,3.086 0.785,0.261 1.648,0.312 4.269,0.261 3.032,-0.058 3.36,-0.101 4.266,-0.566 1.691,-0.863 3.152,-2.977 3.152,-4.563 0,-0.253 0.098,-0.929 0.223,-1.5 0.254,-1.195 1.297,-2.507 2.34,-2.941 0.777,-0.324 2.433,-0.355 3.219,-0.059 0.621,0.235 1.777,1.262 2.14,1.903 0.125,0.222 0.285,1.719 0.352,3.328 0.191,4.598 -0.063,4.437 6.949,4.437 5.391,0 6.117,0.102 6.426,0.915 0.246,0.64 0.121,1.382 -0.313,1.843 l -0.437,0.469 h -58.02 c -31.914,0 -58.168,-0.059 -58.347,-0.125 -0.485,-0.187 -0.946,-1.207 -0.801,-1.777 0.066,-0.27 0.305,-0.657 0.527,-0.856 0.379,-0.344 1.063,-0.375 9.41,-0.469 8.731,-0.097 9.028,-0.113 9.809,-0.535 1.125,-0.605 2.297,-1.82 2.793,-2.894 0.355,-0.766 0.433,-1.438 0.527,-4.344 0.086,-2.82 0.172,-3.535 0.461,-3.98 1.106,-1.684 3.465,-1.723 4.672,-0.079 0.371,0.5 0.43,0.95 0.531,3.93 0.137,4.008 0.43,4.938 2.032,6.375 1.582,1.422 2.117,1.527 7.859,1.527 3.039,0 5.215,-0.085 5.559,-0.214 1.195,-0.454 2.113,-1.653 2.375,-3.114 0.179,-1.007 0.621,-1.511 1.32,-1.511 0.699,0 1.137,0.504 1.32,1.511 0.078,0.446 0.266,1.043 0.41,1.332 0.399,0.786 1.602,1.758 2.348,1.895 0.363,0.066 4.289,0.094 8.727,0.062 9.179,-0.07 8.843,-0.011 10.558,-1.871 1.508,-1.636 1.516,-1.683 1.637,-8.476 0.086,-5.114 0.156,-6.141 0.437,-6.653 1.008,-1.828 3.094,-2.566 4.91,-1.742 z m 42.563,26.715 c 0.156,0.414 -0.441,3.844 -1.031,5.867 -1.473,5.086 -4.071,9.352 -7.985,13.125 -3.117,3 -6.773,5.227 -10.863,6.61 -4.609,1.558 -0.969,1.425 -41.035,1.5 -32.078,0.058 -36.094,0.031 -37.809,-0.258 -3.422,-0.574 -5.98,-1.43 -9.031,-3.02 -6.414,-3.347 -11.371,-8.867 -13.934,-15.527 -1.148,-2.984 -2.136,-7.715 -1.746,-8.348 0.098,-0.16 17.293,-0.222 61.731,-0.222 51.594,0 61.613,0.046 61.703,0.273 z"
         style="fill:#000000;fill-opacity:1;fill-rule:nonzero;stroke:none"
         id="path52"
         inkscape:connector-curvature="0" /><g
         id="g54"
         transform="matrix(1,0,0,-1,0,595.27557)"><path
           d="m 435.656,429.871 h 95.719 c 4.078,0 7.359,3.281 7.359,7.363 v 95.715 c 0,4.078 -3.281,7.364 -7.359,7.364 h -95.719 c -4.078,0 -7.359,-3.286 -7.359,-7.364 v -95.715 c 0,-4.082 3.281,-7.363 7.359,-7.363 z"
           style="fill:#ffd200;fill-opacity:1;fill-rule:nonzero;stroke:#000000;stroke-width:2.94508696;stroke-linecap:round;stroke-linejoin:round;stroke-miterlimit:4;stroke-dasharray:none;stroke-opacity:1"
           id="path56"
           inkscape:connector-curvature="0" /></g><text
         transform="matrix(1,0,0,-1,458.18604,62.635185)"
         style="font-variant:normal;font-weight:normal;font-size:11.63636398px;font-family:Arial;-inkscape-font-specification:Arial;writing-mode:lr-tb;fill:#000000;fill-opacity:1;fill-rule:nonzero;stroke:none"
         id="text60"><tspan
           x="0 7.7614546 16.16291 24.576 33.60582 41.367275"
           y="0"
           sodipodi:role="line"
           id="tspan58">BURGER</tspan></text>
<path
         d="m 451.355,79.873 c -6.226,0.567 -11.632,4.571 -13.968,10.348 -0.746,1.848 -1.203,4.019 -1.203,5.699 0,1.188 0.019,1.27 0.418,1.668 0.414,0.414 0.449,0.422 1.992,0.422 0.867,0 1.613,0.039 1.66,0.09 0.051,0.047 -0.285,0.523 -0.746,1.058 -1.539,1.789 -2.176,2.887 -2.824,4.899 -0.528,1.64 -0.664,4.515 -0.293,6.351 0.464,2.336 1.566,4.434 3.285,6.258 0.613,0.653 1.113,1.223 1.113,1.27 0,0.047 -0.191,0.187 -0.43,0.308 -0.609,0.317 -1.386,1.133 -1.75,1.84 -0.214,0.418 -0.339,0.996 -0.398,1.832 l -0.086,1.223 -0.504,0.082 c -0.644,0.109 -1.105,0.359 -1.293,0.707 -0.215,0.406 -0.18,2.676 0.074,4.363 1.578,10.586 9.805,18.781 20.52,20.442 0.98,0.152 6.312,0.191 26.644,0.191 23.563,0 25.528,-0.02 26.879,-0.254 10.891,-1.883 19.012,-10.504 20.211,-21.453 0.258,-2.359 0.215,-2.918 -0.258,-3.449 -0.3,-0.336 -0.574,-0.477 -1.043,-0.539 l -0.632,-0.086 -0.008,-1.082 c -0.012,-1.692 -0.707,-2.91 -2.227,-3.907 l -0.359,-0.234 0.867,-0.918 c 1.692,-1.785 2.797,-3.719 3.402,-5.957 0.415,-1.543 0.454,-4.719 0.075,-6.121 -0.645,-2.375 -1.879,-4.641 -3.254,-5.973 -0.903,-0.875 -0.832,-0.941 1.011,-0.941 h 1.598 l 0.512,-0.512 0.512,-0.508 -0.082,-1.328 c -0.258,-4.191 -1.911,-7.941 -4.778,-10.832 -2.402,-2.422 -5.133,-3.926 -8.562,-4.711 l -1.383,-0.32 -31.688,-0.023 c -17.425,-0.012 -32.281,0.031 -33.004,0.097 z m 66.129,3.426 c 4.246,1.227 7.571,4.152 9.196,8.086 0.511,1.238 0.972,3.09 0.851,3.418 -0.054,0.144 -8.996,0.184 -44.054,0.184 -40.055,0 -44,-0.024 -44.079,-0.231 -0.05,-0.125 0.043,-0.766 0.207,-1.418 1.274,-5.164 5.305,-9.055 10.547,-10.172 1.164,-0.25 2.813,-0.262 33.703,-0.23 l 32.477,0.031 z m 1.633,14.859 c 2.285,0.286 4.078,1.172 5.711,2.813 1.922,1.933 2.676,3.695 2.777,6.492 0.051,1.441 0.012,1.957 -0.238,2.934 -0.836,3.312 -3.769,6.203 -7.074,6.972 -0.504,0.118 -0.957,0.188 -1.012,0.153 -0.051,-0.032 -0.136,-0.571 -0.183,-1.196 -0.153,-2 -0.934,-3.433 -2.512,-4.621 -1.047,-0.785 -2.004,-1.082 -3.492,-1.082 -1.489,0 -2.446,0.297 -3.492,1.082 -1.485,1.114 -2.329,2.571 -2.512,4.34 -0.063,0.598 -0.192,0.984 -0.414,1.246 -0.309,0.356 -0.414,0.383 -1.86,0.426 -1.765,0.059 -2.117,-0.004 -2.523,-0.438 -0.277,-0.296 -0.289,-0.496 -0.289,-4.011 0,-2.031 -0.066,-4.047 -0.149,-4.473 -0.339,-1.801 -1.597,-3.41 -3.3,-4.215 -0.871,-0.414 -1.063,-0.449 -2.461,-0.449 -1.414,0 -1.578,0.031 -2.449,0.461 -1.797,0.883 -3.032,2.574 -3.317,4.535 -0.07,0.5 -0.133,2.473 -0.133,4.387 -0.004,3.203 -0.023,3.504 -0.277,3.816 l -0.277,0.34 h -5 c -4.305,0 -5.02,-0.031 -5.11,-0.215 -0.058,-0.121 -0.261,-0.566 -0.445,-0.988 -1.336,-3.07 -5.832,-3.07 -7.168,0 -0.188,0.422 -0.387,0.867 -0.445,0.988 -0.09,0.176 -0.567,0.223 -2.684,0.254 -2.828,0.047 -3.098,0.016 -3.516,-0.402 -0.253,-0.254 -0.285,-0.485 -0.285,-2.051 -0.004,-3.012 -0.328,-4.121 -1.578,-5.391 -0.937,-0.953 -1.965,-1.394 -3.39,-1.461 -1.633,-0.07 -2.586,0.305 -3.758,1.477 -1.285,1.281 -1.508,1.965 -1.61,4.941 -0.07,2.082 -0.109,2.364 -0.359,2.59 -0.258,0.231 -0.609,0.254 -3.473,0.239 -3.636,-0.02 -4.359,-0.141 -6.215,-1.055 -2.214,-1.094 -4.14,-3.313 -4.914,-5.664 -0.339,-1.02 -0.394,-1.434 -0.402,-2.985 -0.008,-1.5 0.047,-1.98 0.324,-2.878 0.469,-1.504 1.188,-2.739 2.274,-3.887 1.617,-1.715 3.648,-2.77 5.808,-3.024 1.504,-0.175 70.02,-0.175 71.422,0 z m -21.937,9.196 c 0.734,0.332 1.472,1.172 1.574,1.777 0.039,0.262 0.094,2.254 0.113,4.434 l 0.039,3.961 0.403,0.824 c 0.492,1 1.464,1.887 2.41,2.203 0.562,0.184 1.179,0.223 3.051,0.187 2.168,-0.043 2.398,-0.074 3.046,-0.406 1.211,-0.617 2.25,-2.125 2.25,-3.258 0,-0.183 0.075,-0.664 0.161,-1.074 0.183,-0.851 0.929,-1.789 1.671,-2.098 0.555,-0.234 1.739,-0.253 2.301,-0.042 0.442,0.167 1.27,0.902 1.528,1.359 0.089,0.16 0.203,1.226 0.25,2.375 0.14,3.285 -0.043,3.172 4.964,3.172 3.852,0 4.372,0.07 4.594,0.652 0.176,0.457 0.082,0.988 -0.226,1.317 l -0.313,0.332 h -41.441 c -22.793,0 -41.551,-0.04 -41.676,-0.086 -0.348,-0.133 -0.676,-0.864 -0.574,-1.27 0.047,-0.191 0.218,-0.469 0.379,-0.613 0.269,-0.242 0.757,-0.266 6.718,-0.332 6.239,-0.071 6.45,-0.082 7.008,-0.383 0.801,-0.434 1.641,-1.301 1.996,-2.066 0.25,-0.551 0.309,-1.028 0.375,-3.106 0.063,-2.012 0.121,-2.523 0.332,-2.84 0.789,-1.203 2.473,-1.234 3.336,-0.058 0.262,0.359 0.309,0.679 0.379,2.808 0.094,2.86 0.309,3.524 1.453,4.555 1.129,1.016 1.508,1.09 5.61,1.09 2.172,0 3.726,-0.063 3.972,-0.156 0.852,-0.321 1.508,-1.18 1.696,-2.223 0.129,-0.719 0.441,-1.078 0.941,-1.078 0.5,0 0.816,0.359 0.945,1.078 0.055,0.316 0.188,0.746 0.293,0.953 0.282,0.559 1.145,1.254 1.676,1.352 0.262,0.05 3.066,0.066 6.234,0.043 6.559,-0.047 6.317,-0.004 7.543,-1.336 1.075,-1.168 1.082,-1.2 1.168,-6.051 0.063,-3.656 0.11,-4.391 0.313,-4.754 0.719,-1.305 2.207,-1.832 3.508,-1.242 z m 30.398,19.082 c 0.113,0.293 -0.312,2.742 -0.734,4.191 -1.051,3.629 -2.906,6.676 -5.703,9.371 -2.227,2.145 -4.836,3.735 -7.758,4.723 -3.293,1.113 -0.695,1.019 -29.313,1.07 -22.914,0.043 -25.781,0.024 -27.004,-0.183 -2.445,-0.411 -4.273,-1.02 -6.453,-2.157 -4.582,-2.39 -8.121,-6.336 -9.949,-11.089 -0.824,-2.133 -1.531,-5.512 -1.25,-5.965 0.07,-0.114 12.352,-0.157 44.094,-0.157 36.851,0 44.008,0.032 44.07,0.196 z"
         style="fill:#000000;fill-opacity:1;fill-rule:nonzero;stroke:none"
         id="path62"
         inkscape:connector-curvature="0" /><g
         id="g64"
         transform="matrix(1,0,0,-1,0,595.27557)"><path
           d="m 562.957,429.871 h 95.715 c 4.078,0 7.363,3.281 7.363,7.363 v 95.715 c 0,4.078 -3.285,7.364 -7.363,7.364 h -95.715 c -4.078,0 -7.363,-3.286 -7.363,-7.364 v -95.715 c 0,-4.082 3.285,-7.363 7.363,-7.363 z"
           style="fill:#ffd200;fill-opacity:1;fill-rule:nonzero;stroke:#000000;stroke-width:2.94508696;stroke-linecap:round;stroke-linejoin:round;stroke-miterlimit:4;stroke-dasharray:none;stroke-opacity:1"
           id="path66"
           inkscape:connector-curvature="0" /></g><text
         transform="matrix(1,0,0,-1,585.48406,62.635155)"
         style="font-variant:normal;font-weight:normal;font-size:11.63636398px;font-family:Arial;-inkscape-font-specification:Arial;writing-mode:lr-tb;fill:#000000;fill-opacity:1;fill-rule:nonzero;stroke:none"
         id="text70"><tspan
           x="0 7.7614546 16.16291 24.576 33.60582 41.367275"
           y="0"
           sodipodi:role="line"
           id="tspan68">BURGER</tspan></text>
<path
         d="m 578.652,79.873 c -6.226,0.567 -11.629,4.571 -13.964,10.348 -0.75,1.848 -1.208,4.019 -1.208,5.699 0,1.188 0.02,1.27 0.422,1.668 0.414,0.414 0.446,0.422 1.993,0.422 0.863,0 1.609,0.039 1.66,0.09 0.047,0.047 -0.289,0.523 -0.746,1.058 -1.543,1.789 -2.176,2.887 -2.829,4.899 -0.527,1.64 -0.66,4.515 -0.292,6.351 0.468,2.336 1.57,4.434 3.285,6.258 0.613,0.653 1.117,1.223 1.117,1.27 0,0.047 -0.195,0.187 -0.43,0.308 -0.613,0.317 -1.39,1.133 -1.754,1.84 -0.215,0.418 -0.34,0.996 -0.398,1.832 l -0.082,1.223 -0.504,0.082 c -0.649,0.109 -1.109,0.359 -1.293,0.707 -0.219,0.406 -0.18,2.676 0.07,4.363 1.578,10.586 9.805,18.781 20.52,20.442 0.98,0.152 6.312,0.191 26.644,0.191 23.563,0 25.532,-0.02 26.879,-0.254 10.891,-1.883 19.012,-10.504 20.211,-21.453 0.258,-2.359 0.219,-2.918 -0.254,-3.449 -0.304,-0.336 -0.578,-0.477 -1.043,-0.539 l -0.636,-0.086 -0.008,-1.082 c -0.012,-1.692 -0.703,-2.91 -2.227,-3.907 l -0.359,-0.234 0.867,-0.918 c 1.691,-1.785 2.797,-3.719 3.402,-5.957 0.414,-1.543 0.453,-4.719 0.075,-6.121 -0.645,-2.375 -1.879,-4.641 -3.254,-5.973 -0.903,-0.875 -0.832,-0.941 1.011,-0.941 h 1.602 l 0.508,-0.512 0.511,-0.508 -0.082,-1.328 c -0.257,-4.191 -1.91,-7.941 -4.777,-10.832 -2.402,-2.422 -5.133,-3.926 -8.562,-4.711 l -1.383,-0.32 -31.688,-0.023 c -17.426,-0.012 -32.277,0.031 -33.004,0.097 z m 66.133,3.426 c 4.242,1.227 7.57,4.152 9.192,8.086 0.511,1.238 0.972,3.09 0.851,3.418 -0.051,0.144 -8.996,0.184 -44.055,0.184 -40.054,0 -43.996,-0.024 -44.078,-0.231 -0.047,-0.125 0.043,-0.766 0.207,-1.418 1.274,-5.164 5.305,-9.055 10.547,-10.172 1.164,-0.25 2.813,-0.262 33.703,-0.23 l 32.481,0.031 z m 1.633,14.859 c 2.281,0.286 4.074,1.172 5.707,2.813 1.922,1.933 2.676,3.695 2.777,6.492 0.055,1.441 0.012,1.957 -0.234,2.934 -0.84,3.312 -3.773,6.203 -7.078,6.972 -0.5,0.118 -0.957,0.188 -1.008,0.153 -0.055,-0.032 -0.137,-0.571 -0.187,-1.196 -0.153,-2 -0.934,-3.433 -2.512,-4.621 -1.047,-0.785 -2.004,-1.082 -3.492,-1.082 -1.489,0 -2.446,0.297 -3.493,1.082 -1.484,1.114 -2.324,2.571 -2.511,4.34 -0.063,0.598 -0.192,0.984 -0.414,1.246 -0.309,0.356 -0.41,0.383 -1.86,0.426 -1.761,0.059 -2.117,-0.004 -2.519,-0.438 -0.278,-0.296 -0.293,-0.496 -0.293,-4.011 0,-2.031 -0.067,-4.047 -0.145,-4.473 -0.34,-1.801 -1.597,-3.41 -3.304,-4.215 -0.872,-0.414 -1.063,-0.449 -2.461,-0.449 -1.414,0 -1.578,0.031 -2.45,0.461 -1.793,0.883 -3.031,2.574 -3.312,4.535 -0.074,0.5 -0.133,2.473 -0.137,4.387 0,3.203 -0.023,3.504 -0.277,3.816 l -0.274,0.34 h -5.003 c -4.301,0 -5.016,-0.031 -5.11,-0.215 -0.058,-0.121 -0.258,-0.566 -0.445,-0.988 -1.336,-3.07 -5.832,-3.07 -7.168,0 -0.184,0.422 -0.387,0.867 -0.445,0.988 -0.086,0.176 -0.567,0.223 -2.684,0.254 -2.824,0.047 -3.098,0.016 -3.516,-0.402 -0.254,-0.254 -0.285,-0.485 -0.285,-2.051 -0.004,-3.012 -0.324,-4.121 -1.574,-5.391 -0.938,-0.953 -1.965,-1.394 -3.395,-1.461 -1.628,-0.07 -2.586,0.305 -3.757,1.477 -1.286,1.281 -1.504,1.965 -1.606,4.941 -0.07,2.082 -0.109,2.364 -0.363,2.59 -0.254,0.231 -0.61,0.254 -3.473,0.239 -3.637,-0.02 -4.359,-0.141 -6.211,-1.055 -2.218,-1.094 -4.14,-3.313 -4.918,-5.664 -0.336,-1.02 -0.39,-1.434 -0.402,-2.985 -0.008,-1.5 0.047,-1.98 0.328,-2.878 0.465,-1.504 1.188,-2.739 2.274,-3.887 1.613,-1.715 3.644,-2.77 5.804,-3.024 1.508,-0.175 70.02,-0.175 71.426,0 z m -21.941,9.196 c 0.734,0.332 1.476,1.172 1.574,1.777 0.043,0.262 0.094,2.254 0.113,4.434 l 0.039,3.961 0.406,0.824 c 0.493,1 1.461,1.887 2.411,2.203 0.558,0.184 1.175,0.223 3.046,0.187 2.168,-0.043 2.403,-0.074 3.051,-0.406 1.207,-0.617 2.25,-2.125 2.25,-3.258 0,-0.183 0.071,-0.664 0.16,-1.074 0.18,-0.851 0.926,-1.789 1.672,-2.098 0.555,-0.234 1.735,-0.253 2.297,-0.042 0.445,0.167 1.27,0.902 1.531,1.359 0.09,0.16 0.203,1.226 0.25,2.375 0.137,3.285 -0.043,3.172 4.965,3.172 3.848,0 4.367,0.07 4.59,0.652 0.176,0.457 0.086,0.988 -0.223,1.317 l -0.312,0.332 h -41.445 c -22.793,0 -41.547,-0.04 -41.676,-0.086 -0.344,-0.133 -0.676,-0.864 -0.574,-1.27 0.05,-0.191 0.218,-0.469 0.378,-0.613 0.27,-0.242 0.758,-0.266 6.719,-0.332 6.239,-0.071 6.449,-0.082 7.008,-0.383 0.805,-0.434 1.641,-1.301 1.996,-2.066 0.254,-0.551 0.313,-1.028 0.375,-3.106 0.063,-2.012 0.125,-2.523 0.332,-2.84 0.789,-1.203 2.473,-1.234 3.336,-0.058 0.266,0.359 0.309,0.679 0.379,2.808 0.098,2.86 0.309,3.524 1.453,4.555 1.129,1.016 1.508,1.09 5.613,1.09 2.168,0 3.723,-0.063 3.969,-0.156 0.856,-0.321 1.508,-1.18 1.695,-2.223 0.129,-0.719 0.446,-1.078 0.946,-1.078 0.5,0 0.812,0.359 0.941,1.078 0.059,0.316 0.188,0.746 0.293,0.953 0.285,0.559 1.145,1.254 1.68,1.352 0.258,0.05 3.062,0.066 6.23,0.043 6.559,-0.047 6.317,-0.004 7.543,-1.336 1.078,-1.168 1.082,-1.2 1.168,-6.051 0.063,-3.656 0.114,-4.391 0.313,-4.754 0.719,-1.305 2.211,-1.832 3.508,-1.242 z m 30.402,19.082 c 0.113,0.293 -0.316,2.742 -0.734,4.191 -1.055,3.629 -2.911,6.676 -5.707,9.371 -2.223,2.145 -4.836,3.735 -7.758,4.723 -3.293,1.113 -0.692,1.019 -29.313,1.07 -22.914,0.043 -25.781,0.024 -27.004,-0.183 -2.445,-0.411 -4.273,-1.02 -6.453,-2.157 -4.582,-2.39 -8.121,-6.336 -9.949,-11.089 -0.82,-2.133 -1.527,-5.512 -1.25,-5.965 0.07,-0.114 12.352,-0.157 44.094,-0.157 36.851,0 44.011,0.032 44.074,0.196 z"
         style="fill:#000000;fill-opacity:1;fill-rule:nonzero;stroke:none"
         id="path72"
         inkscape:connector-curvature="0" /><g
         id="g74"
         transform="matrix(1,0,0,-1,0,595.27557)"><path
           d="m 690.789,429.871 h 95.715 c 4.078,0 7.363,3.281 7.363,7.363 v 95.715 c 0,4.078 -3.285,7.364 -7.363,7.364 h -95.715 c -4.078,0 -7.363,-3.286 -7.363,-7.364 v -95.715 c 0,-4.082 3.285,-7.363 7.363,-7.363 z"
           style="fill:#ffd200;fill-opacity:1;fill-rule:nonzero;stroke:#000000;stroke-width:2.94508696;stroke-linecap:round;stroke-linejoin:round;stroke-miterlimit:4;stroke-dasharray:none;stroke-opacity:1"
           id="path76"
           inkscape:connector-curvature="0" /></g><text
         transform="matrix(1,0,0,-1,713.31687,62.635155)"
         style="font-variant:normal;font-weight:normal;font-size:11.63636398px;font-family:Arial;-inkscape-font-specification:Arial;writing-mode:lr-tb;fill:#000000;fill-opacity:1;fill-rule:nonzero;stroke:none"
         id="text80"><tspan
           x="0 7.7614546 16.16291 24.576 33.60582 41.367275"
           y="0"
           sodipodi:role="line"
           id="tspan78">BURGER</tspan></text>
<path
         d="m 706.484,79.873 c -6.222,0.567 -11.629,4.571 -13.964,10.348 -0.747,1.848 -1.207,4.019 -1.207,5.699 0,1.188 0.019,1.27 0.421,1.668 0.414,0.414 0.446,0.422 1.993,0.422 0.863,0 1.609,0.039 1.66,0.09 0.047,0.047 -0.289,0.523 -0.746,1.058 -1.543,1.789 -2.176,2.887 -2.825,4.899 -0.531,1.64 -0.664,4.515 -0.296,6.351 0.468,2.336 1.57,4.434 3.285,6.258 0.613,0.653 1.117,1.223 1.117,1.27 0,0.047 -0.195,0.187 -0.43,0.308 -0.613,0.317 -1.39,1.133 -1.754,1.84 -0.211,0.418 -0.34,0.996 -0.394,1.832 l -0.086,1.223 -0.504,0.082 c -0.649,0.109 -1.109,0.359 -1.293,0.707 -0.219,0.406 -0.18,2.676 0.07,4.363 1.582,10.586 9.805,18.781 20.52,20.442 0.98,0.152 6.316,0.191 26.648,0.191 23.559,0 25.528,-0.02 26.879,-0.254 10.887,-1.883 19.008,-10.504 20.207,-21.453 0.258,-2.359 0.219,-2.918 -0.254,-3.449 -0.301,-0.336 -0.578,-0.477 -1.043,-0.539 l -0.636,-0.086 -0.004,-1.082 c -0.016,-1.692 -0.707,-2.91 -2.231,-3.907 l -0.359,-0.234 0.867,-0.918 c 1.695,-1.785 2.797,-3.719 3.402,-5.957 0.418,-1.543 0.457,-4.719 0.075,-6.121 -0.645,-2.375 -1.879,-4.641 -3.25,-5.973 -0.907,-0.875 -0.836,-0.941 1.007,-0.941 h 1.602 l 0.508,-0.512 0.511,-0.508 -0.082,-1.328 c -0.257,-4.191 -1.91,-7.941 -4.773,-10.832 -2.402,-2.422 -5.137,-3.926 -8.566,-4.711 l -1.383,-0.32 -31.688,-0.023 c -17.425,-0.012 -32.277,0.031 -33.004,0.097 z m 66.133,3.426 c 4.242,1.227 7.571,4.152 9.192,8.086 0.511,1.238 0.972,3.09 0.851,3.418 -0.051,0.144 -8.992,0.184 -44.055,0.184 -40.054,0 -43.996,-0.024 -44.078,-0.231 -0.047,-0.125 0.047,-0.766 0.207,-1.418 1.274,-5.164 5.309,-9.055 10.551,-10.172 1.164,-0.25 2.809,-0.262 33.699,-0.23 l 32.481,0.031 z m 1.633,14.859 c 2.281,0.286 4.074,1.172 5.707,2.813 1.926,1.933 2.676,3.695 2.777,6.492 0.055,1.441 0.012,1.957 -0.234,2.934 -0.84,3.312 -3.77,6.203 -7.078,6.972 -0.5,0.118 -0.953,0.188 -1.008,0.153 -0.055,-0.032 -0.137,-0.571 -0.184,-1.196 -0.156,-2 -0.937,-3.433 -2.515,-4.621 -1.047,-0.785 -2.004,-1.082 -3.492,-1.082 -1.489,0 -2.446,0.297 -3.489,1.082 -1.484,1.114 -2.328,2.571 -2.515,4.34 -0.063,0.598 -0.192,0.984 -0.414,1.246 -0.309,0.356 -0.41,0.383 -1.86,0.426 -1.761,0.059 -2.117,-0.004 -2.519,-0.438 -0.278,-0.296 -0.293,-0.496 -0.293,-4.011 0,-2.031 -0.067,-4.047 -0.145,-4.473 -0.34,-1.801 -1.597,-3.41 -3.3,-4.215 -0.875,-0.414 -1.067,-0.449 -2.461,-0.449 -1.414,0 -1.582,0.031 -2.454,0.461 -1.793,0.883 -3.031,2.574 -3.312,4.535 -0.074,0.5 -0.133,2.473 -0.137,4.387 0,3.203 -0.023,3.504 -0.277,3.816 l -0.274,0.34 h -5.003 c -4.301,0 -5.016,-0.031 -5.11,-0.215 -0.058,-0.121 -0.258,-0.566 -0.441,-0.988 -1.34,-3.07 -5.832,-3.07 -7.172,0 -0.184,0.422 -0.383,0.867 -0.442,0.988 -0.089,0.176 -0.566,0.223 -2.687,0.254 -2.824,0.047 -3.098,0.016 -3.516,-0.402 -0.25,-0.254 -0.285,-0.485 -0.285,-2.051 0,-3.012 -0.324,-4.121 -1.574,-5.391 -0.938,-0.953 -1.965,-1.394 -3.395,-1.461 -1.628,-0.07 -2.585,0.305 -3.757,1.477 -1.282,1.281 -1.504,1.965 -1.606,4.941 -0.07,2.082 -0.109,2.364 -0.363,2.59 -0.254,0.231 -0.609,0.254 -3.473,0.239 -3.636,-0.02 -4.359,-0.141 -6.211,-1.055 -2.215,-1.094 -4.14,-3.313 -4.918,-5.664 -0.336,-1.02 -0.39,-1.434 -0.402,-2.985 -0.008,-1.5 0.047,-1.98 0.328,-2.878 0.465,-1.504 1.188,-2.739 2.274,-3.887 1.617,-1.715 3.644,-2.77 5.808,-3.024 1.504,-0.175 70.016,-0.175 71.422,0 z m -21.941,9.196 c 0.734,0.332 1.476,1.172 1.574,1.777 0.043,0.262 0.094,2.254 0.117,4.434 l 0.035,3.961 0.406,0.824 c 0.493,1 1.461,1.887 2.411,2.203 0.562,0.184 1.179,0.223 3.05,0.187 2.164,-0.043 2.399,-0.074 3.047,-0.406 1.207,-0.617 2.25,-2.125 2.25,-3.258 0,-0.183 0.071,-0.664 0.16,-1.074 0.184,-0.851 0.926,-1.789 1.672,-2.098 0.555,-0.234 1.739,-0.253 2.301,-0.042 0.441,0.167 1.27,0.902 1.527,1.359 0.09,0.16 0.204,1.226 0.25,2.375 0.137,3.285 -0.043,3.172 4.965,3.172 3.848,0 4.367,0.07 4.59,0.652 0.176,0.457 0.086,0.988 -0.223,1.317 l -0.312,0.332 h -41.445 c -22.793,0 -41.547,-0.04 -41.676,-0.086 -0.344,-0.133 -0.676,-0.864 -0.574,-1.27 0.05,-0.191 0.218,-0.469 0.379,-0.613 0.269,-0.242 0.757,-0.266 6.722,-0.332 6.235,-0.071 6.445,-0.082 7.004,-0.383 0.805,-0.434 1.641,-1.301 1.996,-2.066 0.254,-0.551 0.313,-1.028 0.375,-3.106 0.067,-2.012 0.125,-2.523 0.332,-2.84 0.789,-1.203 2.473,-1.234 3.336,-0.058 0.266,0.359 0.309,0.679 0.379,2.808 0.098,2.86 0.309,3.524 1.453,4.555 1.129,1.016 1.512,1.09 5.613,1.09 2.168,0 3.723,-0.063 3.973,-0.156 0.852,-0.321 1.504,-1.18 1.692,-2.223 0.132,-0.719 0.445,-1.078 0.945,-1.078 0.5,0 0.812,0.359 0.941,1.078 0.059,0.316 0.192,0.746 0.293,0.953 0.285,0.559 1.145,1.254 1.68,1.352 0.258,0.05 3.062,0.066 6.23,0.043 6.559,-0.047 6.317,-0.004 7.543,-1.336 1.078,-1.168 1.082,-1.2 1.168,-6.051 0.063,-3.656 0.114,-4.391 0.313,-4.754 0.722,-1.305 2.211,-1.832 3.508,-1.242 z m 30.402,19.082 c 0.113,0.293 -0.316,2.742 -0.734,4.191 -1.051,3.629 -2.907,6.676 -5.704,9.371 -2.226,2.145 -4.839,3.735 -7.761,4.723 -3.289,1.113 -0.692,1.019 -29.309,1.07 -22.914,0.043 -25.785,0.024 -27.008,-0.183 -2.441,-0.411 -4.273,-1.02 -6.453,-2.157 -4.582,-2.39 -8.117,-6.336 -9.949,-11.089 -0.82,-2.133 -1.527,-5.512 -1.25,-5.965 0.07,-0.114 12.352,-0.157 44.098,-0.157 36.851,0 44.007,0.032 44.07,0.196 z"
         style="fill:#000000;fill-opacity:1;fill-rule:nonzero;stroke:none"
         id="path82"
         inkscape:connector-curvature="0" /></g></g></svg>