<?xml version="1.0" encoding="UTF-8" standalone="no"?>
<!-- Created with Inkscape (http://www.inkscape.org/) -->

<svg
   xmlns:dc="http://purl.org/dc/elements/1.1/"
   xmlns:cc="http://creativecommons.org/ns#"
   xmlns:rdf="http://www.w3.org/1999/02/22-rdf-syntax-ns#"
   xmlns:svg="http://www.w3.org/2000/svg"
   xmlns="http://www.w3.org/2000/svg"
   xmlns:sodipodi="http://sodipodi.sourceforge.net/DTD/sodipodi-0.dtd"
   xmlns:inkscape="http://www.inkscape.org/namespaces/inkscape"
   version="1.1"
   id="svg2"
   xml:space="preserve"
   width="1122.5197"
   height="793.70074"
   viewBox="0 0 1122.5197 793.70074"
   sodipodi:docname="Cactus.svg"
   inkscape:version="0.92.2 5c3e80d, 2017-08-06"><metadata
     id="metadata8"><rdf:RDF><cc:Work
         rdf:about=""><dc:format>image/svg+xml</dc:format><dc:type
           rdf:resource="http://purl.org/dc/dcmitype/StillImage" /><dc:title></dc:title></cc:Work></rdf:RDF></metadata><defs
     id="defs6" /><sodipodi:namedview
     pagecolor="#ffffff"
     bordercolor="#666666"
     borderopacity="1"
     objecttolerance="10"
     gridtolerance="10"
     guidetolerance="10"
     inkscape:pageopacity="0"
     inkscape:pageshadow="2"
     inkscape:window-width="640"
     inkscape:window-height="480"
     id="namedview4"
     showgrid="false"
     inkscape:zoom="0.29734129"
     inkscape:cx="561.25983"
     inkscape:cy="396.85037"
     inkscape:window-x="49"
     inkscape:window-y="0"
     inkscape:window-maximized="0"
     inkscape:current-layer="g10" /><g
     id="g10"
     inkscape:groupmode="layer"
     inkscape:label="Cactus"
     transform="matrix(1.3333333,0,0,-1.3333333,0,793.70077)"><g
       id="g12"><g
         id="g14"
         transform="matrix(1,0,0,-1,0,595.27557)"><path
           d="m 49.645,24.934 h 335.003 c 14.274,0 25.77,11.492 25.77,25.769 v 335.004 c 0,14.277 -11.496,25.77 -25.77,25.77 H 49.645 c -14.278,0 -25.77,-11.493 -25.77,-25.77 V 50.703 c 0,-14.277 11.492,-25.769 25.77,-25.769 z"
           style="fill:#50be87;fill-opacity:1;fill-rule:nonzero;stroke:#000000;stroke-width:10.30780315;stroke-linecap:round;stroke-linejoin:round;stroke-miterlimit:4;stroke-dasharray:none;stroke-opacity:1"
           id="path16"
           inkscape:connector-curvature="0" /></g><text
         transform="matrix(1,0,0,-1,132.41093,210.64557)"
         style="font-variant:normal;font-weight:normal;font-size:40.72727585px;font-family:Arial;-inkscape-font-specification:Arial;writing-mode:lr-tb;fill:#000000;fill-opacity:1;fill-rule:nonzero;stroke:none"
         id="text20"><tspan
           x="0 29.405092 56.570187 86.016006 110.85964 140.30547"
           y="0"
           sodipodi:role="line"
           id="tspan18">CACTUS</tspan></text>
<path
         d="m 195.012,259.803 c -4.051,0.828 -7.582,3.695 -9.383,7.613 -0.957,2.082 -1.008,2.735 -1.145,14.481 -0.082,6.769 -0.277,12.304 -0.437,12.304 -0.16,0 -1.324,-0.39 -2.582,-0.871 -3.313,-1.258 -5.121,-1.148 -6.672,0.403 -1.004,1.004 -1.273,1.66 -1.273,3.097 0,2.473 1.308,3.598 6.531,5.606 l 4.14,1.59 v 17.41 17.406 l -3.921,0.234 c -4.149,0.25 -5.508,0.786 -6.282,2.485 -0.82,1.801 -0.547,3.492 0.801,5.008 1.246,1.39 1.359,1.425 5.453,1.57 l 4.184,0.152 -0.117,9.867 -0.118,9.864 -9.363,0.246 c -10.617,0.277 -13.324,0.773 -18.945,3.469 -1.918,0.917 -4.711,2.664 -6.211,3.878 -1.496,1.215 -2.996,2.207 -3.332,2.207 -0.332,0 -1.656,-0.488 -2.938,-1.085 -2.738,-1.274 -3.929,-1.352 -5.601,-0.368 -2.606,1.543 -2.922,4.707 -0.692,6.942 0.817,0.812 1.77,1.48 2.125,1.48 0.356,0 0.883,0.289 1.176,0.641 0.426,0.515 0.36,0.922 -0.332,2.07 -0.476,0.785 -1.558,3.192 -2.41,5.348 -3.078,7.808 -4.605,16.023 -5.023,27 l -0.282,7.406 -3.785,0.227 c -3.195,0.191 -3.957,0.386 -4.879,1.25 -1.433,1.351 -1.773,3.07 -0.98,4.976 0.859,2.055 2.031,2.606 6.16,2.887 l 3.484,0.242 0.219,16.332 0.215,16.332 1.254,2.707 c 1.535,3.328 4.937,6.676 8.437,8.305 2.129,0.992 3.094,1.168 6.426,1.172 3.504,0.008 4.219,-0.141 6.75,-1.36 4.059,-1.953 7.496,-5.636 8.852,-9.484 0.304,-0.867 0.57,-10.254 0.75,-26.602 0.297,-26.859 0.437,-28.656 2.547,-32.796 1.73,-3.391 2.347,-3.61 9.808,-3.473 l 6.57,0.121 0.118,7.078 c 0.066,3.891 -0.051,7.074 -0.258,7.074 -0.207,0 -0.75,-0.41 -1.207,-0.914 -2.293,-2.535 -4.871,-2.754 -7.028,-0.597 -1.39,1.39 -1.515,1.711 -1.296,3.336 0.214,1.585 0.816,2.375 5.07,6.644 l 4.828,4.84 -0.113,18.281 -0.114,18.281 -3.011,0.258 c -2.676,0.231 -3.153,0.41 -4.246,1.641 -3.028,3.383 -0.219,7.461 5.136,7.465 h 2.239 l 0.207,13.172 c 0.199,12.738 0.246,13.304 1.379,17.093 2.683,8.985 9.085,16.61 17.457,20.805 8.214,4.117 19.05,4.418 27.753,0.77 7.352,-3.079 14.946,-10.743 17.926,-18.09 2.082,-5.133 2.449,-8.34 2.449,-21.492 0,-13.102 -0.074,-12.696 2.247,-12.696 1.429,0 3.414,-2.328 3.414,-4.008 0,-1.718 -0.684,-2.836 -3.555,-5.808 l -2.117,-2.199 0.113,-16.965 0.113,-16.969 6.27,-0.121 c 7.746,-0.149 7.89,-0.067 9.492,5.422 0.637,2.191 0.773,5.625 0.981,24.969 l 0.246,22.429 1.214,2.481 c 3.106,6.32 10.188,9.715 16.762,8.031 4.567,-1.168 8.317,-4.274 10.27,-8.496 0.867,-1.875 0.949,-2.918 1.148,-14.863 l 0.219,-12.848 5.226,-0.223 c 5.391,-0.23 6.641,-0.594 7.817,-2.273 1.316,-1.879 0.531,-5.348 -1.418,-6.274 -0.406,-0.191 -3.188,-0.453 -6.18,-0.582 l -5.445,-0.23 -0.274,-7.188 c -0.464,-12.089 -2.187,-19.828 -6.253,-28.089 -2.504,-5.083 -5.582,-9.094 -9.071,-11.809 -1.121,-0.875 -2.039,-1.719 -2.039,-1.871 0,-0.153 1.469,-1.738 3.262,-3.52 3.789,-3.765 4.496,-5.281 3.531,-7.582 -0.793,-1.906 -3.051,-3.144 -4.887,-2.683 -0.73,0.183 -3.156,2.207 -5.953,4.961 l -4.715,4.648 -9.882,-0.148 c -5.438,-0.079 -10.036,-0.289 -10.219,-0.465 -0.184,-0.172 -0.281,-5.789 -0.215,-12.481 l 0.113,-12.168 5.375,-0.218 c 5.231,-0.211 5.403,-0.25 6.426,-1.438 1.832,-2.137 1.207,-5.586 -1.258,-6.902 -0.523,-0.282 -3.109,-0.625 -5.746,-0.766 l -4.797,-0.258 -0.113,-16.601 c -0.09,-12.949 0.008,-16.699 0.438,-17.043 0.3,-0.246 2.085,-1.082 3.964,-1.86 2.524,-1.043 3.641,-1.769 4.266,-2.769 1.113,-1.774 0.805,-4.059 -0.719,-5.383 -1.644,-1.426 -3.023,-1.629 -5.277,-0.769 -1.137,0.437 -2.141,0.593 -2.359,0.375 -0.594,-0.594 -0.586,-52.356 0.007,-53.907 0.68,-1.793 0.176,-3.519 -1.418,-4.863 -1.191,-1 -1.636,-1.117 -3.449,-0.902 -1.469,0.172 -2.566,0.027 -3.719,-0.496 -1.464,-0.665 -3.976,-0.75 -24.066,-0.817 -12.336,-0.039 -23.246,0.094 -24.238,0.297 z m 42.093,9.223 c 0,0.289 -2.058,2.609 -4.57,5.164 -4.344,4.406 -4.574,4.73 -4.574,6.464 0,2.899 2.633,4.93 5.469,4.215 0.613,-0.152 2.742,-1.84 4.73,-3.746 1.985,-1.91 3.738,-3.472 3.895,-3.472 0.156,0 0.234,10.601 0.172,23.562 l -0.114,23.559 -3.636,1.468 c -4.243,1.707 -4.786,2.102 -5.582,4 -0.5,1.2 -0.497,1.641 0.023,2.883 1.152,2.766 3.715,3.59 6.953,2.235 0.859,-0.36 1.766,-0.653 2.012,-0.653 0.305,0 0.449,10.946 0.453,34.082 0,22.012 0.16,34.649 0.449,35.692 0.887,3.191 1.192,3.265 13.805,3.492 10.183,0.18 11.48,0.285 14.051,1.172 8.746,3.015 14.109,10.402 17.066,23.508 0.895,3.961 0.953,5.48 1.113,28.437 0.149,21.649 0.09,24.395 -0.535,25.606 -1.465,2.835 -5.199,3.871 -7.933,2.207 -2.688,-1.641 -2.637,-1.227 -2.868,-24.852 -0.23,-23.504 -0.363,-24.914 -2.867,-30.262 -1.558,-3.328 -3.113,-5.156 -5.656,-6.648 l -2.02,-1.192 h -10.953 c -12.281,0 -12.324,0.012 -13.215,3.223 -0.25,0.902 -0.437,7.75 -0.437,16.078 l -0.008,14.512 -0.98,-0.348 c -0.539,-0.191 -1.649,-0.336 -2.465,-0.32 -2.016,0.035 -3.961,2.172 -3.961,4.355 0,1.356 0.469,2.04 3.703,5.399 l 3.703,3.848 v 16.714 c 0,18.43 -0.121,19.52 -2.723,24.481 -0.789,1.504 -2.71,3.969 -4.449,5.711 -5.008,5.008 -10.215,7.176 -17.199,7.168 -5.469,-0.008 -10.695,-1.68 -14.172,-4.531 l -1.308,-1.071 3.57,-3.621 c 3.781,-3.836 4.691,-5.41 4.254,-7.387 -0.383,-1.742 -2.543,-3.421 -4.406,-3.421 -1.309,0 -2.032,0.488 -5.161,3.484 -2,1.918 -3.824,3.484 -4.05,3.484 -0.661,0 -2.161,-3.902 -2.688,-6.98 -0.289,-1.707 -0.43,-7.184 -0.355,-13.903 l 0.125,-11.085 1.824,-0.458 c 2.625,-0.656 4.055,-2.16 4.055,-4.261 0,-2.875 -1.176,-4.137 -4.356,-4.664 l -1.523,-0.254 -0.219,-35.074 c -0.199,-32.547 -0.27,-35.157 -0.984,-36.243 -0.422,-0.644 -1.305,-1.32 -1.961,-1.504 -0.653,-0.183 -5.797,-0.328 -11.426,-0.324 -9.531,0.012 -10.375,0.074 -12.281,0.946 -4.645,2.125 -7.77,6.953 -9.532,14.722 -0.945,4.184 -0.992,5.336 -1.168,28.852 -0.183,24.289 -0.195,24.508 -1.132,25.906 -0.524,0.773 -1.629,1.867 -2.465,2.434 -1.266,0.859 -1.922,1 -4.024,0.855 -2.672,-0.187 -4.148,-0.992 -5.738,-3.121 -0.883,-1.184 -0.898,-1.602 -0.898,-29.371 0,-27.441 0.027,-28.289 0.976,-32.969 1.527,-7.535 5.348,-17.629 6.668,-17.629 0.242,0 1.145,0.297 2.004,0.657 2.527,1.054 3.969,0.839 5.641,-0.829 1.812,-1.812 1.921,-3.41 0.39,-5.664 -0.597,-0.882 -1.09,-1.691 -1.09,-1.797 0,-0.496 3.555,-2.421 6.098,-3.308 2.605,-0.91 3.836,-1.008 15.246,-1.235 8.777,-0.175 12.695,-0.406 13.383,-0.796 1.957,-1.11 2.066,-1.825 2.293,-15.336 l 0.219,-12.848 2.832,-0.309 c 2.406,-0.261 3.011,-0.507 4.027,-1.64 1.625,-1.805 1.617,-3.883 -0.027,-5.723 -1.063,-1.187 -1.602,-1.41 -4.028,-1.64 l -2.804,-0.27 V 323.381 307.92 l 1.922,-0.254 c 2.46,-0.332 3.957,-1.933 3.957,-4.246 0,-2.215 -0.965,-3.418 -3.743,-4.644 l -2.351,-1.043 0.004,-12.981 c 0.008,-13.879 0.113,-14.64 2.179,-15.687 1.528,-0.774 41.368,-0.809 41.368,-0.039 z m -24.859,20.789 c -0.965,0.964 -1.269,1.675 -1.266,2.937 0.004,2.504 2.547,17.973 3.161,19.242 0.773,1.602 3.054,2.817 4.636,2.469 2.176,-0.48 3.524,-2.215 3.516,-4.531 -0.004,-2.574 -2.477,-18.156 -3.051,-19.227 -1.324,-2.476 -4.949,-2.937 -6.996,-0.89 z m 3.41,57.554 c -1.804,1.051 -2.066,2.555 -2.066,11.746 v 8.778 l 1.48,1.48 c 2.59,2.59 6.227,1.625 7.211,-1.914 0.246,-0.887 0.449,-4.75 0.449,-8.582 0,-7.762 -0.371,-9.781 -2.031,-11.086 -1.219,-0.961 -3.754,-1.172 -5.043,-0.422 z m 1.782,50.789 c -4.075,4.039 -6.622,6.918 -6.915,7.801 -0.996,3.028 2.04,6.395 5.086,5.649 0.801,-0.2 3.629,-2.684 7.887,-6.934 6.504,-6.492 6.641,-6.668 6.641,-8.5 0,-2.629 -1.778,-4.414 -4.399,-4.414 -1.8,0 -2.023,0.172 -8.3,6.398 z m -5.829,32.817 c -0.964,1.008 -1.269,1.738 -1.269,3.054 0,1.629 0.301,2.036 5.058,6.79 4.79,4.793 5.149,5.058 6.891,5.101 1.551,0.043 2.031,-0.168 3.098,-1.367 1.414,-1.578 1.636,-3.348 0.66,-5.234 -0.336,-0.649 -2.578,-3.086 -4.988,-5.422 -4.176,-4.055 -4.461,-4.246 -6.278,-4.246 -1.551,0 -2.136,0.246 -3.172,1.324 z m 0.637,49.164 c -1.004,1.008 -1.269,1.656 -1.269,3.121 0,1.789 0.179,2.031 5.586,7.437 5.406,5.407 5.648,5.586 7.437,5.586 2.617,0 4.395,-1.785 4.395,-4.41 0,-1.808 -0.165,-2.031 -5.571,-7.437 -5.402,-5.407 -5.629,-5.571 -7.437,-5.571 -1.481,0 -2.129,0.262 -3.141,1.274 z"
         style="fill:#000000;fill-opacity:1;fill-rule:nonzero;stroke:none"
         id="path22"
         inkscape:connector-curvature="0" /><g
         id="g24"
         transform="matrix(1,0,0,-1,0,595.27557)"><path
           d="M 457.746,24.934 H 792.75 c 14.277,0 25.77,11.492 25.77,25.769 v 335.004 c 0,14.277 -11.493,25.77 -25.77,25.77 H 457.746 c -14.277,0 -25.769,-11.493 -25.769,-25.77 V 50.703 c 0,-14.277 11.492,-25.769 25.769,-25.769 z"
           style="fill:#50be87;fill-opacity:1;fill-rule:nonzero;stroke:#000000;stroke-width:10.30780315;stroke-linecap:round;stroke-linejoin:round;stroke-miterlimit:4;stroke-dasharray:none;stroke-opacity:1"
           id="path26"
           inkscape:connector-curvature="0" /></g><text
         transform="matrix(1,0,0,-1,540.51333,210.64557)"
         style="font-variant:normal;font-weight:normal;font-size:40.72727585px;font-family:Arial;-inkscape-font-specification:Arial;writing-mode:lr-tb;fill:#000000;fill-opacity:1;fill-rule:nonzero;stroke:none"
         id="text30"><tspan
           x="0 29.405092 56.570187 86.016006 110.85964 140.30547"
           y="0"
           sodipodi:role="line"
           id="tspan28">CACTUS</tspan></text>
<path
         d="m 603.113,259.803 c -4.05,0.828 -7.582,3.695 -9.383,7.613 -0.957,2.082 -1.007,2.735 -1.144,14.481 -0.082,6.769 -0.277,12.304 -0.438,12.304 -0.16,0 -1.324,-0.39 -2.582,-0.871 -3.312,-1.258 -5.121,-1.148 -6.671,0.403 -1,1.004 -1.274,1.66 -1.274,3.097 0,2.473 1.309,3.598 6.535,5.606 l 4.137,1.59 v 17.41 17.406 l -3.922,0.234 c -4.148,0.25 -5.508,0.786 -6.281,2.485 -0.82,1.801 -0.547,3.492 0.801,5.008 1.246,1.39 1.359,1.425 5.453,1.57 l 4.183,0.152 -0.117,9.867 -0.117,9.864 -9.363,0.246 c -10.617,0.277 -13.325,0.773 -18.946,3.469 -1.918,0.917 -4.711,2.664 -6.211,3.878 -1.496,1.215 -2.996,2.207 -3.332,2.207 -0.332,0 -1.656,-0.488 -2.937,-1.085 -2.738,-1.274 -3.93,-1.352 -5.598,-0.368 -2.609,1.543 -2.926,4.707 -0.695,6.942 0.816,0.812 1.773,1.48 2.125,1.48 0.355,0 0.883,0.289 1.176,0.641 0.426,0.515 0.363,0.922 -0.332,2.07 -0.477,0.785 -1.559,3.192 -2.41,5.348 -3.079,7.808 -4.606,16.023 -5.024,27 l -0.281,7.406 -3.785,0.227 c -3.196,0.191 -3.957,0.386 -4.879,1.25 -1.434,1.351 -1.774,3.07 -0.981,4.976 0.864,2.055 2.032,2.606 6.16,2.887 l 3.485,0.242 0.219,16.332 0.218,16.332 1.25,2.707 c 1.536,3.328 4.938,6.676 8.438,8.305 2.129,0.992 3.094,1.168 6.426,1.172 3.504,0.008 4.218,-0.141 6.75,-1.36 4.058,-1.953 7.496,-5.636 8.851,-9.484 0.305,-0.867 0.571,-10.254 0.75,-26.602 0.297,-26.859 0.438,-28.656 2.547,-32.796 1.731,-3.391 2.348,-3.61 9.809,-3.473 l 6.57,0.121 0.121,7.078 c 0.063,3.891 -0.051,7.074 -0.262,7.074 -0.207,0 -0.75,-0.41 -1.207,-0.914 -2.293,-2.535 -4.871,-2.754 -7.027,-0.597 -1.391,1.39 -1.512,1.711 -1.293,3.336 0.211,1.585 0.813,2.375 5.066,6.644 l 4.829,4.84 -0.114,18.281 -0.113,18.281 -3.012,0.258 c -2.676,0.231 -3.148,0.41 -4.246,1.641 -3.027,3.383 -0.219,7.461 5.137,7.465 h 2.238 l 0.207,13.172 c 0.199,12.738 0.246,13.304 1.379,17.093 2.688,8.985 9.086,16.61 17.461,20.805 8.215,4.117 19.047,4.418 27.75,0.77 7.352,-3.079 14.945,-10.743 17.926,-18.09 2.082,-5.133 2.449,-8.34 2.449,-21.492 0,-13.102 -0.074,-12.696 2.246,-12.696 1.434,0 3.414,-2.328 3.414,-4.008 0,-1.718 -0.683,-2.836 -3.551,-5.808 l -2.121,-2.199 0.114,-16.965 0.117,-16.969 6.265,-0.121 c 7.747,-0.149 7.891,-0.067 9.493,5.422 0.636,2.191 0.773,5.625 0.984,24.969 l 0.242,22.429 1.215,2.481 c 3.105,6.32 10.188,9.715 16.762,8.031 4.566,-1.168 8.32,-4.274 10.273,-8.496 0.863,-1.875 0.945,-2.918 1.149,-14.863 l 0.214,-12.848 5.227,-0.223 c 5.395,-0.23 6.641,-0.594 7.816,-2.273 1.317,-1.879 0.532,-5.348 -1.418,-6.274 -0.402,-0.191 -3.183,-0.453 -6.179,-0.582 l -5.446,-0.23 -0.273,-7.188 c -0.461,-12.089 -2.184,-19.828 -6.254,-28.089 -2.504,-5.083 -5.582,-9.094 -9.066,-11.809 -1.125,-0.875 -2.043,-1.719 -2.043,-1.871 0,-0.153 1.468,-1.738 3.265,-3.52 3.786,-3.765 4.493,-5.281 3.532,-7.582 -0.797,-1.906 -3.055,-3.144 -4.891,-2.683 -0.73,0.183 -3.156,2.207 -5.949,4.961 l -4.719,4.648 -9.883,-0.148 c -5.437,-0.079 -10.031,-0.289 -10.215,-0.465 -0.183,-0.172 -0.281,-5.789 -0.218,-12.481 l 0.117,-12.168 5.371,-0.218 c 5.23,-0.211 5.402,-0.25 6.426,-1.438 1.836,-2.137 1.207,-5.586 -1.254,-6.902 -0.524,-0.282 -3.114,-0.625 -5.75,-0.766 l -4.793,-0.258 -0.117,-16.601 c -0.086,-12.949 0.007,-16.699 0.437,-17.043 0.301,-0.246 2.086,-1.082 3.965,-1.86 2.523,-1.043 3.641,-1.769 4.269,-2.769 1.11,-1.774 0.801,-4.059 -0.722,-5.383 -1.641,-1.426 -3.024,-1.629 -5.278,-0.769 -1.136,0.437 -2.14,0.593 -2.359,0.375 -0.594,-0.594 -0.586,-52.356 0.008,-53.907 0.68,-1.793 0.176,-3.519 -1.418,-4.863 -1.191,-1 -1.637,-1.117 -3.449,-0.902 -1.469,0.172 -2.567,0.027 -3.719,-0.496 -1.465,-0.665 -3.977,-0.75 -24.066,-0.817 -12.336,-0.039 -23.243,0.094 -24.239,0.297 z m 42.094,9.223 c 0,0.289 -2.055,2.609 -4.57,5.164 -4.344,4.406 -4.574,4.73 -4.574,6.464 0,2.899 2.636,4.93 5.468,4.215 0.614,-0.152 2.742,-1.84 4.731,-3.746 1.988,-1.91 3.742,-3.472 3.898,-3.472 0.156,0 0.231,10.601 0.168,23.562 l -0.109,23.559 -3.641,1.468 c -4.238,1.707 -4.785,2.102 -5.582,4 -0.5,1.2 -0.496,1.641 0.024,2.883 1.156,2.766 3.714,3.59 6.953,2.235 0.859,-0.36 1.765,-0.653 2.011,-0.653 0.305,0 0.45,10.946 0.454,34.082 0,22.012 0.16,34.649 0.449,35.692 0.886,3.191 1.191,3.265 13.804,3.492 10.188,0.18 11.485,0.285 14.051,1.172 8.746,3.015 14.113,10.402 17.067,23.508 0.894,3.961 0.953,5.48 1.113,28.437 0.148,21.649 0.09,24.395 -0.535,25.606 -1.465,2.835 -5.196,3.871 -7.93,2.207 -2.687,-1.641 -2.641,-1.227 -2.871,-24.852 -0.231,-23.504 -0.363,-24.914 -2.867,-30.262 -1.559,-3.328 -3.114,-5.156 -5.653,-6.648 l -2.023,-1.192 H 664.09 c -12.277,0 -12.324,0.012 -13.215,3.223 -0.25,0.902 -0.437,7.75 -0.437,16.078 l -0.008,14.512 -0.981,-0.348 c -0.539,-0.191 -1.648,-0.336 -2.461,-0.32 -2.019,0.035 -3.961,2.172 -3.961,4.355 0,1.356 0.465,2.04 3.7,5.399 l 3.703,3.848 v 16.714 c 0,18.43 -0.121,19.52 -2.723,24.481 -0.789,1.504 -2.707,3.969 -4.449,5.711 -5.008,5.008 -10.215,7.176 -17.199,7.168 -5.465,-0.008 -10.696,-1.68 -14.172,-4.531 l -1.309,-1.071 3.57,-3.621 c 3.782,-3.836 4.692,-5.41 4.258,-7.387 -0.383,-1.742 -2.547,-3.421 -4.406,-3.421 -1.312,0 -2.031,0.488 -5.164,3.484 -2,1.918 -3.824,3.484 -4.051,3.484 -0.656,0 -2.16,-3.902 -2.683,-6.98 -0.293,-1.707 -0.434,-7.184 -0.36,-13.903 l 0.125,-11.085 1.824,-0.458 c 2.625,-0.656 4.059,-2.16 4.059,-4.261 0,-2.875 -1.18,-4.137 -4.355,-4.664 l -1.528,-0.254 -0.215,-35.074 c -0.203,-32.547 -0.273,-35.157 -0.988,-36.243 -0.422,-0.644 -1.301,-1.32 -1.957,-1.504 -0.656,-0.183 -5.801,-0.328 -11.43,-0.324 -9.527,0.012 -10.375,0.074 -12.277,0.946 -4.648,2.125 -7.773,6.953 -9.535,14.722 -0.945,4.184 -0.992,5.336 -1.168,28.852 -0.184,24.289 -0.192,24.508 -1.133,25.906 -0.523,0.773 -1.629,1.867 -2.461,2.434 -1.265,0.859 -1.926,1 -4.027,0.855 -2.668,-0.187 -4.149,-0.992 -5.735,-3.121 -0.886,-1.184 -0.898,-1.602 -0.898,-29.371 0,-27.441 0.023,-28.289 0.973,-32.969 1.527,-7.535 5.347,-17.629 6.668,-17.629 0.242,0 1.148,0.297 2.007,0.657 2.524,1.054 3.969,0.839 5.637,-0.829 1.813,-1.812 1.922,-3.41 0.391,-5.664 -0.598,-0.882 -1.086,-1.691 -1.086,-1.797 0,-0.496 3.551,-2.421 6.097,-3.308 2.602,-0.91 3.833,-1.008 15.243,-1.235 8.777,-0.175 12.695,-0.406 13.382,-0.796 1.961,-1.11 2.067,-1.825 2.297,-15.336 l 0.215,-12.848 2.832,-0.309 c 2.406,-0.261 3.012,-0.507 4.028,-1.64 1.625,-1.805 1.617,-3.883 -0.028,-5.723 -1.058,-1.187 -1.601,-1.41 -4.027,-1.64 l -2.805,-0.27 V 323.381 307.92 l 1.926,-0.254 c 2.461,-0.332 3.957,-1.933 3.957,-4.246 0,-2.215 -0.969,-3.418 -3.746,-4.644 l -2.352,-1.043 0.008,-12.981 c 0.004,-13.879 0.113,-14.64 2.18,-15.687 1.527,-0.774 41.363,-0.809 41.363,-0.039 z m -24.855,20.789 c -0.969,0.964 -1.274,1.675 -1.27,2.937 0.008,2.504 2.547,17.973 3.16,19.242 0.774,1.602 3.059,2.817 4.637,2.469 2.176,-0.48 3.523,-2.215 3.519,-4.531 -0.007,-2.574 -2.48,-18.156 -3.054,-19.227 -1.324,-2.476 -4.949,-2.937 -6.992,-0.89 z m 3.406,57.554 c -1.805,1.051 -2.067,2.555 -2.067,11.746 v 8.778 l 1.481,1.48 c 2.59,2.59 6.23,1.625 7.211,-1.914 0.246,-0.887 0.449,-4.75 0.449,-8.582 0,-7.762 -0.371,-9.781 -2.027,-11.086 -1.223,-0.961 -3.758,-1.172 -5.047,-0.422 z m 1.781,50.789 c -4.07,4.039 -6.621,6.918 -6.914,7.801 -0.996,3.028 2.039,6.395 5.09,5.649 0.797,-0.2 3.625,-2.684 7.883,-6.934 6.504,-6.492 6.644,-6.668 6.644,-8.5 0,-2.629 -1.781,-4.414 -4.398,-4.414 -1.805,0 -2.028,0.172 -8.305,6.398 z m -5.824,32.817 c -0.969,1.008 -1.27,1.738 -1.27,3.054 0,1.629 0.301,2.036 5.055,6.79 4.793,4.793 5.148,5.058 6.891,5.101 1.55,0.043 2.031,-0.168 3.101,-1.367 1.41,-1.578 1.633,-3.348 0.656,-5.234 -0.335,-0.649 -2.578,-3.086 -4.984,-5.422 -4.18,-4.055 -4.465,-4.246 -6.281,-4.246 -1.551,0 -2.137,0.246 -3.168,1.324 z m 0.637,49.164 c -1.008,1.008 -1.274,1.656 -1.274,3.121 0,1.789 0.18,2.031 5.586,7.437 5.406,5.407 5.649,5.586 7.438,5.586 2.617,0 4.398,-1.785 4.398,-4.41 0,-1.808 -0.168,-2.031 -5.574,-7.437 -5.403,-5.407 -5.625,-5.571 -7.438,-5.571 -1.48,0 -2.129,0.262 -3.136,1.274 z"
         style="fill:#000000;fill-opacity:1;fill-rule:nonzero;stroke:none"
         id="path32"
         inkscape:connector-curvature="0" /><g
         id="g34"
         transform="matrix(1,0,0,-1,0,595.27557)"><path
           d="m 31.09,430.461 h 134 c 5.711,0 10.308,4.594 10.308,10.305 V 574.77 c 0,5.71 -4.597,10.304 -10.308,10.304 h -134 c -5.711,0 -10.309,-4.594 -10.309,-10.304 V 440.766 c 0,-5.711 4.598,-10.305 10.309,-10.305 z"
           style="fill:#50be87;fill-opacity:1;fill-rule:nonzero;stroke:#000000;stroke-width:4.12312078;stroke-linecap:round;stroke-linejoin:round;stroke-miterlimit:4;stroke-dasharray:none;stroke-opacity:1"
           id="path36"
           inkscape:connector-curvature="0" /></g><text
         transform="matrix(1,0,0,-1,64.196556,20.938045)"
         style="font-variant:normal;font-weight:normal;font-size:16.29091072px;font-family:Arial;-inkscape-font-specification:Arial;writing-mode:lr-tb;fill:#000000;fill-opacity:1;fill-rule:nonzero;stroke:none"
         id="text40"><tspan
           x="0 11.762037 22.628075 34.406403 44.343857 56.122185"
           y="0"
           sodipodi:role="line"
           id="tspan38">CACTUS</tspan></text>
<path
         d="m 89.234,40.6 c -1.617,0.332 -3.031,1.48 -3.75,3.047 -0.382,0.832 -0.402,1.093 -0.461,5.793 -0.031,2.707 -0.109,4.922 -0.171,4.922 -0.067,0 -0.532,-0.157 -1.036,-0.348 -1.324,-0.504 -2.046,-0.461 -2.668,0.16 -0.398,0.398 -0.507,0.664 -0.507,1.238 0,0.989 0.523,1.438 2.613,2.242 l 1.656,0.637 v 6.961 6.965 l -1.57,0.094 c -1.66,0.097 -2.203,0.312 -2.512,0.992 -0.328,0.723 -0.219,1.398 0.32,2.004 0.497,0.558 0.543,0.57 2.18,0.629 l 1.672,0.062 -0.047,3.946 -0.043,3.945 -3.746,0.098 c -4.246,0.113 -5.332,0.308 -7.578,1.386 -0.77,0.367 -1.887,1.067 -2.484,1.551 -0.602,0.488 -1.2,0.887 -1.332,0.887 -0.137,0 -0.665,-0.196 -1.176,-0.438 -1.098,-0.508 -1.574,-0.539 -2.242,-0.144 -1.043,0.617 -1.168,1.883 -0.274,2.773 0.324,0.328 0.707,0.594 0.848,0.594 0.14,0 0.351,0.117 0.469,0.258 0.171,0.203 0.144,0.367 -0.133,0.828 -0.188,0.312 -0.621,1.273 -0.961,2.137 -1.235,3.125 -1.844,6.41 -2.012,10.8 l -0.113,2.961 -1.512,0.094 c -1.277,0.074 -1.582,0.152 -1.953,0.5 -0.574,0.539 -0.707,1.227 -0.391,1.988 0.344,0.825 0.813,1.043 2.465,1.157 l 1.391,0.097 0.09,6.531 0.086,6.532 0.5,1.086 c 0.613,1.328 1.976,2.668 3.375,3.32 0.851,0.398 1.238,0.469 2.57,0.469 1.402,0.004 1.687,-0.055 2.699,-0.543 1.625,-0.782 3,-2.254 3.543,-3.793 0.121,-0.348 0.227,-4.102 0.301,-10.641 0.117,-10.746 0.172,-11.465 1.019,-13.121 0.692,-1.355 0.938,-1.441 3.922,-1.387 l 2.629,0.047 0.047,2.832 c 0.027,1.555 -0.019,2.828 -0.105,2.828 -0.082,0 -0.301,-0.164 -0.481,-0.363 -0.918,-1.016 -1.949,-1.101 -2.812,-0.238 -0.555,0.554 -0.606,0.683 -0.52,1.332 0.086,0.637 0.328,0.949 2.027,2.656 l 1.934,1.938 -0.047,7.312 -0.043,7.313 -1.207,0.101 c -1.07,0.094 -1.258,0.168 -1.699,0.656 -1.207,1.356 -0.086,2.989 2.059,2.989 h 0.894 l 0.082,5.269 c 0.078,5.094 0.098,5.321 0.551,6.836 1.074,3.594 3.633,6.645 6.984,8.324 3.285,1.645 7.617,1.766 11.098,0.305 2.941,-1.23 5.98,-4.297 7.172,-7.234 0.832,-2.055 0.98,-3.336 0.98,-8.598 0,-5.242 -0.031,-5.078 0.899,-5.078 0.574,0 1.367,-0.93 1.367,-1.602 0,-0.687 -0.274,-1.136 -1.422,-2.324 l -0.848,-0.879 0.043,-6.789 0.047,-6.785 2.508,-0.047 c 3.098,-0.062 3.156,-0.027 3.797,2.168 0.254,0.875 0.308,2.25 0.394,9.988 l 0.094,8.969 0.488,0.992 c 1.243,2.532 4.075,3.887 6.704,3.215 1.828,-0.469 3.328,-1.711 4.109,-3.398 0.348,-0.75 0.379,-1.168 0.461,-5.946 l 0.086,-5.14 2.09,-0.09 c 2.156,-0.09 2.656,-0.234 3.129,-0.906 0.523,-0.754 0.21,-2.141 -0.571,-2.512 -0.16,-0.078 -1.273,-0.18 -2.469,-0.231 l -2.179,-0.093 -0.11,-2.875 c -0.183,-4.836 -0.875,-7.93 -2.5,-11.235 -1.003,-2.035 -2.234,-3.64 -3.628,-4.726 -0.45,-0.348 -0.817,-0.688 -0.817,-0.746 0,-0.063 0.586,-0.696 1.305,-1.41 1.515,-1.504 1.797,-2.11 1.414,-3.032 -0.32,-0.761 -1.223,-1.258 -1.957,-1.074 -0.293,0.074 -1.262,0.883 -2.379,1.984 l -1.887,1.86 -3.953,-0.059 c -2.176,-0.031 -4.016,-0.117 -4.086,-0.187 -0.074,-0.067 -0.113,-2.317 -0.09,-4.992 l 0.047,-4.868 2.153,-0.086 c 2.089,-0.086 2.16,-0.101 2.566,-0.574 0.734,-0.855 0.484,-2.234 -0.5,-2.762 -0.211,-0.113 -1.246,-0.25 -2.301,-0.308 l -1.918,-0.102 -0.047,-6.64 c -0.035,-5.18 0.004,-6.68 0.176,-6.817 0.121,-0.097 0.836,-0.433 1.586,-0.742 1.012,-0.418 1.457,-0.711 1.707,-1.109 0.445,-0.711 0.324,-1.625 -0.289,-2.153 -0.656,-0.57 -1.207,-0.652 -2.109,-0.308 -0.457,0.176 -0.856,0.238 -0.946,0.148 -0.234,-0.234 -0.234,-20.941 0.004,-21.562 0.274,-0.715 0.071,-1.407 -0.566,-1.946 -0.477,-0.398 -0.656,-0.445 -1.379,-0.359 -0.59,0.07 -1.027,0.012 -1.488,-0.199 -0.586,-0.266 -1.59,-0.301 -9.625,-0.324 -4.938,-0.02 -9.301,0.035 -9.7,0.117 z m 16.84,3.691 c 0,0.113 -0.824,1.043 -1.828,2.063 -1.738,1.765 -1.828,1.894 -1.828,2.59 0,1.156 1.051,1.968 2.187,1.683 0.243,-0.062 1.094,-0.734 1.891,-1.5 0.793,-0.762 1.496,-1.387 1.559,-1.387 0.062,0 0.093,4.243 0.07,9.426 l -0.047,9.422 -1.457,0.586 c -1.695,0.684 -1.914,0.844 -2.23,1.602 -0.2,0.48 -0.2,0.656 0.007,1.152 0.461,1.109 1.485,1.437 2.782,0.894 0.343,-0.144 0.707,-0.261 0.804,-0.261 0.121,0 0.18,4.379 0.184,13.633 0,8.804 0.062,13.859 0.18,14.277 0.351,1.277 0.476,1.308 5.519,1.398 4.074,0.071 4.594,0.114 5.621,0.469 3.5,1.203 5.645,4.16 6.828,9.402 0.356,1.586 0.379,2.192 0.442,11.375 0.062,8.661 0.039,9.758 -0.211,10.243 -0.586,1.132 -2.078,1.546 -3.172,0.882 -1.078,-0.656 -1.059,-0.492 -1.148,-9.941 -0.094,-9.402 -0.145,-9.965 -1.149,-12.105 -0.621,-1.329 -1.242,-2.063 -2.262,-2.661 l -0.808,-0.472 h -4.379 c -4.914,0 -4.93,0.004 -5.289,1.289 -0.098,0.359 -0.172,3.097 -0.172,6.429 l -0.004,5.805 -0.394,-0.14 c -0.215,-0.075 -0.657,-0.133 -0.985,-0.129 -0.808,0.015 -1.582,0.871 -1.582,1.742 0,0.543 0.188,0.816 1.481,2.16 l 1.48,1.539 v 6.688 c 0,7.371 -0.051,7.808 -1.09,9.793 -0.316,0.601 -1.082,1.585 -1.781,2.281 -2,2.004 -4.086,2.871 -6.879,2.867 -2.187,0 -4.277,-0.672 -5.668,-1.813 l -0.523,-0.425 1.429,-1.45 c 1.512,-1.535 1.875,-2.164 1.7,-2.953 -0.153,-0.699 -1.016,-1.371 -1.762,-1.371 -0.524,0 -0.813,0.196 -2.063,1.395 -0.8,0.765 -1.531,1.394 -1.621,1.394 -0.265,0 -0.863,-1.562 -1.074,-2.793 -0.117,-0.683 -0.172,-2.871 -0.144,-5.562 l 0.05,-4.434 0.731,-0.179 c 1.047,-0.266 1.621,-0.868 1.621,-1.707 0,-1.149 -0.469,-1.657 -1.742,-1.868 l -0.61,-0.101 -0.086,-14.028 C 88.57,98.471 88.543,97.428 88.258,96.994 88.09,96.737 87.734,96.463 87.473,96.393 87.211,96.319 85.156,96.26 82.902,96.264 c -3.812,0.004 -4.148,0.027 -4.91,0.375 -1.859,0.851 -3.109,2.781 -3.816,5.89 -0.375,1.672 -0.395,2.133 -0.465,11.54 -0.074,9.718 -0.078,9.804 -0.453,10.363 -0.211,0.308 -0.653,0.746 -0.985,0.972 -0.507,0.344 -0.773,0.403 -1.609,0.344 -1.07,-0.074 -1.66,-0.398 -2.297,-1.25 -0.355,-0.472 -0.359,-0.64 -0.359,-11.746 0,-10.976 0.012,-11.316 0.39,-13.187 0.61,-3.016 2.137,-7.051 2.668,-7.051 0.098,0 0.457,0.117 0.801,0.262 1.008,0.421 1.586,0.336 2.254,-0.332 0.727,-0.727 0.77,-1.364 0.16,-2.266 -0.242,-0.356 -0.437,-0.676 -0.437,-0.719 0,-0.199 1.422,-0.969 2.437,-1.324 1.043,-0.363 1.535,-0.402 6.098,-0.492 3.512,-0.071 5.078,-0.164 5.355,-0.321 0.782,-0.441 0.825,-0.73 0.918,-6.132 l 0.086,-5.141 1.133,-0.121 c 0.961,-0.106 1.203,-0.207 1.613,-0.656 0.649,-0.723 0.645,-1.555 -0.011,-2.293 -0.426,-0.473 -0.645,-0.563 -1.614,-0.657 L 88.738,72.217 V 66.033 59.85 l 0.77,-0.106 c 0.984,-0.129 1.582,-0.773 1.582,-1.695 0,-0.887 -0.387,-1.367 -1.496,-1.859 l -0.942,-0.418 0.004,-5.192 c 0,-5.551 0.043,-5.855 0.871,-6.273 0.61,-0.309 16.547,-0.324 16.547,-0.016 z m -9.941,8.313 c -0.387,0.386 -0.512,0.672 -0.508,1.175 0,1.004 1.02,7.192 1.266,7.7 0.308,0.64 1.218,1.125 1.851,0.984 0.871,-0.191 1.41,-0.883 1.406,-1.812 0,-1.028 -0.988,-7.262 -1.218,-7.688 -0.532,-0.992 -1.981,-1.176 -2.797,-0.359 z m 1.363,23.023 c -0.723,0.422 -0.828,1.024 -0.828,4.699 v 3.512 l 0.59,0.59 c 1.039,1.039 2.492,0.652 2.887,-0.766 0.097,-0.355 0.179,-1.898 0.179,-3.429 0,-3.106 -0.148,-3.914 -0.812,-4.438 -0.489,-0.383 -1.5,-0.469 -2.016,-0.168 z m 0.711,20.317 c -1.629,1.617 -2.648,2.765 -2.766,3.121 -0.398,1.211 0.817,2.558 2.036,2.257 0.32,-0.078 1.449,-1.074 3.152,-2.773 2.601,-2.598 2.66,-2.668 2.66,-3.398 0,-1.055 -0.715,-1.766 -1.762,-1.766 -0.718,0 -0.808,0.066 -3.32,2.559 z m -2.332,13.125 c -0.387,0.406 -0.508,0.695 -0.508,1.222 0,0.653 0.121,0.813 2.024,2.715 1.918,1.918 2.062,2.023 2.757,2.043 0.622,0.016 0.813,-0.07 1.239,-0.547 0.566,-0.633 0.652,-1.34 0.261,-2.094 -0.132,-0.261 -1.027,-1.234 -1.992,-2.171 -1.672,-1.622 -1.785,-1.696 -2.511,-1.696 -0.622,0 -0.856,0.098 -1.27,0.528 z m 0.258,19.668 c -0.406,0.402 -0.512,0.66 -0.512,1.246 0,0.718 0.074,0.812 2.234,2.976 2.165,2.16 2.262,2.235 2.977,2.235 1.047,0 1.758,-0.715 1.758,-1.766 0,-0.723 -0.067,-0.813 -2.227,-2.973 -2.164,-2.164 -2.254,-2.23 -2.976,-2.23 -0.594,0 -0.852,0.105 -1.254,0.512 z"
         style="fill:#000000;fill-opacity:1;fill-rule:nonzero;stroke:none"
         id="path42"
         inkscape:connector-curvature="0" /><g
         id="g44"
         transform="matrix(1,0,0,-1,0,595.27557)"><path
           d="m 203.852,430.461 h 134 c 5.711,0 10.308,4.594 10.308,10.305 V 574.77 c 0,5.71 -4.597,10.304 -10.308,10.304 h -134 c -5.711,0 -10.309,-4.594 -10.309,-10.304 V 440.766 c 0,-5.711 4.598,-10.305 10.309,-10.305 z"
           style="fill:#50be87;fill-opacity:1;fill-rule:nonzero;stroke:#000000;stroke-width:4.12312078;stroke-linecap:round;stroke-linejoin:round;stroke-miterlimit:4;stroke-dasharray:none;stroke-opacity:1"
           id="path46"
           inkscape:connector-curvature="0" /></g><text
         transform="matrix(1,0,0,-1,236.95812,20.938045)"
         style="font-variant:normal;font-weight:normal;font-size:16.29091072px;font-family:Arial;-inkscape-font-specification:Arial;writing-mode:lr-tb;fill:#000000;fill-opacity:1;fill-rule:nonzero;stroke:none"
         id="text50"><tspan
           x="0 11.762037 22.628075 34.406403 44.343857 56.122185"
           y="0"
           sodipodi:role="line"
           id="tspan48">CACTUS</tspan></text>
<path
         d="m 261.996,40.6 c -1.617,0.332 -3.031,1.48 -3.75,3.047 -0.383,0.832 -0.402,1.093 -0.461,5.793 -0.031,2.707 -0.109,4.922 -0.172,4.922 -0.066,0 -0.531,-0.157 -1.035,-0.348 -1.324,-0.504 -2.047,-0.461 -2.668,0.16 -0.398,0.398 -0.508,0.664 -0.508,1.238 0,0.989 0.524,1.438 2.614,2.242 l 1.652,0.637 v 6.961 6.965 l -1.566,0.094 c -1.661,0.097 -2.204,0.312 -2.512,0.992 -0.328,0.723 -0.219,1.398 0.32,2.004 0.496,0.558 0.543,0.57 2.18,0.629 l 1.672,0.062 -0.047,3.946 -0.047,3.945 -3.742,0.098 c -4.246,0.113 -5.332,0.308 -7.578,1.386 -0.77,0.367 -1.887,1.067 -2.485,1.551 -0.601,0.488 -1.199,0.887 -1.332,0.887 -0.136,0 -0.664,-0.196 -1.176,-0.438 -1.097,-0.508 -1.574,-0.539 -2.242,-0.144 -1.043,0.617 -1.168,1.883 -0.277,2.773 0.328,0.328 0.711,0.594 0.852,0.594 0.14,0 0.351,0.117 0.468,0.258 0.172,0.203 0.145,0.367 -0.133,0.828 -0.187,0.312 -0.621,1.273 -0.96,2.137 -1.235,3.125 -1.844,6.41 -2.012,10.8 l -0.113,2.961 -1.512,0.094 c -1.278,0.074 -1.582,0.152 -1.953,0.5 -0.575,0.539 -0.711,1.227 -0.391,1.988 0.344,0.825 0.813,1.043 2.465,1.157 l 1.391,0.097 0.089,6.531 0.086,6.532 0.5,1.086 c 0.614,1.328 1.977,2.668 3.375,3.32 0.852,0.398 1.239,0.469 2.571,0.469 1.402,0.004 1.687,-0.055 2.699,-0.543 1.625,-0.782 3,-2.254 3.543,-3.793 0.121,-0.348 0.226,-4.102 0.301,-10.641 0.117,-10.746 0.171,-11.465 1.015,-13.121 0.696,-1.355 0.942,-1.441 3.926,-1.387 l 2.625,0.047 0.051,2.832 c 0.027,1.555 -0.02,2.828 -0.106,2.828 -0.082,0 -0.3,-0.164 -0.48,-0.363 -0.918,-1.016 -1.949,-1.101 -2.813,-0.238 -0.554,0.554 -0.605,0.683 -0.519,1.332 0.086,0.637 0.328,0.949 2.027,2.656 l 1.934,1.938 -0.047,7.312 -0.047,7.313 -1.203,0.101 c -1.07,0.094 -1.258,0.168 -1.699,0.656 -1.211,1.356 -0.086,2.989 2.054,2.989 h 0.895 l 0.086,5.269 c 0.078,5.094 0.097,5.321 0.551,6.836 1.074,3.594 3.632,6.645 6.984,8.324 3.285,1.645 7.617,1.766 11.098,0.305 2.941,-1.23 5.98,-4.297 7.171,-7.234 0.833,-2.055 0.981,-3.336 0.981,-8.598 0,-5.242 -0.031,-5.078 0.898,-5.078 0.575,0 1.368,-0.93 1.368,-1.602 0,-0.687 -0.274,-1.136 -1.422,-2.324 l -0.848,-0.879 0.043,-6.789 0.047,-6.785 2.508,-0.047 c 3.097,-0.062 3.156,-0.027 3.797,2.168 0.253,0.875 0.308,2.25 0.394,9.988 l 0.094,8.969 0.488,0.992 c 1.242,2.532 4.074,3.887 6.703,3.215 1.828,-0.469 3.328,-1.711 4.11,-3.398 0.347,-0.75 0.379,-1.168 0.461,-5.946 l 0.086,-5.14 2.089,-0.09 c 2.157,-0.09 2.657,-0.234 3.129,-0.906 0.524,-0.754 0.211,-2.141 -0.57,-2.512 -0.16,-0.078 -1.273,-0.18 -2.469,-0.231 l -2.179,-0.093 -0.11,-2.875 c -0.183,-4.836 -0.875,-7.93 -2.5,-11.235 -1.004,-2.035 -2.234,-3.64 -3.629,-4.726 -0.449,-0.348 -0.816,-0.688 -0.816,-0.746 0,-0.063 0.586,-0.696 1.305,-1.41 1.515,-1.504 1.796,-2.11 1.414,-3.032 -0.321,-0.761 -1.223,-1.258 -1.957,-1.074 -0.293,0.074 -1.262,0.883 -2.379,1.984 l -1.887,1.86 -3.953,-0.059 c -2.176,-0.031 -4.016,-0.117 -4.086,-0.187 -0.074,-0.067 -0.113,-2.317 -0.09,-4.992 l 0.047,-4.868 2.148,-0.086 c 2.094,-0.086 2.164,-0.101 2.571,-0.574 0.734,-0.855 0.484,-2.234 -0.5,-2.762 -0.211,-0.113 -1.246,-0.25 -2.301,-0.308 l -1.918,-0.102 -0.047,-6.64 c -0.035,-5.18 0.004,-6.68 0.176,-6.817 0.121,-0.097 0.836,-0.433 1.586,-0.742 1.011,-0.418 1.457,-0.711 1.707,-1.109 0.445,-0.711 0.32,-1.625 -0.289,-2.153 -0.657,-0.57 -1.207,-0.652 -2.11,-0.308 -0.457,0.176 -0.855,0.238 -0.945,0.148 -0.234,-0.234 -0.234,-20.941 0.004,-21.562 0.273,-0.715 0.07,-1.407 -0.566,-1.946 -0.477,-0.398 -0.657,-0.445 -1.379,-0.359 -0.59,0.07 -1.028,0.012 -1.489,-0.199 -0.586,-0.266 -1.59,-0.301 -9.625,-0.324 -4.937,-0.02 -9.3,0.035 -9.699,0.117 z m 16.84,3.691 c 0,0.113 -0.824,1.043 -1.828,2.063 -1.738,1.765 -1.828,1.894 -1.828,2.59 0,1.156 1.05,1.968 2.187,1.683 0.242,-0.062 1.094,-0.734 1.891,-1.5 0.793,-0.762 1.496,-1.387 1.558,-1.387 0.063,0 0.094,4.243 0.067,9.426 l -0.043,9.422 -1.457,0.586 c -1.695,0.684 -1.914,0.844 -2.231,1.602 -0.199,0.48 -0.199,0.656 0.008,1.152 0.461,1.109 1.485,1.437 2.781,0.894 0.344,-0.144 0.707,-0.261 0.805,-0.261 0.121,0 0.18,4.379 0.18,13.633 0,8.804 0.066,13.859 0.183,14.277 0.352,1.277 0.477,1.308 5.52,1.398 4.074,0.071 4.594,0.114 5.621,0.469 3.5,1.203 5.645,4.16 6.828,9.402 0.356,1.586 0.379,2.192 0.442,11.375 0.062,8.661 0.039,9.758 -0.211,10.243 -0.586,1.132 -2.079,1.546 -3.172,0.882 -1.078,-0.656 -1.059,-0.492 -1.149,-9.941 -0.093,-9.402 -0.144,-9.965 -1.148,-12.105 -0.621,-1.329 -1.246,-2.063 -2.262,-2.661 l -0.808,-0.472 h -4.379 c -4.914,0 -4.93,0.004 -5.289,1.289 -0.098,0.359 -0.172,3.097 -0.176,6.429 v 5.805 l -0.395,-0.14 c -0.215,-0.075 -0.656,-0.133 -0.984,-0.129 -0.809,0.015 -1.582,0.871 -1.582,1.742 0,0.543 0.183,0.816 1.48,2.16 l 1.481,1.539 v 6.688 c 0,7.371 -0.051,7.808 -1.09,9.793 -0.316,0.601 -1.082,1.585 -1.781,2.281 -2.004,2.004 -4.086,2.871 -6.879,2.867 -2.188,0 -4.278,-0.672 -5.668,-1.813 l -0.524,-0.425 1.43,-1.45 c 1.512,-1.535 1.875,-2.164 1.699,-2.953 -0.152,-0.699 -1.015,-1.371 -1.761,-1.371 -0.524,0 -0.813,0.196 -2.063,1.395 -0.801,0.765 -1.531,1.394 -1.621,1.394 -0.266,0 -0.863,-1.562 -1.074,-2.793 -0.117,-0.683 -0.176,-2.871 -0.145,-5.562 l 0.051,-4.434 0.73,-0.179 c 1.047,-0.266 1.622,-0.868 1.622,-1.707 0,-1.149 -0.469,-1.657 -1.743,-1.868 l -0.609,-0.101 -0.086,-14.028 c -0.082,-13.019 -0.109,-14.062 -0.394,-14.496 -0.168,-0.257 -0.524,-0.531 -0.786,-0.601 -0.261,-0.074 -2.32,-0.133 -4.57,-0.129 -3.812,0.004 -4.148,0.027 -4.91,0.375 -1.859,0.851 -3.109,2.781 -3.816,5.89 -0.379,1.672 -0.395,2.133 -0.465,11.54 -0.075,9.718 -0.078,9.804 -0.453,10.363 -0.211,0.308 -0.653,0.746 -0.985,0.972 -0.508,0.344 -0.773,0.403 -1.613,0.344 -1.067,-0.074 -1.656,-0.398 -2.293,-1.25 -0.356,-0.472 -0.359,-0.64 -0.359,-11.746 0,-10.976 0.011,-11.316 0.39,-13.187 0.61,-3.016 2.137,-7.051 2.664,-7.051 0.098,0 0.461,0.117 0.805,0.262 1.008,0.421 1.586,0.336 2.254,-0.332 0.726,-0.727 0.769,-1.364 0.156,-2.266 -0.238,-0.356 -0.434,-0.676 -0.434,-0.719 0,-0.199 1.422,-0.969 2.438,-1.324 1.043,-0.363 1.535,-0.402 6.098,-0.492 3.511,-0.071 5.078,-0.164 5.355,-0.321 0.781,-0.441 0.824,-0.73 0.918,-6.132 l 0.086,-5.141 1.133,-0.121 c 0.961,-0.106 1.203,-0.207 1.613,-0.656 0.649,-0.723 0.645,-1.555 -0.012,-2.293 -0.425,-0.473 -0.644,-0.563 -1.613,-0.657 L 261.5,72.217 V 66.033 59.85 l 0.77,-0.106 c 0.984,-0.129 1.582,-0.773 1.582,-1.695 0,-0.887 -0.387,-1.367 -1.497,-1.859 l -0.941,-0.418 0.004,-5.192 c 0,-5.551 0.043,-5.855 0.871,-6.273 0.609,-0.309 16.547,-0.324 16.547,-0.016 z m -9.941,8.313 c -0.387,0.386 -0.512,0.672 -0.508,1.175 0,1.004 1.019,7.192 1.261,7.7 0.313,0.64 1.223,1.125 1.856,0.984 0.871,-0.191 1.41,-0.883 1.406,-1.812 0,-1.028 -0.988,-7.262 -1.219,-7.688 -0.531,-0.992 -1.98,-1.176 -2.796,-0.359 z m 1.363,23.023 c -0.723,0.422 -0.828,1.024 -0.828,4.699 v 3.512 l 0.59,0.59 c 1.039,1.039 2.492,0.652 2.886,-0.766 0.098,-0.355 0.18,-1.898 0.18,-3.429 0,-3.106 -0.148,-3.914 -0.813,-4.438 -0.488,-0.383 -1.5,-0.469 -2.015,-0.168 z m 0.711,20.317 c -1.629,1.617 -2.649,2.765 -2.766,3.121 -0.398,1.211 0.817,2.558 2.035,2.257 0.321,-0.078 1.45,-1.074 3.153,-2.773 2.601,-2.598 2.66,-2.668 2.66,-3.398 0,-1.055 -0.715,-1.766 -1.762,-1.766 -0.719,0 -0.809,0.066 -3.32,2.559 z m -2.332,13.125 c -0.387,0.406 -0.508,0.695 -0.508,1.222 0,0.653 0.121,0.813 2.023,2.715 1.918,1.918 2.059,2.023 2.758,2.043 0.621,0.016 0.813,-0.07 1.238,-0.547 0.567,-0.633 0.653,-1.34 0.262,-2.094 -0.133,-0.261 -1.031,-1.234 -1.992,-2.171 -1.672,-1.622 -1.785,-1.696 -2.512,-1.696 -0.621,0 -0.855,0.098 -1.269,0.528 z m 0.258,19.668 c -0.407,0.402 -0.512,0.66 -0.512,1.246 0,0.718 0.074,0.812 2.234,2.976 2.164,2.16 2.262,2.235 2.977,2.235 1.047,0 1.758,-0.715 1.758,-1.766 0,-0.723 -0.067,-0.813 -2.227,-2.973 -2.164,-2.164 -2.254,-2.23 -2.977,-2.23 -0.593,0 -0.851,0.105 -1.253,0.512 z"
         style="fill:#000000;fill-opacity:1;fill-rule:nonzero;stroke:none"
         id="path52"
         inkscape:connector-curvature="0" /><g
         id="g54"
         transform="matrix(1,0,0,-1,0,595.27557)"><path
           d="m 435.656,429.871 h 95.719 c 4.078,0 7.359,3.281 7.359,7.363 v 95.715 c 0,4.078 -3.281,7.364 -7.359,7.364 h -95.719 c -4.078,0 -7.359,-3.286 -7.359,-7.364 v -95.715 c 0,-4.082 3.281,-7.363 7.359,-7.363 z"
           style="fill:#50be87;fill-opacity:1;fill-rule:nonzero;stroke:#000000;stroke-width:2.94508696;stroke-linecap:round;stroke-linejoin:round;stroke-miterlimit:4;stroke-dasharray:none;stroke-opacity:1"
           id="path56"
           inkscape:connector-curvature="0" /></g><text
         transform="matrix(1,0,0,-1,459.30572,62.635222)"
         style="font-variant:normal;font-weight:normal;font-size:11.63636398px;font-family:Arial;-inkscape-font-specification:Arial;writing-mode:lr-tb;fill:#000000;fill-opacity:1;fill-rule:nonzero;stroke:none"
         id="text60"><tspan
           x="0 8.4014549 16.16291 24.576 31.674183 40.087273"
           y="0"
           sodipodi:role="line"
           id="tspan58">CACTUS</tspan></text>
<path
         d="m 477.191,76.678 c -1.156,0.238 -2.168,1.059 -2.679,2.18 -0.274,0.593 -0.289,0.777 -0.328,4.136 -0.024,1.934 -0.079,3.516 -0.125,3.516 -0.047,0 -0.379,-0.113 -0.739,-0.25 -0.945,-0.359 -1.461,-0.328 -1.906,0.113 -0.285,0.289 -0.363,0.477 -0.363,0.887 0,0.707 0.375,1.027 1.867,1.602 l 1.184,0.453 v 4.972 4.977 l -1.122,0.066 c -1.187,0.071 -1.574,0.223 -1.796,0.711 -0.235,0.512 -0.157,0.996 0.23,1.43 0.356,0.398 0.387,0.406 1.559,0.449 l 1.195,0.043 -0.035,2.82 -0.031,2.817 -2.676,0.07 c -3.035,0.078 -3.809,0.223 -5.414,0.992 -0.547,0.262 -1.348,0.762 -1.774,1.106 -0.429,0.347 -0.855,0.633 -0.953,0.633 -0.094,0 -0.472,-0.141 -0.84,-0.309 -0.781,-0.367 -1.121,-0.387 -1.597,-0.105 -0.746,0.437 -0.836,1.343 -0.2,1.98 0.235,0.234 0.504,0.426 0.606,0.426 0.101,0 0.254,0.082 0.336,0.179 0.125,0.149 0.105,0.266 -0.094,0.594 -0.137,0.223 -0.445,0.91 -0.687,1.528 -0.879,2.23 -1.317,4.578 -1.438,7.714 l -0.078,2.114 -1.082,0.066 c -0.914,0.055 -1.133,0.109 -1.395,0.359 -0.41,0.383 -0.507,0.875 -0.281,1.418 0.246,0.59 0.582,0.747 1.762,0.829 l 0.996,0.066 0.062,4.668 0.063,4.664 0.355,0.777 c 0.438,0.95 1.411,1.907 2.411,2.371 0.609,0.286 0.886,0.332 1.836,0.336 1,0 1.207,-0.039 1.929,-0.39 1.16,-0.559 2.141,-1.61 2.528,-2.707 0.089,-0.25 0.164,-2.93 0.214,-7.602 0.086,-7.676 0.125,-8.187 0.731,-9.371 0.492,-0.969 0.668,-1.031 2.801,-0.992 l 1.879,0.035 0.031,2.02 c 0.019,1.113 -0.012,2.023 -0.074,2.023 -0.059,0 -0.215,-0.117 -0.344,-0.262 -0.656,-0.722 -1.391,-0.785 -2.008,-0.168 -0.398,0.395 -0.434,0.485 -0.371,0.953 0.062,0.454 0.234,0.676 1.449,1.895 l 1.379,1.383 -0.031,5.226 -0.031,5.223 -0.864,0.07 c -0.761,0.067 -0.898,0.121 -1.211,0.469 -0.867,0.969 -0.062,2.133 1.469,2.133 h 0.637 l 0.058,3.765 c 0.059,3.641 0.071,3.801 0.395,4.883 0.769,2.567 2.598,4.746 4.988,5.946 2.348,1.175 5.442,1.261 7.93,0.218 2.101,-0.879 4.269,-3.066 5.121,-5.168 0.594,-1.464 0.699,-2.382 0.699,-6.14 0,-3.742 -0.019,-3.625 0.645,-3.625 0.406,0 0.972,-0.668 0.972,-1.149 0,-0.488 -0.195,-0.808 -1.015,-1.66 l -0.606,-0.625 0.035,-4.847 0.032,-4.848 1.793,-0.035 c 2.211,-0.043 2.254,-0.02 2.711,1.547 0.183,0.628 0.218,1.609 0.281,7.136 l 0.07,6.407 0.348,0.71 c 0.887,1.805 2.91,2.774 4.785,2.293 1.305,-0.332 2.379,-1.222 2.938,-2.425 0.246,-0.535 0.269,-0.836 0.328,-4.246 l 0.062,-3.672 1.492,-0.063 c 1.539,-0.066 1.899,-0.172 2.235,-0.652 0.375,-0.535 0.152,-1.527 -0.407,-1.793 -0.117,-0.055 -0.91,-0.129 -1.765,-0.164 l -1.555,-0.067 -0.078,-2.054 c -0.133,-3.453 -0.625,-5.664 -1.789,-8.024 -0.715,-1.453 -1.594,-2.597 -2.59,-3.375 -0.32,-0.25 -0.582,-0.492 -0.582,-0.535 0,-0.043 0.418,-0.496 0.93,-1.004 1.082,-1.078 1.285,-1.511 1.011,-2.168 -0.23,-0.543 -0.875,-0.898 -1.398,-0.765 -0.207,0.05 -0.902,0.629 -1.699,1.418 l -1.348,1.328 -2.824,-0.043 c -1.555,-0.024 -2.867,-0.082 -2.918,-0.133 -0.055,-0.051 -0.082,-1.656 -0.063,-3.566 l 0.032,-3.477 1.535,-0.063 c 1.496,-0.058 1.543,-0.07 1.836,-0.41 0.523,-0.609 0.347,-1.597 -0.36,-1.972 -0.148,-0.082 -0.886,-0.18 -1.64,-0.219 l -1.371,-0.074 -0.032,-4.742 c -0.027,-3.7 0,-4.77 0.125,-4.872 0.086,-0.07 0.594,-0.308 1.133,-0.531 0.719,-0.297 1.039,-0.504 1.219,-0.789 0.316,-0.508 0.231,-1.16 -0.207,-1.539 -0.469,-0.406 -0.863,-0.465 -1.508,-0.219 -0.324,0.125 -0.609,0.168 -0.672,0.106 -0.172,-0.168 -0.168,-14.957 0,-15.403 0.196,-0.511 0.051,-1.003 -0.406,-1.386 -0.34,-0.289 -0.465,-0.321 -0.984,-0.262 -0.418,0.051 -0.731,0.008 -1.063,-0.141 -0.418,-0.187 -1.137,-0.214 -6.875,-0.23 -3.523,-0.012 -6.64,0.023 -6.926,0.082 z m 12.028,2.637 c 0,0.082 -0.59,0.746 -1.305,1.476 -1.242,1.258 -1.309,1.352 -1.309,1.848 0,0.828 0.754,1.406 1.563,1.203 0.176,-0.043 0.785,-0.527 1.352,-1.07 0.566,-0.547 1.07,-0.993 1.113,-0.993 0.043,0 0.066,3.032 0.051,6.731 l -0.036,6.734 -1.039,0.418 c -1.211,0.489 -1.367,0.602 -1.593,1.145 -0.145,0.34 -0.141,0.469 0.007,0.824 0.329,0.789 1.059,1.023 1.985,0.637 0.246,-0.102 0.504,-0.188 0.574,-0.188 0.09,0 0.129,3.129 0.129,9.739 0,6.289 0.047,9.898 0.129,10.199 0.254,0.91 0.344,0.933 3.945,0.996 2.91,0.051 3.281,0.082 4.016,0.336 2.5,0.859 4.031,2.972 4.875,6.715 0.254,1.132 0.273,1.566 0.316,8.125 0.043,6.183 0.028,6.972 -0.152,7.316 -0.418,0.809 -1.485,1.106 -2.266,0.629 -0.765,-0.469 -0.754,-0.348 -0.82,-7.098 -0.063,-6.718 -0.102,-7.121 -0.816,-8.648 -0.446,-0.949 -0.891,-1.473 -1.618,-1.899 l -0.578,-0.339 h -3.129 c -3.508,0 -3.519,0.003 -3.777,0.921 -0.07,0.254 -0.121,2.211 -0.125,4.594 v 4.145 l -0.281,-0.098 c -0.153,-0.055 -0.469,-0.098 -0.703,-0.094 -0.579,0.012 -1.133,0.621 -1.133,1.246 0,0.387 0.136,0.582 1.058,1.543 l 1.059,1.098 v 4.777 c 0,5.266 -0.035,5.575 -0.777,6.993 -0.227,0.429 -0.774,1.132 -1.274,1.632 -1.43,1.43 -2.918,2.051 -4.914,2.047 -1.562,0 -3.055,-0.48 -4.047,-1.293 l -0.375,-0.308 1.02,-1.032 c 1.082,-1.097 1.34,-1.546 1.215,-2.113 -0.11,-0.496 -0.727,-0.976 -1.258,-0.976 -0.375,0 -0.578,0.14 -1.473,0.996 -0.574,0.547 -1.094,0.996 -1.16,0.996 -0.188,0 -0.617,-1.117 -0.766,-1.996 -0.082,-0.489 -0.125,-2.051 -0.101,-3.973 l 0.035,-3.168 0.519,-0.129 c 0.75,-0.187 1.161,-0.617 1.161,-1.219 0,-0.82 -0.336,-1.179 -1.246,-1.332 l -0.434,-0.07 -0.063,-10.023 c -0.058,-9.297 -0.078,-10.043 -0.281,-10.356 -0.121,-0.183 -0.371,-0.375 -0.558,-0.43 -0.188,-0.05 -1.657,-0.093 -3.266,-0.089 -2.723,0 -2.965,0.019 -3.508,0.269 -1.328,0.606 -2.222,1.985 -2.726,4.207 -0.27,1.196 -0.282,1.524 -0.332,8.242 -0.055,6.942 -0.055,7.004 -0.325,7.403 -0.148,0.218 -0.464,0.531 -0.703,0.695 -0.363,0.246 -0.551,0.285 -1.148,0.242 -0.766,-0.051 -1.188,-0.281 -1.641,-0.89 -0.254,-0.34 -0.258,-0.457 -0.258,-8.391 0,-7.84 0.008,-8.086 0.278,-9.422 0.437,-2.152 1.531,-5.035 1.906,-5.035 0.07,0 0.328,0.082 0.574,0.187 0.723,0.301 1.133,0.239 1.61,-0.238 0.519,-0.515 0.55,-0.972 0.113,-1.617 -0.172,-0.254 -0.313,-0.484 -0.313,-0.512 0,-0.144 1.016,-0.695 1.743,-0.949 0.746,-0.258 1.097,-0.285 4.355,-0.352 2.508,-0.046 3.629,-0.113 3.824,-0.226 0.559,-0.316 0.59,-0.52 0.656,-4.383 l 0.063,-3.668 0.809,-0.09 c 0.687,-0.074 0.859,-0.144 1.152,-0.468 0.465,-0.516 0.461,-1.11 -0.008,-1.637 -0.305,-0.34 -0.461,-0.403 -1.152,-0.469 l -0.801,-0.074 v -4.418 -4.418 l 0.551,-0.074 c 0.703,-0.094 1.129,-0.551 1.129,-1.211 0,-0.633 -0.278,-0.977 -1.071,-1.328 l -0.672,-0.297 0.004,-3.707 c 0,-3.969 0.032,-4.184 0.621,-4.485 0.438,-0.218 11.821,-0.23 11.821,-0.011 z m -7.102,5.941 c -0.277,0.273 -0.363,0.477 -0.363,0.84 0,0.715 0.726,5.133 0.902,5.496 0.223,0.457 0.875,0.805 1.324,0.707 0.622,-0.137 1.008,-0.633 1.008,-1.297 -0.004,-0.734 -0.711,-5.187 -0.875,-5.492 -0.375,-0.707 -1.414,-0.84 -1.996,-0.254 z m 0.973,16.445 c -0.516,0.297 -0.59,0.727 -0.59,3.356 v 2.508 l 0.422,0.422 c 0.742,0.738 1.781,0.464 2.062,-0.547 0.071,-0.254 0.125,-1.36 0.125,-2.453 0,-2.219 -0.105,-2.793 -0.578,-3.168 -0.347,-0.274 -1.074,-0.332 -1.441,-0.118 z m 0.508,14.508 c -1.164,1.156 -1.891,1.977 -1.973,2.231 -0.285,0.863 0.582,1.828 1.453,1.613 0.227,-0.055 1.035,-0.766 2.254,-1.981 1.856,-1.855 1.895,-1.906 1.895,-2.429 0,-0.75 -0.508,-1.262 -1.254,-1.262 -0.516,0 -0.582,0.051 -2.375,1.828 z m -1.664,9.379 c -0.278,0.285 -0.364,0.496 -0.364,0.871 0,0.465 0.086,0.582 1.446,1.942 1.371,1.367 1.472,1.441 1.968,1.457 0.446,0.011 0.582,-0.051 0.887,-0.391 0.402,-0.453 0.465,-0.957 0.188,-1.496 -0.098,-0.184 -0.739,-0.883 -1.426,-1.551 -1.192,-1.156 -1.274,-1.211 -1.793,-1.211 -0.442,0 -0.61,0.07 -0.906,0.379 z m 0.183,14.043 c -0.289,0.289 -0.363,0.477 -0.363,0.895 0,0.511 0.051,0.578 1.594,2.125 1.547,1.543 1.613,1.597 2.125,1.597 0.75,0 1.257,-0.511 1.257,-1.261 0,-0.52 -0.046,-0.583 -1.593,-2.125 -1.543,-1.543 -1.606,-1.594 -2.125,-1.594 -0.422,0 -0.606,0.078 -0.895,0.363 z"
         style="fill:#000000;fill-opacity:1;fill-rule:nonzero;stroke:none"
         id="path62"
         inkscape:connector-curvature="0" /><g
         id="g64"
         transform="matrix(1,0,0,-1,0,595.27557)"><path
           d="m 562.957,429.871 h 95.715 c 4.078,0 7.363,3.281 7.363,7.363 v 95.715 c 0,4.078 -3.285,7.364 -7.363,7.364 h -95.715 c -4.078,0 -7.363,-3.286 -7.363,-7.364 v -95.715 c 0,-4.082 3.285,-7.363 7.363,-7.363 z"
           style="fill:#50be87;fill-opacity:1;fill-rule:nonzero;stroke:#000000;stroke-width:2.94508696;stroke-linecap:round;stroke-linejoin:round;stroke-miterlimit:4;stroke-dasharray:none;stroke-opacity:1"
           id="path66"
           inkscape:connector-curvature="0" /></g><text
         transform="matrix(1,0,0,-1,586.6037,62.635222)"
         style="font-variant:normal;font-weight:normal;font-size:11.63636398px;font-family:Arial;-inkscape-font-specification:Arial;writing-mode:lr-tb;fill:#000000;fill-opacity:1;fill-rule:nonzero;stroke:none"
         id="text70"><tspan
           x="0 8.4014549 16.16291 24.576 31.674183 40.087273"
           y="0"
           sodipodi:role="line"
           id="tspan68">CACTUS</tspan></text>
<path
         d="m 604.488,76.678 c -1.156,0.238 -2.164,1.059 -2.679,2.18 -0.274,0.593 -0.289,0.777 -0.329,4.136 -0.023,1.934 -0.078,3.516 -0.125,3.516 -0.042,0 -0.375,-0.113 -0.738,-0.25 -0.945,-0.359 -1.461,-0.328 -1.906,0.113 -0.285,0.289 -0.363,0.477 -0.363,0.887 0,0.707 0.375,1.027 1.867,1.602 l 1.183,0.453 v 4.972 4.977 l -1.121,0.066 c -1.183,0.071 -1.574,0.223 -1.797,0.711 -0.23,0.512 -0.152,0.996 0.231,1.43 0.355,0.398 0.391,0.406 1.559,0.449 l 1.195,0.043 -0.035,2.82 -0.032,2.817 -2.675,0.07 c -3.035,0.078 -3.809,0.223 -5.414,0.992 -0.547,0.262 -1.344,0.762 -1.774,1.106 -0.426,0.347 -0.855,0.633 -0.953,0.633 -0.094,0 -0.473,-0.141 -0.836,-0.309 -0.785,-0.367 -1.125,-0.387 -1.601,-0.105 -0.747,0.437 -0.836,1.343 -0.2,1.98 0.235,0.234 0.508,0.426 0.61,0.426 0.101,0 0.25,0.082 0.336,0.179 0.121,0.149 0.101,0.266 -0.098,0.594 -0.133,0.223 -0.445,0.91 -0.688,1.528 -0.878,2.23 -1.316,4.578 -1.433,7.714 l -0.082,2.114 -1.082,0.066 c -0.91,0.055 -1.129,0.109 -1.395,0.359 -0.41,0.383 -0.504,0.875 -0.277,1.418 0.246,0.59 0.578,0.747 1.758,0.829 l 0.996,0.066 0.062,4.668 0.063,4.664 0.355,0.777 c 0.442,0.95 1.414,1.907 2.414,2.371 0.606,0.286 0.883,0.332 1.836,0.336 1,0 1.203,-0.039 1.926,-0.39 1.16,-0.559 2.145,-1.61 2.531,-2.707 0.086,-0.25 0.161,-2.93 0.215,-7.602 0.082,-7.676 0.121,-8.187 0.727,-9.371 0.496,-0.969 0.672,-1.031 2.801,-0.992 l 1.878,0.035 0.036,2.02 c 0.015,1.113 -0.016,2.023 -0.075,2.023 -0.062,0 -0.214,-0.117 -0.347,-0.262 -0.653,-0.722 -1.391,-0.785 -2.008,-0.168 -0.395,0.395 -0.43,0.485 -0.367,0.953 0.058,0.454 0.23,0.676 1.445,1.895 l 1.379,1.383 -0.031,5.226 -0.032,5.223 -0.859,0.07 c -0.766,0.067 -0.902,0.121 -1.215,0.469 -0.863,0.969 -0.062,2.133 1.469,2.133 h 0.637 l 0.062,3.765 c 0.055,3.641 0.071,3.801 0.391,4.883 0.769,2.567 2.597,4.746 4.988,5.946 2.348,1.175 5.445,1.261 7.93,0.218 2.101,-0.879 4.269,-3.066 5.125,-5.168 0.594,-1.464 0.699,-2.382 0.699,-6.14 0,-3.742 -0.023,-3.625 0.641,-3.625 0.41,0 0.976,-0.668 0.976,-1.149 0,-0.488 -0.195,-0.808 -1.015,-1.66 l -0.606,-0.625 0.031,-4.847 0.032,-4.848 1.793,-0.035 c 2.214,-0.043 2.253,-0.02 2.711,1.547 0.183,0.628 0.222,1.609 0.281,7.136 l 0.07,6.407 0.348,0.71 c 0.886,1.805 2.91,2.774 4.789,2.293 1.304,-0.332 2.375,-1.222 2.933,-2.425 0.246,-0.535 0.27,-0.836 0.329,-4.246 l 0.062,-3.672 1.492,-0.063 c 1.543,-0.066 1.899,-0.172 2.235,-0.652 0.375,-0.535 0.152,-1.527 -0.407,-1.793 -0.113,-0.055 -0.91,-0.129 -1.765,-0.164 L 634,131.74 l -0.078,-2.054 c -0.133,-3.453 -0.625,-5.664 -1.789,-8.024 -0.715,-1.453 -1.594,-2.597 -2.59,-3.375 -0.32,-0.25 -0.582,-0.492 -0.582,-0.535 0,-0.043 0.418,-0.496 0.934,-1.004 1.082,-1.078 1.281,-1.511 1.007,-2.168 -0.226,-0.543 -0.871,-0.898 -1.398,-0.765 -0.207,0.05 -0.902,0.629 -1.699,1.418 l -1.348,1.328 -2.824,-0.043 c -1.551,-0.024 -2.867,-0.082 -2.918,-0.133 -0.055,-0.051 -0.082,-1.656 -0.063,-3.566 l 0.032,-3.477 1.539,-0.063 c 1.492,-0.058 1.543,-0.07 1.832,-0.41 0.527,-0.609 0.347,-1.597 -0.356,-1.972 -0.152,-0.082 -0.89,-0.18 -1.644,-0.219 l -1.371,-0.074 -0.032,-4.742 c -0.023,-3.7 0.004,-4.77 0.125,-4.872 0.086,-0.07 0.598,-0.308 1.133,-0.531 0.723,-0.297 1.039,-0.504 1.219,-0.789 0.316,-0.508 0.23,-1.16 -0.207,-1.539 -0.469,-0.406 -0.863,-0.465 -1.508,-0.219 -0.324,0.125 -0.609,0.168 -0.672,0.106 -0.168,-0.168 -0.168,-14.957 0,-15.403 0.196,-0.511 0.051,-1.003 -0.402,-1.386 -0.34,-0.289 -0.469,-0.321 -0.988,-0.262 -0.418,0.051 -0.731,0.008 -1.063,-0.141 -0.418,-0.187 -1.133,-0.214 -6.875,-0.23 -3.523,-0.012 -6.641,0.023 -6.926,0.082 z m 12.028,2.637 c 0,0.082 -0.586,0.746 -1.305,1.476 -1.242,1.258 -1.309,1.352 -1.309,1.848 0,0.828 0.754,1.406 1.563,1.203 0.176,-0.043 0.785,-0.527 1.351,-1.07 0.571,-0.547 1.071,-0.993 1.114,-0.993 0.047,0 0.066,3.032 0.05,6.731 l -0.031,6.734 -1.043,0.418 c -1.211,0.489 -1.367,0.602 -1.593,1.145 -0.141,0.34 -0.141,0.469 0.007,0.824 0.328,0.789 1.063,1.023 1.985,0.637 0.246,-0.102 0.508,-0.188 0.578,-0.188 0.086,0 0.129,3.129 0.129,9.739 0,6.289 0.043,9.898 0.129,10.199 0.25,0.91 0.339,0.933 3.941,0.996 2.91,0.051 3.281,0.082 4.016,0.336 2.5,0.859 4.031,2.972 4.875,6.715 0.257,1.132 0.273,1.566 0.32,8.125 0.043,6.183 0.023,6.972 -0.152,7.316 -0.422,0.809 -1.489,1.106 -2.27,0.629 -0.766,-0.469 -0.754,-0.348 -0.816,-7.098 -0.067,-6.718 -0.106,-7.121 -0.821,-8.648 -0.445,-0.949 -0.89,-1.473 -1.617,-1.899 l -0.578,-0.339 h -3.129 c -3.508,0 -3.519,0.003 -3.773,0.921 -0.074,0.254 -0.125,2.211 -0.125,4.594 l -0.004,4.145 -0.281,-0.098 c -0.153,-0.055 -0.469,-0.098 -0.704,-0.094 -0.574,0.012 -1.128,0.621 -1.128,1.246 0,0.387 0.132,0.582 1.054,1.543 l 1.059,1.098 v 4.777 c 0,5.266 -0.035,5.575 -0.778,6.993 -0.226,0.429 -0.773,1.132 -1.269,1.632 -1.434,1.43 -2.922,2.051 -4.914,2.047 -1.563,0 -3.059,-0.48 -4.051,-1.293 l -0.375,-0.308 1.024,-1.032 c 1.078,-1.097 1.339,-1.546 1.214,-2.113 -0.109,-0.496 -0.726,-0.976 -1.261,-0.976 -0.371,0 -0.578,0.14 -1.473,0.996 -0.57,0.547 -1.094,0.996 -1.156,0.996 -0.192,0 -0.617,-1.117 -0.77,-1.996 -0.082,-0.489 -0.121,-2.051 -0.101,-3.973 l 0.035,-3.168 0.523,-0.129 c 0.75,-0.187 1.157,-0.617 1.157,-1.219 0,-0.82 -0.336,-1.179 -1.243,-1.332 l -0.437,-0.07 -0.063,-10.023 c -0.054,-9.297 -0.078,-10.043 -0.281,-10.356 -0.121,-0.183 -0.371,-0.375 -0.559,-0.43 -0.187,-0.05 -1.656,-0.093 -3.265,-0.089 -2.723,0 -2.965,0.019 -3.508,0.269 -1.328,0.606 -2.223,1.985 -2.723,4.207 -0.273,1.196 -0.285,1.524 -0.336,8.242 -0.05,6.942 -0.054,7.004 -0.324,7.403 -0.148,0.218 -0.465,0.531 -0.703,0.695 -0.359,0.246 -0.551,0.285 -1.148,0.242 -0.766,-0.051 -1.188,-0.281 -1.641,-0.89 -0.254,-0.34 -0.258,-0.457 -0.258,-8.391 0,-7.84 0.008,-8.086 0.281,-9.422 0.438,-2.152 1.528,-5.035 1.903,-5.035 0.07,0 0.328,0.082 0.574,0.187 0.723,0.301 1.133,0.239 1.613,-0.238 0.516,-0.515 0.547,-0.972 0.11,-1.617 -0.172,-0.254 -0.309,-0.484 -0.309,-0.512 0,-0.144 1.012,-0.695 1.742,-0.949 0.742,-0.258 1.094,-0.285 4.356,-0.352 2.508,-0.046 3.625,-0.113 3.82,-0.226 0.563,-0.316 0.594,-0.52 0.656,-4.383 l 0.063,-3.668 0.808,-0.09 c 0.688,-0.074 0.864,-0.144 1.153,-0.468 0.465,-0.516 0.461,-1.11 -0.008,-1.637 -0.305,-0.34 -0.457,-0.403 -1.152,-0.469 l -0.801,-0.074 v -4.418 -4.418 l 0.551,-0.074 c 0.703,-0.094 1.129,-0.551 1.129,-1.211 0,-0.633 -0.274,-0.977 -1.067,-1.328 l -0.676,-0.297 0.004,-3.707 c 0,-3.969 0.031,-4.184 0.621,-4.485 0.438,-0.218 11.821,-0.23 11.821,-0.011 z m -7.102,5.941 c -0.277,0.273 -0.363,0.477 -0.363,0.84 0.004,0.715 0.73,5.133 0.906,5.496 0.219,0.457 0.871,0.805 1.324,0.707 0.621,-0.137 1.004,-0.633 1.004,-1.297 -0.004,-0.734 -0.707,-5.187 -0.871,-5.492 -0.379,-0.707 -1.414,-0.84 -2,-0.254 z m 0.973,16.445 c -0.516,0.297 -0.59,0.727 -0.59,3.356 v 2.508 l 0.422,0.422 c 0.742,0.738 1.781,0.464 2.062,-0.547 0.071,-0.254 0.129,-1.36 0.129,-2.453 0,-2.219 -0.105,-2.793 -0.582,-3.168 -0.348,-0.274 -1.07,-0.332 -1.441,-0.118 z m 0.511,14.508 c -1.164,1.156 -1.894,1.977 -1.976,2.231 -0.285,0.863 0.582,1.828 1.453,1.613 0.227,-0.055 1.035,-0.766 2.254,-1.981 1.855,-1.855 1.898,-1.906 1.898,-2.429 0,-0.75 -0.507,-1.262 -1.257,-1.262 -0.516,0 -0.579,0.051 -2.372,1.828 z m -1.668,9.379 c -0.273,0.285 -0.359,0.496 -0.359,0.871 0,0.465 0.086,0.582 1.442,1.942 1.371,1.367 1.472,1.441 1.968,1.457 0.446,0.011 0.582,-0.051 0.887,-0.391 0.402,-0.453 0.469,-0.957 0.187,-1.496 -0.093,-0.184 -0.734,-0.883 -1.421,-1.551 -1.196,-1.156 -1.278,-1.211 -1.797,-1.211 -0.442,0 -0.61,0.07 -0.907,0.379 z m 0.184,14.043 c -0.289,0.289 -0.363,0.477 -0.363,0.895 0,0.511 0.051,0.578 1.597,2.125 1.543,1.543 1.614,1.597 2.125,1.597 0.747,0 1.254,-0.511 1.254,-1.261 0,-0.52 -0.047,-0.583 -1.589,-2.125 -1.547,-1.543 -1.61,-1.594 -2.125,-1.594 -0.426,0 -0.61,0.078 -0.899,0.363 z"
         style="fill:#000000;fill-opacity:1;fill-rule:nonzero;stroke:none"
         id="path72"
         inkscape:connector-curvature="0" /><g
         id="g74"
         transform="matrix(1,0,0,-1,0,595.27557)"><path
           d="m 690.789,429.871 h 95.715 c 4.078,0 7.363,3.281 7.363,7.363 v 95.715 c 0,4.078 -3.285,7.364 -7.363,7.364 h -95.715 c -4.078,0 -7.363,-3.286 -7.363,-7.364 v -95.715 c 0,-4.082 3.285,-7.363 7.363,-7.363 z"
           style="fill:#50be87;fill-opacity:1;fill-rule:nonzero;stroke:#000000;stroke-width:2.94508696;stroke-linecap:round;stroke-linejoin:round;stroke-miterlimit:4;stroke-dasharray:none;stroke-opacity:1"
           id="path76"
           inkscape:connector-curvature="0" /></g><text
         transform="matrix(1,0,0,-1,714.43656,62.635222)"
         style="font-variant:normal;font-weight:normal;font-size:11.63636398px;font-family:Arial;-inkscape-font-specification:Arial;writing-mode:lr-tb;fill:#000000;fill-opacity:1;fill-rule:nonzero;stroke:none"
         id="text80"><tspan
           x="0 8.4014549 16.16291 24.576 31.674183 40.087273"
           y="0"
           sodipodi:role="line"
           id="tspan78">CACTUS</tspan></text>
<path
         d="m 732.32,76.678 c -1.156,0.238 -2.164,1.059 -2.679,2.18 -0.274,0.593 -0.286,0.777 -0.328,4.136 -0.02,1.934 -0.079,3.516 -0.125,3.516 -0.043,0 -0.375,-0.113 -0.735,-0.25 -0.949,-0.359 -1.465,-0.328 -1.906,0.113 -0.289,0.289 -0.363,0.477 -0.363,0.887 0,0.707 0.371,1.027 1.863,1.602 l 1.183,0.453 v 4.972 4.977 l -1.121,0.066 c -1.183,0.071 -1.574,0.223 -1.793,0.711 -0.234,0.512 -0.156,0.996 0.227,1.43 0.355,0.398 0.391,0.406 1.559,0.449 l 1.195,0.043 -0.031,2.82 -0.036,2.817 -2.675,0.07 c -3.032,0.078 -3.805,0.223 -5.414,0.992 -0.547,0.262 -1.344,0.762 -1.774,1.106 -0.426,0.347 -0.855,0.633 -0.949,0.633 -0.098,0 -0.477,-0.141 -0.84,-0.309 -0.785,-0.367 -1.125,-0.387 -1.601,-0.105 -0.747,0.437 -0.836,1.343 -0.2,1.98 0.235,0.234 0.508,0.426 0.61,0.426 0.101,0 0.25,0.082 0.336,0.179 0.121,0.149 0.101,0.266 -0.094,0.594 -0.137,0.223 -0.449,0.91 -0.691,1.528 -0.879,2.23 -1.317,4.578 -1.434,7.714 l -0.082,2.114 -1.082,0.066 c -0.91,0.055 -1.129,0.109 -1.391,0.359 -0.41,0.383 -0.508,0.875 -0.281,1.418 0.246,0.59 0.578,0.747 1.758,0.829 l 0.996,0.066 0.062,4.668 0.063,4.664 0.359,0.777 c 0.438,0.95 1.41,1.907 2.41,2.371 0.61,0.286 0.883,0.332 1.836,0.336 1,0 1.203,-0.039 1.93,-0.39 1.156,-0.559 2.141,-1.61 2.527,-2.707 0.086,-0.25 0.164,-2.93 0.215,-7.602 0.086,-7.676 0.125,-8.187 0.727,-9.371 0.496,-0.969 0.672,-1.031 2.804,-0.992 l 1.875,0.035 0.036,2.02 c 0.019,1.113 -0.016,2.023 -0.075,2.023 -0.058,0 -0.214,-0.117 -0.343,-0.262 -0.657,-0.722 -1.395,-0.785 -2.008,-0.168 -0.399,0.395 -0.434,0.485 -0.371,0.953 0.058,0.454 0.23,0.676 1.449,1.895 l 1.379,1.383 -0.035,5.226 -0.032,5.223 -0.859,0.07 c -0.766,0.067 -0.902,0.121 -1.215,0.469 -0.863,0.969 -0.062,2.133 1.469,2.133 h 0.641 l 0.058,3.765 c 0.055,3.641 0.071,3.801 0.395,4.883 0.765,2.567 2.594,4.746 4.988,5.946 2.348,1.175 5.441,1.261 7.926,0.218 2.101,-0.879 4.273,-3.066 5.125,-5.168 0.594,-1.464 0.699,-2.382 0.699,-6.14 0,-3.742 -0.023,-3.625 0.641,-3.625 0.41,0 0.976,-0.668 0.976,-1.149 0,-0.488 -0.195,-0.808 -1.015,-1.66 l -0.606,-0.625 0.031,-4.847 0.036,-4.848 1.789,-0.035 c 2.214,-0.043 2.254,-0.02 2.711,1.547 0.183,0.628 0.222,1.609 0.281,7.136 l 0.07,6.407 0.348,0.71 c 0.886,1.805 2.91,2.774 4.789,2.293 1.305,-0.332 2.375,-1.222 2.933,-2.425 0.25,-0.535 0.27,-0.836 0.329,-4.246 l 0.062,-3.672 1.492,-0.063 c 1.543,-0.066 1.899,-0.172 2.235,-0.652 0.375,-0.535 0.152,-1.527 -0.407,-1.793 -0.113,-0.055 -0.91,-0.129 -1.765,-0.164 l -1.555,-0.067 -0.078,-2.054 c -0.133,-3.453 -0.625,-5.664 -1.785,-8.024 -0.715,-1.453 -1.598,-2.597 -2.594,-3.375 -0.32,-0.25 -0.582,-0.492 -0.582,-0.535 0,-0.043 0.418,-0.496 0.934,-1.004 1.082,-1.078 1.285,-1.511 1.007,-2.168 -0.226,-0.543 -0.871,-0.898 -1.394,-0.765 -0.211,0.05 -0.902,0.629 -1.703,1.418 l -1.348,1.328 -2.824,-0.043 c -1.551,-0.024 -2.863,-0.082 -2.918,-0.133 -0.051,-0.051 -0.082,-1.656 -0.063,-3.566 l 0.036,-3.477 1.535,-0.063 c 1.492,-0.058 1.543,-0.07 1.836,-0.41 0.523,-0.609 0.343,-1.597 -0.36,-1.972 -0.152,-0.082 -0.89,-0.18 -1.644,-0.219 l -1.367,-0.074 -0.036,-4.742 c -0.023,-3.7 0.004,-4.77 0.125,-4.872 0.086,-0.07 0.598,-0.308 1.133,-0.531 0.723,-0.297 1.039,-0.504 1.219,-0.789 0.32,-0.508 0.23,-1.16 -0.203,-1.539 -0.469,-0.406 -0.867,-0.465 -1.508,-0.219 -0.328,0.125 -0.613,0.168 -0.676,0.106 -0.168,-0.168 -0.168,-14.957 0.004,-15.403 0.192,-0.511 0.051,-1.003 -0.406,-1.386 -0.34,-0.289 -0.469,-0.321 -0.984,-0.262 -0.422,0.051 -0.735,0.008 -1.063,-0.141 -0.422,-0.187 -1.137,-0.214 -6.879,-0.23 -3.523,-0.012 -6.641,0.023 -6.926,0.082 z m 12.028,2.637 c 0,0.082 -0.586,0.746 -1.305,1.476 -1.242,1.258 -1.305,1.352 -1.305,1.848 0,0.828 0.75,1.406 1.563,1.203 0.172,-0.043 0.781,-0.527 1.347,-1.07 0.571,-0.547 1.071,-0.993 1.118,-0.993 0.043,0 0.066,3.032 0.047,6.731 l -0.032,6.734 -1.039,0.418 c -1.211,0.489 -1.367,0.602 -1.597,1.145 -0.141,0.34 -0.141,0.469 0.007,0.824 0.332,0.789 1.063,1.023 1.989,0.637 0.246,-0.102 0.504,-0.188 0.574,-0.188 0.086,0 0.129,3.129 0.129,9.739 0,6.289 0.047,9.898 0.129,10.199 0.254,0.91 0.34,0.933 3.941,0.996 2.914,0.051 3.281,0.082 4.016,0.336 2.5,0.859 4.031,2.972 4.879,6.715 0.254,1.132 0.269,1.566 0.316,8.125 0.043,6.183 0.027,6.972 -0.152,7.316 -0.418,0.809 -1.485,1.106 -2.266,0.629 -0.769,-0.469 -0.754,-0.348 -0.82,-7.098 -0.067,-6.718 -0.106,-7.121 -0.821,-8.648 -0.445,-0.949 -0.89,-1.473 -1.613,-1.899 l -0.578,-0.339 h -3.129 c -3.512,0 -3.523,0.003 -3.777,0.921 -0.071,0.254 -0.125,2.211 -0.125,4.594 l -0.004,4.145 -0.277,-0.098 c -0.157,-0.055 -0.473,-0.098 -0.704,-0.094 -0.578,0.012 -1.132,0.621 -1.132,1.246 0,0.387 0.132,0.582 1.058,1.543 l 1.055,1.098 v 4.777 c 0,5.266 -0.031,5.575 -0.777,6.993 -0.227,0.429 -0.774,1.132 -1.27,1.632 -1.434,1.43 -2.918,2.051 -4.914,2.047 -1.563,0 -3.055,-0.48 -4.051,-1.293 l -0.371,-0.308 1.02,-1.032 c 1.078,-1.097 1.339,-1.546 1.214,-2.113 -0.109,-0.496 -0.726,-0.976 -1.257,-0.976 -0.375,0 -0.582,0.14 -1.477,0.996 -0.57,0.547 -1.094,0.996 -1.156,0.996 -0.188,0 -0.617,-1.117 -0.77,-1.996 -0.082,-0.489 -0.121,-2.051 -0.101,-3.973 l 0.035,-3.168 0.523,-0.129 c 0.75,-0.187 1.16,-0.617 1.16,-1.219 0,-0.82 -0.339,-1.179 -1.246,-1.332 l -0.437,-0.07 -0.059,-10.023 c -0.058,-9.297 -0.078,-10.043 -0.285,-10.356 -0.117,-0.183 -0.371,-0.375 -0.558,-0.43 -0.188,-0.05 -1.657,-0.093 -3.266,-0.089 -2.723,0 -2.965,0.019 -3.508,0.269 -1.328,0.606 -2.219,1.985 -2.723,4.207 -0.269,1.196 -0.285,1.524 -0.336,8.242 -0.05,6.942 -0.054,7.004 -0.324,7.403 -0.148,0.218 -0.465,0.531 -0.703,0.695 -0.359,0.246 -0.547,0.285 -1.148,0.242 -0.762,-0.051 -1.184,-0.281 -1.641,-0.89 -0.25,-0.34 -0.254,-0.457 -0.254,-8.391 0,-7.84 0.008,-8.086 0.278,-9.422 0.437,-2.152 1.527,-5.035 1.906,-5.035 0.066,0 0.328,0.082 0.57,0.187 0.723,0.301 1.137,0.239 1.613,-0.238 0.516,-0.515 0.547,-0.972 0.11,-1.617 -0.168,-0.254 -0.309,-0.484 -0.309,-0.512 0,-0.144 1.016,-0.695 1.742,-0.949 0.743,-0.258 1.094,-0.285 4.356,-0.352 2.508,-0.046 3.625,-0.113 3.824,-0.226 0.559,-0.316 0.59,-0.52 0.656,-4.383 l 0.059,-3.668 0.812,-0.09 c 0.684,-0.074 0.86,-0.144 1.149,-0.468 0.465,-0.516 0.461,-1.11 -0.008,-1.637 -0.301,-0.34 -0.457,-0.403 -1.152,-0.469 l -0.801,-0.074 v -4.418 -4.418 l 0.551,-0.074 c 0.703,-0.094 1.132,-0.551 1.132,-1.211 0,-0.633 -0.277,-0.977 -1.07,-1.328 l -0.672,-0.297 v -3.707 c 0.004,-3.969 0.032,-4.184 0.625,-4.485 0.434,-0.218 11.817,-0.23 11.817,-0.011 z m -7.102,5.941 c -0.273,0.273 -0.363,0.477 -0.363,0.84 0.004,0.715 0.73,5.133 0.906,5.496 0.219,0.457 0.871,0.805 1.324,0.707 0.621,-0.137 1.004,-0.633 1.004,-1.297 0,-0.734 -0.707,-5.187 -0.871,-5.492 -0.379,-0.707 -1.414,-0.84 -2,-0.254 z m 0.977,16.445 c -0.516,0.297 -0.594,0.727 -0.594,3.356 v 2.508 l 0.426,0.422 c 0.738,0.738 1.777,0.464 2.058,-0.547 0.071,-0.254 0.129,-1.36 0.129,-2.453 0,-2.219 -0.105,-2.793 -0.578,-3.168 -0.351,-0.274 -1.074,-0.332 -1.441,-0.118 z m 0.507,14.508 c -1.164,1.156 -1.89,1.977 -1.976,2.231 -0.285,0.863 0.582,1.828 1.453,1.613 0.231,-0.055 1.035,-0.766 2.254,-1.981 1.859,-1.855 1.898,-1.906 1.898,-2.429 0,-0.75 -0.507,-1.262 -1.257,-1.262 -0.516,0 -0.579,0.051 -2.372,1.828 z m -1.664,9.379 c -0.277,0.285 -0.363,0.496 -0.363,0.871 0,0.465 0.086,0.582 1.445,1.942 1.368,1.367 1.469,1.441 1.969,1.457 0.442,0.011 0.578,-0.051 0.883,-0.391 0.406,-0.453 0.469,-0.957 0.188,-1.496 -0.094,-0.184 -0.735,-0.883 -1.422,-1.551 -1.196,-1.156 -1.278,-1.211 -1.793,-1.211 -0.446,0 -0.614,0.07 -0.907,0.379 z m 0.18,14.043 c -0.285,0.289 -0.363,0.477 -0.363,0.895 0,0.511 0.051,0.578 1.597,2.125 1.543,1.543 1.614,1.597 2.125,1.597 0.747,0 1.254,-0.511 1.254,-1.261 0,-0.52 -0.046,-0.583 -1.589,-2.125 -1.543,-1.543 -1.61,-1.594 -2.125,-1.594 -0.426,0 -0.61,0.078 -0.899,0.363 z"
         style="fill:#000000;fill-opacity:1;fill-rule:nonzero;stroke:none"
         id="path82"
         inkscape:connector-curvature="0" /></g></g></svg>