<?xml version="1.0" encoding="UTF-8" standalone="no"?>
<!-- Created with Inkscape (http://www.inkscape.org/) -->

<svg
   xmlns:dc="http://purl.org/dc/elements/1.1/"
   xmlns:cc="http://creativecommons.org/ns#"
   xmlns:rdf="http://www.w3.org/1999/02/22-rdf-syntax-ns#"
   xmlns:svg="http://www.w3.org/2000/svg"
   xmlns="http://www.w3.org/2000/svg"
   xmlns:sodipodi="http://sodipodi.sourceforge.net/DTD/sodipodi-0.dtd"
   xmlns:inkscape="http://www.inkscape.org/namespaces/inkscape"
   version="1.1"
   id="svg2"
   xml:space="preserve"
   width="1122.5197"
   height="793.70074"
   viewBox="0 0 1122.5197 793.70074"
   sodipodi:docname="Bougie.svg"
   inkscape:version="0.92.2 5c3e80d, 2017-08-06"><metadata
     id="metadata8"><rdf:RDF><cc:Work
         rdf:about=""><dc:format>image/svg+xml</dc:format><dc:type
           rdf:resource="http://purl.org/dc/dcmitype/StillImage" /><dc:title></dc:title></cc:Work></rdf:RDF></metadata><defs
     id="defs6" /><sodipodi:namedview
     pagecolor="#ffffff"
     bordercolor="#666666"
     borderopacity="1"
     objecttolerance="10"
     gridtolerance="10"
     guidetolerance="10"
     inkscape:pageopacity="0"
     inkscape:pageshadow="2"
     inkscape:window-width="961"
     inkscape:window-height="731"
     id="namedview4"
     showgrid="false"
     inkscape:zoom="0.51445126"
     inkscape:cx="514.60818"
     inkscape:cy="88.576819"
     inkscape:window-x="108"
     inkscape:window-y="0"
     inkscape:window-maximized="0"
     inkscape:current-layer="g12"><sodipodi:guide
       position="719.1051,282.37441"
       orientation="-40.196972,0"
       id="guide3777"
       inkscape:locked="false" /><sodipodi:guide
       position="719.1051,322.57139"
       orientation="0,214.82578"
       id="guide3779"
       inkscape:locked="false" /><sodipodi:guide
       position="933.93088,322.57139"
       orientation="40.196972,0"
       id="guide3781"
       inkscape:locked="false" /><sodipodi:guide
       position="933.93088,282.37441"
       orientation="0,-214.82578"
       id="guide3783"
       inkscape:locked="false" /></sodipodi:namedview><g
     id="g10"
     inkscape:groupmode="layer"
     inkscape:label="Bougie"
     transform="matrix(1.3333333,0,0,-1.3333333,0,793.70077)"><g
       id="g12"><g
         id="g14"
         transform="matrix(1,0,0,-1,0,595.27557)"><path
           d="m 49.645,24.934 h 335.003 c 14.274,0 25.77,11.492 25.77,25.769 v 335.004 c 0,14.277 -11.496,25.77 -25.77,25.77 H 49.645 c -14.278,0 -25.77,-11.493 -25.77,-25.77 V 50.703 c 0,-14.277 11.492,-25.769 25.77,-25.769 z"
           style="fill:#ffd200;fill-opacity:1;fill-rule:nonzero;stroke:#000000;stroke-width:10.30780315;stroke-linecap:round;stroke-linejoin:round;stroke-miterlimit:4;stroke-dasharray:none;stroke-opacity:1"
           id="path16"
           inkscape:connector-curvature="0" /></g><path
         d="m 146.762,260.643 c -2.489,0.527 -4.813,1.965 -7.008,4.324 -7.176,7.727 -4.457,20.898 5.141,24.914 2.164,0.906 3.14,0.992 13.906,1.227 l 11.582,0.25 0.199,80.597 0.199,80.598 0.864,2.012 c 1.218,2.843 3.839,5.722 6.464,7.113 l 2.254,1.191 15.973,0.215 15.969,0.215 0.121,2.508 c 0.066,1.379 -0.071,2.758 -0.305,3.062 -0.238,0.305 -1.269,0.809 -2.293,1.118 -1.027,0.308 -3.156,1.492 -4.73,2.625 -7.578,5.457 -11.129,16.203 -8.317,25.175 0.629,2.008 13.074,32.282 14.59,35.489 0.984,2.089 2.848,3.308 5.047,3.312 2.184,0 3.781,-0.891 4.793,-2.676 0.871,-1.535 13.797,-32.597 14.707,-35.336 3.777,-11.379 -1.918,-24.234 -12.633,-28.504 l -2.195,-0.875 v -2.949 -2.949 l 15.773,-0.215 c 15.352,-0.211 15.821,-0.242 17.598,-1.183 2.969,-1.575 5.012,-3.758 6.441,-6.887 l 1.313,-2.871 0.109,-80.5 0.106,-80.5 9.875,-0.008 c 10.703,-0.008 14.55,-0.402 17.129,-1.746 2.773,-1.445 5.183,-4.063 6.609,-7.18 1.187,-2.601 1.312,-3.23 1.309,-6.746 0,-3.059 -0.184,-4.301 -0.864,-5.887 -1.011,-2.363 -3.707,-5.644 -5.824,-7.082 -3.523,-2.402 -0.258,-2.304 -74.148,-2.254 -37.453,0.028 -68.844,0.207 -69.754,0.403 z m 139.457,9.679 c 3.707,2.981 3.793,7.801 0.191,10.391 l -1.363,0.981 -68.84,-0.11 -68.844,-0.113 -1.566,-1.809 c -1.352,-1.562 -1.57,-2.082 -1.57,-3.781 0,-3.094 1.703,-5.668 4.195,-6.348 0.437,-0.121 31.375,-0.191 68.746,-0.156 l 67.949,0.059 z m -32.684,46.692 -0.101,25.871 -1.797,0.496 c -2.668,0.738 -4.789,2.043 -6.696,4.121 -2.148,2.336 -3.246,4.77 -3.707,8.211 -0.199,1.484 -0.367,13.637 -0.371,27 -0.008,21.313 -0.086,24.418 -0.633,25.258 -1.933,2.973 -7.464,2.961 -9.046,-0.02 -0.395,-0.742 -0.555,-7.035 -0.711,-27.398 l -0.2,-26.438 -1.066,-2.449 c -1.301,-2.992 -3.879,-5.844 -6.523,-7.222 -2.938,-1.532 -7.938,-1.711 -11.157,-0.407 -2.871,1.164 -5.867,4.043 -7.347,7.063 l -1.059,2.156 -0.199,24.074 c -0.149,18.071 -0.324,24.305 -0.695,25.004 -1.879,3.531 -7.602,3.778 -9.403,0.403 -0.351,-0.661 -0.535,-6.629 -0.683,-21.969 -0.196,-20.891 -0.207,-21.078 -1.118,-23.067 -2,-4.375 -5.796,-7.589 -9.863,-8.351 -0.875,-0.164 -1.726,-0.516 -1.89,-0.778 -0.364,-0.589 -0.403,-56.75 -0.04,-57.14 0.149,-0.16 16.95,-0.289 37.336,-0.289 h 37.071 z m -34.281,35.793 c 2.527,1.406 2.434,0.398 2.449,26.762 0.008,13.191 0.168,25.281 0.36,26.875 0.433,3.621 1.605,6.261 3.851,8.679 2.184,2.352 4.789,3.731 7.699,4.078 6.793,0.809 12.028,-2.203 14.774,-8.507 l 1.054,-2.415 0.2,-26.48 c 0.168,-22.66 0.285,-26.594 0.797,-27.293 0.917,-1.258 1.726,-1.863 2.496,-1.879 0.66,-0.015 0.699,2.606 0.699,49.11 0,44.714 -0.059,49.21 -0.653,50.121 -1.457,2.238 -0.789,2.199 -36.57,2.199 -37.176,0 -35.277,0.156 -36.746,-3.008 -0.648,-1.402 -0.695,-4.531 -0.699,-46.66 0,-33.43 0.121,-45.285 0.461,-45.652 0.621,-0.668 2.488,0.382 3.429,1.925 0.637,1.047 0.719,3.059 0.903,22.235 0.199,21.027 0.203,21.09 1.133,23.125 2.8,6.121 9.172,9.437 15.484,8.062 4.191,-0.914 8.023,-4.187 9.816,-8.387 0.914,-2.14 0.918,-2.234 1.118,-26.293 l 0.199,-24.144 0.996,-1.156 c 0.551,-0.637 1.359,-1.317 1.797,-1.512 1.277,-0.566 3.738,-0.461 4.953,0.215 z m -6.75,134.355 c 0.129,5.059 0.379,8.278 0.684,8.856 1.238,2.32 5.07,2.336 6.667,0.027 0.762,-1.105 0.848,-1.887 0.961,-8.812 0.067,-4.18 0.274,-7.762 0.454,-7.961 0.601,-0.657 3.597,1.949 5.187,4.511 2.145,3.457 2.715,6.489 1.879,9.996 -0.844,3.54 -11.227,28.411 -11.863,28.411 -0.77,0 -11.844,-27.051 -12.168,-29.723 -0.504,-4.191 1.781,-9.602 5.148,-12.184 2.809,-2.152 2.828,-2.113 3.051,6.879 z"
         style="fill:#000000;fill-opacity:1;fill-rule:nonzero;stroke:none"
         id="path18"
         inkscape:connector-curvature="0" /><text
         transform="matrix(1,0,0,-1,129.19807,212.27799)"
         style="font-variant:normal;font-weight:normal;font-size:40.72727585px;font-family:Arial;-inkscape-font-specification:Arial;writing-mode:lr-tb;fill:#000000;fill-opacity:1;fill-rule:nonzero;stroke:none"
         id="text22"><tspan
           sodipodi:role="line"
           id="tspan20"
           x="0"
           y="0">CANDLE</tspan></text>
<g
         id="g24"
         transform="matrix(1,0,0,-1,0,595.27557)"><path
           d="M 457.746,24.934 H 792.75 c 14.277,0 25.77,11.492 25.77,25.769 v 335.004 c 0,14.277 -11.493,25.77 -25.77,25.77 H 457.746 c -14.277,0 -25.769,-11.493 -25.769,-25.77 V 50.703 c 0,-14.277 11.492,-25.769 25.769,-25.769 z"
           style="fill:#ffd200;fill-opacity:1;fill-rule:nonzero;stroke:#000000;stroke-width:10.30780315;stroke-linecap:round;stroke-linejoin:round;stroke-miterlimit:4;stroke-dasharray:none;stroke-opacity:1"
           id="path26"
           inkscape:connector-curvature="0" /></g><path
         d="m 554.863,260.643 c -2.488,0.527 -4.812,1.965 -7.004,4.324 -7.179,7.727 -4.461,20.898 5.137,24.914 2.164,0.906 3.141,0.992 13.906,1.227 l 11.582,0.25 0.2,80.597 0.199,80.598 0.863,2.012 c 1.223,2.843 3.84,5.722 6.469,7.113 l 2.25,1.191 15.973,0.215 15.972,0.215 0.117,2.508 c 0.067,1.379 -0.07,2.758 -0.304,3.062 -0.235,0.305 -1.27,0.809 -2.293,1.118 -1.028,0.308 -3.157,1.492 -4.731,2.625 -7.574,5.457 -11.125,16.203 -8.316,25.175 0.629,2.008 13.074,32.282 14.59,35.489 0.984,2.089 2.847,3.308 5.047,3.312 2.187,0 3.781,-0.891 4.793,-2.676 0.871,-1.535 13.8,-32.597 14.707,-35.336 3.777,-11.379 -1.918,-24.234 -12.629,-28.504 l -2.2,-0.875 v -2.949 -2.949 l 15.774,-0.215 c 15.355,-0.211 15.82,-0.242 17.598,-1.183 2.968,-1.575 5.011,-3.758 6.441,-6.887 l 1.316,-2.871 0.106,-80.5 0.105,-80.5 9.875,-0.008 c 10.703,-0.008 14.551,-0.402 17.129,-1.746 2.774,-1.445 5.184,-4.063 6.61,-7.18 1.191,-2.601 1.312,-3.23 1.308,-6.746 0,-3.059 -0.183,-4.301 -0.863,-5.887 -1.012,-2.363 -3.707,-5.644 -5.82,-7.082 -3.528,-2.402 -0.262,-2.304 -74.153,-2.254 -37.453,0.028 -68.84,0.207 -69.754,0.403 z m 139.457,9.679 c 3.707,2.981 3.797,7.801 0.192,10.391 l -1.364,0.981 -68.839,-0.11 -68.84,-0.113 -1.571,-1.809 c -1.351,-1.562 -1.566,-2.082 -1.566,-3.781 0,-3.094 1.699,-5.668 4.191,-6.348 0.438,-0.121 31.375,-0.191 68.747,-0.156 l 67.949,0.059 z m -32.683,46.692 -0.102,25.871 -1.797,0.496 c -2.668,0.738 -4.785,2.043 -6.691,4.121 -2.149,2.336 -3.25,4.77 -3.711,8.211 -0.199,1.484 -0.367,13.637 -0.371,27 -0.008,21.313 -0.086,24.418 -0.629,25.258 -1.938,2.973 -7.469,2.961 -9.051,-0.02 -0.39,-0.742 -0.555,-7.035 -0.711,-27.398 l -0.199,-26.438 -1.066,-2.449 c -1.301,-2.992 -3.879,-5.844 -6.524,-7.222 -2.933,-1.532 -7.937,-1.711 -11.156,-0.407 -2.871,1.164 -5.863,4.043 -7.348,7.063 l -1.054,2.156 -0.204,24.074 c -0.148,18.071 -0.32,24.305 -0.695,25.004 -1.879,3.531 -7.601,3.778 -9.402,0.403 -0.352,-0.661 -0.535,-6.629 -0.68,-21.969 -0.199,-20.891 -0.207,-21.078 -1.117,-23.067 -2.004,-4.375 -5.797,-7.589 -9.863,-8.351 -0.879,-0.164 -1.731,-0.516 -1.891,-0.778 -0.367,-0.589 -0.406,-56.75 -0.039,-57.14 0.144,-0.16 16.945,-0.289 37.336,-0.289 h 37.07 z m -34.282,35.793 c 2.528,1.406 2.434,0.398 2.45,26.762 0.008,13.191 0.168,25.281 0.359,26.875 0.434,3.621 1.606,6.261 3.852,8.679 2.187,2.352 4.789,3.731 7.699,4.078 6.797,0.809 12.031,-2.203 14.773,-8.507 l 1.055,-2.415 0.199,-26.48 c 0.172,-22.66 0.285,-26.594 0.797,-27.293 0.922,-1.258 1.731,-1.863 2.496,-1.879 0.66,-0.015 0.699,2.606 0.699,49.11 0,44.714 -0.058,49.21 -0.652,50.121 -1.457,2.238 -0.789,2.199 -36.566,2.199 -37.18,0 -35.282,0.156 -36.75,-3.008 -0.649,-1.402 -0.696,-4.531 -0.696,-46.66 -0.004,-33.43 0.118,-45.285 0.457,-45.652 0.621,-0.668 2.493,0.382 3.43,1.925 0.641,1.047 0.723,3.059 0.902,22.235 0.2,21.027 0.204,21.09 1.133,23.125 2.801,6.121 9.172,9.437 15.485,8.062 4.191,-0.914 8.023,-4.187 9.816,-8.387 0.914,-2.14 0.918,-2.234 1.117,-26.293 l 0.199,-24.144 1,-1.156 c 0.547,-0.637 1.356,-1.317 1.797,-1.512 1.274,-0.566 3.739,-0.461 4.949,0.215 z m -6.746,134.355 c 0.125,5.059 0.375,8.278 0.684,8.856 1.234,2.32 5.07,2.336 6.664,0.027 0.762,-1.105 0.848,-1.887 0.961,-8.812 0.066,-4.18 0.273,-7.762 0.453,-7.961 0.602,-0.657 3.602,1.949 5.188,4.511 2.144,3.457 2.714,6.489 1.879,9.996 -0.844,3.54 -11.227,28.411 -11.864,28.411 -0.769,0 -11.844,-27.051 -12.168,-29.723 -0.504,-4.191 1.782,-9.602 5.149,-12.184 2.808,-2.152 2.828,-2.113 3.054,6.879 z"
         style="fill:#000000;fill-opacity:1;fill-rule:nonzero;stroke:none"
         id="path28"
         inkscape:connector-curvature="0" /><text
         transform="matrix(1,0,0,-1,537.30042,212.27799)"
         style="font-variant:normal;font-weight:normal;font-size:40.72727585px;font-family:Arial;-inkscape-font-specification:Arial;writing-mode:lr-tb;fill:#000000;fill-opacity:1;fill-rule:nonzero;stroke:none"
         id="text32"><tspan
           sodipodi:role="line"
           id="tspan30"
           x="0"
           y="0">CANDLE</tspan></text>
<g
         id="g34"
         transform="matrix(1,0,0,-1,0,595.27557)"><path
           d="m 31.09,430.461 h 134 c 5.711,0 10.308,4.594 10.308,10.305 V 574.77 c 0,5.71 -4.597,10.304 -10.308,10.304 h -134 c -5.711,0 -10.309,-4.594 -10.309,-10.304 V 440.766 c 0,-5.711 4.598,-10.305 10.309,-10.305 z"
           style="fill:#ffd200;fill-opacity:1;fill-rule:nonzero;stroke:#000000;stroke-width:4.12312078;stroke-linecap:round;stroke-linejoin:round;stroke-miterlimit:4;stroke-dasharray:none;stroke-opacity:1"
           id="path36"
           inkscape:connector-curvature="0" /></g><path
         d="m 69.938,40.936 c -0.997,0.211 -1.926,0.789 -2.805,1.73 -2.871,3.09 -1.781,8.36 2.058,9.965 0.864,0.363 1.254,0.398 5.563,0.492 l 4.629,0.102 0.082,32.238 0.078,32.238 0.348,0.805 c 0.488,1.137 1.535,2.289 2.586,2.844 l 0.902,0.476 6.387,0.086 6.39,0.086 0.047,1.004 c 0.027,0.551 -0.027,1.106 -0.125,1.227 -0.094,0.121 -0.504,0.324 -0.914,0.445 -0.41,0.125 -1.262,0.598 -1.894,1.051 -3.028,2.183 -4.45,6.48 -3.325,10.07 0.25,0.805 5.231,12.91 5.836,14.195 0.395,0.836 1.137,1.325 2.02,1.325 0.871,0 1.512,-0.356 1.914,-1.071 0.351,-0.613 5.519,-13.039 5.883,-14.132 1.511,-4.555 -0.766,-9.696 -5.051,-11.403 l -0.879,-0.351 v -1.18 -1.18 l 6.309,-0.086 c 6.14,-0.082 6.328,-0.093 7.039,-0.472 1.187,-0.629 2.004,-1.504 2.578,-2.754 l 0.523,-1.149 0.043,-32.199 0.043,-32.199 3.949,-0.004 c 4.282,-0.004 5.821,-0.16 6.852,-0.699 1.109,-0.578 2.074,-1.625 2.644,-2.871 0.477,-1.043 0.524,-1.293 0.524,-2.7 0,-1.222 -0.074,-1.722 -0.344,-2.355 -0.406,-0.945 -1.484,-2.258 -2.328,-2.832 -1.414,-0.961 -0.105,-0.922 -29.66,-0.902 -14.985,0.011 -27.539,0.082 -27.902,0.16 z m 55.781,3.875 c 1.484,1.191 1.519,3.117 0.078,4.156 L 125.25,49.358 97.715,49.315 70.18,49.268 69.551,48.545 c -0.543,-0.625 -0.629,-0.832 -0.629,-1.512 0,-1.238 0.683,-2.269 1.68,-2.539 0.175,-0.05 12.55,-0.078 27.496,-0.062 l 27.179,0.023 z m -13.074,18.676 -0.04,10.347 -0.718,0.199 c -1.067,0.293 -1.914,0.817 -2.676,1.649 -0.859,0.933 -1.301,1.906 -1.484,3.281 -0.082,0.598 -0.149,5.457 -0.149,10.801 -0.004,8.527 -0.035,9.769 -0.254,10.105 -0.773,1.188 -2.984,1.184 -3.617,-0.007 -0.16,-0.297 -0.223,-2.817 -0.285,-10.961 l -0.082,-10.575 -0.426,-0.98 c -0.519,-1.195 -1.551,-2.336 -2.609,-2.891 -1.172,-0.609 -3.176,-0.683 -4.461,-0.16 -1.149,0.465 -2.348,1.617 -2.938,2.824 l -0.426,0.864 -0.078,9.629 c -0.062,7.226 -0.129,9.722 -0.281,10.003 -0.75,1.411 -3.039,1.508 -3.758,0.161 -0.14,-0.266 -0.215,-2.653 -0.273,-8.789 -0.078,-8.356 -0.082,-8.43 -0.449,-9.227 -0.801,-1.75 -2.317,-3.035 -3.946,-3.34 -0.351,-0.066 -0.691,-0.207 -0.754,-0.312 -0.148,-0.235 -0.164,-22.7 -0.015,-22.856 0.058,-0.062 6.777,-0.113 14.933,-0.113 h 14.829 z M 98.934,77.803 c 1.011,0.562 0.972,0.16 0.98,10.707 0,5.273 0.066,10.109 0.145,10.746 0.171,1.449 0.64,2.504 1.539,3.473 0.875,0.941 1.914,1.492 3.078,1.633 2.719,0.324 4.812,-0.883 5.91,-3.403 l 0.422,-0.969 0.078,-10.589 c 0.07,-9.067 0.117,-10.641 0.32,-10.918 0.367,-0.504 0.692,-0.746 1,-0.754 0.266,-0.004 0.278,1.043 0.278,19.644 0,17.887 -0.024,19.684 -0.258,20.051 -0.586,0.895 -0.317,0.879 -14.629,0.879 -14.871,0 -14.113,0.062 -14.699,-1.203 -0.262,-0.563 -0.278,-1.813 -0.278,-18.664 0,-13.371 0.047,-18.114 0.18,-18.262 0.25,-0.266 1,0.152 1.375,0.77 0.254,0.421 0.289,1.222 0.359,8.894 0.082,8.41 0.082,8.438 0.454,9.25 1.121,2.449 3.667,3.777 6.195,3.227 1.676,-0.368 3.207,-1.676 3.926,-3.356 0.367,-0.855 0.367,-0.894 0.445,-10.515 l 0.082,-9.661 0.398,-0.461 c 0.219,-0.253 0.543,-0.527 0.719,-0.605 0.512,-0.227 1.496,-0.184 1.981,0.086 z m -2.7,53.742 c 0.051,2.024 0.149,3.309 0.274,3.543 0.496,0.926 2.027,0.934 2.664,0.012 0.308,-0.446 0.34,-0.758 0.387,-3.528 0.027,-1.671 0.109,-3.105 0.179,-3.183 0.242,-0.262 1.442,0.777 2.078,1.805 0.856,1.382 1.086,2.593 0.75,4 -0.336,1.414 -4.492,11.363 -4.746,11.363 -0.308,0 -4.738,-10.82 -4.867,-11.891 -0.199,-1.676 0.715,-3.84 2.063,-4.871 1.121,-0.863 1.129,-0.848 1.218,2.75 z"
         style="fill:#000000;fill-opacity:1;fill-rule:nonzero;stroke:none"
         id="path38"
         inkscape:connector-curvature="0" /><text
         transform="matrix(1,0,0,-1,62.911372,21.591017)"
         style="font-variant:normal;font-weight:normal;font-size:16.29091072px;font-family:Arial;-inkscape-font-specification:Arial;writing-mode:lr-tb;fill:#000000;fill-opacity:1;fill-rule:nonzero;stroke:none"
         id="text42"><tspan
           sodipodi:role="line"
           id="tspan40"
           x="0"
           y="0">CANDLE</tspan></text>
<g
         id="g44"
         transform="matrix(1,0,0,-1,0,595.27557)"><path
           d="m 203.852,430.461 h 134 c 5.711,0 10.308,4.594 10.308,10.305 V 574.77 c 0,5.71 -4.597,10.304 -10.308,10.304 h -134 c -5.711,0 -10.309,-4.594 -10.309,-10.304 V 440.766 c 0,-5.711 4.598,-10.305 10.309,-10.305 z"
           style="fill:#ffd200;fill-opacity:1;fill-rule:nonzero;stroke:#000000;stroke-width:4.12312078;stroke-linecap:round;stroke-linejoin:round;stroke-miterlimit:4;stroke-dasharray:none;stroke-opacity:1"
           id="path46"
           inkscape:connector-curvature="0" /></g><path
         d="m 242.699,40.936 c -0.996,0.211 -1.926,0.789 -2.804,1.73 -2.872,3.09 -1.782,8.36 2.058,9.965 0.863,0.363 1.254,0.398 5.563,0.492 l 4.629,0.102 0.082,32.238 0.078,32.238 0.347,0.805 c 0.489,1.137 1.536,2.289 2.586,2.844 l 0.903,0.476 6.386,0.086 6.391,0.086 0.047,1.004 c 0.027,0.551 -0.027,1.106 -0.125,1.227 -0.094,0.121 -0.504,0.324 -0.914,0.445 -0.41,0.125 -1.262,0.598 -1.895,1.051 -3.027,2.183 -4.449,6.48 -3.324,10.07 0.25,0.805 5.231,12.91 5.836,14.195 0.395,0.836 1.137,1.325 2.02,1.325 0.871,0 1.511,-0.356 1.914,-1.071 0.351,-0.613 5.519,-13.039 5.882,-14.132 1.512,-4.555 -0.765,-9.696 -5.05,-11.403 l -0.879,-0.351 v -1.18 -1.18 l 6.308,-0.086 c 6.141,-0.082 6.328,-0.093 7.039,-0.472 1.188,-0.629 2.004,-1.504 2.578,-2.754 l 0.524,-1.149 0.043,-32.199 0.043,-32.199 3.949,-0.004 c 4.281,-0.004 5.82,-0.16 6.852,-0.699 1.109,-0.578 2.074,-1.625 2.644,-2.871 0.477,-1.043 0.524,-1.293 0.524,-2.7 0,-1.222 -0.075,-1.722 -0.344,-2.355 -0.406,-0.945 -1.485,-2.258 -2.328,-2.832 -1.414,-0.961 -0.106,-0.922 -29.664,-0.902 -14.981,0.011 -27.535,0.082 -27.899,0.16 z m 55.781,3.875 c 1.485,1.191 1.52,3.117 0.079,4.156 l -0.547,0.391 -27.535,-0.043 -27.536,-0.047 -0.628,-0.723 c -0.543,-0.625 -0.629,-0.832 -0.629,-1.512 0,-1.238 0.683,-2.269 1.679,-2.539 0.176,-0.05 12.551,-0.078 27.496,-0.062 l 27.18,0.023 z m -13.074,18.676 -0.039,10.347 -0.719,0.199 c -1.066,0.293 -1.914,0.817 -2.675,1.649 -0.86,0.933 -1.301,1.906 -1.485,3.281 -0.082,0.598 -0.148,5.457 -0.148,10.801 -0.004,8.527 -0.035,9.769 -0.254,10.105 -0.773,1.188 -2.984,1.184 -3.617,-0.007 -0.16,-0.297 -0.223,-2.817 -0.285,-10.961 l -0.082,-10.575 -0.426,-0.98 c -0.52,-1.195 -1.551,-2.336 -2.61,-2.891 -1.171,-0.609 -3.175,-0.683 -4.461,-0.16 -1.148,0.465 -2.347,1.617 -2.941,2.824 l -0.422,0.864 -0.078,9.629 c -0.062,7.226 -0.129,9.722 -0.281,10.003 -0.75,1.411 -3.039,1.508 -3.758,0.161 -0.141,-0.266 -0.215,-2.653 -0.273,-8.789 -0.082,-8.356 -0.082,-8.43 -0.45,-9.227 -0.8,-1.75 -2.316,-3.035 -3.945,-3.34 -0.352,-0.066 -0.691,-0.207 -0.754,-0.312 -0.148,-0.235 -0.164,-22.7 -0.015,-22.856 0.058,-0.062 6.777,-0.113 14.933,-0.113 h 14.828 z m -13.711,14.316 c 1.012,0.562 0.973,0.16 0.981,10.707 0,5.273 0.066,10.109 0.144,10.746 0.172,1.449 0.641,2.504 1.539,3.473 0.875,0.941 1.914,1.492 3.079,1.633 2.718,0.324 4.812,-0.883 5.91,-3.403 l 0.422,-0.969 0.078,-10.589 c 0.07,-9.067 0.117,-10.641 0.32,-10.918 0.367,-0.504 0.691,-0.746 1,-0.754 0.266,-0.004 0.277,1.043 0.277,19.644 0,17.887 -0.023,19.684 -0.257,20.051 -0.586,0.895 -0.317,0.879 -14.629,0.879 -14.871,0 -14.114,0.062 -14.7,-1.203 -0.261,-0.563 -0.277,-1.813 -0.277,-18.664 0,-13.371 0.047,-18.114 0.18,-18.262 0.25,-0.266 1,0.152 1.375,0.77 0.254,0.421 0.289,1.222 0.359,8.894 0.082,8.41 0.082,8.438 0.453,9.25 1.121,2.449 3.668,3.777 6.196,3.227 1.675,-0.368 3.207,-1.676 3.925,-3.356 0.368,-0.855 0.368,-0.894 0.446,-10.515 l 0.082,-9.661 0.398,-0.461 c 0.219,-0.253 0.543,-0.527 0.719,-0.605 0.512,-0.227 1.496,-0.184 1.98,0.086 z m -2.699,53.742 c 0.051,2.024 0.149,3.309 0.274,3.543 0.496,0.926 2.027,0.934 2.664,0.012 0.308,-0.446 0.339,-0.758 0.386,-3.528 0.028,-1.671 0.11,-3.105 0.18,-3.183 0.242,-0.262 1.441,0.777 2.078,1.805 0.856,1.382 1.086,2.593 0.75,4 -0.336,1.414 -4.492,11.363 -4.746,11.363 -0.309,0 -4.738,-10.82 -4.867,-11.891 -0.199,-1.676 0.715,-3.84 2.058,-4.871 1.125,-0.863 1.133,-0.848 1.223,2.75 z"
         style="fill:#000000;fill-opacity:1;fill-rule:nonzero;stroke:none"
         id="path48"
         inkscape:connector-curvature="0" /><text
         transform="matrix(1,0,0,-1,235.67298,21.591017)"
         style="font-variant:normal;font-weight:normal;font-size:16.29091072px;font-family:Arial;-inkscape-font-specification:Arial;writing-mode:lr-tb;fill:#000000;fill-opacity:1;fill-rule:nonzero;stroke:none"
         id="text52"><tspan
           sodipodi:role="line"
           id="tspan50"
           x="0"
           y="0">CANDLE</tspan></text>
<g
         id="g54"
         transform="matrix(1,0,0,-1,0,595.27557)"><path
           d="m 435.656,429.871 h 95.719 c 4.078,0 7.359,3.281 7.359,7.363 v 95.715 c 0,4.078 -3.281,7.364 -7.359,7.364 h -95.719 c -4.078,0 -7.359,-3.286 -7.359,-7.364 v -95.715 c 0,-4.082 3.281,-7.363 7.359,-7.363 z"
           style="fill:#ffd200;fill-opacity:1;fill-rule:nonzero;stroke:#000000;stroke-width:2.94508696;stroke-linecap:round;stroke-linejoin:round;stroke-miterlimit:4;stroke-dasharray:none;stroke-opacity:1"
           id="path56"
           inkscape:connector-curvature="0" /></g><path
         d="m 463.406,76.92 c -0.711,0.152 -1.375,0.563 -2.004,1.234 -2.047,2.211 -1.273,5.973 1.469,7.118 0.621,0.261 0.899,0.285 3.977,0.351 l 3.308,0.074 0.055,23.028 0.059,23.027 0.246,0.574 c 0.347,0.813 1.097,1.637 1.847,2.032 l 0.645,0.339 4.562,0.063 4.563,0.062 0.035,0.715 c 0.02,0.395 -0.02,0.789 -0.09,0.875 -0.066,0.09 -0.359,0.231 -0.652,0.321 -0.293,0.089 -0.903,0.425 -1.352,0.75 -2.164,1.558 -3.179,4.629 -2.375,7.191 0.18,0.574 3.735,9.223 4.168,10.141 0.281,0.597 0.813,0.945 1.442,0.945 0.625,0 1.078,-0.254 1.367,-0.762 0.25,-0.441 3.945,-9.316 4.203,-10.097 1.078,-3.25 -0.547,-6.922 -3.609,-8.145 l -0.625,-0.25 v -0.84 -0.844 l 4.503,-0.062 c 4.387,-0.059 4.52,-0.066 5.028,-0.336 0.851,-0.453 1.433,-1.074 1.84,-1.969 l 0.379,-0.82 0.027,-23 0.031,-23 2.824,-0.004 c 3.055,0 4.157,-0.113 4.891,-0.496 0.793,-0.414 1.48,-1.164 1.891,-2.051 0.339,-0.746 0.375,-0.926 0.375,-1.93 0,-0.875 -0.055,-1.23 -0.25,-1.683 -0.289,-0.672 -1.059,-1.609 -1.664,-2.024 -1.004,-0.683 -0.075,-0.656 -21.184,-0.64 -10.699,0.008 -19.668,0.058 -19.93,0.113 z m 39.844,2.766 c 1.059,0.851 1.086,2.23 0.055,2.968 l -0.387,0.282 -19.672,-0.032 -19.668,-0.031 -0.449,-0.519 c -0.387,-0.446 -0.445,-0.594 -0.445,-1.082 0,-0.883 0.484,-1.618 1.195,-1.813 0.125,-0.031 8.965,-0.055 19.644,-0.043 l 19.415,0.016 z m -9.336,13.34 -0.031,7.39 -0.512,0.145 c -0.762,0.211 -1.367,0.582 -1.914,1.176 -0.613,0.667 -0.926,1.363 -1.059,2.347 -0.058,0.422 -0.105,3.895 -0.105,7.715 -0.004,6.09 -0.023,6.973 -0.18,7.215 -0.554,0.848 -2.133,0.848 -2.586,-0.004 -0.113,-0.215 -0.16,-2.012 -0.203,-7.828 l -0.058,-7.555 -0.305,-0.699 c -0.371,-0.856 -1.109,-1.672 -1.863,-2.066 -0.84,-0.438 -2.27,-0.489 -3.188,-0.114 -0.82,0.332 -1.676,1.153 -2.097,2.016 l -0.305,0.617 -0.055,6.879 c -0.043,5.164 -0.094,6.941 -0.199,7.144 -0.539,1.008 -2.172,1.079 -2.688,0.114 -0.101,-0.188 -0.152,-1.895 -0.195,-6.278 -0.055,-5.968 -0.058,-6.023 -0.32,-6.589 -0.571,-1.25 -1.656,-2.168 -2.817,-2.387 -0.25,-0.047 -0.492,-0.145 -0.539,-0.219 -0.105,-0.172 -0.117,-16.215 -0.011,-16.328 0.043,-0.047 4.839,-0.082 10.668,-0.082 h 10.589 z m -9.797,10.226 c 0.723,0.402 0.696,0.113 0.699,7.649 0.004,3.765 0.051,7.222 0.106,7.675 0.121,1.036 0.457,1.789 1.098,2.481 0.625,0.672 1.371,1.066 2.199,1.164 1.941,0.234 3.437,-0.629 4.222,-2.43 l 0.301,-0.691 0.059,-7.563 c 0.047,-6.476 0.082,-7.597 0.226,-7.8 0.262,-0.356 0.493,-0.532 0.715,-0.536 0.188,-0.004 0.199,0.746 0.199,14.032 0,12.777 -0.019,14.058 -0.187,14.32 -0.414,0.641 -0.227,0.629 -10.449,0.629 -10.621,0 -10.078,0.043 -10.496,-0.86 -0.188,-0.402 -0.2,-1.296 -0.204,-13.332 0,-9.55 0.036,-12.937 0.133,-13.043 0.176,-0.191 0.711,0.11 0.981,0.551 0.183,0.297 0.207,0.871 0.258,6.352 0.054,6.008 0.058,6.023 0.324,6.605 0.801,1.75 2.621,2.699 4.422,2.305 1.199,-0.262 2.293,-1.195 2.804,-2.395 0.262,-0.613 0.262,-0.64 0.321,-7.511 l 0.058,-6.899 0.285,-0.332 c 0.157,-0.179 0.387,-0.375 0.512,-0.433 0.363,-0.161 1.067,-0.129 1.414,0.062 z m -1.926,38.387 c 0.036,1.445 0.106,2.367 0.196,2.531 0.351,0.664 1.445,0.668 1.902,0.008 0.219,-0.316 0.242,-0.539 0.274,-2.516 0.019,-1.195 0.078,-2.218 0.132,-2.277 0.172,-0.188 1.028,0.559 1.481,1.289 0.613,0.988 0.777,1.855 0.535,2.855 -0.238,1.012 -3.207,8.118 -3.387,8.118 -0.222,0 -3.386,-7.727 -3.476,-8.493 -0.145,-1.195 0.507,-2.742 1.468,-3.48 0.805,-0.613 0.809,-0.602 0.875,1.965 z"
         style="fill:#000000;fill-opacity:1;fill-rule:nonzero;stroke:none"
         id="path58"
         inkscape:connector-curvature="0" /><text
         transform="matrix(1,0,0,-1,458.38778,63.101605)"
         style="font-variant:normal;font-weight:normal;font-size:11.63636398px;font-family:Arial;-inkscape-font-specification:Arial;writing-mode:lr-tb;fill:#000000;fill-opacity:1;fill-rule:nonzero;stroke:none"
         id="text62"><tspan
           sodipodi:role="line"
           id="tspan60"
           x="0"
           y="0">CANDLE</tspan></text>
<g
         id="g64"
         transform="matrix(1,0,0,-1,0,595.27557)"><path
           d="m 562.957,429.871 h 95.715 c 4.078,0 7.363,3.281 7.363,7.363 v 95.715 c 0,4.078 -3.285,7.364 -7.363,7.364 h -95.715 c -4.078,0 -7.363,-3.286 -7.363,-7.364 v -95.715 c 0,-4.082 3.285,-7.363 7.363,-7.363 z"
           style="fill:#ffd200;fill-opacity:1;fill-rule:nonzero;stroke:#000000;stroke-width:2.94508696;stroke-linecap:round;stroke-linejoin:round;stroke-miterlimit:4;stroke-dasharray:none;stroke-opacity:1"
           id="path66"
           inkscape:connector-curvature="0" /></g><path
         d="m 590.703,76.92 c -0.711,0.152 -1.375,0.563 -2,1.234 -2.051,2.211 -1.273,5.973 1.469,7.118 0.617,0.261 0.894,0.285 3.973,0.351 l 3.308,0.074 0.055,23.028 0.058,23.027 0.247,0.574 c 0.347,0.813 1.097,1.637 1.847,2.032 l 0.645,0.339 4.562,0.063 4.563,0.062 0.035,0.715 c 0.019,0.395 -0.02,0.789 -0.086,0.875 -0.07,0.09 -0.363,0.231 -0.656,0.321 -0.293,0.089 -0.903,0.425 -1.352,0.75 -2.164,1.558 -3.18,4.629 -2.375,7.191 0.18,0.574 3.734,9.223 4.168,10.141 0.281,0.597 0.813,0.945 1.441,0.945 0.625,0 1.083,-0.254 1.372,-0.762 0.246,-0.441 3.941,-9.316 4.199,-10.097 1.082,-3.25 -0.547,-6.922 -3.61,-8.145 l -0.625,-0.25 v -0.84 -0.844 l 4.504,-0.062 c 4.387,-0.059 4.524,-0.066 5.032,-0.336 0.847,-0.453 1.429,-1.074 1.839,-1.969 l 0.375,-0.82 0.032,-23 0.027,-23 2.824,-0.004 c 3.059,0 4.156,-0.113 4.895,-0.496 0.789,-0.414 1.48,-1.164 1.886,-2.051 0.34,-0.746 0.375,-0.926 0.375,-1.93 0,-0.875 -0.054,-1.23 -0.246,-1.683 -0.289,-0.672 -1.062,-1.609 -1.664,-2.024 -1.007,-0.683 -0.074,-0.656 -21.187,-0.64 -10.699,0.008 -19.668,0.058 -19.93,0.113 z m 39.848,2.766 c 1.058,0.851 1.082,2.23 0.051,2.968 l -0.387,0.282 -19.668,-0.032 -19.672,-0.031 -0.445,-0.519 c -0.387,-0.446 -0.45,-0.594 -0.45,-1.082 0,-0.883 0.485,-1.618 1.2,-1.813 0.125,-0.031 8.961,-0.055 19.64,-0.043 l 19.414,0.016 z m -9.34,13.34 -0.031,7.39 -0.512,0.145 c -0.762,0.211 -1.367,0.582 -1.914,1.176 -0.613,0.667 -0.926,1.363 -1.059,2.347 -0.054,0.422 -0.105,3.895 -0.105,7.715 0,6.09 -0.024,6.973 -0.18,7.215 -0.555,0.848 -2.133,0.848 -2.586,-0.004 -0.113,-0.215 -0.16,-2.012 -0.203,-7.828 l -0.055,-7.555 -0.304,-0.699 c -0.375,-0.856 -1.11,-1.672 -1.867,-2.066 -0.836,-0.438 -2.266,-0.489 -3.188,-0.114 -0.82,0.332 -1.676,1.153 -2.098,2.016 l -0.3,0.617 -0.059,6.879 c -0.043,5.164 -0.094,6.941 -0.199,7.144 -0.535,1.008 -2.172,1.079 -2.688,0.114 -0.097,-0.188 -0.152,-1.895 -0.195,-6.278 -0.055,-5.968 -0.059,-6.023 -0.316,-6.589 -0.575,-1.25 -1.657,-2.168 -2.821,-2.387 -0.25,-0.047 -0.492,-0.145 -0.539,-0.219 -0.105,-0.172 -0.117,-16.215 -0.012,-16.328 0.043,-0.047 4.844,-0.082 10.668,-0.082 h 10.59 z m -9.793,10.226 c 0.719,0.402 0.695,0.113 0.699,7.649 0,3.765 0.047,7.222 0.102,7.675 0.125,1.036 0.457,1.789 1.101,2.481 0.621,0.672 1.368,1.066 2.2,1.164 1.941,0.234 3.437,-0.629 4.218,-2.43 l 0.301,-0.691 0.059,-7.563 c 0.047,-6.476 0.082,-7.597 0.226,-7.8 0.266,-0.356 0.496,-0.532 0.715,-0.536 0.188,-0.004 0.199,0.746 0.199,14.032 0,12.777 -0.015,14.058 -0.187,14.32 -0.414,0.641 -0.223,0.629 -10.446,0.629 -10.625,0 -10.082,0.043 -10.5,-0.86 -0.187,-0.402 -0.199,-1.296 -0.199,-13.332 0,-9.55 0.032,-12.937 0.129,-13.043 0.18,-0.191 0.711,0.11 0.981,0.551 0.183,0.297 0.207,0.871 0.257,6.352 0.059,6.008 0.059,6.023 0.325,6.605 0.8,1.75 2.621,2.699 4.425,2.305 1.196,-0.262 2.29,-1.195 2.805,-2.395 0.258,-0.613 0.262,-0.64 0.317,-7.511 l 0.058,-6.899 0.285,-0.332 c 0.157,-0.179 0.387,-0.375 0.512,-0.433 0.367,-0.161 1.07,-0.129 1.418,0.062 z m -1.93,38.387 c 0.035,1.445 0.106,2.367 0.196,2.531 0.351,0.664 1.449,0.668 1.902,0.008 0.219,-0.316 0.242,-0.539 0.277,-2.516 0.02,-1.195 0.078,-2.218 0.129,-2.277 0.172,-0.188 1.028,0.559 1.481,1.289 0.613,0.988 0.777,1.855 0.539,2.855 -0.242,1.012 -3.211,8.118 -3.391,8.118 -0.219,0 -3.383,-7.727 -3.476,-8.493 -0.145,-1.195 0.507,-2.742 1.472,-3.48 0.801,-0.613 0.805,-0.602 0.871,1.965 z"
         style="fill:#000000;fill-opacity:1;fill-rule:nonzero;stroke:none"
         id="path68"
         inkscape:connector-curvature="0" /><text
         transform="matrix(1,0,0,-1,585.68575,63.101605)"
         style="font-variant:normal;font-weight:normal;font-size:11.63636398px;font-family:Arial;-inkscape-font-specification:Arial;writing-mode:lr-tb;fill:#000000;fill-opacity:1;fill-rule:nonzero;stroke:none"
         id="text72"><tspan
           sodipodi:role="line"
           id="tspan70"
           x="0"
           y="0">CANDLE</tspan></text>
<g
         id="g74"
         transform="matrix(1,0,0,-1,0,595.27557)"><path
           d="m 690.789,429.871 h 95.715 c 4.078,0 7.363,3.281 7.363,7.363 v 95.715 c 0,4.078 -3.285,7.364 -7.363,7.364 h -95.715 c -4.078,0 -7.363,-3.286 -7.363,-7.364 v -95.715 c 0,-4.082 3.285,-7.363 7.363,-7.363 z"
           style="fill:#ffd200;fill-opacity:1;fill-rule:nonzero;stroke:#000000;stroke-width:2.94508696;stroke-linecap:round;stroke-linejoin:round;stroke-miterlimit:4;stroke-dasharray:none;stroke-opacity:1"
           id="path76"
           inkscape:connector-curvature="0" /></g><path
         d="m 718.535,76.92 c -0.711,0.152 -1.375,0.563 -2,1.234 -2.051,2.211 -1.273,5.973 1.469,7.118 0.617,0.261 0.898,0.285 3.973,0.351 l 3.308,0.074 0.059,23.028 0.054,23.027 0.247,0.574 c 0.351,0.813 1.097,1.637 1.847,2.032 l 0.645,0.339 4.562,0.063 4.567,0.062 0.031,0.715 c 0.019,0.395 -0.02,0.789 -0.086,0.875 -0.066,0.09 -0.363,0.231 -0.656,0.321 -0.293,0.089 -0.903,0.425 -1.352,0.75 -2.164,1.558 -3.18,4.629 -2.375,7.191 0.18,0.574 3.735,9.223 4.168,10.141 0.281,0.597 0.813,0.945 1.442,0.945 0.625,0 1.082,-0.254 1.371,-0.762 0.25,-0.441 3.941,-9.316 4.203,-10.097 1.078,-3.25 -0.551,-6.922 -3.61,-8.145 l -0.629,-0.25 v -0.84 -0.844 l 4.508,-0.062 c 4.387,-0.059 4.52,-0.066 5.028,-0.336 0.847,-0.453 1.429,-1.074 1.839,-1.969 l 0.375,-0.82 0.032,-23 0.031,-23 2.82,-0.004 c 3.059,0 4.157,-0.113 4.895,-0.496 0.793,-0.414 1.48,-1.164 1.887,-2.051 0.339,-0.746 0.375,-0.926 0.375,-1.93 0,-0.875 -0.051,-1.23 -0.247,-1.683 -0.289,-0.672 -1.058,-1.609 -1.664,-2.024 -1.007,-0.683 -0.074,-0.656 -21.187,-0.64 -10.699,0.008 -19.668,0.058 -19.93,0.113 z m 39.848,2.766 c 1.058,0.851 1.082,2.23 0.055,2.968 l -0.391,0.282 -19.668,-0.032 -19.668,-0.031 -0.449,-0.519 c -0.387,-0.446 -0.449,-0.594 -0.449,-1.082 0,-0.883 0.488,-1.618 1.199,-1.813 0.125,-0.031 8.965,-0.055 19.64,-0.043 l 19.414,0.016 z m -9.34,13.34 -0.027,7.39 -0.516,0.145 c -0.762,0.211 -1.367,0.582 -1.91,1.176 -0.613,0.667 -0.93,1.363 -1.063,2.347 -0.054,0.422 -0.101,3.895 -0.105,7.715 0,6.09 -0.024,6.973 -0.18,7.215 -0.551,0.848 -2.133,0.848 -2.586,-0.004 -0.109,-0.215 -0.156,-2.012 -0.203,-7.828 l -0.055,-7.555 -0.304,-0.699 c -0.375,-0.856 -1.11,-1.672 -1.867,-2.066 -0.836,-0.438 -2.266,-0.489 -3.184,-0.114 -0.824,0.332 -1.68,1.153 -2.102,2.016 l -0.3,0.617 -0.059,6.879 c -0.043,5.164 -0.09,6.941 -0.199,7.144 -0.535,1.008 -2.172,1.079 -2.684,0.114 -0.101,-0.188 -0.156,-1.895 -0.195,-6.278 -0.059,-5.968 -0.059,-6.023 -0.32,-6.589 -0.571,-1.25 -1.657,-2.168 -2.817,-2.387 -0.254,-0.047 -0.496,-0.145 -0.543,-0.219 -0.105,-0.172 -0.113,-16.215 -0.011,-16.328 0.042,-0.047 4.843,-0.082 10.667,-0.082 h 10.594 z m -9.793,10.226 c 0.719,0.402 0.695,0.113 0.699,7.649 0,3.765 0.047,7.222 0.102,7.675 0.125,1.036 0.457,1.789 1.101,2.481 0.625,0.672 1.368,1.066 2.2,1.164 1.941,0.234 3.437,-0.629 4.222,-2.43 l 0.301,-0.691 0.055,-7.563 c 0.05,-6.476 0.082,-7.597 0.23,-7.8 0.262,-0.356 0.492,-0.532 0.711,-0.536 0.188,-0.004 0.199,0.746 0.199,14.032 0,12.777 -0.015,14.058 -0.183,14.32 -0.418,0.641 -0.227,0.629 -10.449,0.629 -10.625,0 -10.083,0.043 -10.5,-0.86 -0.188,-0.402 -0.2,-1.296 -0.2,-13.332 0,-9.55 0.035,-12.937 0.129,-13.043 0.18,-0.191 0.715,0.11 0.981,0.551 0.183,0.297 0.207,0.871 0.257,6.352 0.059,6.008 0.059,6.023 0.325,6.605 0.8,1.75 2.621,2.699 4.425,2.305 1.196,-0.262 2.293,-1.195 2.805,-2.395 0.262,-0.613 0.262,-0.64 0.317,-7.511 l 0.058,-6.899 0.285,-0.332 c 0.157,-0.179 0.387,-0.375 0.516,-0.433 0.363,-0.161 1.066,-0.129 1.414,0.062 z m -1.93,38.387 c 0.035,1.445 0.11,2.367 0.196,2.531 0.355,0.664 1.449,0.668 1.906,0.008 0.215,-0.316 0.242,-0.539 0.273,-2.516 0.02,-1.195 0.078,-2.218 0.129,-2.277 0.172,-0.188 1.028,0.559 1.485,1.289 0.609,0.988 0.773,1.855 0.535,2.855 -0.242,1.012 -3.207,8.118 -3.391,8.118 -0.219,0 -3.383,-7.727 -3.476,-8.493 -0.145,-1.195 0.511,-2.742 1.472,-3.48 0.801,-0.613 0.809,-0.602 0.871,1.965 z"
         style="fill:#000000;fill-opacity:1;fill-rule:nonzero;stroke:none"
         id="path78"
         inkscape:connector-curvature="0" /><text
         transform="matrix(1,0,0,-1,713.51856,63.101605)"
         style="font-variant:normal;font-weight:normal;font-size:11.63636398px;font-family:Arial;-inkscape-font-specification:Arial;writing-mode:lr-tb;fill:#000000;fill-opacity:1;fill-rule:nonzero;stroke:none"
         id="text82"><tspan
           sodipodi:role="line"
           id="tspan80"
           x="0"
           y="0">CANDLE</tspan></text>
</g></g></svg>