<?xml version="1.0" encoding="UTF-8" standalone="no"?>
<!-- Created with Inkscape (http://www.inkscape.org/) -->

<svg
   xmlns:dc="http://purl.org/dc/elements/1.1/"
   xmlns:cc="http://creativecommons.org/ns#"
   xmlns:rdf="http://www.w3.org/1999/02/22-rdf-syntax-ns#"
   xmlns:svg="http://www.w3.org/2000/svg"
   xmlns="http://www.w3.org/2000/svg"
   xmlns:sodipodi="http://sodipodi.sourceforge.net/DTD/sodipodi-0.dtd"
   xmlns:inkscape="http://www.inkscape.org/namespaces/inkscape"
   version="1.1"
   id="svg2"
   xml:space="preserve"
   width="1122.5197"
   height="793.70074"
   viewBox="0 0 1122.5197 793.70074"
   sodipodi:docname="Auto.svg"
   inkscape:version="0.92.2 5c3e80d, 2017-08-06"><metadata
     id="metadata8"><rdf:RDF><cc:Work
         rdf:about=""><dc:format>image/svg+xml</dc:format><dc:type
           rdf:resource="http://purl.org/dc/dcmitype/StillImage" /><dc:title></dc:title></cc:Work></rdf:RDF></metadata><defs
     id="defs6" /><sodipodi:namedview
     pagecolor="#ffffff"
     bordercolor="#666666"
     borderopacity="1"
     objecttolerance="10"
     gridtolerance="10"
     guidetolerance="10"
     inkscape:pageopacity="0"
     inkscape:pageshadow="2"
     inkscape:window-width="1173"
     inkscape:window-height="650"
     id="namedview4"
     showgrid="false"
     inkscape:zoom="0.29734129"
     inkscape:cx="309.02442"
     inkscape:cy="36.994526"
     inkscape:window-x="83"
     inkscape:window-y="1"
     inkscape:window-maximized="0"
     inkscape:current-layer="g12" /><g
     id="g10"
     inkscape:groupmode="layer"
     inkscape:label="Auto"
     transform="matrix(1.3333333,0,0,-1.3333333,0,793.70077)"><g
       id="g12"><g
         id="g14"
         transform="matrix(1,0,0,-1,0,595.27557)"><path
           d="m 49.645,24.934 h 335.003 c 14.274,0 25.77,11.492 25.77,25.769 v 335.004 c 0,14.277 -11.496,25.77 -25.77,25.77 H 49.645 c -14.278,0 -25.77,-11.493 -25.77,-25.77 V 50.703 c 0,-14.277 11.492,-25.769 25.77,-25.769 z"
           style="fill:#ff7900;fill-opacity:1;fill-rule:nonzero;stroke:#000000;stroke-width:10.30780315;stroke-linecap:round;stroke-linejoin:round;stroke-miterlimit:4;stroke-dasharray:none;stroke-opacity:1"
           id="path16"
           inkscape:connector-curvature="0" /></g><text
         transform="scale(1,-1)"
         style="font-variant:normal;font-weight:normal;font-size:40.72727585px;font-family:Arial;-inkscape-font-specification:Arial;writing-mode:lr-tb;fill:#000000;fill-opacity:1;fill-rule:nonzero;stroke:none"
         id="text20"
         x="176.46367"
         y="-212.27792"><tspan
           sodipodi:role="line"
           id="tspan18"
           x="176.46367"
           y="-212.27792">CAR</tspan></text>
<path
         d="m 126.516,308.963 c -6.2,0.969 -12.172,3.399 -17.286,7.035 -3.398,2.418 -7.851,7.031 -9.722,10.074 l -1.422,2.309 -9.438,0.238 c -7.921,0.2 -9.921,0.391 -12.46,1.203 -5.872,1.872 -11.067,6.465 -12.958,11.446 -1.718,4.539 -1.214,28.922 0.762,36.64 2.988,11.696 11.426,17.875 28.184,20.653 8.25,1.363 14.676,1.828 29.484,2.125 9.938,0.195 13.953,0.429 14.352,0.828 0.304,0.305 6.269,9.945 13.25,21.422 13.676,22.472 15.164,24.468 21.097,28.304 1.579,1.02 4.434,2.457 6.348,3.192 7.465,2.879 5.453,2.785 61.332,2.773 l 50.844,-0.011 2.582,-1.059 c 8.648,-3.559 23.937,-16.481 47.914,-40.496 25.832,-25.871 29.562,-30.828 31.906,-42.348 0.688,-3.383 0.828,-6.254 0.82,-16.816 -0.011,-12.211 -0.054,-12.844 -1.054,-15.348 -1.953,-4.887 -6.973,-9.305 -12.809,-11.281 -2.558,-0.863 -4.254,-1.031 -12.597,-1.234 l -9.645,-0.235 -1.812,-2.808 c -2.461,-3.801 -8.18,-9.165 -12.329,-11.559 -13.336,-7.695 -32.062,-7.145 -44.336,1.297 -3.523,2.426 -7.855,6.762 -10.05,10.066 l -2.082,3.129 H 217 168.613 l -1.656,-2.586 c -4.871,-7.617 -13.43,-13.676 -22.707,-16.078 -4.199,-1.086 -13.449,-1.543 -17.734,-0.875 z m 14.765,8.461 c 8.949,1.984 16.867,8.781 19.34,16.609 3.574,11.313 -1.715,22.567 -13.242,28.172 -11.578,5.633 -26.047,3.684 -35.027,-4.722 -5.25,-4.907 -7.497,-9.754 -7.539,-16.243 -0.04,-6.55 2.152,-11.75 6.906,-16.375 7.449,-7.25 18.207,-9.957 29.562,-7.441 z m 167.614,-0.02 c 6.296,1.493 13.027,5.993 16.449,11.004 2.867,4.192 3.937,8.149 3.715,13.715 -0.168,4.16 -0.313,4.739 -2.09,8.324 -6.836,13.797 -26.305,19.18 -41.18,11.387 -4.074,-2.137 -9.258,-7.117 -11.012,-10.59 -3.281,-6.488 -3.347,-13.722 -0.179,-20.351 1.312,-2.75 7.164,-8.621 10.418,-10.457 6.75,-3.801 15.785,-4.946 23.879,-3.032 z M 95.406,341.92 c 0.41,7.434 2.328,12.395 6.965,18.027 10.129,12.305 30.164,17.02 46.125,10.856 5.539,-2.141 9.086,-4.469 13.531,-8.871 3.364,-3.332 4.485,-4.809 6.036,-7.957 2.214,-4.5 3.23,-8.813 3.242,-13.758 l 0.008,-3.527 h 45.71 45.707 v 3.793 c 0,12.293 7.555,23.242 20.153,29.211 5.93,2.808 9.601,3.535 17.824,3.535 8.762,0 12.18,-0.758 19.106,-4.239 12.109,-6.089 18.847,-16.214 18.867,-28.355 l 0.008,-4.02 8.07,0.153 c 8.047,0.148 8.082,0.156 10.527,1.543 5.344,3.031 6.215,6.226 5.805,21.347 -0.274,10.063 -1.156,15.543 -3.188,19.817 -5.476,11.5 -53.41,58.301 -69.968,68.312 l -2.844,1.719 -50.496,-0.125 -50.5,-0.125 -3.633,-1.281 c -4.57,-1.617 -8.051,-3.731 -10.762,-6.535 -1.351,-1.399 -7,-10.231 -15.648,-24.473 -7.442,-12.258 -13.84,-22.645 -14.215,-23.082 -0.602,-0.703 -1.641,-0.797 -8.91,-0.801 -4.528,-0.008 -12.735,-0.207 -18.238,-0.457 -32.297,-1.453 -40.403,-5.402 -42.497,-20.699 -0.273,-2.008 -0.546,-8.965 -0.605,-15.465 -0.102,-11.437 -0.074,-11.875 0.906,-13.703 0.555,-1.039 1.774,-2.52 2.711,-3.293 2.887,-2.379 4.555,-2.727 12.652,-2.633 l 7.278,0.082 z"
         style="fill:#000000;fill-opacity:1;fill-rule:nonzero;stroke:none"
         id="path22"
         inkscape:connector-curvature="0" /><g
         id="g24"
         transform="matrix(1,0,0,-1,0,595.27557)"><path
           d="M 457.746,24.934 H 792.75 c 14.277,0 25.77,11.492 25.77,25.769 v 335.004 c 0,14.277 -11.493,25.77 -25.77,25.77 H 457.746 c -14.277,0 -25.769,-11.493 -25.769,-25.77 V 50.703 c 0,-14.277 11.492,-25.769 25.769,-25.769 z"
           style="fill:#ff7900;fill-opacity:1;fill-rule:nonzero;stroke:#000000;stroke-width:10.30780315;stroke-linecap:round;stroke-linejoin:round;stroke-miterlimit:4;stroke-dasharray:none;stroke-opacity:1"
           id="path26"
           inkscape:connector-curvature="0" /></g><text
         transform="scale(1,-1)"
         style="font-variant:normal;font-weight:normal;font-size:40.72727585px;font-family:Arial;-inkscape-font-specification:Arial;writing-mode:lr-tb;fill:#000000;fill-opacity:1;fill-rule:nonzero;stroke:none"
         id="text30"
         x="584.56604"
         y="-212.27792"><tspan
           sodipodi:role="line"
           id="tspan28"
           x="584.56604"
           y="-212.27792">CAR</tspan></text>
<path
         d="m 534.617,308.963 c -6.199,0.969 -12.172,3.399 -17.285,7.035 -3.398,2.418 -7.852,7.031 -9.723,10.074 l -1.421,2.309 -9.438,0.238 c -7.918,0.2 -9.922,0.391 -12.457,1.203 -5.875,1.872 -11.07,6.465 -12.957,11.446 -1.723,4.539 -1.215,28.922 0.758,36.64 2.992,11.696 11.426,17.875 28.183,20.653 8.25,1.363 14.676,1.828 29.489,2.125 9.933,0.195 13.949,0.429 14.347,0.828 0.309,0.305 6.27,9.945 13.254,21.422 13.672,22.472 15.16,24.468 21.098,28.304 1.574,1.02 4.43,2.457 6.344,3.192 7.468,2.879 5.453,2.785 61.332,2.773 l 50.843,-0.011 2.582,-1.059 c 8.649,-3.559 23.938,-16.481 47.918,-40.496 25.829,-25.871 29.563,-30.828 31.903,-42.348 0.687,-3.383 0.828,-6.254 0.82,-16.816 -0.012,-12.211 -0.055,-12.844 -1.055,-15.348 -1.953,-4.887 -6.968,-9.305 -12.808,-11.281 -2.555,-0.863 -4.254,-1.031 -12.598,-1.234 l -9.641,-0.235 -1.816,-2.808 c -2.461,-3.801 -8.18,-9.165 -12.328,-11.559 -13.332,-7.695 -32.063,-7.145 -44.336,1.297 -3.523,2.426 -7.852,6.762 -10.051,10.066 l -2.082,3.129 h -48.387 -48.39 l -1.652,-2.586 c -4.875,-7.617 -13.434,-13.676 -22.708,-16.078 -4.203,-1.086 -13.449,-1.543 -17.738,-0.875 z m 14.77,8.461 c 8.945,1.984 16.863,8.781 19.336,16.609 3.574,11.313 -1.715,22.567 -13.243,28.172 -11.578,5.633 -26.042,3.684 -35.027,-4.722 -5.246,-4.907 -7.496,-9.754 -7.539,-16.243 -0.039,-6.55 2.152,-11.75 6.906,-16.375 7.45,-7.25 18.207,-9.957 29.567,-7.441 z m 167.609,-0.02 c 6.297,1.493 13.027,5.993 16.453,11.004 2.864,4.192 3.938,8.149 3.711,13.715 -0.168,4.16 -0.308,4.739 -2.086,8.324 -6.84,13.797 -26.304,19.18 -41.179,11.387 -4.079,-2.137 -9.262,-7.117 -11.016,-10.59 -3.281,-6.488 -3.344,-13.722 -0.18,-20.351 1.313,-2.75 7.164,-8.621 10.422,-10.457 6.746,-3.801 15.785,-4.946 23.875,-3.032 z M 503.508,341.92 c 0.41,7.434 2.328,12.395 6.965,18.027 10.129,12.305 30.164,17.02 46.125,10.856 5.539,-2.141 9.09,-4.469 13.531,-8.871 3.363,-3.332 4.484,-4.809 6.035,-7.957 2.215,-4.5 3.234,-8.813 3.242,-13.758 l 0.008,-3.527 h 45.711 45.707 v 3.793 c 0,12.293 7.555,23.242 20.152,29.211 5.93,2.808 9.602,3.535 17.829,3.535 8.757,0 12.179,-0.758 19.101,-4.239 12.109,-6.089 18.848,-16.214 18.867,-28.355 l 0.008,-4.02 8.07,0.153 c 8.047,0.148 8.082,0.156 10.528,1.543 5.343,3.031 6.215,6.226 5.804,21.347 -0.273,10.063 -1.156,15.543 -3.187,19.817 -5.473,11.5 -53.41,58.301 -69.969,68.312 l -2.844,1.719 -50.496,-0.125 -50.5,-0.125 -3.632,-1.281 c -4.571,-1.617 -8.051,-3.731 -10.762,-6.535 -1.352,-1.399 -7,-10.231 -15.649,-24.473 -7.441,-12.258 -13.839,-22.645 -14.214,-23.082 -0.602,-0.703 -1.641,-0.797 -8.911,-0.801 -4.527,-0.008 -12.734,-0.207 -18.238,-0.457 -32.297,-1.453 -40.402,-5.402 -42.496,-20.699 -0.273,-2.008 -0.547,-8.965 -0.602,-15.465 -0.105,-11.437 -0.074,-11.875 0.903,-13.703 0.554,-1.039 1.777,-2.52 2.711,-3.293 2.886,-2.379 4.554,-2.727 12.652,-2.633 l 7.277,0.082 z"
         style="fill:#000000;fill-opacity:1;fill-rule:nonzero;stroke:none"
         id="path32"
         inkscape:connector-curvature="0" /><g
         id="g34"
         transform="matrix(1,0,0,-1,0,595.27557)"><path
           d="m 435.656,429.871 h 95.719 c 4.078,0 7.359,3.281 7.359,7.363 v 95.715 c 0,4.078 -3.281,7.364 -7.359,7.364 h -95.719 c -4.078,0 -7.359,-3.286 -7.359,-7.364 v -95.715 c 0,-4.082 3.281,-7.363 7.359,-7.363 z"
           style="fill:#ff7900;fill-opacity:1;fill-rule:nonzero;stroke:#000000;stroke-width:2.94508696;stroke-linecap:round;stroke-linejoin:round;stroke-miterlimit:4;stroke-dasharray:none;stroke-opacity:1"
           id="path36"
           inkscape:connector-curvature="0" /></g><text
         transform="scale(1,-1)"
         style="font-variant:normal;font-weight:normal;font-size:11.63636398px;font-family:Arial;-inkscape-font-specification:Arial;writing-mode:lr-tb;fill:#000000;fill-opacity:1;fill-rule:nonzero;stroke:none"
         id="text40"
         x="482.60648"
         y="-63.10157"><tspan
           sodipodi:role="line"
           id="tspan38"
           x="482.60648"
           y="-63.10157">CAR</tspan></text>
<path
         d="m 457.621,90.725 c -1.773,0.277 -3.476,0.972 -4.937,2.012 -0.973,0.691 -2.243,2.007 -2.778,2.878 l -0.406,0.661 -2.699,0.066 c -2.262,0.059 -2.832,0.113 -3.559,0.344 -1.676,0.535 -3.164,1.847 -3.703,3.269 -0.492,1.297 -0.348,8.262 0.219,10.469 0.855,3.34 3.265,5.109 8.051,5.902 2.359,0.391 4.195,0.52 8.425,0.606 2.84,0.055 3.985,0.121 4.102,0.238 0.086,0.086 1.789,2.84 3.785,6.117 3.906,6.422 4.332,6.992 6.027,8.09 0.45,0.289 1.266,0.703 1.813,0.91 2.133,0.825 1.559,0.797 17.523,0.793 l 14.528,-0.004 0.738,-0.3 c 2.469,-1.016 6.84,-4.707 13.691,-11.571 7.379,-7.39 8.446,-8.808 9.114,-12.101 0.199,-0.965 0.238,-1.785 0.234,-4.805 -0.004,-3.488 -0.016,-3.668 -0.301,-4.383 -0.558,-1.394 -1.992,-2.66 -3.66,-3.222 -0.73,-0.25 -1.215,-0.297 -3.598,-0.356 l -2.757,-0.066 -0.516,-0.801 c -0.703,-1.086 -2.34,-2.617 -3.523,-3.305 -3.809,-2.195 -9.161,-2.039 -12.668,0.371 -1.008,0.696 -2.243,1.934 -2.871,2.875 l -0.594,0.899 h -13.828 -13.825 l -0.472,-0.742 c -1.391,-2.176 -3.836,-3.907 -6.488,-4.594 -1.2,-0.309 -3.84,-0.442 -5.067,-0.25 z m 4.219,2.418 c 2.558,0.566 4.82,2.511 5.527,4.746 1.02,3.23 -0.492,6.445 -3.785,8.051 -3.309,1.609 -7.441,1.05 -10.008,-1.352 -1.5,-1.402 -2.14,-2.785 -2.152,-4.641 -0.012,-1.871 0.613,-3.355 1.973,-4.679 2.128,-2.071 5.203,-2.844 8.445,-2.125 z m 47.89,-0.004 c 1.797,0.426 3.723,1.711 4.7,3.144 0.82,1.196 1.125,2.329 1.062,3.918 -0.051,1.188 -0.09,1.352 -0.597,2.379 -1.954,3.942 -7.516,5.477 -11.766,3.25 -1.164,-0.609 -2.645,-2.031 -3.149,-3.023 -0.937,-1.856 -0.953,-3.922 -0.05,-5.817 0.375,-0.785 2.047,-2.461 2.976,-2.984 1.93,-1.086 4.512,-1.414 6.824,-0.867 z m -60.996,7.004 c 0.118,2.125 0.664,3.539 1.989,5.148 2.894,3.516 8.617,4.863 13.179,3.102 1.582,-0.61 2.594,-1.274 3.864,-2.531 0.964,-0.954 1.281,-1.375 1.726,-2.278 0.633,-1.285 0.922,-2.515 0.926,-3.93 l 0.004,-1.007 h 13.058 13.059 v 1.086 c 0,3.511 2.16,6.64 5.758,8.343 1.695,0.805 2.742,1.012 5.094,1.012 2.504,0 3.48,-0.219 5.457,-1.211 3.461,-1.738 5.386,-4.633 5.39,-8.101 l 0.004,-1.149 2.305,0.043 c 2.301,0.043 2.308,0.043 3.008,0.442 1.527,0.863 1.777,1.777 1.66,6.097 -0.078,2.875 -0.332,4.442 -0.91,5.664 -1.567,3.285 -15.262,16.656 -19.992,19.516 l -0.813,0.492 -14.43,-0.035 -14.425,-0.035 -1.04,-0.367 c -1.304,-0.461 -2.3,-1.067 -3.074,-1.868 -0.386,-0.398 -2,-2.922 -4.472,-6.992 -2.125,-3.504 -3.954,-6.469 -4.059,-6.594 -0.172,-0.203 -0.469,-0.23 -2.547,-0.23 -1.293,0 -3.637,-0.059 -5.211,-0.129 -9.226,-0.414 -11.543,-1.543 -12.14,-5.914 -0.079,-0.574 -0.157,-2.563 -0.176,-4.418 -0.028,-3.27 -0.02,-3.395 0.262,-3.918 0.156,-0.297 0.503,-0.719 0.773,-0.937 0.824,-0.684 1.301,-0.782 3.613,-0.754 l 2.082,0.023 z"
         style="fill:#000000;fill-opacity:1;fill-rule:nonzero;stroke:none"
         id="path42"
         inkscape:connector-curvature="0" /><g
         id="g44"
         transform="matrix(1,0,0,-1,0,595.27557)"><path
           d="m 562.957,429.871 h 95.715 c 4.078,0 7.363,3.281 7.363,7.363 v 95.715 c 0,4.078 -3.285,7.364 -7.363,7.364 h -95.715 c -4.078,0 -7.363,-3.286 -7.363,-7.364 v -95.715 c 0,-4.082 3.285,-7.363 7.363,-7.363 z"
           style="fill:#ff7900;fill-opacity:1;fill-rule:nonzero;stroke:#000000;stroke-width:2.94508696;stroke-linecap:round;stroke-linejoin:round;stroke-miterlimit:4;stroke-dasharray:none;stroke-opacity:1"
           id="path46"
           inkscape:connector-curvature="0" /></g><text
         transform="scale(1,-1)"
         style="font-variant:normal;font-weight:normal;font-size:11.63636398px;font-family:Arial;-inkscape-font-specification:Arial;writing-mode:lr-tb;fill:#000000;fill-opacity:1;fill-rule:nonzero;stroke:none"
         id="text50"
         x="609.90448"
         y="-63.10157"><tspan
           sodipodi:role="line"
           id="tspan48"
           x="609.90448"
           y="-63.10157">CAR</tspan></text>
<path
         d="m 584.918,90.725 c -1.77,0.277 -3.477,0.972 -4.938,2.012 -0.972,0.691 -2.242,2.007 -2.777,2.878 l -0.406,0.661 -2.695,0.066 c -2.266,0.059 -2.836,0.113 -3.563,0.344 -1.676,0.535 -3.16,1.847 -3.699,3.269 -0.492,1.297 -0.348,8.262 0.215,10.469 0.855,3.34 3.265,5.109 8.054,5.902 2.356,0.391 4.192,0.52 8.422,0.606 2.84,0.055 3.989,0.121 4.102,0.238 0.086,0.086 1.789,2.84 3.785,6.117 3.906,6.422 4.332,6.992 6.027,8.09 0.453,0.289 1.27,0.703 1.813,0.91 2.137,0.825 1.558,0.797 17.523,0.793 l 14.528,-0.004 0.738,-0.3 c 2.473,-1.016 6.84,-4.707 13.691,-11.571 7.379,-7.39 8.446,-8.808 9.114,-12.101 0.199,-0.965 0.238,-1.785 0.234,-4.805 0,-3.488 -0.012,-3.668 -0.301,-4.383 -0.558,-1.394 -1.992,-2.66 -3.656,-3.222 -0.734,-0.25 -1.219,-0.297 -3.602,-0.356 l -2.754,-0.066 -0.519,-0.801 c -0.703,-1.086 -2.336,-2.617 -3.524,-3.305 -3.808,-2.195 -9.16,-2.039 -12.667,0.371 -1.004,0.696 -2.243,1.934 -2.872,2.875 l -0.593,0.899 h -13.825 -13.828 l -0.472,-0.742 c -1.391,-2.176 -3.836,-3.907 -6.485,-4.594 -1.203,-0.309 -3.843,-0.442 -5.07,-0.25 z m 4.219,2.418 c 2.558,0.566 4.82,2.511 5.527,4.746 1.02,3.23 -0.492,6.445 -3.785,8.051 -3.309,1.609 -7.441,1.05 -10.008,-1.352 -1.5,-1.402 -2.141,-2.785 -2.152,-4.641 -0.012,-1.871 0.613,-3.355 1.972,-4.679 2.129,-2.071 5.204,-2.844 8.446,-2.125 z m 47.89,-0.004 c 1.801,0.426 3.723,1.711 4.7,3.144 0.82,1.196 1.125,2.329 1.062,3.918 -0.047,1.188 -0.09,1.352 -0.598,2.379 -1.953,3.942 -7.515,5.477 -11.765,3.25 -1.164,-0.609 -2.645,-2.031 -3.149,-3.023 -0.933,-1.856 -0.953,-3.922 -0.05,-5.817 0.378,-0.785 2.046,-2.461 2.98,-2.984 1.926,-1.086 4.508,-1.414 6.82,-0.867 z m -60.996,7.004 c 0.117,2.125 0.664,3.539 1.989,5.148 2.894,3.516 8.621,4.863 13.179,3.102 1.582,-0.61 2.598,-1.274 3.867,-2.531 0.961,-0.954 1.282,-1.375 1.723,-2.278 0.633,-1.285 0.926,-2.515 0.926,-3.93 l 0.004,-1.007 h 13.058 13.063 v 1.086 c 0,3.511 2.156,6.64 5.758,8.343 1.691,0.805 2.742,1.012 5.09,1.012 2.503,0 3.48,-0.219 5.46,-1.211 3.457,-1.738 5.383,-4.633 5.391,-8.101 v -1.149 l 2.309,0.043 c 2.297,0.043 2.308,0.043 3.004,0.442 1.527,0.863 1.777,1.777 1.66,6.097 -0.078,2.875 -0.328,4.442 -0.91,5.664 -1.567,3.285 -15.262,16.656 -19.993,19.516 l -0.812,0.492 -14.426,-0.035 -14.43,-0.035 -1.039,-0.367 c -1.304,-0.461 -2.297,-1.067 -3.074,-1.868 -0.387,-0.398 -2,-2.922 -4.469,-6.992 -2.129,-3.504 -3.957,-6.469 -4.062,-6.594 -0.172,-0.203 -0.469,-0.23 -2.547,-0.23 -1.293,0 -3.637,-0.059 -5.211,-0.129 -9.226,-0.414 -11.543,-1.543 -12.141,-5.914 -0.078,-0.574 -0.156,-2.563 -0.171,-4.418 -0.032,-3.27 -0.024,-3.395 0.257,-3.918 0.157,-0.297 0.508,-0.719 0.774,-0.937 0.824,-0.684 1.301,-0.782 3.617,-0.754 l 2.078,0.023 z"
         style="fill:#000000;fill-opacity:1;fill-rule:nonzero;stroke:none"
         id="path52"
         inkscape:connector-curvature="0" /><g
         id="g54"
         transform="matrix(1,0,0,-1,0,595.27557)"><path
           d="m 690.789,429.871 h 95.715 c 4.078,0 7.363,3.281 7.363,7.363 v 95.715 c 0,4.078 -3.285,7.364 -7.363,7.364 h -95.715 c -4.078,0 -7.363,-3.286 -7.363,-7.364 v -95.715 c 0,-4.082 3.285,-7.363 7.363,-7.363 z"
           style="fill:#ff7900;fill-opacity:1;fill-rule:nonzero;stroke:#000000;stroke-width:2.94508696;stroke-linecap:round;stroke-linejoin:round;stroke-miterlimit:4;stroke-dasharray:none;stroke-opacity:1"
           id="path56"
           inkscape:connector-curvature="0" /></g><text
         transform="scale(1,-1)"
         style="font-variant:normal;font-weight:normal;font-size:11.63636398px;font-family:Arial;-inkscape-font-specification:Arial;writing-mode:lr-tb;fill:#000000;fill-opacity:1;fill-rule:nonzero;stroke:none"
         id="text60"
         x="737.7373"
         y="-63.10157"><tspan
           sodipodi:role="line"
           id="tspan58"
           x="737.7373"
           y="-63.10157">CAR</tspan></text>
<path
         d="m 712.75,90.725 c -1.77,0.277 -3.477,0.972 -4.937,2.012 -0.969,0.691 -2.243,2.007 -2.778,2.878 l -0.406,0.661 -2.695,0.066 c -2.262,0.059 -2.836,0.113 -3.563,0.344 -1.676,0.535 -3.16,1.847 -3.699,3.269 -0.492,1.297 -0.348,8.262 0.215,10.469 0.855,3.34 3.265,5.109 8.054,5.902 2.356,0.391 4.192,0.52 8.426,0.606 2.836,0.055 3.985,0.121 4.098,0.238 0.09,0.086 1.793,2.84 3.785,6.117 3.91,6.422 4.332,6.992 6.031,8.09 0.449,0.289 1.266,0.703 1.813,0.91 2.133,0.825 1.558,0.797 17.523,0.793 l 14.528,-0.004 0.734,-0.3 c 2.473,-1.016 6.84,-4.707 13.691,-11.571 7.379,-7.39 8.446,-8.808 9.118,-12.101 0.195,-0.965 0.234,-1.785 0.234,-4.805 -0.004,-3.488 -0.016,-3.668 -0.305,-4.383 -0.554,-1.394 -1.988,-2.66 -3.656,-3.222 -0.731,-0.25 -1.215,-0.297 -3.602,-0.356 l -2.754,-0.066 -0.519,-0.801 c -0.703,-1.086 -2.336,-2.617 -3.523,-3.305 -3.809,-2.195 -9.161,-2.039 -12.665,0.371 -1.007,0.696 -2.246,1.934 -2.871,2.875 l -0.597,0.899 h -13.825 -13.824 l -0.472,-0.742 c -1.395,-2.176 -3.84,-3.907 -6.489,-4.594 -1.199,-0.309 -3.843,-0.442 -5.07,-0.25 z m 4.223,2.418 c 2.554,0.566 4.816,2.511 5.523,4.746 1.024,3.23 -0.488,6.445 -3.785,8.051 -3.305,1.609 -7.438,1.05 -10.008,-1.352 -1.496,-1.402 -2.14,-2.785 -2.152,-4.641 -0.012,-1.871 0.617,-3.355 1.972,-4.679 2.129,-2.071 5.204,-2.844 8.45,-2.125 z m 47.886,-0.004 c 1.801,0.426 3.723,1.711 4.704,3.144 0.816,1.196 1.121,2.329 1.058,3.918 -0.047,1.188 -0.09,1.352 -0.598,2.379 -1.953,3.942 -7.515,5.477 -11.765,3.25 -1.164,-0.609 -2.645,-2.031 -3.145,-3.023 -0.937,-1.856 -0.957,-3.922 -0.05,-5.817 0.375,-0.785 2.046,-2.461 2.976,-2.984 1.926,-1.086 4.508,-1.414 6.82,-0.867 z m -60.996,7.004 c 0.117,2.125 0.664,3.539 1.992,5.148 2.891,3.516 8.618,4.863 13.176,3.102 1.582,-0.61 2.598,-1.274 3.867,-2.531 0.961,-0.954 1.282,-1.375 1.723,-2.278 0.633,-1.285 0.926,-2.515 0.93,-3.93 v -1.007 h 13.058 13.063 v 1.086 c 0,3.511 2.156,6.64 5.758,8.343 1.691,0.805 2.742,1.012 5.093,1.012 2.5,0 3.477,-0.219 5.457,-1.211 3.458,-1.738 5.383,-4.633 5.391,-8.101 v -1.149 l 2.309,0.043 c 2.297,0.043 2.308,0.043 3.008,0.442 1.527,0.863 1.773,1.777 1.656,6.097 -0.078,2.875 -0.328,4.442 -0.91,5.664 -1.563,3.285 -15.258,16.656 -19.993,19.516 l -0.812,0.492 -14.426,-0.035 -14.43,-0.035 -1.035,-0.367 c -1.308,-0.461 -2.3,-1.067 -3.078,-1.868 -0.387,-0.398 -2,-2.922 -4.469,-6.992 -2.128,-3.504 -3.953,-6.469 -4.062,-6.594 -0.172,-0.203 -0.469,-0.23 -2.547,-0.23 -1.293,0 -3.637,-0.059 -5.211,-0.129 -9.226,-0.414 -11.543,-1.543 -12.141,-5.914 -0.078,-0.574 -0.156,-2.563 -0.171,-4.418 -0.032,-3.27 -0.02,-3.395 0.257,-3.918 0.161,-0.297 0.508,-0.719 0.774,-0.937 0.828,-0.684 1.305,-0.782 3.617,-0.754 l 2.078,0.023 z"
         style="fill:#000000;fill-opacity:1;fill-rule:nonzero;stroke:none"
         id="path62"
         inkscape:connector-curvature="0" /><g
         id="g64"
         transform="matrix(1,0,0,-1,0,595.27557)"><path
           d="m 203.852,430.461 h 134 c 5.711,0 10.308,4.594 10.308,10.305 V 574.77 c 0,5.71 -4.597,10.304 -10.308,10.304 h -134 c -5.711,0 -10.309,-4.594 -10.309,-10.304 V 440.766 c 0,-5.711 4.598,-10.305 10.309,-10.305 z"
           style="fill:#ff7900;fill-opacity:1;fill-rule:nonzero;stroke:#000000;stroke-width:4.12312078;stroke-linecap:round;stroke-linejoin:round;stroke-miterlimit:4;stroke-dasharray:none;stroke-opacity:1"
           id="path66"
           inkscape:connector-curvature="0" /></g><text
         transform="scale(1,-1)"
         style="font-variant:normal;font-weight:normal;font-size:16.29091072px;font-family:Arial;-inkscape-font-specification:Arial;writing-mode:lr-tb;fill:#000000;fill-opacity:1;fill-rule:nonzero;stroke:none"
         id="text70"
         x="263.57919"
         y="-21.591"><tspan
           sodipodi:role="line"
           id="tspan68"
           x="263.57919"
           y="-21.591">CAR</tspan></text>
<path
         d="m 234.598,60.264 c -2.477,0.387 -4.868,1.359 -6.91,2.816 -1.364,0.965 -3.141,2.813 -3.891,4.028 l -0.57,0.925 -3.774,0.094 c -3.168,0.082 -3.969,0.156 -4.984,0.481 -2.348,0.75 -4.426,2.586 -5.184,4.578 -0.687,1.816 -0.484,11.57 0.305,14.656 1.195,4.68 4.57,7.152 11.273,8.262 3.301,0.547 5.871,0.73 11.797,0.851 3.973,0.078 5.578,0.172 5.738,0.332 0.122,0.121 2.508,3.977 5.301,8.567 5.469,8.988 6.067,9.789 8.438,11.324 0.633,0.406 1.773,0.98 2.539,1.273 2.988,1.153 2.183,1.118 24.535,1.11 l 20.336,-0.004 1.031,-0.422 c 3.461,-1.426 9.574,-6.594 19.168,-16.199 10.332,-10.348 11.824,-12.332 12.762,-16.938 0.273,-1.355 0.332,-2.504 0.328,-6.726 -0.004,-4.887 -0.023,-5.141 -0.422,-6.141 -0.781,-1.953 -2.789,-3.723 -5.125,-4.512 -1.019,-0.347 -1.699,-0.414 -5.039,-0.496 l -3.855,-0.094 -0.727,-1.121 c -0.984,-1.523 -3.27,-3.668 -4.93,-4.625 -5.336,-3.078 -12.828,-2.859 -17.734,0.52 -1.41,0.969 -3.141,2.703 -4.02,4.027 l -0.836,1.25 h -19.355 -19.355 l -0.661,-1.035 c -1.949,-3.047 -5.375,-5.469 -9.082,-6.43 -1.679,-0.433 -5.379,-0.617 -7.097,-0.351 z m 5.91,3.387 c 3.578,0.793 6.746,3.511 7.734,6.644 1.43,4.524 -0.687,9.024 -5.297,11.266 -4.632,2.254 -10.418,1.472 -14.011,-1.887 -2.098,-1.965 -3,-3.902 -3.016,-6.5 -0.016,-2.617 0.863,-4.699 2.762,-6.547 2.98,-2.902 7.285,-3.984 11.828,-2.976 z m 67.043,-0.008 c 2.519,0.597 5.211,2.394 6.582,4.398 1.144,1.68 1.574,3.262 1.484,5.488 -0.066,1.665 -0.125,1.895 -0.836,3.329 -2.734,5.519 -10.519,7.671 -16.472,4.554 -1.629,-0.851 -3.704,-2.847 -4.407,-4.234 -1.312,-2.594 -1.336,-5.488 -0.07,-8.141 0.527,-1.101 2.867,-3.449 4.168,-4.183 2.699,-1.52 6.316,-1.977 9.551,-1.211 z m -85.395,9.804 c 0.164,2.973 0.93,4.957 2.785,7.211 4.051,4.922 12.067,6.809 18.45,4.344 2.214,-0.855 3.636,-1.789 5.414,-3.551 1.343,-1.332 1.793,-1.922 2.414,-3.183 0.886,-1.797 1.293,-3.524 1.297,-5.5 l 0.004,-1.41 h 18.281 18.285 v 1.515 c 0,4.918 3.019,9.297 8.062,11.684 2.372,1.125 3.84,1.414 7.129,1.414 3.504,0 4.871,-0.305 7.641,-1.695 4.844,-2.434 7.539,-6.485 7.547,-11.344 l 0.004,-1.606 3.226,0.059 c 3.219,0.062 3.235,0.062 4.211,0.617 2.141,1.215 2.489,2.492 2.324,8.543 -0.109,4.024 -0.46,6.215 -1.277,7.926 -2.187,4.598 -21.363,23.32 -27.988,27.324 l -1.137,0.688 -20.199,-0.051 -20.199,-0.051 -1.453,-0.512 c -1.829,-0.644 -3.219,-1.492 -4.305,-2.613 -0.539,-0.559 -2.797,-4.094 -6.258,-9.789 -2.976,-4.902 -5.535,-9.059 -5.687,-9.234 -0.239,-0.282 -0.657,-0.317 -3.563,-0.321 -1.812,-0.004 -5.094,-0.082 -7.293,-0.179 -12.922,-0.582 -16.164,-2.164 -17,-8.282 -0.109,-0.804 -0.219,-3.586 -0.242,-6.187 -0.043,-4.574 -0.031,-4.75 0.359,-5.481 0.223,-0.414 0.711,-1.007 1.086,-1.316 1.156,-0.953 1.824,-1.09 5.063,-1.055 l 2.91,0.035 z"
         style="fill:#000000;fill-opacity:1;fill-rule:nonzero;stroke:none"
         id="path72"
         inkscape:connector-curvature="0" /><g
         id="g74"
         transform="matrix(1,0,0,-1,0,595.27557)"><path
           d="m 31.09,430.461 h 134 c 5.711,0 10.308,4.594 10.308,10.305 V 574.77 c 0,5.71 -4.597,10.304 -10.308,10.304 h -134 c -5.711,0 -10.309,-4.594 -10.309,-10.304 V 440.766 c 0,-5.711 4.598,-10.305 10.309,-10.305 z"
           style="fill:#ff7900;fill-opacity:1;fill-rule:nonzero;stroke:#000000;stroke-width:4.12312078;stroke-linecap:round;stroke-linejoin:round;stroke-miterlimit:4;stroke-dasharray:none;stroke-opacity:1"
           id="path76"
           inkscape:connector-curvature="0" /></g><text
         transform="scale(1,-1)"
         style="font-variant:normal;font-weight:normal;font-size:16.29091072px;font-family:Arial;-inkscape-font-specification:Arial;writing-mode:lr-tb;fill:#000000;fill-opacity:1;fill-rule:nonzero;stroke:none"
         id="text80"
         x="90.817642"
         y="-21.591"><tspan
           sodipodi:role="line"
           id="tspan78"
           x="90.817642"
           y="-21.591">CAR</tspan></text>
<path
         d="m 61.836,60.264 c -2.477,0.387 -4.867,1.359 -6.91,2.816 -1.36,0.965 -3.141,2.813 -3.891,4.028 l -0.57,0.925 -3.774,0.094 c -3.168,0.082 -3.968,0.156 -4.984,0.481 -2.348,0.75 -4.426,2.586 -5.184,4.578 -0.687,1.816 -0.484,11.57 0.305,14.656 1.195,4.68 4.57,7.152 11.274,8.262 3.3,0.547 5.871,0.73 11.796,0.851 3.973,0.078 5.579,0.172 5.739,0.332 0.121,0.121 2.508,3.977 5.301,8.567 5.468,8.988 6.066,9.789 8.437,11.324 0.633,0.406 1.773,0.98 2.539,1.273 2.988,1.153 2.184,1.118 24.535,1.11 l 20.336,-0.004 1.031,-0.422 c 3.461,-1.426 9.575,-6.594 19.168,-16.199 10.332,-10.348 11.825,-12.332 12.762,-16.938 0.274,-1.355 0.332,-2.504 0.328,-6.726 -0.004,-4.887 -0.019,-5.141 -0.422,-6.141 -0.781,-1.953 -2.789,-3.723 -5.121,-4.512 -1.023,-0.347 -1.703,-0.414 -5.043,-0.496 l -3.855,-0.094 -0.727,-1.121 c -0.984,-1.523 -3.269,-3.668 -4.929,-4.625 -5.336,-3.078 -12.825,-2.859 -17.735,0.52 -1.41,0.969 -3.14,2.703 -4.019,4.027 l -0.836,1.25 H 98.031 78.676 l -0.66,-1.035 c -1.95,-3.047 -5.375,-5.469 -9.082,-6.43 -1.68,-0.433 -5.379,-0.617 -7.098,-0.351 z m 5.91,3.387 c 3.578,0.793 6.746,3.511 7.734,6.644 1.43,4.524 -0.687,9.024 -5.296,11.266 -4.633,2.254 -10.418,1.472 -14.012,-1.887 -2.098,-1.965 -3,-3.902 -3.016,-6.5 -0.015,-2.617 0.864,-4.699 2.762,-6.547 2.98,-2.902 7.285,-3.984 11.828,-2.976 z m 67.043,-0.008 c 2.52,0.597 5.211,2.394 6.582,4.398 1.145,1.68 1.574,3.262 1.484,5.488 -0.066,1.665 -0.125,1.895 -0.835,3.329 -2.735,5.519 -10.52,7.671 -16.473,4.554 -1.629,-0.851 -3.703,-2.847 -4.406,-4.234 -1.313,-2.594 -1.336,-5.488 -0.071,-8.141 0.528,-1.101 2.868,-3.449 4.168,-4.183 2.7,-1.52 6.317,-1.977 9.551,-1.211 z m -85.394,9.804 c 0.164,2.973 0.929,4.957 2.785,7.211 4.05,4.922 12.066,6.809 18.453,4.344 2.215,-0.855 3.633,-1.789 5.41,-3.551 1.348,-1.332 1.793,-1.922 2.414,-3.183 0.887,-1.797 1.293,-3.524 1.297,-5.5 l 0.004,-1.41 h 18.285 18.281 v 1.515 c 0,4.918 3.02,9.297 8.063,11.684 2.371,1.125 3.84,1.414 7.129,1.414 3.504,0 4.871,-0.305 7.64,-1.695 4.844,-2.434 7.539,-6.485 7.547,-11.344 l 0.004,-1.606 3.231,0.059 c 3.214,0.062 3.23,0.062 4.207,0.617 2.14,1.215 2.488,2.492 2.324,8.543 -0.11,4.024 -0.461,6.215 -1.278,7.926 -2.187,4.598 -21.363,23.32 -27.984,27.324 l -1.141,0.688 -20.199,-0.051 -20.195,-0.051 -1.457,-0.512 c -1.828,-0.644 -3.219,-1.492 -4.305,-2.613 -0.539,-0.559 -2.797,-4.094 -6.258,-9.789 C 70.676,98.565 68.117,94.408 67.965,94.233 67.727,93.951 67.313,93.916 64.402,93.912 62.59,93.908 59.309,93.83 57.109,93.733 44.188,93.151 40.945,91.569 40.109,85.451 40,84.647 39.891,81.865 39.867,79.264 c -0.043,-4.574 -0.031,-4.75 0.363,-5.481 0.219,-0.414 0.708,-1.007 1.083,-1.316 1.156,-0.953 1.824,-1.09 5.062,-1.055 l 2.91,0.035 z"
         style="fill:#000000;fill-opacity:1;fill-rule:nonzero;stroke:none"
         id="path82"
         inkscape:connector-curvature="0" /></g></g></svg>