<?xml version="1.0" encoding="UTF-8" standalone="no"?>
<!-- Created with Inkscape (http://www.inkscape.org/) -->

<svg
   xmlns:dc="http://purl.org/dc/elements/1.1/"
   xmlns:cc="http://creativecommons.org/ns#"
   xmlns:rdf="http://www.w3.org/1999/02/22-rdf-syntax-ns#"
   xmlns:svg="http://www.w3.org/2000/svg"
   xmlns="http://www.w3.org/2000/svg"
   xmlns:sodipodi="http://sodipodi.sourceforge.net/DTD/sodipodi-0.dtd"
   xmlns:inkscape="http://www.inkscape.org/namespaces/inkscape"
   version="1.1"
   id="svg2"
   xml:space="preserve"
   width="1122.5197"
   height="793.70074"
   viewBox="0 0 1122.5197 793.70074"
   sodipodi:docname="Carrot.svg"
   inkscape:version="0.92.2 5c3e80d, 2017-08-06"><metadata
     id="metadata8"><rdf:RDF><cc:Work
         rdf:about=""><dc:format>image/svg+xml</dc:format><dc:type
           rdf:resource="http://purl.org/dc/dcmitype/StillImage" /><dc:title></dc:title></cc:Work></rdf:RDF></metadata><defs
     id="defs6" /><sodipodi:namedview
     pagecolor="#ffffff"
     bordercolor="#666666"
     borderopacity="1"
     objecttolerance="10"
     gridtolerance="10"
     guidetolerance="10"
     inkscape:pageopacity="0"
     inkscape:pageshadow="2"
     inkscape:window-width="1242"
     inkscape:window-height="728"
     id="namedview4"
     showgrid="false"
     inkscape:zoom="0.84670104"
     inkscape:cx="450.41035"
     inkscape:cy="207.88167"
     inkscape:window-x="50"
     inkscape:window-y="0"
     inkscape:window-maximized="0"
     inkscape:current-layer="g12" /><g
     id="g10"
     inkscape:groupmode="layer"
     inkscape:label="Carotte"
     transform="matrix(1.3333333,0,0,-1.3333333,0,793.70077)"><g
       id="g12"><g
         id="g14"
         transform="matrix(1,0,0,-1,0,595.27557)"><path
           d="m 49.645,24.934 h 335.003 c 14.274,0 25.77,11.492 25.77,25.769 v 335.004 c 0,14.277 -11.496,25.77 -25.77,25.77 H 49.645 c -14.278,0 -25.77,-11.493 -25.77,-25.77 V 50.703 c 0,-14.277 11.492,-25.769 25.77,-25.769 z"
           style="fill:#ff7900;fill-opacity:1;fill-rule:nonzero;stroke:#000000;stroke-width:10.30780315;stroke-linecap:round;stroke-linejoin:round;stroke-miterlimit:4;stroke-dasharray:none;stroke-opacity:1"
           id="path16"
           inkscape:connector-curvature="0" /></g><text
         transform="scale(1,-1)"
         style="font-variant:normal;font-weight:normal;font-size:40.72727585px;font-family:Arial;-inkscape-font-specification:Arial;writing-mode:lr-tb;fill:#000000;fill-opacity:1;fill-rule:nonzero;stroke:none"
         id="text20"
         x="130.7691"
         y="-210.64554"><tspan
           sodipodi:role="line"
           id="tspan18"
           x="130.7691"
           y="-210.64554">CARROT</tspan></text>
<path
         d="m 214.711,261.404 c -0.555,0.305 -1.18,0.864 -1.383,1.243 -0.203,0.379 -8.387,20.996 -18.187,45.816 -9.801,24.816 -18.493,46.746 -19.317,48.727 -4.535,10.894 -6.523,21.183 -6.472,33.504 0.062,16.644 4.339,31.531 12.644,44.015 4.797,7.215 12.387,14.039 19.184,17.254 1.152,0.547 2.097,1.191 2.097,1.438 0,0.246 -9.097,9.562 -20.214,20.703 -12.79,12.824 -20.485,20.808 -20.958,21.758 -2.371,4.746 -2.566,10.437 -0.507,14.839 3.195,6.828 10.527,10.758 17.757,9.512 4.743,-0.816 5.938,-1.621 13.684,-9.234 l 7.078,-6.953 0.219,9.847 c 0.23,10.477 0.418,11.645 2.379,15.047 1.265,2.203 5.082,5.66 7.422,6.731 6.437,2.945 13.547,1.644 18.625,-3.414 2.468,-2.458 4.039,-5.301 4.621,-8.379 0.199,-1.051 0.363,-5.789 0.363,-10.532 0,-4.742 0.113,-8.734 0.254,-8.871 0.137,-0.14 3.285,2.754 6.996,6.43 7.449,7.379 9.25,8.578 14.086,9.379 10.793,1.789 20.535,-7.996 18.836,-18.918 -0.855,-5.488 -0.676,-5.274 -23.016,-27.688 -11.148,-11.187 -20.195,-20.402 -20.105,-20.488 0.09,-0.082 1.246,-0.691 2.57,-1.355 4.496,-2.254 7.613,-4.594 12.11,-9.082 5.222,-5.215 8.328,-9.637 11.636,-16.579 3.489,-7.308 5.926,-15.582 7.172,-24.312 0.731,-5.152 0.621,-19.105 -0.195,-24.328 -0.883,-5.645 -2.836,-13.074 -4.641,-17.66 -0.804,-2.047 -4.383,-11.075 -7.957,-20.067 -6.402,-16.113 -11.543,-29.097 -22.808,-57.593 -7.621,-19.29 -7.571,-19.172 -8.735,-20.344 -0.797,-0.809 -1.344,-1.02 -2.617,-1.008 -0.883,0.008 -2.062,0.262 -2.621,0.562 z m 5.141,23.02 c 1.308,3.258 2.375,6.219 2.375,6.582 0,0.602 -0.461,0.66 -5.204,0.66 -3.793,0 -5.199,-0.121 -5.199,-0.445 0,-0.934 4.957,-12.949 5.297,-12.836 0.195,0.066 1.426,2.781 2.731,6.039 z m 6.39,16.633 c 0.516,0.621 8.246,20.238 8.246,20.926 0,0.445 -2.625,0.527 -17.465,0.527 -10.441,0 -17.464,-0.141 -17.464,-0.344 0,-0.797 8.191,-20.992 8.629,-21.265 0.261,-0.168 4.343,-0.305 9.07,-0.309 6.5,-0.008 8.687,0.109 8.984,0.465 z m 16.508,41.246 c 2.242,5.676 3.98,10.566 3.863,10.867 -0.183,0.481 -4,0.551 -29.554,0.551 -19.399,0 -29.422,-0.129 -29.579,-0.375 -0.222,-0.363 7.372,-20.145 8.098,-21.086 0.285,-0.367 4.91,-0.449 21.731,-0.371 l 21.367,0.094 z m 8.945,22.379 c 1.883,5.031 4.434,17.777 3.86,19.273 -0.215,0.555 -3.465,0.606 -38.496,0.606 -21.043,0 -38.332,-0.125 -38.422,-0.278 -0.262,-0.461 0.429,-5.98 1.242,-9.937 0.816,-3.973 2.793,-10.473 3.418,-11.242 0.301,-0.371 7.394,-0.45 34.043,-0.375 l 33.66,0.097 z m 3.864,32.844 c -0.395,6.425 -2.985,17.558 -4.196,18.023 -0.324,0.125 -15.851,0.227 -34.508,0.227 -27.128,0 -34.003,-0.098 -34.32,-0.477 -1.144,-1.379 -3.476,-12.047 -3.976,-18.195 l -0.266,-3.25 h 38.742 38.746 z m -8.246,27.543 c 0.468,0.761 -4.704,7.925 -8.317,11.523 -7.234,7.199 -14.891,10.434 -23.449,9.91 -7.391,-0.457 -14.137,-3.703 -20.344,-9.793 -3.375,-3.316 -8.277,-10.199 -8.277,-11.629 0,-0.531 60.058,-0.543 60.387,-0.011 z m -27.176,31.398 c 1.461,0.691 43.269,42.449 44.172,44.113 0.734,1.36 0.863,4.5 0.254,6.114 -0.536,1.421 -2.5,3.437 -3.958,4.066 -1.585,0.68 -4.628,0.648 -6.332,-0.063 -0.894,-0.371 -5.121,-4.312 -12.199,-11.359 -9.906,-9.871 -10.953,-10.809 -12.304,-10.988 -0.977,-0.133 -1.875,0.008 -2.645,0.406 -2.281,1.18 -2.297,1.289 -2.305,17.387 -0.007,8.031 -0.156,15.238 -0.34,16.015 -0.445,1.922 -1.738,3.715 -3.539,4.899 -1.339,0.879 -1.789,0.972 -4.168,0.863 -2.312,-0.109 -2.855,-0.277 -4.085,-1.254 -0.782,-0.625 -1.797,-1.867 -2.258,-2.769 -0.828,-1.618 -0.836,-1.813 -0.836,-16.618 0,-16.574 -0.043,-16.917 -2.301,-18.292 -1.449,-0.883 -2.922,-0.961 -4.313,-0.219 -0.554,0.293 -5.601,5.152 -11.222,10.801 -5.621,5.644 -10.84,10.589 -11.598,10.984 -1.957,1.019 -5.23,0.961 -7.152,-0.129 -3.192,-1.805 -4.625,-5.684 -3.367,-9.094 0.562,-1.515 3.593,-4.715 21.695,-22.89 14.262,-14.317 21.523,-21.352 22.531,-21.821 1.801,-0.843 4.664,-0.914 6.27,-0.152 z"
         style="fill:#000000;fill-opacity:1;fill-rule:nonzero;stroke:none"
         id="path22"
         inkscape:connector-curvature="0" /><g
         id="g24"
         transform="matrix(1,0,0,-1,0,595.27557)"><path
           d="m 31.09,430.461 h 134 c 5.711,0 10.308,4.594 10.308,10.305 V 574.77 c 0,5.71 -4.597,10.304 -10.308,10.304 h -134 c -5.711,0 -10.309,-4.594 -10.309,-10.304 V 440.766 c 0,-5.711 4.598,-10.305 10.309,-10.305 z"
           style="fill:#ff7900;fill-opacity:1;fill-rule:nonzero;stroke:#000000;stroke-width:4.12312078;stroke-linecap:round;stroke-linejoin:round;stroke-miterlimit:4;stroke-dasharray:none;stroke-opacity:1"
           id="path26"
           inkscape:connector-curvature="0" /></g><text
         transform="scale(1,-1)"
         style="font-variant:normal;font-weight:normal;font-size:16.29091072px;font-family:Arial;-inkscape-font-specification:Arial;writing-mode:lr-tb;fill:#000000;fill-opacity:1;fill-rule:nonzero;stroke:none"
         id="text30"
         x="62.339809"
         y="-20.938061"><tspan
           sodipodi:role="line"
           id="tspan28"
           x="62.339809"
           y="-20.938061">CARROT</tspan></text>
<path
         d="m 97.117,41.24 c -0.222,0.122 -0.472,0.348 -0.554,0.5 -0.083,0.149 -3.356,8.399 -7.274,18.325 -3.922,9.925 -7.398,18.699 -7.726,19.492 -1.813,4.355 -2.61,8.472 -2.59,13.402 0.027,6.656 1.738,12.61 5.058,17.606 1.918,2.882 4.953,5.613 7.672,6.898 0.461,0.219 0.84,0.481 0.84,0.578 0,0.098 -3.637,3.824 -8.086,8.281 -5.117,5.129 -8.195,8.325 -8.383,8.704 -0.949,1.898 -1.027,4.175 -0.203,5.933 1.277,2.735 4.211,4.305 7.102,3.805 1.898,-0.324 2.375,-0.649 5.476,-3.692 l 2.828,-2.781 0.09,3.938 c 0.094,4.191 0.164,4.656 0.949,6.019 0.508,0.879 2.036,2.262 2.969,2.692 2.574,1.179 5.422,0.656 7.453,-1.364 0.989,-0.984 1.614,-2.121 1.848,-3.351 0.078,-0.422 0.144,-2.317 0.144,-4.215 0,-1.895 0.047,-3.492 0.102,-3.547 0.055,-0.059 1.316,1.102 2.801,2.57 2.976,2.954 3.699,3.434 5.633,3.754 4.316,0.715 8.214,-3.199 7.535,-7.57 -0.344,-2.195 -0.274,-2.109 -9.207,-11.074 -4.461,-4.473 -8.078,-8.16 -8.043,-8.196 0.035,-0.031 0.5,-0.277 1.027,-0.543 1.801,-0.902 3.047,-1.835 4.844,-3.632 2.09,-2.086 3.332,-3.852 4.656,-6.629 1.395,-2.926 2.371,-6.235 2.867,-9.727 0.293,-2.058 0.25,-7.64 -0.078,-9.73 -0.351,-2.258 -1.133,-5.231 -1.855,-7.067 -0.321,-0.816 -1.754,-4.429 -3.184,-8.023 -2.558,-6.445 -4.617,-11.641 -9.121,-23.039 -3.051,-7.715 -3.031,-7.668 -3.496,-8.137 -0.32,-0.324 -0.535,-0.41 -1.047,-0.402 -0.351,0 -0.824,0.101 -1.047,0.222 z m 2.055,9.211 c 0.523,1.301 0.949,2.485 0.949,2.629 0,0.242 -0.183,0.266 -2.078,0.266 -1.52,0 -2.082,-0.047 -2.082,-0.176 0,-0.375 1.984,-5.18 2.121,-5.137 0.078,0.028 0.57,1.114 1.09,2.418 z m 2.558,6.653 c 0.204,0.246 3.297,8.093 3.297,8.367 0,0.18 -1.05,0.211 -6.984,0.211 -4.176,0 -6.988,-0.055 -6.988,-0.137 0,-0.316 3.277,-8.394 3.453,-8.504 0.105,-0.066 1.738,-0.125 3.629,-0.125 2.597,-0.004 3.472,0.043 3.593,0.188 z m 6.602,16.496 c 0.895,2.273 1.594,4.226 1.547,4.347 -0.074,0.192 -1.602,0.223 -11.824,0.223 -7.758,0 -11.77,-0.051 -11.828,-0.152 -0.094,-0.145 2.945,-8.059 3.238,-8.434 0.113,-0.148 1.961,-0.18 8.691,-0.148 l 8.547,0.039 z m 3.578,8.953 c 0.754,2.012 1.774,7.109 1.543,7.711 -0.086,0.219 -1.383,0.242 -15.398,0.242 -8.418,0 -15.332,-0.051 -15.367,-0.113 -0.106,-0.184 0.171,-2.391 0.496,-3.977 0.328,-1.586 1.117,-4.187 1.367,-4.496 0.121,-0.148 2.957,-0.18 13.617,-0.148 l 13.465,0.039 z m 1.547,13.137 c -0.16,2.57 -1.195,7.023 -1.68,7.211 -0.129,0.05 -6.339,0.089 -13.804,0.089 -10.852,0 -13.602,-0.039 -13.727,-0.191 -0.457,-0.551 -1.391,-4.82 -1.59,-7.277 l -0.105,-1.301 h 15.496 15.496 z m -3.301,11.019 c 0.188,0.301 -1.879,3.168 -3.324,4.606 -2.894,2.882 -5.957,4.175 -9.383,3.964 -2.953,-0.179 -5.652,-1.48 -8.136,-3.917 -1.348,-1.325 -3.309,-4.079 -3.309,-4.649 0,-0.215 24.019,-0.219 24.152,-0.004 z m -10.867,12.559 c 0.582,0.277 17.305,16.98 17.668,17.644 0.293,0.543 0.344,1.801 0.102,2.446 -0.215,0.566 -1,1.375 -1.586,1.625 -0.633,0.273 -1.852,0.261 -2.532,-0.024 -0.359,-0.148 -2.05,-1.726 -4.878,-4.543 -3.961,-3.949 -4.383,-4.324 -4.922,-4.398 -0.391,-0.051 -0.75,0.004 -1.059,0.164 -0.914,0.472 -0.918,0.515 -0.922,6.957 -0.004,3.211 -0.062,6.094 -0.137,6.406 -0.175,0.766 -0.695,1.484 -1.414,1.957 -0.535,0.352 -0.718,0.391 -1.668,0.344 -0.925,-0.043 -1.14,-0.109 -1.636,-0.5 -0.313,-0.25 -0.719,-0.746 -0.903,-1.106 -0.328,-0.648 -0.332,-0.726 -0.332,-6.648 0,-6.629 -0.019,-6.766 -0.922,-7.316 -0.578,-0.356 -1.168,-0.387 -1.726,-0.09 -0.219,0.117 -2.238,2.062 -4.488,4.32 -2.246,2.258 -4.336,4.238 -4.637,4.395 -0.785,0.406 -2.094,0.382 -2.863,-0.051 -1.274,-0.723 -1.848,-2.274 -1.344,-3.637 0.223,-0.609 1.437,-1.887 8.676,-9.156 5.703,-5.727 8.609,-8.543 9.011,-8.731 0.723,-0.336 1.868,-0.363 2.512,-0.058 z"
         style="fill:#000000;fill-opacity:1;fill-rule:nonzero;stroke:none"
         id="path32"
         inkscape:connector-curvature="0" /><g
         id="g34"
         transform="matrix(1,0,0,-1,0,595.27557)"><path
           d="m 435.656,429.871 h 95.719 c 4.078,0 7.359,3.281 7.359,7.363 v 95.715 c 0,4.078 -3.281,7.364 -7.359,7.364 h -95.719 c -4.078,0 -7.359,-3.286 -7.359,-7.364 v -95.715 c 0,-4.082 3.281,-7.363 7.359,-7.363 z"
           style="fill:#ff7900;fill-opacity:1;fill-rule:nonzero;stroke:#000000;stroke-width:2.94508696;stroke-linecap:round;stroke-linejoin:round;stroke-miterlimit:4;stroke-dasharray:none;stroke-opacity:1"
           id="path36"
           inkscape:connector-curvature="0" /></g><text
         transform="scale(1,-1)"
         style="font-variant:normal;font-weight:normal;font-size:11.63636398px;font-family:Arial;-inkscape-font-specification:Arial;writing-mode:lr-tb;fill:#000000;fill-opacity:1;fill-rule:nonzero;stroke:none"
         id="text40"
         x="458.83661"
         y="-62.635197"><tspan
           sodipodi:role="line"
           id="tspan38"
           x="458.83661"
           y="-62.635197">CARROT</tspan></text>
<path
         d="m 482.82,77.139 c -0.16,0.086 -0.336,0.246 -0.394,0.355 -0.059,0.106 -2.399,5.996 -5.196,13.09 -2.8,7.09 -5.285,13.356 -5.519,13.922 -1.297,3.113 -1.863,6.051 -1.852,9.57 0.02,4.758 1.243,9.012 3.614,12.578 1.371,2.059 3.539,4.008 5.48,4.93 0.328,0.156 0.602,0.34 0.602,0.41 0,0.071 -2.602,2.731 -5.778,5.914 -3.652,3.664 -5.851,5.946 -5.988,6.219 -0.676,1.356 -0.734,2.981 -0.144,4.238 0.914,1.95 3.007,3.075 5.074,2.719 1.355,-0.234 1.695,-0.465 3.91,-2.64 l 2.023,-1.985 0.059,2.813 c 0.066,2.992 0.121,3.328 0.68,4.3 0.363,0.629 1.453,1.618 2.121,1.922 1.84,0.84 3.871,0.469 5.324,-0.976 0.703,-0.703 1.152,-1.516 1.32,-2.395 0.055,-0.301 0.102,-1.652 0.102,-3.008 0,-1.355 0.031,-2.496 0.074,-2.535 0.039,-0.039 0.938,0.789 2,1.836 2.125,2.11 2.641,2.453 4.023,2.684 3.083,0.508 5.868,-2.285 5.379,-5.406 -0.242,-1.571 -0.191,-1.508 -6.574,-7.915 -3.183,-3.195 -5.769,-5.828 -5.746,-5.851 0.027,-0.024 0.359,-0.199 0.734,-0.387 1.286,-0.644 2.176,-1.312 3.461,-2.594 1.493,-1.492 2.379,-2.753 3.325,-4.738 0.996,-2.086 1.695,-4.453 2.05,-6.945 0.207,-1.473 0.176,-5.461 -0.054,-6.953 -0.254,-1.614 -0.813,-3.735 -1.328,-5.047 -0.231,-0.582 -1.25,-3.16 -2.274,-5.731 -1.828,-4.605 -3.297,-8.316 -6.515,-16.457 -2.18,-5.511 -2.165,-5.476 -2.497,-5.812 -0.226,-0.231 -0.382,-0.289 -0.746,-0.285 -0.254,0 -0.59,0.074 -0.75,0.16 z m 1.469,6.574 c 0.375,0.934 0.68,1.777 0.68,1.883 0,0.172 -0.133,0.187 -1.489,0.187 -1.082,0 -1.484,-0.035 -1.484,-0.125 0,-0.269 1.414,-3.703 1.512,-3.668 0.058,0.02 0.41,0.793 0.781,1.723 z m 1.824,4.754 c 0.149,0.176 2.36,5.781 2.36,5.977 0,0.128 -0.75,0.152 -4.993,0.152 -2.984,0 -4.988,-0.039 -4.988,-0.098 0,-0.226 2.34,-5.996 2.465,-6.074 0.074,-0.051 1.238,-0.09 2.59,-0.09 1.859,-0.004 2.484,0.031 2.566,0.133 z m 4.719,11.785 c 0.641,1.621 1.137,3.02 1.102,3.106 -0.051,0.136 -1.141,0.156 -8.442,0.156 -5.543,0 -8.41,-0.035 -8.453,-0.106 -0.062,-0.105 2.106,-5.757 2.316,-6.027 0.079,-0.105 1.403,-0.125 6.208,-0.105 l 6.105,0.027 z m 2.555,6.395 c 0.539,1.437 1.265,5.078 1.101,5.507 -0.058,0.157 -0.988,0.172 -10.996,0.172 -6.015,0 -10.953,-0.035 -10.98,-0.082 -0.074,-0.129 0.125,-1.707 0.355,-2.84 0.235,-1.132 0.801,-2.992 0.977,-3.21 0.086,-0.106 2.113,-0.129 9.726,-0.106 l 9.618,0.027 z m 1.105,9.382 c -0.113,1.836 -0.855,5.016 -1.199,5.149 -0.094,0.035 -4.531,0.066 -9.859,0.066 -7.754,0 -9.715,-0.027 -9.809,-0.136 -0.324,-0.395 -0.992,-3.442 -1.133,-5.2 l -0.078,-0.929 h 11.07 11.071 z m -2.359,7.872 c 0.137,0.214 -1.34,2.261 -2.375,3.289 -2.067,2.058 -4.254,2.984 -6.699,2.832 -2.114,-0.129 -4.039,-1.059 -5.813,-2.797 -0.965,-0.949 -2.363,-2.914 -2.363,-3.324 0,-0.149 17.156,-0.153 17.25,0 z m -7.762,8.968 c 0.418,0.2 12.363,12.129 12.621,12.606 0.207,0.387 0.246,1.285 0.071,1.746 -0.153,0.406 -0.715,0.98 -1.129,1.16 -0.454,0.195 -1.325,0.188 -1.809,-0.016 -0.258,-0.109 -1.465,-1.234 -3.488,-3.246 -2.828,-2.82 -3.129,-3.09 -3.516,-3.14 -0.277,-0.035 -0.535,0.004 -0.754,0.117 -0.652,0.336 -0.656,0.367 -0.66,4.969 0,2.293 -0.043,4.351 -0.094,4.574 -0.129,0.551 -0.5,1.062 -1.011,1.398 -0.383,0.254 -0.512,0.282 -1.192,0.246 -0.66,-0.031 -0.816,-0.078 -1.168,-0.355 -0.222,-0.18 -0.515,-0.535 -0.644,-0.793 -0.239,-0.461 -0.239,-0.516 -0.239,-4.746 0,-4.738 -0.015,-4.836 -0.66,-5.227 -0.414,-0.254 -0.832,-0.273 -1.23,-0.062 -0.16,0.082 -1.602,1.472 -3.207,3.086 -1.606,1.613 -3.098,3.023 -3.313,3.136 -0.558,0.293 -1.496,0.274 -2.043,-0.035 -0.914,-0.515 -1.324,-1.625 -0.965,-2.597 0.164,-0.434 1.028,-1.348 6.2,-6.543 4.074,-4.09 6.148,-6.098 6.437,-6.235 0.516,-0.242 1.332,-0.261 1.793,-0.043 z"
         style="fill:#000000;fill-opacity:1;fill-rule:nonzero;stroke:none"
         id="path42"
         inkscape:connector-curvature="0" /><g
         id="g44"
         transform="matrix(1,0,0,-1,0,595.27557)"><path
           d="m 203.852,430.461 h 134 c 5.711,0 10.308,4.594 10.308,10.305 V 574.77 c 0,5.71 -4.597,10.304 -10.308,10.304 h -134 c -5.711,0 -10.309,-4.594 -10.309,-10.304 V 440.766 c 0,-5.711 4.598,-10.305 10.309,-10.305 z"
           style="fill:#ff7900;fill-opacity:1;fill-rule:nonzero;stroke:#000000;stroke-width:4.12312078;stroke-linecap:round;stroke-linejoin:round;stroke-miterlimit:4;stroke-dasharray:none;stroke-opacity:1"
           id="path46"
           inkscape:connector-curvature="0" /></g><text
         transform="scale(1,-1)"
         style="font-variant:normal;font-weight:normal;font-size:16.29091072px;font-family:Arial;-inkscape-font-specification:Arial;writing-mode:lr-tb;fill:#000000;fill-opacity:1;fill-rule:nonzero;stroke:none"
         id="text50"
         x="235.10136"
         y="-20.938061"><tspan
           sodipodi:role="line"
           id="tspan48"
           x="235.10136"
           y="-20.938061">CARROT</tspan></text>
<path
         d="m 269.879,41.24 c -0.223,0.122 -0.473,0.348 -0.555,0.5 -0.082,0.149 -3.355,8.399 -7.273,18.325 -3.922,9.925 -7.399,18.699 -7.727,19.492 -1.816,4.355 -2.609,8.472 -2.59,13.402 0.028,6.656 1.739,12.61 5.059,17.606 1.918,2.882 4.953,5.613 7.672,6.898 0.461,0.219 0.84,0.481 0.84,0.578 0,0.098 -3.637,3.824 -8.086,8.281 -5.117,5.129 -8.196,8.325 -8.383,8.704 -0.949,1.898 -1.027,4.175 -0.203,5.933 1.277,2.735 4.211,4.305 7.101,3.805 1.899,-0.324 2.375,-0.649 5.477,-3.692 l 2.828,-2.781 0.09,3.938 c 0.094,4.191 0.164,4.656 0.949,6.019 0.508,0.879 2.035,2.262 2.969,2.692 2.574,1.179 5.422,0.656 7.453,-1.364 0.984,-0.984 1.613,-2.121 1.848,-3.351 0.078,-0.422 0.144,-2.317 0.144,-4.215 0,-1.895 0.047,-3.492 0.102,-3.547 0.054,-0.059 1.316,1.102 2.801,2.57 2.976,2.954 3.699,3.434 5.632,3.754 4.317,0.715 8.215,-3.199 7.536,-7.57 -0.344,-2.195 -0.274,-2.109 -9.208,-11.074 -4.46,-4.473 -8.078,-8.16 -8.042,-8.196 0.035,-0.031 0.5,-0.277 1.027,-0.543 1.801,-0.902 3.047,-1.835 4.844,-3.632 2.089,-2.086 3.332,-3.852 4.656,-6.629 1.394,-2.926 2.371,-6.235 2.867,-9.727 0.293,-2.058 0.25,-7.64 -0.078,-9.73 -0.352,-2.258 -1.133,-5.231 -1.856,-7.067 -0.32,-0.816 -1.753,-4.429 -3.183,-8.023 -2.559,-6.445 -4.617,-11.641 -9.121,-23.039 -3.051,-7.715 -3.031,-7.668 -3.496,-8.137 -0.321,-0.324 -0.539,-0.41 -1.047,-0.402 -0.352,0 -0.824,0.101 -1.047,0.222 z m 2.055,9.211 c 0.523,1.301 0.949,2.485 0.949,2.629 0,0.242 -0.184,0.266 -2.078,0.266 -1.52,0 -2.082,-0.047 -2.082,-0.176 0,-0.375 1.984,-5.18 2.121,-5.137 0.078,0.028 0.57,1.114 1.09,2.418 z m 2.558,6.653 c 0.203,0.246 3.297,8.093 3.297,8.367 0,0.18 -1.051,0.211 -6.984,0.211 -4.18,0 -6.989,-0.055 -6.989,-0.137 0,-0.316 3.278,-8.394 3.454,-8.504 0.105,-0.066 1.738,-0.125 3.628,-0.125 2.598,-0.004 3.473,0.043 3.594,0.188 z m 6.602,16.496 c 0.894,2.273 1.594,4.226 1.547,4.347 -0.075,0.192 -1.602,0.223 -11.825,0.223 -7.757,0 -11.769,-0.051 -11.832,-0.152 -0.089,-0.145 2.95,-8.059 3.243,-8.434 0.113,-0.148 1.961,-0.18 8.691,-0.148 l 8.547,0.039 z m 3.578,8.953 c 0.754,2.012 1.773,7.109 1.543,7.711 -0.086,0.219 -1.383,0.242 -15.399,0.242 -8.418,0 -15.332,-0.051 -15.367,-0.113 -0.105,-0.184 0.172,-2.391 0.496,-3.977 0.328,-1.586 1.118,-4.187 1.368,-4.496 0.121,-0.148 2.957,-0.18 13.617,-0.148 l 13.465,0.039 z m 1.543,13.137 c -0.156,2.57 -1.192,7.023 -1.676,7.211 -0.129,0.05 -6.34,0.089 -13.805,0.089 -10.851,0 -13.601,-0.039 -13.726,-0.191 -0.457,-0.551 -1.391,-4.82 -1.59,-7.277 l -0.105,-1.301 h 15.496 15.496 z m -3.297,11.019 c 0.187,0.301 -1.879,3.168 -3.324,4.606 -2.895,2.882 -5.957,4.175 -9.383,3.964 -2.953,-0.179 -5.652,-1.48 -8.137,-3.917 -1.347,-1.325 -3.308,-4.079 -3.308,-4.649 0,-0.215 24.019,-0.219 24.152,-0.004 z m -10.871,12.559 c 0.586,0.277 17.308,16.98 17.672,17.644 0.293,0.543 0.344,1.801 0.101,2.446 -0.215,0.566 -1.004,1.375 -1.586,1.625 -0.632,0.273 -1.851,0.261 -2.531,-0.024 -0.359,-0.148 -2.051,-1.726 -4.879,-4.543 -3.961,-3.949 -4.383,-4.324 -4.922,-4.398 -0.39,-0.051 -0.75,0.004 -1.058,0.164 -0.914,0.472 -0.918,0.515 -0.922,6.957 -0.004,3.211 -0.063,6.094 -0.137,6.406 -0.176,0.766 -0.695,1.484 -1.414,1.957 -0.535,0.352 -0.719,0.391 -1.668,0.344 -0.926,-0.043 -1.14,-0.109 -1.637,-0.5 -0.312,-0.25 -0.718,-0.746 -0.902,-1.106 -0.328,-0.648 -0.332,-0.726 -0.332,-6.648 0,-6.629 -0.019,-6.766 -0.922,-7.316 -0.578,-0.356 -1.168,-0.387 -1.726,-0.09 -0.219,0.117 -2.239,2.062 -4.489,4.32 -2.246,2.258 -4.336,4.238 -4.636,4.395 -0.786,0.406 -2.094,0.382 -2.864,-0.051 -1.273,-0.723 -1.847,-2.274 -1.343,-3.637 0.222,-0.609 1.437,-1.887 8.675,-9.156 5.703,-5.727 8.61,-8.543 9.012,-8.731 0.723,-0.336 1.867,-0.363 2.508,-0.058 z"
         style="fill:#000000;fill-opacity:1;fill-rule:nonzero;stroke:none"
         id="path52"
         inkscape:connector-curvature="0" /><g
         id="g54"
         transform="matrix(1,0,0,-1,0,595.27557)"><path
           d="m 562.957,429.871 h 95.715 c 4.078,0 7.363,3.281 7.363,7.363 v 95.715 c 0,4.078 -3.285,7.364 -7.363,7.364 h -95.715 c -4.078,0 -7.363,-3.286 -7.363,-7.364 v -95.715 c 0,-4.082 3.285,-7.363 7.363,-7.363 z"
           style="fill:#ff7900;fill-opacity:1;fill-rule:nonzero;stroke:#000000;stroke-width:2.94508696;stroke-linecap:round;stroke-linejoin:round;stroke-miterlimit:4;stroke-dasharray:none;stroke-opacity:1"
           id="path56"
           inkscape:connector-curvature="0" /></g><text
         transform="scale(1,-1)"
         style="font-variant:normal;font-weight:normal;font-size:11.63636398px;font-family:Arial;-inkscape-font-specification:Arial;writing-mode:lr-tb;fill:#000000;fill-opacity:1;fill-rule:nonzero;stroke:none"
         id="text60"
         x="586.13458"
         y="-62.635197"><tspan
           sodipodi:role="line"
           id="tspan58"
           x="586.13458"
           y="-62.635197">CARROT</tspan></text>
<path
         d="m 610.117,77.139 c -0.156,0.086 -0.336,0.246 -0.394,0.355 -0.059,0.106 -2.395,5.996 -5.196,13.09 -2.8,7.09 -5.285,13.356 -5.519,13.922 -1.297,3.113 -1.863,6.051 -1.852,9.57 0.02,4.758 1.242,9.012 3.614,12.578 1.371,2.059 3.539,4.008 5.48,4.93 0.332,0.156 0.602,0.34 0.602,0.41 0,0.071 -2.598,2.731 -5.778,5.914 -3.652,3.664 -5.851,5.946 -5.988,6.219 -0.676,1.356 -0.731,2.981 -0.145,4.238 0.914,1.95 3.008,3.075 5.075,2.719 1.355,-0.234 1.695,-0.465 3.91,-2.64 l 2.023,-1.985 0.063,2.813 c 0.066,2.992 0.117,3.328 0.679,4.3 0.36,0.629 1.45,1.618 2.122,1.922 1.835,0.84 3.871,0.469 5.32,-0.976 0.707,-0.703 1.152,-1.516 1.32,-2.395 0.059,-0.301 0.102,-1.652 0.102,-3.008 0,-1.355 0.035,-2.496 0.074,-2.535 0.039,-0.039 0.937,0.789 2,1.836 2.129,2.11 2.641,2.453 4.023,2.684 3.086,0.508 5.868,-2.285 5.383,-5.406 -0.246,-1.571 -0.195,-1.508 -6.578,-7.915 -3.184,-3.195 -5.769,-5.828 -5.742,-5.851 0.023,-0.024 0.355,-0.199 0.734,-0.387 1.285,-0.644 2.176,-1.312 3.457,-2.594 1.492,-1.492 2.383,-2.753 3.328,-4.738 0.996,-2.086 1.692,-4.453 2.047,-6.945 0.211,-1.473 0.18,-5.461 -0.054,-6.953 -0.254,-1.614 -0.809,-3.735 -1.325,-5.047 -0.23,-0.582 -1.254,-3.16 -2.273,-5.731 -1.832,-4.605 -3.301,-8.316 -6.52,-16.457 -2.175,-5.511 -2.164,-5.476 -2.496,-5.812 -0.226,-0.231 -0.383,-0.289 -0.746,-0.285 -0.254,0 -0.59,0.074 -0.75,0.16 z m 1.469,6.574 c 0.375,0.934 0.68,1.777 0.68,1.883 0,0.172 -0.133,0.187 -1.489,0.187 -1.082,0 -1.484,-0.035 -1.484,-0.125 0,-0.269 1.418,-3.703 1.516,-3.668 0.054,0.02 0.406,0.793 0.777,1.723 z m 1.828,4.754 c 0.145,0.176 2.356,5.781 2.356,5.977 0,0.128 -0.75,0.152 -4.993,0.152 -2.98,0 -4.988,-0.039 -4.988,-0.098 0,-0.226 2.34,-5.996 2.465,-6.074 0.074,-0.051 1.242,-0.09 2.59,-0.09 1.859,-0.004 2.484,0.031 2.57,0.133 z m 4.715,11.785 c 0.641,1.621 1.137,3.02 1.105,3.106 -0.054,0.136 -1.144,0.156 -8.445,0.156 -5.543,0 -8.406,-0.035 -8.449,-0.106 -0.067,-0.105 2.105,-5.757 2.312,-6.027 0.082,-0.105 1.403,-0.125 6.207,-0.105 l 6.106,0.027 z m 2.555,6.395 c 0.539,1.437 1.269,5.078 1.105,5.507 -0.062,0.157 -0.992,0.172 -11,0.172 -6.012,0 -10.953,-0.035 -10.976,-0.082 -0.075,-0.129 0.121,-1.707 0.355,-2.84 0.23,-1.132 0.797,-2.992 0.977,-3.21 0.085,-0.106 2.109,-0.129 9.722,-0.106 l 9.621,0.027 z m 1.105,9.382 c -0.113,1.836 -0.851,5.016 -1.199,5.149 -0.094,0.035 -4.527,0.066 -9.86,0.066 -7.75,0 -9.714,-0.027 -9.804,-0.136 -0.328,-0.395 -0.996,-3.442 -1.137,-5.2 l -0.078,-0.929 h 11.07 11.071 z m -2.355,7.872 c 0.132,0.214 -1.344,2.261 -2.379,3.289 -2.067,2.058 -4.254,2.984 -6.7,2.832 -2.109,-0.129 -4.039,-1.059 -5.812,-2.797 -0.965,-0.949 -2.363,-2.914 -2.363,-3.324 0,-0.149 17.16,-0.153 17.254,0 z m -7.766,8.968 c 0.418,0.2 12.363,12.129 12.621,12.606 0.211,0.387 0.246,1.285 0.074,1.746 -0.156,0.406 -0.715,0.98 -1.133,1.16 -0.453,0.195 -1.324,0.188 -1.808,-0.016 -0.254,-0.109 -1.465,-1.234 -3.484,-3.246 -2.833,-2.82 -3.133,-3.09 -3.516,-3.14 -0.281,-0.035 -0.535,0.004 -0.758,0.117 -0.652,0.336 -0.656,0.367 -0.656,4.969 -0.004,2.293 -0.047,4.351 -0.098,4.574 -0.129,0.551 -0.496,1.062 -1.012,1.398 -0.382,0.254 -0.511,0.282 -1.191,0.246 -0.66,-0.031 -0.816,-0.078 -1.168,-0.355 -0.223,-0.18 -0.512,-0.535 -0.644,-0.793 -0.235,-0.461 -0.239,-0.516 -0.239,-4.746 0,-4.738 -0.011,-4.836 -0.656,-5.227 -0.414,-0.254 -0.836,-0.273 -1.234,-0.062 -0.157,0.082 -1.602,1.472 -3.207,3.086 -1.606,1.613 -3.094,3.023 -3.313,3.136 -0.558,0.293 -1.496,0.274 -2.043,-0.035 -0.91,-0.515 -1.32,-1.625 -0.961,-2.597 0.16,-0.434 1.024,-1.348 6.199,-6.543 4.075,-4.09 6.149,-6.098 6.434,-6.235 0.516,-0.242 1.336,-0.261 1.793,-0.043 z"
         style="fill:#000000;fill-opacity:1;fill-rule:nonzero;stroke:none"
         id="path62"
         inkscape:connector-curvature="0" /><g
         id="g64"
         transform="matrix(1,0,0,-1,0,595.27557)"><path
           d="m 690.789,429.871 h 95.715 c 4.078,0 7.363,3.281 7.363,7.363 v 95.715 c 0,4.078 -3.285,7.364 -7.363,7.364 h -95.715 c -4.078,0 -7.363,-3.286 -7.363,-7.364 v -95.715 c 0,-4.082 3.285,-7.363 7.363,-7.363 z"
           style="fill:#ff7900;fill-opacity:1;fill-rule:nonzero;stroke:#000000;stroke-width:2.94508696;stroke-linecap:round;stroke-linejoin:round;stroke-miterlimit:4;stroke-dasharray:none;stroke-opacity:1"
           id="path66"
           inkscape:connector-curvature="0" /></g><text
         transform="scale(1,-1)"
         style="font-variant:normal;font-weight:normal;font-size:11.63636398px;font-family:Arial;-inkscape-font-specification:Arial;writing-mode:lr-tb;fill:#000000;fill-opacity:1;fill-rule:nonzero;stroke:none"
         id="text70"
         x="713.96747"
         y="-62.635197"><tspan
           sodipodi:role="line"
           id="tspan68"
           x="713.96747"
           y="-62.635197">CARROT</tspan></text>
<path
         d="m 737.949,77.139 c -0.156,0.086 -0.336,0.246 -0.394,0.355 -0.059,0.106 -2.395,5.996 -5.196,13.09 -2.8,7.09 -5.285,13.356 -5.519,13.922 -1.297,3.113 -1.863,6.051 -1.848,9.57 0.016,4.758 1.238,9.012 3.613,12.578 1.368,2.059 3.536,4.008 5.481,4.93 0.328,0.156 0.598,0.34 0.598,0.41 0,0.071 -2.598,2.731 -5.774,5.914 -3.656,3.664 -5.855,5.946 -5.988,6.219 -0.68,1.356 -0.734,2.981 -0.145,4.238 0.911,1.95 3.008,3.075 5.071,2.719 1.355,-0.234 1.699,-0.465 3.91,-2.64 l 2.023,-1.985 0.063,2.813 c 0.066,2.992 0.117,3.328 0.679,4.3 0.364,0.629 1.454,1.618 2.122,1.922 1.839,0.84 3.871,0.469 5.32,-0.976 0.707,-0.703 1.152,-1.516 1.32,-2.395 0.059,-0.301 0.106,-1.652 0.106,-3.008 0,-1.355 0.031,-2.496 0.07,-2.535 0.039,-0.039 0.941,0.789 2,1.836 2.129,2.11 2.644,2.453 4.023,2.684 3.086,0.508 5.868,-2.285 5.383,-5.406 -0.246,-1.571 -0.195,-1.508 -6.578,-7.915 -3.184,-3.195 -5.769,-5.828 -5.742,-5.851 0.023,-0.024 0.355,-0.199 0.734,-0.387 1.285,-0.644 2.176,-1.312 3.461,-2.594 1.492,-1.492 2.379,-2.753 3.324,-4.738 0.997,-2.086 1.692,-4.453 2.047,-6.945 0.211,-1.473 0.18,-5.461 -0.054,-6.953 -0.25,-1.614 -0.809,-3.735 -1.325,-5.047 -0.23,-0.582 -1.254,-3.16 -2.273,-5.731 -1.832,-4.605 -3.301,-8.316 -6.516,-16.457 -2.179,-5.511 -2.164,-5.476 -2.496,-5.812 -0.23,-0.231 -0.386,-0.289 -0.75,-0.285 -0.254,0 -0.59,0.074 -0.75,0.16 z m 1.473,6.574 c 0.371,0.934 0.676,1.777 0.676,1.883 0,0.172 -0.133,0.187 -1.485,0.187 -1.086,0 -1.488,-0.035 -1.488,-0.125 0,-0.269 1.418,-3.703 1.516,-3.668 0.054,0.02 0.406,0.793 0.781,1.723 z m 1.824,4.754 c 0.149,0.176 2.356,5.781 2.356,5.977 0,0.128 -0.75,0.152 -4.989,0.152 -2.984,0 -4.992,-0.039 -4.992,-0.098 0,-0.226 2.34,-5.996 2.465,-6.074 0.074,-0.051 1.242,-0.09 2.594,-0.09 1.855,-0.004 2.48,0.031 2.566,0.133 z m 4.715,11.785 c 0.641,1.621 1.137,3.02 1.105,3.106 -0.054,0.136 -1.144,0.156 -8.445,0.156 -5.543,0 -8.406,-0.035 -8.449,-0.106 -0.067,-0.105 2.105,-5.757 2.312,-6.027 0.082,-0.105 1.403,-0.125 6.207,-0.105 l 6.106,0.027 z m 2.559,6.395 c 0.535,1.437 1.265,5.078 1.101,5.507 -0.062,0.157 -0.988,0.172 -11,0.172 -6.012,0 -10.953,-0.035 -10.976,-0.082 -0.075,-0.129 0.121,-1.707 0.355,-2.84 0.23,-1.132 0.797,-2.992 0.977,-3.21 0.086,-0.106 2.109,-0.129 9.726,-0.106 l 9.617,0.027 z m 1.101,9.382 c -0.113,1.836 -0.851,5.016 -1.199,5.149 -0.09,0.035 -4.527,0.066 -9.859,0.066 -7.75,0 -9.715,-0.027 -9.805,-0.136 -0.328,-0.395 -0.992,-3.442 -1.137,-5.2 l -0.074,-0.929 h 11.07 11.067 z m -2.355,7.872 c 0.132,0.214 -1.344,2.261 -2.375,3.289 -2.067,2.058 -4.254,2.984 -6.703,2.832 -2.11,-0.129 -4.036,-1.059 -5.809,-2.797 -0.965,-0.949 -2.367,-2.914 -2.367,-3.324 0,-0.149 17.16,-0.153 17.254,0 z m -7.766,8.968 c 0.418,0.2 12.363,12.129 12.621,12.606 0.211,0.387 0.246,1.285 0.074,1.746 -0.152,0.406 -0.715,0.98 -1.132,1.16 -0.454,0.195 -1.321,0.188 -1.809,-0.016 -0.254,-0.109 -1.465,-1.234 -3.484,-3.246 -2.832,-2.82 -3.129,-3.09 -3.516,-3.14 -0.281,-0.035 -0.535,0.004 -0.758,0.117 -0.648,0.336 -0.656,0.367 -0.656,4.969 -0.004,2.293 -0.047,4.351 -0.098,4.574 -0.129,0.551 -0.496,1.062 -1.012,1.398 -0.382,0.254 -0.511,0.282 -1.191,0.246 -0.66,-0.031 -0.816,-0.078 -1.168,-0.355 -0.223,-0.18 -0.512,-0.535 -0.644,-0.793 -0.235,-0.461 -0.239,-0.516 -0.239,-4.746 0,-4.738 -0.011,-4.836 -0.656,-5.227 -0.414,-0.254 -0.836,-0.273 -1.234,-0.062 -0.157,0.082 -1.598,1.472 -3.203,3.086 -1.61,1.613 -3.098,3.023 -3.317,3.136 -0.558,0.293 -1.492,0.274 -2.043,-0.035 -0.91,-0.515 -1.32,-1.625 -0.961,-2.597 0.16,-0.434 1.028,-1.348 6.199,-6.543 4.075,-4.09 6.149,-6.098 6.438,-6.235 0.512,-0.242 1.332,-0.261 1.789,-0.043 z"
         style="fill:#000000;fill-opacity:1;fill-rule:nonzero;stroke:none"
         id="path72"
         inkscape:connector-curvature="0" /><g
         id="g74"
         transform="matrix(1,0,0,-1,0,595.27557)"><path
           d="M 457.746,24.934 H 792.75 c 14.277,0 25.77,11.492 25.77,25.769 v 335.004 c 0,14.277 -11.493,25.77 -25.77,25.77 H 457.746 c -14.277,0 -25.769,-11.493 -25.769,-25.77 V 50.703 c 0,-14.277 11.492,-25.769 25.769,-25.769 z"
           style="fill:#ff7900;fill-opacity:1;fill-rule:nonzero;stroke:#000000;stroke-width:10.30780315;stroke-linecap:round;stroke-linejoin:round;stroke-miterlimit:4;stroke-dasharray:none;stroke-opacity:1"
           id="path76"
           inkscape:connector-curvature="0" /></g><text
         transform="scale(1,-1)"
         style="font-variant:normal;font-weight:normal;font-size:40.72727585px;font-family:Arial;-inkscape-font-specification:Arial;writing-mode:lr-tb;fill:#000000;fill-opacity:1;fill-rule:nonzero;stroke:none"
         id="text80"
         x="538.87146"
         y="-210.64554"><tspan
           sodipodi:role="line"
           id="tspan78"
           x="538.87146"
           y="-210.64554">CARROT</tspan></text>
<path
         d="m 622.813,261.404 c -0.555,0.305 -1.176,0.864 -1.383,1.243 -0.203,0.379 -8.387,20.996 -18.188,45.816 -9.797,24.816 -18.492,46.746 -19.316,48.727 -4.535,10.894 -6.52,21.183 -6.473,33.504 0.067,16.644 4.344,31.531 12.645,44.015 4.797,7.215 12.386,14.039 19.183,17.254 1.153,0.547 2.098,1.191 2.098,1.438 0,0.246 -9.098,9.562 -20.211,20.703 -12.793,12.824 -20.488,20.808 -20.961,21.758 -2.371,4.746 -2.566,10.437 -0.508,14.839 3.199,6.828 10.528,10.758 17.758,9.512 4.742,-0.816 5.938,-1.621 13.688,-9.234 l 7.074,-6.953 0.219,9.847 c 0.234,10.477 0.417,11.645 2.378,15.047 1.27,2.203 5.082,5.66 7.422,6.731 6.438,2.945 13.547,1.644 18.625,-3.414 2.469,-2.458 4.039,-5.301 4.621,-8.379 0.2,-1.051 0.364,-5.789 0.364,-10.532 0,-4.742 0.113,-8.734 0.254,-8.871 0.136,-0.14 3.289,2.754 7,6.43 7.445,7.379 9.246,8.578 14.082,9.379 10.793,1.789 20.535,-7.996 18.836,-18.918 -0.856,-5.488 -0.676,-5.274 -23.016,-27.688 -11.149,-11.187 -20.195,-20.402 -20.106,-20.488 0.09,-0.082 1.247,-0.691 2.571,-1.355 4.496,-2.254 7.613,-4.594 12.109,-9.082 5.223,-5.215 8.328,-9.637 11.641,-16.579 3.484,-7.308 5.922,-15.582 7.168,-24.312 0.734,-5.152 0.621,-19.105 -0.196,-24.328 -0.882,-5.645 -2.836,-13.074 -4.64,-17.66 -0.801,-2.047 -4.383,-11.075 -7.957,-20.067 -6.403,-16.113 -11.543,-29.097 -22.805,-57.593 -7.625,-19.29 -7.574,-19.172 -8.734,-20.344 -0.801,-0.809 -1.348,-1.02 -2.621,-1.008 -0.883,0.008 -2.063,0.262 -2.621,0.562 z m 5.144,23.02 c 1.305,3.258 2.371,6.219 2.371,6.582 0,0.602 -0.461,0.66 -5.199,0.66 -3.793,0 -5.203,-0.121 -5.203,-0.445 0,-0.934 4.957,-12.949 5.297,-12.836 0.199,0.066 1.425,2.781 2.734,6.039 z m 6.387,16.633 c 0.515,0.621 8.246,20.238 8.246,20.926 0,0.445 -2.621,0.527 -17.461,0.527 -10.445,0 -17.465,-0.141 -17.465,-0.344 0,-0.797 8.191,-20.992 8.625,-21.265 0.262,-0.168 4.344,-0.305 9.07,-0.309 6.5,-0.008 8.692,0.109 8.985,0.465 z m 16.508,41.246 c 2.242,5.676 3.98,10.566 3.863,10.867 -0.184,0.481 -4,0.551 -29.555,0.551 -19.398,0 -29.422,-0.129 -29.578,-0.375 -0.223,-0.363 7.375,-20.145 8.102,-21.086 0.281,-0.367 4.906,-0.449 21.726,-0.371 l 21.367,0.094 z m 8.945,22.379 c 1.883,5.031 4.433,17.777 3.859,19.273 -0.215,0.555 -3.461,0.606 -38.496,0.606 -21.043,0 -38.332,-0.125 -38.418,-0.278 -0.262,-0.461 0.426,-5.98 1.242,-9.937 0.813,-3.973 2.793,-10.473 3.418,-11.242 0.297,-0.371 7.391,-0.45 34.039,-0.375 l 33.661,0.097 z m 3.863,32.844 c -0.39,6.425 -2.984,17.558 -4.195,18.023 -0.32,0.125 -15.852,0.227 -34.508,0.227 -27.129,0 -34.004,-0.098 -34.32,-0.477 -1.145,-1.379 -3.477,-12.047 -3.977,-18.195 l -0.265,-3.25 h 38.746 38.742 z m -8.246,27.543 c 0.469,0.761 -4.699,7.925 -8.316,11.523 -7.231,7.199 -14.891,10.434 -23.45,9.91 -7.39,-0.457 -14.136,-3.703 -20.339,-9.793 -3.379,-3.316 -8.282,-10.199 -8.282,-11.629 0,-0.531 60.059,-0.543 60.387,-0.011 z m -27.176,31.398 c 1.461,0.691 43.274,42.449 44.172,44.113 0.735,1.36 0.867,4.5 0.258,6.114 -0.535,1.421 -2.504,3.437 -3.961,4.066 -1.586,0.68 -4.629,0.648 -6.328,-0.063 -0.899,-0.371 -5.125,-4.312 -12.203,-11.359 -9.903,-9.871 -10.953,-10.809 -12.305,-10.988 -0.976,-0.133 -1.871,0.008 -2.644,0.406 -2.282,1.18 -2.297,1.289 -2.305,17.387 -0.008,8.031 -0.156,15.238 -0.336,16.015 -0.449,1.922 -1.742,3.715 -3.543,4.899 -1.336,0.879 -1.789,0.972 -4.168,0.863 -2.312,-0.109 -2.855,-0.277 -4.086,-1.254 -0.781,-0.625 -1.797,-1.867 -2.258,-2.769 -0.824,-1.618 -0.836,-1.813 -0.836,-16.618 0,-16.574 -0.043,-16.917 -2.3,-18.292 -1.45,-0.883 -2.922,-0.961 -4.313,-0.219 -0.551,0.293 -5.602,5.152 -11.223,10.801 -5.621,5.644 -10.839,10.589 -11.597,10.984 -1.957,1.019 -5.231,0.961 -7.153,-0.129 -3.187,-1.805 -4.625,-5.684 -3.363,-9.094 0.559,-1.515 3.59,-4.715 21.695,-22.89 14.258,-14.317 21.52,-21.352 22.528,-21.821 1.801,-0.843 4.668,-0.914 6.269,-0.152 z"
         style="fill:#000000;fill-opacity:1;fill-rule:nonzero;stroke:none"
         id="path82"
         inkscape:connector-curvature="0" /></g></g></svg>