<?xml version="1.0" encoding="UTF-8" standalone="no"?>
<!-- Created with Inkscape (http://www.inkscape.org/) -->

<svg
   xmlns:dc="http://purl.org/dc/elements/1.1/"
   xmlns:cc="http://creativecommons.org/ns#"
   xmlns:rdf="http://www.w3.org/1999/02/22-rdf-syntax-ns#"
   xmlns:svg="http://www.w3.org/2000/svg"
   xmlns="http://www.w3.org/2000/svg"
   xmlns:sodipodi="http://sodipodi.sourceforge.net/DTD/sodipodi-0.dtd"
   xmlns:inkscape="http://www.inkscape.org/namespaces/inkscape"
   version="1.1"
   id="svg2"
   xml:space="preserve"
   width="1122.5197"
   height="793.70074"
   viewBox="0 0 1122.5197 793.70074"
   sodipodi:docname="Cerise.svg"
   inkscape:version="0.92.2 5c3e80d, 2017-08-06"><metadata
     id="metadata8"><rdf:RDF><cc:Work
         rdf:about=""><dc:format>image/svg+xml</dc:format><dc:type
           rdf:resource="http://purl.org/dc/dcmitype/StillImage" /><dc:title></dc:title></cc:Work></rdf:RDF></metadata><defs
     id="defs6" /><sodipodi:namedview
     pagecolor="#ffffff"
     bordercolor="#666666"
     borderopacity="1"
     objecttolerance="10"
     gridtolerance="10"
     guidetolerance="10"
     inkscape:pageopacity="0"
     inkscape:pageshadow="2"
     inkscape:window-width="1262"
     inkscape:window-height="732"
     id="namedview4"
     showgrid="false"
     inkscape:zoom="0.65378181"
     inkscape:cx="395.26866"
     inkscape:cy="396.85037"
     inkscape:window-x="54"
     inkscape:window-y="0"
     inkscape:window-maximized="0"
     inkscape:current-layer="g12" /><g
     id="g10"
     inkscape:groupmode="layer"
     inkscape:label="Cerise"
     transform="matrix(1.3333333,0,0,-1.3333333,0,793.70077)"><g
       id="g12"><g
         id="g14"
         transform="matrix(1,0,0,-1,0,595.27557)"><path
           d="m 49.645,24.934 h 335.003 c 14.274,0 25.77,11.492 25.77,25.769 v 335.004 c 0,14.277 -11.496,25.77 -25.77,25.77 H 49.645 c -14.278,0 -25.77,-11.493 -25.77,-25.77 V 50.703 c 0,-14.277 11.492,-25.769 25.77,-25.769 z"
           style="fill:#ffb4e6;fill-opacity:1;fill-rule:nonzero;stroke:#000000;stroke-width:10.30780315;stroke-linecap:round;stroke-linejoin:round;stroke-miterlimit:4;stroke-dasharray:none;stroke-opacity:1"
           id="path16"
           inkscape:connector-curvature="0" /></g><text
         transform="scale(1,-1)"
         style="font-variant:normal;font-weight:normal;font-size:40.72727585px;font-family:Arial;-inkscape-font-specification:Arial;writing-mode:lr-tb;fill:#000000;fill-opacity:1;fill-rule:nonzero;stroke:none"
         id="text20"
         x="131.32559"
         y="-210.64557"><tspan
           sodipodi:role="line"
           id="tspan18"
           x="131.32559"
           y="-210.64557">CHERRY</tspan></text>
<path
         d="m 253.707,258.674 c -8.191,1.25 -11.285,1.918 -15.98,3.457 -9.59,3.145 -18.672,8.531 -26.34,15.629 -9.168,8.484 -13.809,15.148 -18.981,27.254 -0.746,1.75 -1.148,2.203 -1.781,2 -0.449,-0.145 -2.594,-0.918 -4.766,-1.715 -11.238,-4.141 -25.207,-4.824 -37.203,-1.828 -18.98,4.746 -35.422,18.57 -43.258,36.375 -6.289,14.289 -7.265,30.254 -2.664,43.43 7.856,22.484 29.711,37.851 52.094,36.621 5.399,-0.293 5.453,-0.289 5.695,0.761 0.133,0.582 0.563,2.614 0.954,4.516 3.847,18.793 13.597,39.328 26.312,55.426 4.262,5.398 14.672,15.949 19.914,20.187 18.61,15.043 41.422,26.114 66.949,32.481 7.953,1.988 8.93,2.008 10.692,0.246 2.035,-2.035 1.906,-4.352 -0.348,-6.258 -4.215,-3.566 -9.023,-8.797 -11.391,-12.398 -13.066,-19.864 -18.812,-51.149 -16.632,-90.586 0.734,-13.332 2.761,-31.77 3.578,-32.59 0.242,-0.238 1.957,-0.012 4.105,0.543 13.055,3.379 28.594,0.152 41.91,-8.703 5.582,-3.711 13.61,-11.774 17.266,-17.34 8.277,-12.598 11.656,-25.781 10.297,-40.172 -1.711,-18.152 -8.457,-32.887 -20.84,-45.512 -11.824,-12.051 -26.258,-19.242 -42.992,-21.414 -4.969,-0.648 -13.637,-0.859 -16.59,-0.41 z m 16.875,9.492 c 8.32,1.242 18.586,5.184 25.68,9.856 26.949,17.754 37.008,53.679 22.269,79.543 -7.531,13.218 -19.812,22.578 -33.902,25.832 -3.738,0.863 -5.34,0.984 -10.578,0.797 -4.285,-0.157 -7.02,-0.497 -8.957,-1.118 -2.516,-0.804 -2.801,-1.027 -2.918,-2.273 -0.071,-0.754 0.148,-2.84 0.48,-4.629 l 0.614,-3.254 2.074,0.121 c 1.242,0.071 3.375,0.77 5.324,1.742 3.625,1.813 4.348,1.922 6.234,0.95 1.727,-0.895 2.625,-3.075 2.067,-5.02 -1.711,-5.969 -19.16,-9.473 -32.465,-6.523 -6.899,1.527 -10.457,3.949 -10.457,7.109 0,3.922 3.348,5.555 7.285,3.559 2.883,-1.461 9.316,-2.856 10.113,-2.196 0.813,0.676 -0.886,10.242 -1.972,11.11 -1,0.797 -10.707,0.414 -14.496,-0.575 -11.836,-3.082 -22.426,-10.168 -29.789,-19.941 -10.032,-13.312 -13.016,-30.086 -8.512,-47.871 4.73,-18.68 17.832,-34.043 36.211,-42.465 4.41,-2.023 11.265,-4.074 15.851,-4.742 4,-0.586 15.973,-0.594 19.844,-0.012 z m -101.219,42.738 c 2.813,0.266 6.703,0.891 8.649,1.387 3.265,0.832 9.922,3.297 10.519,3.895 0.141,0.14 -0.039,2.195 -0.394,4.562 -1.039,6.899 -0.832,17.735 0.453,23.594 3.18,14.473 11.758,27.953 23.223,36.48 2.058,1.532 3.757,3.055 3.769,3.383 0.074,2.114 -6.168,10.985 -10.617,15.09 -11.11,10.254 -24.809,14.117 -37.156,10.484 l -3.418,-1.007 -3.852,1.011 c -7.422,1.95 -16.199,1.149 -23.891,-2.175 -13.191,-5.704 -23.16,-17.504 -26.617,-31.508 -1.297,-5.242 -1.375,-15.16 -0.172,-20.836 5.141,-24.238 24.981,-42.18 49.047,-44.36 2.172,-0.195 4.266,-0.386 4.649,-0.421 0.383,-0.036 2.996,0.152 5.808,0.421 z m 56.907,78.27 c 1.871,0.969 8.847,2.941 12.421,3.512 1.657,0.265 4.981,0.484 7.387,0.492 l 4.375,0.012 v 1.265 c 0,0.696 -0.402,4.918 -0.898,9.383 -1.59,14.328 -2.043,22.223 -2.051,36 -0.02,22.262 2.012,38.141 6.98,54.606 2.614,8.66 7.809,20.144 11.414,25.234 1.731,2.449 0.821,2.285 -10.312,-1.867 -35.547,-13.254 -62.977,-38.094 -77.18,-69.891 -4.113,-9.215 -8.754,-24.465 -8.398,-27.605 0.031,-0.301 1.937,-0.411 5.226,-0.297 6.282,0.215 10.774,-0.453 16.848,-2.508 7.457,-2.523 14.473,-6.988 20.441,-13.016 4.465,-4.511 6.985,-7.968 10.61,-14.566 0.894,-1.629 1.265,-1.719 3.137,-0.754 z"
         style="fill:#000000;fill-opacity:1;fill-rule:nonzero;stroke:none"
         id="path22"
         inkscape:connector-curvature="0" /><g
         id="g24"
         transform="matrix(1,0,0,-1,0,595.27557)"><path
           d="m 31.09,430.461 h 134 c 5.711,0 10.308,4.594 10.308,10.305 V 574.77 c 0,5.71 -4.597,10.304 -10.308,10.304 h -134 c -5.711,0 -10.309,-4.594 -10.309,-10.304 V 440.766 c 0,-5.711 4.598,-10.305 10.309,-10.305 z"
           style="fill:#ffb4e6;fill-opacity:1;fill-rule:nonzero;stroke:#000000;stroke-width:4.12312078;stroke-linecap:round;stroke-linejoin:round;stroke-miterlimit:4;stroke-dasharray:none;stroke-opacity:1"
           id="path26"
           inkscape:connector-curvature="0" /></g><text
         transform="scale(1,-1)"
         style="font-variant:normal;font-weight:normal;font-size:16.29091072px;font-family:Arial;-inkscape-font-specification:Arial;writing-mode:lr-tb;fill:#000000;fill-opacity:1;fill-rule:nonzero;stroke:none"
         id="text30"
         x="62.862396"
         y="-20.938046"><tspan
           sodipodi:role="line"
           id="tspan28"
           x="62.862396"
           y="-20.938046">CHERRY</tspan></text>
<path
         d="m 112.715,40.151 c -3.277,0.5 -4.516,0.765 -6.391,1.382 -3.84,1.258 -7.469,3.411 -10.539,6.25 -3.668,3.395 -5.523,6.059 -7.59,10.903 -0.3,0.699 -0.461,0.879 -0.715,0.801 -0.175,-0.059 -1.035,-0.368 -1.902,-0.688 -4.496,-1.656 -10.086,-1.93 -14.883,-0.73 -7.593,1.898 -14.168,7.429 -17.304,14.55 -2.516,5.715 -2.907,12.102 -1.067,17.371 3.145,8.993 11.887,15.141 20.84,14.649 2.16,-0.117 2.18,-0.117 2.277,0.305 0.055,0.23 0.227,1.046 0.383,1.804 1.539,7.52 5.438,15.735 10.524,22.172 1.703,2.16 5.867,6.379 7.965,8.074 7.445,6.02 16.57,10.446 26.781,12.993 3.179,0.796 3.57,0.804 4.277,0.097 0.813,-0.812 0.762,-1.738 -0.141,-2.504 -1.687,-1.426 -3.609,-3.515 -4.554,-4.957 -5.227,-7.945 -7.528,-20.461 -6.656,-36.234 0.296,-5.332 1.105,-12.707 1.433,-13.035 0.098,-0.098 0.781,-0.008 1.641,0.215 5.222,1.351 11.437,0.062 16.765,-3.481 2.231,-1.484 5.446,-4.707 6.907,-6.934 3.308,-5.039 4.66,-10.312 4.117,-16.07 -0.684,-7.262 -3.383,-13.156 -8.336,-18.203 -4.731,-4.824 -10.5,-7.699 -17.195,-8.566 -1.989,-0.262 -5.457,-0.344 -6.637,-0.164 z m 6.75,3.796 c 3.328,0.497 7.433,2.071 10.273,3.942 10.778,7.101 14.801,21.473 8.907,31.816 -3.012,5.289 -7.926,9.032 -13.563,10.332 -1.492,0.348 -2.137,0.395 -4.23,0.321 -1.715,-0.063 -2.809,-0.2 -3.582,-0.45 -1.008,-0.32 -1.122,-0.41 -1.168,-0.906 -0.028,-0.305 0.058,-1.137 0.195,-1.851 l 0.242,-1.301 0.828,0.047 c 0.5,0.027 1.352,0.308 2.133,0.695 1.449,0.727 1.738,0.77 2.492,0.379 0.692,-0.356 1.051,-1.227 0.828,-2.008 -0.687,-2.387 -7.664,-3.789 -12.984,-2.609 -2.762,0.613 -4.184,1.582 -4.184,2.847 0,1.567 1.336,2.219 2.914,1.422 1.153,-0.586 3.723,-1.144 4.043,-0.879 0.325,0.27 -0.351,4.098 -0.789,4.446 -0.398,0.316 -4.281,0.164 -5.797,-0.231 -4.734,-1.234 -8.968,-4.066 -11.914,-7.976 -4.015,-5.325 -5.207,-12.036 -3.406,-19.149 1.891,-7.472 7.133,-13.617 14.485,-16.988 1.761,-0.809 4.503,-1.629 6.339,-1.895 1.602,-0.234 6.391,-0.238 7.938,-0.004 z M 78.977,61.041 c 1.125,0.106 2.683,0.356 3.461,0.555 1.304,0.332 3.968,1.32 4.207,1.558 0.054,0.055 -0.016,0.879 -0.157,1.825 -0.418,2.761 -0.336,7.093 0.18,9.437 1.273,5.789 4.703,11.184 9.289,14.594 0.824,0.613 1.504,1.223 1.508,1.352 0.027,0.847 -2.465,4.394 -4.246,6.035 -4.446,4.101 -9.926,5.648 -14.864,4.195 l -1.367,-0.402 -1.539,0.402 c -2.972,0.781 -6.48,0.461 -9.558,-0.871 -5.278,-2.277 -9.262,-7 -10.649,-12.602 -0.515,-2.097 -0.547,-6.062 -0.066,-8.336 2.054,-9.691 9.992,-16.871 19.621,-17.742 0.867,-0.078 1.703,-0.152 1.855,-0.168 0.157,-0.015 1.2,0.063 2.325,0.168 z m 22.761,31.309 c 0.75,0.387 3.539,1.176 4.969,1.402 0.664,0.11 1.992,0.195 2.957,0.199 l 1.75,0.004 v 0.508 c 0,0.277 -0.164,1.965 -0.359,3.75 -0.637,5.734 -0.817,8.891 -0.821,14.402 -0.007,8.907 0.805,15.258 2.793,21.84 1.043,3.465 3.121,8.059 4.563,10.098 0.695,0.976 0.328,0.91 -4.121,-0.75 -14.223,-5.301 -25.192,-15.234 -30.875,-27.953 -1.645,-3.688 -3.5,-9.789 -3.36,-11.043 0.016,-0.121 0.778,-0.164 2.09,-0.121 2.516,0.086 4.313,-0.18 6.742,-1.004 2.981,-1.008 5.789,-2.793 8.176,-5.203 1.785,-1.805 2.793,-3.188 4.242,-5.828 0.36,-0.653 0.508,-0.688 1.254,-0.301 z"
         style="fill:#000000;fill-opacity:1;fill-rule:nonzero;stroke:none"
         id="path32"
         inkscape:connector-curvature="0" /><g
         id="g34"
         transform="matrix(1,0,0,-1,0,595.27557)"><path
           d="m 435.656,429.871 h 95.719 c 4.078,0 7.359,3.281 7.359,7.363 v 95.715 c 0,4.078 -3.281,7.364 -7.359,7.364 h -95.719 c -4.078,0 -7.359,-3.286 -7.359,-7.364 v -95.715 c 0,-4.082 3.281,-7.363 7.359,-7.363 z"
           style="fill:#ffb4e6;fill-opacity:1;fill-rule:nonzero;stroke:#000000;stroke-width:2.94508696;stroke-linecap:round;stroke-linejoin:round;stroke-miterlimit:4;stroke-dasharray:none;stroke-opacity:1"
           id="path36"
           inkscape:connector-curvature="0" /></g><text
         transform="scale(1,-1)"
         style="font-variant:normal;font-weight:normal;font-size:11.63636398px;font-family:Arial;-inkscape-font-specification:Arial;writing-mode:lr-tb;fill:#000000;fill-opacity:1;fill-rule:nonzero;stroke:none"
         id="text40"
         x="460.06702"
         y="-62.635223"><tspan
           sodipodi:role="line"
           id="tspan38"
           x="460.06702"
           y="-62.635223">CHERRY</tspan></text>
<path
         d="m 493.961,76.358 c -2.34,0.355 -3.223,0.546 -4.566,0.988 -2.739,0.898 -5.332,2.437 -7.524,4.465 -2.621,2.426 -3.945,4.328 -5.422,7.785 -0.215,0.5 -0.332,0.629 -0.511,0.574 -0.129,-0.043 -0.739,-0.262 -1.36,-0.492 -3.211,-1.18 -7.203,-1.379 -10.629,-0.52 -5.426,1.356 -10.121,5.305 -12.359,10.391 -1.797,4.082 -2.078,8.645 -0.762,12.41 2.242,6.422 8.488,10.813 14.883,10.461 1.543,-0.082 1.559,-0.082 1.625,0.219 0.039,0.168 0.164,0.746 0.273,1.289 1.102,5.371 3.887,11.238 7.52,15.836 1.215,1.543 4.191,4.558 5.687,5.769 5.317,4.297 11.836,7.461 19.129,9.282 2.274,0.566 2.551,0.574 3.055,0.07 0.582,-0.582 0.547,-1.246 -0.098,-1.789 -1.203,-1.02 -2.578,-2.516 -3.254,-3.543 -3.734,-5.676 -5.375,-14.613 -4.753,-25.883 0.21,-3.808 0.789,-9.078 1.023,-9.308 0.066,-0.071 0.559,-0.004 1.172,0.152 3.73,0.965 8.168,0.043 11.976,-2.485 1.594,-1.062 3.887,-3.363 4.93,-4.953 2.367,-3.601 3.332,-7.367 2.945,-11.48 -0.492,-5.188 -2.418,-9.395 -5.957,-13.004 -3.379,-3.441 -7.5,-5.496 -12.281,-6.117 -1.422,-0.184 -3.898,-0.246 -4.742,-0.117 z m 4.82,2.711 c 2.379,0.355 5.313,1.48 7.34,2.816 7.699,5.074 10.574,15.34 6.363,22.727 -2.152,3.777 -5.664,6.449 -9.687,7.382 -1.07,0.246 -1.527,0.282 -3.024,0.227 -1.222,-0.047 -2.003,-0.145 -2.558,-0.32 -0.719,-0.231 -0.801,-0.293 -0.832,-0.649 -0.02,-0.215 0.039,-0.812 0.137,-1.324 l 0.175,-0.93 0.59,0.035 c 0.356,0.02 0.965,0.219 1.524,0.5 1.035,0.516 1.242,0.547 1.781,0.27 0.492,-0.254 0.75,-0.879 0.59,-1.434 -0.489,-1.707 -5.477,-2.707 -9.278,-1.863 -1.968,0.438 -2.984,1.129 -2.984,2.031 0,1.121 0.953,1.586 2.078,1.016 0.824,-0.418 2.664,-0.816 2.891,-0.629 0.23,0.195 -0.254,2.926 -0.563,3.176 -0.285,0.226 -3.058,0.117 -4.14,-0.164 -3.383,-0.879 -6.411,-2.907 -8.512,-5.699 -2.867,-3.801 -3.719,-8.594 -2.434,-13.676 1.352,-5.336 5.094,-9.727 10.348,-12.133 1.258,-0.578 3.219,-1.164 4.527,-1.356 1.145,-0.168 4.563,-0.168 5.668,-0.003 z m -28.918,12.21 c 0.805,0.079 1.914,0.254 2.473,0.399 0.93,0.238 2.832,0.941 3.004,1.113 0.039,0.039 -0.012,0.625 -0.113,1.301 -0.297,1.973 -0.239,5.066 0.128,6.742 0.911,4.137 3.36,7.988 6.637,10.422 0.59,0.438 1.074,0.875 1.078,0.969 0.02,0.601 -1.761,3.137 -3.035,4.308 -3.176,2.93 -7.09,4.036 -10.617,2.996 l -0.977,-0.285 -1.097,0.289 c -2.121,0.555 -4.629,0.329 -6.828,-0.625 -3.77,-1.629 -6.618,-5 -7.606,-9 -0.367,-1.5 -0.39,-4.332 -0.047,-5.953 1.469,-6.926 7.137,-12.051 14.012,-12.676 0.621,-0.054 1.219,-0.109 1.328,-0.121 0.11,-0.007 0.856,0.047 1.66,0.121 z m 16.258,22.364 c 0.535,0.277 2.527,0.84 3.551,1.004 0.473,0.074 1.422,0.14 2.109,0.14 l 1.25,0.004 v 0.36 c 0,0.199 -0.113,1.406 -0.258,2.683 -0.453,4.094 -0.582,6.348 -0.585,10.285 -0.004,6.36 0.578,10.899 1.996,15.602 0.746,2.473 2.23,5.754 3.261,7.211 0.496,0.699 0.235,0.652 -2.945,-0.535 -10.156,-3.785 -17.996,-10.883 -22.051,-19.969 -1.179,-2.633 -2.504,-6.988 -2.402,-7.887 0.012,-0.086 0.555,-0.117 1.496,-0.086 1.793,0.063 3.078,-0.129 4.812,-0.715 2.129,-0.722 4.133,-2 5.84,-3.718 1.278,-1.289 1.996,-2.278 3.032,-4.164 0.253,-0.465 0.363,-0.489 0.894,-0.215 z"
         style="fill:#000000;fill-opacity:1;fill-rule:nonzero;stroke:none"
         id="path42"
         inkscape:connector-curvature="0" /><g
         id="g44"
         transform="matrix(1,0,0,-1,0,595.27557)"><path
           d="m 562.957,429.871 h 95.715 c 4.078,0 7.363,3.281 7.363,7.363 v 95.715 c 0,4.078 -3.285,7.364 -7.363,7.364 h -95.715 c -4.078,0 -7.363,-3.286 -7.363,-7.364 v -95.715 c 0,-4.082 3.285,-7.363 7.363,-7.363 z"
           style="fill:#ffb4e6;fill-opacity:1;fill-rule:nonzero;stroke:#000000;stroke-width:2.94508696;stroke-linecap:round;stroke-linejoin:round;stroke-miterlimit:4;stroke-dasharray:none;stroke-opacity:1"
           id="path46"
           inkscape:connector-curvature="0" /></g><text
         transform="scale(1,-1)"
         style="font-variant:normal;font-weight:normal;font-size:11.63636398px;font-family:Arial;-inkscape-font-specification:Arial;writing-mode:lr-tb;fill:#000000;fill-opacity:1;fill-rule:nonzero;stroke:none"
         id="text50"
         x="587.36499"
         y="-62.635223"><tspan
           sodipodi:role="line"
           id="tspan48"
           x="587.36499"
           y="-62.635223">CHERRY</tspan></text>
<path
         d="m 621.262,76.358 c -2.344,0.355 -3.227,0.546 -4.567,0.988 -2.742,0.898 -5.336,2.437 -7.527,4.465 -2.621,2.426 -3.945,4.328 -5.422,7.785 -0.215,0.5 -0.328,0.629 -0.508,0.574 -0.129,-0.043 -0.742,-0.262 -1.363,-0.492 -3.211,-1.18 -7.203,-1.379 -10.629,-0.52 -5.422,1.356 -10.121,5.305 -12.359,10.391 -1.797,4.082 -2.078,8.645 -0.762,12.41 2.242,6.422 8.488,10.813 14.883,10.461 1.543,-0.082 1.558,-0.082 1.629,0.219 0.039,0.168 0.16,0.746 0.269,1.289 1.102,5.371 3.887,11.238 7.52,15.836 1.219,1.543 4.191,4.558 5.691,5.769 5.317,4.297 11.832,7.461 19.125,9.282 2.274,0.566 2.555,0.574 3.055,0.07 0.582,-0.582 0.547,-1.246 -0.098,-1.789 -1.203,-1.02 -2.578,-2.516 -3.254,-3.543 -3.734,-5.676 -5.375,-14.613 -4.754,-25.883 0.211,-3.808 0.789,-9.078 1.024,-9.308 0.07,-0.071 0.558,-0.004 1.172,0.152 3.73,0.965 8.172,0.043 11.976,-2.485 1.594,-1.062 3.887,-3.363 4.934,-4.953 2.363,-3.601 3.328,-7.367 2.941,-11.48 -0.488,-5.188 -2.418,-9.395 -5.957,-13.004 -3.375,-3.441 -7.5,-5.496 -12.281,-6.117 -1.418,-0.184 -3.895,-0.246 -4.738,-0.117 z m 4.82,2.711 c 2.375,0.355 5.309,1.48 7.336,2.816 7.699,5.074 10.574,15.34 6.363,22.727 -2.152,3.777 -5.66,6.449 -9.687,7.382 -1.067,0.246 -1.524,0.282 -3.02,0.227 -1.226,-0.047 -2.008,-0.145 -2.562,-0.32 -0.719,-0.231 -0.801,-0.293 -0.832,-0.649 -0.02,-0.215 0.043,-0.812 0.136,-1.324 l 0.176,-0.93 0.594,0.035 c 0.352,0.02 0.965,0.219 1.519,0.5 1.036,0.516 1.243,0.547 1.782,0.27 0.492,-0.254 0.75,-0.879 0.59,-1.434 -0.489,-1.707 -5.473,-2.707 -9.274,-1.863 -1.973,0.438 -2.988,1.129 -2.988,2.031 0,1.121 0.953,1.586 2.082,1.016 0.82,-0.418 2.66,-0.816 2.887,-0.629 0.234,0.195 -0.25,2.926 -0.563,3.176 -0.285,0.226 -3.058,0.117 -4.141,-0.164 -3.382,-0.879 -6.406,-2.907 -8.511,-5.699 -2.867,-3.801 -3.719,-8.594 -2.434,-13.676 1.352,-5.336 5.098,-9.727 10.348,-12.133 1.258,-0.578 3.219,-1.164 4.527,-1.356 1.145,-0.168 4.567,-0.168 5.672,-0.003 z m -28.922,12.21 c 0.805,0.079 1.918,0.254 2.473,0.399 0.933,0.238 2.836,0.941 3.004,1.113 0.043,0.039 -0.008,0.625 -0.114,1.301 -0.296,1.973 -0.234,5.066 0.133,6.742 0.907,4.137 3.36,7.988 6.633,10.422 0.59,0.438 1.074,0.875 1.078,0.969 0.02,0.601 -1.762,3.137 -3.035,4.308 -3.172,2.93 -7.086,4.036 -10.613,2.996 l -0.977,-0.285 -1.101,0.289 c -2.121,0.555 -4.629,0.329 -6.828,-0.625 -3.766,-1.629 -6.618,-5 -7.602,-9 -0.371,-1.5 -0.395,-4.332 -0.051,-5.953 1.469,-6.926 7.137,-12.051 14.016,-12.676 0.617,-0.054 1.215,-0.109 1.324,-0.121 0.109,-0.007 0.859,0.047 1.66,0.121 z m 16.262,22.364 c 0.535,0.277 2.527,0.84 3.547,1.004 0.472,0.074 1.426,0.14 2.113,0.14 l 1.25,0.004 v 0.36 c 0,0.199 -0.117,1.406 -0.258,2.683 -0.457,4.094 -0.586,6.348 -0.586,10.285 -0.008,6.36 0.575,10.899 1.992,15.602 0.747,2.473 2.231,5.754 3.262,7.211 0.496,0.699 0.235,0.652 -2.945,-0.535 -10.156,-3.785 -17.992,-10.883 -22.051,-19.969 -1.176,-2.633 -2.504,-6.988 -2.402,-7.887 0.011,-0.086 0.554,-0.117 1.496,-0.086 1.793,0.063 3.078,-0.129 4.812,-0.715 2.129,-0.722 4.137,-2 5.84,-3.718 1.278,-1.289 1.996,-2.278 3.031,-4.164 0.258,-0.465 0.364,-0.489 0.899,-0.215 z"
         style="fill:#000000;fill-opacity:1;fill-rule:nonzero;stroke:none"
         id="path52"
         inkscape:connector-curvature="0" /><g
         id="g54"
         transform="matrix(1,0,0,-1,0,595.27557)"><path
           d="m 690.789,429.871 h 95.715 c 4.078,0 7.363,3.281 7.363,7.363 v 95.715 c 0,4.078 -3.285,7.364 -7.363,7.364 h -95.715 c -4.078,0 -7.363,-3.286 -7.363,-7.364 v -95.715 c 0,-4.082 3.285,-7.363 7.363,-7.363 z"
           style="fill:#ffb4e6;fill-opacity:1;fill-rule:nonzero;stroke:#000000;stroke-width:2.94508696;stroke-linecap:round;stroke-linejoin:round;stroke-miterlimit:4;stroke-dasharray:none;stroke-opacity:1"
           id="path56"
           inkscape:connector-curvature="0" /></g><text
         transform="scale(1,-1)"
         style="font-variant:normal;font-weight:normal;font-size:11.63636398px;font-family:Arial;-inkscape-font-specification:Arial;writing-mode:lr-tb;fill:#000000;fill-opacity:1;fill-rule:nonzero;stroke:none"
         id="text60"
         x="715.19788"
         y="-62.635223"><tspan
           sodipodi:role="line"
           id="tspan58"
           x="715.19788"
           y="-62.635223">CHERRY</tspan></text>
<path
         d="m 749.094,76.358 c -2.34,0.355 -3.227,0.546 -4.567,0.988 -2.742,0.898 -5.336,2.437 -7.527,4.465 -2.617,2.426 -3.945,4.328 -5.422,7.785 -0.215,0.5 -0.328,0.629 -0.508,0.574 -0.129,-0.043 -0.742,-0.262 -1.363,-0.492 -3.211,-1.18 -7.203,-1.379 -10.629,-0.52 -5.422,1.356 -10.121,5.305 -12.359,10.391 -1.797,4.082 -2.078,8.645 -0.762,12.41 2.246,6.422 8.488,10.813 14.883,10.461 1.543,-0.082 1.558,-0.082 1.629,0.219 0.039,0.168 0.16,0.746 0.273,1.289 1.098,5.371 3.883,11.238 7.516,15.836 1.219,1.543 4.191,4.558 5.691,5.769 5.317,4.297 11.836,7.461 19.129,9.282 2.27,0.566 2.551,0.574 3.055,0.07 0.582,-0.582 0.543,-1.246 -0.102,-1.789 -1.203,-1.02 -2.578,-2.516 -3.254,-3.543 -3.734,-5.676 -5.375,-14.613 -4.754,-25.883 0.211,-3.808 0.793,-9.078 1.024,-9.308 0.07,-0.071 0.562,-0.004 1.172,0.152 3.73,0.965 8.172,0.043 11.976,-2.485 1.594,-1.062 3.887,-3.363 4.934,-4.953 2.363,-3.601 3.328,-7.367 2.941,-11.48 -0.488,-5.188 -2.418,-9.395 -5.953,-13.004 -3.379,-3.441 -7.504,-5.496 -12.285,-6.117 -1.418,-0.184 -3.894,-0.246 -4.738,-0.117 z m 4.82,2.711 c 2.379,0.355 5.313,1.48 7.336,2.816 7.703,5.074 10.574,15.34 6.363,22.727 -2.152,3.777 -5.66,6.449 -9.687,7.382 -1.067,0.246 -1.524,0.282 -3.02,0.227 -1.226,-0.047 -2.008,-0.145 -2.562,-0.32 -0.715,-0.231 -0.797,-0.293 -0.832,-0.649 -0.02,-0.215 0.043,-0.812 0.136,-1.324 l 0.176,-0.93 0.594,0.035 c 0.355,0.02 0.965,0.219 1.52,0.5 1.039,0.516 1.242,0.547 1.781,0.27 0.496,-0.254 0.75,-0.879 0.59,-1.434 -0.489,-1.707 -5.473,-2.707 -9.274,-1.863 -1.972,0.438 -2.988,1.129 -2.988,2.031 0,1.121 0.957,1.586 2.082,1.016 0.824,-0.418 2.66,-0.816 2.887,-0.629 0.234,0.195 -0.25,2.926 -0.563,3.176 -0.285,0.226 -3.058,0.117 -4.14,-0.164 -3.383,-0.879 -6.407,-2.907 -8.512,-5.699 -2.867,-3.801 -3.719,-8.594 -2.43,-13.676 1.352,-5.336 5.094,-9.727 10.344,-12.133 1.262,-0.578 3.219,-1.164 4.531,-1.356 1.141,-0.168 4.563,-0.168 5.668,-0.003 z m -28.918,12.21 c 0.801,0.079 1.914,0.254 2.469,0.399 0.933,0.238 2.836,0.941 3.004,1.113 0.043,0.039 -0.008,0.625 -0.11,1.301 -0.296,1.973 -0.238,5.066 0.129,6.742 0.907,4.137 3.36,7.988 6.633,10.422 0.59,0.438 1.074,0.875 1.078,0.969 0.02,0.601 -1.761,3.137 -3.031,4.308 -3.176,2.93 -7.09,4.036 -10.617,2.996 l -0.977,-0.285 -1.101,0.289 c -2.121,0.555 -4.629,0.329 -6.825,-0.625 -3.769,-1.629 -6.617,-5 -7.605,-9 -0.371,-1.5 -0.395,-4.332 -0.051,-5.953 1.469,-6.926 7.137,-12.051 14.016,-12.676 0.621,-0.054 1.219,-0.109 1.328,-0.121 0.109,-0.007 0.855,0.047 1.66,0.121 z m 16.258,22.364 c 0.535,0.277 2.527,0.84 3.547,1.004 0.476,0.074 1.426,0.14 2.113,0.14 l 1.25,0.004 v 0.36 c 0,0.199 -0.117,1.406 -0.258,2.683 -0.453,4.094 -0.582,6.348 -0.586,10.285 -0.004,6.36 0.575,10.899 1.996,15.602 0.747,2.473 2.231,5.754 3.258,7.211 0.496,0.699 0.235,0.652 -2.945,-0.535 -10.156,-3.785 -17.992,-10.883 -22.051,-19.969 -1.176,-2.633 -2.5,-6.988 -2.398,-7.887 0.008,-0.086 0.55,-0.117 1.492,-0.086 1.793,0.063 3.078,-0.129 4.812,-0.715 2.133,-0.722 4.137,-2 5.84,-3.718 1.278,-1.289 1.996,-2.278 3.031,-4.164 0.258,-0.465 0.364,-0.489 0.899,-0.215 z"
         style="fill:#000000;fill-opacity:1;fill-rule:nonzero;stroke:none"
         id="path62"
         inkscape:connector-curvature="0" /><g
         id="g64"
         transform="matrix(1,0,0,-1,0,595.27557)"><path
           d="m 203.852,430.461 h 134 c 5.711,0 10.308,4.594 10.308,10.305 V 574.77 c 0,5.71 -4.597,10.304 -10.308,10.304 h -134 c -5.711,0 -10.309,-4.594 -10.309,-10.304 V 440.766 c 0,-5.711 4.598,-10.305 10.309,-10.305 z"
           style="fill:#ffb4e6;fill-opacity:1;fill-rule:nonzero;stroke:#000000;stroke-width:4.12312078;stroke-linecap:round;stroke-linejoin:round;stroke-miterlimit:4;stroke-dasharray:none;stroke-opacity:1"
           id="path66"
           inkscape:connector-curvature="0" /></g><text
         transform="scale(1,-1)"
         style="font-variant:normal;font-weight:normal;font-size:16.29091072px;font-family:Arial;-inkscape-font-specification:Arial;writing-mode:lr-tb;fill:#000000;fill-opacity:1;fill-rule:nonzero;stroke:none"
         id="text70"
         x="235.62395"
         y="-20.938046"><tspan
           sodipodi:role="line"
           id="tspan68"
           x="235.62395"
           y="-20.938046">CHERRY</tspan></text>
<path
         d="m 285.477,40.151 c -3.278,0.5 -4.516,0.765 -6.391,1.382 -3.84,1.258 -7.469,3.411 -10.539,6.25 -3.668,3.395 -5.524,6.059 -7.59,10.903 -0.301,0.699 -0.461,0.879 -0.715,0.801 -0.176,-0.059 -1.035,-0.368 -1.906,-0.688 -4.492,-1.656 -10.082,-1.93 -14.879,-0.73 -7.594,1.898 -14.172,7.429 -17.305,14.55 -2.515,5.715 -2.906,12.102 -1.066,17.371 3.144,8.993 11.887,15.141 20.84,14.649 2.16,-0.117 2.179,-0.117 2.277,0.305 0.055,0.23 0.227,1.046 0.383,1.804 1.539,7.52 5.437,15.735 10.523,22.172 1.704,2.16 5.868,6.379 7.965,8.074 7.446,6.02 16.571,10.446 26.781,12.993 3.18,0.796 3.571,0.804 4.278,0.097 0.812,-0.812 0.762,-1.738 -0.141,-2.504 -1.687,-1.426 -3.609,-3.515 -4.554,-4.957 -5.231,-7.945 -7.528,-20.461 -6.657,-36.234 0.297,-5.332 1.106,-12.707 1.434,-13.035 0.098,-0.098 0.781,-0.008 1.64,0.215 5.223,1.351 11.438,0.062 16.766,-3.481 2.231,-1.484 5.442,-4.707 6.906,-6.934 3.309,-5.039 4.661,-10.312 4.118,-16.07 -0.684,-7.262 -3.383,-13.156 -8.336,-18.203 -4.731,-4.824 -10.504,-7.699 -17.196,-8.566 -1.988,-0.262 -5.457,-0.344 -6.636,-0.164 z m 6.75,3.796 c 3.328,0.497 7.433,2.071 10.273,3.942 10.777,7.101 14.801,21.473 8.906,31.816 -3.011,5.289 -7.926,9.032 -13.562,10.332 -1.492,0.348 -2.137,0.395 -4.231,0.321 -1.715,-0.063 -2.808,-0.2 -3.582,-0.45 -1.008,-0.32 -1.121,-0.41 -1.168,-0.906 -0.027,-0.305 0.059,-1.137 0.196,-1.851 l 0.242,-1.301 0.828,0.047 c 0.5,0.027 1.351,0.308 2.133,0.695 1.449,0.727 1.738,0.77 2.492,0.379 0.691,-0.356 1.051,-1.227 0.828,-2.008 -0.687,-2.387 -7.664,-3.789 -12.988,-2.609 -2.758,0.613 -4.18,1.582 -4.18,2.847 0,1.567 1.336,2.219 2.914,1.422 1.152,-0.586 3.723,-1.144 4.043,-0.879 0.324,0.27 -0.351,4.098 -0.789,4.446 -0.398,0.316 -4.281,0.164 -5.797,-0.231 -4.734,-1.234 -8.972,-4.066 -11.914,-7.976 -4.016,-5.325 -5.207,-12.036 -3.406,-19.149 1.89,-7.472 7.133,-13.617 14.484,-16.988 1.762,-0.809 4.504,-1.629 6.34,-1.895 1.602,-0.234 6.391,-0.238 7.938,-0.004 z m -40.489,17.094 c 1.125,0.106 2.684,0.356 3.461,0.555 1.305,0.332 3.969,1.32 4.207,1.558 0.055,0.055 -0.015,0.879 -0.156,1.825 -0.418,2.761 -0.336,7.093 0.18,9.437 1.269,5.789 4.703,11.184 9.289,14.594 0.824,0.613 1.504,1.223 1.508,1.352 0.027,0.847 -2.469,4.394 -4.247,6.035 -4.445,4.101 -9.925,5.648 -14.863,4.195 l -1.367,-0.402 -1.539,0.402 c -2.973,0.781 -6.481,0.461 -9.559,-0.871 -5.277,-2.277 -9.261,-7 -10.648,-12.602 -0.516,-2.097 -0.547,-6.062 -0.066,-8.336 2.054,-9.691 9.992,-16.871 19.617,-17.742 0.871,-0.078 1.707,-0.152 1.859,-0.168 0.156,-0.015 1.199,0.063 2.324,0.168 z M 274.5,92.35 c 0.75,0.387 3.539,1.176 4.969,1.402 0.664,0.11 1.992,0.195 2.957,0.199 l 1.75,0.004 v 0.508 c 0,0.277 -0.164,1.965 -0.36,3.75 -0.636,5.734 -0.816,8.891 -0.82,14.402 -0.008,8.907 0.805,15.258 2.793,21.84 1.043,3.465 3.121,8.059 4.563,10.098 0.695,0.976 0.328,0.91 -4.122,-0.75 -14.222,-5.301 -25.195,-15.234 -30.875,-27.953 -1.644,-3.688 -3.5,-9.789 -3.359,-11.043 0.016,-0.121 0.777,-0.164 2.09,-0.121 2.516,0.086 4.312,-0.18 6.742,-1.004 2.981,-1.008 5.789,-2.793 8.176,-5.203 1.785,-1.805 2.793,-3.188 4.242,-5.828 0.359,-0.653 0.508,-0.688 1.254,-0.301 z"
         style="fill:#000000;fill-opacity:1;fill-rule:nonzero;stroke:none"
         id="path72"
         inkscape:connector-curvature="0" /><g
         id="g74"
         transform="matrix(1,0,0,-1,0,595.27557)"><path
           d="M 457.746,24.934 H 792.75 c 14.277,0 25.77,11.492 25.77,25.769 v 335.004 c 0,14.277 -11.493,25.77 -25.77,25.77 H 457.746 c -14.277,0 -25.769,-11.493 -25.769,-25.77 V 50.703 c 0,-14.277 11.492,-25.769 25.769,-25.769 z"
           style="fill:#ffb4e6;fill-opacity:1;fill-rule:nonzero;stroke:#000000;stroke-width:10.30780315;stroke-linecap:round;stroke-linejoin:round;stroke-miterlimit:4;stroke-dasharray:none;stroke-opacity:1"
           id="path76"
           inkscape:connector-curvature="0" /></g><text
         transform="scale(1,-1)"
         style="font-variant:normal;font-weight:normal;font-size:40.72727585px;font-family:Arial;-inkscape-font-specification:Arial;writing-mode:lr-tb;fill:#000000;fill-opacity:1;fill-rule:nonzero;stroke:none"
         id="text80"
         x="539.42792"
         y="-210.64557"><tspan
           sodipodi:role="line"
           id="tspan78"
           x="539.42792"
           y="-210.64557">CHERRY</tspan></text>
<path
         d="m 661.809,258.674 c -8.192,1.25 -11.286,1.918 -15.977,3.457 -9.594,3.145 -18.676,8.531 -26.344,15.629 -9.168,8.484 -13.808,15.148 -18.98,27.254 -0.746,1.75 -1.149,2.203 -1.781,2 -0.45,-0.145 -2.59,-0.918 -4.766,-1.715 -11.238,-4.141 -25.207,-4.824 -37.199,-1.828 -18.985,4.746 -35.426,18.57 -43.262,36.375 -6.285,14.289 -7.266,30.254 -2.664,43.43 7.855,22.484 29.711,37.851 52.094,36.621 5.398,-0.293 5.453,-0.289 5.695,0.761 0.137,0.582 0.566,2.614 0.953,4.516 3.848,18.793 13.598,39.328 26.313,55.426 4.261,5.398 14.672,15.949 19.914,20.187 18.609,15.043 41.425,26.114 66.949,32.481 7.953,1.988 8.93,2.008 10.691,0.246 2.035,-2.035 1.907,-4.352 -0.347,-6.258 -4.215,-3.566 -9.024,-8.797 -11.391,-12.398 -13.066,-19.864 -18.812,-51.149 -16.633,-90.586 0.735,-13.332 2.762,-31.77 3.582,-32.59 0.239,-0.238 1.957,-0.012 4.102,0.543 13.055,3.379 28.594,0.152 41.91,-8.703 5.582,-3.711 13.609,-11.774 17.266,-17.34 8.277,-12.598 11.656,-25.781 10.3,-40.172 -1.714,-18.152 -8.461,-32.887 -20.843,-45.512 -11.825,-12.051 -26.258,-19.242 -42.993,-21.414 -4.968,-0.648 -13.636,-0.859 -16.589,-0.41 z m 16.875,9.492 c 8.32,1.242 18.589,5.184 25.679,9.856 26.953,17.754 37.008,53.679 22.27,79.543 -7.531,13.218 -19.813,22.578 -33.903,25.832 -3.738,0.863 -5.339,0.984 -10.578,0.797 -4.285,-0.157 -7.019,-0.497 -8.957,-1.118 -2.515,-0.804 -2.8,-1.027 -2.918,-2.273 -0.07,-0.754 0.149,-2.84 0.485,-4.629 l 0.609,-3.254 2.074,0.121 c 1.243,0.071 3.379,0.77 5.328,1.742 3.625,1.813 4.344,1.922 6.231,0.95 1.726,-0.895 2.625,-3.075 2.066,-5.02 -1.711,-5.969 -19.16,-9.473 -32.465,-6.523 -6.894,1.527 -10.453,3.949 -10.453,7.109 0,3.922 3.344,5.555 7.282,3.559 2.882,-1.461 9.316,-2.856 10.113,-2.196 0.812,0.676 -0.883,10.242 -1.973,11.11 -1,0.797 -10.707,0.414 -14.492,-0.575 -11.84,-3.082 -22.43,-10.168 -29.789,-19.941 -10.035,-13.312 -13.016,-30.086 -8.512,-47.871 4.731,-18.68 17.828,-34.043 36.207,-42.465 4.41,-2.023 11.266,-4.074 15.852,-4.742 4,-0.586 15.973,-0.594 19.844,-0.012 z m -101.219,42.738 c 2.812,0.266 6.703,0.891 8.648,1.387 3.266,0.832 9.922,3.297 10.52,3.895 0.14,0.14 -0.039,2.195 -0.395,4.562 -1.039,6.899 -0.832,17.735 0.457,23.594 3.176,14.473 11.758,27.953 23.219,36.48 2.063,1.532 3.758,3.055 3.77,3.383 0.074,2.114 -6.168,10.985 -10.618,15.09 -11.109,10.254 -24.808,14.117 -37.156,10.484 l -3.414,-1.007 -3.855,1.011 c -7.422,1.95 -16.2,1.149 -23.891,-2.175 -13.191,-5.704 -23.16,-17.504 -26.617,-31.508 -1.293,-5.242 -1.375,-15.16 -0.172,-20.836 5.141,-24.238 24.98,-42.18 49.047,-44.36 2.176,-0.195 4.265,-0.386 4.648,-0.421 0.383,-0.036 2.996,0.152 5.809,0.421 z m 56.906,78.27 c 1.871,0.969 8.848,2.941 12.422,3.512 1.656,0.265 4.98,0.484 7.387,0.492 l 4.379,0.012 v 1.265 c 0,0.696 -0.407,4.918 -0.903,9.383 -1.59,14.328 -2.039,22.223 -2.051,36 -0.019,22.262 2.012,38.141 6.981,54.606 2.613,8.66 7.809,20.144 11.414,25.234 1.73,2.449 0.82,2.285 -10.309,-1.867 -35.55,-13.254 -62.98,-38.094 -77.183,-69.891 -4.113,-9.215 -8.754,-24.465 -8.399,-27.605 0.036,-0.301 1.938,-0.411 5.227,-0.297 6.281,0.215 10.773,-0.453 16.852,-2.508 7.453,-2.523 14.468,-6.988 20.437,-13.016 4.469,-4.511 6.984,-7.968 10.609,-14.566 0.895,-1.629 1.27,-1.719 3.137,-0.754 z"
         style="fill:#000000;fill-opacity:1;fill-rule:nonzero;stroke:none"
         id="path82"
         inkscape:connector-curvature="0" /></g></g></svg>