<?xml version="1.0" encoding="UTF-8" standalone="no"?>
<!-- Created with Inkscape (http://www.inkscape.org/) -->

<svg
   xmlns:dc="http://purl.org/dc/elements/1.1/"
   xmlns:cc="http://creativecommons.org/ns#"
   xmlns:rdf="http://www.w3.org/1999/02/22-rdf-syntax-ns#"
   xmlns:svg="http://www.w3.org/2000/svg"
   xmlns="http://www.w3.org/2000/svg"
   xmlns:sodipodi="http://sodipodi.sourceforge.net/DTD/sodipodi-0.dtd"
   xmlns:inkscape="http://www.inkscape.org/namespaces/inkscape"
   version="1.1"
   id="svg2"
   xml:space="preserve"
   width="1122.5197"
   height="793.70074"
   viewBox="0 0 1122.5197 793.70074"
   sodipodi:docname="Boussole.svg"
   inkscape:version="0.92.2 5c3e80d, 2017-08-06"><metadata
     id="metadata8"><rdf:RDF><cc:Work
         rdf:about=""><dc:format>image/svg+xml</dc:format><dc:type
           rdf:resource="http://purl.org/dc/dcmitype/StillImage" /><dc:title></dc:title></cc:Work></rdf:RDF></metadata><defs
     id="defs6" /><sodipodi:namedview
     pagecolor="#ffffff"
     bordercolor="#666666"
     borderopacity="1"
     objecttolerance="10"
     gridtolerance="10"
     guidetolerance="10"
     inkscape:pageopacity="0"
     inkscape:pageshadow="2"
     inkscape:window-width="1348"
     inkscape:window-height="726"
     id="namedview4"
     showgrid="false"
     inkscape:zoom="0.72880595"
     inkscape:cx="561.25983"
     inkscape:cy="248.41824"
     inkscape:window-x="18"
     inkscape:window-y="0"
     inkscape:window-maximized="0"
     inkscape:current-layer="g12" /><g
     id="g10"
     inkscape:groupmode="layer"
     inkscape:label="Boussole"
     transform="matrix(1.3333333,0,0,-1.3333333,0,793.70077)"><g
       id="g12"><g
         id="g20"
         transform="matrix(1,0,0,-1,0,595.27557)"><path
           d="m 49.656,24.777 h 335.137 c 14.281,0 25.781,11.496 25.781,25.782 v 335.136 c 0,14.282 -11.5,25.778 -25.781,25.778 H 49.656 c -14.281,0 -25.781,-11.496 -25.781,-25.778 V 50.559 c 0,-14.286 11.5,-25.782 25.781,-25.782 z"
           style="fill:#ff7900;fill-opacity:1;fill-rule:nonzero;stroke:#000000;stroke-width:10.31192589;stroke-linecap:round;stroke-linejoin:round;stroke-miterlimit:4;stroke-dasharray:none;stroke-opacity:1"
           id="path22"
           inkscape:connector-curvature="0" /></g><text
         transform="scale(1,-1)"
         style="font-variant:normal;font-weight:normal;font-size:40.74356461px;font-family:Arial;-inkscape-font-specification:Arial;writing-mode:lr-tb;fill:#000000;fill-opacity:1;fill-rule:nonzero;stroke:none"
         id="text26"
         x="115.19267"
         y="-210.65836"><tspan
           sodipodi:role="line"
           id="tspan24"
           x="115.19267"
           y="-210.65836">COMPASS</tspan></text>
<path
         d="m 205.875,259.319 c -27.449,2.355 -54.238,13.101 -75.723,30.378 -6.234,5.016 -15.734,14.473 -20.476,20.383 -16.11,20.094 -25.86,42.621 -29.696,68.606 -1.054,7.133 -1.207,28.965 -0.25,35.605 3.551,24.668 12.165,46.34 25.622,64.485 23.054,31.082 54.691,49.953 93.398,55.714 8.859,1.317 29.441,1.184 38.645,-0.25 36.539,-5.695 68.585,-24.812 90.453,-53.957 10.711,-14.277 18.976,-31.453 23.297,-48.41 3.128,-12.293 4.222,-21.414 4.21,-35.148 -0.011,-14.324 -1.468,-24.664 -5.41,-38.356 -13.316,-46.261 -51.496,-83.199 -98.261,-95.05 -14.34,-3.637 -32.043,-5.18 -45.809,-4 z m 6.883,21.671 c 0.222,11.77 0.289,12.504 1.215,13.426 0.539,0.539 1.738,1.102 2.664,1.254 1.418,0.231 1.945,0.043 3.297,-1.164 l 1.605,-1.437 0.141,-12.383 0.144,-12.383 h 2.606 c 3.961,0 11.14,0.879 17.961,2.203 49.972,9.68 90.297,49.254 101.113,99.227 1.465,6.777 2.66,15.707 2.66,19.894 v 3.063 h -11.562 c -7.235,0 -12.125,0.195 -13.071,0.527 -2.824,0.984 -3.746,4.613 -1.758,6.922 l 1.145,1.332 12.504,0.238 12.504,0.238 -0.074,4.985 c -0.039,2.742 -0.528,7.762 -1.082,11.156 -6.563,40.145 -31.36,74.586 -67.446,93.676 -16,8.469 -35.176,13.793 -51.984,14.441 l -3.324,0.129 -0.239,-12.426 c -0.234,-12.347 -0.246,-12.433 -1.386,-13.648 -0.879,-0.938 -1.61,-1.223 -3.086,-1.211 -1.067,0.008 -2.274,0.277 -2.692,0.594 -1.707,1.312 -1.855,2.476 -1.855,14.566 0,9.75 -0.121,11.961 -0.664,12.168 -0.961,0.371 -10.672,-0.605 -17.391,-1.746 -12.168,-2.066 -22.496,-5.492 -34.883,-11.562 C 124.266,495.631 98.695,462.651 90.586,423.768 89.18,417.01 88.387,410.94 88.242,405.744 l -0.109,-3.797 12.582,-0.257 c 6.918,-0.141 12.625,-0.301 12.68,-0.356 2.457,-2.422 2.765,-4.894 0.894,-7.074 l -1.148,-1.332 -12.504,-0.238 -12.504,-0.239 0.113,-3.558 c 0.348,-11.028 3.32,-24.965 7.957,-37.285 12.914,-34.317 40.11,-61.7 74.465,-74.977 12.125,-4.687 29.199,-8.324 38.293,-8.156 l 3.559,0.066 z m -75.16,36.411 c -1.489,1.378 -1.965,2.988 -1.348,4.57 0.25,0.641 14.203,19.789 31.004,42.551 16.801,22.761 31.559,42.793 32.797,44.515 1.39,1.934 3.445,3.989 5.383,5.379 1.726,1.238 21.757,15.996 44.515,32.797 22.758,16.801 41.891,30.75 42.516,30.992 1.535,0.598 4.039,-0.269 4.996,-1.73 1,-1.524 0.949,-3.469 -0.137,-5.215 -0.488,-0.781 -14.367,-19.688 -30.847,-42.016 C 250,406.92 235.5,387.264 234.254,385.569 c -1.27,-1.727 -3.629,-4.086 -5.356,-5.356 -1.695,-1.246 -21.351,-15.746 -43.675,-32.226 -22.328,-16.477 -41.235,-30.356 -42.016,-30.844 -1.98,-1.231 -4.109,-1.133 -5.609,0.258 z m 49.64,43.39 c 12.207,9 22.196,16.543 22.196,16.762 0,0.219 -0.891,0.855 -1.985,1.41 -2.726,1.395 -6.824,5.375 -8.367,8.129 -0.703,1.262 -1.531,2.234 -1.84,2.164 -0.629,-0.144 -33.387,-44.355 -33.387,-45.066 0,-0.661 -0.742,-1.192 23.383,16.601 z m 34.91,25.91 c 1.915,0.989 4.61,3.668 5.582,5.547 1.086,2.102 1.395,5.774 0.696,8.27 -0.75,2.676 -3.836,6.261 -6.391,7.422 -2.379,1.078 -6.777,1.156 -9.176,0.156 -2.203,-0.918 -5.117,-3.695 -6.312,-6.012 -1.199,-2.32 -1.211,-7.027 -0.02,-9.644 1.114,-2.453 3.766,-4.981 6.344,-6.043 2.449,-1.012 7.024,-0.86 9.277,0.304 z m 31.528,40.528 c 17.781,24.113 17.262,23.379 16.601,23.379 -0.699,0 -44.922,-32.766 -45.066,-33.391 -0.07,-0.305 0.902,-1.129 2.164,-1.832 2.754,-1.543 6.734,-5.641 8.129,-8.371 0.555,-1.09 1.187,-1.981 1.41,-1.981 0.219,0 7.762,9.989 16.762,22.196 z"
         style="fill:#000000;fill-opacity:1;fill-rule:nonzero;stroke:none"
         id="path28"
         inkscape:connector-curvature="0" /><g
         id="g36"
         transform="matrix(1,0,0,-1,0,595.27557)"><path
           d="m 29.027,428.398 h 134.004 c 5.707,0 10.305,4.598 10.305,10.309 v 134 c 0,5.711 -4.598,10.309 -10.305,10.309 H 29.027 c -5.711,0 -10.308,-4.598 -10.308,-10.309 v -134 c 0,-5.711 4.597,-10.309 10.308,-10.309 z"
           style="fill:#ff7900;fill-opacity:1;fill-rule:nonzero;stroke:#000000;stroke-width:4.12312078;stroke-linecap:round;stroke-linejoin:round;stroke-miterlimit:4;stroke-dasharray:none;stroke-opacity:1"
           id="path38"
           inkscape:connector-curvature="0" /></g><text
         transform="scale(1,-1)"
         style="font-variant:normal;font-weight:normal;font-size:16.29090881px;font-family:Arial;-inkscape-font-specification:Arial;writing-mode:lr-tb;fill:#000000;fill-opacity:1;fill-rule:nonzero;stroke:none"
         id="text42"
         x="54.033958"
         y="-22.999605"><tspan
           sodipodi:role="line"
           id="tspan40"
           x="54.033958"
           y="-22.999605">COMPASS</tspan></text>
<path
         d="m 91.488,42.455 c -10.972,0.942 -21.683,5.239 -30.273,12.149 -2.496,2.004 -6.293,5.785 -8.188,8.148 -6.441,8.035 -10.339,17.043 -11.875,27.43 -0.422,2.855 -0.48,11.582 -0.101,14.238 1.422,9.863 4.863,18.527 10.246,25.781 9.219,12.43 21.867,19.977 37.348,22.278 3.539,0.527 11.769,0.476 15.449,-0.098 14.609,-2.277 27.422,-9.922 36.168,-21.574 4.281,-5.707 7.586,-12.574 9.312,-19.356 1.254,-4.914 1.692,-8.562 1.684,-14.054 -0.004,-5.727 -0.586,-9.86 -2.164,-15.336 -5.321,-18.5 -20.59,-33.266 -39.289,-38.008 -5.731,-1.453 -12.809,-2.07 -18.317,-1.598 z m 2.754,8.668 c 0.09,4.703 0.117,4.996 0.485,5.367 0.218,0.215 0.695,0.442 1.066,0.5 0.566,0.09 0.777,0.016 1.316,-0.464 l 0.645,-0.575 0.059,-4.953 0.054,-4.949 h 1.043 c 1.582,0 4.453,0.352 7.18,0.879 19.98,3.871 36.105,19.695 40.43,39.676 0.585,2.711 1.062,6.281 1.062,7.953 v 1.226 h -4.621 c -2.895,0 -4.848,0.079 -5.227,0.211 -1.129,0.395 -1.496,1.844 -0.703,2.77 l 0.457,0.531 5,0.094 5,0.094 -0.031,1.996 c -0.016,1.093 -0.211,3.101 -0.43,4.461 -2.625,16.05 -12.539,29.82 -26.968,37.453 -6.399,3.386 -14.067,5.515 -20.786,5.773 l -1.328,0.051 -0.097,-4.965 c -0.094,-4.937 -0.098,-4.973 -0.555,-5.457 -0.352,-0.375 -0.641,-0.488 -1.234,-0.484 -0.426,0.004 -0.907,0.109 -1.075,0.238 -0.683,0.523 -0.742,0.988 -0.742,5.824 0,3.895 -0.047,4.781 -0.265,4.864 -0.383,0.148 -4.266,-0.243 -6.954,-0.7 -4.863,-0.824 -8.996,-2.195 -13.945,-4.621 -14.219,-6.972 -24.441,-20.16 -27.683,-35.707 -0.563,-2.703 -0.879,-5.129 -0.938,-7.207 l -0.043,-1.519 5.031,-0.102 c 2.766,-0.055 5.047,-0.121 5.071,-0.141 0.98,-0.968 1.105,-1.957 0.355,-2.828 l -0.457,-0.535 -5,-0.094 -5,-0.093 0.043,-1.426 c 0.141,-4.406 1.328,-9.981 3.184,-14.906 5.164,-13.723 16.035,-24.672 29.773,-29.981 4.848,-1.875 11.676,-3.328 15.309,-3.262 l 1.425,0.028 0.094,4.976 z M 64.191,65.678 c -0.597,0.555 -0.785,1.195 -0.539,1.828 0.102,0.258 5.68,7.914 12.395,17.016 6.719,9.101 12.621,17.109 13.113,17.797 0.559,0.773 1.379,1.597 2.156,2.152 0.688,0.492 8.696,6.394 17.797,13.113 9.102,6.719 16.75,12.293 17,12.391 0.614,0.238 1.614,-0.106 1.996,-0.692 0.403,-0.609 0.379,-1.386 -0.054,-2.086 -0.196,-0.312 -5.742,-7.871 -12.332,-16.796 -6.59,-8.926 -12.387,-16.786 -12.887,-17.465 -0.508,-0.692 -1.449,-1.633 -2.141,-2.141 -0.675,-0.5 -8.535,-6.297 -17.461,-12.887 -8.929,-6.586 -16.488,-12.136 -16.8,-12.332 -0.793,-0.492 -1.645,-0.453 -2.243,0.102 z m 19.848,17.351 c 4.883,3.598 8.875,6.614 8.875,6.704 0,0.086 -0.355,0.339 -0.793,0.562 -1.09,0.555 -2.73,2.149 -3.348,3.25 -0.281,0.504 -0.609,0.895 -0.734,0.863 -0.254,-0.054 -13.348,-17.734 -13.348,-18.015 0,-0.266 -0.3,-0.477 9.348,6.636 z m 13.957,10.36 c 0.766,0.394 1.844,1.469 2.234,2.219 0.434,0.839 0.555,2.308 0.278,3.304 -0.301,1.071 -1.535,2.504 -2.555,2.969 -0.953,0.43 -2.711,0.461 -3.668,0.063 -0.883,-0.368 -2.047,-1.477 -2.527,-2.403 -0.481,-0.929 -0.481,-2.812 -0.008,-3.859 0.445,-0.981 1.508,-1.992 2.539,-2.414 0.977,-0.406 2.809,-0.344 3.707,0.121 z m 12.609,16.203 c 7.11,9.645 6.899,9.352 6.637,9.352 -0.281,0 -17.961,-13.106 -18.019,-13.356 -0.028,-0.121 0.359,-0.449 0.863,-0.73 1.102,-0.618 2.695,-2.254 3.25,-3.348 0.223,-0.434 0.477,-0.793 0.566,-0.793 0.086,0 3.102,3.996 6.703,8.875 z"
         style="fill:#000000;fill-opacity:1;fill-rule:nonzero;stroke:none"
         id="path44"
         inkscape:connector-curvature="0" /><g
         id="g46"
         transform="matrix(1,0,0,-1,0,595.27557)"><path
           d="m 690.785,429.871 h 95.676 c 4.078,0 7.359,3.281 7.359,7.359 v 95.676 c 0,4.078 -3.281,7.36 -7.359,7.36 h -95.676 c -4.078,0 -7.359,-3.282 -7.359,-7.36 V 437.23 c 0,-4.078 3.281,-7.359 7.359,-7.359 z"
           style="fill:#ff7900;fill-opacity:1;fill-rule:nonzero;stroke:#000000;stroke-width:2.94390798;stroke-linecap:round;stroke-linejoin:round;stroke-miterlimit:4;stroke-dasharray:none;stroke-opacity:1"
           id="path48"
           inkscape:connector-curvature="0" /></g><text
         transform="matrix(1,0,0,-1,706.4974,62.67687)"
         style="font-variant:normal;font-weight:normal;font-size:11.6317091px;font-family:Arial;-inkscape-font-specification:Arial;writing-mode:lr-tb;fill:#000000;fill-opacity:1;fill-rule:nonzero;stroke:none"
         id="text52"><tspan
           sodipodi:role="line"
           id="tspan50"
           x="0"
           y="0">COMPASS</tspan></text>
<path
         d="m 735.383,76.569 c -7.836,0.671 -15.485,3.742 -21.617,8.671 -1.782,1.434 -4.493,4.133 -5.844,5.821 -4.602,5.734 -7.383,12.168 -8.481,19.586 -0.3,2.035 -0.343,8.269 -0.07,10.164 1.016,7.043 3.473,13.23 7.313,18.41 6.586,8.871 15.617,14.262 26.668,15.906 2.527,0.375 8.402,0.336 11.031,-0.07 10.43,-1.629 19.578,-7.086 25.82,-15.406 3.059,-4.075 5.418,-8.981 6.652,-13.821 0.895,-3.508 1.208,-6.113 1.204,-10.035 -0.004,-4.09 -0.422,-7.039 -1.547,-10.949 -3.801,-13.207 -14.699,-23.75 -28.051,-27.137 -4.094,-1.035 -9.148,-1.476 -13.078,-1.14 z m 1.965,6.187 c 0.066,3.359 0.082,3.57 0.347,3.832 0.153,0.156 0.496,0.316 0.762,0.359 0.402,0.063 0.555,0.012 0.941,-0.332 l 0.457,-0.41 0.04,-3.535 0.043,-3.535 h 0.742 c 1.133,0 3.183,0.25 5.129,0.629 14.265,2.762 25.777,14.058 28.867,28.328 0.418,1.934 0.758,4.484 0.758,5.68 v 0.871 h -3.301 c -2.067,0 -3.461,0.058 -3.731,0.152 -0.804,0.281 -1.07,1.317 -0.504,1.977 l 0.329,0.379 3.57,0.07 3.57,0.066 -0.023,1.422 c -0.012,0.785 -0.149,2.219 -0.309,3.188 -1.871,11.457 -8.953,21.293 -19.254,26.742 -4.566,2.418 -10.043,3.937 -14.84,4.121 l -0.949,0.039 -0.07,-3.547 c -0.067,-3.527 -0.067,-3.551 -0.395,-3.898 -0.25,-0.266 -0.461,-0.348 -0.882,-0.344 -0.301,0 -0.649,0.078 -0.766,0.168 -0.488,0.375 -0.531,0.707 -0.531,4.16 0,2.781 -0.035,3.414 -0.188,3.473 -0.273,0.105 -3.047,-0.172 -4.965,-0.5 -3.476,-0.59 -6.425,-1.567 -9.961,-3.301 -10.148,-4.977 -17.449,-14.395 -19.765,-25.492 -0.403,-1.93 -0.625,-3.664 -0.668,-5.145 l -0.031,-1.086 3.593,-0.074 c 1.973,-0.039 3.602,-0.086 3.617,-0.101 0.704,-0.692 0.793,-1.399 0.258,-2.02 l -0.328,-0.379 -3.57,-0.07 -3.57,-0.067 0.031,-1.015 c 0.101,-3.149 0.949,-7.129 2.273,-10.645 3.688,-9.797 11.449,-17.613 21.258,-21.406 3.461,-1.336 8.336,-2.375 10.934,-2.328 l 1.015,0.019 z m -21.457,10.395 c -0.426,0.394 -0.559,0.851 -0.383,1.304 0.07,0.184 4.055,5.649 8.851,12.149 4.797,6.496 9.008,12.215 9.364,12.707 0.394,0.551 0.98,1.14 1.535,1.535 0.492,0.355 6.211,4.566 12.707,9.363 6.5,4.797 11.961,8.778 12.14,8.848 0.438,0.172 1.153,-0.074 1.426,-0.492 0.285,-0.434 0.27,-0.993 -0.039,-1.489 -0.14,-0.226 -4.101,-5.621 -8.808,-11.996 -4.704,-6.375 -8.844,-11.984 -9.2,-12.468 -0.363,-0.493 -1.035,-1.168 -1.527,-1.528 -0.484,-0.359 -6.098,-4.496 -12.469,-9.203 -6.375,-4.703 -11.773,-8.664 -11.996,-8.805 -0.566,-0.351 -1.172,-0.324 -1.601,0.075 z m 14.172,12.386 c 3.484,2.571 6.335,4.723 6.335,4.785 0,0.063 -0.253,0.247 -0.566,0.403 -0.777,0.398 -1.945,1.535 -2.387,2.32 -0.203,0.359 -0.437,0.641 -0.527,0.617 -0.18,-0.039 -9.531,-12.66 -9.531,-12.863 0,-0.191 -0.211,-0.34 6.676,4.738 z m 9.964,7.399 c 0.547,0.281 1.317,1.047 1.594,1.582 0.313,0.601 0.399,1.648 0.199,2.359 -0.215,0.766 -1.093,1.789 -1.824,2.121 -0.68,0.309 -1.933,0.328 -2.617,0.043 -0.629,-0.262 -1.461,-1.054 -1.805,-1.715 -0.34,-0.664 -0.344,-2.007 -0.004,-2.754 0.317,-0.699 1.075,-1.421 1.809,-1.726 0.699,-0.285 2.008,-0.242 2.648,0.09 z m 9.004,11.57 c 5.074,6.883 4.926,6.672 4.739,6.672 -0.2,0 -12.825,-9.352 -12.868,-9.531 -0.019,-0.086 0.258,-0.325 0.618,-0.524 0.789,-0.441 1.925,-1.609 2.32,-2.39 0.16,-0.309 0.344,-0.567 0.406,-0.567 0.063,0 2.215,2.852 4.785,6.34 z"
         style="fill:#000000;fill-opacity:1;fill-rule:nonzero;stroke:none"
         id="path54"
         inkscape:connector-curvature="0" /><g
         id="g56"
         transform="matrix(1,0,0,-1,0,595.27557)"><path
           d="m 690.789,429.824 h 95.715 c 4.078,0 7.363,3.285 7.363,7.364 v 95.714 c 0,4.078 -3.285,7.364 -7.363,7.364 h -95.715 c -4.078,0 -7.363,-3.286 -7.363,-7.364 v -95.714 c 0,-4.079 3.285,-7.364 7.363,-7.364 z"
           style="fill:#ff7900;fill-opacity:1;fill-rule:nonzero;stroke:#000000;stroke-width:2.945086;stroke-linecap:round;stroke-linejoin:round;stroke-miterlimit:4;stroke-dasharray:none;stroke-opacity:1"
           id="path58"
           inkscape:connector-curvature="0" /></g><text
         transform="scale(1,-1)"
         style="font-variant:normal;font-weight:normal;font-size:11.63636112px;font-family:Arial;-inkscape-font-specification:Arial;writing-mode:lr-tb;fill:#000000;fill-opacity:1;fill-rule:nonzero;stroke:none"
         id="text62"
         x="709.5072"
         y="-62.680592"><tspan
           sodipodi:role="line"
           id="tspan60"
           x="709.5072"
           y="-62.680592">COMPASS</tspan></text>
<path
         d="m 735.406,76.576 c -7.84,0.676 -15.492,3.743 -21.629,8.68 -1.781,1.43 -4.492,4.133 -5.847,5.82 -4.602,5.739 -7.387,12.172 -8.481,19.594 -0.301,2.035 -0.344,8.274 -0.07,10.168 1.012,7.047 3.473,13.234 7.316,18.418 6.586,8.875 15.621,14.266 26.676,15.91 2.531,0.379 8.406,0.34 11.035,-0.07 10.438,-1.629 19.59,-7.086 25.836,-15.41 3.059,-4.078 5.418,-8.985 6.653,-13.828 0.894,-3.508 1.207,-6.114 1.203,-10.036 -0.004,-4.093 -0.422,-7.043 -1.547,-10.953 -3.801,-13.215 -14.707,-23.761 -28.063,-27.148 -4.097,-1.039 -9.152,-1.481 -13.082,-1.145 z m 1.965,6.192 c 0.063,3.359 0.082,3.57 0.348,3.836 0.152,0.152 0.496,0.312 0.761,0.355 0.403,0.067 0.555,0.012 0.938,-0.332 l 0.461,-0.41 0.039,-3.535 0.043,-3.539 h 0.742 c 1.133,0 3.184,0.254 5.133,0.629 14.269,2.765 25.785,14.066 28.875,28.34 0.418,1.937 0.762,4.488 0.762,5.683 v 0.875 h -3.305 c -2.066,0 -3.461,0.055 -3.73,0.149 -0.809,0.281 -1.071,1.316 -0.504,1.976 l 0.328,0.383 3.57,0.066 3.57,0.067 -0.019,1.426 c -0.012,0.781 -0.153,2.214 -0.309,3.187 -1.875,11.465 -8.957,21.301 -19.261,26.754 -4.571,2.418 -10.047,3.937 -14.848,4.121 l -0.949,0.039 -0.071,-3.551 c -0.066,-3.523 -0.07,-3.55 -0.394,-3.898 -0.25,-0.266 -0.461,-0.348 -0.883,-0.344 -0.305,0.004 -0.648,0.078 -0.766,0.168 -0.488,0.375 -0.531,0.707 -0.531,4.16 0,2.785 -0.035,3.418 -0.191,3.477 -0.274,0.105 -3.047,-0.172 -4.965,-0.5 -3.477,-0.59 -6.426,-1.567 -9.961,-3.301 -10.156,-4.98 -17.461,-14.398 -19.774,-25.504 -0.402,-1.93 -0.628,-3.664 -0.671,-5.148 l -0.032,-1.086 3.594,-0.071 c 1.977,-0.043 3.606,-0.086 3.621,-0.101 0.703,-0.692 0.789,-1.399 0.254,-2.024 l -0.324,-0.378 -3.574,-0.067 -3.571,-0.07 0.032,-1.016 c 0.101,-3.148 0.949,-7.129 2.273,-10.648 3.688,-9.801 11.457,-17.621 21.27,-21.414 3.461,-1.34 8.336,-2.375 10.933,-2.328 l 1.016,0.019 z m -21.465,10.398 c -0.426,0.395 -0.562,0.856 -0.386,1.305 0.07,0.183 4.054,5.652 8.855,12.152 4.797,6.5 9.012,12.223 9.367,12.715 0.395,0.551 0.985,1.141 1.535,1.535 0.496,0.356 6.215,4.571 12.715,9.367 6.5,4.801 11.965,8.782 12.145,8.852 0.437,0.172 1.152,-0.078 1.426,-0.492 0.285,-0.438 0.269,-0.992 -0.04,-1.492 -0.14,-0.223 -4.105,-5.621 -8.808,-12 -4.707,-6.375 -8.848,-11.989 -9.207,-12.473 -0.36,-0.492 -1.035,-1.168 -1.528,-1.527 -0.484,-0.36 -6.097,-4.5 -12.472,-9.207 -6.379,-4.704 -11.778,-8.668 -12,-8.809 -0.567,-0.352 -1.176,-0.324 -1.602,0.074 z m 14.176,12.391 c 3.488,2.57 6.34,4.726 6.34,4.789 0,0.062 -0.254,0.242 -0.567,0.402 -0.781,0.399 -1.949,1.535 -2.39,2.321 -0.199,0.363 -0.438,0.64 -0.524,0.621 -0.183,-0.043 -9.535,-12.668 -9.535,-12.871 0,-0.192 -0.215,-0.34 6.676,4.738 z m 9.969,7.402 c 0.547,0.281 1.32,1.047 1.594,1.582 0.312,0.602 0.402,1.649 0.199,2.363 -0.211,0.766 -1.094,1.79 -1.824,2.122 -0.68,0.308 -1.934,0.328 -2.622,0.043 -0.628,-0.262 -1.46,-1.055 -1.8,-1.715 -0.344,-0.664 -0.348,-2.008 -0.008,-2.758 0.32,-0.699 1.078,-1.422 1.812,-1.727 0.7,-0.285 2.008,-0.242 2.649,0.09 z m 9.008,11.574 c 5.078,6.887 4.929,6.676 4.738,6.676 -0.199,0 -12.828,-9.355 -12.871,-9.535 -0.02,-0.086 0.258,-0.324 0.621,-0.523 0.785,-0.442 1.922,-1.61 2.32,-2.391 0.16,-0.313 0.34,-0.566 0.403,-0.566 0.062,0 2.214,2.851 4.789,6.339 z"
         style="fill:#000000;fill-opacity:1;fill-rule:nonzero;stroke:none"
         id="path64"
         inkscape:connector-curvature="0" /><g
         id="g66"
         transform="matrix(1,0,0,-1,0,595.27557)"><path
           d="m 457.758,24.777 h 335.137 c 14.285,0 25.781,11.496 25.781,25.782 v 335.136 c 0,14.282 -11.496,25.778 -25.781,25.778 H 457.758 c -14.281,0 -25.778,-11.496 -25.778,-25.778 V 50.559 c 0,-14.286 11.497,-25.782 25.778,-25.782 z"
           style="fill:#ff7900;fill-opacity:1;fill-rule:nonzero;stroke:#000000;stroke-width:10.31192589;stroke-linecap:round;stroke-linejoin:round;stroke-miterlimit:4;stroke-dasharray:none;stroke-opacity:1"
           id="path68"
           inkscape:connector-curvature="0" /></g><text
         transform="scale(1,-1)"
         style="font-variant:normal;font-weight:normal;font-size:40.74356461px;font-family:Arial;-inkscape-font-specification:Arial;writing-mode:lr-tb;fill:#000000;fill-opacity:1;fill-rule:nonzero;stroke:none"
         id="text72"
         x="523.29504"
         y="-210.65836"><tspan
           sodipodi:role="line"
           id="tspan70"
           x="523.29504"
           y="-210.65836">COMPASS</tspan></text>
<path
         d="m 613.977,259.319 c -27.45,2.355 -54.235,13.101 -75.723,30.378 -6.234,5.016 -15.734,14.473 -20.477,20.383 -16.109,20.094 -25.859,42.621 -29.695,68.606 -1.051,7.133 -1.207,28.965 -0.25,35.605 3.551,24.668 12.164,46.34 25.621,64.485 23.059,31.082 54.695,49.953 93.402,55.714 8.86,1.317 29.442,1.184 38.641,-0.25 36.539,-5.695 68.586,-24.812 90.453,-53.957 10.711,-14.277 18.977,-31.453 23.297,-48.41 3.129,-12.293 4.223,-21.414 4.211,-35.148 -0.012,-14.324 -1.469,-24.664 -5.41,-38.356 -13.317,-46.261 -51.496,-83.199 -98.262,-95.05 -14.34,-3.637 -32.043,-5.18 -45.808,-4 z m 6.882,21.671 c 0.223,11.77 0.293,12.504 1.215,13.426 0.539,0.539 1.739,1.102 2.664,1.254 1.418,0.231 1.946,0.043 3.297,-1.164 l 1.606,-1.437 0.144,-12.383 0.141,-12.383 h 2.605 c 3.961,0 11.145,0.879 17.961,2.203 49.973,9.68 90.297,49.254 101.113,99.227 1.465,6.777 2.661,15.707 2.661,19.894 v 3.063 h -11.563 c -7.234,0 -12.125,0.195 -13.07,0.527 -2.824,0.984 -3.746,4.613 -1.758,6.922 l 1.145,1.332 12.503,0.238 12.504,0.238 -0.074,4.985 c -0.039,2.742 -0.527,7.762 -1.082,11.156 -6.558,40.145 -31.355,74.586 -67.445,93.676 -16,8.469 -35.176,13.793 -51.985,14.441 l -3.324,0.129 -0.238,-12.426 c -0.234,-12.347 -0.242,-12.433 -1.387,-13.648 -0.879,-0.938 -1.609,-1.223 -3.086,-1.211 -1.066,0.008 -2.273,0.277 -2.687,0.594 -1.711,1.312 -1.86,2.476 -1.86,14.566 0,9.75 -0.121,11.961 -0.66,12.168 -0.965,0.371 -10.672,-0.605 -17.394,-1.746 -12.168,-2.066 -22.496,-5.492 -34.879,-11.562 -35.555,-17.438 -61.125,-50.418 -69.235,-89.301 -1.41,-6.758 -2.199,-12.828 -2.347,-18.024 l -0.106,-3.797 12.578,-0.257 c 6.922,-0.141 12.629,-0.301 12.684,-0.356 2.453,-2.422 2.766,-4.894 0.891,-7.074 l -1.145,-1.332 -12.504,-0.238 -12.504,-0.239 0.11,-3.558 c 0.347,-11.028 3.32,-24.965 7.957,-37.285 12.914,-34.317 40.113,-61.7 74.468,-74.977 12.125,-4.687 29.196,-8.324 38.29,-8.156 l 3.558,0.066 z m -75.16,36.411 c -1.488,1.378 -1.965,2.988 -1.347,4.57 0.25,0.641 14.203,19.789 31.003,42.551 16.801,22.761 31.563,42.793 32.797,44.515 1.391,1.934 3.45,3.989 5.383,5.379 1.727,1.238 21.758,15.996 44.516,32.797 22.762,16.801 41.89,30.75 42.515,30.992 1.536,0.598 4.043,-0.269 4.997,-1.73 1,-1.524 0.949,-3.469 -0.137,-5.215 -0.488,-0.781 -14.367,-19.688 -30.844,-42.016 -16.48,-22.324 -30.98,-41.98 -32.227,-43.675 -1.269,-1.727 -3.625,-4.086 -5.355,-5.356 -1.695,-1.246 -21.352,-15.746 -43.676,-32.226 C 571,331.51 552.09,317.631 551.309,317.143 c -1.981,-1.231 -4.11,-1.133 -5.61,0.258 z m 49.641,43.39 c 12.207,9 22.195,16.543 22.195,16.762 0,0.219 -0.89,0.855 -1.98,1.41 -2.731,1.395 -6.828,5.375 -8.367,8.129 -0.708,1.262 -1.536,2.234 -1.84,2.164 -0.633,-0.144 -33.387,-44.355 -33.387,-45.066 0,-0.661 -0.746,-1.192 23.379,16.601 z m 34.91,25.91 c 1.914,0.989 4.609,3.668 5.582,5.547 1.086,2.102 1.395,5.774 0.695,8.27 -0.75,2.676 -3.836,6.261 -6.39,7.422 -2.379,1.078 -6.778,1.156 -9.172,0.156 -2.203,-0.918 -5.121,-3.695 -6.317,-6.012 -1.199,-2.32 -1.21,-7.027 -0.019,-9.644 1.113,-2.453 3.769,-4.981 6.344,-6.043 2.449,-1.012 7.023,-0.86 9.277,0.304 z m 31.527,40.528 c 17.786,24.113 17.262,23.379 16.602,23.379 -0.699,0 -44.922,-32.766 -45.066,-33.391 -0.071,-0.305 0.902,-1.129 2.164,-1.832 2.757,-1.543 6.738,-5.641 8.128,-8.371 0.555,-1.09 1.192,-1.981 1.411,-1.981 0.218,0 7.761,9.989 16.761,22.196 z"
         style="fill:#000000;fill-opacity:1;fill-rule:nonzero;stroke:none"
         id="path74"
         inkscape:connector-curvature="0" /><g
         id="g76"
         transform="matrix(1,0,0,-1,0,595.27557)"><path
           d="m 203.852,430.461 h 134 c 5.711,0 10.308,4.594 10.308,10.305 V 574.77 c 0,5.71 -4.597,10.304 -10.308,10.304 h -134 c -5.711,0 -10.309,-4.594 -10.309,-10.304 V 440.766 c 0,-5.711 4.598,-10.305 10.309,-10.305 z"
           style="fill:#ff7900;fill-opacity:1;fill-rule:nonzero;stroke:#000000;stroke-width:4.12312078;stroke-linecap:round;stroke-linejoin:round;stroke-miterlimit:4;stroke-dasharray:none;stroke-opacity:1"
           id="path78"
           inkscape:connector-curvature="0" /></g><text
         transform="scale(1,-1)"
         style="font-variant:normal;font-weight:normal;font-size:16.29090881px;font-family:Arial;-inkscape-font-specification:Arial;writing-mode:lr-tb;fill:#000000;fill-opacity:1;fill-rule:nonzero;stroke:none"
         id="text82"
         x="228.85703"
         y="-20.938078"><tspan
           sodipodi:role="line"
           id="tspan80"
           x="228.85703"
           y="-20.938078">COMPASS</tspan></text>
<path
         d="m 266.313,40.393 c -10.973,0.945 -21.684,5.242 -30.274,12.148 -2.496,2.004 -6.293,5.785 -8.187,8.153 -6.442,8.031 -10.344,17.039 -11.875,27.429 -0.422,2.852 -0.485,11.582 -0.102,14.235 1.422,9.863 4.863,18.531 10.246,25.785 9.219,12.426 21.867,19.972 37.344,22.277 3.543,0.527 11.773,0.473 15.453,-0.101 14.609,-2.278 27.422,-9.922 36.164,-21.575 4.285,-5.707 7.59,-12.574 9.316,-19.355 1.25,-4.914 1.688,-8.563 1.684,-14.055 -0.004,-5.726 -0.586,-9.859 -2.164,-15.336 -5.324,-18.496 -20.59,-33.265 -39.289,-38.004 -5.734,-1.453 -12.813,-2.074 -18.316,-1.601 z m 2.753,8.668 c 0.09,4.703 0.118,5 0.485,5.367 0.215,0.215 0.695,0.441 1.066,0.5 0.567,0.094 0.778,0.019 1.317,-0.465 l 0.644,-0.574 0.055,-4.949 0.058,-4.953 h 1.043 c 1.582,0 4.454,0.351 7.18,0.878 19.981,3.872 36.106,19.696 40.43,39.676 0.586,2.711 1.062,6.281 1.062,7.957 v 1.223 h -4.621 c -2.894,0 -4.847,0.078 -5.226,0.211 -1.129,0.394 -1.5,1.844 -0.704,2.769 l 0.458,0.532 5,0.093 5,0.098 -0.032,1.992 c -0.015,1.098 -0.211,3.106 -0.433,4.461 -2.621,16.051 -12.535,29.82 -26.965,37.457 -6.399,3.383 -14.067,5.512 -20.785,5.774 l -1.332,0.05 -0.094,-4.968 c -0.094,-4.938 -0.098,-4.973 -0.555,-5.457 -0.351,-0.375 -0.644,-0.489 -1.234,-0.485 -0.426,0.004 -0.91,0.11 -1.074,0.239 -0.684,0.523 -0.743,0.988 -0.743,5.824 0,3.898 -0.05,4.781 -0.265,4.863 -0.383,0.148 -4.266,-0.242 -6.953,-0.695 -4.868,-0.828 -8.996,-2.2 -13.95,-4.625 -14.214,-6.973 -24.437,-20.16 -27.679,-35.707 -0.567,-2.703 -0.883,-5.129 -0.942,-7.207 l -0.043,-1.516 5.032,-0.105 c 2.769,-0.055 5.05,-0.118 5.07,-0.141 0.98,-0.969 1.105,-1.957 0.359,-2.828 l -0.461,-0.535 -5,-0.094 -5,-0.094 0.047,-1.426 c 0.137,-4.406 1.328,-9.98 3.18,-14.906 5.164,-13.719 16.039,-24.672 29.777,-29.98 4.848,-1.871 11.672,-3.328 15.309,-3.258 l 1.422,0.023 z m -30.054,14.558 c -0.594,0.551 -0.785,1.196 -0.535,1.825 0.097,0.257 5.675,7.914 12.394,17.015 6.719,9.102 12.621,17.11 13.113,17.797 0.555,0.773 1.379,1.598 2.153,2.152 0.691,0.496 8.699,6.395 17.801,13.114 9.097,6.718 16.75,12.297 17,12.39 0.613,0.242 1.613,-0.105 1.996,-0.691 0.398,-0.606 0.379,-1.387 -0.055,-2.082 -0.195,-0.317 -5.746,-7.875 -12.332,-16.801 -6.59,-8.926 -12.387,-16.785 -12.887,-17.465 -0.508,-0.691 -1.449,-1.633 -2.14,-2.14 -0.68,-0.496 -8.54,-6.297 -17.465,-12.883 -8.926,-6.59 -16.485,-12.141 -16.797,-12.336 -0.793,-0.492 -1.645,-0.453 -2.246,0.105 z m 19.851,17.348 c 4.879,3.598 8.875,6.617 8.875,6.703 0,0.086 -0.359,0.34 -0.793,0.563 -1.093,0.558 -2.73,2.148 -3.347,3.25 -0.282,0.504 -0.614,0.894 -0.735,0.867 -0.254,-0.059 -13.351,-17.738 -13.351,-18.02 0,-0.265 -0.297,-0.476 9.351,6.637 z m 13.957,10.359 c 0.766,0.395 1.844,1.469 2.231,2.219 0.433,0.84 0.558,2.309 0.281,3.305 -0.301,1.07 -1.535,2.504 -2.559,2.969 -0.949,0.433 -2.707,0.46 -3.668,0.062 -0.878,-0.367 -2.046,-1.477 -2.523,-2.402 -0.48,-0.93 -0.484,-2.813 -0.008,-3.86 0.446,-0.976 1.508,-1.988 2.535,-2.414 0.981,-0.406 2.809,-0.343 3.711,0.121 z m 12.606,16.203 c 7.109,9.645 6.902,9.352 6.64,9.352 -0.281,0 -17.964,-13.102 -18.023,-13.352 -0.027,-0.121 0.363,-0.453 0.867,-0.734 1.102,-0.617 2.695,-2.254 3.25,-3.344 0.223,-0.437 0.477,-0.793 0.563,-0.793 0.09,0 3.105,3.993 6.703,8.871 z"
         style="fill:#000000;fill-opacity:1;fill-rule:nonzero;stroke:none"
         id="path84"
         inkscape:connector-curvature="0" /><g
         id="g86"
         transform="matrix(1,0,0,-1,0,595.27557)"><path
           d="m 435.656,429.871 h 95.719 c 4.078,0 7.359,3.281 7.359,7.363 v 95.715 c 0,4.078 -3.281,7.364 -7.359,7.364 h -95.719 c -4.078,0 -7.359,-3.286 -7.359,-7.364 v -95.715 c 0,-4.082 3.281,-7.363 7.359,-7.363 z"
           style="fill:#ff7900;fill-opacity:1;fill-rule:nonzero;stroke:#000000;stroke-width:2.945086;stroke-linecap:round;stroke-linejoin:round;stroke-miterlimit:4;stroke-dasharray:none;stroke-opacity:1"
           id="path88"
           inkscape:connector-curvature="0" /></g><text
         transform="scale(1,-1)"
         style="font-variant:normal;font-weight:normal;font-size:11.63636112px;font-family:Arial;-inkscape-font-specification:Arial;writing-mode:lr-tb;fill:#000000;fill-opacity:1;fill-rule:nonzero;stroke:none"
         id="text92"
         x="454.37637"
         y="-62.635212"><tspan
           sodipodi:role="line"
           id="tspan90"
           x="454.37637"
           y="-62.635212">COMPASS</tspan></text>
<path
         d="m 480.273,76.533 c -7.839,0.672 -15.488,3.743 -21.625,8.676 -1.781,1.434 -4.496,4.133 -5.847,5.82 -4.602,5.739 -7.387,12.172 -8.481,19.594 -0.3,2.039 -0.347,8.274 -0.074,10.168 1.016,7.047 3.473,13.235 7.32,18.418 6.582,8.879 15.618,14.266 26.672,15.914 2.532,0.375 8.41,0.336 11.039,-0.074 10.434,-1.625 19.586,-7.086 25.832,-15.41 3.059,-4.074 5.418,-8.981 6.653,-13.824 0.894,-3.512 1.207,-6.118 1.203,-10.039 -0.004,-4.09 -0.418,-7.043 -1.543,-10.954 -3.805,-13.214 -14.707,-23.761 -28.067,-27.148 -4.093,-1.039 -9.148,-1.48 -13.082,-1.141 z m 1.965,6.188 c 0.067,3.363 0.086,3.574 0.348,3.836 0.156,0.152 0.496,0.312 0.762,0.355 0.406,0.067 0.554,0.016 0.941,-0.332 l 0.457,-0.41 0.043,-3.535 0.039,-3.535 h 0.746 c 1.129,0 3.18,0.25 5.129,0.629 14.274,2.761 25.789,14.066 28.879,28.34 0.418,1.933 0.758,4.484 0.758,5.679 v 0.875 h -3.301 c -2.066,0 -3.465,0.055 -3.734,0.149 -0.805,0.281 -1.071,1.32 -0.5,1.98 l 0.324,0.379 3.574,0.07 3.57,0.067 -0.023,1.422 c -0.012,0.785 -0.148,2.218 -0.309,3.187 -1.871,11.465 -8.953,21.301 -19.261,26.754 -4.571,2.418 -10.047,3.938 -14.848,4.125 l -0.949,0.035 -0.067,-3.547 c -0.066,-3.527 -0.07,-3.55 -0.398,-3.898 -0.25,-0.27 -0.457,-0.348 -0.879,-0.348 -0.305,0.004 -0.652,0.082 -0.769,0.172 -0.489,0.375 -0.532,0.707 -0.532,4.16 0,2.785 -0.031,3.414 -0.187,3.477 -0.274,0.105 -3.047,-0.176 -4.969,-0.5 -3.473,-0.59 -6.426,-1.57 -9.961,-3.305 -10.152,-4.98 -17.457,-14.398 -19.773,-25.504 -0.403,-1.929 -0.629,-3.664 -0.668,-5.144 l -0.032,-1.086 3.594,-0.074 c 1.973,-0.04 3.606,-0.086 3.621,-0.102 0.7,-0.691 0.789,-1.398 0.254,-2.02 l -0.328,-0.382 -3.57,-0.067 -3.571,-0.066 0.032,-1.02 c 0.097,-3.148 0.949,-7.129 2.273,-10.648 3.688,-9.801 11.453,-17.621 21.266,-21.414 3.465,-1.336 8.34,-2.375 10.937,-2.328 l 1.016,0.019 z m -21.465,10.398 c -0.425,0.395 -0.558,0.856 -0.382,1.305 0.07,0.184 4.054,5.652 8.851,12.156 4.801,6.5 9.016,12.219 9.367,12.711 0.399,0.555 0.985,1.141 1.539,1.539 0.493,0.352 6.215,4.567 12.715,9.364 6.5,4.8 11.961,8.785 12.141,8.851 0.437,0.172 1.152,-0.074 1.426,-0.492 0.285,-0.434 0.273,-0.992 -0.039,-1.488 -0.137,-0.227 -4.102,-5.625 -8.809,-12 -4.707,-6.379 -8.848,-11.993 -9.203,-12.477 -0.363,-0.492 -1.035,-1.164 -1.527,-1.527 -0.489,-0.356 -6.102,-4.5 -12.477,-9.203 -6.375,-4.707 -11.777,-8.672 -12,-8.809 -0.566,-0.352 -1.172,-0.324 -1.602,0.07 z m 14.18,12.395 c 3.485,2.57 6.336,4.723 6.336,4.785 0,0.063 -0.254,0.246 -0.566,0.406 -0.778,0.395 -1.95,1.532 -2.387,2.321 -0.203,0.359 -0.438,0.636 -0.527,0.617 -0.18,-0.043 -9.536,-12.668 -9.536,-12.871 0,-0.188 -0.21,-0.34 6.68,4.742 z m 9.969,7.398 c 0.547,0.285 1.316,1.051 1.594,1.586 0.308,0.598 0.398,1.649 0.199,2.36 -0.215,0.765 -1.098,1.789 -1.824,2.121 -0.68,0.308 -1.938,0.328 -2.621,0.043 -0.629,-0.262 -1.461,-1.055 -1.805,-1.715 -0.344,-0.664 -0.344,-2.008 -0.004,-2.754 0.316,-0.703 1.074,-1.422 1.812,-1.727 0.7,-0.289 2.004,-0.246 2.649,0.086 z m 9.004,11.575 c 5.078,6.886 4.929,6.679 4.742,6.679 -0.199,0 -12.832,-9.359 -12.871,-9.539 -0.02,-0.086 0.258,-0.32 0.617,-0.523 0.789,-0.438 1.926,-1.61 2.32,-2.391 0.161,-0.309 0.34,-0.566 0.403,-0.566 0.062,0 2.218,2.855 4.789,6.34 z"
         style="fill:#000000;fill-opacity:1;fill-rule:nonzero;stroke:none"
         id="path94"
         inkscape:connector-curvature="0" /><g
         id="g96"
         transform="matrix(1,0,0,-1,0,595.27557)"><path
           d="m 562.957,429.871 h 95.715 c 4.078,0 7.363,3.281 7.363,7.363 v 95.715 c 0,4.078 -3.285,7.364 -7.363,7.364 h -95.715 c -4.082,0 -7.363,-3.286 -7.363,-7.364 v -95.715 c 0,-4.082 3.281,-7.363 7.363,-7.363 z"
           style="fill:#ff7900;fill-opacity:1;fill-rule:nonzero;stroke:#000000;stroke-width:2.945086;stroke-linecap:round;stroke-linejoin:round;stroke-miterlimit:4;stroke-dasharray:none;stroke-opacity:1"
           id="path98"
           inkscape:connector-curvature="0" /></g><text
         transform="scale(1,-1)"
         style="font-variant:normal;font-weight:normal;font-size:11.63636112px;font-family:Arial;-inkscape-font-specification:Arial;writing-mode:lr-tb;fill:#000000;fill-opacity:1;fill-rule:nonzero;stroke:none"
         id="text102"
         x="581.67432"
         y="-62.635212"><tspan
           sodipodi:role="line"
           id="tspan100"
           x="581.67432"
           y="-62.635212">COMPASS</tspan></text>
<path
         d="m 607.57,76.533 c -7.836,0.672 -15.488,3.743 -21.625,8.676 -1.781,1.434 -4.492,4.133 -5.847,5.82 -4.602,5.739 -7.387,12.172 -8.481,19.594 -0.301,2.039 -0.344,8.274 -0.074,10.168 1.016,7.047 3.477,13.235 7.32,18.418 6.586,8.879 15.621,14.266 26.676,15.914 2.527,0.375 8.406,0.336 11.035,-0.074 10.434,-1.625 19.59,-7.086 25.832,-15.41 3.059,-4.074 5.422,-8.981 6.657,-13.824 0.89,-3.512 1.203,-6.118 1.203,-10.039 -0.004,-4.09 -0.422,-7.043 -1.547,-10.954 -3.805,-13.214 -14.707,-23.761 -28.063,-27.148 -4.097,-1.039 -9.152,-1.48 -13.086,-1.141 z m 1.969,6.188 c 0.063,3.363 0.082,3.574 0.344,3.836 0.156,0.152 0.496,0.312 0.762,0.355 0.406,0.067 0.554,0.016 0.941,-0.332 l 0.461,-0.41 0.039,-3.535 0.039,-3.535 h 0.746 c 1.133,0 3.184,0.25 5.129,0.629 14.273,2.761 25.789,14.066 28.879,28.34 0.418,1.933 0.758,4.484 0.758,5.679 v 0.875 h -3.301 c -2.066,0 -3.461,0.055 -3.731,0.149 -0.808,0.281 -1.07,1.32 -0.503,1.98 l 0.328,0.379 3.57,0.07 3.57,0.067 -0.019,1.422 c -0.012,0.785 -0.153,2.218 -0.313,3.187 -1.871,11.465 -8.953,21.301 -19.261,26.754 -4.571,2.418 -10.047,3.938 -14.848,4.125 l -0.949,0.035 -0.067,-3.547 c -0.066,-3.527 -0.07,-3.55 -0.394,-3.898 -0.254,-0.27 -0.461,-0.348 -0.883,-0.348 -0.305,0.004 -0.648,0.082 -0.77,0.172 -0.488,0.375 -0.527,0.707 -0.527,4.16 0,2.785 -0.035,3.414 -0.191,3.477 -0.274,0.105 -3.047,-0.176 -4.965,-0.5 -3.477,-0.59 -6.426,-1.57 -9.965,-3.305 -10.152,-4.98 -17.457,-14.398 -19.773,-25.504 -0.403,-1.929 -0.625,-3.664 -0.668,-5.144 l -0.032,-1.086 3.594,-0.074 c 1.977,-0.04 3.606,-0.086 3.621,-0.102 0.699,-0.691 0.789,-1.398 0.254,-2.02 l -0.328,-0.382 -3.57,-0.067 -3.571,-0.066 0.032,-1.02 c 0.097,-3.148 0.949,-7.129 2.273,-10.648 3.688,-9.801 11.457,-17.621 21.266,-21.414 3.464,-1.336 8.339,-2.375 10.937,-2.328 l 1.016,0.019 z M 588.07,93.119 c -0.422,0.395 -0.558,0.856 -0.382,1.305 0.07,0.184 4.054,5.652 8.855,12.156 4.797,6.5 9.012,12.219 9.367,12.711 0.395,0.555 0.985,1.141 1.535,1.539 0.493,0.352 6.215,4.567 12.715,9.364 6.5,4.8 11.965,8.785 12.141,8.851 0.441,0.172 1.156,-0.074 1.429,-0.492 0.286,-0.434 0.27,-0.992 -0.039,-1.488 -0.14,-0.227 -4.105,-5.625 -8.812,-12 -4.703,-6.379 -8.848,-11.993 -9.203,-12.477 -0.363,-0.492 -1.035,-1.164 -1.528,-1.527 -0.484,-0.356 -6.097,-4.5 -12.476,-9.203 -6.375,-4.707 -11.774,-8.672 -12,-8.809 -0.563,-0.352 -1.172,-0.324 -1.602,0.07 z m 14.18,12.395 c 3.484,2.57 6.34,4.723 6.34,4.785 0,0.063 -0.258,0.246 -0.567,0.406 -0.781,0.395 -1.949,1.532 -2.39,2.321 -0.203,0.359 -0.438,0.636 -0.528,0.617 -0.179,-0.043 -9.535,-12.668 -9.535,-12.871 0,-0.188 -0.211,-0.34 6.68,4.742 z m 9.969,7.398 c 0.547,0.285 1.316,1.051 1.594,1.586 0.312,0.598 0.398,1.649 0.199,2.36 -0.215,0.765 -1.094,1.789 -1.824,2.121 -0.68,0.308 -1.938,0.328 -2.622,0.043 -0.628,-0.262 -1.461,-1.055 -1.804,-1.715 -0.34,-0.664 -0.344,-2.008 -0.004,-2.754 0.316,-0.703 1.078,-1.422 1.812,-1.727 0.7,-0.289 2.004,-0.246 2.649,0.086 z m 9.004,11.575 c 5.078,6.886 4.929,6.679 4.742,6.679 -0.199,0 -12.828,-9.359 -12.871,-9.539 -0.02,-0.086 0.258,-0.32 0.617,-0.523 0.789,-0.438 1.926,-1.61 2.324,-2.391 0.156,-0.309 0.34,-0.566 0.403,-0.566 0.062,0 2.214,2.855 4.785,6.34 z"
         style="fill:#000000;fill-opacity:1;fill-rule:nonzero;stroke:none"
         id="path104"
         inkscape:connector-curvature="0" /></g></g></svg>