<?xml version="1.0" encoding="UTF-8" standalone="no"?>
<!-- Created with Inkscape (http://www.inkscape.org/) -->

<svg
   xmlns:dc="http://purl.org/dc/elements/1.1/"
   xmlns:cc="http://creativecommons.org/ns#"
   xmlns:rdf="http://www.w3.org/1999/02/22-rdf-syntax-ns#"
   xmlns:svg="http://www.w3.org/2000/svg"
   xmlns="http://www.w3.org/2000/svg"
   xmlns:sodipodi="http://sodipodi.sourceforge.net/DTD/sodipodi-0.dtd"
   xmlns:inkscape="http://www.inkscape.org/namespaces/inkscape"
   version="1.1"
   id="svg2"
   xml:space="preserve"
   width="1122.5197"
   height="793.70074"
   viewBox="0 0 1122.5197 793.70074"
   sodipodi:docname="Igloo.svg"
   inkscape:version="0.92.2 5c3e80d, 2017-08-06"><metadata
     id="metadata8"><rdf:RDF><cc:Work
         rdf:about=""><dc:format>image/svg+xml</dc:format><dc:type
           rdf:resource="http://purl.org/dc/dcmitype/StillImage" /><dc:title></dc:title></cc:Work></rdf:RDF></metadata><defs
     id="defs6" /><sodipodi:namedview
     pagecolor="#ffffff"
     bordercolor="#666666"
     borderopacity="1"
     objecttolerance="10"
     gridtolerance="10"
     guidetolerance="10"
     inkscape:pageopacity="0"
     inkscape:pageshadow="2"
     inkscape:window-width="640"
     inkscape:window-height="480"
     id="namedview4"
     showgrid="false"
     inkscape:zoom="0.29734129"
     inkscape:cx="561.25983"
     inkscape:cy="396.85037"
     inkscape:window-x="52"
     inkscape:window-y="0"
     inkscape:window-maximized="0"
     inkscape:current-layer="g10" /><g
     id="g10"
     inkscape:groupmode="layer"
     inkscape:label="Igloo"
     transform="matrix(1.3333333,0,0,-1.3333333,0,793.70077)"><g
       id="g12"><g
         id="g14"
         transform="matrix(1,0,0,-1,0,595.27557)"><path
           d="m 49.645,24.934 h 335.003 c 14.274,0 25.77,11.492 25.77,25.769 v 335.004 c 0,14.277 -11.496,25.77 -25.77,25.77 H 49.645 c -14.278,0 -25.77,-11.493 -25.77,-25.77 V 50.703 c 0,-14.277 11.492,-25.769 25.77,-25.769 z"
           style="fill:#ffd200;fill-opacity:1;fill-rule:nonzero;stroke:#000000;stroke-width:10.30780315;stroke-linecap:round;stroke-linejoin:round;stroke-miterlimit:4;stroke-dasharray:none;stroke-opacity:1"
           id="path16"
           inkscape:connector-curvature="0" /></g><text
         transform="matrix(1,0,0,-1,151.81884,210.64554)"
         style="font-variant:normal;font-weight:normal;font-size:40.72727585px;font-family:Arial;-inkscape-font-specification:Arial;writing-mode:lr-tb;fill:#000000;fill-opacity:1;fill-rule:nonzero;stroke:none"
         id="text20"><tspan
           x="0 11.281455 42.926548 65.570915 97.216003"
           y="0"
           sodipodi:role="line"
           id="tspan18">IGLOO</tspan></text>
<g
         id="g22"
         transform="matrix(1,0,0,-1,0,595.27557)"><path
           d="m 152.777,283.328 c -10.941,-0.82 -16.117,-1.351 -23.441,-2.39 -11.27,-1.602 -40.359,-7.426 -47.617,-9.536 -9.535,-2.769 -18.903,-6.863 -22.422,-9.808 l -1.563,-1.305 2.227,-14.379 c 4.582,-29.594 8.387,-46.687 14.34,-64.43 6.262,-18.66 13.043,-30.167 24.578,-41.695 9.68,-9.676 20.203,-16.832 36.016,-24.496 19.859,-9.629 36.175,-13.969 52.523,-13.969 11.359,0 20.84,1.637 29.555,5.11 5.73,2.281 8.621,4.019 16.336,9.832 5.082,3.828 8.093,5.66 13.953,8.488 10.332,4.984 13.531,7.203 24.265,16.82 15.317,13.723 30.043,33.25 38.434,50.961 1.238,2.61 2.488,4.907 2.777,5.102 0.789,0.527 11.965,0.437 18.93,-0.156 5.266,-0.446 6.711,-0.407 10.297,0.296 5.375,1.051 9.051,2.543 12.785,5.196 12.402,8.808 19.258,27.117 21.617,57.742 0.66,8.539 0.817,8.234 -5.242,10.117 -4.543,1.41 -9.437,1.656 -11.012,0.559 -1.879,-1.309 -12.859,-2.532 -25.097,-2.797 l -5.797,-0.125 -0.145,3.586 c -0.082,1.972 -0.359,3.844 -0.621,4.156 -0.758,0.906 -7.324,1.602 -15.43,1.629 -4.121,0.012 -17.5,-0.188 -29.73,-0.445 -18.082,-0.379 -23.363,-0.344 -28.277,0.195 -6.688,0.734 -9.68,0.441 -12.368,-1.211 -1.394,-0.859 -2.421,-0.996 -7.554,-1.02 -6.336,-0.027 -10.805,0.633 -20.199,2.973 -16.075,4.012 -22.93,4.785 -44.473,5.016 -8.375,0.094 -16.313,0.086 -17.645,-0.016 z m 34.325,-3.117 c 10.203,-0.824 16.675,-1.863 26.828,-4.301 11.379,-2.734 15.093,-3.336 20.664,-3.347 2.191,-0.004 3.988,-0.063 3.988,-0.129 0,-0.067 -0.422,-1.219 -0.934,-2.559 -1.394,-3.648 -2.113,-9.871 -1.746,-15.117 0.469,-6.731 2.563,-21.828 3.602,-25.977 3.211,-12.816 10.113,-22.566 19.062,-26.933 6.711,-3.274 8.223,-3.457 30.289,-3.703 10.766,-0.122 19.739,-0.375 19.938,-0.567 0.449,-0.43 -2.656,-6.89 -6.266,-13.027 -7.91,-13.473 -17.453,-25.367 -30.918,-38.547 -11.875,-11.625 -15.562,-14.363 -24.695,-18.32 -6.785,-2.942 -9.84,-4.739 -17.652,-10.395 -7.199,-5.211 -10,-6.793 -15.36,-8.66 -27.402,-9.555 -62.597,-2.563 -95.687,19.012 -25.977,16.937 -37.035,34.593 -47.637,76.05 -2.726,10.668 -4.57,20.09 -6.699,34.231 -3.043,20.23 -3.027,20.019 -1.91,21.531 3.398,4.61 23.687,11.176 48.511,15.699 8.09,1.473 25.047,3.922 32.149,4.645 13.269,1.348 30.894,1.512 44.473,0.414 z m 9.695,-12.715 c -1.453,-3.461 -4.07,-12.144 -4.777,-15.867 -1.446,-7.574 -1.387,-8.691 0.453,-8.336 0.672,0.129 1.004,0.789 1.293,2.57 0.875,5.418 2.496,11.84 4.234,16.758 1.012,2.871 1.727,5.524 1.582,5.891 -0.5,1.297 -2.051,0.734 -2.785,-1.016 z m -92.785,-4.953 c -0.649,-1.047 -1.778,-9.699 -2.453,-18.848 -0.403,-5.425 -0.875,-11.211 -1.047,-12.859 -0.274,-2.602 -0.203,-3.035 0.547,-3.324 1.886,-0.719 2.179,0.64 3.136,14.738 0.282,4.102 0.864,9.836 1.297,12.746 1.09,7.344 1.086,7.668 -0.16,7.844 -0.574,0.082 -1.168,-0.051 -1.32,-0.297 z m 91.304,-26.547 c -20.062,-0.586 -31.812,-1.766 -50.648,-5.098 -16.063,-2.839 -28.992,-6.093 -35.773,-9.007 -2.715,-1.168 -8.008,-3.453 -11.758,-5.078 -4.461,-1.938 -8.469,-3.301 -11.602,-3.954 -6.957,-1.445 -7.199,-1.531 -7.199,-2.605 0,-1.359 2.199,-1.453 7.09,-0.293 3.953,0.937 8.836,2.859 19.574,7.711 8.047,3.629 18.52,6.426 35.938,9.594 20.277,3.687 33.625,5.175 52.445,5.839 7.18,0.254 15.555,0.598 18.613,0.762 6.652,0.36 15.352,-0.383 20.211,-1.722 1.941,-0.54 3.738,-0.852 3.988,-0.7 0.895,0.551 0.426,2.004 -0.828,2.575 -4.84,2.191 -15.152,2.703 -40.051,1.976 z m -52.277,-18.164 c -0.305,-0.195 -0.695,-1.543 -0.863,-2.996 -0.602,-5.16 -1.074,-17.606 -0.797,-20.926 0.262,-3.14 0.359,-3.367 1.426,-3.367 h 1.148 l 0.254,9.379 c 0.504,18.586 0.481,18.957 -1.168,17.91 z m 99.066,-10.312 c -0.269,-0.344 -0.64,-1.598 -0.824,-2.786 -0.183,-1.191 -1.531,-5.711 -3,-10.046 -2.656,-7.86 -2.773,-9.004 -0.886,-8.637 1.511,0.293 7.328,17.738 6.902,20.699 -0.18,1.25 -1.453,1.699 -2.192,0.77 z m -78.746,-24.653 c -22.046,-2.289 -46.371,-8.84 -67.046,-18.051 -2.442,-1.089 -3.239,-2.113 -2.344,-3.007 0.66,-0.657 1.484,-0.395 10.23,3.234 16.653,6.918 35.016,11.824 54.137,14.461 7.477,1.031 29.187,1.461 37.949,0.75 19.945,-1.617 36.508,-4.957 51.965,-10.481 6.477,-2.312 18.012,-7.648 22.813,-10.55 2.914,-1.762 4.105,-1.836 4.625,-0.285 0.253,0.753 -4.09,3.441 -11.407,7.054 -17.043,8.426 -36.043,13.629 -59.781,16.379 -9.359,1.082 -32.762,1.363 -41.141,0.496 z m 62.016,-16.492 c -0.922,-1.523 -2.59,-4.93 -3.703,-7.578 -2.297,-5.445 -4.442,-9.465 -6.117,-11.457 -1.317,-1.567 -1.477,-2.981 -0.387,-3.399 1.641,-0.625 5.035,4.661 9.348,14.567 1.082,2.484 2.644,5.566 3.476,6.855 1.586,2.457 1.586,3.778 0.008,3.778 -0.637,0 -1.5,-0.907 -2.625,-2.766 z m -99.582,-4.09 c -0.793,-0.578 -0.773,-0.937 0.406,-6.379 2.801,-12.926 4.156,-17.07 5.574,-17.07 1.477,0 1.512,0.75 0.247,5.098 -0.668,2.293 -1.883,7.226 -2.704,10.961 -1.597,7.289 -2.132,8.406 -3.523,7.39 z m 48.98,-19.664 c -9.996,-1.023 -20.601,-3.457 -30.367,-6.969 -6.898,-2.484 -15.711,-6.48 -16.269,-7.375 -0.207,-0.336 -0.047,-0.914 0.367,-1.324 0.656,-0.652 1.262,-0.488 5.711,1.539 23.734,10.828 47.789,14.324 69.078,10.047 8.719,-1.754 18.887,-6.051 27.031,-11.426 3.117,-2.054 4.223,-2.562 4.715,-2.156 1.238,1.023 0.602,1.82 -3.805,4.754 -15.796,10.516 -35.589,15.039 -56.461,12.91 z m 0.098,-6.519 c -0.687,-1.325 0.27,-7.942 1.867,-12.911 2.2,-6.847 7.008,-13.933 9.227,-13.609 1.715,0.25 1.535,1.004 -0.981,4.125 -4.043,5.012 -6.265,10.691 -7.48,19.113 -0.426,2.942 -0.746,3.879 -1.367,3.996 -0.449,0.086 -1.02,-0.238 -1.266,-0.714 z m 148.547,138.925 2.898,-0.308 0.313,-12.028 c 0.535,-20.554 3.008,-32.699 8.031,-39.48 3.551,-4.793 9.699,-4.746 15.125,0.113 6.043,5.414 8.723,14.039 9.688,31.192 0.539,9.511 0.988,11.964 2.5,13.589 1.254,1.344 2.746,1.336 7.847,-0.042 l 3.868,-1.047 -0.102,-5.625 c -0.184,-10.157 -2.395,-23.84 -5.313,-32.848 -5.011,-15.48 -12.96,-24.629 -23.828,-27.422 -3.769,-0.969 -10.937,-1.082 -14.566,-0.23 -15.52,3.644 -24.59,20.707 -24.59,46.254 0,11.808 2.613,26.32 5.027,27.925 0.633,0.422 8.997,0.391 13.102,-0.043 z m -17.172,-0.414 c -0.008,-0.207 -0.644,-2.39 -1.426,-4.851 -2.156,-6.797 -2.586,-10.891 -2.297,-21.891 0.551,-21.031 5.684,-35.539 15.426,-43.617 1.754,-1.457 3.125,-2.754 3.047,-2.887 -0.082,-0.133 -11.531,-0.23 -25.449,-0.215 -28.555,0.028 -28.844,0.055 -36.125,3.629 -13.141,6.446 -18.988,20.875 -20.164,49.735 -0.453,11.093 1.293,17.246 5.472,19.304 1.715,0.84 3.665,0.907 31.676,1.035 16.418,0.075 29.844,-0.035 29.84,-0.242 z m -39.488,-4.566 c -1.137,-1.426 -1.047,-20.887 0.144,-31.516 l 0.336,-2.996 -11.793,-0.129 -11.789,-0.129 -0.152,-1.082 c -0.086,-0.597 -0.086,-1.129 0,-1.183 0.082,-0.055 5.566,-0.215 12.184,-0.36 10.015,-0.218 12.101,-0.382 12.421,-0.984 0.215,-0.395 0.852,-2.234 1.422,-4.086 3.594,-11.719 11.246,-19.934 20.918,-22.457 1.938,-0.504 2.391,-0.496 2.735,0.059 0.714,1.144 0.019,1.879 -2.559,2.707 -10.293,3.3 -17.242,12.457 -20.094,26.461 -1.445,7.105 -2.09,16.152 -1.906,26.648 0.148,8.27 0.078,9.387 -0.602,9.52 -0.421,0.082 -0.992,-0.129 -1.265,-0.473 z m 10.418,-33.445 c -4.008,-0.176 -5.414,-0.918 -4.293,-2.266 0.488,-0.586 2.019,-0.652 9.422,-0.406 6.199,0.203 9.527,0.117 11.152,-0.289 1.961,-0.493 2.43,-0.469 3.047,0.14 0.582,0.582 0.605,0.867 0.133,1.438 -1.305,1.562 -6.703,1.945 -19.461,1.383 z"
           style="fill:#000000;fill-opacity:1;fill-rule:nonzero;stroke:#000000;stroke-width:6.3959918;stroke-linecap:butt;stroke-linejoin:miter;stroke-miterlimit:4;stroke-dasharray:none;stroke-opacity:1"
           id="path24"
           inkscape:connector-curvature="0" /></g><g
         id="g26"
         transform="matrix(1,0,0,-1,0,595.27557)"><path
           d="M 457.746,24.934 H 792.75 c 14.277,0 25.77,11.492 25.77,25.769 v 335.004 c 0,14.277 -11.493,25.77 -25.77,25.77 H 457.746 c -14.277,0 -25.769,-11.493 -25.769,-25.77 V 50.703 c 0,-14.277 11.492,-25.769 25.769,-25.769 z"
           style="fill:#ffd200;fill-opacity:1;fill-rule:nonzero;stroke:#000000;stroke-width:10.30780315;stroke-linecap:round;stroke-linejoin:round;stroke-miterlimit:4;stroke-dasharray:none;stroke-opacity:1"
           id="path28"
           inkscape:connector-curvature="0" /></g><text
         transform="matrix(1,0,0,-1,559.92116,210.64554)"
         style="font-variant:normal;font-weight:normal;font-size:40.72727585px;font-family:Arial;-inkscape-font-specification:Arial;writing-mode:lr-tb;fill:#000000;fill-opacity:1;fill-rule:nonzero;stroke:none"
         id="text32"><tspan
           x="0 11.281455 42.926548 65.570915 97.216003"
           y="0"
           sodipodi:role="line"
           id="tspan30">IGLOO</tspan></text>
<g
         id="g34"
         transform="matrix(1,0,0,-1,0,595.27557)"><path
           d="m 560.883,283.328 c -10.942,-0.82 -16.121,-1.351 -23.445,-2.39 -11.27,-1.602 -40.356,-7.426 -47.614,-9.536 -9.539,-2.769 -18.906,-6.863 -22.426,-9.808 l -1.562,-1.305 2.227,-14.379 c 4.582,-29.594 8.386,-46.687 14.339,-64.43 6.262,-18.66 13.043,-30.167 24.582,-41.695 9.676,-9.676 20.2,-16.832 36.012,-24.496 19.859,-9.629 36.176,-13.969 52.524,-13.969 11.359,0 20.839,1.637 29.554,5.11 5.731,2.281 8.625,4.019 16.336,9.832 5.082,3.828 8.094,5.66 13.953,8.488 10.332,4.984 13.532,7.203 24.266,16.82 15.316,13.723 30.043,33.25 38.434,50.961 1.238,2.61 2.488,4.907 2.777,5.102 0.789,0.527 11.965,0.437 18.93,-0.156 5.265,-0.446 6.714,-0.407 10.296,0.296 5.375,1.051 9.051,2.543 12.786,5.196 12.402,8.808 19.257,27.117 21.617,57.742 0.66,8.539 0.816,8.234 -5.242,10.117 -4.543,1.41 -9.438,1.656 -11.012,0.559 -1.875,-1.309 -12.856,-2.532 -25.094,-2.797 l -5.801,-0.125 -0.144,3.586 c -0.078,1.972 -0.36,3.844 -0.621,4.156 -0.758,0.906 -7.325,1.602 -15.43,1.629 -4.121,0.012 -17.5,-0.188 -29.727,-0.445 -18.085,-0.379 -23.367,-0.344 -28.281,0.195 -6.687,0.734 -9.679,0.441 -12.367,-1.211 -1.395,-0.859 -2.422,-0.996 -7.555,-1.02 -6.336,-0.027 -10.804,0.633 -20.199,2.973 -16.074,4.012 -22.93,4.785 -44.473,5.016 -8.375,0.094 -16.312,0.086 -17.64,-0.016 z m 34.32,-3.117 c 10.203,-0.824 16.676,-1.863 26.828,-4.301 11.383,-2.734 15.098,-3.336 20.664,-3.347 2.192,-0.004 3.989,-0.063 3.989,-0.129 0,-0.067 -0.422,-1.219 -0.934,-2.559 -1.391,-3.648 -2.113,-9.871 -1.746,-15.117 0.469,-6.731 2.562,-21.828 3.601,-25.977 3.215,-12.816 10.114,-22.566 19.063,-26.933 6.715,-3.274 8.223,-3.457 30.289,-3.703 10.766,-0.122 19.738,-0.375 19.938,-0.567 0.449,-0.43 -2.657,-6.89 -6.262,-13.027 -7.914,-13.473 -17.457,-25.367 -30.922,-38.547 -11.875,-11.625 -15.563,-14.363 -24.695,-18.32 -6.782,-2.942 -9.84,-4.739 -17.653,-10.395 -7.195,-5.211 -10,-6.793 -15.359,-8.66 -27.399,-9.555 -62.598,-2.563 -95.684,19.012 -25.976,16.937 -37.039,34.593 -47.64,76.05 -2.727,10.668 -4.571,20.09 -6.7,34.231 -3.042,20.23 -3.023,20.019 -1.91,21.531 3.403,4.61 23.688,11.176 48.516,15.699 8.086,1.473 25.047,3.922 32.144,4.645 13.27,1.348 30.899,1.512 44.473,0.414 z m 9.695,-12.715 c -1.453,-3.461 -4.07,-12.144 -4.777,-15.867 -1.445,-7.574 -1.383,-8.691 0.453,-8.336 0.672,0.129 1.004,0.789 1.293,2.57 0.875,5.418 2.5,11.84 4.235,16.758 1.011,2.871 1.726,5.524 1.582,5.891 -0.5,1.297 -2.051,0.734 -2.786,-1.016 z m -92.785,-4.953 c -0.648,-1.047 -1.777,-9.699 -2.453,-18.848 -0.402,-5.425 -0.871,-11.211 -1.047,-12.859 -0.273,-2.602 -0.203,-3.035 0.547,-3.324 1.891,-0.719 2.18,0.64 3.137,14.738 0.281,4.102 0.863,9.836 1.297,12.746 1.09,7.344 1.086,7.668 -0.16,7.844 -0.575,0.082 -1.168,-0.051 -1.321,-0.297 z m 91.305,-26.547 c -20.063,-0.586 -31.813,-1.766 -50.645,-5.098 -16.066,-2.839 -28.996,-6.093 -35.777,-9.007 -2.715,-1.168 -8.004,-3.453 -11.758,-5.078 -4.461,-1.938 -8.468,-3.301 -11.601,-3.954 -6.957,-1.445 -7.199,-1.531 -7.199,-2.605 0,-1.359 2.199,-1.453 7.089,-0.293 3.957,0.937 8.836,2.859 19.575,7.711 8.046,3.629 18.519,6.426 35.937,9.594 20.277,3.687 33.625,5.175 52.445,5.839 7.18,0.254 15.555,0.598 18.614,0.762 6.656,0.36 15.351,-0.383 20.211,-1.722 1.945,-0.54 3.738,-0.852 3.988,-0.7 0.894,0.551 0.43,2.004 -0.828,2.575 -4.836,2.191 -15.153,2.703 -40.051,1.976 z m -52.277,-18.164 c -0.305,-0.195 -0.692,-1.543 -0.864,-2.996 -0.601,-5.16 -1.074,-17.606 -0.797,-20.926 0.266,-3.14 0.36,-3.367 1.43,-3.367 h 1.145 l 0.254,9.379 c 0.504,18.586 0.48,18.957 -1.168,17.91 z m 99.07,-10.312 c -0.273,-0.344 -0.645,-1.598 -0.828,-2.786 -0.184,-1.191 -1.531,-5.711 -2.996,-10.046 -2.66,-7.86 -2.778,-9.004 -0.891,-8.637 1.512,0.293 7.328,17.738 6.902,20.699 -0.179,1.25 -1.453,1.699 -2.187,0.77 z m -78.75,-24.653 c -22.047,-2.289 -46.371,-8.84 -67.043,-18.051 -2.441,-1.089 -3.242,-2.113 -2.344,-3.007 0.66,-0.657 1.481,-0.395 10.227,3.234 16.656,6.918 35.015,11.824 54.14,14.461 7.473,1.031 29.184,1.461 37.946,0.75 19.945,-1.617 36.508,-4.957 51.965,-10.481 6.48,-2.312 18.011,-7.648 22.812,-10.55 2.914,-1.762 4.106,-1.836 4.625,-0.285 0.254,0.753 -4.09,3.441 -11.406,7.054 -17.043,8.426 -36.043,13.629 -59.778,16.379 -9.363,1.082 -32.765,1.363 -41.144,0.496 z m 62.016,-16.492 c -0.922,-1.523 -2.59,-4.93 -3.704,-7.578 -2.296,-5.445 -4.441,-9.465 -6.117,-11.457 -1.316,-1.567 -1.476,-2.981 -0.386,-3.399 1.64,-0.625 5.035,4.661 9.347,14.567 1.082,2.484 2.649,5.566 3.477,6.855 1.586,2.457 1.586,3.778 0.008,3.778 -0.637,0 -1.497,-0.907 -2.625,-2.766 z m -99.582,-4.09 c -0.793,-0.578 -0.77,-0.937 0.406,-6.379 2.801,-12.926 4.156,-17.07 5.578,-17.07 1.473,0 1.512,0.75 0.242,5.098 -0.668,2.293 -1.883,7.226 -2.703,10.961 -1.598,7.289 -2.129,8.406 -3.523,7.39 z m 48.98,-19.664 c -9.996,-1.023 -20.602,-3.457 -30.367,-6.969 -6.899,-2.484 -15.711,-6.48 -16.266,-7.375 -0.207,-0.336 -0.047,-0.914 0.363,-1.324 0.657,-0.652 1.262,-0.488 5.711,1.539 23.739,10.828 47.793,14.324 69.079,10.047 8.718,-1.754 18.886,-6.051 27.031,-11.426 3.117,-2.054 4.222,-2.562 4.715,-2.156 1.242,1.023 0.605,1.82 -3.805,4.754 -15.797,10.516 -35.586,15.039 -56.461,12.91 z m 0.098,-6.519 c -0.688,-1.325 0.269,-7.942 1.867,-12.911 2.203,-6.847 7.008,-13.933 9.226,-13.609 1.715,0.25 1.536,1.004 -0.98,4.125 -4.043,5.012 -6.266,10.691 -7.481,19.113 -0.425,2.942 -0.746,3.879 -1.367,3.996 -0.449,0.086 -1.019,-0.238 -1.265,-0.714 z m 148.547,138.925 2.898,-0.308 0.312,-12.028 c 0.54,-20.554 3.008,-32.699 8.032,-39.48 3.551,-4.793 9.699,-4.746 15.125,0.113 6.043,5.414 8.722,14.039 9.691,31.192 0.535,9.511 0.985,11.964 2.496,13.589 1.254,1.344 2.746,1.336 7.852,-0.042 l 3.867,-1.047 -0.105,-5.625 c -0.184,-10.157 -2.395,-23.84 -5.313,-32.848 -5.012,-15.48 -12.961,-24.629 -23.828,-27.422 -3.77,-0.969 -10.938,-1.082 -14.563,-0.23 -15.519,3.644 -24.593,20.707 -24.593,46.254 0,11.808 2.613,26.32 5.027,27.925 0.633,0.422 8.996,0.391 13.102,-0.043 z m -17.172,-0.414 c -0.004,-0.207 -0.645,-2.39 -1.426,-4.851 -2.156,-6.797 -2.586,-10.891 -2.297,-21.891 0.551,-21.031 5.684,-35.539 15.426,-43.617 1.754,-1.457 3.125,-2.754 3.047,-2.887 -0.082,-0.133 -11.532,-0.23 -25.45,-0.215 -28.554,0.028 -28.843,0.055 -36.121,3.629 -13.14,6.446 -18.992,20.875 -20.168,49.735 -0.453,11.093 1.293,17.246 5.473,19.304 1.715,0.84 3.664,0.907 31.676,1.035 16.418,0.075 29.847,-0.035 29.84,-0.242 z m -39.489,-4.566 c -1.136,-1.426 -1.046,-20.887 0.145,-31.516 l 0.336,-2.996 -11.789,-0.129 -11.793,-0.129 -0.153,-1.082 c -0.085,-0.597 -0.085,-1.129 0,-1.183 0.083,-0.055 5.567,-0.215 12.188,-0.36 10.012,-0.218 12.098,-0.382 12.418,-0.984 0.215,-0.395 0.855,-2.234 1.422,-4.086 3.594,-11.719 11.25,-19.934 20.922,-22.457 1.933,-0.504 2.39,-0.496 2.734,0.059 0.711,1.144 0.016,1.879 -2.562,2.707 -10.289,3.3 -17.243,12.457 -20.09,26.461 -1.446,7.105 -2.094,16.152 -1.907,26.648 0.145,8.27 0.075,9.387 -0.605,9.52 -0.422,0.082 -0.992,-0.129 -1.266,-0.473 z m 10.418,-33.445 c -4.007,-0.176 -5.414,-0.918 -4.293,-2.266 0.493,-0.586 2.024,-0.652 9.422,-0.406 6.199,0.203 9.528,0.117 11.153,-0.289 1.964,-0.493 2.429,-0.469 3.046,0.14 0.583,0.582 0.61,0.867 0.133,1.438 -1.304,1.562 -6.703,1.945 -19.461,1.383 z"
           style="fill:#000000;fill-opacity:1;fill-rule:nonzero;stroke:#000000;stroke-width:6.3959918;stroke-linecap:butt;stroke-linejoin:miter;stroke-miterlimit:4;stroke-dasharray:none;stroke-opacity:1"
           id="path36"
           inkscape:connector-curvature="0" /></g><g
         id="g38"
         transform="matrix(1,0,0,-1,0,595.27557)"><path
           d="m 31.09,430.461 h 134 c 5.711,0 10.308,4.594 10.308,10.305 V 574.77 c 0,5.71 -4.597,10.304 -10.308,10.304 h -134 c -5.711,0 -10.309,-4.594 -10.309,-10.304 V 440.766 c 0,-5.711 4.598,-10.305 10.309,-10.305 z"
           style="fill:#ffd200;fill-opacity:1;fill-rule:nonzero;stroke:#000000;stroke-width:4.12312078;stroke-linecap:round;stroke-linejoin:round;stroke-miterlimit:4;stroke-dasharray:none;stroke-opacity:1"
           id="path40"
           inkscape:connector-curvature="0" /></g><text
         transform="matrix(1,0,0,-1,71.959695,20.938061)"
         style="font-variant:normal;font-weight:normal;font-size:16.29091072px;font-family:Arial;-inkscape-font-specification:Arial;writing-mode:lr-tb;fill:#000000;fill-opacity:1;fill-rule:nonzero;stroke:none"
         id="text44"><tspan
           x="0 4.5125823 17.17062 26.228365 38.886402"
           y="0"
           sodipodi:role="line"
           id="tspan42">IGLOO</tspan></text>
<g
         id="g46"
         transform="matrix(1,0,0,-1,0,595.27557)"><path
           d="m 72.344,533.816 c -4.375,-0.328 -6.449,-0.539 -9.379,-0.957 -4.508,-0.64 -16.141,-2.968 -19.043,-3.812 -3.817,-1.109 -7.563,-2.746 -8.973,-3.922 l -0.625,-0.523 0.891,-5.75 c 1.832,-11.84 3.355,-18.676 5.738,-25.774 2.504,-7.465 5.219,-12.066 9.832,-16.68 3.871,-3.867 8.082,-6.73 14.406,-9.796 7.942,-3.852 14.469,-5.59 21.008,-5.59 4.543,0 8.336,0.656 11.821,2.047 2.293,0.91 3.449,1.605 6.535,3.929 2.035,1.535 3.238,2.266 5.582,3.399 4.133,1.992 5.414,2.879 9.707,6.726 6.125,5.489 12.015,13.301 15.375,20.383 0.492,1.047 0.992,1.965 1.109,2.043 0.317,0.211 4.785,0.176 7.57,-0.062 2.106,-0.18 2.688,-0.164 4.122,0.117 2.148,0.422 3.617,1.019 5.113,2.078 4.961,3.523 7.703,10.848 8.644,23.098 0.266,3.418 0.328,3.293 -2.093,4.046 -1.821,0.563 -3.778,0.664 -4.407,0.223 -0.75,-0.523 -5.144,-1.012 -10.039,-1.117 l -2.32,-0.051 -0.059,1.434 c -0.031,0.789 -0.14,1.539 -0.246,1.664 -0.3,0.363 -2.929,0.64 -6.172,0.652 -1.648,0.004 -7,-0.074 -11.89,-0.18 -7.235,-0.152 -9.348,-0.136 -11.313,0.079 -2.675,0.293 -3.871,0.175 -4.945,-0.485 -0.559,-0.344 -0.969,-0.398 -3.023,-0.406 -2.536,-0.012 -4.321,0.25 -8.079,1.187 -6.429,1.606 -9.175,1.914 -17.789,2.008 -3.351,0.035 -6.527,0.031 -7.058,-0.008 z M 86.07,532.57 c 4.082,-0.332 6.672,-0.746 10.735,-1.718 4.55,-1.094 6.039,-1.336 8.265,-1.34 0.875,-0.004 1.594,-0.028 1.594,-0.055 0,-0.023 -0.168,-0.484 -0.371,-1.023 -0.559,-1.457 -0.848,-3.946 -0.699,-6.047 0.187,-2.692 1.023,-8.731 1.441,-10.387 1.285,-5.129 4.043,-9.027 7.625,-10.773 2.684,-1.313 3.289,-1.387 12.113,-1.485 4.309,-0.047 7.895,-0.148 7.977,-0.226 0.18,-0.172 -1.062,-2.754 -2.508,-5.211 -3.164,-5.387 -6.98,-10.145 -12.367,-15.418 -4.75,-4.653 -6.223,-5.746 -9.879,-7.328 -2.711,-1.176 -3.933,-1.895 -7.058,-4.157 -2.879,-2.086 -4,-2.718 -6.145,-3.464 -10.961,-3.825 -25.039,-1.024 -38.273,7.605 -10.391,6.773 -14.817,13.836 -19.055,30.418 -1.094,4.269 -1.828,8.035 -2.68,13.691 -1.219,8.094 -1.211,8.008 -0.765,8.614 1.359,1.843 9.476,4.472 19.406,6.281 3.234,0.59 10.019,1.57 12.859,1.855 5.309,0.543 12.356,0.606 17.785,0.168 z m 3.879,-5.086 c -0.578,-1.382 -1.625,-4.859 -1.91,-6.347 -0.578,-3.032 -0.555,-3.477 0.18,-3.336 0.269,0.054 0.402,0.316 0.519,1.031 0.352,2.168 1,4.734 1.696,6.703 0.402,1.149 0.687,2.207 0.632,2.356 -0.203,0.519 -0.82,0.293 -1.117,-0.407 z m -37.113,-1.98 c -0.258,-0.422 -0.711,-3.883 -0.981,-7.543 -0.16,-2.168 -0.347,-4.481 -0.417,-5.141 -0.11,-1.043 -0.083,-1.215 0.218,-1.328 0.754,-0.289 0.871,0.254 1.254,5.895 0.113,1.64 0.344,3.933 0.52,5.097 0.437,2.938 0.433,3.067 -0.067,3.137 -0.226,0.031 -0.465,-0.019 -0.527,-0.117 z m 36.523,-10.621 c -8.027,-0.235 -12.726,-0.707 -20.257,-2.039 -6.426,-1.133 -11.602,-2.438 -14.313,-3.602 -1.086,-0.469 -3.203,-1.383 -4.703,-2.031 -1.785,-0.773 -3.387,-1.32 -4.641,-1.582 -2.781,-0.578 -2.879,-0.613 -2.879,-1.043 0,-0.543 0.879,-0.578 2.836,-0.117 1.582,0.375 3.536,1.144 7.832,3.086 3.215,1.453 7.407,2.57 14.371,3.836 8.114,1.476 13.454,2.07 20.981,2.336 2.871,0.101 6.223,0.238 7.445,0.304 2.66,0.145 6.141,-0.152 8.082,-0.687 0.778,-0.215 1.496,-0.34 1.598,-0.281 0.355,0.222 0.172,0.804 -0.332,1.031 -1.934,0.875 -6.063,1.082 -16.02,0.789 z m -20.91,-7.266 c -0.125,-0.078 -0.277,-0.617 -0.347,-1.199 -0.239,-2.063 -0.43,-7.039 -0.317,-8.367 0.106,-1.258 0.141,-1.348 0.57,-1.348 h 0.458 l 0.101,3.75 c 0.203,7.434 0.191,7.586 -0.465,7.164 z m 39.625,-4.125 c -0.109,-0.137 -0.258,-0.637 -0.328,-1.113 -0.074,-0.477 -0.613,-2.285 -1.199,-4.02 -1.067,-3.144 -1.113,-3.601 -0.356,-3.453 0.602,0.117 2.93,7.094 2.758,8.282 -0.07,0.5 -0.578,0.675 -0.875,0.304 z m -31.5,-9.859 c -8.816,-0.918 -18.547,-3.535 -26.816,-7.223 -0.977,-0.433 -1.297,-0.844 -0.938,-1.203 0.266,-0.262 0.594,-0.156 4.09,1.297 6.664,2.766 14.008,4.726 21.656,5.785 2.989,0.41 11.676,0.582 15.18,0.297 7.977,-0.645 14.602,-1.981 20.785,-4.191 2.594,-0.926 7.207,-3.059 9.125,-4.219 1.168,-0.707 1.645,-0.735 1.852,-0.117 0.101,0.304 -1.637,1.379 -4.563,2.824 -6.816,3.367 -14.418,5.453 -23.914,6.551 -3.742,0.433 -13.105,0.546 -16.457,0.199 z m 24.809,-6.598 c -0.371,-0.609 -1.035,-1.972 -1.485,-3.031 -0.918,-2.176 -1.773,-3.785 -2.445,-4.582 -0.527,-0.629 -0.59,-1.192 -0.152,-1.359 0.656,-0.25 2.012,1.863 3.738,5.824 0.434,0.996 1.059,2.23 1.391,2.742 0.633,0.984 0.633,1.512 0,1.512 -0.254,0 -0.598,-0.364 -1.047,-1.106 z m -39.836,-1.637 c -0.317,-0.23 -0.305,-0.375 0.164,-2.55 1.121,-5.172 1.664,-6.828 2.23,-6.828 0.59,0 0.606,0.3 0.098,2.039 -0.266,0.918 -0.754,2.89 -1.082,4.382 -0.637,2.918 -0.852,3.364 -1.41,2.957 z m 19.594,-7.867 c -4,-0.406 -8.243,-1.379 -12.145,-2.785 -2.762,-0.992 -6.285,-2.59 -6.508,-2.949 -0.082,-0.133 -0.019,-0.367 0.145,-0.531 0.262,-0.262 0.504,-0.196 2.285,0.617 9.496,4.332 19.117,5.73 27.633,4.019 3.488,-0.703 7.554,-2.422 10.812,-4.57 1.246,-0.824 1.688,-1.027 1.883,-0.863 0.496,0.41 0.242,0.726 -1.519,1.902 -6.321,4.203 -14.235,6.016 -22.586,5.16 z m 0.039,-2.605 c -0.274,-0.531 0.109,-3.176 0.746,-5.164 0.883,-2.739 2.804,-5.574 3.691,-5.442 0.688,0.098 0.613,0.399 -0.39,1.649 -1.618,2.004 -2.508,4.277 -2.993,7.644 -0.171,1.176 -0.3,1.551 -0.546,1.598 -0.18,0.035 -0.407,-0.094 -0.508,-0.285 z m 59.418,55.57 1.16,-0.125 0.125,-4.808 c 0.215,-8.223 1.203,-13.079 3.215,-15.793 1.418,-1.918 3.879,-1.899 6.047,0.046 2.418,2.164 3.492,5.614 3.878,12.477 0.215,3.805 0.395,4.785 0.997,5.434 0.503,0.539 1.101,0.535 3.14,-0.016 l 1.547,-0.418 -0.039,-2.25 c -0.074,-4.063 -0.961,-9.539 -2.125,-13.141 -2.008,-6.191 -5.184,-9.851 -9.535,-10.968 -1.504,-0.387 -4.371,-0.434 -5.824,-0.094 -6.207,1.461 -9.836,8.285 -9.836,18.504 0,4.722 1.047,10.527 2.011,11.172 0.254,0.168 3.598,0.156 5.239,-0.02 z m -6.868,-0.164 c -0.003,-0.086 -0.257,-0.957 -0.57,-1.941 -0.863,-2.719 -1.035,-4.356 -0.918,-8.758 0.219,-8.41 2.274,-14.215 6.168,-17.445 0.703,-0.583 1.25,-1.102 1.219,-1.157 -0.031,-0.051 -4.613,-0.09 -10.18,-0.086 -11.422,0.012 -11.535,0.024 -14.449,1.453 -5.254,2.579 -7.594,8.348 -8.066,19.895 -0.18,4.437 0.519,6.898 2.191,7.719 0.684,0.34 1.465,0.363 12.668,0.414 6.57,0.031 11.941,-0.012 11.937,-0.094 z m -15.792,-1.828 c -0.458,-0.57 -0.422,-8.356 0.054,-12.606 l 0.133,-1.199 -4.715,-0.051 -4.715,-0.05 -0.062,-0.434 c -0.035,-0.238 -0.035,-0.453 0,-0.473 0.035,-0.023 2.226,-0.086 4.875,-0.144 4.004,-0.086 4.84,-0.152 4.969,-0.395 0.086,-0.156 0.339,-0.894 0.566,-1.632 1.441,-4.688 4.5,-7.977 8.371,-8.985 0.774,-0.203 0.953,-0.199 1.094,0.024 0.281,0.457 0.004,0.75 -1.028,1.082 -4.113,1.32 -6.894,4.984 -8.035,10.586 -0.578,2.843 -0.836,6.461 -0.761,10.66 0.058,3.304 0.031,3.754 -0.243,3.804 -0.168,0.036 -0.398,-0.05 -0.503,-0.187 z m 4.164,-13.379 c -1.602,-0.07 -2.164,-0.367 -1.715,-0.906 0.195,-0.235 0.808,-0.262 3.765,-0.16 2.481,0.082 3.813,0.046 4.465,-0.118 0.781,-0.195 0.969,-0.187 1.215,0.059 0.234,0.23 0.246,0.344 0.055,0.574 -0.52,0.625 -2.684,0.778 -7.785,0.551 z"
           style="fill:#000000;fill-opacity:1;fill-rule:nonzero;stroke:#000000;stroke-width:2.55839705;stroke-linecap:butt;stroke-linejoin:miter;stroke-miterlimit:4;stroke-dasharray:none;stroke-opacity:1"
           id="path48"
           inkscape:connector-curvature="0" /></g><g
         id="g50"
         transform="matrix(1,0,0,-1,0,595.27557)"><path
           d="m 203.852,430.461 h 134 c 5.711,0 10.308,4.594 10.308,10.305 V 574.77 c 0,5.71 -4.597,10.304 -10.308,10.304 h -134 c -5.711,0 -10.309,-4.594 -10.309,-10.304 V 440.766 c 0,-5.711 4.598,-10.305 10.309,-10.305 z"
           style="fill:#ffd200;fill-opacity:1;fill-rule:nonzero;stroke:#000000;stroke-width:4.12312078;stroke-linecap:round;stroke-linejoin:round;stroke-miterlimit:4;stroke-dasharray:none;stroke-opacity:1"
           id="path52"
           inkscape:connector-curvature="0" /></g><text
         transform="matrix(1,0,0,-1,244.72125,20.938061)"
         style="font-variant:normal;font-weight:normal;font-size:16.29091072px;font-family:Arial;-inkscape-font-specification:Arial;writing-mode:lr-tb;fill:#000000;fill-opacity:1;fill-rule:nonzero;stroke:none"
         id="text56"><tspan
           x="0 4.5125823 17.17062 26.228365 38.886402"
           y="0"
           sodipodi:role="line"
           id="tspan54">IGLOO</tspan></text>
<g
         id="g58"
         transform="matrix(1,0,0,-1,0,595.27557)"><path
           d="m 245.105,533.816 c -4.375,-0.328 -6.449,-0.539 -9.378,-0.957 -4.508,-0.64 -16.141,-2.968 -19.043,-3.812 -3.817,-1.109 -7.563,-2.746 -8.973,-3.922 l -0.625,-0.523 0.891,-5.75 c 1.832,-11.84 3.355,-18.676 5.738,-25.774 2.504,-7.465 5.215,-12.066 9.832,-16.68 3.871,-3.867 8.082,-6.73 14.402,-9.796 7.946,-3.852 14.473,-5.59 21.012,-5.59 4.543,0 8.336,0.656 11.82,2.047 2.293,0.91 3.449,1.605 6.535,3.929 2.032,1.535 3.239,2.266 5.582,3.399 4.133,1.992 5.415,2.879 9.707,6.726 6.125,5.489 12.016,13.301 15.372,20.383 0.496,1.047 0.996,1.965 1.113,2.043 0.316,0.211 4.785,0.176 7.57,-0.062 2.106,-0.18 2.688,-0.164 4.121,0.117 2.149,0.422 3.617,1.019 5.114,2.078 4.96,3.523 7.703,10.848 8.644,23.098 0.266,3.418 0.328,3.293 -2.094,4.046 -1.82,0.563 -3.777,0.664 -4.406,0.223 -0.75,-0.523 -5.144,-1.012 -10.039,-1.117 l -2.32,-0.051 -0.059,1.434 c -0.031,0.789 -0.141,1.539 -0.246,1.664 -0.305,0.363 -2.93,0.64 -6.172,0.652 -1.648,0.004 -7,-0.074 -11.89,-0.18 -7.235,-0.152 -9.348,-0.136 -11.313,0.079 -2.676,0.293 -3.871,0.175 -4.945,-0.485 -0.559,-0.344 -0.973,-0.398 -3.024,-0.406 -2.535,-0.012 -4.32,0.25 -8.078,1.187 -6.43,1.606 -9.176,1.914 -17.789,2.008 -3.351,0.035 -6.527,0.031 -7.059,-0.008 z m 13.727,-1.246 c 4.082,-0.332 6.672,-0.746 10.734,-1.718 4.551,-1.094 6.039,-1.336 8.266,-1.34 0.875,-0.004 1.594,-0.028 1.594,-0.055 0,-0.023 -0.168,-0.484 -0.371,-1.023 -0.559,-1.457 -0.848,-3.946 -0.7,-6.047 0.188,-2.692 1.024,-8.731 1.442,-10.387 1.285,-5.129 4.043,-9.027 7.621,-10.773 2.687,-1.313 3.289,-1.387 12.117,-1.485 4.309,-0.047 7.895,-0.148 7.977,-0.226 0.179,-0.172 -1.063,-2.754 -2.508,-5.211 -3.164,-5.387 -6.981,-10.145 -12.367,-15.418 -4.75,-4.653 -6.223,-5.746 -9.879,-7.328 -2.711,-1.176 -3.934,-1.895 -7.059,-4.157 -2.879,-2.086 -4,-2.718 -6.144,-3.464 -10.961,-3.825 -25.039,-1.024 -38.274,7.605 -10.39,6.773 -14.816,13.836 -19.054,30.418 -1.094,4.269 -1.832,8.035 -2.68,13.691 -1.219,8.094 -1.211,8.008 -0.766,8.614 1.36,1.843 9.477,4.472 19.407,6.281 3.234,0.59 10.019,1.57 12.855,1.855 5.309,0.543 12.359,0.606 17.789,0.168 z m 3.879,-5.086 c -0.578,-1.382 -1.625,-4.859 -1.91,-6.347 -0.578,-3.032 -0.555,-3.477 0.179,-3.336 0.27,0.054 0.403,0.316 0.52,1.031 0.352,2.168 1,4.734 1.695,6.703 0.403,1.149 0.688,2.207 0.633,2.356 -0.203,0.519 -0.824,0.293 -1.117,-0.407 z m -37.113,-1.98 c -0.258,-0.422 -0.711,-3.883 -0.981,-7.543 -0.16,-2.168 -0.347,-4.481 -0.418,-5.141 -0.109,-1.043 -0.082,-1.215 0.219,-1.328 0.754,-0.289 0.871,0.254 1.254,5.895 0.113,1.64 0.344,3.933 0.519,5.097 0.434,2.938 0.434,3.067 -0.066,3.137 -0.227,0.031 -0.465,-0.019 -0.527,-0.117 z m 36.523,-10.621 c -8.027,-0.235 -12.726,-0.707 -20.258,-2.039 -6.425,-1.133 -11.601,-2.438 -14.312,-3.602 -1.086,-0.469 -3.203,-1.383 -4.703,-2.031 -1.785,-0.773 -3.387,-1.32 -4.641,-1.582 -2.781,-0.578 -2.879,-0.613 -2.879,-1.043 0,-0.543 0.879,-0.578 2.836,-0.117 1.582,0.375 3.535,1.144 7.832,3.086 3.215,1.453 7.406,2.57 14.371,3.836 8.113,1.476 13.453,2.07 20.981,2.336 2.871,0.101 6.222,0.238 7.445,0.304 2.66,0.145 6.141,-0.152 8.082,-0.687 0.777,-0.215 1.496,-0.34 1.598,-0.281 0.355,0.222 0.172,0.804 -0.332,1.031 -1.934,0.875 -6.063,1.082 -16.02,0.789 z m -20.91,-7.266 c -0.125,-0.078 -0.277,-0.617 -0.348,-1.199 -0.238,-2.063 -0.429,-7.039 -0.316,-8.367 0.105,-1.258 0.141,-1.348 0.57,-1.348 h 0.457 l 0.102,3.75 c 0.203,7.434 0.191,7.586 -0.465,7.164 z m 39.625,-4.125 c -0.109,-0.137 -0.258,-0.637 -0.328,-1.113 -0.074,-0.477 -0.613,-2.285 -1.199,-4.02 -1.067,-3.144 -1.114,-3.601 -0.356,-3.453 0.602,0.117 2.93,7.094 2.758,8.282 -0.07,0.5 -0.578,0.675 -0.875,0.304 z m -31.5,-9.859 c -8.816,-0.918 -18.547,-3.535 -26.816,-7.223 -0.977,-0.433 -1.297,-0.844 -0.938,-1.203 0.266,-0.262 0.594,-0.156 4.09,1.297 6.664,2.766 14.008,4.726 21.656,5.785 2.988,0.41 11.676,0.582 15.18,0.297 7.976,-0.645 14.601,-1.981 20.785,-4.191 2.594,-0.926 7.203,-3.059 9.125,-4.219 1.168,-0.707 1.645,-0.735 1.852,-0.117 0.101,0.304 -1.637,1.379 -4.563,2.824 -6.816,3.367 -14.418,5.453 -23.914,6.551 -3.742,0.433 -13.105,0.546 -16.457,0.199 z m 24.809,-6.598 c -0.372,-0.609 -1.036,-1.972 -1.485,-3.031 -0.918,-2.176 -1.773,-3.785 -2.445,-4.582 -0.527,-0.629 -0.59,-1.192 -0.156,-1.359 0.66,-0.25 2.015,1.863 3.742,5.824 0.433,0.996 1.058,2.23 1.39,2.742 0.633,0.984 0.633,1.512 0,1.512 -0.253,0 -0.597,-0.364 -1.046,-1.106 z m -39.836,-1.637 c -0.317,-0.23 -0.305,-0.375 0.164,-2.55 1.121,-5.172 1.664,-6.828 2.23,-6.828 0.59,0 0.606,0.3 0.098,2.039 -0.266,0.918 -0.754,2.89 -1.082,4.382 -0.637,2.918 -0.852,3.364 -1.41,2.957 z m 19.593,-7.867 c -4,-0.406 -8.242,-1.379 -12.144,-2.785 -2.762,-0.992 -6.285,-2.59 -6.508,-2.949 -0.082,-0.133 -0.02,-0.367 0.145,-0.531 0.261,-0.262 0.503,-0.196 2.285,0.617 9.496,4.332 19.117,5.73 27.633,4.019 3.484,-0.703 7.554,-2.422 10.812,-4.57 1.246,-0.824 1.688,-1.027 1.883,-0.863 0.496,0.41 0.242,0.726 -1.52,1.902 -6.32,4.203 -14.234,6.016 -22.586,5.16 z m 0.039,-2.605 c -0.273,-0.531 0.11,-3.176 0.747,-5.164 0.882,-2.739 2.804,-5.574 3.691,-5.442 0.687,0.098 0.613,0.399 -0.391,1.649 -1.617,2.004 -2.508,4.277 -2.992,7.644 -0.172,1.176 -0.301,1.551 -0.547,1.598 -0.179,0.035 -0.406,-0.094 -0.508,-0.285 z m 59.418,55.57 1.161,-0.125 0.125,-4.808 c 0.214,-8.223 1.203,-13.079 3.214,-15.793 1.418,-1.918 3.879,-1.899 6.047,0.046 2.418,2.164 3.489,5.614 3.879,12.477 0.211,3.805 0.395,4.785 0.996,5.434 0.504,0.539 1.102,0.535 3.141,-0.016 l 1.547,-0.418 -0.039,-2.25 c -0.075,-4.063 -0.961,-9.539 -2.125,-13.141 -2.008,-6.191 -5.188,-9.851 -9.535,-10.968 -1.504,-0.387 -4.372,-0.434 -5.825,-0.094 -6.207,1.461 -9.836,8.285 -9.836,18.504 0,4.722 1.047,10.527 2.012,11.172 0.254,0.168 3.598,0.156 5.238,-0.02 z m -6.867,-0.164 c -0.004,-0.086 -0.258,-0.957 -0.57,-1.941 -0.863,-2.719 -1.035,-4.356 -0.918,-8.758 0.219,-8.41 2.273,-14.215 6.168,-17.445 0.703,-0.583 1.25,-1.102 1.219,-1.157 -0.032,-0.051 -4.614,-0.09 -10.18,-0.086 -11.422,0.012 -11.535,0.024 -14.449,1.453 -5.254,2.579 -7.594,8.348 -8.067,19.895 -0.179,4.437 0.52,6.898 2.192,7.719 0.683,0.34 1.465,0.363 12.668,0.414 6.57,0.031 11.941,-0.012 11.937,-0.094 z m -15.797,-1.828 c -0.453,-0.57 -0.418,-8.356 0.059,-12.606 l 0.133,-1.199 -4.715,-0.051 -4.715,-0.05 -0.062,-0.434 c -0.036,-0.238 -0.036,-0.453 0,-0.473 0.035,-0.023 2.226,-0.086 4.875,-0.144 4.003,-0.086 4.839,-0.152 4.968,-0.395 0.086,-0.156 0.34,-0.894 0.567,-1.632 1.437,-4.688 4.5,-7.977 8.371,-8.985 0.773,-0.203 0.953,-0.199 1.094,0.024 0.281,0.457 0.003,0.75 -1.028,1.082 -4.113,1.32 -6.894,4.984 -8.035,10.586 -0.578,2.843 -0.836,6.461 -0.762,10.66 0.059,3.304 0.032,3.754 -0.242,3.804 -0.168,0.036 -0.398,-0.05 -0.508,-0.187 z m 4.168,-13.379 c -1.601,-0.07 -2.164,-0.367 -1.715,-0.906 0.196,-0.235 0.809,-0.262 3.766,-0.16 2.481,0.082 3.813,0.046 4.465,-0.118 0.781,-0.195 0.969,-0.187 1.215,0.059 0.234,0.23 0.246,0.344 0.054,0.574 -0.523,0.625 -2.683,0.778 -7.785,0.551 z"
           style="fill:#000000;fill-opacity:1;fill-rule:nonzero;stroke:#000000;stroke-width:2.55839705;stroke-linecap:butt;stroke-linejoin:miter;stroke-miterlimit:4;stroke-dasharray:none;stroke-opacity:1"
           id="path60"
           inkscape:connector-curvature="0" /></g><g
         id="g62"
         transform="matrix(1,0,0,-1,0,595.27557)"><path
           d="m 435.656,429.871 h 95.719 c 4.078,0 7.359,3.281 7.359,7.363 v 95.715 c 0,4.078 -3.281,7.364 -7.359,7.364 h -95.719 c -4.078,0 -7.359,-3.286 -7.359,-7.364 v -95.715 c 0,-4.082 3.281,-7.363 7.359,-7.363 z"
           style="fill:#ffd200;fill-opacity:1;fill-rule:nonzero;stroke:#000000;stroke-width:2.94508696;stroke-linecap:round;stroke-linejoin:round;stroke-miterlimit:4;stroke-dasharray:none;stroke-opacity:1"
           id="path64"
           inkscape:connector-curvature="0" /></g><text
         transform="matrix(1,0,0,-1,464.85082,62.635198)"
         style="font-variant:normal;font-weight:normal;font-size:11.63636398px;font-family:Arial;-inkscape-font-specification:Arial;writing-mode:lr-tb;fill:#000000;fill-opacity:1;fill-rule:nonzero;stroke:none"
         id="text68"><tspan
           x="0 3.2232728 12.264728 18.734547 27.776001"
           y="0"
           sodipodi:role="line"
           id="tspan66">IGLOO</tspan></text>
<g
         id="g70"
         transform="matrix(1,0,0,-1,0,595.27557)"><path
           d="m 465.125,503.695 c -3.125,-0.234 -4.605,-0.382 -6.699,-0.683 -3.219,-0.457 -11.531,-2.121 -13.602,-2.723 -2.726,-0.789 -5.402,-1.961 -6.41,-2.801 l -0.445,-0.375 0.636,-4.105 c 1.309,-8.457 2.395,-13.34 4.098,-18.41 1.789,-5.332 3.727,-8.618 7.024,-11.914 2.765,-2.762 5.769,-4.809 10.289,-7 5.672,-2.75 10.336,-3.989 15.004,-3.989 3.25,0 5.957,0.469 8.445,1.457 1.64,0.653 2.465,1.153 4.668,2.813 1.453,1.094 2.312,1.617 3.988,2.426 2.953,1.422 3.863,2.054 6.934,4.804 4.375,3.922 8.582,9.5 10.98,14.559 0.352,0.746 0.711,1.402 0.793,1.457 0.227,0.152 3.418,0.125 5.406,-0.043 1.508,-0.129 1.918,-0.117 2.946,0.086 1.535,0.301 2.586,0.726 3.652,1.484 3.543,2.516 5.5,7.746 6.176,16.496 0.187,2.442 0.234,2.356 -1.496,2.891 -1.301,0.402 -2.699,0.473 -3.149,0.16 -0.535,-0.375 -3.672,-0.722 -7.172,-0.801 l -1.656,-0.035 -0.039,1.028 c -0.023,0.562 -0.105,1.097 -0.18,1.183 -0.214,0.262 -2.089,0.461 -4.406,0.469 -1.18,0.004 -5,-0.055 -8.496,-0.129 -5.164,-0.109 -6.676,-0.098 -8.078,0.055 -1.91,0.211 -2.766,0.129 -3.535,-0.344 -0.399,-0.246 -0.692,-0.285 -2.156,-0.293 -1.813,-0.008 -3.086,0.18 -5.774,0.852 -4.59,1.144 -6.551,1.367 -12.703,1.433 -2.395,0.024 -4.664,0.024 -5.043,-0.008 z m 9.805,-0.89 c 2.918,-0.235 4.765,-0.532 7.668,-1.227 3.25,-0.781 4.312,-0.953 5.902,-0.957 0.629,0 1.141,-0.019 1.141,-0.039 0,-0.016 -0.121,-0.348 -0.266,-0.73 -0.398,-1.039 -0.605,-2.821 -0.5,-4.317 0.133,-1.926 0.73,-6.238 1.027,-7.422 0.918,-3.664 2.891,-6.449 5.45,-7.695 1.918,-0.938 2.347,-0.988 8.652,-1.059 3.074,-0.035 5.641,-0.109 5.695,-0.164 0.129,-0.121 -0.758,-1.968 -1.789,-3.722 -2.262,-3.848 -4.988,-7.246 -8.832,-11.012 -3.394,-3.32 -4.449,-4.102 -7.058,-5.234 -1.938,-0.84 -2.809,-1.356 -5.043,-2.969 -2.055,-1.488 -2.856,-1.942 -4.387,-2.477 -7.828,-2.73 -17.887,-0.73 -27.34,5.434 -7.422,4.84 -10.582,9.883 -13.609,21.73 -0.782,3.047 -1.309,5.739 -1.914,9.778 -0.872,5.781 -0.868,5.722 -0.547,6.152 0.972,1.316 6.765,3.191 13.859,4.484 2.313,0.422 7.156,1.121 9.188,1.329 3.789,0.386 8.824,0.433 12.703,0.117 z m 2.773,-3.629 c -0.418,-0.992 -1.164,-3.473 -1.367,-4.535 -0.414,-2.164 -0.395,-2.485 0.129,-2.383 0.191,0.035 0.289,0.226 0.371,0.734 0.25,1.547 0.715,3.383 1.211,4.789 0.289,0.821 0.492,1.578 0.449,1.684 -0.141,0.371 -0.586,0.207 -0.793,-0.289 z m -26.512,-1.418 c -0.183,-0.301 -0.507,-2.77 -0.699,-5.387 -0.117,-1.547 -0.25,-3.199 -0.301,-3.672 -0.078,-0.742 -0.058,-0.867 0.157,-0.949 0.539,-0.207 0.621,0.184 0.898,4.211 0.078,1.172 0.246,2.809 0.367,3.641 0.313,2.097 0.313,2.191 -0.043,2.242 -0.164,0.023 -0.336,-0.016 -0.379,-0.086 z m 26.086,-7.586 c -5.73,-0.164 -9.089,-0.504 -14.468,-1.453 -4.59,-0.813 -8.286,-1.742 -10.223,-2.574 -0.773,-0.336 -2.285,-0.989 -3.359,-1.454 -1.274,-0.55 -2.418,-0.941 -3.313,-1.128 -1.988,-0.415 -2.059,-0.438 -2.059,-0.743 0,-0.39 0.629,-0.418 2.028,-0.086 1.129,0.27 2.523,0.817 5.59,2.204 2.3,1.039 5.293,1.835 10.269,2.742 5.793,1.054 9.606,1.476 14.985,1.668 2.05,0.074 4.445,0.172 5.316,0.218 1.902,0.102 4.387,-0.109 5.777,-0.492 0.555,-0.156 1.067,-0.246 1.137,-0.199 0.258,0.156 0.125,0.57 -0.234,0.734 -1.383,0.625 -4.332,0.77 -11.446,0.563 z m -14.933,-5.188 c -0.09,-0.054 -0.199,-0.441 -0.25,-0.855 -0.172,-1.477 -0.305,-5.031 -0.227,-5.981 0.074,-0.898 0.102,-0.96 0.41,-0.96 h 0.325 l 0.074,2.679 c 0.144,5.309 0.137,5.414 -0.332,5.117 z m 28.304,-2.945 c -0.078,-0.098 -0.183,-0.457 -0.238,-0.797 -0.051,-0.34 -0.437,-1.633 -0.855,-2.871 -0.758,-2.246 -0.793,-2.574 -0.254,-2.469 0.433,0.086 2.094,5.071 1.972,5.914 -0.05,0.36 -0.414,0.489 -0.625,0.223 z m -22.5,-7.047 c -6.3,-0.652 -13.25,-2.523 -19.156,-5.156 -0.699,-0.313 -0.926,-0.606 -0.668,-0.859 0.188,-0.188 0.422,-0.114 2.922,0.925 4.758,1.977 10.004,3.375 15.469,4.129 2.133,0.297 8.336,0.418 10.84,0.215 5.699,-0.461 10.429,-1.414 14.847,-2.992 1.852,-0.664 5.145,-2.188 6.52,-3.016 0.832,-0.504 1.172,-0.523 1.32,-0.082 0.071,0.215 -1.168,0.985 -3.258,2.016 -4.871,2.406 -10.3,3.894 -17.082,4.68 -2.675,0.308 -9.359,0.39 -11.754,0.14 z m 17.719,-4.711 c -0.265,-0.433 -0.742,-1.41 -1.058,-2.164 -0.657,-1.554 -1.27,-2.703 -1.746,-3.273 -0.379,-0.449 -0.422,-0.852 -0.114,-0.973 0.469,-0.176 1.442,1.332 2.672,4.164 0.309,0.707 0.758,1.59 0.992,1.957 0.453,0.703 0.453,1.078 0.004,1.078 -0.183,0 -0.429,-0.257 -0.75,-0.789 z m -28.453,-1.168 c -0.226,-0.164 -0.219,-0.269 0.117,-1.824 0.801,-3.691 1.188,-4.875 1.594,-4.875 0.422,0 0.43,0.215 0.07,1.457 -0.191,0.652 -0.539,2.063 -0.773,3.129 -0.457,2.082 -0.609,2.402 -1.008,2.113 z m 13.996,-5.617 c -2.855,-0.293 -5.887,-0.988 -8.676,-1.992 -1.972,-0.711 -4.488,-1.852 -4.648,-2.109 -0.059,-0.094 -0.016,-0.258 0.102,-0.375 0.187,-0.188 0.363,-0.141 1.632,0.437 6.782,3.094 13.657,4.094 19.739,2.871 2.492,-0.5 5.394,-1.726 7.722,-3.265 0.891,-0.586 1.207,-0.731 1.348,-0.614 0.351,0.293 0.172,0.52 -1.086,1.356 -4.516,3.004 -10.172,4.297 -16.133,3.691 z m 0.028,-1.863 c -0.196,-0.379 0.078,-2.27 0.531,-3.688 0.629,-1.957 2.004,-3.984 2.636,-3.89 0.493,0.074 0.442,0.289 -0.281,1.179 -1.152,1.43 -1.789,3.055 -2.136,5.461 -0.122,0.84 -0.211,1.11 -0.391,1.141 -0.125,0.023 -0.289,-0.066 -0.359,-0.203 z m 42.441,39.691 0.828,-0.086 0.09,-3.437 c 0.152,-5.875 0.859,-9.344 2.293,-11.281 1.015,-1.368 2.773,-1.356 4.324,0.035 1.727,1.543 2.492,4.008 2.766,8.91 0.156,2.719 0.285,3.418 0.715,3.883 0.359,0.382 0.785,0.382 2.242,-0.012 l 1.105,-0.301 -0.027,-1.605 c -0.055,-2.903 -0.688,-6.813 -1.52,-9.387 -1.433,-4.422 -3.703,-7.035 -6.808,-7.832 -1.078,-0.277 -3.125,-0.313 -4.16,-0.066 -4.434,1.039 -7.028,5.914 -7.028,13.214 0,3.375 0.746,7.52 1.438,7.977 0.179,0.121 2.57,0.113 3.742,-0.012 z m -4.906,-0.117 c 0,-0.059 -0.184,-0.684 -0.407,-1.387 -0.617,-1.941 -0.738,-3.109 -0.656,-6.254 0.156,-6.007 1.621,-10.156 4.406,-12.461 0.5,-0.417 0.895,-0.789 0.872,-0.824 -0.024,-0.039 -3.297,-0.066 -7.274,-0.062 -8.156,0.008 -8.238,0.015 -10.32,1.035 -3.754,1.844 -5.426,5.965 -5.762,14.211 -0.129,3.168 0.371,4.926 1.566,5.515 0.489,0.243 1.047,0.258 9.047,0.297 4.692,0.02 8.528,-0.011 8.528,-0.07 z m -11.282,-1.305 c -0.324,-0.406 -0.3,-5.968 0.039,-9.004 l 0.098,-0.855 -3.371,-0.039 -3.367,-0.035 -0.043,-0.309 c -0.024,-0.172 -0.024,-0.324 0,-0.34 0.023,-0.015 1.59,-0.062 3.48,-0.101 2.864,-0.063 3.457,-0.11 3.551,-0.281 0.059,-0.114 0.242,-0.641 0.406,-1.168 1.028,-3.348 3.211,-5.696 5.977,-6.418 0.551,-0.141 0.684,-0.141 0.781,0.019 0.203,0.328 0.004,0.535 -0.734,0.774 -2.938,0.941 -4.926,3.558 -5.738,7.558 -0.415,2.031 -0.598,4.613 -0.547,7.613 0.043,2.364 0.023,2.684 -0.172,2.723 -0.121,0.024 -0.281,-0.039 -0.36,-0.137 z m 2.977,-9.554 c -1.145,-0.051 -1.547,-0.266 -1.227,-0.649 0.141,-0.168 0.579,-0.187 2.692,-0.117 1.769,0.059 2.722,0.035 3.187,-0.082 0.559,-0.141 0.692,-0.133 0.868,0.043 0.167,0.164 0.175,0.246 0.039,0.41 -0.372,0.445 -1.914,0.555 -5.559,0.395 z"
           style="fill:#000000;fill-opacity:1;fill-rule:nonzero;stroke:#000000;stroke-width:1.82742596;stroke-linecap:butt;stroke-linejoin:miter;stroke-miterlimit:4;stroke-dasharray:none;stroke-opacity:1"
           id="path72"
           inkscape:connector-curvature="0" /></g><g
         id="g74"
         transform="matrix(1,0,0,-1,0,595.27557)"><path
           d="m 562.957,429.871 h 95.715 c 4.078,0 7.363,3.281 7.363,7.363 v 95.715 c 0,4.078 -3.285,7.364 -7.363,7.364 h -95.715 c -4.078,0 -7.363,-3.286 -7.363,-7.364 v -95.715 c 0,-4.082 3.285,-7.363 7.363,-7.363 z"
           style="fill:#ffd200;fill-opacity:1;fill-rule:nonzero;stroke:#000000;stroke-width:2.94508696;stroke-linecap:round;stroke-linejoin:round;stroke-miterlimit:4;stroke-dasharray:none;stroke-opacity:1"
           id="path76"
           inkscape:connector-curvature="0" /></g><text
         transform="matrix(1,0,0,-1,592.1488,62.635198)"
         style="font-variant:normal;font-weight:normal;font-size:11.63636398px;font-family:Arial;-inkscape-font-specification:Arial;writing-mode:lr-tb;fill:#000000;fill-opacity:1;fill-rule:nonzero;stroke:none"
         id="text80"><tspan
           x="0 3.2232728 12.264728 18.734547 27.776001"
           y="0"
           sodipodi:role="line"
           id="tspan78">IGLOO</tspan></text>
<g
         id="g82"
         transform="matrix(1,0,0,-1,0,595.27557)"><path
           d="m 592.422,503.695 c -3.125,-0.234 -4.606,-0.382 -6.695,-0.683 -3.223,-0.457 -11.532,-2.121 -13.606,-2.723 -2.726,-0.789 -5.402,-1.961 -6.406,-2.801 l -0.449,-0.375 0.636,-4.105 c 1.309,-8.457 2.399,-13.34 4.098,-18.41 1.789,-5.332 3.727,-8.618 7.023,-11.914 2.766,-2.762 5.774,-4.809 10.29,-7 5.675,-2.75 10.335,-3.989 15.007,-3.989 3.246,0 5.953,0.469 8.446,1.457 1.636,0.653 2.461,1.153 4.664,2.813 1.453,1.094 2.316,1.617 3.988,2.426 2.953,1.422 3.867,2.054 6.934,4.804 4.375,3.922 8.582,9.5 10.98,14.559 0.356,0.746 0.711,1.402 0.793,1.457 0.227,0.152 3.418,0.125 5.41,-0.043 1.504,-0.129 1.918,-0.117 2.942,0.086 1.535,0.301 2.586,0.726 3.652,1.484 3.543,2.516 5.504,7.746 6.176,16.496 0.187,2.442 0.234,2.356 -1.496,2.891 -1.297,0.402 -2.696,0.473 -3.149,0.16 -0.535,-0.375 -3.672,-0.722 -7.168,-0.801 l -1.66,-0.035 -0.039,1.028 c -0.023,0.562 -0.102,1.097 -0.176,1.183 -0.219,0.262 -2.094,0.461 -4.41,0.469 -1.176,0.004 -5,-0.055 -8.492,-0.129 -5.168,-0.109 -6.676,-0.098 -8.082,0.055 -1.91,0.211 -2.766,0.129 -3.531,-0.344 -0.399,-0.246 -0.696,-0.285 -2.161,-0.293 -1.808,-0.008 -3.086,0.18 -5.769,0.852 -4.594,1.144 -6.555,1.367 -12.707,1.433 -2.395,0.024 -4.66,0.024 -5.043,-0.008 z m 9.808,-0.89 c 2.915,-0.235 4.766,-0.532 7.665,-1.227 3.25,-0.781 4.312,-0.953 5.902,-0.957 0.629,0 1.141,-0.019 1.141,-0.039 0,-0.016 -0.122,-0.348 -0.266,-0.73 -0.399,-1.039 -0.606,-2.821 -0.5,-4.317 0.133,-1.926 0.734,-6.238 1.031,-7.422 0.918,-3.664 2.887,-6.449 5.445,-7.695 1.918,-0.938 2.348,-0.988 8.653,-1.059 3.078,-0.035 5.64,-0.109 5.699,-0.164 0.125,-0.121 -0.762,-1.968 -1.793,-3.722 -2.258,-3.848 -4.984,-7.246 -8.832,-11.012 -3.395,-3.32 -4.445,-4.102 -7.055,-5.234 -1.941,-0.84 -2.812,-1.356 -5.043,-2.969 -2.058,-1.488 -2.859,-1.942 -4.39,-2.477 -7.828,-2.73 -17.887,-0.73 -27.34,5.434 -7.422,4.84 -10.582,9.883 -13.609,21.73 -0.782,3.047 -1.305,5.739 -1.915,9.778 -0.871,5.781 -0.863,5.722 -0.546,6.152 0.972,1.316 6.769,3.191 13.863,4.484 2.308,0.422 7.156,1.121 9.183,1.329 3.793,0.386 8.829,0.433 12.707,0.117 z m 2.77,-3.629 c -0.414,-0.992 -1.164,-3.473 -1.367,-4.535 -0.41,-2.164 -0.395,-2.485 0.133,-2.383 0.191,0.035 0.285,0.226 0.367,0.734 0.25,1.547 0.715,3.383 1.211,4.789 0.289,0.821 0.492,1.578 0.453,1.684 -0.145,0.371 -0.586,0.207 -0.797,-0.289 z m -26.512,-1.418 c -0.183,-0.301 -0.508,-2.77 -0.699,-5.387 -0.117,-1.547 -0.25,-3.199 -0.301,-3.672 -0.078,-0.742 -0.058,-0.867 0.157,-0.949 0.539,-0.207 0.625,0.184 0.898,4.211 0.078,1.172 0.246,2.809 0.371,3.641 0.309,2.097 0.309,2.191 -0.047,2.242 -0.164,0.023 -0.332,-0.016 -0.379,-0.086 z m 26.09,-7.586 c -5.734,-0.164 -9.09,-0.504 -14.473,-1.453 -4.589,-0.813 -8.285,-1.742 -10.222,-2.574 -0.774,-0.336 -2.285,-0.989 -3.356,-1.454 -1.277,-0.55 -2.422,-0.941 -3.316,-1.128 -1.988,-0.415 -2.059,-0.438 -2.059,-0.743 0,-0.39 0.629,-0.418 2.028,-0.086 1.129,0.27 2.523,0.817 5.593,2.204 2.297,1.039 5.29,1.835 10.266,2.742 5.793,1.054 9.609,1.476 14.984,1.668 2.051,0.074 4.446,0.172 5.321,0.218 1.898,0.102 4.383,-0.109 5.773,-0.492 0.555,-0.156 1.067,-0.246 1.141,-0.199 0.254,0.156 0.121,0.57 -0.238,0.734 -1.383,0.625 -4.329,0.77 -11.442,0.563 z m -14.937,-5.188 c -0.086,-0.054 -0.2,-0.441 -0.246,-0.855 -0.172,-1.477 -0.309,-5.031 -0.231,-5.981 0.078,-0.898 0.106,-0.96 0.41,-0.96 h 0.328 l 0.071,2.679 c 0.144,5.309 0.136,5.414 -0.332,5.117 z m 28.304,-2.945 c -0.078,-0.098 -0.183,-0.457 -0.234,-0.797 -0.055,-0.34 -0.438,-1.633 -0.859,-2.871 -0.758,-2.246 -0.793,-2.574 -0.254,-2.469 0.433,0.086 2.093,5.071 1.972,5.914 -0.05,0.36 -0.414,0.489 -0.625,0.223 z m -22.5,-7.047 c -6.297,-0.652 -13.25,-2.523 -19.156,-5.156 -0.695,-0.313 -0.926,-0.606 -0.668,-0.859 0.188,-0.188 0.422,-0.114 2.922,0.925 4.758,1.977 10.004,3.375 15.469,4.129 2.136,0.297 8.34,0.418 10.84,0.215 5.699,-0.461 10.433,-1.414 14.847,-2.992 1.852,-0.664 5.149,-2.188 6.52,-3.016 0.832,-0.504 1.172,-0.523 1.32,-0.082 0.074,0.215 -1.168,0.985 -3.258,2.016 -4.871,2.406 -10.297,3.894 -17.082,4.68 -2.672,0.308 -9.359,0.39 -11.754,0.14 z m 17.719,-4.711 c -0.262,-0.433 -0.738,-1.41 -1.059,-2.164 -0.656,-1.554 -1.269,-2.703 -1.746,-3.273 -0.375,-0.449 -0.421,-0.852 -0.109,-0.973 0.469,-0.176 1.438,1.332 2.668,4.164 0.309,0.707 0.758,1.59 0.996,1.957 0.453,0.703 0.453,1.078 0,1.078 -0.18,0 -0.426,-0.257 -0.75,-0.789 z m -28.453,-1.168 c -0.227,-0.164 -0.219,-0.269 0.117,-1.824 0.801,-3.691 1.188,-4.875 1.594,-4.875 0.422,0 0.433,0.215 0.07,1.457 -0.191,0.652 -0.539,2.063 -0.773,3.129 -0.457,2.082 -0.61,2.402 -1.008,2.113 z m 13.996,-5.617 c -2.855,-0.293 -5.887,-0.988 -8.676,-1.992 -1.972,-0.711 -4.488,-1.852 -4.648,-2.109 -0.059,-0.094 -0.012,-0.258 0.105,-0.375 0.188,-0.188 0.36,-0.141 1.629,0.437 6.785,3.094 13.656,4.094 19.738,2.871 2.493,-0.5 5.399,-1.726 7.723,-3.265 0.891,-0.586 1.207,-0.731 1.348,-0.614 0.355,0.293 0.172,0.52 -1.086,1.356 -4.516,3.004 -10.168,4.297 -16.133,3.691 z m 0.027,-1.863 c -0.195,-0.379 0.079,-2.27 0.536,-3.688 0.628,-1.957 2,-3.984 2.636,-3.89 0.489,0.074 0.438,0.289 -0.281,1.179 -1.156,1.43 -1.789,3.055 -2.137,5.461 -0.121,0.84 -0.215,1.11 -0.39,1.141 -0.129,0.023 -0.293,-0.066 -0.364,-0.203 z m 42.442,39.691 0.828,-0.086 0.09,-3.437 c 0.152,-5.875 0.859,-9.344 2.297,-11.281 1.011,-1.368 2.769,-1.356 4.32,0.035 1.727,1.543 2.492,4.008 2.769,8.91 0.153,2.719 0.282,3.418 0.711,3.883 0.36,0.382 0.786,0.382 2.243,-0.012 l 1.105,-0.301 -0.027,-1.605 c -0.055,-2.903 -0.688,-6.813 -1.52,-9.387 -1.429,-4.422 -3.703,-7.035 -6.808,-7.832 -1.075,-0.277 -3.125,-0.313 -4.161,-0.066 -4.433,1.039 -7.027,5.914 -7.027,13.214 0,3.375 0.746,7.52 1.438,7.977 0.179,0.121 2.57,0.113 3.742,-0.012 z m -4.906,-0.117 c 0,-0.059 -0.184,-0.684 -0.407,-1.387 -0.617,-1.941 -0.738,-3.109 -0.656,-6.254 0.156,-6.007 1.625,-10.156 4.406,-12.461 0.504,-0.417 0.895,-0.789 0.871,-0.824 -0.023,-0.039 -3.293,-0.066 -7.269,-0.062 -8.16,0.008 -8.242,0.015 -10.32,1.035 -3.758,1.844 -5.426,5.965 -5.766,14.211 -0.129,3.168 0.371,4.926 1.566,5.515 0.489,0.243 1.047,0.258 9.051,0.297 4.692,0.02 8.527,-0.011 8.524,-0.07 z m -11.282,-1.305 c -0.324,-0.406 -0.3,-5.968 0.043,-9.004 l 0.094,-0.855 -3.367,-0.039 -3.371,-0.035 -0.043,-0.309 c -0.024,-0.172 -0.024,-0.324 0,-0.34 0.023,-0.015 1.59,-0.062 3.48,-0.101 2.864,-0.063 3.457,-0.11 3.551,-0.281 0.063,-0.114 0.242,-0.641 0.406,-1.168 1.028,-3.348 3.215,-5.696 5.977,-6.418 0.555,-0.141 0.683,-0.141 0.781,0.019 0.203,0.328 0.004,0.535 -0.73,0.774 -2.942,0.941 -4.926,3.558 -5.743,7.558 -0.414,2.031 -0.597,4.613 -0.543,7.613 0.04,2.364 0.02,2.684 -0.171,2.723 -0.122,0.024 -0.286,-0.039 -0.364,-0.137 z m 2.977,-9.554 c -1.145,-0.051 -1.547,-0.266 -1.227,-0.649 0.141,-0.168 0.578,-0.187 2.692,-0.117 1.773,0.059 2.722,0.035 3.187,-0.082 0.559,-0.141 0.696,-0.133 0.871,0.043 0.164,0.164 0.172,0.246 0.035,0.41 -0.371,0.445 -1.914,0.555 -5.558,0.395 z"
           style="fill:#000000;fill-opacity:1;fill-rule:nonzero;stroke:#000000;stroke-width:1.82742596;stroke-linecap:butt;stroke-linejoin:miter;stroke-miterlimit:4;stroke-dasharray:none;stroke-opacity:1"
           id="path84"
           inkscape:connector-curvature="0" /></g><g
         id="g86"
         transform="matrix(1,0,0,-1,0,595.27557)"><path
           d="m 690.789,429.871 h 95.715 c 4.078,0 7.363,3.281 7.363,7.363 v 95.715 c 0,4.078 -3.285,7.364 -7.363,7.364 h -95.715 c -4.078,0 -7.363,-3.286 -7.363,-7.364 v -95.715 c 0,-4.082 3.285,-7.363 7.363,-7.363 z"
           style="fill:#ffd200;fill-opacity:1;fill-rule:nonzero;stroke:#000000;stroke-width:2.94508696;stroke-linecap:round;stroke-linejoin:round;stroke-miterlimit:4;stroke-dasharray:none;stroke-opacity:1"
           id="path88"
           inkscape:connector-curvature="0" /></g><text
         transform="matrix(1,0,0,-1,719.98166,62.635198)"
         style="font-variant:normal;font-weight:normal;font-size:11.63636398px;font-family:Arial;-inkscape-font-specification:Arial;writing-mode:lr-tb;fill:#000000;fill-opacity:1;fill-rule:nonzero;stroke:none"
         id="text92"><tspan
           x="0 3.2232728 12.264728 18.734547 27.776001"
           y="0"
           sodipodi:role="line"
           id="tspan90">IGLOO</tspan></text>
<g
         id="g94"
         transform="matrix(1,0,0,-1,0,595.27557)"><path
           d="m 720.258,503.695 c -3.129,-0.234 -4.606,-0.382 -6.699,-0.683 -3.219,-0.457 -11.532,-2.121 -13.606,-2.723 -2.726,-0.789 -5.402,-1.961 -6.406,-2.801 l -0.445,-0.375 0.632,-4.105 c 1.313,-8.457 2.399,-13.34 4.098,-18.41 1.789,-5.332 3.727,-8.618 7.023,-11.914 2.766,-2.762 5.774,-4.809 10.29,-7 5.675,-2.75 10.335,-3.989 15.007,-3.989 3.246,0 5.953,0.469 8.446,1.457 1.636,0.653 2.465,1.153 4.668,2.813 1.449,1.094 2.312,1.617 3.984,2.426 2.953,1.422 3.867,2.054 6.934,4.804 4.375,3.922 8.582,9.5 10.98,14.559 0.356,0.746 0.711,1.402 0.793,1.457 0.227,0.152 3.422,0.125 5.41,-0.043 1.504,-0.129 1.918,-0.117 2.942,0.086 1.535,0.301 2.586,0.726 3.652,1.484 3.543,2.516 5.504,7.746 6.176,16.496 0.191,2.442 0.234,2.356 -1.496,2.891 -1.297,0.402 -2.696,0.473 -3.145,0.16 -0.539,-0.375 -3.676,-0.722 -7.172,-0.801 l -1.656,-0.035 -0.043,1.028 c -0.023,0.562 -0.102,1.097 -0.176,1.183 -0.219,0.262 -2.094,0.461 -4.41,0.469 -1.176,0.004 -5,-0.055 -8.492,-0.129 -5.168,-0.109 -6.676,-0.098 -8.082,0.055 -1.91,0.211 -2.766,0.129 -3.531,-0.344 -0.399,-0.246 -0.692,-0.285 -2.161,-0.293 -1.808,-0.008 -3.085,0.18 -5.769,0.852 -4.594,1.144 -6.551,1.367 -12.707,1.433 -2.395,0.024 -4.66,0.024 -5.039,-0.008 z m 9.805,-0.89 c 2.914,-0.235 4.765,-0.532 7.664,-1.227 3.253,-0.781 4.312,-0.953 5.906,-0.957 0.625,0 1.137,-0.019 1.137,-0.039 0,-0.016 -0.118,-0.348 -0.266,-0.73 -0.399,-1.039 -0.602,-2.821 -0.5,-4.317 0.137,-1.926 0.734,-6.238 1.031,-7.422 0.918,-3.664 2.891,-6.449 5.445,-7.695 1.918,-0.938 2.348,-0.988 8.653,-1.059 3.078,-0.035 5.64,-0.109 5.699,-0.164 0.129,-0.121 -0.762,-1.968 -1.789,-3.722 -2.262,-3.848 -4.988,-7.246 -8.836,-11.012 -3.391,-3.32 -4.445,-4.102 -7.055,-5.234 -1.937,-0.84 -2.812,-1.356 -5.043,-2.969 -2.058,-1.488 -2.859,-1.942 -4.39,-2.477 -7.828,-2.73 -17.883,-0.73 -27.336,5.434 -7.422,4.84 -10.582,9.883 -13.613,21.73 -0.778,3.047 -1.305,5.739 -1.915,9.778 -0.871,5.781 -0.863,5.722 -0.546,6.152 0.972,1.316 6.769,3.191 13.863,4.484 2.308,0.422 7.156,1.121 9.183,1.329 3.793,0.386 8.829,0.433 12.708,0.117 z m 2.769,-3.629 c -0.414,-0.992 -1.164,-3.473 -1.363,-4.535 -0.414,-2.164 -0.399,-2.485 0.129,-2.383 0.191,0.035 0.285,0.226 0.367,0.734 0.25,1.547 0.715,3.383 1.211,4.789 0.289,0.821 0.492,1.578 0.453,1.684 -0.145,0.371 -0.586,0.207 -0.797,-0.289 z m -26.508,-1.418 c -0.187,-0.301 -0.508,-2.77 -0.703,-5.387 -0.113,-1.547 -0.25,-3.199 -0.297,-3.672 -0.082,-0.742 -0.058,-0.867 0.156,-0.949 0.54,-0.207 0.622,0.184 0.895,4.211 0.078,1.172 0.246,2.809 0.371,3.641 0.313,2.097 0.309,2.191 -0.047,2.242 -0.164,0.023 -0.332,-0.016 -0.375,-0.086 z m 26.086,-7.586 c -5.734,-0.164 -9.09,-0.504 -14.472,-1.453 -4.59,-0.813 -8.282,-1.742 -10.219,-2.574 -0.778,-0.336 -2.289,-0.989 -3.36,-1.454 -1.277,-0.55 -2.421,-0.941 -3.316,-1.128 -1.988,-0.415 -2.055,-0.438 -2.055,-0.743 0,-0.39 0.625,-0.418 2.024,-0.086 1.129,0.27 2.523,0.817 5.593,2.204 2.297,1.039 5.29,1.835 10.266,2.742 5.793,1.054 9.609,1.476 14.984,1.668 2.055,0.074 4.446,0.172 5.321,0.218 1.902,0.102 4.387,-0.109 5.773,-0.492 0.555,-0.156 1.067,-0.246 1.141,-0.199 0.254,0.156 0.121,0.57 -0.238,0.734 -1.383,0.625 -4.329,0.77 -11.442,0.563 z m -14.937,-5.188 c -0.086,-0.054 -0.2,-0.441 -0.246,-0.855 -0.172,-1.477 -0.309,-5.031 -0.227,-5.981 0.074,-0.898 0.102,-0.96 0.406,-0.96 h 0.328 l 0.075,2.679 c 0.14,5.309 0.136,5.414 -0.336,5.117 z m 28.304,-2.945 c -0.078,-0.098 -0.183,-0.457 -0.234,-0.797 -0.055,-0.34 -0.438,-1.633 -0.855,-2.871 -0.762,-2.246 -0.797,-2.574 -0.254,-2.469 0.429,0.086 2.089,5.071 1.968,5.914 -0.05,0.36 -0.414,0.489 -0.625,0.223 z m -22.5,-7.047 c -6.297,-0.652 -13.246,-2.523 -19.152,-5.156 -0.699,-0.313 -0.93,-0.606 -0.672,-0.859 0.188,-0.188 0.426,-0.114 2.922,0.925 4.758,1.977 10.004,3.375 15.469,4.129 2.136,0.297 8.34,0.418 10.844,0.215 5.695,-0.461 10.429,-1.414 14.843,-2.992 1.852,-0.664 5.149,-2.188 6.52,-3.016 0.832,-0.504 1.172,-0.523 1.32,-0.082 0.074,0.215 -1.168,0.985 -3.258,2.016 -4.867,2.406 -10.297,3.894 -17.078,4.68 -2.676,0.308 -9.363,0.39 -11.758,0.14 z m 17.719,-4.711 c -0.262,-0.433 -0.738,-1.41 -1.058,-2.164 -0.657,-1.554 -1.266,-2.703 -1.747,-3.273 -0.375,-0.449 -0.421,-0.852 -0.109,-0.973 0.469,-0.176 1.438,1.332 2.672,4.164 0.309,0.707 0.754,1.59 0.992,1.957 0.453,0.703 0.453,1.078 0,1.078 -0.18,0 -0.426,-0.257 -0.75,-0.789 z m -28.449,-1.168 c -0.227,-0.164 -0.223,-0.269 0.113,-1.824 0.801,-3.691 1.188,-4.875 1.594,-4.875 0.422,0 0.434,0.215 0.07,1.457 -0.191,0.652 -0.539,2.063 -0.773,3.129 -0.453,2.082 -0.606,2.402 -1.004,2.113 z m 13.992,-5.617 c -2.855,-0.293 -5.887,-0.988 -8.676,-1.992 -1.972,-0.711 -4.488,-1.852 -4.648,-2.109 -0.059,-0.094 -0.012,-0.258 0.105,-0.375 0.188,-0.188 0.36,-0.141 1.633,0.437 6.781,3.094 13.652,4.094 19.735,2.871 2.492,-0.5 5.398,-1.726 7.722,-3.265 0.891,-0.586 1.207,-0.731 1.348,-0.614 0.355,0.293 0.172,0.52 -1.086,1.356 -4.516,3.004 -10.168,4.297 -16.133,3.691 z m 0.027,-1.863 c -0.195,-0.379 0.079,-2.27 0.536,-3.688 0.628,-1.957 2,-3.984 2.636,-3.89 0.489,0.074 0.438,0.289 -0.281,1.179 -1.156,1.43 -1.789,3.055 -2.137,5.461 -0.121,0.84 -0.215,1.11 -0.39,1.141 -0.129,0.023 -0.293,-0.066 -0.364,-0.203 z m 42.442,39.691 0.832,-0.086 0.086,-3.437 c 0.156,-5.875 0.859,-9.344 2.297,-11.281 1.015,-1.368 2.769,-1.356 4.32,0.035 1.727,1.543 2.492,4.008 2.77,8.91 0.152,2.719 0.281,3.418 0.714,3.883 0.356,0.382 0.782,0.382 2.243,-0.012 l 1.105,-0.301 -0.031,-1.605 c -0.051,-2.903 -0.684,-6.813 -1.52,-9.387 -1.429,-4.422 -3.703,-7.035 -6.808,-7.832 -1.075,-0.277 -3.121,-0.313 -4.161,-0.066 -4.433,1.039 -7.023,5.914 -7.023,13.214 0,3.375 0.746,7.52 1.434,7.977 0.183,0.121 2.57,0.113 3.742,-0.012 z m -4.903,-0.117 c -0.003,-0.059 -0.187,-0.684 -0.41,-1.387 -0.613,-1.941 -0.738,-3.109 -0.656,-6.254 0.16,-6.007 1.625,-10.156 4.406,-12.461 0.504,-0.417 0.895,-0.789 0.871,-0.824 -0.023,-0.039 -3.293,-0.066 -7.269,-0.062 -8.16,0.008 -8.242,0.015 -10.32,1.035 -3.754,1.844 -5.426,5.965 -5.762,14.211 -0.129,3.168 0.367,4.926 1.562,5.515 0.493,0.243 1.047,0.258 9.051,0.297 4.692,0.02 8.527,-0.011 8.527,-0.07 z m -11.285,-1.305 c -0.324,-0.406 -0.297,-5.968 0.043,-9.004 l 0.094,-0.855 -3.367,-0.039 -3.367,-0.035 -0.047,-0.309 c -0.024,-0.172 -0.024,-0.324 0,-0.34 0.023,-0.015 1.594,-0.062 3.484,-0.101 2.86,-0.063 3.457,-0.11 3.547,-0.281 0.063,-0.114 0.246,-0.641 0.406,-1.168 1.028,-3.348 3.215,-5.696 5.977,-6.418 0.555,-0.141 0.683,-0.141 0.781,0.019 0.203,0.328 0.008,0.535 -0.73,0.774 -2.942,0.941 -4.926,3.558 -5.743,7.558 -0.41,2.031 -0.597,4.613 -0.543,7.613 0.043,2.364 0.024,2.684 -0.171,2.723 -0.121,0.024 -0.286,-0.039 -0.364,-0.137 z m 2.977,-9.554 c -1.145,-0.051 -1.547,-0.266 -1.227,-0.649 0.141,-0.168 0.578,-0.187 2.692,-0.117 1.773,0.059 2.722,0.035 3.187,-0.082 0.563,-0.141 0.696,-0.133 0.871,0.043 0.164,0.164 0.172,0.246 0.039,0.41 -0.375,0.445 -1.918,0.555 -5.562,0.395 z"
           style="fill:#000000;fill-opacity:1;fill-rule:nonzero;stroke:#000000;stroke-width:1.82742596;stroke-linecap:butt;stroke-linejoin:miter;stroke-miterlimit:4;stroke-dasharray:none;stroke-opacity:1"
           id="path96"
           inkscape:connector-curvature="0" /></g></g></g></svg>