<?xml version="1.0" encoding="UTF-8" standalone="no"?>
<!-- Created with Inkscape (http://www.inkscape.org/) -->

<svg
   xmlns:dc="http://purl.org/dc/elements/1.1/"
   xmlns:cc="http://creativecommons.org/ns#"
   xmlns:rdf="http://www.w3.org/1999/02/22-rdf-syntax-ns#"
   xmlns:svg="http://www.w3.org/2000/svg"
   xmlns="http://www.w3.org/2000/svg"
   xmlns:sodipodi="http://sodipodi.sourceforge.net/DTD/sodipodi-0.dtd"
   xmlns:inkscape="http://www.inkscape.org/namespaces/inkscape"
   version="1.1"
   id="svg2"
   xml:space="preserve"
   width="1122.5197"
   height="793.70074"
   viewBox="0 0 1122.5197 793.70074"
   sodipodi:docname="Cadenas.svg"
   inkscape:version="0.92.2 5c3e80d, 2017-08-06"><metadata
     id="metadata8"><rdf:RDF><cc:Work
         rdf:about=""><dc:format>image/svg+xml</dc:format><dc:type
           rdf:resource="http://purl.org/dc/dcmitype/StillImage" /><dc:title></dc:title></cc:Work></rdf:RDF></metadata><defs
     id="defs6" /><sodipodi:namedview
     pagecolor="#ffffff"
     bordercolor="#666666"
     borderopacity="1"
     objecttolerance="10"
     gridtolerance="10"
     guidetolerance="10"
     inkscape:pageopacity="0"
     inkscape:pageshadow="2"
     inkscape:window-width="1065"
     inkscape:window-height="635"
     id="namedview4"
     showgrid="false"
     inkscape:zoom="0.79195959"
     inkscape:cx="557.3881"
     inkscape:cy="242.32763"
     inkscape:window-x="196"
     inkscape:window-y="0"
     inkscape:window-maximized="0"
     inkscape:current-layer="g12" /><g
     id="g10"
     inkscape:groupmode="layer"
     inkscape:label="Cadenas"
     transform="matrix(1.3333333,0,0,-1.3333333,0,793.70077)"><g
       id="g12"><g
         id="g14"
         transform="matrix(1,0,0,-1,0,595.27557)"><path
           d="m 49.645,24.934 h 335.003 c 14.274,0 25.77,11.492 25.77,25.769 v 335.004 c 0,14.277 -11.496,25.77 -25.77,25.77 H 49.645 c -14.278,0 -25.77,-11.493 -25.77,-25.77 V 50.703 c 0,-14.277 11.492,-25.769 25.77,-25.769 z"
           style="fill:#ff7900;fill-opacity:1;fill-rule:nonzero;stroke:#000000;stroke-width:10.30780315;stroke-linecap:round;stroke-linejoin:round;stroke-miterlimit:4;stroke-dasharray:none;stroke-opacity:1"
           id="path16"
           inkscape:connector-curvature="0" /></g><text
         transform="scale(1,-1)"
         style="font-variant:normal;font-weight:normal;font-size:40.72727585px;font-family:Arial;-inkscape-font-specification:Arial;writing-mode:lr-tb;fill:#000000;fill-opacity:1;fill-rule:nonzero;stroke:none"
         id="text20"
         x="161.0759"
         y="-212.27783"><tspan
           sodipodi:role="line"
           id="tspan18"
           x="161.0759"
           y="-212.27783">LOCK</tspan></text>
<path
         d="m 152.09,260.338 c -8.274,1.375 -16.356,8.293 -20.156,17.254 -2.098,4.953 -2.059,3.746 -2.051,59.375 0.008,55.531 -0.055,53.758 2.066,59.008 1.582,3.922 3.399,6.605 6.746,9.984 2.637,2.66 3.797,3.504 6.805,4.957 2.164,1.051 4.719,1.949 6.344,2.238 1.5,0.266 2.851,0.668 3.008,0.891 0.156,0.227 0.289,15.024 0.296,32.879 0.008,34.988 0.059,36.055 2.114,43.742 5.687,21.274 22.945,38.293 44.351,43.746 6.172,1.575 10.942,2.071 17.598,1.84 6.93,-0.238 11.25,-0.992 17.316,-3.015 9.297,-3.106 17.102,-7.903 24.02,-14.766 9.805,-9.731 15.125,-20.012 17.914,-34.606 0.352,-1.832 0.543,-11.836 0.703,-36.328 l 0.215,-33.797 3.305,-0.707 c 5.332,-1.136 8.523,-2.945 12.851,-7.293 4.098,-4.113 6.188,-7.554 7.824,-12.871 l 0.891,-2.906 0.125,-51.133 c 0.09,-36.746 0,-52 -0.316,-54.222 -0.93,-6.496 -4.11,-12.672 -8.926,-17.321 -4.168,-4.023 -8.227,-6.097 -13.649,-6.976 -3.125,-0.508 -126.336,-0.481 -129.394,0.027 z m 128.816,9.09 c 6.989,1.48 12.699,7.937 14.074,15.906 0.465,2.695 0.54,11.301 0.446,53.145 -0.102,47.265 -0.149,50.043 -0.824,52.066 -1.907,5.699 -5.653,10.266 -10.286,12.531 l -2.601,1.274 h -64.567 -64.566 l -2.953,-1.461 c -3.449,-1.703 -6.422,-4.66 -8.371,-8.317 -2.574,-4.832 -2.465,-2.125 -2.348,-58.949 l 0.106,-51.422 0.929,-2.332 c 2.715,-6.785 8.055,-11.64 13.879,-12.617 1.051,-0.176 29.469,-0.336 63.149,-0.355 52.453,-0.035 61.629,0.043 63.933,0.531 z m -68.793,32.211 c -2.449,1.183 -4.953,3.765 -6.097,6.281 -0.832,1.832 -0.891,2.531 -1.028,12.133 l -0.144,10.187 -2.121,1.606 c -3.59,2.707 -6.871,7.766 -8.145,12.562 -0.297,1.102 -0.535,3.844 -0.535,6.09 0,3.481 0.164,4.547 1.105,7.262 4.571,13.121 19.165,19.215 31.883,13.309 2.68,-1.247 3.817,-2.082 6.426,-4.723 3.617,-3.664 4.984,-5.969 6.078,-10.246 2.043,-7.996 -0.144,-16.274 -5.812,-21.969 -1.407,-1.414 -2.996,-2.863 -3.528,-3.219 l -0.972,-0.648 -0.196,-10.59 c -0.183,-10.098 -0.234,-10.664 -1.086,-12.258 -2.378,-4.457 -5.531,-6.426 -10.578,-6.601 -2.851,-0.102 -3.574,0.011 -5.25,0.824 z m 6.528,8.582 c 1.23,0.933 1.445,2.937 1.445,13.523 0,7.207 0.141,10.696 0.461,11.403 0.269,0.59 1.535,1.644 3.016,2.511 5.136,3.012 7.453,6.871 7.464,12.45 0.008,4.132 -1.07,6.824 -3.886,9.675 -2.977,3.012 -5.207,4.02 -9.391,4.231 -4.695,0.238 -7.09,-0.711 -10.562,-4.172 -2.29,-2.289 -2.688,-2.918 -3.45,-5.422 -1.097,-3.609 -0.914,-6.707 0.598,-10.07 1.176,-2.625 4.082,-5.684 6.641,-6.988 3.191,-1.629 3.058,-1.047 3.273,-14.352 l 0.195,-11.856 0.918,-0.742 c 1.071,-0.863 2.293,-0.937 3.278,-0.191 z m -39.375,132.914 c 0.007,16.094 0.179,31 0.386,33.125 0.891,9.129 4.149,16.258 10.473,22.891 5.336,5.601 11.918,9.199 19.852,10.851 2.961,0.613 4.656,0.731 8.55,0.574 5.899,-0.234 9.684,-1.156 14.746,-3.593 8.122,-3.911 13.793,-9.579 17.7,-17.696 0.972,-2.019 2.16,-5.074 2.636,-6.785 0.86,-3.074 0.871,-3.48 1.071,-35.769 l 0.203,-32.664 h 7.582 7.582 l -0.004,32.855 c -0.008,36.645 0.035,35.984 -2.75,44.309 -6.328,18.914 -22.969,32.777 -42.738,35.609 -26.375,3.773 -51.387,-12.652 -58.586,-38.473 -1.793,-6.425 -1.875,-8.281 -1.875,-42.32 l -0.008,-32.172 h 7.582 7.582 l 0.012,29.258 z m 66.386,1.652 c 0.11,32.825 0.071,33.707 -1.828,38.746 -1.883,5.004 -6.25,10.289 -11.219,13.575 -5.16,3.418 -10.851,4.906 -17.187,4.504 -4.293,-0.274 -6.813,-0.891 -10.305,-2.528 -6.98,-3.265 -12.652,-9.543 -15.187,-16.812 l -1.141,-3.27 -0.109,-32.566 -0.113,-32.567 28.496,0.102 28.492,0.098 z"
         style="fill:#000000;fill-opacity:1;fill-rule:nonzero;stroke:none"
         id="path22"
         inkscape:connector-curvature="0" /><g
         id="g24"
         transform="matrix(1,0,0,-1,0,595.27557)"><path
           d="M 457.746,24.934 H 792.75 c 14.277,0 25.77,11.492 25.77,25.769 v 335.004 c 0,14.277 -11.493,25.77 -25.77,25.77 H 457.746 c -14.277,0 -25.769,-11.493 -25.769,-25.77 V 50.703 c 0,-14.277 11.492,-25.769 25.769,-25.769 z"
           style="fill:#ff7900;fill-opacity:1;fill-rule:nonzero;stroke:#000000;stroke-width:10.30780315;stroke-linecap:round;stroke-linejoin:round;stroke-miterlimit:4;stroke-dasharray:none;stroke-opacity:1"
           id="path26"
           inkscape:connector-curvature="0" /></g><text
         transform="scale(1,-1)"
         style="font-variant:normal;font-weight:normal;font-size:40.72727585px;font-family:Arial;-inkscape-font-specification:Arial;writing-mode:lr-tb;fill:#000000;fill-opacity:1;fill-rule:nonzero;stroke:none"
         id="text30"
         x="569.17828"
         y="-212.27783"><tspan
           sodipodi:role="line"
           id="tspan28"
           x="569.17828"
           y="-212.27783">LOCK</tspan></text>
<path
         d="m 560.191,260.338 c -8.273,1.375 -16.355,8.293 -20.156,17.254 -2.097,4.953 -2.058,3.746 -2.051,59.375 0.008,55.531 -0.054,53.758 2.067,59.008 1.582,3.922 3.398,6.605 6.746,9.984 2.637,2.66 3.801,3.504 6.805,4.957 2.164,1.051 4.718,1.949 6.347,2.238 1.496,0.266 2.848,0.668 3.004,0.891 0.16,0.227 0.293,15.024 0.297,32.879 0.008,34.988 0.059,36.055 2.113,43.742 5.692,21.274 22.946,38.293 44.356,43.746 6.172,1.575 10.937,2.071 17.594,1.84 6.933,-0.238 11.25,-0.992 17.316,-3.015 9.297,-3.106 17.101,-7.903 24.019,-14.766 9.805,-9.731 15.129,-20.012 17.915,-34.606 0.351,-1.832 0.542,-11.836 0.703,-36.328 l 0.218,-33.797 3.305,-0.707 c 5.328,-1.136 8.52,-2.945 12.848,-7.293 4.097,-4.113 6.187,-7.554 7.824,-12.871 l 0.891,-2.906 0.125,-51.133 c 0.089,-36.746 0,-52 -0.317,-54.222 -0.93,-6.496 -4.109,-12.672 -8.926,-17.321 -4.168,-4.023 -8.226,-6.097 -13.648,-6.976 -3.121,-0.508 -126.336,-0.481 -129.395,0.027 z m 128.817,9.09 c 6.988,1.48 12.699,7.937 14.078,15.906 0.465,2.695 0.535,11.301 0.441,53.145 -0.101,47.265 -0.144,50.043 -0.824,52.066 -1.902,5.699 -5.648,10.266 -10.285,12.531 l -2.602,1.274 H 625.25 560.684 l -2.95,-1.461 c -3.453,-1.703 -6.425,-4.66 -8.375,-8.317 -2.574,-4.832 -2.464,-2.125 -2.347,-58.949 l 0.105,-51.422 0.934,-2.332 c 2.711,-6.785 8.054,-11.64 13.879,-12.617 1.047,-0.176 29.465,-0.336 63.144,-0.355 52.453,-0.035 61.629,0.043 63.934,0.531 z m -68.793,32.211 c -2.449,1.183 -4.949,3.765 -6.094,6.281 -0.836,1.832 -0.894,2.531 -1.031,12.133 l -0.141,10.187 -2.125,1.606 c -3.59,2.707 -6.867,7.766 -8.144,12.562 -0.293,1.102 -0.535,3.844 -0.535,6.09 0,3.481 0.164,4.547 1.109,7.262 4.566,13.121 19.164,19.215 31.883,13.309 2.676,-1.247 3.816,-2.082 6.422,-4.723 3.617,-3.664 4.984,-5.969 6.078,-10.246 2.047,-7.996 -0.145,-16.274 -5.813,-21.969 -1.406,-1.414 -2.992,-2.863 -3.527,-3.219 l -0.973,-0.648 -0.195,-10.59 c -0.184,-10.098 -0.234,-10.664 -1.086,-12.258 -2.379,-4.457 -5.531,-6.426 -10.578,-6.601 -2.848,-0.102 -3.574,0.011 -5.25,0.824 z m 6.527,8.582 c 1.231,0.933 1.446,2.937 1.446,13.523 0,7.207 0.14,10.696 0.46,11.403 0.27,0.59 1.536,1.644 3.016,2.511 5.141,3.012 7.453,6.871 7.465,12.45 0.008,4.132 -1.07,6.824 -3.887,9.675 -2.972,3.012 -5.207,4.02 -9.387,4.231 -4.699,0.238 -7.093,-0.711 -10.562,-4.172 -2.293,-2.289 -2.691,-2.918 -3.453,-5.422 -1.098,-3.609 -0.91,-6.707 0.598,-10.07 1.179,-2.625 4.085,-5.684 6.64,-6.988 3.192,-1.629 3.059,-1.047 3.277,-14.352 l 0.192,-11.856 0.918,-0.742 c 1.07,-0.863 2.297,-0.937 3.277,-0.191 z m -39.371,132.914 c 0.008,16.094 0.18,31 0.383,33.125 0.891,9.129 4.148,16.258 10.473,22.891 5.336,5.601 11.918,9.199 19.851,10.851 2.961,0.613 4.656,0.731 8.555,0.574 5.894,-0.234 9.68,-1.156 14.742,-3.593 8.125,-3.911 13.793,-9.579 17.699,-17.696 0.973,-2.019 2.16,-5.074 2.637,-6.785 0.859,-3.074 0.871,-3.48 1.07,-35.769 l 0.207,-32.664 h 7.582 7.582 l -0.007,32.855 c -0.008,36.645 0.035,35.984 -2.75,44.309 -6.329,18.914 -22.969,32.777 -42.739,35.609 -26.375,3.773 -51.386,-12.652 -58.586,-38.473 -1.789,-6.425 -1.871,-8.281 -1.875,-42.32 l -0.007,-32.172 h 7.582 7.582 l 0.011,29.258 z m 66.387,1.652 c 0.105,32.825 0.066,33.707 -1.828,38.746 -1.887,5.004 -6.25,10.289 -11.219,13.575 -5.164,3.418 -10.856,4.906 -17.191,4.504 -4.293,-0.274 -6.809,-0.891 -10.301,-2.528 -6.985,-3.265 -12.656,-9.543 -15.192,-16.812 l -1.14,-3.27 -0.11,-32.566 -0.109,-32.567 28.492,0.102 28.496,0.098 z"
         style="fill:#000000;fill-opacity:1;fill-rule:nonzero;stroke:none"
         id="path32"
         inkscape:connector-curvature="0" /><g
         id="g34"
         transform="matrix(1,0,0,-1,0,595.27557)"><path
           d="m 29.027,428.398 h 134.004 c 5.707,0 10.305,4.598 10.305,10.309 v 134 c 0,5.711 -4.598,10.309 -10.305,10.309 H 29.027 c -5.711,0 -10.308,-4.598 -10.308,-10.309 v -134 c 0,-5.711 4.597,-10.309 10.308,-10.309 z"
           style="fill:#ff7900;fill-opacity:1;fill-rule:nonzero;stroke:#000000;stroke-width:4.12312078;stroke-linecap:round;stroke-linejoin:round;stroke-miterlimit:4;stroke-dasharray:none;stroke-opacity:1"
           id="path36"
           inkscape:connector-curvature="0" /></g><text
         transform="scale(1,-1)"
         style="font-variant:normal;font-weight:normal;font-size:16.29091072px;font-family:Arial;-inkscape-font-specification:Arial;writing-mode:lr-tb;fill:#000000;fill-opacity:1;fill-rule:nonzero;stroke:none"
         id="text40"
         x="74.800972"
         y="-23.652534"><tspan
           sodipodi:role="line"
           id="tspan38"
           x="74.800972"
           y="-23.652534">LOCK</tspan></text>
<path
         d="m 70.008,42.877 c -3.313,0.551 -6.543,3.317 -8.063,6.902 -0.84,1.981 -0.824,1.497 -0.82,23.75 0,22.211 -0.023,21.504 0.824,23.602 0.633,1.57 1.36,2.645 2.699,3.992 1.055,1.067 1.52,1.403 2.723,1.985 0.867,0.421 1.887,0.781 2.539,0.894 0.598,0.106 1.137,0.266 1.203,0.36 0.063,0.089 0.114,6.007 0.117,13.148 0.004,13.996 0.024,14.422 0.844,17.496 2.278,8.512 9.18,15.32 17.742,17.5 2.469,0.629 4.375,0.828 7.039,0.738 2.774,-0.097 4.5,-0.398 6.926,-1.207 3.719,-1.242 6.84,-3.16 9.61,-5.906 3.922,-3.894 6.05,-8.008 7.164,-13.844 0.14,-0.734 0.218,-4.734 0.281,-14.531 l 0.086,-13.519 1.324,-0.282 c 2.133,-0.453 3.406,-1.179 5.137,-2.918 1.64,-1.644 2.476,-3.019 3.133,-5.148 l 0.355,-1.164 0.051,-20.449 c 0.035,-14.7 0,-20.801 -0.129,-21.692 -0.371,-2.597 -1.645,-5.066 -3.57,-6.926 -1.664,-1.609 -3.289,-2.441 -5.457,-2.793 -1.25,-0.203 -50.536,-0.191 -51.758,0.012 z m 51.527,3.637 c 2.793,0.59 5.078,3.172 5.629,6.363 0.184,1.074 0.215,4.52 0.176,21.254 -0.039,18.906 -0.059,20.02 -0.328,20.828 -0.762,2.281 -2.262,4.106 -4.114,5.012 l -1.043,0.512 H 96.031 70.203 l -1.18,-0.586 c -1.382,-0.68 -2.57,-1.864 -3.351,-3.325 -1.027,-1.933 -0.984,-0.851 -0.938,-23.582 l 0.043,-20.57 0.371,-0.93 c 1.086,-2.714 3.223,-4.656 5.551,-5.046 0.422,-0.071 11.789,-0.137 25.262,-0.145 20.98,-0.012 24.648,0.02 25.574,0.215 z M 94.016,59.397 c -0.981,0.472 -1.981,1.507 -2.438,2.511 -0.332,0.735 -0.359,1.012 -0.41,4.856 l -0.059,4.074 -0.851,0.641 c -1.434,1.082 -2.746,3.109 -3.258,5.027 -0.117,0.441 -0.211,1.535 -0.211,2.434 0,1.394 0.063,1.82 0.441,2.906 1.829,5.25 7.665,7.687 12.754,5.324 1.071,-0.5 1.528,-0.836 2.571,-1.891 1.445,-1.464 1.992,-2.386 2.429,-4.097 0.817,-3.199 -0.058,-6.508 -2.324,-8.789 -0.562,-0.563 -1.199,-1.145 -1.41,-1.285 l -0.391,-0.262 -0.078,-4.234 c -0.074,-4.04 -0.093,-4.266 -0.433,-4.903 -0.953,-1.785 -2.211,-2.57 -4.231,-2.64 -1.14,-0.043 -1.429,0.003 -2.101,0.328 z m 2.609,3.433 c 0.492,0.371 0.578,1.176 0.578,5.41 0,2.883 0.059,4.278 0.188,4.559 0.105,0.238 0.613,0.66 1.203,1.004 2.058,1.207 2.984,2.75 2.988,4.98 0.004,1.653 -0.43,2.731 -1.555,3.871 -1.191,1.208 -2.082,1.61 -3.757,1.692 -1.879,0.094 -2.836,-0.281 -4.223,-1.668 -0.918,-0.914 -1.078,-1.168 -1.383,-2.168 -0.437,-1.445 -0.363,-2.684 0.242,-4.027 0.469,-1.051 1.633,-2.274 2.657,-2.797 1.273,-0.653 1.222,-0.418 1.308,-5.742 l 0.078,-4.739 0.367,-0.301 c 0.426,-0.343 0.918,-0.371 1.309,-0.074 z m -15.746,53.164 c 0,6.438 0.07,12.403 0.152,13.25 0.356,3.653 1.66,6.504 4.188,9.157 2.136,2.242 4.769,3.679 7.941,4.339 1.184,0.247 1.863,0.293 3.422,0.231 2.359,-0.094 3.871,-0.461 5.898,-1.438 3.25,-1.562 5.516,-3.832 7.079,-7.078 0.39,-0.808 0.863,-2.027 1.054,-2.711 0.344,-1.23 0.348,-1.394 0.43,-14.308 l 0.082,-13.067 h 3.031 3.035 l -0.003,13.141 c -0.004,14.66 0.015,14.394 -1.102,17.723 -2.531,7.566 -9.188,13.113 -17.094,14.246 -10.551,1.508 -20.554,-5.063 -23.433,-15.391 -0.719,-2.57 -0.75,-3.312 -0.75,-16.926 l -0.004,-12.871 h 3.031 3.035 l 0.004,11.703 z m 26.555,0.66 c 0.043,13.129 0.023,13.485 -0.735,15.5 -0.754,2.004 -2.5,4.118 -4.484,5.43 -2.067,1.367 -4.344,1.965 -6.875,1.801 -1.719,-0.109 -2.727,-0.356 -4.125,-1.008 -2.793,-1.308 -5.059,-3.82 -6.074,-6.726 l -0.457,-1.309 -0.043,-13.027 -0.043,-13.024 11.394,0.039 11.399,0.039 z"
         style="fill:#000000;fill-opacity:1;fill-rule:nonzero;stroke:none"
         id="path42"
         inkscape:connector-curvature="0" /><g
         id="g44"
         transform="matrix(1,0,0,-1,0,595.27557)"><path
           d="m 203.852,430.461 h 134 c 5.711,0 10.308,4.594 10.308,10.305 V 574.77 c 0,5.71 -4.597,10.304 -10.308,10.304 h -134 c -5.711,0 -10.309,-4.594 -10.309,-10.304 V 440.766 c 0,-5.711 4.598,-10.305 10.309,-10.305 z"
           style="fill:#ff7900;fill-opacity:1;fill-rule:nonzero;stroke:#000000;stroke-width:4.12312078;stroke-linecap:round;stroke-linejoin:round;stroke-miterlimit:4;stroke-dasharray:none;stroke-opacity:1"
           id="path46"
           inkscape:connector-curvature="0" /></g><text
         transform="scale(1,-1)"
         style="font-variant:normal;font-weight:normal;font-size:16.29091072px;font-family:Arial;-inkscape-font-specification:Arial;writing-mode:lr-tb;fill:#000000;fill-opacity:1;fill-rule:nonzero;stroke:none"
         id="text50"
         x="249.62408"
         y="-21.590975"><tspan
           sodipodi:role="line"
           id="tspan48"
           x="249.62408"
           y="-21.590975">LOCK</tspan></text>
<path
         d="m 244.828,40.815 c -3.308,0.55 -6.543,3.316 -8.062,6.902 -0.84,1.98 -0.821,1.496 -0.821,23.75 0.004,22.211 -0.019,21.504 0.828,23.602 0.633,1.57 1.36,2.644 2.7,3.996 1.054,1.062 1.519,1.402 2.722,1.98 0.864,0.422 1.887,0.781 2.535,0.895 0.602,0.109 1.141,0.269 1.204,0.359 0.062,0.09 0.117,6.008 0.117,13.152 0.004,13.993 0.027,14.418 0.847,17.496 2.278,8.508 9.18,15.317 17.743,17.497 2.468,0.628 4.375,0.828 7.039,0.738 2.769,-0.098 4.5,-0.399 6.925,-1.207 3.719,-1.242 6.84,-3.16 9.606,-5.906 3.922,-3.895 6.051,-8.004 7.168,-13.844 0.141,-0.731 0.215,-4.735 0.281,-14.531 l 0.086,-13.516 1.32,-0.285 c 2.133,-0.453 3.411,-1.18 5.141,-2.918 1.641,-1.645 2.477,-3.02 3.129,-5.149 l 0.359,-1.16 0.051,-20.453 c 0.035,-14.699 0,-20.801 -0.129,-21.691 -0.371,-2.598 -1.644,-5.067 -3.57,-6.926 -1.668,-1.609 -3.289,-2.442 -5.461,-2.793 -1.246,-0.203 -50.531,-0.191 -51.758,0.012 z m 51.527,3.636 c 2.797,0.59 5.083,3.176 5.633,6.364 0.184,1.078 0.215,4.519 0.176,21.257 -0.043,18.907 -0.059,20.016 -0.328,20.825 -0.762,2.281 -2.262,4.105 -4.117,5.011 l -1.039,0.512 h -25.828 -25.825 l -1.179,-0.586 c -1.383,-0.68 -2.571,-1.863 -3.352,-3.324 -1.027,-1.934 -0.984,-0.852 -0.937,-23.582 l 0.039,-20.566 0.375,-0.934 c 1.086,-2.715 3.222,-4.656 5.55,-5.047 0.422,-0.07 11.786,-0.133 25.258,-0.144 20.981,-0.012 24.653,0.019 25.574,0.214 z M 268.84,57.334 c -0.981,0.477 -1.981,1.508 -2.438,2.516 -0.336,0.73 -0.359,1.012 -0.414,4.851 l -0.054,4.075 -0.852,0.64 c -1.434,1.086 -2.746,3.11 -3.258,5.028 -0.117,0.441 -0.215,1.535 -0.215,2.433 0,1.395 0.067,1.82 0.446,2.906 1.828,5.25 7.664,7.688 12.754,5.325 1.07,-0.5 1.523,-0.832 2.566,-1.891 1.449,-1.465 1.996,-2.387 2.434,-4.098 0.816,-3.199 -0.059,-6.507 -2.325,-8.785 -0.562,-0.566 -1.199,-1.148 -1.414,-1.289 l -0.386,-0.258 -0.079,-4.238 c -0.074,-4.039 -0.093,-4.266 -0.433,-4.902 -0.953,-1.785 -2.215,-2.571 -4.234,-2.641 -1.137,-0.043 -1.43,0.004 -2.098,0.328 z m 2.609,3.434 c 0.492,0.375 0.578,1.176 0.578,5.41 0,2.883 0.059,4.277 0.184,4.559 0.109,0.238 0.617,0.66 1.207,1.007 2.055,1.203 2.98,2.746 2.988,4.981 0,1.652 -0.429,2.726 -1.554,3.867 -1.192,1.207 -2.086,1.609 -3.758,1.691 -1.879,0.098 -2.836,-0.281 -4.223,-1.668 -0.918,-0.914 -1.078,-1.164 -1.383,-2.168 -0.437,-1.441 -0.363,-2.683 0.239,-4.027 0.472,-1.051 1.636,-2.273 2.656,-2.797 1.277,-0.652 1.222,-0.418 1.312,-5.738 l 0.078,-4.742 0.368,-0.297 c 0.425,-0.348 0.918,-0.375 1.308,-0.078 z m -15.75,53.164 c 0.004,6.437 0.074,12.402 0.156,13.254 0.356,3.648 1.661,6.5 4.188,9.156 2.133,2.238 4.766,3.676 7.941,4.34 1.184,0.246 1.864,0.289 3.422,0.226 2.36,-0.093 3.871,-0.461 5.895,-1.437 3.25,-1.563 5.519,-3.828 7.082,-7.074 0.39,-0.809 0.863,-2.032 1.055,-2.715 0.343,-1.231 0.347,-1.395 0.429,-14.309 l 0.082,-13.066 h 3.031 3.032 v 13.144 c -0.004,14.657 0.011,14.391 -1.102,17.723 -2.531,7.566 -9.187,13.109 -17.094,14.242 -10.55,1.512 -20.554,-5.058 -23.433,-15.39 -0.719,-2.567 -0.75,-3.309 -0.754,-16.926 v -12.871 h 3.031 3.035 z m 26.555,0.664 c 0.043,13.129 0.027,13.48 -0.731,15.496 -0.753,2.004 -2.5,4.117 -4.488,5.43 -2.062,1.367 -4.34,1.965 -6.875,1.8 -1.715,-0.109 -2.722,-0.355 -4.121,-1.007 -2.793,-1.309 -5.062,-3.817 -6.074,-6.727 l -0.457,-1.309 -0.043,-13.023 -0.047,-13.027 11.398,0.039 11.399,0.039 z"
         style="fill:#000000;fill-opacity:1;fill-rule:nonzero;stroke:none"
         id="path52"
         inkscape:connector-curvature="0" /><g
         id="g54"
         transform="matrix(1,0,0,-1,0,595.27557)"><path
           d="m 435.656,429.871 h 95.719 c 4.078,0 7.359,3.281 7.359,7.363 v 95.715 c 0,4.078 -3.281,7.364 -7.359,7.364 h -95.719 c -4.078,0 -7.359,-3.286 -7.359,-7.364 v -95.715 c 0,-4.082 3.281,-7.363 7.359,-7.363 z"
           style="fill:#ff7900;fill-opacity:1;fill-rule:nonzero;stroke:#000000;stroke-width:2.94508696;stroke-linecap:round;stroke-linejoin:round;stroke-miterlimit:4;stroke-dasharray:none;stroke-opacity:1"
           id="path56"
           inkscape:connector-curvature="0" /></g><text
         transform="scale(1,-1)"
         style="font-variant:normal;font-weight:normal;font-size:11.63636398px;font-family:Arial;-inkscape-font-specification:Arial;writing-mode:lr-tb;fill:#000000;fill-opacity:1;fill-rule:nonzero;stroke:none"
         id="text60"
         x="467.4957"
         y="-63.101566"><tspan
           sodipodi:role="line"
           id="tspan58"
           x="467.4957"
           y="-63.101566">LOCK</tspan></text>
<path
         d="m 464.93,76.834 c -2.367,0.391 -4.676,2.367 -5.762,4.93 -0.598,1.414 -0.586,1.07 -0.586,16.965 0.004,15.863 -0.016,15.359 0.59,16.859 0.453,1.117 0.973,1.887 1.93,2.852 0.753,0.757 1.086,1 1.945,1.418 0.617,0.296 1.348,0.554 1.812,0.636 0.426,0.075 0.813,0.192 0.86,0.254 0.043,0.067 0.082,4.293 0.082,9.395 0.004,9.996 0.019,10.301 0.605,12.496 1.625,6.082 6.555,10.945 12.672,12.5 1.762,0.449 3.125,0.594 5.027,0.527 1.981,-0.07 3.215,-0.285 4.95,-0.863 2.656,-0.887 4.886,-2.258 6.859,-4.219 2.805,-2.777 4.324,-5.715 5.121,-9.887 0.098,-0.523 0.156,-3.378 0.199,-10.378 l 0.063,-9.657 0.945,-0.203 c 1.524,-0.324 2.434,-0.84 3.672,-2.082 1.168,-1.176 1.766,-2.16 2.234,-3.68 l 0.254,-0.828 0.036,-14.609 c 0.027,-10.5 0,-14.856 -0.09,-15.492 -0.266,-1.856 -1.176,-3.621 -2.551,-4.949 -1.192,-1.149 -2.352,-1.743 -3.899,-1.993 -0.894,-0.144 -36.097,-0.136 -36.968,0.008 z m 36.804,2.598 c 1.996,0.422 3.629,2.265 4.02,4.543 0.133,0.769 0.152,3.23 0.129,15.183 -0.031,13.504 -0.043,14.297 -0.238,14.875 -0.543,1.629 -1.614,2.934 -2.938,3.582 l -0.742,0.364 H 483.516 465.07 l -0.843,-0.418 c -0.989,-0.485 -1.836,-1.328 -2.395,-2.375 -0.734,-1.379 -0.703,-0.606 -0.668,-16.844 l 0.027,-14.691 0.266,-0.664 c 0.777,-1.942 2.305,-3.329 3.969,-3.606 0.297,-0.051 8.418,-0.098 18.039,-0.102 14.988,-0.011 17.609,0.012 18.269,0.153 z m -19.656,9.199 c -0.699,0.34 -1.414,1.078 -1.742,1.797 -0.238,0.523 -0.254,0.723 -0.293,3.465 l -0.043,2.914 -0.605,0.457 c -1.024,0.773 -1.961,2.219 -2.329,3.59 -0.082,0.312 -0.152,1.097 -0.152,1.738 0,0.996 0.047,1.301 0.316,2.074 1.305,3.75 5.477,5.492 9.11,3.805 0.765,-0.356 1.09,-0.594 1.836,-1.352 1.035,-1.047 1.426,-1.703 1.738,-2.925 0.582,-2.286 -0.043,-4.649 -1.66,-6.278 -0.402,-0.402 -0.859,-0.816 -1.012,-0.918 l -0.277,-0.187 -0.055,-3.024 c -0.055,-2.886 -0.066,-3.047 -0.308,-3.504 -0.68,-1.273 -1.582,-1.836 -3.024,-1.886 -0.816,-0.028 -1.019,0.004 -1.5,0.238 z m 1.863,2.453 c 0.352,0.27 0.414,0.84 0.414,3.863 0,2.063 0.04,3.059 0.133,3.258 0.075,0.168 0.438,0.473 0.86,0.719 1.468,0.859 2.129,1.965 2.132,3.559 0.004,1.179 -0.304,1.949 -1.109,2.761 -0.851,0.864 -1.488,1.149 -2.683,1.211 -1.34,0.067 -2.024,-0.203 -3.016,-1.191 -0.656,-0.656 -0.77,-0.836 -0.988,-1.551 -0.313,-1.031 -0.258,-1.918 0.171,-2.879 0.336,-0.75 1.168,-1.621 1.899,-1.996 0.91,-0.465 0.871,-0.297 0.934,-4.098 l 0.058,-3.386 0.262,-0.215 c 0.305,-0.246 0.652,-0.266 0.933,-0.055 z m -11.25,37.977 c 0.004,4.597 0.055,8.855 0.114,9.465 0.254,2.609 1.183,4.644 2.992,6.539 1.523,1.601 3.402,2.629 5.672,3.101 0.844,0.176 1.328,0.207 2.441,0.164 1.688,-0.066 2.766,-0.332 4.215,-1.027 2.32,-1.117 3.941,-2.738 5.055,-5.055 0.277,-0.578 0.617,-1.449 0.754,-1.937 0.246,-0.879 0.25,-0.996 0.304,-10.223 l 0.059,-9.332 h 2.168 2.164 v 9.387 c -0.004,10.469 0.012,10.281 -0.785,12.66 -1.809,5.402 -6.563,9.367 -12.211,10.176 -7.535,1.078 -14.684,-3.617 -16.738,-10.992 -0.512,-1.836 -0.536,-2.368 -0.536,-12.094 l -0.004,-9.192 h 2.168 2.165 z m 18.969,0.472 c 0.031,9.379 0.02,9.629 -0.523,11.071 -0.535,1.429 -1.785,2.941 -3.203,3.879 -1.477,0.976 -3.102,1.402 -4.911,1.285 -1.226,-0.078 -1.949,-0.254 -2.945,-0.723 -1.996,-0.933 -3.613,-2.726 -4.34,-4.805 l -0.324,-0.929 -0.035,-9.305 -0.031,-9.305 8.144,0.028 8.141,0.027 z"
         style="fill:#000000;fill-opacity:1;fill-rule:nonzero;stroke:none"
         id="path62"
         inkscape:connector-curvature="0" /><g
         id="g64"
         transform="matrix(1,0,0,-1,0,595.27557)"><path
           d="m 562.957,429.871 h 95.715 c 4.078,0 7.363,3.281 7.363,7.363 v 95.715 c 0,4.078 -3.285,7.364 -7.363,7.364 h -95.715 c -4.078,0 -7.363,-3.286 -7.363,-7.364 v -95.715 c 0,-4.082 3.285,-7.363 7.363,-7.363 z"
           style="fill:#ff7900;fill-opacity:1;fill-rule:nonzero;stroke:#000000;stroke-width:2.94508696;stroke-linecap:round;stroke-linejoin:round;stroke-miterlimit:4;stroke-dasharray:none;stroke-opacity:1"
           id="path66"
           inkscape:connector-curvature="0" /></g><text
         transform="scale(1,-1)"
         style="font-variant:normal;font-weight:normal;font-size:11.63636398px;font-family:Arial;-inkscape-font-specification:Arial;writing-mode:lr-tb;fill:#000000;fill-opacity:1;fill-rule:nonzero;stroke:none"
         id="text70"
         x="594.7937"
         y="-63.101566"><tspan
           sodipodi:role="line"
           id="tspan68"
           x="594.7937"
           y="-63.101566">LOCK</tspan></text>
<path
         d="m 592.227,76.834 c -2.364,0.391 -4.672,2.367 -5.758,4.93 -0.602,1.414 -0.59,1.07 -0.586,16.965 0,15.863 -0.016,15.359 0.59,16.859 0.453,1.117 0.968,1.887 1.925,2.852 0.754,0.757 1.086,1 1.946,1.418 0.617,0.296 1.347,0.554 1.812,0.636 0.43,0.075 0.817,0.192 0.86,0.254 0.043,0.067 0.082,4.293 0.082,9.395 0.004,9.996 0.019,10.301 0.605,12.496 1.625,6.082 6.555,10.945 12.672,12.5 1.766,0.449 3.125,0.594 5.027,0.527 1.981,-0.07 3.215,-0.285 4.95,-0.863 2.656,-0.887 4.886,-2.258 6.863,-4.219 2.801,-2.777 4.32,-5.715 5.117,-9.887 0.102,-0.523 0.156,-3.378 0.199,-10.378 l 0.063,-9.657 0.945,-0.203 c 1.524,-0.324 2.434,-0.84 3.672,-2.082 1.172,-1.176 1.769,-2.16 2.234,-3.68 l 0.254,-0.828 0.039,-14.609 c 0.024,-10.5 0,-14.856 -0.093,-15.492 -0.266,-1.856 -1.172,-3.621 -2.551,-4.949 -1.188,-1.149 -2.348,-1.743 -3.899,-1.993 -0.89,-0.144 -36.093,-0.136 -36.968,0.008 z m 36.804,2.598 c 1.996,0.422 3.629,2.265 4.02,4.543 0.133,0.769 0.156,3.23 0.129,15.183 -0.032,13.504 -0.043,14.297 -0.235,14.875 -0.547,1.629 -1.617,2.934 -2.941,3.582 l -0.742,0.364 h -18.449 -18.446 l -0.844,-0.418 c -0.984,-0.485 -1.835,-1.328 -2.39,-2.375 -0.738,-1.379 -0.707,-0.606 -0.672,-16.844 l 0.031,-14.691 0.266,-0.664 c 0.773,-1.942 2.301,-3.329 3.965,-3.606 0.3,-0.051 8.418,-0.098 18.043,-0.102 14.984,-0.011 17.605,0.012 18.265,0.153 z m -19.656,9.199 c -0.699,0.34 -1.414,1.078 -1.742,1.797 -0.238,0.523 -0.254,0.723 -0.293,3.465 l -0.039,2.914 -0.61,0.457 c -1.023,0.773 -1.961,2.219 -2.324,3.59 -0.086,0.312 -0.156,1.097 -0.156,1.738 0,0.996 0.047,1.301 0.316,2.074 1.309,3.75 5.477,5.492 9.11,3.805 0.765,-0.356 1.093,-0.594 1.836,-1.352 1.035,-1.047 1.425,-1.703 1.738,-2.925 0.582,-2.286 -0.043,-4.649 -1.66,-6.278 -0.403,-0.402 -0.856,-0.816 -1.008,-0.918 l -0.277,-0.187 -0.059,-3.024 c -0.051,-2.886 -0.066,-3.047 -0.309,-3.504 -0.679,-1.273 -1.582,-1.836 -3.023,-1.886 -0.812,-0.028 -1.02,0.004 -1.5,0.238 z m 1.867,2.453 c 0.352,0.27 0.41,0.84 0.41,3.863 0,2.063 0.043,3.059 0.133,3.258 0.078,0.168 0.438,0.473 0.863,0.719 1.465,0.859 2.129,1.965 2.133,3.559 0,1.179 -0.308,1.949 -1.113,2.761 -0.848,0.864 -1.488,1.149 -2.68,1.211 -1.343,0.067 -2.027,-0.203 -3.019,-1.191 -0.653,-0.656 -0.77,-0.836 -0.985,-1.551 -0.316,-1.031 -0.261,-1.918 0.168,-2.879 0.336,-0.75 1.168,-1.621 1.899,-1.996 0.91,-0.465 0.875,-0.297 0.937,-4.098 l 0.055,-3.386 0.262,-0.215 c 0.304,-0.246 0.656,-0.266 0.937,-0.055 z m -11.25,37.977 c 0,4.597 0.051,8.855 0.11,9.465 0.253,2.609 1.183,4.644 2.992,6.539 1.523,1.601 3.402,2.629 5.672,3.101 0.843,0.176 1.328,0.207 2.441,0.164 1.688,-0.066 2.77,-0.332 4.215,-1.027 2.32,-1.117 3.941,-2.738 5.058,-5.055 0.278,-0.578 0.614,-1.449 0.75,-1.937 0.247,-0.879 0.25,-0.996 0.309,-10.223 l 0.059,-9.332 h 2.164 2.168 l -0.004,9.387 c 0,10.469 0.012,10.281 -0.785,12.66 -1.809,5.402 -6.563,9.367 -12.211,10.176 -7.535,1.078 -14.68,-3.617 -16.739,-10.992 -0.511,-1.836 -0.535,-2.368 -0.535,-12.094 l -0.004,-9.192 h 2.168 2.164 l 0.004,8.36 z m 18.965,0.472 c 0.031,9.379 0.02,9.629 -0.519,11.071 -0.54,1.429 -1.786,2.941 -3.208,3.879 -1.472,0.976 -3.101,1.402 -4.91,1.285 -1.226,-0.078 -1.945,-0.254 -2.945,-0.723 -1.992,-0.933 -3.613,-2.726 -4.34,-4.805 l -0.324,-0.929 -0.031,-9.305 -0.032,-9.305 8.141,0.028 8.141,0.027 z"
         style="fill:#000000;fill-opacity:1;fill-rule:nonzero;stroke:none"
         id="path72"
         inkscape:connector-curvature="0" /><g
         id="g74"
         transform="matrix(1,0,0,-1,0,595.27557)"><path
           d="m 690.789,429.871 h 95.715 c 4.078,0 7.363,3.281 7.363,7.363 v 95.715 c 0,4.078 -3.285,7.364 -7.363,7.364 h -95.715 c -4.078,0 -7.363,-3.286 -7.363,-7.364 v -95.715 c 0,-4.082 3.285,-7.363 7.363,-7.363 z"
           style="fill:#ff7900;fill-opacity:1;fill-rule:nonzero;stroke:#000000;stroke-width:2.94508696;stroke-linecap:round;stroke-linejoin:round;stroke-miterlimit:4;stroke-dasharray:none;stroke-opacity:1"
           id="path76"
           inkscape:connector-curvature="0" /></g><text
         transform="scale(1,-1)"
         style="font-variant:normal;font-weight:normal;font-size:11.63636398px;font-family:Arial;-inkscape-font-specification:Arial;writing-mode:lr-tb;fill:#000000;fill-opacity:1;fill-rule:nonzero;stroke:none"
         id="text80"
         x="722.62653"
         y="-63.101566"><tspan
           sodipodi:role="line"
           id="tspan78"
           x="722.62653"
           y="-63.101566">LOCK</tspan></text>
<path
         d="m 720.059,76.834 c -2.364,0.391 -4.672,2.367 -5.758,4.93 -0.602,1.414 -0.59,1.07 -0.586,16.965 0,15.863 -0.016,15.359 0.59,16.859 0.453,1.117 0.972,1.887 1.925,2.852 0.754,0.757 1.086,1 1.946,1.418 0.617,0.296 1.347,0.554 1.812,0.636 0.43,0.075 0.817,0.192 0.86,0.254 0.047,0.067 0.082,4.293 0.086,9.395 0,9.996 0.015,10.301 0.601,12.496 1.629,6.082 6.559,10.945 12.676,12.5 1.762,0.449 3.125,0.594 5.023,0.527 1.985,-0.07 3.215,-0.285 4.95,-0.863 2.656,-0.887 4.886,-2.258 6.863,-4.219 2.801,-2.777 4.32,-5.715 5.117,-9.887 0.102,-0.523 0.156,-3.378 0.203,-10.378 l 0.063,-9.657 0.941,-0.203 c 1.524,-0.324 2.434,-0.84 3.672,-2.082 1.172,-1.176 1.77,-2.16 2.234,-3.68 l 0.258,-0.828 0.035,-14.609 c 0.024,-10.5 0,-14.856 -0.09,-15.492 -0.265,-1.856 -1.175,-3.621 -2.55,-4.949 -1.192,-1.149 -2.352,-1.743 -3.903,-1.993 -0.89,-0.144 -36.093,-0.136 -36.968,0.008 z m 36.804,2.598 c 1.996,0.422 3.629,2.265 4.024,4.543 0.133,0.769 0.152,3.23 0.125,15.183 -0.028,13.504 -0.043,14.297 -0.235,14.875 -0.543,1.629 -1.613,2.934 -2.937,3.582 l -0.746,0.364 h -18.446 -18.449 l -0.844,-0.418 c -0.984,-0.485 -1.835,-1.328 -2.39,-2.375 -0.735,-1.379 -0.707,-0.606 -0.672,-16.844 l 0.031,-14.691 0.266,-0.664 c 0.773,-1.942 2.301,-3.329 3.965,-3.606 0.3,-0.051 8.418,-0.098 18.043,-0.102 14.984,-0.011 17.605,0.012 18.265,0.153 z m -19.656,9.199 c -0.699,0.34 -1.414,1.078 -1.738,1.797 -0.239,0.523 -0.258,0.723 -0.297,3.465 l -0.039,2.914 -0.61,0.457 c -1.023,0.773 -1.96,2.219 -2.324,3.59 -0.086,0.312 -0.152,1.097 -0.152,1.738 0,0.996 0.047,1.301 0.316,2.074 1.305,3.75 5.473,5.492 9.11,3.805 0.761,-0.356 1.09,-0.594 1.836,-1.352 1.031,-1.047 1.421,-1.703 1.734,-2.925 0.586,-2.286 -0.039,-4.649 -1.66,-6.278 -0.403,-0.402 -0.856,-0.816 -1.008,-0.918 l -0.277,-0.187 -0.055,-3.024 c -0.055,-2.886 -0.07,-3.047 -0.313,-3.504 -0.679,-1.273 -1.578,-1.836 -3.023,-1.886 -0.812,-0.028 -1.019,0.004 -1.5,0.238 z m 1.867,2.453 c 0.352,0.27 0.41,0.84 0.41,3.863 0,2.063 0.043,3.059 0.133,3.258 0.078,0.168 0.442,0.473 0.863,0.719 1.469,0.859 2.129,1.965 2.133,3.559 0,1.179 -0.308,1.949 -1.109,2.761 -0.852,0.864 -1.488,1.149 -2.684,1.211 -1.343,0.067 -2.027,-0.203 -3.019,-1.191 -0.653,-0.656 -0.77,-0.836 -0.985,-1.551 -0.312,-1.031 -0.261,-1.918 0.172,-2.879 0.336,-0.75 1.164,-1.621 1.895,-1.996 0.914,-0.465 0.875,-0.297 0.937,-4.098 l 0.055,-3.386 0.262,-0.215 c 0.304,-0.246 0.656,-0.266 0.937,-0.055 z m -11.25,37.977 c 0.004,4.597 0.051,8.855 0.11,9.465 0.254,2.609 1.187,4.644 2.992,6.539 1.523,1.601 3.406,2.629 5.672,3.101 0.847,0.176 1.332,0.207 2.445,0.164 1.684,-0.066 2.766,-0.332 4.211,-1.027 2.32,-1.117 3.941,-2.738 5.059,-5.055 0.277,-0.578 0.617,-1.449 0.753,-1.937 0.243,-0.879 0.247,-0.996 0.305,-10.223 l 0.059,-9.332 h 2.164 2.168 l -0.004,9.387 c 0,10.469 0.012,10.281 -0.785,12.66 -1.809,5.402 -6.563,9.367 -12.211,10.176 -7.535,1.078 -14.68,-3.617 -16.739,-10.992 -0.511,-1.836 -0.535,-2.368 -0.535,-12.094 v -9.192 h 2.164 2.168 v 8.36 z m 18.969,0.472 c 0.031,9.379 0.02,9.629 -0.523,11.071 -0.54,1.429 -1.786,2.941 -3.207,3.879 -1.473,0.976 -3.102,1.402 -4.911,1.285 -1.226,-0.078 -1.945,-0.254 -2.941,-0.723 -1.996,-0.933 -3.617,-2.726 -4.344,-4.805 l -0.324,-0.929 -0.031,-9.305 -0.032,-9.305 8.141,0.028 8.141,0.027 z"
         style="fill:#000000;fill-opacity:1;fill-rule:nonzero;stroke:none"
         id="path82"
         inkscape:connector-curvature="0" /></g></g></svg>