<?xml version="1.0" encoding="UTF-8" standalone="no"?>
<!-- Created with Inkscape (http://www.inkscape.org/) -->

<svg
   xmlns:dc="http://purl.org/dc/elements/1.1/"
   xmlns:cc="http://creativecommons.org/ns#"
   xmlns:rdf="http://www.w3.org/1999/02/22-rdf-syntax-ns#"
   xmlns:svg="http://www.w3.org/2000/svg"
   xmlns="http://www.w3.org/2000/svg"
   xmlns:sodipodi="http://sodipodi.sourceforge.net/DTD/sodipodi-0.dtd"
   xmlns:inkscape="http://www.inkscape.org/namespaces/inkscape"
   version="1.1"
   id="svg2"
   xml:space="preserve"
   width="1122.5197"
   height="793.70074"
   viewBox="0 0 1122.5197 793.70074"
   sodipodi:docname="Fusee.svg"
   inkscape:version="0.92.2 5c3e80d, 2017-08-06"><metadata
     id="metadata8"><rdf:RDF><cc:Work
         rdf:about=""><dc:format>image/svg+xml</dc:format><dc:type
           rdf:resource="http://purl.org/dc/dcmitype/StillImage" /><dc:title></dc:title></cc:Work></rdf:RDF></metadata><defs
     id="defs6" /><sodipodi:namedview
     pagecolor="#ffffff"
     bordercolor="#666666"
     borderopacity="1"
     objecttolerance="10"
     gridtolerance="10"
     guidetolerance="10"
     inkscape:pageopacity="0"
     inkscape:pageshadow="2"
     inkscape:window-width="1254"
     inkscape:window-height="711"
     id="namedview4"
     showgrid="false"
     inkscape:zoom="0.68229201"
     inkscape:cx="561.25983"
     inkscape:cy="396.85037"
     inkscape:window-x="109"
     inkscape:window-y="0"
     inkscape:window-maximized="0"
     inkscape:current-layer="g12" /><g
     id="g10"
     inkscape:groupmode="layer"
     inkscape:label="Fusee"
     transform="matrix(1.3333333,0,0,-1.3333333,0,793.70077)"><g
       id="g12"><g
         id="g14"
         transform="matrix(1,0,0,-1,0,595.27557)"><path
           d="m 49.645,24.934 h 335.003 c 14.274,0 25.77,11.492 25.77,25.769 v 335.004 c 0,14.277 -11.496,25.77 -25.77,25.77 H 49.645 c -14.278,0 -25.77,-11.493 -25.77,-25.77 V 50.703 c 0,-14.277 11.492,-25.769 25.77,-25.769 z"
           style="fill:#ff7900;fill-opacity:1;fill-rule:nonzero;stroke:#000000;stroke-width:10.30780315;stroke-linecap:round;stroke-linejoin:round;stroke-miterlimit:4;stroke-dasharray:none;stroke-opacity:1"
           id="path16"
           inkscape:connector-curvature="0" /></g><text
         transform="scale(1,-1)"
         style="font-variant:normal;font-weight:normal;font-size:40.72727585px;font-family:Arial;-inkscape-font-specification:Arial;writing-mode:lr-tb;fill:#000000;fill-opacity:1;fill-rule:nonzero;stroke:none"
         id="text20"
         x="133.80606"
         y="-210.64549"><tspan
           sodipodi:role="line"
           id="tspan18"
           x="133.80606"
           y="-210.64549">ROCKET</tspan></text>
<path
         d="m 161.063,259.69 c -1.208,0.488 -2.188,2.14 -3.954,6.648 -10.195,26.066 -14.062,53.277 -10.929,76.953 1.988,15.055 6.718,29.43 13.648,41.5 2.055,3.578 4.852,7.86 6.473,9.906 l 1.109,1.395 0.199,9.055 c 0.36,16.343 1.496,27.09 4.375,41.297 6.446,31.835 19.614,60.566 38.789,84.636 3.157,3.961 4.508,4.934 6.442,4.633 1.742,-0.269 2.211,-0.672 5.449,-4.707 27.211,-33.875 43.047,-80.215 43.063,-126.008 v -7.41 l 2.761,-3.68 c 10.192,-13.578 17.141,-31.582 19.653,-50.914 2.558,-19.668 0.336,-41.535 -6.465,-63.687 -1.715,-5.59 -5.094,-14.934 -6.223,-17.219 -0.859,-1.746 -2.25,-2.687 -3.965,-2.687 -2.675,0 -4,1.324 -4.73,4.722 -2.09,9.739 -5.699,21.852 -8.641,29.012 -2.933,7.141 -7.953,15.824 -9.148,15.824 -0.129,0 -0.274,-3.594 -0.321,-7.984 -0.085,-7.817 -0.105,-8.008 -0.785,-8.961 -1.41,-1.981 -0.211,-1.887 -24.316,-1.914 -12.024,-0.016 -25.055,-0.012 -28.961,0.012 l -7.102,0.039 -1.257,1.171 -1.258,1.172 -0.172,7.563 c -0.094,4.156 -0.195,7.594 -0.227,7.633 -0.609,0.879 -4.851,-6.286 -7.824,-13.211 -3.074,-7.164 -7.117,-20.383 -8.937,-29.219 -0.332,-1.609 -0.836,-3.332 -1.125,-3.824 -0.954,-1.633 -3.754,-2.504 -5.625,-1.746 z m 2.402,24.539 c 4.523,14.922 10.402,26.34 16.949,32.91 2.731,2.742 2.922,3.008 2.656,3.73 -0.16,0.43 -0.953,2.524 -1.769,4.66 -5.934,15.567 -10.164,32.79 -12.137,49.411 -0.262,2.214 -0.555,4.5 -0.648,5.074 l -0.168,1.043 -0.606,-0.746 c -0.332,-0.41 -1.508,-2.559 -2.617,-4.774 -13.043,-26.152 -14.527,-59.082 -4.176,-92.8 1.008,-3.286 1.078,-3.247 2.516,1.492 z m 109.883,-1.465 c 0.429,1.351 1.234,4.207 1.793,6.344 8.461,32.351 6.246,62.425 -6.434,87.296 -2.559,5.02 -3.25,6.153 -3.555,5.813 -0.132,-0.145 -0.406,-1.941 -0.609,-3.992 -1.727,-17.563 -6.652,-37.875 -13.188,-54.418 -0.632,-1.606 -1.152,-3.028 -1.152,-3.164 0,-0.133 0.817,-0.903 1.817,-1.703 6.652,-5.336 12.957,-16.731 18.199,-32.895 1.027,-3.16 1.972,-5.746 2.105,-5.746 0.137,0 0.594,1.109 1.024,2.465 z m -74.645,23.508 v 7.015 h -2.387 -2.39 l -0.078,-7.101 -0.082,-7.102 2.468,0.086 2.469,0.086 z m 13.434,0 v 7.015 h -2.09 -2.09 l -0.078,-6.711 c -0.047,-3.687 -0.012,-6.886 0.07,-7.101 0.11,-0.285 0.707,-0.371 2.168,-0.305 l 2.02,0.086 z m 13.406,-6.692 c 0.273,0.719 0.207,13.055 -0.078,13.5 -0.168,0.27 -0.828,0.36 -2.156,0.297 l -1.914,-0.09 -0.082,-7.09 -0.079,-7.089 h 2.063 c 1.605,0 2.101,0.105 2.246,0.472 z m 14.062,6.692 v 7.015 h -2.39 -2.387 l -0.078,-7.101 -0.082,-7.102 2.469,0.086 2.468,0.086 z m 1.579,16.793 c 0.863,1.05 4.511,10.972 6.789,18.461 4.336,14.269 7.886,33.921 8.273,45.804 l 0.078,2.387 -39.492,0.074 c -35.512,0.071 -39.512,0.031 -39.672,-0.387 -0.347,-0.906 1.024,-14.367 2.156,-21.183 2.536,-15.223 7.383,-32.547 12.364,-44.168 l 0.586,-1.359 h 24.304 c 19.082,0 24.371,0.078 24.614,0.371 z m 15.539,81.132 c 0.211,10.543 -1.328,26.567 -3.711,38.661 -0.961,4.867 -3.18,13.882 -4.598,18.66 -1.887,6.367 -4.539,14.07 -5.184,15.054 l -0.503,0.77 h -26.11 -26.109 l -0.426,-0.828 c -0.234,-0.453 -1.125,-2.836 -1.98,-5.297 -4.836,-13.902 -8.18,-28.254 -9.989,-42.836 -1.008,-8.129 -2.008,-26.613 -1.539,-28.477 l 0.199,-0.785 39.922,0.075 39.926,0.078 z m -44.832,6.446 c -8.395,1.519 -16.278,8.472 -18.871,16.652 -2.129,6.699 -1.286,14.578 2.183,20.41 1.485,2.496 4.27,5.567 6.719,7.41 8.117,6.102 19.867,6.473 28.266,0.891 5.339,-3.555 8.972,-8.621 10.808,-15.086 0.598,-2.109 0.5,-9.848 -0.152,-12.242 -0.809,-2.953 -2.68,-6.582 -4.676,-9.063 -5.945,-7.39 -14.84,-10.675 -24.277,-8.972 z m 8.238,8.922 c 2.836,0.597 5.406,2.05 7.758,4.371 7.172,7.093 5.976,18.765 -2.508,24.429 -6.125,4.09 -14.238,3.289 -19.656,-1.941 -3.278,-3.164 -4.813,-6.742 -4.825,-11.246 -0.007,-2.891 0.418,-4.824 1.551,-7.102 3.278,-6.586 10.461,-10.043 17.68,-8.511 z m 18.887,67.043 c 0.25,0.41 -4.852,10.652 -8.282,16.625 -4.187,7.285 -12.437,19.41 -13.757,20.207 -0.629,0.382 -0.473,0.554 -4.504,-5.051 -3.516,-4.887 -6.696,-9.777 -9.547,-14.684 -2.594,-4.465 -8.145,-15.394 -8.426,-16.586 l -0.191,-0.82 h 22.257 c 15.082,0 22.321,0.098 22.45,0.309 z"
         style="fill:#000000;fill-opacity:1;fill-rule:nonzero;stroke:none"
         id="path22"
         inkscape:connector-curvature="0" /><g
         id="g24"
         transform="matrix(1,0,0,-1,0,595.27557)"><path
           d="m 31.09,430.461 h 134 c 5.711,0 10.308,4.594 10.308,10.305 V 574.77 c 0,5.71 -4.597,10.304 -10.308,10.304 h -134 c -5.711,0 -10.309,-4.594 -10.309,-10.304 V 440.766 c 0,-5.711 4.598,-10.305 10.309,-10.305 z"
           style="fill:#ff7900;fill-opacity:1;fill-rule:nonzero;stroke:#000000;stroke-width:4.12312078;stroke-linecap:round;stroke-linejoin:round;stroke-miterlimit:4;stroke-dasharray:none;stroke-opacity:1"
           id="path26"
           inkscape:connector-curvature="0" /></g><text
         transform="scale(1,-1)"
         style="font-variant:normal;font-weight:normal;font-size:16.29091072px;font-family:Arial;-inkscape-font-specification:Arial;writing-mode:lr-tb;fill:#000000;fill-opacity:1;fill-rule:nonzero;stroke:none"
         id="text30"
         x="64.754578"
         y="-20.938053"><tspan
           sodipodi:role="line"
           id="tspan28"
           x="64.754578"
           y="-20.938053">ROCKET</tspan></text>
<path
         d="m 75.656,40.557 c -0.48,0.195 -0.875,0.855 -1.582,2.66 -4.078,10.426 -5.625,21.309 -4.371,30.781 0.797,6.02 2.688,11.77 5.461,16.598 0.82,1.433 1.941,3.144 2.59,3.961 l 0.441,0.558 0.078,3.622 c 0.145,6.539 0.602,10.835 1.754,16.519 2.578,12.734 7.844,24.227 15.516,33.856 1.262,1.585 1.801,1.972 2.574,1.855 0.699,-0.109 0.883,-0.27 2.18,-1.883 10.887,-13.551 17.219,-32.086 17.226,-50.406 v -2.961 l 1.106,-1.473 c 4.074,-5.433 6.855,-12.632 7.859,-20.367 1.024,-7.867 0.137,-16.613 -2.586,-25.476 -0.687,-2.235 -2.035,-5.973 -2.488,-6.887 -0.344,-0.695 -0.902,-1.074 -1.586,-1.074 -1.07,0 -1.601,0.531 -1.894,1.89 -0.836,3.895 -2.278,8.739 -3.454,11.606 -1.175,2.855 -3.183,6.328 -3.66,6.328 -0.05,0 -0.109,-1.438 -0.129,-3.195 -0.035,-3.125 -0.043,-3.204 -0.312,-3.582 -0.566,-0.793 -0.086,-0.754 -9.727,-0.766 -4.812,-0.008 -10.023,-0.004 -11.586,0.004 l -2.839,0.015 -0.504,0.469 -0.504,0.469 -0.067,3.023 c -0.039,1.664 -0.078,3.039 -0.089,3.055 -0.247,0.352 -1.942,-2.516 -3.133,-5.285 -1.231,-2.867 -2.848,-8.152 -3.575,-11.688 -0.132,-0.644 -0.335,-1.332 -0.449,-1.527 -0.383,-0.656 -1.5,-1.004 -2.25,-0.699 z m 0.961,9.812 c 1.809,5.969 4.164,10.539 6.781,13.164 1.094,1.098 1.168,1.207 1.063,1.496 -0.063,0.168 -0.383,1.008 -0.707,1.864 -2.375,6.226 -4.066,13.113 -4.856,19.761 -0.105,0.887 -0.222,1.801 -0.261,2.032 L 78.57,89.104 78.328,88.803 C 78.195,88.639 77.727,87.779 77.281,86.893 72.063,76.432 71.473,63.26 75.613,49.776 c 0.403,-1.317 0.43,-1.301 1.004,0.593 z m 43.953,-0.586 c 0.172,0.543 0.496,1.684 0.719,2.539 3.383,12.942 2.496,24.973 -2.574,34.918 -1.024,2.008 -1.301,2.461 -1.422,2.329 -0.055,-0.059 -0.164,-0.778 -0.242,-1.598 -0.692,-7.027 -2.66,-15.152 -5.278,-21.77 -0.253,-0.64 -0.46,-1.211 -0.46,-1.265 0,-0.051 0.328,-0.36 0.726,-0.68 2.664,-2.133 5.184,-6.691 7.281,-13.156 0.41,-1.266 0.789,-2.301 0.844,-2.301 0.051,0 0.234,0.445 0.406,0.984 z M 90.715,59.19 v 2.804 h -0.957 -0.953 l -0.035,-2.84 -0.032,-2.839 0.989,0.035 0.988,0.031 z m 5.371,0 v 2.804 H 95.25 94.414 l -0.031,-2.683 c -0.016,-1.477 -0.004,-2.754 0.027,-2.84 0.047,-0.117 0.285,-0.149 0.871,-0.125 l 0.805,0.035 z m 5.363,-2.68 c 0.11,0.289 0.082,5.223 -0.031,5.402 -0.066,0.11 -0.332,0.145 -0.863,0.117 l -0.766,-0.035 -0.031,-2.836 -0.031,-2.836 h 0.824 c 0.64,0 0.84,0.043 0.898,0.188 z m 5.625,2.68 v 2.804 h -0.957 -0.953 l -0.031,-2.84 -0.035,-2.839 0.988,0.035 0.988,0.031 z m 0.633,6.714 c 0.344,0.422 1.805,4.391 2.715,7.387 1.734,5.707 3.152,13.567 3.308,18.321 l 0.032,0.957 -15.797,0.027 C 83.762,92.623 82.16,92.608 82.098,92.44 c -0.141,-0.36 0.41,-5.746 0.863,-8.473 1.012,-6.09 2.949,-13.016 4.945,-17.664 l 0.231,-0.547 h 9.722 c 7.633,0 9.75,0.031 9.848,0.148 z m 6.215,32.454 c 0.082,4.218 -0.531,10.629 -1.484,15.464 -0.383,1.95 -1.274,5.555 -1.84,7.465 -0.754,2.547 -1.817,5.629 -2.075,6.02 l -0.199,0.308 H 97.879 87.438 l -0.172,-0.328 c -0.094,-0.183 -0.453,-1.136 -0.793,-2.121 -1.934,-5.558 -3.274,-11.301 -3.996,-17.133 -0.403,-3.254 -0.801,-10.644 -0.614,-11.39 l 0.078,-0.317 15.969,0.032 15.973,0.031 z m -17.934,2.578 c -3.359,0.609 -6.511,3.39 -7.55,6.66 -0.848,2.683 -0.512,5.832 0.875,8.164 0.593,1 1.707,2.23 2.687,2.965 3.25,2.441 7.949,2.59 11.309,0.355 2.136,-1.418 3.589,-3.445 4.32,-6.031 0.242,-0.844 0.203,-3.941 -0.059,-4.898 -0.324,-1.18 -1.074,-2.633 -1.871,-3.625 -2.379,-2.957 -5.933,-4.27 -9.711,-3.59 z m 3.297,3.57 c 1.133,0.238 2.16,0.82 3.102,1.75 2.871,2.836 2.39,7.504 -1.004,9.77 -2.449,1.636 -5.695,1.316 -7.86,-0.778 -1.312,-1.265 -1.925,-2.695 -1.929,-4.496 -0.004,-1.156 0.164,-1.93 0.617,-2.84 1.312,-2.636 4.184,-4.019 7.074,-3.406 z m 7.555,26.816 c 0.098,0.165 -1.942,4.262 -3.317,6.649 -1.671,2.918 -4.972,7.766 -5.5,8.086 -0.25,0.152 -0.191,0.222 -1.804,-2.024 -1.403,-1.953 -2.676,-3.91 -3.817,-5.871 -1.039,-1.785 -3.257,-6.156 -3.371,-6.636 l -0.074,-0.329 h 8.902 c 6.032,0 8.926,0.043 8.981,0.125 z"
         style="fill:#000000;fill-opacity:1;fill-rule:nonzero;stroke:none"
         id="path32"
         inkscape:connector-curvature="0" /><g
         id="g34"
         transform="matrix(1,0,0,-1,0,595.27557)"><path
           d="m 435.656,429.871 h 95.719 c 4.078,0 7.359,3.281 7.359,7.363 v 95.715 c 0,4.078 -3.281,7.364 -7.359,7.364 h -95.719 c -4.078,0 -7.359,-3.286 -7.359,-7.364 v -95.715 c 0,-4.082 3.281,-7.363 7.359,-7.363 z"
           style="fill:#ff7900;fill-opacity:1;fill-rule:nonzero;stroke:#000000;stroke-width:2.94508696;stroke-linecap:round;stroke-linejoin:round;stroke-miterlimit:4;stroke-dasharray:none;stroke-opacity:1"
           id="path36"
           inkscape:connector-curvature="0" /></g><text
         transform="scale(1,-1)"
         style="font-variant:normal;font-weight:normal;font-size:11.63636398px;font-family:Arial;-inkscape-font-specification:Arial;writing-mode:lr-tb;fill:#000000;fill-opacity:1;fill-rule:nonzero;stroke:none"
         id="text40"
         x="459.49002"
         y="-62.635193"><tspan
           sodipodi:role="line"
           id="tspan38"
           x="459.49002"
           y="-62.635193">ROCKET</tspan></text>
<path
         d="m 467.492,76.647 c -0.344,0.14 -0.625,0.613 -1.129,1.902 -2.914,7.445 -4.019,15.219 -3.125,21.984 0.571,4.301 1.922,8.411 3.903,11.86 0.586,1.019 1.386,2.242 1.847,2.828 l 0.317,0.398 0.058,2.586 c 0.102,4.672 0.426,7.742 1.25,11.801 1.84,9.098 5.602,17.305 11.082,24.184 0.903,1.129 1.289,1.406 1.84,1.32 0.5,-0.074 0.633,-0.191 1.559,-1.344 7.773,-9.679 12.297,-22.918 12.301,-36 v -2.117 l 0.789,-1.051 c 2.914,-3.883 4.898,-9.023 5.617,-14.551 0.73,-5.617 0.094,-11.867 -1.848,-18.195 -0.492,-1.598 -1.457,-4.265 -1.777,-4.918 -0.246,-0.5 -0.645,-0.769 -1.133,-0.769 -0.766,0 -1.145,0.379 -1.352,1.351 -0.597,2.781 -1.628,6.242 -2.468,8.289 -0.84,2.039 -2.274,4.52 -2.614,4.52 -0.039,0 -0.078,-1.028 -0.093,-2.281 -0.024,-2.235 -0.028,-2.29 -0.223,-2.563 -0.402,-0.562 -0.063,-0.535 -6.949,-0.547 -3.434,-0.004 -7.156,0 -8.274,0.004 l -2.031,0.012 -0.359,0.336 -0.36,0.336 -0.047,2.16 c -0.027,1.187 -0.054,2.168 -0.066,2.18 -0.172,0.25 -1.383,-1.797 -2.234,-3.774 -0.879,-2.047 -2.035,-5.824 -2.555,-8.348 -0.094,-0.461 -0.238,-0.953 -0.32,-1.093 -0.274,-0.469 -1.071,-0.715 -1.606,-0.5 z m 0.688,7.011 c 1.289,4.266 2.972,7.528 4.84,9.403 0.781,0.785 0.835,0.859 0.761,1.066 -0.047,0.125 -0.273,0.723 -0.508,1.332 -1.695,4.445 -2.902,9.367 -3.468,14.117 -0.075,0.633 -0.157,1.286 -0.184,1.45 l -0.047,0.296 -0.176,-0.21 c -0.093,-0.118 -0.429,-0.731 -0.746,-1.364 -3.726,-7.472 -4.148,-16.883 -1.191,-26.515 0.285,-0.938 0.305,-0.926 0.719,0.425 z m 31.394,-0.418 c 0.121,0.387 0.352,1.204 0.512,1.813 2.418,9.242 1.785,17.836 -1.84,24.941 -0.73,1.434 -0.926,1.758 -1.016,1.66 -0.035,-0.039 -0.113,-0.554 -0.171,-1.14 -0.496,-5.016 -1.903,-10.82 -3.77,-15.547 -0.18,-0.457 -0.328,-0.863 -0.328,-0.902 0,-0.039 0.234,-0.258 0.519,-0.489 1.899,-1.523 3.704,-4.781 5.2,-9.398 0.293,-0.902 0.562,-1.641 0.601,-1.641 0.039,0 0.168,0.317 0.293,0.703 z m -21.328,6.719 v 2.004 h -0.683 -0.68 l -0.024,-2.031 -0.023,-2.028 0.707,0.024 0.703,0.023 z m 3.84,0 v 2.004 h -0.598 -0.597 l -0.024,-1.918 c -0.012,-1.055 -0.004,-1.969 0.02,-2.031 0.031,-0.082 0.203,-0.106 0.621,-0.086 l 0.578,0.023 z m 3.828,-1.914 c 0.078,0.203 0.059,3.731 -0.019,3.856 -0.051,0.078 -0.239,0.105 -0.618,0.086 l -0.547,-0.024 -0.023,-2.027 -0.023,-2.028 h 0.589 c 0.457,0 0.602,0.032 0.641,0.137 z m 4.02,1.914 v 2.004 h -0.684 -0.684 l -0.023,-2.031 -0.02,-2.028 0.704,0.024 0.707,0.023 z m 0.449,4.797 c 0.246,0.301 1.289,3.133 1.941,5.273 1.239,4.079 2.254,9.692 2.364,13.086 l 0.023,0.684 -11.285,0.02 c -10.145,0.019 -11.289,0.011 -11.336,-0.11 -0.098,-0.258 0.293,-4.105 0.617,-6.051 0.723,-4.351 2.109,-9.3 3.531,-12.621 l 0.168,-0.386 h 6.946 c 5.453,0 6.961,0.019 7.031,0.105 z m 4.441,23.18 c 0.059,3.011 -0.379,7.59 -1.062,11.047 -0.274,1.39 -0.907,3.964 -1.313,5.332 -0.539,1.816 -1.297,4.019 -1.48,4.3 l -0.145,0.219 h -7.461 -7.457 l -0.125,-0.234 c -0.066,-0.133 -0.32,-0.813 -0.562,-1.516 -1.383,-3.972 -2.34,-8.074 -2.856,-12.238 -0.289,-2.324 -0.574,-7.606 -0.437,-8.137 l 0.054,-0.222 11.407,0.019 11.406,0.023 z m -12.808,1.843 c -2.399,0.43 -4.653,2.418 -5.395,4.754 -0.605,1.914 -0.367,4.168 0.625,5.832 0.426,0.715 1.219,1.594 1.918,2.118 2.32,1.746 5.68,1.851 8.078,0.254 1.528,-1.012 2.563,-2.461 3.086,-4.309 0.172,-0.602 0.145,-2.813 -0.043,-3.496 -0.23,-0.844 -0.765,-1.883 -1.336,-2.59 -1.699,-2.113 -4.238,-3.051 -6.933,-2.563 z m 2.351,2.547 c 0.813,0.172 1.547,0.586 2.219,1.25 2.047,2.024 1.707,5.36 -0.719,6.977 -1.75,1.172 -4.066,0.941 -5.613,-0.551 -0.938,-0.906 -1.379,-1.93 -1.379,-3.215 -0.004,-0.824 0.117,-1.379 0.441,-2.027 0.938,-1.883 2.989,-2.871 5.051,-2.434 z m 5.399,19.157 c 0.07,0.117 -1.387,3.043 -2.368,4.75 -1.195,2.082 -3.554,5.543 -3.929,5.773 -0.18,0.109 -0.137,0.156 -1.289,-1.445 -1.004,-1.395 -1.914,-2.793 -2.727,-4.196 -0.742,-1.273 -2.328,-4.398 -2.406,-4.738 l -0.055,-0.234 h 6.36 c 4.308,0 6.375,0.027 6.414,0.09 z"
         style="fill:#000000;fill-opacity:1;fill-rule:nonzero;stroke:none"
         id="path42"
         inkscape:connector-curvature="0" /><g
         id="g44"
         transform="matrix(1,0,0,-1,0,595.27557)"><path
           d="M 457.746,24.934 H 792.75 c 14.277,0 25.77,11.492 25.77,25.769 v 335.004 c 0,14.277 -11.493,25.77 -25.77,25.77 H 457.746 c -14.277,0 -25.769,-11.493 -25.769,-25.77 V 50.703 c 0,-14.277 11.492,-25.769 25.769,-25.769 z"
           style="fill:#ff7900;fill-opacity:1;fill-rule:nonzero;stroke:#000000;stroke-width:10.30780315;stroke-linecap:round;stroke-linejoin:round;stroke-miterlimit:4;stroke-dasharray:none;stroke-opacity:1"
           id="path46"
           inkscape:connector-curvature="0" /></g><text
         transform="scale(1,-1)"
         style="font-variant:normal;font-weight:normal;font-size:40.72727585px;font-family:Arial;-inkscape-font-specification:Arial;writing-mode:lr-tb;fill:#000000;fill-opacity:1;fill-rule:nonzero;stroke:none"
         id="text50"
         x="541.90839"
         y="-210.64549"><tspan
           sodipodi:role="line"
           id="tspan48"
           x="541.90839"
           y="-210.64549">ROCKET</tspan></text>
<path
         d="m 569.164,259.69 c -1.207,0.488 -2.187,2.14 -3.953,6.648 -10.195,26.066 -14.063,53.277 -10.93,76.953 1.989,15.055 6.719,29.43 13.649,41.5 2.054,3.578 4.851,7.86 6.472,9.906 l 1.11,1.395 0.199,9.055 c 0.359,16.343 1.496,27.09 4.375,41.297 6.445,31.835 19.613,60.566 38.793,84.636 3.156,3.961 4.504,4.934 6.437,4.633 1.747,-0.269 2.211,-0.672 5.45,-4.707 27.211,-33.875 43.047,-80.215 43.062,-126.008 v -7.41 l 2.762,-3.68 c 10.191,-13.578 17.14,-31.582 19.652,-50.914 2.559,-19.668 0.34,-41.535 -6.465,-63.687 -1.714,-5.59 -5.089,-14.934 -6.222,-17.219 -0.86,-1.746 -2.25,-2.687 -3.965,-2.687 -2.672,0 -4,1.324 -4.731,4.722 -2.089,9.739 -5.699,21.852 -8.64,29.012 -2.93,7.141 -7.953,15.824 -9.149,15.824 -0.129,0 -0.273,-3.594 -0.32,-7.984 -0.086,-7.817 -0.105,-8.008 -0.785,-8.961 -1.41,-1.981 -0.211,-1.887 -24.317,-1.914 -12.023,-0.016 -25.054,-0.012 -28.96,0.012 l -7.102,0.039 -1.258,1.171 -1.258,1.172 -0.172,7.563 c -0.093,4.156 -0.195,7.594 -0.222,7.633 -0.61,0.879 -4.856,-6.286 -7.828,-13.211 -3.075,-7.164 -7.118,-20.383 -8.938,-29.219 -0.328,-1.609 -0.836,-3.332 -1.125,-3.824 -0.953,-1.633 -3.75,-2.504 -5.625,-1.746 z m 2.402,24.539 c 4.524,14.922 10.403,26.34 16.95,32.91 2.73,2.742 2.922,3.008 2.656,3.73 -0.16,0.43 -0.953,2.524 -1.766,4.66 -5.933,15.567 -10.168,32.79 -12.14,49.411 -0.262,2.214 -0.555,4.5 -0.649,5.074 l -0.168,1.043 -0.605,-0.746 c -0.332,-0.41 -1.508,-2.559 -2.614,-4.774 -13.046,-26.152 -14.531,-59.082 -4.179,-92.8 1.012,-3.286 1.078,-3.247 2.515,1.492 z m 109.883,-1.465 c 0.43,1.351 1.235,4.207 1.793,6.344 8.461,32.351 6.246,62.425 -6.433,87.296 -2.559,5.02 -3.25,6.153 -3.555,5.813 -0.133,-0.145 -0.406,-1.941 -0.609,-3.992 -1.727,-17.563 -6.649,-37.875 -13.188,-54.418 -0.633,-1.606 -1.152,-3.028 -1.152,-3.164 0,-0.133 0.82,-0.903 1.816,-1.703 6.652,-5.336 12.957,-16.731 18.199,-32.895 1.028,-3.16 1.973,-5.746 2.11,-5.746 0.133,0 0.59,1.109 1.019,2.465 z m -74.644,23.508 v 7.015 h -2.387 -2.391 l -0.078,-7.101 -0.082,-7.102 2.469,0.086 2.469,0.086 z m 13.437,0 v 7.015 h -2.09 -2.089 l -0.083,-6.711 c -0.042,-3.687 -0.011,-6.886 0.071,-7.101 0.109,-0.285 0.711,-0.371 2.172,-0.305 l 2.019,0.086 z m 13.403,-6.692 c 0.273,0.719 0.207,13.055 -0.075,13.5 -0.172,0.27 -0.832,0.36 -2.16,0.297 l -1.914,-0.09 -0.082,-7.09 -0.078,-7.089 h 2.062 c 1.606,0 2.106,0.105 2.247,0.472 z m 14.062,6.692 v 7.015 h -2.387 -2.39 l -0.078,-7.101 -0.082,-7.102 2.468,0.086 2.469,0.086 z m 1.578,16.793 c 0.863,1.05 4.512,10.972 6.789,18.461 4.336,14.269 7.887,33.921 8.274,45.804 l 0.078,2.387 -39.492,0.074 c -35.512,0.071 -39.508,0.031 -39.672,-0.387 -0.344,-0.906 1.023,-14.367 2.16,-21.183 2.531,-15.223 7.379,-32.547 12.359,-44.168 l 0.586,-1.359 h 24.305 c 19.082,0 24.371,0.078 24.613,0.371 z m 15.539,81.132 c 0.211,10.543 -1.328,26.567 -3.711,38.661 -0.961,4.867 -3.179,13.882 -4.597,18.66 -1.887,6.367 -4.539,14.07 -5.184,15.054 l -0.504,0.77 h -26.109 -26.11 l -0.425,-0.828 c -0.235,-0.453 -1.125,-2.836 -1.981,-5.297 -4.832,-13.902 -8.18,-28.254 -9.988,-42.836 -1.008,-8.129 -2.004,-26.613 -1.539,-28.477 l 0.199,-0.785 39.926,0.075 39.922,0.078 z m -44.832,6.446 c -8.394,1.519 -16.277,8.472 -18.871,16.652 -2.125,6.699 -1.285,14.578 2.184,20.41 1.484,2.496 4.269,5.567 6.718,7.41 8.122,6.102 19.868,6.473 28.266,0.891 5.344,-3.555 8.977,-8.621 10.809,-15.086 0.597,-2.109 0.504,-9.848 -0.153,-12.242 -0.808,-2.953 -2.679,-6.582 -4.675,-9.063 -5.946,-7.39 -14.836,-10.675 -24.278,-8.972 z m 8.242,8.922 c 2.836,0.597 5.407,2.05 7.754,4.371 7.172,7.093 5.977,18.765 -2.504,24.429 -6.129,4.09 -14.242,3.289 -19.656,-1.941 -3.281,-3.164 -4.816,-6.742 -4.828,-11.246 -0.004,-2.891 0.418,-4.824 1.551,-7.102 3.281,-6.586 10.461,-10.043 17.683,-8.511 z m 18.883,67.043 c 0.254,0.41 -4.851,10.652 -8.281,16.625 -4.188,7.285 -12.438,19.41 -13.758,20.207 -0.625,0.382 -0.473,0.554 -4.504,-5.051 -3.515,-4.887 -6.695,-9.777 -9.547,-14.684 -2.593,-4.465 -8.144,-15.394 -8.422,-16.586 l -0.191,-0.82 h 22.254 c 15.086,0 22.32,0.098 22.449,0.309 z"
         style="fill:#000000;fill-opacity:1;fill-rule:nonzero;stroke:none"
         id="path52"
         inkscape:connector-curvature="0" /><g
         id="g54"
         transform="matrix(1,0,0,-1,0,595.27557)"><path
           d="m 203.852,430.461 h 134 c 5.711,0 10.308,4.594 10.308,10.305 V 574.77 c 0,5.71 -4.597,10.304 -10.308,10.304 h -134 c -5.711,0 -10.309,-4.594 -10.309,-10.304 V 440.766 c 0,-5.711 4.598,-10.305 10.309,-10.305 z"
           style="fill:#ff7900;fill-opacity:1;fill-rule:nonzero;stroke:#000000;stroke-width:4.12312078;stroke-linecap:round;stroke-linejoin:round;stroke-miterlimit:4;stroke-dasharray:none;stroke-opacity:1"
           id="path56"
           inkscape:connector-curvature="0" /></g><text
         transform="scale(1,-1)"
         style="font-variant:normal;font-weight:normal;font-size:16.29091072px;font-family:Arial;-inkscape-font-specification:Arial;writing-mode:lr-tb;fill:#000000;fill-opacity:1;fill-rule:nonzero;stroke:none"
         id="text60"
         x="237.51614"
         y="-20.938053"><tspan
           sodipodi:role="line"
           id="tspan58"
           x="237.51614"
           y="-20.938053">ROCKET</tspan></text>
<path
         d="m 248.418,40.557 c -0.48,0.195 -0.875,0.855 -1.582,2.66 -4.078,10.426 -5.625,21.309 -4.371,30.781 0.797,6.02 2.687,11.77 5.461,16.598 0.82,1.433 1.941,3.144 2.59,3.961 l 0.441,0.558 0.078,3.622 c 0.145,6.539 0.602,10.835 1.75,16.519 2.582,12.734 7.848,24.227 15.52,33.856 1.261,1.585 1.8,1.972 2.574,1.855 0.699,-0.109 0.883,-0.27 2.18,-1.883 10.886,-13.551 17.218,-32.086 17.226,-50.406 v -2.961 l 1.102,-1.473 c 4.078,-5.433 6.859,-12.632 7.863,-20.367 1.023,-7.867 0.137,-16.613 -2.586,-25.476 -0.687,-2.235 -2.035,-5.973 -2.488,-6.887 -0.344,-0.695 -0.903,-1.074 -1.586,-1.074 -1.07,0 -1.602,0.531 -1.895,1.89 -0.836,3.895 -2.277,8.739 -3.453,11.606 -1.176,2.855 -3.183,6.328 -3.66,6.328 -0.051,0 -0.109,-1.438 -0.129,-3.195 -0.035,-3.125 -0.043,-3.204 -0.312,-3.582 -0.567,-0.793 -0.086,-0.754 -9.731,-0.766 -4.808,-0.008 -10.019,-0.004 -11.582,0.004 l -2.84,0.015 -0.504,0.469 -0.504,0.469 -0.066,3.023 c -0.039,1.664 -0.078,3.039 -0.09,3.055 -0.246,0.352 -1.941,-2.516 -3.133,-5.285 -1.23,-2.867 -2.847,-8.152 -3.574,-11.688 -0.133,-0.644 -0.336,-1.332 -0.449,-1.527 -0.383,-0.656 -1.5,-1.004 -2.25,-0.699 z m 0.961,9.812 c 1.809,5.969 4.164,10.539 6.781,13.164 1.09,1.098 1.168,1.207 1.063,1.496 -0.067,0.168 -0.383,1.008 -0.707,1.864 -2.375,6.226 -4.067,13.113 -4.856,19.761 -0.105,0.887 -0.222,1.801 -0.262,2.032 l -0.066,0.418 -0.242,-0.301 c -0.133,-0.164 -0.602,-1.024 -1.047,-1.91 -5.219,-10.461 -5.809,-23.633 -1.668,-37.117 0.402,-1.317 0.43,-1.301 1.004,0.593 z m 43.953,-0.586 c 0.172,0.543 0.496,1.684 0.719,2.539 3.383,12.942 2.496,24.973 -2.574,34.918 -1.024,2.008 -1.301,2.461 -1.422,2.329 -0.055,-0.059 -0.164,-0.778 -0.242,-1.598 -0.692,-7.027 -2.661,-15.152 -5.278,-21.77 -0.254,-0.64 -0.461,-1.211 -0.461,-1.265 0,-0.051 0.328,-0.36 0.727,-0.68 2.66,-2.133 5.183,-6.691 7.281,-13.156 0.41,-1.266 0.789,-2.301 0.844,-2.301 0.051,0 0.234,0.445 0.406,0.984 z m -29.855,9.407 v 2.804 h -0.957 -0.954 l -0.035,-2.84 -0.031,-2.839 0.988,0.035 0.989,0.031 z m 5.371,0 v 2.804 h -0.836 -0.836 l -0.031,-2.683 c -0.016,-1.477 -0.004,-2.754 0.027,-2.84 0.047,-0.117 0.285,-0.149 0.871,-0.125 l 0.805,0.035 z m 5.363,-2.68 c 0.109,0.289 0.082,5.223 -0.031,5.402 -0.067,0.11 -0.332,0.145 -0.864,0.117 l -0.765,-0.035 -0.031,-2.836 -0.032,-2.836 h 0.825 c 0.64,0 0.839,0.043 0.898,0.188 z m 5.625,2.68 v 2.804 h -0.957 -0.953 l -0.031,-2.84 -0.036,-2.839 0.989,0.035 0.988,0.031 z m 0.629,6.714 c 0.348,0.422 1.808,4.391 2.719,7.387 1.734,5.707 3.152,13.567 3.308,18.321 l 0.031,0.957 -15.796,0.027 c -14.204,0.027 -15.805,0.012 -15.868,-0.156 -0.14,-0.36 0.407,-5.746 0.864,-8.473 1.011,-6.09 2.949,-13.016 4.941,-17.664 l 0.234,-0.547 h 9.723 c 7.633,0 9.75,0.031 9.844,0.148 z m 6.219,32.454 c 0.082,4.218 -0.532,10.629 -1.485,15.464 -0.386,1.95 -1.273,5.555 -1.84,7.465 -0.754,2.547 -1.816,5.629 -2.074,6.02 l -0.199,0.308 h -10.445 -10.442 l -0.172,-0.328 c -0.093,-0.183 -0.453,-1.136 -0.793,-2.121 -1.933,-5.558 -3.273,-11.301 -3.996,-17.133 -0.402,-3.254 -0.8,-10.644 -0.613,-11.39 l 0.078,-0.317 15.969,0.032 15.973,0.031 z m -17.934,2.578 c -3.359,0.609 -6.512,3.39 -7.551,6.66 -0.847,2.683 -0.511,5.832 0.875,8.164 0.594,1 1.707,2.23 2.688,2.965 3.25,2.441 7.949,2.59 11.308,0.355 2.137,-1.418 3.59,-3.445 4.321,-6.031 0.242,-0.844 0.203,-3.941 -0.059,-4.898 -0.324,-1.18 -1.074,-2.633 -1.871,-3.625 -2.379,-2.957 -5.934,-4.27 -9.711,-3.59 z m 3.297,3.57 c 1.133,0.238 2.16,0.82 3.101,1.75 2.868,2.836 2.391,7.504 -1.003,9.77 -2.45,1.636 -5.696,1.316 -7.86,-0.778 -1.312,-1.265 -1.926,-2.695 -1.93,-4.496 -0.003,-1.156 0.165,-1.93 0.618,-2.84 1.312,-2.636 4.183,-4.019 7.074,-3.406 z m 7.555,26.816 c 0.097,0.165 -1.942,4.262 -3.317,6.649 -1.672,2.918 -4.972,7.766 -5.5,8.086 -0.25,0.152 -0.191,0.222 -1.805,-2.024 -1.402,-1.953 -2.675,-3.91 -3.816,-5.871 -1.039,-1.785 -3.258,-6.156 -3.371,-6.636 l -0.074,-0.329 h 8.902 c 6.031,0 8.926,0.043 8.981,0.125 z"
         style="fill:#000000;fill-opacity:1;fill-rule:nonzero;stroke:none"
         id="path62"
         inkscape:connector-curvature="0" /><g
         id="g64"
         transform="matrix(1,0,0,-1,0,595.27557)"><path
           d="m 562.957,429.871 h 95.715 c 4.078,0 7.363,3.281 7.363,7.363 v 95.715 c 0,4.078 -3.285,7.364 -7.363,7.364 h -95.715 c -4.078,0 -7.363,-3.286 -7.363,-7.364 v -95.715 c 0,-4.082 3.285,-7.363 7.363,-7.363 z"
           style="fill:#ff7900;fill-opacity:1;fill-rule:nonzero;stroke:#000000;stroke-width:2.94508696;stroke-linecap:round;stroke-linejoin:round;stroke-miterlimit:4;stroke-dasharray:none;stroke-opacity:1"
           id="path66"
           inkscape:connector-curvature="0" /></g><text
         transform="scale(1,-1)"
         style="font-variant:normal;font-weight:normal;font-size:11.63636398px;font-family:Arial;-inkscape-font-specification:Arial;writing-mode:lr-tb;fill:#000000;fill-opacity:1;fill-rule:nonzero;stroke:none"
         id="text70"
         x="586.78802"
         y="-62.635193"><tspan
           sodipodi:role="line"
           id="tspan68"
           x="586.78802"
           y="-62.635193">ROCKET</tspan></text>
<path
         d="m 594.789,76.647 c -0.344,0.14 -0.625,0.613 -1.129,1.902 -2.914,7.445 -4.015,15.219 -3.121,21.984 0.566,4.301 1.918,8.411 3.899,11.86 0.585,1.019 1.386,2.242 1.847,2.828 l 0.317,0.398 0.058,2.586 c 0.102,4.672 0.43,7.742 1.25,11.801 1.844,9.098 5.606,17.305 11.082,24.184 0.903,1.129 1.289,1.406 1.84,1.32 0.5,-0.074 0.633,-0.191 1.559,-1.344 7.773,-9.679 12.297,-22.918 12.304,-36 v -2.117 l 0.789,-1.051 c 2.911,-3.883 4.895,-9.023 5.614,-14.551 0.73,-5.617 0.097,-11.867 -1.848,-18.195 -0.488,-1.598 -1.453,-4.265 -1.777,-4.918 -0.246,-0.5 -0.645,-0.769 -1.133,-0.769 -0.766,0 -1.145,0.379 -1.352,1.351 -0.597,2.781 -1.629,6.242 -2.468,8.289 -0.836,2.039 -2.274,4.52 -2.614,4.52 -0.035,0 -0.078,-1.028 -0.093,-2.281 -0.024,-2.235 -0.028,-2.29 -0.223,-2.563 -0.402,-0.562 -0.059,-0.535 -6.949,-0.547 -3.434,-0.004 -7.157,0 -8.274,0.004 l -2.027,0.012 -0.36,0.336 -0.359,0.336 -0.051,2.16 c -0.027,1.187 -0.054,2.168 -0.062,2.18 -0.176,0.25 -1.387,-1.797 -2.238,-3.774 -0.879,-2.047 -2.032,-5.824 -2.551,-8.348 -0.098,-0.461 -0.242,-0.953 -0.324,-1.093 -0.27,-0.469 -1.071,-0.715 -1.606,-0.5 z m 0.688,7.011 c 1.293,4.266 2.972,7.528 4.843,9.403 0.778,0.785 0.832,0.859 0.758,1.066 -0.047,0.125 -0.273,0.723 -0.504,1.332 -1.695,4.445 -2.906,9.367 -3.469,14.117 -0.078,0.633 -0.16,1.286 -0.187,1.45 l -0.047,0.296 -0.172,-0.21 c -0.097,-0.118 -0.433,-0.731 -0.75,-1.364 -3.726,-7.472 -4.148,-16.883 -1.191,-26.515 0.289,-0.938 0.308,-0.926 0.719,0.425 z m 31.394,-0.418 c 0.121,0.387 0.352,1.204 0.512,1.813 2.418,9.242 1.785,17.836 -1.836,24.941 -0.731,1.434 -0.93,1.758 -1.016,1.66 -0.039,-0.039 -0.117,-0.554 -0.176,-1.14 -0.492,-5.016 -1.898,-10.82 -3.765,-15.547 -0.184,-0.457 -0.332,-0.863 -0.332,-0.902 0,-0.039 0.234,-0.258 0.519,-0.489 1.903,-1.523 3.703,-4.781 5.2,-9.398 0.293,-0.902 0.566,-1.641 0.601,-1.641 0.039,0 0.172,0.317 0.293,0.703 z m -21.328,6.719 v 2.004 h -0.68 -0.683 l -0.024,-2.031 -0.023,-2.028 0.707,0.024 0.703,0.023 z m 3.84,0 v 2.004 h -0.598 -0.597 l -0.024,-1.918 c -0.012,-1.055 0,-1.969 0.024,-2.031 0.031,-0.082 0.199,-0.106 0.617,-0.086 l 0.578,0.023 z m 3.828,-1.914 c 0.082,0.203 0.062,3.731 -0.02,3.856 -0.05,0.078 -0.238,0.105 -0.617,0.086 l -0.547,-0.024 -0.023,-2.027 -0.024,-2.028 h 0.59 c 0.461,0 0.602,0.032 0.641,0.137 z m 4.019,1.914 v 2.004 h -0.683 -0.68 l -0.023,-2.031 -0.024,-2.028 0.703,0.024 0.707,0.023 z m 0.45,4.797 c 0.25,0.301 1.289,3.133 1.941,5.273 1.238,4.079 2.254,9.692 2.363,13.086 l 0.024,0.684 -11.285,0.02 c -10.145,0.019 -11.289,0.011 -11.332,-0.11 -0.102,-0.258 0.293,-4.105 0.613,-6.051 0.726,-4.351 2.109,-9.3 3.535,-12.621 l 0.164,-0.386 h 6.945 c 5.454,0 6.965,0.019 7.032,0.105 z m 4.441,23.18 c 0.059,3.011 -0.379,7.59 -1.058,11.047 -0.278,1.39 -0.911,3.964 -1.317,5.332 -0.539,1.816 -1.297,4.019 -1.48,4.3 l -0.145,0.219 h -7.457 -7.461 l -0.121,-0.234 c -0.066,-0.133 -0.324,-0.813 -0.566,-1.516 -1.383,-3.972 -2.336,-8.074 -2.856,-12.238 -0.285,-2.324 -0.57,-7.606 -0.437,-8.137 l 0.054,-0.222 11.407,0.019 11.41,0.023 z m -12.808,1.843 c -2.399,0.43 -4.653,2.418 -5.391,4.754 -0.609,1.914 -0.367,4.168 0.621,5.832 0.426,0.715 1.223,1.594 1.922,2.118 2.32,1.746 5.676,1.851 8.074,0.254 1.527,-1.012 2.566,-2.461 3.09,-4.309 0.172,-0.602 0.141,-2.813 -0.043,-3.496 -0.231,-0.844 -0.77,-1.883 -1.336,-2.59 -1.699,-2.113 -4.242,-3.051 -6.937,-2.563 z m 2.355,2.547 c 0.809,0.172 1.543,0.586 2.215,1.25 2.051,2.024 1.707,5.36 -0.715,6.977 -1.75,1.172 -4.07,0.941 -5.617,-0.551 -0.938,-0.906 -1.375,-1.93 -1.379,-3.215 -0.004,-0.824 0.117,-1.379 0.441,-2.027 0.938,-1.883 2.989,-2.871 5.055,-2.434 z m 5.395,19.157 c 0.07,0.117 -1.387,3.043 -2.368,4.75 -1.195,2.082 -3.554,5.543 -3.929,5.773 -0.18,0.109 -0.137,0.156 -1.289,-1.445 -1.004,-1.395 -1.911,-2.793 -2.727,-4.196 -0.742,-1.273 -2.328,-4.398 -2.406,-4.738 l -0.055,-0.234 h 6.359 c 4.309,0 6.375,0.027 6.415,0.09 z"
         style="fill:#000000;fill-opacity:1;fill-rule:nonzero;stroke:none"
         id="path72"
         inkscape:connector-curvature="0" /><g
         id="g74"
         transform="matrix(1,0,0,-1,0,595.27557)"><path
           d="m 690.789,429.871 h 95.715 c 4.078,0 7.363,3.281 7.363,7.363 v 95.715 c 0,4.078 -3.285,7.364 -7.363,7.364 h -95.715 c -4.078,0 -7.363,-3.286 -7.363,-7.364 v -95.715 c 0,-4.082 3.285,-7.363 7.363,-7.363 z"
           style="fill:#ff7900;fill-opacity:1;fill-rule:nonzero;stroke:#000000;stroke-width:2.94508696;stroke-linecap:round;stroke-linejoin:round;stroke-miterlimit:4;stroke-dasharray:none;stroke-opacity:1"
           id="path76"
           inkscape:connector-curvature="0" /></g><text
         transform="scale(1,-1)"
         style="font-variant:normal;font-weight:normal;font-size:11.63636398px;font-family:Arial;-inkscape-font-specification:Arial;writing-mode:lr-tb;fill:#000000;fill-opacity:1;fill-rule:nonzero;stroke:none"
         id="text80"
         x="714.62085"
         y="-62.635193"><tspan
           sodipodi:role="line"
           id="tspan78"
           x="714.62085"
           y="-62.635193">ROCKET</tspan></text>
<path
         d="m 722.621,76.647 c -0.344,0.14 -0.625,0.613 -1.129,1.902 -2.914,7.445 -4.015,15.219 -3.121,21.984 0.567,4.301 1.918,8.411 3.899,11.86 0.585,1.019 1.386,2.242 1.851,2.828 l 0.317,0.398 0.054,2.586 c 0.102,4.672 0.43,7.742 1.25,11.801 1.844,9.098 5.606,17.305 11.086,24.184 0.899,1.129 1.285,1.406 1.836,1.32 0.5,-0.074 0.633,-0.191 1.559,-1.344 7.773,-9.679 12.3,-22.918 12.304,-36 v -2.117 l 0.789,-1.051 c 2.911,-3.883 4.895,-9.023 5.614,-14.551 0.73,-5.617 0.097,-11.867 -1.848,-18.195 -0.488,-1.598 -1.453,-4.265 -1.777,-4.918 -0.246,-0.5 -0.641,-0.769 -1.133,-0.769 -0.762,0 -1.141,0.379 -1.352,1.351 -0.597,2.781 -1.629,6.242 -2.468,8.289 -0.836,2.039 -2.27,4.52 -2.614,4.52 -0.035,0 -0.078,-1.028 -0.09,-2.281 -0.027,-2.235 -0.031,-2.29 -0.226,-2.563 -0.402,-0.562 -0.059,-0.535 -6.945,-0.547 -3.438,-0.004 -7.161,0 -8.278,0.004 l -2.027,0.012 -0.359,0.336 -0.36,0.336 -0.051,2.16 c -0.027,1.187 -0.054,2.168 -0.062,2.18 -0.176,0.25 -1.387,-1.797 -2.235,-3.774 -0.878,-2.047 -2.035,-5.824 -2.554,-8.348 -0.094,-0.461 -0.238,-0.953 -0.321,-1.093 -0.273,-0.469 -1.074,-0.715 -1.609,-0.5 z m 0.688,7.011 c 1.293,4.266 2.972,7.528 4.843,9.403 0.782,0.785 0.836,0.859 0.758,1.066 -0.047,0.125 -0.273,0.723 -0.504,1.332 -1.695,4.445 -2.906,9.367 -3.468,14.117 -0.075,0.633 -0.161,1.286 -0.184,1.45 l -0.051,0.296 -0.172,-0.21 c -0.093,-0.118 -0.429,-0.731 -0.746,-1.364 -3.73,-7.472 -4.152,-16.883 -1.195,-26.515 0.289,-0.938 0.308,-0.926 0.719,0.425 z m 31.394,-0.418 c 0.125,0.387 0.356,1.204 0.512,1.813 2.418,9.242 1.785,17.836 -1.836,24.941 -0.731,1.434 -0.93,1.758 -1.016,1.66 -0.039,-0.039 -0.117,-0.554 -0.175,-1.14 -0.493,-5.016 -1.899,-10.82 -3.766,-15.547 -0.184,-0.457 -0.332,-0.863 -0.332,-0.902 0,-0.039 0.234,-0.258 0.519,-0.489 1.903,-1.523 3.704,-4.781 5.2,-9.398 0.293,-0.902 0.566,-1.641 0.605,-1.641 0.035,0 0.168,0.317 0.289,0.703 z m -21.324,6.719 v 2.004 h -0.684 -0.683 l -0.024,-2.031 -0.023,-2.028 0.707,0.024 0.707,0.023 z m 3.836,0 v 2.004 h -0.598 -0.594 L 736,90.045 c -0.016,-1.055 -0.004,-1.969 0.02,-2.031 0.031,-0.082 0.203,-0.106 0.621,-0.086 l 0.574,0.023 z m 3.832,-1.914 c 0.078,0.203 0.058,3.731 -0.024,3.856 -0.046,0.078 -0.238,0.105 -0.617,0.086 l -0.547,-0.024 -0.023,-2.027 -0.023,-2.028 h 0.589 c 0.461,0 0.602,0.032 0.645,0.137 z m 4.016,1.914 v 2.004 h -0.68 -0.684 l -0.023,-2.031 -0.024,-2.028 0.707,0.024 0.704,0.023 z m 0.453,4.797 c 0.246,0.301 1.289,3.133 1.937,5.273 1.238,4.079 2.254,9.692 2.363,13.086 l 0.024,0.684 -11.281,0.02 c -10.149,0.019 -11.289,0.011 -11.336,-0.11 -0.098,-0.258 0.293,-4.105 0.617,-6.051 0.723,-4.351 2.109,-9.3 3.531,-12.621 l 0.168,-0.386 h 6.941 c 5.454,0 6.965,0.019 7.036,0.105 z m 4.437,23.18 c 0.063,3.011 -0.379,7.59 -1.058,11.047 -0.274,1.39 -0.911,3.964 -1.313,5.332 -0.539,1.816 -1.297,4.019 -1.484,4.3 l -0.141,0.219 h -7.461 -7.461 l -0.121,-0.234 c -0.066,-0.133 -0.32,-0.813 -0.566,-1.516 -1.379,-3.972 -2.336,-8.074 -2.852,-12.238 -0.289,-2.324 -0.574,-7.606 -0.441,-8.137 l 0.054,-0.222 11.411,0.019 11.406,0.023 z m -12.808,1.843 c -2.399,0.43 -4.653,2.418 -5.391,4.754 -0.609,1.914 -0.367,4.168 0.625,5.832 0.422,0.715 1.219,1.594 1.918,2.118 2.32,1.746 5.676,1.851 8.074,0.254 1.527,-1.012 2.567,-2.461 3.09,-4.309 0.172,-0.602 0.144,-2.813 -0.043,-3.496 -0.23,-0.844 -0.766,-1.883 -1.336,-2.59 -1.699,-2.113 -4.238,-3.051 -6.937,-2.563 z m 2.355,2.547 c 0.809,0.172 1.543,0.586 2.215,1.25 2.051,2.024 1.707,5.36 -0.715,6.977 -1.75,1.172 -4.07,0.941 -5.617,-0.551 -0.938,-0.906 -1.375,-1.93 -1.379,-3.215 0,-0.824 0.121,-1.379 0.445,-2.027 0.934,-1.883 2.989,-2.871 5.051,-2.434 z m 5.395,19.157 c 0.074,0.117 -1.387,3.043 -2.368,4.75 -1.195,2.082 -3.55,5.543 -3.929,5.773 -0.18,0.109 -0.133,0.156 -1.285,-1.445 -1.004,-1.395 -1.915,-2.793 -2.731,-4.196 -0.738,-1.273 -2.324,-4.398 -2.406,-4.738 l -0.055,-0.234 h 6.359 c 4.309,0 6.379,0.027 6.415,0.09 z"
         style="fill:#000000;fill-opacity:1;fill-rule:nonzero;stroke:none"
         id="path82"
         inkscape:connector-curvature="0" /></g></g></svg>