<?xml version="1.0" encoding="UTF-8" standalone="no"?>
<!-- Created with Inkscape (http://www.inkscape.org/) -->

<svg
   xmlns:dc="http://purl.org/dc/elements/1.1/"
   xmlns:cc="http://creativecommons.org/ns#"
   xmlns:rdf="http://www.w3.org/1999/02/22-rdf-syntax-ns#"
   xmlns:svg="http://www.w3.org/2000/svg"
   xmlns="http://www.w3.org/2000/svg"
   xmlns:sodipodi="http://sodipodi.sourceforge.net/DTD/sodipodi-0.dtd"
   xmlns:inkscape="http://www.inkscape.org/namespaces/inkscape"
   version="1.1"
   id="svg2"
   xml:space="preserve"
   width="1122.5197"
   height="793.70074"
   viewBox="0 0 1122.5197 793.70074"
   sodipodi:docname="Strawberry.svg"
   inkscape:version="0.92.2 5c3e80d, 2017-08-06"><metadata
     id="metadata8"><rdf:RDF><cc:Work
         rdf:about=""><dc:format>image/svg+xml</dc:format><dc:type
           rdf:resource="http://purl.org/dc/dcmitype/StillImage" /><dc:title></dc:title></cc:Work></rdf:RDF></metadata><defs
     id="defs6" /><sodipodi:namedview
     pagecolor="#ffffff"
     bordercolor="#666666"
     borderopacity="1"
     objecttolerance="10"
     gridtolerance="10"
     guidetolerance="10"
     inkscape:pageopacity="0"
     inkscape:pageshadow="2"
     inkscape:window-width="1247"
     inkscape:window-height="711"
     id="namedview4"
     showgrid="false"
     inkscape:zoom="0.64"
     inkscape:cx="561.25983"
     inkscape:cy="396.85037"
     inkscape:window-x="57"
     inkscape:window-y="0"
     inkscape:window-maximized="0"
     inkscape:current-layer="g12" /><g
     id="g10"
     inkscape:groupmode="layer"
     inkscape:label="Cherry"
     transform="matrix(1.3333333,0,0,-1.3333333,0,793.70077)"><g
       id="g12"><g
         id="g14"
         transform="matrix(1,0,0,-1,0,595.27557)"><path
           d="m 49.645,24.934 h 335.003 c 14.274,0 25.77,11.492 25.77,25.769 v 335.004 c 0,14.277 -11.496,25.77 -25.77,25.77 H 49.645 c -14.278,0 -25.77,-11.493 -25.77,-25.77 V 50.703 c 0,-14.277 11.492,-25.769 25.77,-25.769 z"
           style="fill:#ffb4e6;fill-opacity:1;fill-rule:nonzero;stroke:#000000;stroke-width:10.30780315;stroke-linecap:round;stroke-linejoin:round;stroke-miterlimit:4;stroke-dasharray:none;stroke-opacity:1"
           id="path16"
           inkscape:connector-curvature="0" /></g><text
         transform="scale(1,-1)"
         style="font-variant:normal;font-weight:normal;font-size:40.72727585px;font-family:Arial;-inkscape-font-specification:ArialMT;writing-mode:lr-tb;fill:#000000;fill-opacity:1;fill-rule:nonzero;stroke:none"
         id="text20"
         x="77.158287"
         y="-210.64551"><tspan
           sodipodi:role="line"
           id="tspan18"
           x="77.158287"
           y="-210.64551">STRAWBERRY</tspan></text>
<path
         d="m 208.305,258.569 c -18.317,2.468 -34.828,14.183 -51.399,36.468 -14.648,19.7 -29.879,50.016 -38.426,76.496 -14.421,44.68 -7.777,78.231 19.348,97.684 7.434,5.328 19.813,10.844 29.895,13.32 1.816,0.45 3.472,0.953 3.679,1.129 0.207,0.172 -0.949,2.16 -2.566,4.414 -7.52,10.469 -11.348,19.782 -11.379,27.676 -0.019,4.609 0.918,7.965 2.981,10.664 2.378,3.113 4.265,4.082 7.949,4.082 5.078,0 9.258,-2.344 20.965,-11.742 3.566,-2.863 6.761,-5.203 7.101,-5.203 0.352,0 0.863,0.816 1.176,1.871 0.887,2.992 4.242,9.168 6.531,12.012 8.363,10.398 20.293,9.172 28.067,-2.879 1.574,-2.446 2.699,-4.77 5.074,-10.5 0.304,-0.731 0.586,-0.91 0.969,-0.61 0.296,0.235 3.312,2.649 6.699,5.368 13.472,10.808 19.406,13.476 24.648,11.078 6.106,-2.789 8.699,-10.961 6.453,-20.352 -1.66,-6.941 -5.758,-15.148 -11,-22.027 -2.234,-2.934 -2.632,-4.332 -1.238,-4.332 1.113,0 8.301,-2.184 13.27,-4.032 13.628,-5.074 25.214,-13.109 32.515,-22.542 4.703,-6.083 7.262,-10.813 9.676,-17.883 9.227,-27.039 2.305,-62.91 -21.059,-109.106 -10.515,-20.785 -21.172,-36.586 -32.761,-48.57 -10.774,-11.145 -20.586,-17.563 -32.168,-21.043 -3.887,-1.172 -5.528,-1.418 -10.344,-1.57 -3.145,-0.102 -6.809,-0.239 -8.141,-0.301 -1.332,-0.067 -4.265,0.129 -6.515,0.43 z m 16.136,8.898 c 0.422,0.27 0.504,0.812 0.278,1.867 -0.785,3.641 -2.188,3.922 -4.489,0.899 -2.089,-2.746 -1.949,-3.157 1.082,-3.149 1.391,0.008 2.801,0.176 3.129,0.383 z m -13.714,4.086 c 3.386,6.734 8.89,10.652 13.804,9.824 2.785,-0.473 5.672,-2.707 7.106,-5.496 0.683,-1.332 1.445,-3.266 1.691,-4.293 0.274,-1.125 0.703,-1.871 1.086,-1.871 1.16,0 9.734,4.637 13.469,7.285 7.547,5.356 18.156,16.922 26.012,28.367 9.824,14.313 20.707,35.227 28.543,54.868 2.199,5.519 2.394,6.753 1.066,6.753 -1.102,0 -3.852,1.567 -5.137,2.93 -2.957,3.141 -4.484,7.977 -4.488,14.234 -0.008,7.083 1.836,12.739 5.508,16.911 3.418,3.882 8.117,5.054 12.179,3.039 l 1.899,-0.938 0.457,1.168 c 0.785,2.02 0.172,19.387 -0.856,24.055 -6.359,28.996 -29.125,44.965 -70.265,49.285 -9.059,0.953 -42.653,0.945 -51.438,-0.008 -16.511,-1.793 -27.613,-4.656 -38.383,-9.89 -7.351,-3.575 -11.601,-6.528 -16.773,-11.653 -8.316,-8.242 -12.762,-16.695 -15.227,-28.937 -0.855,-4.254 -0.992,-6.278 -0.968,-14.203 0.027,-9.891 0.676,-15.223 3.101,-25.528 1.93,-8.195 7.844,-26.386 8.996,-27.679 0.196,-0.219 0.996,0.152 1.809,0.836 2.02,1.703 3.918,2.414 6.449,2.414 3.832,0 7.153,-2.059 10.512,-6.52 7.059,-9.371 7,-24.738 -0.109,-29.496 -1.208,-0.805 -2.243,-1.606 -2.309,-1.777 -0.172,-0.473 6.57,-11.871 10.555,-17.844 14.453,-21.668 28.648,-34.176 43.972,-38.746 5.414,-1.614 5.477,-1.59 7.739,2.91 z m -20.524,24.644 c -12.234,3.516 -17.558,29.207 -7.437,35.903 2.703,1.789 6.605,1.933 9.816,0.363 8.086,-3.957 13.082,-18.367 9.906,-28.582 -1.207,-3.875 -4.008,-6.891 -7.133,-7.68 -2.371,-0.597 -3.082,-0.597 -5.152,-0.004 z m 3.801,10.055 c 0.769,1.516 0.707,6.762 -0.113,9.918 -1.102,4.223 -4.266,8.777 -5.887,8.469 -1.649,-0.317 -2.316,-6.485 -1.168,-10.793 1.25,-4.699 4.199,-9.156 5.844,-8.836 0.425,0.078 1.019,0.641 1.324,1.242 z m 44.922,-10.148 c -3.938,1.254 -6.5,4.472 -7.641,9.597 -1.734,7.797 0.887,17.618 6.242,23.403 2.977,3.215 5.344,4.437 8.571,4.425 5.707,-0.023 9.222,-3.687 10.547,-10.996 1.683,-9.289 -3.571,-21.921 -10.622,-25.543 -1.898,-0.976 -5.433,-1.418 -7.097,-0.886 z m 5.125,10.66 c 3.738,4.363 5.387,14.156 2.898,17.191 -1.011,1.227 -1.777,0.871 -3.808,-1.769 -2.129,-2.774 -3.446,-7.121 -3.422,-11.317 0.035,-6.113 1.457,-7.461 4.332,-4.105 z m 14.148,38.41 c -3.847,1.426 -6.015,4.324 -7.109,9.504 -1.551,7.355 1.125,17.133 6.258,22.84 4.129,4.594 8.586,5.922 13.035,3.886 4.34,-1.988 6.539,-6.527 6.574,-13.566 0.066,-13.629 -10.074,-25.883 -18.758,-22.664 z m 5.352,10.043 c 2.797,2.922 4.511,7.75 4.519,12.734 0.012,5.332 -1.293,6.719 -3.804,4.055 -4.012,-4.254 -5.93,-12.332 -4.086,-17.191 0.547,-1.43 1.758,-1.286 3.371,0.402 z m -89.883,1.594 c -2.055,0.531 -3.309,1.332 -5.852,3.738 -2.656,2.512 -4.785,6.09 -6.312,10.621 -0.879,2.594 -1.043,3.961 -1.043,8.629 0,5.469 0.023,5.586 1.543,8.566 1.902,3.727 4.402,5.512 8.156,5.821 8.145,0.676 16.211,-10.75 16.246,-23.016 0.016,-4.973 -0.746,-7.824 -2.855,-10.738 -2.117,-2.922 -6.446,-4.508 -9.883,-3.621 z m 3.273,9.691 c 1.414,2.641 0.778,8.969 -1.363,13.52 -1.035,2.203 -3.851,5.453 -4.726,5.453 -0.907,0 -1.805,-2.918 -1.805,-5.848 0,-4.5 1.719,-9.297 4.449,-12.406 1.512,-1.723 2.77,-1.984 3.445,-0.719 z m 41.258,-5.496 c -4.168,1.141 -7.953,6.344 -9.316,12.805 -2,9.48 1.207,20.375 6.996,23.765 5.371,3.149 11.301,0.969 14.695,-5.398 1.867,-3.5 2.719,-7.387 2.727,-12.441 0.019,-12.614 -6.754,-21.012 -15.102,-18.731 z m 4.078,9.793 c 2.594,3.297 2.993,11.777 0.785,16.578 -1.582,3.438 -2.64,3.36 -4.484,-0.332 -1.172,-2.344 -1.305,-3.043 -1.312,-6.824 -0.008,-4.434 0.492,-6.801 1.945,-9.16 1.066,-1.739 1.855,-1.805 3.066,-0.262 z m 59.664,34.582 c -6.933,2.473 -12.23,12.102 -12.285,22.348 -0.051,8.992 3.594,14.336 10.149,14.879 6.035,0.5 12.375,-6.012 14.961,-15.356 1.203,-4.355 1.082,-11.726 -0.25,-15.148 -2.207,-5.66 -7.543,-8.516 -12.575,-6.723 z m 4.063,9.453 c 1.133,1.731 1,8.25 -0.238,11.676 -1.051,2.914 -3.235,6.273 -4.528,6.965 -1.304,0.699 -2.019,-0.106 -2.605,-2.93 -0.953,-4.578 0.961,-11.605 4.086,-14.996 0.965,-1.047 1.926,-1.906 2.129,-1.906 0.207,0 0.726,0.539 1.156,1.191 z M 140.395,406.17 c -3.653,0.625 -6.852,3.856 -8.192,8.274 -0.984,3.238 -0.969,9.472 0.027,13.285 1.618,6.199 5.399,12.109 9.274,14.504 5.59,3.457 12.25,0.933 14.848,-5.625 1.449,-3.653 1.449,-11.274 -0.008,-15.922 -3.067,-9.836 -9.43,-15.625 -15.953,-14.516 z m 3.953,10.348 c 3.59,4.086 5.429,11.929 3.875,16.492 -0.785,2.309 -2.25,2.117 -4.274,-0.555 -2.812,-3.722 -4.32,-9.718 -3.511,-13.976 0.742,-3.922 1.75,-4.426 3.91,-1.961 z m 99.742,-0.703 c -5.063,1.234 -9.813,6.914 -12.172,14.554 -1.34,4.348 -1.438,11.317 -0.207,15.063 1.609,4.902 5.269,7.824 9.801,7.824 3.347,0 5.687,-1.18 8.609,-4.34 4.387,-4.75 6.598,-10.844 6.645,-18.328 0.027,-4.066 -0.133,-5.258 -0.993,-7.445 -1.406,-3.59 -3.933,-6.239 -6.757,-7.078 -2.403,-0.715 -2.914,-0.739 -4.926,-0.25 z m 3.355,10.261 c 1.59,3.762 0.028,11.883 -3.07,15.989 -1.957,2.589 -3.184,2.961 -3.992,1.199 -2.008,-4.356 -0.274,-12.727 3.535,-17.063 1.711,-1.949 2.742,-1.984 3.527,-0.125 z m -59.855,-2.937 c -4.199,2.133 -6.442,7.07 -6.375,14.055 0.07,7.101 2.719,14.14 6.961,18.488 2.789,2.859 5.367,4.152 8.281,4.168 7.074,0.031 11.473,-6.875 10.742,-16.856 -0.804,-10.992 -7.324,-20.222 -14.715,-20.843 -2.14,-0.18 -2.898,-0.024 -4.894,0.988 z m 7.433,10.547 c 3.446,5.004 4.59,13.644 2.2,16.582 l -0.821,1.008 -1.394,-1.321 c -3.082,-2.918 -4.985,-8.043 -4.934,-13.281 0.043,-4.219 1.125,-6.289 2.809,-5.387 0.426,0.231 1.39,1.309 2.14,2.399 z m -48.449,-98.434 c 1.391,2.602 0.895,8.617 -1.082,13.086 -1.105,2.5 -3.93,5.887 -4.91,5.887 -1.242,0 -2.031,-3.039 -1.789,-6.906 0.187,-3.063 0.492,-4.168 2.027,-7.336 2.36,-4.871 4.664,-6.766 5.754,-4.731 z m 161.211,42.758 c 2.574,4.16 3.172,11.75 1.266,16.059 -1.051,2.375 -2.188,2.578 -3.567,0.64 -3.293,-4.621 -3.832,-14.875 -0.957,-18.164 1.012,-1.156 1.879,-0.769 3.258,1.465 z M 191.934,486.787 c 2.636,0.274 13.492,0.481 25.308,0.485 16.555,0 22.078,-0.149 27.668,-0.754 l 6.985,-0.754 1.316,1.242 c 2.375,2.246 8.062,10.176 10.117,14.109 2.867,5.485 4.348,9.895 4.621,13.762 0.25,3.488 -0.5,6.363 -1.781,6.856 -1.75,0.671 -6.043,-2.157 -18.84,-12.418 -5.48,-4.395 -10.402,-8.129 -10.933,-8.301 -1.551,-0.492 -3.86,0.16 -4.805,1.363 -0.481,0.61 -1.102,2.203 -1.379,3.543 -1.688,8.125 -6.004,16.344 -9.809,18.664 -1.652,1.008 -4.257,1.11 -5.957,0.231 -3.675,-1.903 -7.914,-9.25 -9.918,-17.2 -1.277,-5.07 -2.632,-6.824 -5.277,-6.824 -1.652,0 -2.617,0.664 -11.5,7.93 -10.309,8.433 -17.156,13.199 -18.957,13.199 -0.313,0 -0.996,-0.547 -1.52,-1.211 -0.867,-1.097 -0.941,-1.605 -0.769,-5.39 0.152,-3.426 0.465,-4.911 1.723,-8.196 2.488,-6.519 6.957,-13.609 12.179,-19.332 l 1.895,-2.078 2.508,0.297 c 1.375,0.164 4.582,0.512 7.125,0.777 z"
         style="fill:#000000;fill-opacity:1;fill-rule:nonzero;stroke:none"
         id="path22"
         inkscape:connector-curvature="0" /><g
         id="g24"
         transform="matrix(1,0,0,-1,0,595.27557)"><path
           d="M 457.746,24.934 H 792.75 c 14.277,0 25.77,11.492 25.77,25.769 v 335.004 c 0,14.277 -11.493,25.77 -25.77,25.77 H 457.746 c -14.277,0 -25.769,-11.493 -25.769,-25.77 V 50.703 c 0,-14.277 11.492,-25.769 25.769,-25.769 z"
           style="fill:#ffb4e6;fill-opacity:1;fill-rule:nonzero;stroke:#000000;stroke-width:10.30780315;stroke-linecap:round;stroke-linejoin:round;stroke-miterlimit:4;stroke-dasharray:none;stroke-opacity:1"
           id="path26"
           inkscape:connector-curvature="0" /></g><text
         transform="scale(1,-1)"
         style="font-variant:normal;font-weight:normal;font-size:40.72727585px;font-family:Arial;-inkscape-font-specification:ArialMT;writing-mode:lr-tb;fill:#000000;fill-opacity:1;fill-rule:nonzero;stroke:none"
         id="text30"
         x="485.26068"
         y="-210.64551"><tspan
           sodipodi:role="line"
           id="tspan28"
           x="485.26068"
           y="-210.64551">STRAWBERRY</tspan></text>
<path
         d="m 616.406,258.569 c -18.316,2.468 -34.824,14.183 -51.398,36.468 -14.649,19.7 -29.879,50.016 -38.426,76.496 -14.422,44.68 -7.777,78.231 19.348,97.684 7.433,5.328 19.812,10.844 29.898,13.32 1.817,0.45 3.469,0.953 3.676,1.129 0.207,0.172 -0.949,2.16 -2.566,4.414 -7.52,10.469 -11.348,19.782 -11.379,27.676 -0.02,4.609 0.921,7.965 2.984,10.664 2.375,3.113 4.262,4.082 7.945,4.082 5.082,0 9.258,-2.344 20.969,-11.742 3.563,-2.863 6.758,-5.203 7.102,-5.203 0.347,0 0.859,0.816 1.171,1.871 0.887,2.992 4.243,9.168 6.532,12.012 8.363,10.398 20.293,9.172 28.066,-2.879 1.578,-2.446 2.699,-4.77 5.074,-10.5 0.305,-0.731 0.586,-0.91 0.969,-0.61 0.297,0.235 3.313,2.649 6.699,5.368 13.473,10.808 19.407,13.476 24.649,11.078 6.109,-2.789 8.699,-10.961 6.453,-20.352 -1.66,-6.941 -5.754,-15.148 -10.996,-22.027 -2.238,-2.934 -2.637,-4.332 -1.242,-4.332 1.113,0 8.3,-2.184 13.269,-4.032 13.629,-5.074 25.219,-13.109 32.516,-22.542 4.703,-6.083 7.261,-10.813 9.676,-17.883 9.226,-27.039 2.304,-62.91 -21.059,-109.106 -10.512,-20.785 -21.172,-36.586 -32.762,-48.57 -10.773,-11.145 -20.586,-17.563 -32.168,-21.043 -3.886,-1.172 -5.527,-1.418 -10.34,-1.57 -3.148,-0.102 -6.812,-0.239 -8.144,-0.301 -1.332,-0.067 -4.262,0.129 -6.516,0.43 z m 16.137,8.898 c 0.422,0.27 0.504,0.812 0.277,1.867 -0.781,3.641 -2.187,3.922 -4.488,0.899 -2.09,-2.746 -1.949,-3.157 1.082,-3.149 1.391,0.008 2.801,0.176 3.129,0.383 z m -13.711,4.086 c 3.383,6.734 8.891,10.652 13.801,9.824 2.785,-0.473 5.676,-2.707 7.105,-5.496 0.684,-1.332 1.446,-3.266 1.692,-4.293 0.273,-1.125 0.707,-1.871 1.086,-1.871 1.16,0 9.734,4.637 13.468,7.285 7.547,5.356 18.157,16.922 26.012,28.367 9.828,14.313 20.707,35.227 28.543,54.868 2.203,5.519 2.399,6.753 1.066,6.753 -1.101,0 -3.851,1.567 -5.132,2.93 -2.961,3.141 -4.489,7.977 -4.493,14.234 -0.007,7.083 1.84,12.739 5.508,16.911 3.422,3.882 8.117,5.054 12.184,3.039 l 1.894,-0.938 0.457,1.168 c 0.786,2.02 0.172,19.387 -0.851,24.055 -6.363,28.996 -29.129,44.965 -70.27,49.285 -9.058,0.953 -42.652,0.945 -51.437,-0.008 -16.508,-1.793 -27.613,-4.656 -38.383,-9.89 -7.348,-3.575 -11.602,-6.528 -16.77,-11.653 -8.316,-8.242 -12.765,-16.695 -15.23,-28.937 -0.855,-4.254 -0.992,-6.278 -0.969,-14.203 0.028,-9.891 0.676,-15.223 3.102,-25.528 1.93,-8.195 7.844,-26.386 8.996,-27.679 0.195,-0.219 0.996,0.152 1.809,0.836 2.023,1.703 3.921,2.414 6.449,2.414 3.832,0 7.152,-2.059 10.511,-6.52 7.059,-9.371 7,-24.738 -0.109,-29.496 -1.203,-0.805 -2.242,-1.606 -2.305,-1.777 -0.175,-0.473 6.567,-11.871 10.551,-17.844 14.453,-21.668 28.649,-34.176 43.973,-38.746 5.414,-1.614 5.48,-1.59 7.742,2.91 z m -20.527,24.644 c -12.235,3.516 -17.555,29.207 -7.438,35.903 2.703,1.789 6.61,1.933 9.821,0.363 8.082,-3.957 13.078,-18.367 9.902,-28.582 -1.207,-3.875 -4.008,-6.891 -7.133,-7.68 -2.371,-0.597 -3.082,-0.597 -5.152,-0.004 z m 3.804,10.055 c 0.766,1.516 0.703,6.762 -0.117,9.918 -1.097,4.223 -4.265,8.777 -5.887,8.469 -1.648,-0.317 -2.316,-6.485 -1.167,-10.793 1.25,-4.699 4.199,-9.156 5.843,-8.836 0.426,0.078 1.024,0.641 1.328,1.242 z m 44.918,-10.148 c -3.937,1.254 -6.5,4.472 -7.636,9.597 -1.739,7.797 0.882,17.618 6.242,23.403 2.976,3.215 5.34,4.437 8.57,4.425 5.703,-0.023 9.219,-3.687 10.543,-10.996 1.684,-9.289 -3.566,-21.921 -10.621,-25.543 -1.898,-0.976 -5.43,-1.418 -7.098,-0.886 z m 5.125,10.66 c 3.739,4.363 5.387,14.156 2.899,17.191 -1.012,1.227 -1.778,0.871 -3.805,-1.769 -2.133,-2.774 -3.445,-7.121 -3.426,-11.317 0.035,-6.113 1.461,-7.461 4.332,-4.105 z m 14.149,38.41 c -3.848,1.426 -6.012,4.324 -7.11,9.504 -1.55,7.355 1.125,17.133 6.258,22.84 4.129,4.594 8.586,5.922 13.035,3.886 4.34,-1.988 6.539,-6.527 6.575,-13.566 0.066,-13.629 -10.075,-25.883 -18.758,-22.664 z m 5.351,10.043 c 2.801,2.922 4.512,7.75 4.524,12.734 0.008,5.332 -1.293,6.719 -3.809,4.055 -4.012,-4.254 -5.929,-12.332 -4.082,-17.191 0.543,-1.43 1.754,-1.286 3.367,0.402 z m -89.882,1.594 c -2.055,0.531 -3.309,1.332 -5.852,3.738 -2.656,2.512 -4.781,6.09 -6.313,10.621 -0.875,2.594 -1.039,3.961 -1.039,8.629 0,5.469 0.02,5.586 1.539,8.566 1.903,3.727 4.403,5.512 8.157,5.821 8.148,0.676 16.211,-10.75 16.246,-23.016 0.015,-4.973 -0.742,-7.824 -2.856,-10.738 -2.113,-2.922 -6.445,-4.508 -9.882,-3.621 z m 3.277,9.691 c 1.41,2.641 0.773,8.969 -1.367,13.52 -1.035,2.203 -3.852,5.453 -4.727,5.453 -0.902,0 -1.805,-2.918 -1.805,-5.848 0,-4.5 1.719,-9.297 4.45,-12.406 1.511,-1.723 2.769,-1.984 3.449,-0.719 z m 41.254,-5.496 c -4.168,1.141 -7.953,6.344 -9.317,12.805 -2,9.48 1.207,20.375 6.996,23.765 5.372,3.149 11.305,0.969 14.7,-5.398 1.863,-3.5 2.715,-7.387 2.722,-12.441 0.02,-12.614 -6.754,-21.012 -15.101,-18.731 z m 4.078,9.793 c 2.594,3.297 2.996,11.777 0.785,16.578 -1.582,3.438 -2.641,3.36 -4.484,-0.332 -1.172,-2.344 -1.305,-3.043 -1.313,-6.824 -0.008,-4.434 0.492,-6.801 1.945,-9.16 1.067,-1.739 1.856,-1.805 3.067,-0.262 z m 59.664,34.582 c -6.934,2.473 -12.227,12.102 -12.285,22.348 -0.051,8.992 3.594,14.336 10.152,14.879 6.031,0.5 12.371,-6.012 14.957,-15.356 1.203,-4.355 1.082,-11.726 -0.25,-15.148 -2.207,-5.66 -7.543,-8.516 -12.574,-6.723 z m 4.062,9.453 c 1.133,1.731 1,8.25 -0.238,11.676 -1.051,2.914 -3.234,6.273 -4.527,6.965 -1.305,0.699 -2.02,-0.106 -2.606,-2.93 -0.953,-4.578 0.965,-11.605 4.086,-14.996 0.965,-1.047 1.926,-1.906 2.129,-1.906 0.207,0 0.727,0.539 1.156,1.191 z M 548.496,406.17 c -3.652,0.625 -6.851,3.856 -8.191,8.274 -0.981,3.238 -0.969,9.472 0.027,13.285 1.621,6.199 5.398,12.109 9.273,14.504 5.59,3.457 12.25,0.933 14.848,-5.625 1.449,-3.653 1.449,-11.274 -0.004,-15.922 -3.07,-9.836 -9.433,-15.625 -15.957,-14.516 z m 3.957,10.348 c 3.586,4.086 5.43,11.929 3.871,16.492 -0.785,2.309 -2.25,2.117 -4.269,-0.555 -2.817,-3.722 -4.325,-9.718 -3.516,-13.976 0.742,-3.922 1.75,-4.426 3.914,-1.961 z m 99.738,-0.703 c -5.062,1.234 -9.812,6.914 -12.168,14.554 -1.343,4.348 -1.437,11.317 -0.211,15.063 1.61,4.902 5.27,7.824 9.801,7.824 3.348,0 5.688,-1.18 8.61,-4.34 4.39,-4.75 6.597,-10.844 6.644,-18.328 0.028,-4.066 -0.133,-5.258 -0.988,-7.445 -1.41,-3.59 -3.938,-6.239 -6.762,-7.078 -2.402,-0.715 -2.91,-0.739 -4.926,-0.25 z m 3.36,10.261 c 1.586,3.762 0.023,11.883 -3.074,15.989 -1.954,2.589 -3.184,2.961 -3.993,1.199 -2.007,-4.356 -0.269,-12.727 3.536,-17.063 1.71,-1.949 2.746,-1.984 3.531,-0.125 z m -59.86,-2.937 c -4.199,2.133 -6.441,7.07 -6.375,14.055 0.071,7.101 2.719,14.14 6.961,18.488 2.793,2.859 5.368,4.152 8.282,4.168 7.074,0.031 11.476,-6.875 10.742,-16.856 -0.805,-10.992 -7.324,-20.222 -14.715,-20.843 -2.141,-0.18 -2.898,-0.024 -4.895,0.988 z m 7.434,10.547 c 3.445,5.004 4.59,13.644 2.203,16.582 l -0.824,1.008 -1.395,-1.321 c -3.082,-2.918 -4.984,-8.043 -4.929,-13.281 0.043,-4.219 1.121,-6.289 2.804,-5.387 0.43,0.231 1.391,1.309 2.141,2.399 z m -48.449,-98.434 c 1.39,2.602 0.894,8.617 -1.082,13.086 -1.106,2.5 -3.93,5.887 -4.91,5.887 -1.243,0 -2.032,-3.039 -1.789,-6.906 0.187,-3.063 0.496,-4.168 2.027,-7.336 2.359,-4.871 4.664,-6.766 5.754,-4.731 z m 161.215,42.758 c 2.57,4.16 3.168,11.75 1.261,16.059 -1.05,2.375 -2.187,2.578 -3.566,0.64 -3.289,-4.621 -3.828,-14.875 -0.957,-18.164 1.012,-1.156 1.879,-0.769 3.262,1.465 z M 600.035,486.787 c 2.641,0.274 13.496,0.481 25.309,0.485 16.558,0 22.078,-0.149 27.672,-0.754 l 6.984,-0.754 1.312,1.242 c 2.376,2.246 8.063,10.176 10.118,14.109 2.867,5.485 4.351,9.895 4.625,13.762 0.246,3.488 -0.504,6.363 -1.785,6.856 -1.75,0.671 -6.043,-2.157 -18.84,-12.418 -5.481,-4.395 -10.399,-8.129 -10.93,-8.301 -1.555,-0.492 -3.863,0.16 -4.809,1.363 -0.48,0.61 -1.101,2.203 -1.379,3.543 -1.687,8.125 -6.003,16.344 -9.808,18.664 -1.652,1.008 -4.258,1.11 -5.957,0.231 -3.676,-1.903 -7.91,-9.25 -9.914,-17.2 -1.281,-5.07 -2.637,-6.824 -5.281,-6.824 -1.653,0 -2.614,0.664 -11.5,7.93 -10.309,8.433 -17.153,13.199 -18.957,13.199 -0.309,0 -0.993,-0.547 -1.52,-1.211 -0.867,-1.097 -0.937,-1.605 -0.77,-5.39 0.157,-3.426 0.469,-4.911 1.723,-8.196 2.492,-6.519 6.957,-13.609 12.18,-19.332 l 1.898,-2.078 2.504,0.297 c 1.375,0.164 4.582,0.512 7.125,0.777 z"
         style="fill:#000000;fill-opacity:1;fill-rule:nonzero;stroke:none"
         id="path32"
         inkscape:connector-curvature="0" /><g
         id="g34"
         transform="matrix(1,0,0,-1,0,595.27557)"><path
           d="m 31.09,430.461 h 134 c 5.711,0 10.308,4.594 10.308,10.305 V 574.77 c 0,5.71 -4.597,10.304 -10.308,10.304 h -134 c -5.711,0 -10.309,-4.594 -10.309,-10.304 V 440.766 c 0,-5.711 4.598,-10.305 10.309,-10.305 z"
           style="fill:#ffb4e6;fill-opacity:1;fill-rule:nonzero;stroke:#000000;stroke-width:4.12312078;stroke-linecap:round;stroke-linejoin:round;stroke-miterlimit:4;stroke-dasharray:none;stroke-opacity:1"
           id="path36"
           inkscape:connector-curvature="0" /></g><text
         transform="scale(1,-1)"
         style="font-variant:normal;font-weight:normal;font-size:16.29091072px;font-family:Arial;-inkscape-font-specification:ArialMT;writing-mode:lr-tb;fill:#000000;fill-opacity:1;fill-rule:nonzero;stroke:none"
         id="text40"
         x="42.995529"
         y="-20.938051"><tspan
           sodipodi:role="line"
           id="tspan38"
           x="42.995529"
           y="-20.938051">STRAWBERRY</tspan></text>
<path
         d="m 94.555,40.108 c -7.328,0.988 -13.93,5.671 -20.559,14.586 -5.863,7.878 -11.953,20.007 -15.371,30.597 -5.77,17.875 -3.113,31.293 7.738,39.074 2.973,2.133 7.926,4.34 11.957,5.329 0.727,0.179 1.391,0.382 1.473,0.453 0.082,0.07 -0.379,0.863 -1.027,1.765 -3.008,4.188 -4.539,7.914 -4.551,11.071 -0.008,1.843 0.367,3.183 1.191,4.265 0.953,1.246 1.707,1.633 3.18,1.633 2.031,0 3.703,-0.937 8.387,-4.695 1.425,-1.149 2.703,-2.082 2.839,-2.082 0.141,0 0.348,0.324 0.473,0.746 0.352,1.199 1.695,3.668 2.61,4.804 3.347,4.161 8.117,3.672 11.226,-1.152 0.633,-0.976 1.082,-1.906 2.031,-4.199 0.121,-0.293 0.235,-0.363 0.387,-0.242 0.121,0.093 1.324,1.058 2.68,2.148 5.39,4.32 7.761,5.387 9.859,4.43 2.445,-1.117 3.481,-4.387 2.582,-8.141 -0.664,-2.777 -2.301,-6.058 -4.398,-8.812 -0.895,-1.172 -1.055,-1.731 -0.496,-1.731 0.445,0 3.32,-0.875 5.304,-1.613 5.453,-2.031 10.09,-5.242 13.008,-9.02 1.883,-2.429 2.906,-4.324 3.871,-7.152 3.692,-10.812 0.922,-25.164 -8.422,-43.641 -4.207,-8.316 -8.468,-14.636 -13.105,-19.429 -4.313,-4.457 -8.234,-7.024 -12.867,-8.418 -1.555,-0.465 -2.211,-0.567 -4.137,-0.625 -1.258,-0.043 -2.727,-0.098 -3.258,-0.121 -0.531,-0.028 -1.707,0.051 -2.605,0.172 z m 6.453,3.558 c 0.172,0.11 0.203,0.324 0.113,0.746 -0.316,1.457 -0.875,1.571 -1.797,0.36 -0.836,-1.098 -0.781,-1.262 0.434,-1.258 0.554,0.004 1.117,0.07 1.25,0.152 z m -5.485,1.637 c 1.356,2.691 3.555,4.258 5.52,3.926 1.117,-0.188 2.269,-1.082 2.844,-2.196 0.273,-0.535 0.578,-1.308 0.675,-1.718 0.11,-0.45 0.282,-0.746 0.434,-0.746 0.465,0 3.895,1.851 5.391,2.914 3.015,2.14 7.261,6.765 10.402,11.343 3.93,5.727 8.285,14.094 11.418,21.95 0.879,2.207 0.957,2.699 0.426,2.699 -0.442,0 -1.539,0.629 -2.055,1.172 -1.183,1.257 -1.793,3.191 -1.793,5.695 -0.004,2.832 0.735,5.094 2.203,6.762 1.367,1.554 3.246,2.023 4.871,1.218 l 0.758,-0.375 0.184,0.465 c 0.316,0.809 0.066,7.758 -0.34,9.625 -2.547,11.598 -11.652,17.985 -28.109,19.711 -3.625,0.383 -17.059,0.379 -20.575,-0.004 -6.605,-0.715 -11.047,-1.859 -15.351,-3.953 -2.942,-1.429 -4.641,-2.613 -6.711,-4.66 -3.324,-3.301 -5.106,-6.68 -6.09,-11.578 -0.344,-1.699 -0.398,-2.508 -0.387,-5.68 0.008,-3.957 0.27,-6.09 1.239,-10.211 0.773,-3.277 3.136,-10.554 3.601,-11.074 0.078,-0.086 0.395,0.063 0.723,0.336 0.808,0.684 1.566,0.969 2.578,0.969 1.531,0 2.859,-0.824 4.203,-2.61 2.824,-3.75 2.801,-9.898 -0.043,-11.8 -0.48,-0.321 -0.894,-0.641 -0.922,-0.711 -0.07,-0.188 2.629,-4.746 4.219,-7.137 5.785,-8.668 11.461,-13.668 17.59,-15.496 2.168,-0.649 2.191,-0.637 3.097,1.164 z m -8.211,9.855 c -4.89,1.407 -7.023,11.684 -2.972,14.364 1.078,0.715 2.64,0.769 3.926,0.144 3.234,-1.586 5.23,-7.347 3.961,-11.433 -0.481,-1.551 -1.602,-2.758 -2.852,-3.071 -0.949,-0.242 -1.234,-0.242 -2.063,-0.004 z m 1.524,4.024 c 0.305,0.605 0.281,2.703 -0.047,3.965 -0.441,1.691 -1.707,3.511 -2.355,3.386 -0.661,-0.125 -0.926,-2.589 -0.469,-4.316 0.5,-1.879 1.68,-3.66 2.34,-3.535 0.168,0.035 0.406,0.258 0.531,0.5 z m 17.965,-4.063 c -1.574,0.504 -2.598,1.789 -3.055,3.84 -0.691,3.121 0.356,7.047 2.496,9.363 1.192,1.286 2.141,1.774 3.43,1.77 2.281,-0.012 3.687,-1.477 4.219,-4.398 0.671,-3.715 -1.43,-8.77 -4.25,-10.219 -0.758,-0.391 -2.172,-0.567 -2.84,-0.356 z m 2.051,4.266 c 1.496,1.746 2.156,5.664 1.16,6.875 -0.403,0.492 -0.711,0.352 -1.524,-0.707 -0.851,-1.109 -1.379,-2.848 -1.367,-4.524 0.012,-2.445 0.582,-2.988 1.731,-1.644 z m 5.66,15.363 c -1.539,0.571 -2.407,1.731 -2.844,3.805 -0.621,2.941 0.449,6.851 2.504,9.133 1.652,1.84 3.433,2.371 5.215,1.554 1.734,-0.793 2.613,-2.609 2.629,-5.425 0.027,-5.45 -4.032,-10.352 -7.504,-9.067 z m 2.14,4.02 c 1.121,1.168 1.805,3.097 1.809,5.094 0.004,2.132 -0.516,2.687 -1.523,1.621 -1.606,-1.704 -2.372,-4.934 -1.633,-6.875 0.218,-0.575 0.703,-0.516 1.347,0.16 z m -35.953,0.636 c -0.82,0.211 -1.324,0.532 -2.34,1.497 -1.062,1.003 -1.914,2.433 -2.527,4.246 -0.348,1.039 -0.414,1.586 -0.414,3.453 0,2.187 0.008,2.234 0.617,3.426 0.758,1.492 1.758,2.203 3.262,2.328 3.258,0.269 6.484,-4.301 6.496,-9.207 0.008,-1.989 -0.297,-3.129 -1.141,-4.293 -0.847,-1.168 -2.578,-1.805 -3.953,-1.45 z m 1.309,3.875 c 0.566,1.059 0.312,3.59 -0.543,5.411 -0.414,0.879 -1.543,2.179 -1.891,2.179 -0.363,0 -0.722,-1.168 -0.722,-2.34 0,-1.8 0.687,-3.718 1.777,-4.96 0.605,-0.688 1.109,-0.793 1.379,-0.29 z m 16.504,-2.195 c -1.668,0.453 -3.18,2.535 -3.727,5.121 -0.801,3.793 0.485,8.149 2.797,9.504 2.148,1.262 4.523,0.391 5.879,-2.16 0.746,-1.398 1.086,-2.953 1.09,-4.977 0.008,-5.043 -2.699,-8.402 -6.039,-7.488 z m 1.633,3.914 c 1.035,1.321 1.195,4.711 0.312,6.633 -0.633,1.375 -1.055,1.344 -1.793,-0.133 -0.469,-0.937 -0.523,-1.219 -0.527,-2.73 -0.004,-1.774 0.199,-2.719 0.777,-3.664 0.43,-0.696 0.742,-0.723 1.231,-0.106 z m 23.863,13.836 c -2.774,0.988 -4.891,4.84 -4.914,8.938 -0.02,3.597 1.437,5.734 4.062,5.949 2.41,0.203 4.949,-2.402 5.981,-6.141 0.484,-1.742 0.433,-4.691 -0.098,-6.058 -0.883,-2.266 -3.019,-3.407 -5.031,-2.688 z m 1.625,3.781 c 0.453,0.692 0.402,3.297 -0.094,4.668 -0.422,1.168 -1.297,2.508 -1.812,2.786 -0.52,0.281 -0.809,-0.043 -1.043,-1.168 -0.379,-1.836 0.386,-4.645 1.636,-6 0.387,-0.422 0.77,-0.762 0.852,-0.762 0.082,0 0.289,0.215 0.461,0.476 z M 67.391,99.147 c -1.461,0.25 -2.743,1.543 -3.278,3.312 -0.394,1.293 -0.386,3.785 0.012,5.313 0.648,2.48 2.16,4.843 3.707,5.8 2.238,1.383 4.902,0.375 5.941,-2.25 0.579,-1.46 0.579,-4.507 -0.003,-6.367 -1.227,-3.937 -3.774,-6.25 -6.383,-5.808 z m 1.582,4.14 c 1.433,1.633 2.172,4.774 1.55,6.598 -0.316,0.922 -0.902,0.848 -1.711,-0.223 -1.124,-1.488 -1.726,-3.886 -1.406,-5.59 0.297,-1.57 0.699,-1.769 1.567,-0.785 z m 39.894,-0.281 c -2.023,0.492 -3.926,2.766 -4.867,5.82 -0.535,1.743 -0.574,4.528 -0.082,6.028 0.644,1.961 2.105,3.129 3.918,3.129 1.34,0 2.277,-0.473 3.445,-1.739 1.754,-1.898 2.637,-4.336 2.657,-7.328 0.011,-1.629 -0.051,-2.101 -0.395,-2.98 -0.563,-1.434 -1.574,-2.496 -2.703,-2.828 -0.961,-0.286 -1.168,-0.297 -1.973,-0.102 z m 1.344,4.106 c 0.637,1.503 0.012,4.75 -1.231,6.394 -0.781,1.035 -1.273,1.184 -1.597,0.481 -0.801,-1.743 -0.106,-5.094 1.418,-6.829 0.683,-0.777 1.097,-0.793 1.41,-0.046 z M 86.27,105.936 c -1.68,0.851 -2.579,2.828 -2.551,5.621 0.027,2.84 1.086,5.656 2.785,7.394 1.113,1.145 2.144,1.664 3.312,1.668 2.829,0.012 4.59,-2.75 4.297,-6.742 -0.324,-4.394 -2.929,-8.09 -5.886,-8.336 -0.856,-0.074 -1.161,-0.012 -1.957,0.395 z m 2.972,4.218 c 1.375,2 1.836,5.458 0.879,6.633 l -0.328,0.403 -0.559,-0.528 c -1.23,-1.168 -1.992,-3.218 -1.972,-5.312 0.019,-1.688 0.449,-2.516 1.125,-2.156 0.168,0.093 0.554,0.523 0.855,0.96 z M 69.863,70.779 c 0.555,1.043 0.356,3.45 -0.433,5.235 -0.442,1 -1.575,2.355 -1.965,2.355 -0.496,0 -0.813,-1.215 -0.715,-2.761 0.074,-1.227 0.195,-1.668 0.812,-2.934 0.942,-1.949 1.864,-2.707 2.301,-1.895 z m 64.485,17.106 c 1.027,1.664 1.265,4.699 0.504,6.422 -0.418,0.949 -0.875,1.031 -1.426,0.258 -1.317,-1.848 -1.531,-5.953 -0.383,-7.266 0.406,-0.465 0.75,-0.309 1.305,0.586 z m -46.344,43.508 c 1.058,0.113 5.398,0.195 10.125,0.195 6.621,0 8.832,-0.059 11.066,-0.301 l 2.797,-0.3 0.524,0.496 c 0.949,0.898 3.226,4.07 4.046,5.644 1.149,2.192 1.743,3.957 1.852,5.504 0.098,1.395 -0.203,2.547 -0.715,2.742 -0.699,0.27 -2.418,-0.863 -7.535,-4.969 -2.191,-1.757 -4.16,-3.25 -4.375,-3.32 -0.621,-0.195 -1.543,0.067 -1.922,0.547 -0.191,0.242 -0.437,0.883 -0.551,1.418 -0.675,3.25 -2.402,6.535 -3.921,7.465 -0.665,0.402 -1.707,0.441 -2.383,0.09 -1.473,-0.758 -3.168,-3.7 -3.969,-6.879 -0.512,-2.028 -1.055,-2.727 -2.109,-2.727 -0.664,0 -1.047,0.266 -4.602,3.172 -4.125,3.371 -6.863,5.277 -7.582,5.277 -0.125,0 -0.398,-0.218 -0.609,-0.484 -0.348,-0.437 -0.375,-0.641 -0.309,-2.156 0.063,-1.371 0.188,-1.965 0.691,-3.278 0.997,-2.609 2.782,-5.445 4.872,-7.734 l 0.757,-0.832 1.004,0.121 c 0.551,0.067 1.832,0.203 2.848,0.309 z"
         style="fill:#000000;fill-opacity:1;fill-rule:nonzero;stroke:none"
         id="path42"
         inkscape:connector-curvature="0" /><g
         id="g44"
         transform="matrix(1,0,0,-1,0,595.27557)"><path
           d="m 203.852,430.461 h 134 c 5.71,0 10.308,4.594 10.308,10.305 V 574.77 c 0,5.71 -4.598,10.304 -10.308,10.304 h -134 c -5.711,0 -10.309,-4.594 -10.309,-10.304 V 440.766 c 0,-5.711 4.598,-10.305 10.309,-10.305 z"
           style="fill:#ffb4e6;fill-opacity:1;fill-rule:nonzero;stroke:#000000;stroke-width:4.12312078;stroke-linecap:round;stroke-linejoin:round;stroke-miterlimit:4;stroke-dasharray:none;stroke-opacity:1"
           id="path46"
           inkscape:connector-curvature="0" /></g><text
         transform="scale(1,-1)"
         style="font-variant:normal;font-weight:normal;font-size:16.29091072px;font-family:Arial;-inkscape-font-specification:ArialMT;writing-mode:lr-tb;fill:#000000;fill-opacity:1;fill-rule:nonzero;stroke:none"
         id="text50"
         x="215.75706"
         y="-20.938051"><tspan
           sodipodi:role="line"
           id="tspan48"
           x="215.75706"
           y="-20.938051">STRAWBERRY</tspan></text>
<path
         d="m 267.316,40.108 c -7.328,0.988 -13.929,5.671 -20.562,14.586 -5.859,7.878 -11.949,20.007 -15.367,30.597 -5.77,17.875 -3.114,31.293 7.738,39.074 2.973,2.133 7.926,4.34 11.957,5.329 0.727,0.179 1.391,0.382 1.473,0.453 0.082,0.07 -0.379,0.863 -1.028,1.765 -3.007,4.188 -4.539,7.914 -4.55,11.071 -0.008,1.843 0.367,3.183 1.191,4.265 0.953,1.246 1.707,1.633 3.18,1.633 2.031,0 3.703,-0.937 8.386,-4.695 1.426,-1.149 2.704,-2.082 2.84,-2.082 0.141,0 0.348,0.324 0.473,0.746 0.351,1.199 1.695,3.668 2.609,4.804 3.348,4.161 8.117,3.672 11.227,-1.152 0.633,-0.976 1.082,-1.906 2.031,-4.199 0.121,-0.293 0.234,-0.363 0.387,-0.242 0.117,0.093 1.324,1.058 2.679,2.148 5.391,4.32 7.762,5.387 9.86,4.43 2.445,-1.117 3.48,-4.387 2.582,-8.141 -0.664,-2.777 -2.301,-6.058 -4.399,-8.812 -0.894,-1.172 -1.054,-1.731 -0.496,-1.731 0.446,0 3.321,-0.875 5.305,-1.613 5.453,-2.031 10.09,-5.242 13.008,-9.02 1.883,-2.429 2.906,-4.324 3.871,-7.152 3.691,-10.812 0.922,-25.164 -8.426,-43.641 -4.203,-8.316 -8.465,-14.636 -13.101,-19.429 -4.313,-4.457 -8.235,-7.024 -12.868,-8.418 -1.554,-0.465 -2.211,-0.567 -4.136,-0.625 -1.258,-0.043 -2.727,-0.098 -3.258,-0.121 -0.531,-0.028 -1.707,0.051 -2.606,0.172 z m 6.454,3.558 c 0.168,0.11 0.203,0.324 0.113,0.746 -0.317,1.457 -0.875,1.571 -1.797,0.36 -0.836,-1.098 -0.781,-1.262 0.434,-1.258 0.554,0.004 1.117,0.07 1.25,0.152 z m -5.485,1.637 c 1.356,2.691 3.555,4.258 5.52,3.926 1.113,-0.188 2.269,-1.082 2.843,-2.196 0.274,-0.535 0.579,-1.308 0.676,-1.718 0.11,-0.45 0.281,-0.746 0.434,-0.746 0.465,0 3.894,1.851 5.39,2.914 3.016,2.14 7.262,6.765 10.403,11.343 3.929,5.727 8.285,14.094 11.418,21.95 0.879,2.207 0.957,2.699 0.426,2.699 -0.442,0 -1.54,0.629 -2.055,1.172 -1.184,1.257 -1.793,3.191 -1.793,5.695 -0.004,2.832 0.734,5.094 2.203,6.762 1.367,1.554 3.246,2.023 4.871,1.218 l 0.758,-0.375 0.183,0.465 c 0.313,0.809 0.067,7.758 -0.339,9.625 -2.547,11.598 -11.653,17.985 -28.11,19.711 -3.625,0.383 -17.058,0.379 -20.574,-0.004 -6.605,-0.715 -11.047,-1.859 -15.351,-3.953 -2.942,-1.429 -4.641,-2.613 -6.711,-4.66 -3.325,-3.301 -5.106,-6.68 -6.09,-11.578 -0.344,-1.699 -0.399,-2.508 -0.391,-5.68 0.012,-3.957 0.274,-6.09 1.242,-10.211 0.774,-3.277 3.137,-10.554 3.602,-11.074 0.074,-0.086 0.394,0.063 0.722,0.336 0.809,0.684 1.567,0.969 2.579,0.969 1.531,0 2.859,-0.824 4.203,-2.61 2.824,-3.75 2.801,-9.898 -0.043,-11.8 -0.481,-0.321 -0.899,-0.641 -0.922,-0.711 -0.07,-0.188 2.625,-4.746 4.219,-7.137 5.785,-8.668 11.461,-13.668 17.59,-15.496 2.167,-0.649 2.191,-0.637 3.097,1.164 z m -8.211,9.855 c -4.894,1.407 -7.023,11.684 -2.972,14.364 1.078,0.715 2.64,0.769 3.925,0.144 3.235,-1.586 5.231,-7.347 3.961,-11.433 -0.48,-1.551 -1.601,-2.758 -2.851,-3.071 -0.949,-0.242 -1.235,-0.242 -2.063,-0.004 z m 1.524,4.024 c 0.304,0.605 0.281,2.703 -0.047,3.965 -0.442,1.691 -1.707,3.511 -2.356,3.386 -0.66,-0.125 -0.925,-2.589 -0.468,-4.316 0.5,-1.879 1.679,-3.66 2.339,-3.535 0.168,0.035 0.407,0.258 0.532,0.5 z m 17.964,-4.063 c -1.574,0.504 -2.597,1.789 -3.054,3.84 -0.696,3.121 0.355,7.047 2.496,9.363 1.191,1.286 2.137,1.774 3.43,1.77 2.281,-0.012 3.687,-1.477 4.218,-4.398 0.672,-3.715 -1.429,-8.77 -4.25,-10.219 -0.757,-0.391 -2.172,-0.567 -2.84,-0.356 z m 2.051,4.266 c 1.496,1.746 2.157,5.664 1.16,6.875 -0.406,0.492 -0.711,0.352 -1.523,-0.707 -0.852,-1.109 -1.379,-2.848 -1.367,-4.524 0.012,-2.445 0.582,-2.988 1.73,-1.644 z m 5.66,15.363 c -1.539,0.571 -2.406,1.731 -2.843,3.805 -0.621,2.941 0.449,6.851 2.504,9.133 1.648,1.84 3.433,2.371 5.214,1.554 1.735,-0.793 2.614,-2.609 2.629,-5.425 0.028,-5.45 -4.031,-10.352 -7.504,-9.067 z m 2.141,4.02 c 1.121,1.168 1.805,3.097 1.809,5.094 0.004,2.132 -0.516,2.687 -1.524,1.621 -1.605,-1.704 -2.371,-4.934 -1.633,-6.875 0.219,-0.575 0.704,-0.516 1.348,0.16 z m -35.953,0.636 c -0.824,0.211 -1.324,0.532 -2.34,1.497 -1.062,1.003 -1.914,2.433 -2.527,4.246 -0.348,1.039 -0.414,1.586 -0.414,3.453 0,2.187 0.008,2.234 0.613,3.426 0.762,1.492 1.762,2.203 3.266,2.328 3.257,0.269 6.484,-4.301 6.496,-9.207 0.007,-1.989 -0.297,-3.129 -1.141,-4.293 -0.848,-1.168 -2.578,-1.805 -3.953,-1.45 z m 1.309,3.875 c 0.566,1.059 0.312,3.59 -0.543,5.411 -0.418,0.879 -1.543,2.179 -1.891,2.179 -0.363,0 -0.723,-1.168 -0.723,-2.34 0,-1.8 0.688,-3.718 1.778,-4.96 0.605,-0.688 1.109,-0.793 1.379,-0.29 z m 16.503,-2.195 c -1.668,0.453 -3.179,2.535 -3.726,5.121 -0.801,3.793 0.484,8.149 2.797,9.504 2.148,1.262 4.523,0.391 5.879,-2.16 0.746,-1.398 1.086,-2.953 1.089,-4.977 0.008,-5.043 -2.699,-8.402 -6.039,-7.488 z m 1.633,3.914 c 1.035,1.321 1.196,4.711 0.313,6.633 -0.633,1.375 -1.055,1.344 -1.793,-0.133 -0.469,-0.937 -0.524,-1.219 -0.528,-2.73 -0.003,-1.774 0.2,-2.719 0.778,-3.664 0.429,-0.696 0.742,-0.723 1.23,-0.106 z m 23.864,13.836 c -2.774,0.988 -4.891,4.84 -4.915,8.938 -0.019,3.597 1.438,5.734 4.063,5.949 2.41,0.203 4.949,-2.402 5.98,-6.141 0.485,-1.742 0.434,-4.691 -0.097,-6.058 -0.883,-2.266 -3.02,-3.407 -5.031,-2.688 z m 1.625,3.781 c 0.453,0.692 0.402,3.297 -0.094,4.668 -0.422,1.168 -1.297,2.508 -1.813,2.786 -0.519,0.281 -0.808,-0.043 -1.043,-1.168 -0.379,-1.836 0.387,-4.645 1.637,-6 0.387,-0.422 0.77,-0.762 0.852,-0.762 0.082,0 0.289,0.215 0.461,0.476 z m -58.243,-3.468 c -1.461,0.25 -2.742,1.543 -3.277,3.312 -0.395,1.293 -0.387,3.785 0.012,5.313 0.648,2.48 2.16,4.843 3.707,5.8 2.238,1.383 4.902,0.375 5.941,-2.25 0.578,-1.46 0.578,-4.507 -0.004,-6.367 -1.226,-3.937 -3.773,-6.25 -6.383,-5.808 z m 1.582,4.14 c 1.434,1.633 2.172,4.774 1.547,6.598 -0.312,0.922 -0.898,0.848 -1.707,-0.223 -1.125,-1.488 -1.73,-3.886 -1.406,-5.59 0.297,-1.57 0.699,-1.769 1.566,-0.785 z m 39.895,-0.281 c -2.024,0.492 -3.926,2.766 -4.867,5.82 -0.535,1.743 -0.574,4.528 -0.082,6.028 0.64,1.961 2.105,3.129 3.918,3.129 1.34,0 2.277,-0.473 3.445,-1.739 1.754,-1.898 2.637,-4.336 2.656,-7.328 0.012,-1.629 -0.051,-2.101 -0.394,-2.98 -0.563,-1.434 -1.575,-2.496 -2.703,-2.828 -0.965,-0.286 -1.168,-0.297 -1.973,-0.102 z m 1.344,4.106 c 0.632,1.503 0.011,4.75 -1.231,6.394 -0.781,1.035 -1.273,1.184 -1.597,0.481 -0.801,-1.743 -0.106,-5.094 1.417,-6.829 0.684,-0.777 1.098,-0.793 1.411,-0.046 z m -23.942,-1.176 c -1.679,0.851 -2.578,2.828 -2.551,5.621 0.028,2.84 1.086,5.656 2.782,7.394 1.117,1.145 2.148,1.664 3.316,1.668 2.828,0.012 4.59,-2.75 4.297,-6.742 -0.324,-4.394 -2.93,-8.09 -5.887,-8.336 -0.855,-0.074 -1.16,-0.012 -1.957,0.395 z m 2.973,4.218 c 1.375,2 1.836,5.458 0.879,6.633 l -0.328,0.403 -0.559,-0.528 c -1.23,-1.168 -1.992,-3.218 -1.973,-5.312 0.02,-1.688 0.45,-2.516 1.125,-2.156 0.168,0.093 0.555,0.523 0.856,0.96 z M 242.621,70.779 c 0.559,1.043 0.359,3.45 -0.43,5.235 -0.445,1 -1.574,2.355 -1.964,2.355 -0.497,0 -0.813,-1.215 -0.715,-2.761 0.074,-1.227 0.195,-1.668 0.808,-2.934 0.946,-1.949 1.868,-2.707 2.301,-1.895 z m 64.488,17.106 c 1.028,1.664 1.266,4.699 0.504,6.422 -0.418,0.949 -0.875,1.031 -1.425,0.258 -1.317,-1.848 -1.532,-5.953 -0.383,-7.266 0.406,-0.465 0.75,-0.309 1.304,0.586 z m -46.343,43.508 c 1.058,0.113 5.398,0.195 10.125,0.195 6.621,0 8.832,-0.059 11.066,-0.301 l 2.797,-0.3 0.523,0.496 c 0.95,0.898 3.227,4.07 4.047,5.644 1.149,2.192 1.742,3.957 1.852,5.504 0.097,1.395 -0.203,2.547 -0.715,2.742 -0.699,0.27 -2.418,-0.863 -7.535,-4.969 -2.192,-1.757 -4.16,-3.25 -4.375,-3.32 -0.621,-0.195 -1.543,0.067 -1.922,0.547 -0.191,0.242 -0.441,0.883 -0.551,1.418 -0.676,3.25 -2.402,6.535 -3.922,7.465 -0.664,0.402 -1.707,0.441 -2.383,0.09 -1.472,-0.758 -3.168,-3.7 -3.968,-6.879 -0.512,-2.028 -1.055,-2.727 -2.11,-2.727 -0.664,0 -1.047,0.266 -4.601,3.172 -4.125,3.371 -6.864,5.277 -7.582,5.277 -0.125,0 -0.399,-0.218 -0.61,-0.484 -0.347,-0.437 -0.375,-0.641 -0.308,-2.156 0.062,-1.371 0.187,-1.965 0.691,-3.278 0.996,-2.609 2.781,-5.445 4.871,-7.734 l 0.758,-0.832 1.004,0.121 c 0.551,0.067 1.832,0.203 2.848,0.309 z"
         style="fill:#000000;fill-opacity:1;fill-rule:nonzero;stroke:none"
         id="path52"
         inkscape:connector-curvature="0" /><g
         id="g54"
         transform="matrix(1,0,0,-1,0,595.27557)"><path
           d="m 435.656,429.871 h 95.719 c 4.078,0 7.359,3.281 7.359,7.363 v 95.715 c 0,4.078 -3.281,7.363 -7.359,7.363 h -95.719 c -4.078,0 -7.359,-3.285 -7.359,-7.363 v -95.715 c 0,-4.082 3.281,-7.363 7.359,-7.363 z"
           style="fill:#ffb4e6;fill-opacity:1;fill-rule:nonzero;stroke:#000000;stroke-width:2.94508696;stroke-linecap:round;stroke-linejoin:round;stroke-miterlimit:4;stroke-dasharray:none;stroke-opacity:1"
           id="path56"
           inkscape:connector-curvature="0" /></g><text
         transform="scale(1,-1)"
         style="font-variant:normal;font-weight:normal;font-size:11.63636398px;font-family:Arial;-inkscape-font-specification:ArialMT;writing-mode:lr-tb;fill:#000000;fill-opacity:1;fill-rule:nonzero;stroke:none"
         id="text60"
         x="444.37637"
         y="-62.635197"><tspan
           sodipodi:role="line"
           id="tspan58"
           x="444.37637"
           y="-62.635197">STRAWBERRY</tspan></text>
<path
         d="m 480.988,76.326 c -5.23,0.707 -9.949,4.055 -14.683,10.422 -4.188,5.625 -8.535,14.289 -10.981,21.856 -4.121,12.765 -2.222,22.351 5.531,27.91 2.122,1.519 5.661,3.098 8.54,3.805 0.519,0.128 0.992,0.273 1.05,0.324 0.059,0.047 -0.269,0.617 -0.734,1.258 -2.149,2.992 -3.242,5.652 -3.25,7.91 -0.004,1.316 0.262,2.273 0.851,3.047 0.68,0.886 1.219,1.164 2.27,1.164 1.453,0 2.648,-0.668 5.992,-3.356 1.02,-0.816 1.934,-1.484 2.031,-1.484 0.098,0 0.247,0.234 0.333,0.535 0.253,0.855 1.214,2.617 1.867,3.43 2.39,2.972 5.8,2.621 8.019,-0.821 0.449,-0.699 0.77,-1.363 1.449,-3 0.086,-0.211 0.168,-0.261 0.278,-0.175 0.086,0.066 0.945,0.757 1.914,1.535 3.847,3.086 5.543,3.847 7.043,3.164 1.746,-0.797 2.484,-3.133 1.844,-5.817 -0.473,-1.98 -1.645,-4.328 -3.145,-6.293 -0.637,-0.836 -0.75,-1.234 -0.352,-1.234 0.317,0 2.372,-0.625 3.79,-1.156 3.894,-1.449 7.207,-3.742 9.293,-6.438 1.343,-1.738 2.074,-3.09 2.761,-5.109 2.637,-7.727 0.66,-17.977 -6.015,-31.176 -3.004,-5.937 -6.047,-10.453 -9.36,-13.875 -3.078,-3.183 -5.883,-5.019 -9.191,-6.012 -1.11,-0.336 -1.578,-0.406 -2.957,-0.449 -0.899,-0.031 -1.946,-0.066 -2.324,-0.086 -0.383,-0.019 -1.219,0.035 -1.864,0.121 z m 4.614,2.543 c 0.121,0.078 0.14,0.231 0.078,0.535 -0.223,1.04 -0.625,1.122 -1.282,0.254 -0.597,-0.785 -0.558,-0.898 0.309,-0.898 0.398,0.004 0.801,0.051 0.895,0.109 z m -3.918,1.168 c 0.964,1.926 2.539,3.043 3.941,2.809 0.797,-0.137 1.621,-0.774 2.031,-1.574 0.196,-0.379 0.414,-0.93 0.485,-1.223 0.078,-0.324 0.199,-0.535 0.308,-0.535 0.332,0 2.781,1.324 3.848,2.082 2.156,1.527 5.187,4.832 7.433,8.101 2.805,4.09 5.915,10.067 8.153,15.68 0.629,1.574 0.687,1.926 0.308,1.926 -0.316,0 -1.101,0.449 -1.468,0.84 -0.848,0.894 -1.282,2.277 -1.285,4.066 0,2.024 0.527,3.641 1.574,4.832 0.976,1.11 2.32,1.446 3.48,0.867 l 0.543,-0.269 0.129,0.336 c 0.227,0.578 0.051,5.539 -0.242,6.871 -1.817,8.285 -8.324,12.848 -20.078,14.082 -2.586,0.273 -12.184,0.269 -14.696,0 -4.714,-0.516 -7.89,-1.332 -10.964,-2.828 -2.102,-1.02 -3.317,-1.863 -4.793,-3.328 -2.375,-2.356 -3.649,-4.77 -4.352,-8.27 -0.242,-1.215 -0.281,-1.793 -0.277,-4.055 0.008,-2.828 0.195,-4.351 0.886,-7.296 0.551,-2.34 2.243,-7.539 2.571,-7.907 0.058,-0.062 0.285,0.043 0.515,0.239 0.578,0.488 1.121,0.691 1.844,0.691 1.094,0 2.043,-0.59 3.004,-1.863 2.016,-2.68 2,-7.071 -0.031,-8.43 -0.344,-0.23 -0.641,-0.457 -0.66,-0.508 -0.047,-0.133 1.879,-3.39 3.015,-5.097 4.129,-6.192 8.188,-9.766 12.563,-11.071 1.547,-0.461 1.566,-0.453 2.215,0.832 z m -5.868,7.043 c -3.492,1.004 -5.015,8.344 -2.125,10.258 0.774,0.508 1.891,0.551 2.805,0.102 2.313,-1.129 3.738,-5.246 2.832,-8.164 -0.344,-1.11 -1.144,-1.969 -2.039,-2.196 -0.676,-0.172 -0.879,-0.172 -1.473,-0.004 z m 1.086,2.871 c 0.223,0.434 0.203,1.934 -0.031,2.832 -0.312,1.207 -1.219,2.508 -1.683,2.422 -0.469,-0.09 -0.661,-1.851 -0.333,-3.086 0.356,-1.34 1.2,-2.613 1.672,-2.523 0.121,0.023 0.289,0.183 0.375,0.355 z m 12.836,-2.898 c -1.125,0.355 -1.855,1.277 -2.183,2.742 -0.496,2.227 0.254,5.031 1.785,6.688 0.851,0.918 1.527,1.265 2.449,1.261 1.629,-0.007 2.633,-1.054 3.012,-3.14 0.48,-2.653 -1.02,-6.266 -3.035,-7.301 -0.543,-0.277 -1.551,-0.402 -2.028,-0.25 z m 1.465,3.043 c 1.067,1.25 1.539,4.047 0.828,4.914 -0.289,0.352 -0.508,0.25 -1.09,-0.508 -0.605,-0.793 -0.984,-2.031 -0.976,-3.23 0.008,-1.746 0.418,-2.133 1.238,-1.176 z m 4.043,10.976 c -1.101,0.407 -1.719,1.235 -2.031,2.715 -0.445,2.102 0.32,4.895 1.785,6.528 1.18,1.312 2.457,1.691 3.727,1.109 1.238,-0.57 1.867,-1.867 1.878,-3.879 0.02,-3.891 -2.878,-7.394 -5.359,-6.473 z m 1.527,2.868 c 0.801,0.836 1.289,2.214 1.293,3.64 0.004,1.524 -0.371,1.918 -1.089,1.157 -1.145,-1.215 -1.692,-3.524 -1.165,-4.911 0.157,-0.41 0.5,-0.367 0.961,0.114 z m -25.679,0.457 c -0.586,0.152 -0.946,0.379 -1.672,1.066 -0.758,0.719 -1.367,1.742 -1.805,3.035 -0.25,0.742 -0.297,1.133 -0.297,2.465 0,1.566 0.008,1.598 0.442,2.449 0.543,1.063 1.258,1.575 2.328,1.664 2.328,0.192 4.633,-3.07 4.644,-6.578 0.004,-1.418 -0.214,-2.234 -0.816,-3.066 -0.606,-0.836 -1.844,-1.289 -2.824,-1.035 z m 0.933,2.769 c 0.407,0.754 0.223,2.563 -0.386,3.863 -0.297,0.629 -1.102,1.559 -1.352,1.559 -0.258,0 -0.516,-0.836 -0.516,-1.672 0,-1.285 0.493,-2.656 1.27,-3.547 0.434,-0.492 0.793,-0.566 0.984,-0.203 z m 11.789,-1.57 c -1.191,0.324 -2.273,1.812 -2.66,3.656 -0.574,2.711 0.344,5.824 1.996,6.793 1.536,0.899 3.231,0.277 4.2,-1.543 0.535,-1 0.777,-2.109 0.781,-3.555 0.004,-3.605 -1.93,-6.003 -4.317,-5.351 z m 1.164,2.797 c 0.743,0.941 0.856,3.367 0.227,4.738 -0.453,0.981 -0.754,0.957 -1.281,-0.098 -0.336,-0.668 -0.375,-0.867 -0.375,-1.949 -0.004,-1.265 0.14,-1.941 0.554,-2.617 0.305,-0.496 0.532,-0.516 0.875,-0.074 z m 17.047,9.883 c -1.98,0.703 -3.492,3.457 -3.507,6.382 -0.016,2.571 1.027,4.098 2.898,4.25 1.723,0.145 3.535,-1.714 4.273,-4.386 0.344,-1.243 0.309,-3.352 -0.07,-4.328 -0.629,-1.618 -2.156,-2.434 -3.594,-1.918 z m 1.161,2.699 c 0.324,0.496 0.289,2.355 -0.067,3.336 -0.301,0.832 -0.926,1.793 -1.293,1.988 -0.375,0.199 -0.578,-0.027 -0.746,-0.836 -0.27,-1.309 0.277,-3.316 1.168,-4.285 0.277,-0.297 0.551,-0.543 0.609,-0.543 0.059,0 0.207,0.152 0.329,0.34 z m -41.602,-2.477 c -1.043,0.18 -1.957,1.102 -2.34,2.364 -0.281,0.925 -0.277,2.707 0.008,3.796 0.461,1.774 1.543,3.461 2.648,4.145 1.598,0.988 3.5,0.266 4.243,-1.606 0.414,-1.046 0.414,-3.222 0,-4.55 -0.875,-2.809 -2.696,-4.465 -4.559,-4.149 z m 1.129,2.957 c 1.027,1.168 1.555,3.41 1.109,4.711 -0.226,0.66 -0.644,0.606 -1.222,-0.156 -0.805,-1.063 -1.235,-2.777 -1.004,-3.992 0.214,-1.121 0.5,-1.266 1.117,-0.563 z m 28.5,-0.199 c -1.449,0.352 -2.805,1.973 -3.477,4.156 -0.383,1.242 -0.414,3.235 -0.062,4.305 0.461,1.402 1.508,2.234 2.801,2.234 0.957,0 1.625,-0.336 2.461,-1.238 1.253,-1.355 1.886,-3.098 1.898,-5.238 0.008,-1.16 -0.039,-1.5 -0.285,-2.125 -0.399,-1.028 -1.121,-1.785 -1.93,-2.024 -0.687,-0.203 -0.832,-0.211 -1.406,-0.07 z m 0.957,2.93 c 0.453,1.074 0.008,3.394 -0.875,4.57 -0.559,0.738 -0.91,0.844 -1.141,0.34 -0.574,-1.242 -0.078,-3.637 1.008,-4.875 0.488,-0.555 0.785,-0.567 1.008,-0.035 z m -17.102,-0.84 c -1.199,0.609 -1.84,2.023 -1.82,4.016 0.02,2.031 0.777,4.042 1.988,5.285 0.797,0.816 1.535,1.187 2.367,1.191 2.02,0.008 3.278,-1.965 3.071,-4.816 -0.231,-3.141 -2.094,-5.782 -4.207,-5.957 -0.61,-0.051 -0.828,-0.008 -1.399,0.281 z m 2.125,3.016 c 0.985,1.429 1.313,3.898 0.629,4.738 l -0.234,0.285 -0.399,-0.375 c -0.882,-0.836 -1.425,-2.301 -1.41,-3.797 0.012,-1.203 0.321,-1.797 0.801,-1.539 0.125,0.066 0.398,0.375 0.613,0.688 z M 463.352,98.237 c 0.398,0.742 0.257,2.46 -0.309,3.738 -0.316,0.715 -1.121,1.683 -1.402,1.683 -0.356,0 -0.582,-0.867 -0.512,-1.972 0.055,-0.875 0.141,-1.192 0.578,-2.098 0.676,-1.391 1.332,-1.934 1.645,-1.351 z m 46.062,12.214 c 0.734,1.192 0.906,3.36 0.359,4.59 -0.3,0.68 -0.625,0.738 -1.019,0.184 -0.938,-1.321 -1.094,-4.25 -0.274,-5.192 0.29,-0.328 0.54,-0.218 0.934,0.418 z m -33.102,31.082 c 0.754,0.079 3.856,0.137 7.231,0.137 4.73,0 6.309,-0.043 7.906,-0.215 l 1.996,-0.215 0.375,0.356 c 0.68,0.641 2.305,2.906 2.891,4.031 0.82,1.567 1.242,2.828 1.32,3.93 0.071,1 -0.144,1.82 -0.508,1.961 -0.5,0.191 -1.726,-0.617 -5.382,-3.547 -1.567,-1.258 -2.973,-2.324 -3.125,-2.371 -0.446,-0.145 -1.102,0.043 -1.375,0.387 -0.137,0.175 -0.313,0.628 -0.391,1.011 -0.484,2.324 -1.719,4.672 -2.805,5.332 -0.472,0.289 -1.215,0.317 -1.703,0.067 -1.047,-0.543 -2.258,-2.641 -2.832,-4.914 -0.363,-1.45 -0.75,-1.95 -1.508,-1.95 -0.472,0 -0.746,0.192 -3.285,2.266 -2.945,2.41 -4.902,3.773 -5.418,3.773 -0.086,0 -0.281,-0.156 -0.433,-0.347 -0.246,-0.313 -0.27,-0.457 -0.219,-1.539 0.043,-0.981 0.133,-1.403 0.492,-2.344 0.711,-1.863 1.988,-3.887 3.481,-5.523 l 0.539,-0.594 0.718,0.086 c 0.391,0.047 1.309,0.144 2.035,0.222 z"
         style="fill:#000000;fill-opacity:1;fill-rule:nonzero;stroke:none"
         id="path62"
         inkscape:connector-curvature="0" /><g
         id="g64"
         transform="matrix(1,0,0,-1,0,595.27557)"><path
           d="m 562.957,429.871 h 95.715 c 4.078,0 7.363,3.281 7.363,7.363 v 95.715 c 0,4.078 -3.285,7.363 -7.363,7.363 h -95.715 c -4.078,0 -7.363,-3.285 -7.363,-7.363 v -95.715 c 0,-4.082 3.285,-7.363 7.363,-7.363 z"
           style="fill:#ffb4e6;fill-opacity:1;fill-rule:nonzero;stroke:#000000;stroke-width:2.94508696;stroke-linecap:round;stroke-linejoin:round;stroke-miterlimit:4;stroke-dasharray:none;stroke-opacity:1"
           id="path66"
           inkscape:connector-curvature="0" /></g><text
         transform="scale(1,-1)"
         style="font-variant:normal;font-weight:normal;font-size:11.63636398px;font-family:Arial;-inkscape-font-specification:ArialMT;writing-mode:lr-tb;fill:#000000;fill-opacity:1;fill-rule:nonzero;stroke:none"
         id="text70"
         x="571.67444"
         y="-62.635197"><tspan
           sodipodi:role="line"
           id="tspan68"
           x="571.67444"
           y="-62.635197">STRAWBERRY</tspan></text>
<path
         d="m 608.289,76.326 c -5.234,0.707 -9.953,4.055 -14.687,10.422 -4.184,5.625 -8.536,14.289 -10.977,21.856 -4.121,12.765 -2.223,22.351 5.527,27.91 2.125,1.519 5.66,3.098 8.539,3.805 0.52,0.128 0.993,0.273 1.051,0.324 0.063,0.047 -0.269,0.617 -0.73,1.258 -2.149,2.992 -3.242,5.652 -3.254,7.91 -0.004,1.316 0.265,2.273 0.855,3.047 0.676,0.886 1.215,1.164 2.27,1.164 1.449,0 2.644,-0.668 5.988,-3.356 1.02,-0.816 1.934,-1.484 2.031,-1.484 0.098,0 0.246,0.234 0.336,0.535 0.254,0.855 1.211,2.617 1.864,3.43 2.39,2.972 5.8,2.621 8.019,-0.821 0.453,-0.699 0.774,-1.363 1.449,-3 0.09,-0.211 0.168,-0.261 0.278,-0.175 0.086,0.066 0.949,0.757 1.914,1.535 3.851,3.086 5.547,3.847 7.043,3.164 1.746,-0.797 2.484,-3.133 1.843,-5.817 -0.472,-1.98 -1.644,-4.328 -3.14,-6.293 -0.641,-0.836 -0.754,-1.234 -0.356,-1.234 0.317,0 2.371,-0.625 3.793,-1.156 3.891,-1.449 7.203,-3.742 9.289,-6.438 1.344,-1.738 2.075,-3.09 2.766,-5.109 2.637,-7.727 0.656,-17.977 -6.02,-31.176 -3.003,-5.937 -6.046,-10.453 -9.359,-13.875 -3.078,-3.183 -5.883,-5.019 -9.191,-6.012 -1.11,-0.336 -1.578,-0.406 -2.953,-0.449 -0.899,-0.031 -1.946,-0.066 -2.329,-0.086 -0.378,-0.019 -1.218,0.035 -1.859,0.121 z m 4.609,2.543 c 0.122,0.078 0.145,0.231 0.079,0.535 -0.223,1.04 -0.625,1.122 -1.282,0.254 -0.597,-0.785 -0.558,-0.898 0.309,-0.898 0.398,0.004 0.801,0.051 0.894,0.109 z m -3.918,1.168 c 0.965,1.926 2.54,3.043 3.942,2.809 0.797,-0.137 1.621,-0.774 2.031,-1.574 0.195,-0.379 0.414,-0.93 0.485,-1.223 0.078,-0.324 0.199,-0.535 0.308,-0.535 0.332,0 2.781,1.324 3.848,2.082 2.156,1.527 5.187,4.832 7.433,8.101 2.809,4.09 5.918,10.067 8.157,15.68 0.628,1.574 0.683,1.926 0.304,1.926 -0.316,0 -1.101,0.449 -1.468,0.84 -0.844,0.894 -1.282,2.277 -1.282,4.066 -0.004,2.024 0.524,3.641 1.574,4.832 0.977,1.11 2.317,1.446 3.481,0.867 l 0.539,-0.269 0.133,0.336 c 0.223,0.578 0.047,5.539 -0.246,6.871 -1.817,8.285 -8.321,12.848 -20.074,14.082 -2.59,0.273 -12.188,0.269 -14.7,0 -4.715,-0.516 -7.886,-1.332 -10.965,-2.828 -2.101,-1.02 -3.312,-1.863 -4.792,-3.328 -2.376,-2.356 -3.645,-4.77 -4.348,-8.27 -0.246,-1.215 -0.285,-1.793 -0.278,-4.055 0.008,-2.828 0.192,-4.351 0.887,-7.296 0.551,-2.34 2.239,-7.539 2.571,-7.907 0.054,-0.062 0.281,0.043 0.515,0.239 0.578,0.488 1.117,0.691 1.844,0.691 1.094,0 2.043,-0.59 3,-1.863 2.019,-2.68 2,-7.071 -0.031,-8.43 -0.344,-0.23 -0.641,-0.457 -0.657,-0.508 -0.05,-0.133 1.875,-3.39 3.012,-5.097 4.133,-6.192 8.188,-9.766 12.567,-11.071 1.546,-0.461 1.562,-0.453 2.21,0.832 z m -5.863,7.043 c -3.496,1.004 -5.019,8.344 -2.125,10.258 0.77,0.508 1.887,0.551 2.805,0.102 2.308,-1.129 3.734,-5.246 2.828,-8.164 -0.344,-1.11 -1.145,-1.969 -2.035,-2.196 -0.68,-0.172 -0.883,-0.172 -1.473,-0.004 z m 1.086,2.871 c 0.219,0.434 0.199,1.934 -0.035,2.832 -0.313,1.207 -1.219,2.508 -1.68,2.422 -0.472,-0.09 -0.664,-1.851 -0.336,-3.086 0.36,-1.34 1.2,-2.613 1.672,-2.523 0.121,0.023 0.289,0.183 0.379,0.355 z m 12.832,-2.898 c -1.125,0.355 -1.855,1.277 -2.18,2.742 -0.496,2.227 0.25,5.031 1.782,6.688 0.851,0.918 1.527,1.265 2.449,1.261 1.629,-0.007 2.633,-1.054 3.012,-3.14 0.48,-2.653 -1.02,-6.266 -3.032,-7.301 -0.543,-0.277 -1.554,-0.402 -2.031,-0.25 z m 1.465,3.043 c 1.07,1.25 1.539,4.047 0.828,4.914 -0.289,0.352 -0.508,0.25 -1.086,-0.508 -0.609,-0.793 -0.984,-2.031 -0.98,-3.23 0.011,-1.746 0.418,-2.133 1.238,-1.176 z m 4.043,10.976 c -1.098,0.407 -1.719,1.235 -2.031,2.715 -0.442,2.102 0.32,4.895 1.789,6.528 1.179,1.312 2.453,1.691 3.722,1.109 1.243,-0.57 1.872,-1.867 1.879,-3.879 0.02,-3.891 -2.879,-7.394 -5.359,-6.473 z m 1.531,2.868 c 0.797,0.836 1.289,2.214 1.289,3.64 0.004,1.524 -0.367,1.918 -1.086,1.157 -1.148,-1.215 -1.695,-3.524 -1.168,-4.911 0.157,-0.41 0.5,-0.367 0.965,0.114 z m -25.683,0.457 c -0.586,0.152 -0.946,0.379 -1.672,1.066 -0.758,0.719 -1.367,1.742 -1.805,3.035 -0.25,0.742 -0.297,1.133 -0.297,2.465 0,1.566 0.008,1.598 0.442,2.449 0.543,1.063 1.257,1.575 2.332,1.664 2.324,0.192 4.629,-3.07 4.64,-6.578 0.004,-1.418 -0.215,-2.234 -0.816,-3.066 -0.606,-0.836 -1.84,-1.289 -2.824,-1.035 z m 0.937,2.769 c 0.402,0.754 0.219,2.563 -0.39,3.863 -0.297,0.629 -1.102,1.559 -1.352,1.559 -0.258,0 -0.516,-0.836 -0.516,-1.672 0,-1.285 0.492,-2.656 1.274,-3.547 0.429,-0.492 0.789,-0.566 0.984,-0.203 z m 11.785,-1.57 c -1.191,0.324 -2.269,1.812 -2.66,3.656 -0.57,2.711 0.344,5.824 2,6.793 1.535,0.899 3.227,0.277 4.199,-1.543 0.532,-1 0.774,-2.109 0.778,-3.555 0.004,-3.605 -1.93,-6.003 -4.317,-5.351 z m 1.168,2.797 c 0.739,0.941 0.856,3.367 0.223,4.738 -0.453,0.981 -0.754,0.957 -1.281,-0.098 -0.336,-0.668 -0.371,-0.867 -0.375,-1.949 -0.004,-1.265 0.14,-1.941 0.554,-2.617 0.305,-0.496 0.532,-0.516 0.879,-0.074 z m 17.047,9.883 c -1.984,0.703 -3.496,3.457 -3.512,6.382 -0.015,2.571 1.028,4.098 2.899,4.25 1.726,0.145 3.539,-1.714 4.277,-4.386 0.344,-1.243 0.309,-3.352 -0.074,-4.328 -0.629,-1.618 -2.152,-2.434 -3.59,-1.918 z m 1.16,2.699 c 0.324,0.496 0.285,2.355 -0.07,3.336 -0.301,0.832 -0.922,1.793 -1.293,1.988 -0.371,0.199 -0.578,-0.027 -0.742,-0.836 -0.274,-1.309 0.273,-3.316 1.164,-4.285 0.277,-0.297 0.551,-0.543 0.609,-0.543 0.059,0 0.207,0.152 0.332,0.34 z m -41.605,-2.477 c -1.043,0.18 -1.957,1.102 -2.34,2.364 -0.281,0.925 -0.277,2.707 0.008,3.796 0.465,1.774 1.543,3.461 2.652,4.145 1.594,0.988 3.5,0.266 4.242,-1.606 0.414,-1.046 0.414,-3.222 -0.004,-4.55 -0.875,-2.809 -2.695,-4.465 -4.558,-4.149 z m 1.133,2.957 c 1.023,1.168 1.55,3.41 1.105,4.711 -0.223,0.66 -0.644,0.606 -1.219,-0.156 -0.804,-1.063 -1.234,-2.777 -1.004,-3.992 0.211,-1.121 0.5,-1.266 1.118,-0.563 z m 28.496,-0.199 c -1.446,0.352 -2.805,1.973 -3.477,4.156 -0.383,1.242 -0.41,3.235 -0.058,4.305 0.457,1.402 1.503,2.234 2.8,2.234 0.953,0 1.625,-0.336 2.457,-1.238 1.254,-1.355 1.887,-3.098 1.899,-5.238 0.008,-1.16 -0.035,-1.5 -0.281,-2.125 -0.403,-1.028 -1.125,-1.785 -1.934,-2.024 -0.684,-0.203 -0.832,-0.211 -1.406,-0.07 z m 0.961,2.93 c 0.453,1.074 0.007,3.394 -0.879,4.57 -0.559,0.738 -0.91,0.844 -1.141,0.34 -0.574,-1.242 -0.078,-3.637 1.008,-4.875 0.492,-0.555 0.785,-0.567 1.012,-0.035 z m -17.102,-0.84 c -1.203,0.609 -1.844,2.023 -1.824,4.016 0.019,2.031 0.777,4.042 1.988,5.285 0.797,0.816 1.535,1.187 2.367,1.191 2.02,0.008 3.278,-1.965 3.071,-4.816 -0.231,-3.141 -2.094,-5.782 -4.207,-5.957 -0.61,-0.051 -0.825,-0.008 -1.395,0.281 z m 2.121,3.016 c 0.985,1.429 1.313,3.898 0.629,4.738 l -0.234,0.285 -0.399,-0.375 c -0.879,-0.836 -1.426,-2.301 -1.41,-3.797 0.012,-1.203 0.32,-1.797 0.805,-1.539 0.121,0.066 0.394,0.375 0.609,0.688 z M 590.648,98.237 c 0.399,0.742 0.258,2.46 -0.308,3.738 -0.317,0.715 -1.121,1.683 -1.402,1.683 -0.356,0 -0.579,-0.867 -0.512,-1.972 0.054,-0.875 0.14,-1.192 0.582,-2.098 0.672,-1.391 1.332,-1.934 1.64,-1.351 z m 46.063,12.214 c 0.734,1.192 0.906,3.36 0.359,4.59 -0.297,0.68 -0.621,0.738 -1.015,0.184 -0.942,-1.321 -1.098,-4.25 -0.274,-5.192 0.289,-0.328 0.535,-0.218 0.93,0.418 z m -33.102,31.082 c 0.754,0.079 3.856,0.137 7.231,0.137 4.73,0 6.308,-0.043 7.906,-0.215 l 1.996,-0.215 0.375,0.356 c 0.68,0.641 2.305,2.906 2.891,4.031 0.82,1.567 1.242,2.828 1.32,3.93 0.07,1 -0.14,1.82 -0.508,1.961 -0.5,0.191 -1.726,-0.617 -5.382,-3.547 -1.567,-1.258 -2.973,-2.324 -3.126,-2.371 -0.441,-0.145 -1.101,0.043 -1.371,0.387 -0.136,0.175 -0.316,0.628 -0.394,1.011 -0.481,2.324 -1.715,4.672 -2.805,5.332 -0.469,0.289 -1.215,0.317 -1.699,0.067 -1.051,-0.543 -2.262,-2.641 -2.836,-4.914 -0.363,-1.45 -0.75,-1.95 -1.508,-1.95 -0.472,0 -0.746,0.192 -3.285,2.266 -2.945,2.41 -4.902,3.773 -5.414,3.773 -0.09,0 -0.285,-0.156 -0.438,-0.347 -0.246,-0.313 -0.265,-0.457 -0.218,-1.539 0.043,-0.981 0.133,-1.403 0.492,-2.344 0.711,-1.863 1.988,-3.887 3.48,-5.523 l 0.543,-0.594 0.715,0.086 c 0.395,0.047 1.309,0.144 2.035,0.222 z"
         style="fill:#000000;fill-opacity:1;fill-rule:nonzero;stroke:none"
         id="path72"
         inkscape:connector-curvature="0" /><g
         id="g74"
         transform="matrix(1,0,0,-1,0,595.27557)"><path
           d="m 690.789,429.871 h 95.715 c 4.078,0 7.363,3.281 7.363,7.363 v 95.715 c 0,4.078 -3.285,7.363 -7.363,7.363 h -95.715 c -4.078,0 -7.363,-3.285 -7.363,-7.363 v -95.715 c 0,-4.082 3.285,-7.363 7.363,-7.363 z"
           style="fill:#ffb4e6;fill-opacity:1;fill-rule:nonzero;stroke:#000000;stroke-width:2.94508696;stroke-linecap:round;stroke-linejoin:round;stroke-miterlimit:4;stroke-dasharray:none;stroke-opacity:1"
           id="path76"
           inkscape:connector-curvature="0" /></g><text
         transform="scale(1,-1)"
         style="font-variant:normal;font-weight:normal;font-size:11.63636398px;font-family:Arial;-inkscape-font-specification:ArialMT;writing-mode:lr-tb;fill:#000000;fill-opacity:1;fill-rule:nonzero;stroke:none"
         id="text80"
         x="699.5072"
         y="-62.635197"><tspan
           sodipodi:role="line"
           id="tspan78"
           x="699.5072"
           y="-62.635197">STRAWBERRY</tspan></text>
<path
         d="m 736.121,76.326 c -5.234,0.707 -9.949,4.055 -14.687,10.422 -4.184,5.625 -8.536,14.289 -10.977,21.856 -4.121,12.765 -2.223,22.351 5.527,27.91 2.125,1.519 5.661,3.098 8.543,3.805 0.516,0.128 0.993,0.273 1.051,0.324 0.059,0.047 -0.273,0.617 -0.734,1.258 -2.149,2.992 -3.242,5.652 -3.25,7.91 -0.008,1.316 0.261,2.273 0.851,3.047 0.68,0.886 1.219,1.164 2.27,1.164 1.453,0 2.644,-0.668 5.992,-3.356 1.016,-0.816 1.93,-1.484 2.027,-1.484 0.102,0 0.246,0.234 0.336,0.535 0.254,0.855 1.211,2.617 1.868,3.43 2.386,2.972 5.796,2.621 8.019,-0.821 0.449,-0.699 0.77,-1.363 1.449,-3 0.086,-0.211 0.168,-0.261 0.274,-0.175 0.086,0.066 0.949,0.757 1.918,1.535 3.847,3.086 5.543,3.847 7.039,3.164 1.746,-0.797 2.488,-3.133 1.843,-5.817 -0.472,-1.98 -1.644,-4.328 -3.14,-6.293 -0.641,-0.836 -0.754,-1.234 -0.356,-1.234 0.321,0 2.371,-0.625 3.793,-1.156 3.895,-1.449 7.203,-3.742 9.289,-6.438 1.344,-1.738 2.075,-3.09 2.766,-5.109 2.637,-7.727 0.656,-17.977 -6.02,-31.176 -3,-5.937 -6.046,-10.453 -9.359,-13.875 -3.078,-3.183 -5.879,-5.019 -9.191,-6.012 -1.11,-0.336 -1.578,-0.406 -2.953,-0.449 -0.899,-0.031 -1.946,-0.066 -2.329,-0.086 -0.378,-0.019 -1.214,0.035 -1.859,0.121 z m 4.609,2.543 c 0.122,0.078 0.145,0.231 0.079,0.535 -0.223,1.04 -0.625,1.122 -1.282,0.254 -0.597,-0.785 -0.558,-0.898 0.309,-0.898 0.398,0.004 0.801,0.051 0.894,0.109 z m -3.918,1.168 c 0.969,1.926 2.54,3.043 3.946,2.809 0.793,-0.137 1.621,-0.774 2.027,-1.574 0.195,-0.379 0.414,-0.93 0.485,-1.223 0.078,-0.324 0.203,-0.535 0.308,-0.535 0.332,0 2.781,1.324 3.852,2.082 2.156,1.527 5.187,4.832 7.429,8.101 2.809,4.09 5.918,10.067 8.157,15.68 0.629,1.574 0.683,1.926 0.304,1.926 -0.316,0 -1.101,0.449 -1.468,0.84 -0.844,0.894 -1.282,2.277 -1.282,4.066 -0.004,2.024 0.524,3.641 1.575,4.832 0.976,1.11 2.32,1.446 3.48,0.867 l 0.543,-0.269 0.129,0.336 c 0.223,0.578 0.047,5.539 -0.242,6.871 -1.821,8.285 -8.325,12.848 -20.078,14.082 -2.59,0.273 -12.188,0.269 -14.696,0 -4.719,-0.516 -7.89,-1.332 -10.969,-2.828 -2.097,-1.02 -3.312,-1.863 -4.789,-3.328 -2.378,-2.356 -3.648,-4.77 -4.351,-8.27 -0.246,-1.215 -0.285,-1.793 -0.277,-4.055 0.007,-2.828 0.191,-4.351 0.886,-7.296 0.551,-2.34 2.239,-7.539 2.571,-7.907 0.054,-0.062 0.281,0.043 0.515,0.239 0.578,0.488 1.121,0.691 1.844,0.691 1.094,0 2.043,-0.59 3.004,-1.863 2.015,-2.68 2,-7.071 -0.031,-8.43 -0.348,-0.23 -0.645,-0.457 -0.661,-0.508 -0.05,-0.133 1.875,-3.39 3.016,-5.097 4.129,-6.192 8.184,-9.766 12.563,-11.071 1.546,-0.461 1.566,-0.453 2.21,0.832 z m -5.863,7.043 c -3.496,1.004 -5.015,8.344 -2.125,10.258 0.774,0.508 1.887,0.551 2.805,0.102 2.309,-1.129 3.738,-5.246 2.828,-8.164 -0.344,-1.11 -1.145,-1.969 -2.035,-2.196 -0.68,-0.172 -0.883,-0.172 -1.473,-0.004 z m 1.086,2.871 c 0.219,0.434 0.203,1.934 -0.031,2.832 -0.316,1.207 -1.223,2.508 -1.684,2.422 -0.472,-0.09 -0.66,-1.851 -0.332,-3.086 0.356,-1.34 1.2,-2.613 1.668,-2.523 0.121,0.023 0.293,0.183 0.379,0.355 z m 12.832,-2.898 c -1.125,0.355 -1.855,1.277 -2.179,2.742 -0.497,2.227 0.25,5.031 1.781,6.688 0.851,0.918 1.527,1.265 2.449,1.261 1.633,-0.007 2.637,-1.054 3.016,-3.14 0.48,-2.653 -1.02,-6.266 -3.036,-7.301 -0.543,-0.277 -1.554,-0.402 -2.031,-0.25 z m 1.465,3.043 c 1.07,1.25 1.539,4.047 0.828,4.914 -0.289,0.352 -0.508,0.25 -1.086,-0.508 -0.609,-0.793 -0.984,-2.031 -0.976,-3.23 0.007,-1.746 0.414,-2.133 1.234,-1.176 z m 4.043,10.976 c -1.098,0.407 -1.719,1.235 -2.031,2.715 -0.442,2.102 0.324,4.895 1.789,6.528 1.179,1.312 2.453,1.691 3.722,1.109 1.243,-0.57 1.872,-1.867 1.879,-3.879 0.02,-3.891 -2.879,-7.394 -5.359,-6.473 z m 1.531,2.868 c 0.797,0.836 1.289,2.214 1.289,3.64 0.004,1.524 -0.367,1.918 -1.086,1.157 -1.144,-1.215 -1.695,-3.524 -1.168,-4.911 0.157,-0.41 0.504,-0.367 0.965,0.114 z m -25.683,0.457 c -0.586,0.152 -0.946,0.379 -1.672,1.066 -0.758,0.719 -1.363,1.742 -1.801,3.035 -0.25,0.742 -0.297,1.133 -0.297,2.465 0,1.566 0.004,1.598 0.438,2.449 0.543,1.063 1.257,1.575 2.332,1.664 2.328,0.192 4.632,-3.07 4.64,-6.578 0.004,-1.418 -0.211,-2.234 -0.816,-3.066 -0.602,-0.836 -1.84,-1.289 -2.824,-1.035 z m 0.937,2.769 c 0.402,0.754 0.223,2.563 -0.39,3.863 -0.297,0.629 -1.102,1.559 -1.352,1.559 -0.258,0 -0.516,-0.836 -0.516,-1.672 0,-1.285 0.493,-2.656 1.274,-3.547 0.429,-0.492 0.789,-0.566 0.984,-0.203 z m 11.789,-1.57 c -1.191,0.324 -2.273,1.812 -2.664,3.656 -0.57,2.711 0.344,5.824 2,6.793 1.535,0.899 3.231,0.277 4.199,-1.543 0.532,-1 0.774,-2.109 0.778,-3.555 0.004,-3.605 -1.93,-6.003 -4.313,-5.351 z m 1.164,2.797 c 0.739,0.941 0.856,3.367 0.223,4.738 -0.453,0.981 -0.754,0.957 -1.281,-0.098 -0.332,-0.668 -0.371,-0.867 -0.375,-1.949 0,-1.265 0.14,-1.941 0.554,-2.617 0.309,-0.496 0.532,-0.516 0.879,-0.074 z m 17.047,9.883 c -1.98,0.703 -3.496,3.457 -3.512,6.382 -0.015,2.571 1.028,4.098 2.903,4.25 1.722,0.145 3.535,-1.714 4.273,-4.386 0.344,-1.243 0.309,-3.352 -0.074,-4.328 -0.629,-1.618 -2.152,-2.434 -3.59,-1.918 z m 1.16,2.699 c 0.325,0.496 0.285,2.355 -0.066,3.336 -0.301,0.832 -0.926,1.793 -1.297,1.988 -0.371,0.199 -0.574,-0.027 -0.742,-0.836 -0.274,-1.309 0.273,-3.316 1.168,-4.285 0.273,-0.297 0.547,-0.543 0.605,-0.543 0.063,0 0.211,0.152 0.332,0.34 z m -41.601,-2.477 c -1.043,0.18 -1.957,1.102 -2.344,2.364 -0.277,0.925 -0.273,2.707 0.012,3.796 0.461,1.774 1.539,3.461 2.648,4.145 1.598,0.988 3.5,0.266 4.242,-1.606 0.414,-1.046 0.414,-3.222 -0.004,-4.55 -0.875,-2.809 -2.695,-4.465 -4.558,-4.149 z m 1.129,2.957 c 1.023,1.168 1.55,3.41 1.105,4.711 -0.223,0.66 -0.641,0.606 -1.219,-0.156 -0.804,-1.063 -1.234,-2.777 -1.004,-3.992 0.211,-1.121 0.5,-1.266 1.118,-0.563 z m 28.496,-0.199 c -1.446,0.352 -2.805,1.973 -3.477,4.156 -0.383,1.242 -0.41,3.235 -0.058,4.305 0.461,1.402 1.503,2.234 2.8,2.234 0.953,0 1.625,-0.336 2.457,-1.238 1.254,-1.355 1.887,-3.098 1.899,-5.238 0.008,-1.16 -0.035,-1.5 -0.281,-2.125 -0.403,-1.028 -1.125,-1.785 -1.93,-2.024 -0.688,-0.203 -0.832,-0.211 -1.41,-0.07 z m 0.961,2.93 c 0.453,1.074 0.007,3.394 -0.879,4.57 -0.559,0.738 -0.91,0.844 -1.141,0.34 -0.574,-1.242 -0.078,-3.637 1.012,-4.875 0.488,-0.555 0.781,-0.567 1.008,-0.035 z m -17.102,-0.84 c -1.199,0.609 -1.84,2.023 -1.824,4.016 0.019,2.031 0.777,4.042 1.988,5.285 0.801,0.816 1.535,1.187 2.367,1.191 2.024,0.008 3.282,-1.965 3.071,-4.816 -0.231,-3.141 -2.094,-5.782 -4.203,-5.957 -0.614,-0.051 -0.829,-0.008 -1.399,0.281 z m 2.121,3.016 c 0.985,1.429 1.313,3.898 0.629,4.738 l -0.234,0.285 -0.399,-0.375 c -0.879,-0.836 -1.422,-2.301 -1.406,-3.797 0.012,-1.203 0.32,-1.797 0.801,-1.539 0.121,0.066 0.398,0.375 0.609,0.688 z m -13.84,-28.125 c 0.395,0.742 0.254,2.46 -0.308,3.738 -0.317,0.715 -1.125,1.683 -1.406,1.683 -0.352,0 -0.579,-0.867 -0.512,-1.972 0.054,-0.875 0.144,-1.192 0.582,-2.098 0.672,-1.391 1.332,-1.934 1.644,-1.351 z m 46.059,12.214 c 0.734,1.192 0.906,3.36 0.363,4.59 -0.301,0.68 -0.625,0.738 -1.019,0.184 -0.942,-1.321 -1.094,-4.25 -0.274,-5.192 0.289,-0.328 0.535,-0.218 0.93,0.418 z m -33.102,31.082 c 0.754,0.079 3.856,0.137 7.231,0.137 4.734,0 6.308,-0.043 7.906,-0.215 l 1.996,-0.215 0.375,0.356 c 0.68,0.641 2.305,2.906 2.891,4.031 0.82,1.567 1.246,2.828 1.324,3.93 0.07,1 -0.144,1.82 -0.512,1.961 -0.5,0.191 -1.726,-0.617 -5.382,-3.547 -1.567,-1.258 -2.973,-2.324 -3.122,-2.371 -0.445,-0.145 -1.105,0.043 -1.375,0.387 -0.136,0.175 -0.316,0.628 -0.394,1.011 -0.481,2.324 -1.715,4.672 -2.801,5.332 -0.473,0.289 -1.219,0.317 -1.703,0.067 -1.051,-0.543 -2.262,-2.641 -2.832,-4.914 -0.367,-1.45 -0.754,-1.95 -1.508,-1.95 -0.473,0 -0.75,0.192 -3.289,2.266 -2.945,2.41 -4.898,3.773 -5.414,3.773 -0.09,0 -0.285,-0.156 -0.434,-0.347 -0.25,-0.313 -0.269,-0.457 -0.222,-1.539 0.047,-0.981 0.133,-1.403 0.492,-2.344 0.715,-1.863 1.988,-3.887 3.48,-5.523 l 0.543,-0.594 0.715,0.086 c 0.395,0.047 1.309,0.144 2.035,0.222 z"
         style="fill:#000000;fill-opacity:1;fill-rule:nonzero;stroke:none"
         id="path82"
         inkscape:connector-curvature="0" /></g></g></svg>