<?xml version="1.0" encoding="UTF-8" standalone="no"?>
<!-- Created with Inkscape (http://www.inkscape.org/) -->

<svg
   xmlns:dc="http://purl.org/dc/elements/1.1/"
   xmlns:cc="http://creativecommons.org/ns#"
   xmlns:rdf="http://www.w3.org/1999/02/22-rdf-syntax-ns#"
   xmlns:svg="http://www.w3.org/2000/svg"
   xmlns="http://www.w3.org/2000/svg"
   xmlns:sodipodi="http://sodipodi.sourceforge.net/DTD/sodipodi-0.dtd"
   xmlns:inkscape="http://www.inkscape.org/namespaces/inkscape"
   version="1.1"
   id="svg2"
   xml:space="preserve"
   width="1122.5197"
   height="793.70074"
   viewBox="0 0 1122.5197 793.70074"
   sodipodi:docname="Tortue.svg"
   inkscape:version="0.92.2 5c3e80d, 2017-08-06"><metadata
     id="metadata8"><rdf:RDF><cc:Work
         rdf:about=""><dc:format>image/svg+xml</dc:format><dc:type
           rdf:resource="http://purl.org/dc/dcmitype/StillImage" /><dc:title></dc:title></cc:Work></rdf:RDF></metadata><defs
     id="defs6" /><sodipodi:namedview
     pagecolor="#ffffff"
     bordercolor="#666666"
     borderopacity="1"
     objecttolerance="10"
     gridtolerance="10"
     guidetolerance="10"
     inkscape:pageopacity="0"
     inkscape:pageshadow="2"
     inkscape:window-width="991"
     inkscape:window-height="591"
     id="namedview4"
     showgrid="false"
     inkscape:zoom="0.62679641"
     inkscape:cx="759.10359"
     inkscape:cy="346.07105"
     inkscape:window-x="75"
     inkscape:window-y="0"
     inkscape:window-maximized="0"
     inkscape:current-layer="g10" /><g
     id="g10"
     inkscape:groupmode="layer"
     inkscape:label="Tortue"
     transform="matrix(1.3333333,0,0,-1.3333333,0,793.70077)"><g
       id="g12"><g
         id="g14"
         transform="matrix(1,0,0,-1,0,595.27557)"><path
           d="m 49.645,24.934 h 335.003 c 14.274,0 25.77,11.492 25.77,25.769 v 335.004 c 0,14.277 -11.496,25.77 -25.77,25.77 H 49.645 c -14.278,0 -25.77,-11.493 -25.77,-25.77 V 50.703 c 0,-14.277 11.492,-25.769 25.77,-25.769 z"
           style="fill:#50be87;fill-opacity:1;fill-rule:nonzero;stroke:#000000;stroke-width:10.30780315;stroke-linecap:round;stroke-linejoin:round;stroke-miterlimit:4;stroke-dasharray:none;stroke-opacity:1"
           id="path16"
           inkscape:connector-curvature="0" /></g><text
         transform="matrix(1,0,0,-1,134.78611,212.27783)"
         style="font-variant:normal;font-weight:normal;font-size:40.72727585px;font-family:Arial;-inkscape-font-specification:Arial;writing-mode:lr-tb;fill:#000000;fill-opacity:1;fill-rule:nonzero;stroke:none"
         id="text20"><tspan
           sodipodi:role="line"
           id="tspan18"
           x="0"
           y="0">TURTLE</tspan></text>
<path
         d="m 171.48,321.041 c -5.449,0.504 -12.445,3.414 -19.511,8.125 -14.336,9.555 -28.856,26.656 -32.094,37.801 -1.984,6.828 0.574,16.379 7.473,27.867 1.207,2.008 2.191,3.856 2.191,4.11 0,0.507 -8.285,6.75 -11.941,9 l -2.285,1.406 h -8.989 c -14.465,0 -21.914,1.125 -33.304,5.031 -7.879,2.699 -12.352,4.926 -13.196,6.563 -0.972,1.878 -1.004,15.73 -0.047,19.355 1.844,6.961 7.196,13.859 12.793,16.484 3.801,1.782 6.719,2.356 11.93,2.356 13.668,0 28.77,-3.715 43.219,-10.637 l 5.133,-2.457 3.386,3.488 c 14.692,15.129 37.856,24.129 70.457,27.383 10.95,1.094 32.09,1.098 41.942,0.008 19.785,-2.187 40.461,-5.906 65.488,-11.773 12.055,-2.825 27.152,-6.739 29.301,-7.602 2.301,-0.918 3.222,-2.316 3.222,-4.887 0,-1.91 -0.195,-2.23 -3.625,-5.867 -2.828,-3.004 -3.515,-3.98 -3.125,-4.449 0.993,-1.195 4.832,-2.434 9.891,-3.188 6.25,-0.933 9.738,-2.558 14.137,-6.589 6.957,-6.375 10.437,-13.672 11.187,-23.446 0.668,-8.742 -1.922,-12.82 -9.402,-14.793 -3.832,-1.008 -12.023,-1.543 -16.676,-1.082 -10.066,0.992 -23.359,7.289 -37.426,17.719 -2.125,1.578 -4.058,2.867 -4.293,2.867 -0.234,0 -1.461,-1.484 -2.726,-3.297 -13.473,-19.293 -37.539,-33.343 -66.496,-38.816 -11.934,-2.258 -26.969,-3.453 -38.129,-3.031 -10.594,0.398 -18.051,1.675 -26.317,4.496 -1.769,0.601 -3.324,0.988 -3.457,0.855 -0.8,-0.801 3.575,-6.828 10.664,-14.691 5.391,-5.977 7.852,-9.289 9.102,-12.235 2.789,-6.593 2.504,-12.804 -0.84,-18.378 -3.527,-5.875 -9.437,-8.454 -17.637,-7.696 z m 7,11.274 c 4.754,3.175 3.926,9.652 -2.125,16.574 -1.445,1.656 -4.523,5.172 -6.835,7.808 -7.942,9.063 -11.227,15.563 -13.086,25.926 -0.559,3.098 -0.383,15.324 0.242,16.922 0.211,0.543 -0.805,1.609 -3.938,4.133 -9.211,7.406 -16.351,16.851 -20.73,27.426 l -1.86,4.488 -5.8,2.941 c -3.188,1.618 -7.879,3.704 -10.422,4.633 -12.535,4.594 -28.559,6.875 -34.949,4.981 -3,-0.891 -6.286,-3.871 -7.993,-7.243 -1.23,-2.425 -1.339,-3.046 -1.476,-8.343 l -0.149,-5.719 2.036,-0.871 c 3.496,-1.5 11.539,-4.012 15.98,-4.996 3.57,-0.789 6.262,-0.977 16.598,-1.156 9.34,-0.161 12.855,-0.379 14.484,-0.899 4.109,-1.308 22.02,-14.129 23.125,-16.551 1.047,-2.297 0.641,-3.859 -1.98,-7.609 -5.872,-8.41 -10.063,-17.723 -10.063,-22.367 0,-2.805 1.188,-5.707 4.258,-10.426 6.945,-10.672 18.586,-21.688 28.644,-27.102 6.789,-3.66 12.918,-4.632 16.039,-2.55 z m 43.243,47.441 c 19.312,2.02 35.304,6.664 48.707,14.148 6.758,3.778 15.648,10.442 14.457,10.836 -0.254,0.086 -2.059,-0.578 -4.004,-1.472 -16.453,-7.582 -35.801,-13.016 -54.453,-15.297 -8.196,-1 -28.637,-1.137 -34.762,-0.227 -6.184,0.914 -14.648,3.082 -19.793,5.071 -2.551,0.984 -4.848,1.668 -5.098,1.511 -0.25,-0.156 -0.453,-1.679 -0.453,-3.386 0,-3.645 -0.07,-3.571 6.258,-6.301 6.301,-2.715 13.523,-4.43 23.348,-5.539 2.691,-0.305 21.082,0.164 25.793,0.656 z m 4.707,18.578 c 30.117,3.879 57.269,14.832 83.883,33.84 8.597,6.141 21.246,16.84 20.949,17.727 -0.168,0.507 -7.555,2.488 -9.285,2.488 -0.692,0 -2.149,-0.867 -3.813,-2.266 -13.574,-11.429 -34.285,-23.703 -51.371,-30.441 -19.063,-7.516 -35.586,-11.063 -55.781,-11.965 -27.305,-1.219 -49.231,9.543 -61.735,30.312 -1.355,2.254 -2.804,4.543 -3.218,5.09 l -0.75,0.993 -1.371,-1.309 c -0.754,-0.719 -1.883,-2.047 -2.508,-2.949 -1.11,-1.598 -1.121,-1.692 -0.446,-3.606 2.286,-6.48 7.926,-14.789 14.09,-20.758 10.254,-9.929 23.778,-15.89 40.403,-17.804 5.117,-0.59 24.496,-0.184 30.953,0.648 z m 137.429,6.227 c 1.239,0.812 1.246,0.847 0.942,4.261 -0.555,6.188 -2.832,11.223 -6.934,15.325 -3.258,3.257 -4.824,3.996 -10.515,4.972 -6.692,1.145 -8.688,1.821 -12.719,4.313 -2.235,1.379 -3.442,1.883 -3.813,1.594 -0.3,-0.235 -2.664,-2.129 -5.254,-4.215 -2.589,-2.082 -6.074,-4.774 -7.738,-5.985 -1.664,-1.207 -3.027,-2.445 -3.027,-2.754 0,-1.414 12.609,-9.804 20.855,-13.878 8.332,-4.114 10.867,-4.7 19.758,-4.563 6.09,0.094 7.391,0.238 8.445,0.93 z m -144.796,14.058 c 0.535,0.203 0.64,2.407 0.64,13.332 v 13.09 l -8.055,4.629 -8.054,4.633 -6.86,-3.922 c -3.773,-2.156 -7.418,-4.312 -8.093,-4.789 l -1.235,-0.867 v -12.047 -12.047 l 1.457,-0.445 c 2.657,-0.809 5.899,-1.442 9.532,-1.852 3.57,-0.402 19.445,-0.183 20.668,0.285 z m 19.929,3.137 c 5.832,1.293 15.117,4.063 20.297,6.055 l 3.477,1.34 v 7.75 c 0,6.824 -0.094,7.824 -0.786,8.414 -0.433,0.371 -4.066,2.543 -8.074,4.832 l -7.289,4.164 -7.289,-4.164 c -4.008,-2.289 -7.644,-4.461 -8.074,-4.832 -0.711,-0.606 -0.785,-1.809 -0.785,-12.985 v -12.316 l 1.683,0.301 c 0.922,0.168 4,0.816 6.84,1.441 z m -62,12.75 c 0.071,4.789 0.028,9.121 -0.097,9.621 -0.153,0.621 -2.836,2.414 -8.364,5.586 l -8.136,4.676 -2.911,-1.508 c -1.597,-0.828 -3.007,-1.773 -3.132,-2.102 -0.266,-0.683 2.16,-5.191 5.398,-10.031 3.879,-5.797 14.797,-15.722 16.625,-15.113 0.324,0.105 0.531,3.086 0.617,8.871 z m 100.254,1.148 c 4.047,2.047 12.488,6.907 16.918,9.735 5.324,3.402 13.906,9.668 13.906,10.152 0,0.504 -0.422,0.625 -6.277,1.809 l -5.16,1.043 -11.551,-6.688 -11.551,-6.687 v -5.274 c 0,-6.05 -0.051,-5.996 3.715,-4.09 z M 190.375,458.6 c 6.711,3.898 7.59,4.543 7.719,5.664 l 0.148,1.269 -2.168,-0.316 c -8.215,-1.203 -22.566,-4.891 -22.726,-5.84 -0.09,-0.535 7.722,-5.156 8.73,-5.164 0.399,-0.008 4.133,1.973 8.297,4.387 z m 43.016,0 7.621,4.398 v 1.996 1.996 l -3.367,0.368 c -3.465,0.382 -22.153,0.074 -26.375,-0.438 l -2.379,-0.285 0.136,-1.82 0.133,-1.821 7.625,-4.39 c 4.195,-2.414 7.934,-4.395 8.305,-4.395 0.375,0 4.109,1.973 8.301,4.391 z m 41.105,-1.145 c 3.156,1.789 5.742,3.489 5.75,3.778 0.008,0.289 -0.543,0.636 -1.219,0.773 -6.879,1.379 -23.312,3.859 -25.597,3.859 -1.403,0 -1.481,-0.078 -1.348,-1.437 0.133,-1.352 0.598,-1.699 7.762,-5.828 4.191,-2.418 7.914,-4.395 8.269,-4.395 0.356,0 3.231,1.465 6.383,3.25 z"
         style="fill:#000000;fill-opacity:1;fill-rule:nonzero;stroke:none"
         id="path22"
         inkscape:connector-curvature="0" /><g
         id="g24"
         transform="matrix(1,0,0,-1,0,595.27557)"><path
           d="M 457.746,24.934 H 792.75 c 14.277,0 25.77,11.492 25.77,25.769 v 335.004 c 0,14.277 -11.493,25.77 -25.77,25.77 H 457.746 c -14.277,0 -25.769,-11.493 -25.769,-25.77 V 50.703 c 0,-14.277 11.492,-25.769 25.769,-25.769 z"
           style="fill:#50be87;fill-opacity:1;fill-rule:nonzero;stroke:#000000;stroke-width:10.30780315;stroke-linecap:round;stroke-linejoin:round;stroke-miterlimit:4;stroke-dasharray:none;stroke-opacity:1"
           id="path26"
           inkscape:connector-curvature="0" /></g><text
         transform="matrix(1,0,0,-1,542.8885,212.27783)"
         style="font-variant:normal;font-weight:normal;font-size:40.72727585px;font-family:Arial;-inkscape-font-specification:Arial;writing-mode:lr-tb;fill:#000000;fill-opacity:1;fill-rule:nonzero;stroke:none"
         id="text30"><tspan
           sodipodi:role="line"
           id="tspan28"
           x="0"
           y="0">TURTLE</tspan></text>
<path
         d="m 579.582,321.041 c -5.449,0.504 -12.441,3.414 -19.512,8.125 -14.336,9.555 -28.855,26.656 -32.093,37.801 -1.985,6.828 0.578,16.379 7.472,27.867 1.207,2.008 2.192,3.856 2.192,4.11 0,0.507 -8.286,6.75 -11.942,9 l -2.285,1.406 h -8.988 c -14.465,0 -21.914,1.125 -33.305,5.031 -7.875,2.699 -12.348,4.926 -13.195,6.563 -0.973,1.878 -1.004,15.73 -0.047,19.355 1.844,6.961 7.195,13.859 12.797,16.484 3.801,1.782 6.715,2.356 11.926,2.356 13.668,0 28.773,-3.715 43.218,-10.637 l 5.133,-2.457 3.387,3.488 c 14.695,15.129 37.855,24.129 70.457,27.383 10.949,1.094 32.09,1.098 41.941,0.008 19.785,-2.187 40.461,-5.906 65.492,-11.773 12.051,-2.825 27.149,-6.739 29.297,-7.602 2.301,-0.918 3.223,-2.316 3.223,-4.887 0,-1.91 -0.195,-2.23 -3.625,-5.867 -2.828,-3.004 -3.516,-3.98 -3.125,-4.449 0.992,-1.195 4.836,-2.434 9.891,-3.188 6.254,-0.933 9.738,-2.558 14.136,-6.589 6.957,-6.375 10.442,-13.672 11.188,-23.446 0.672,-8.742 -1.922,-12.82 -9.399,-14.793 -3.836,-1.008 -12.027,-1.543 -16.679,-1.082 -10.067,0.992 -23.36,7.289 -37.426,17.719 -2.125,1.578 -4.059,2.867 -4.293,2.867 -0.234,0 -1.461,-1.484 -2.727,-3.297 -13.472,-19.293 -37.539,-33.343 -66.496,-38.816 -11.933,-2.258 -26.968,-3.453 -38.129,-3.031 -10.593,0.398 -18.05,1.675 -26.316,4.496 -1.77,0.601 -3.324,0.988 -3.457,0.855 -0.801,-0.801 3.574,-6.828 10.668,-14.691 5.387,-5.977 7.852,-9.289 9.098,-12.235 2.789,-6.593 2.507,-12.804 -0.84,-18.378 -3.528,-5.875 -9.438,-8.454 -17.637,-7.696 z m 7,11.274 c 4.754,3.175 3.926,9.652 -2.125,16.574 -1.445,1.656 -4.523,5.172 -6.836,7.808 -7.941,9.063 -11.223,15.563 -13.086,25.926 -0.555,3.098 -0.383,15.324 0.242,16.922 0.211,0.543 -0.8,1.609 -3.937,4.133 -9.207,7.406 -16.352,16.851 -20.731,27.426 l -1.859,4.488 -5.797,2.941 c -3.191,1.618 -7.883,3.704 -10.422,4.633 -12.539,4.594 -28.562,6.875 -34.953,4.981 -3,-0.891 -6.285,-3.871 -7.992,-7.243 -1.227,-2.425 -1.336,-3.046 -1.477,-8.343 l -0.148,-5.719 2.035,-0.871 c 3.5,-1.5 11.539,-4.012 15.981,-4.996 3.57,-0.789 6.261,-0.977 16.597,-1.156 9.34,-0.161 12.856,-0.379 14.485,-0.899 4.113,-1.308 22.023,-14.129 23.125,-16.551 1.046,-2.297 0.64,-3.859 -1.981,-7.609 -5.871,-8.41 -10.062,-17.723 -10.062,-22.367 0,-2.805 1.187,-5.707 4.257,-10.426 6.946,-10.672 18.586,-21.688 28.645,-27.102 6.789,-3.66 12.922,-4.632 16.039,-2.55 z m 43.242,47.441 c 19.313,2.02 35.305,6.664 48.707,14.148 6.758,3.778 15.649,10.442 14.461,10.836 -0.258,0.086 -2.062,-0.578 -4.008,-1.472 -16.453,-7.582 -35.8,-13.016 -54.449,-15.297 -8.195,-1 -28.64,-1.137 -34.765,-0.227 -6.18,0.914 -14.645,3.082 -19.793,5.071 -2.551,0.984 -4.844,1.668 -5.098,1.511 -0.25,-0.156 -0.453,-1.679 -0.453,-3.386 0,-3.645 -0.071,-3.571 6.258,-6.301 6.3,-2.715 13.523,-4.43 23.347,-5.539 2.692,-0.305 21.082,0.164 25.793,0.656 z m 4.711,18.578 c 30.113,3.879 57.27,14.832 83.883,33.84 8.594,6.141 21.242,16.84 20.945,17.727 -0.168,0.507 -7.554,2.488 -9.285,2.488 -0.691,0 -2.148,-0.867 -3.812,-2.266 -13.571,-11.429 -34.282,-23.703 -51.371,-30.441 -19.063,-7.516 -35.586,-11.063 -55.782,-11.965 -27.304,-1.219 -49.226,9.543 -61.734,30.312 -1.356,2.254 -2.805,4.543 -3.215,5.09 l -0.75,0.993 -1.375,-1.309 c -0.754,-0.719 -1.883,-2.047 -2.508,-2.949 -1.109,-1.598 -1.121,-1.692 -0.445,-3.606 2.285,-6.48 7.926,-14.789 14.09,-20.758 10.254,-9.929 23.781,-15.89 40.406,-17.804 5.113,-0.59 24.492,-0.184 30.953,0.648 z m 137.43,6.227 c 1.238,0.812 1.246,0.847 0.937,4.261 -0.55,6.188 -2.832,11.223 -6.933,15.325 -3.258,3.257 -4.824,3.996 -10.512,4.972 -6.691,1.145 -8.687,1.821 -12.723,4.313 -2.234,1.379 -3.437,1.883 -3.812,1.594 -0.301,-0.235 -2.664,-2.129 -5.254,-4.215 -2.59,-2.082 -6.074,-4.774 -7.738,-5.985 -1.664,-1.207 -3.028,-2.445 -3.028,-2.754 0,-1.414 12.61,-9.804 20.86,-13.878 8.328,-4.114 10.863,-4.7 19.758,-4.563 6.085,0.094 7.386,0.238 8.445,0.93 z m -144.801,14.058 c 0.535,0.203 0.641,2.407 0.641,13.332 v 13.09 l -8.055,4.629 -8.051,4.633 -6.863,-3.922 c -3.773,-2.156 -7.414,-4.312 -8.094,-4.789 l -1.234,-0.867 v -12.047 -12.047 l 1.457,-0.445 c 2.656,-0.809 5.898,-1.442 9.531,-1.852 3.57,-0.402 19.445,-0.183 20.668,0.285 z m 19.93,3.137 c 5.832,1.293 15.117,4.063 20.297,6.055 l 3.476,1.34 v 7.75 c 0,6.824 -0.094,7.824 -0.785,8.414 -0.43,0.371 -4.062,2.543 -8.074,4.832 l -7.289,4.164 -7.289,-4.164 c -4.008,-2.289 -7.641,-4.461 -8.075,-4.832 -0.71,-0.606 -0.785,-1.809 -0.785,-12.985 v -12.316 l 1.684,0.301 c 0.926,0.168 4.004,0.816 6.84,1.441 z m -62,12.75 c 0.07,4.789 0.027,9.121 -0.098,9.621 -0.148,0.621 -2.832,2.414 -8.359,5.586 l -8.141,4.676 -2.906,-1.508 c -1.602,-0.828 -3.012,-1.773 -3.137,-2.102 -0.262,-0.683 2.164,-5.191 5.399,-10.031 3.878,-5.797 14.796,-15.722 16.625,-15.113 0.324,0.105 0.531,3.086 0.617,8.871 z m 100.254,1.148 c 4.047,2.047 12.488,6.907 16.922,9.735 5.32,3.402 13.902,9.668 13.902,10.152 0,0.504 -0.418,0.625 -6.277,1.809 l -5.161,1.043 -11.55,-6.688 -11.551,-6.687 v -5.274 c 0,-6.05 -0.047,-5.996 3.715,-4.09 z M 598.477,458.6 c 6.711,3.898 7.589,4.543 7.718,5.664 l 0.149,1.269 -2.164,-0.316 c -8.219,-1.203 -22.571,-4.891 -22.731,-5.84 -0.086,-0.535 7.723,-5.156 8.731,-5.164 0.398,-0.008 4.133,1.973 8.297,4.387 z m 43.015,0 7.621,4.398 v 1.996 1.996 l -3.367,0.368 c -3.465,0.382 -22.148,0.074 -26.375,-0.438 l -2.375,-0.285 0.133,-1.82 0.137,-1.821 7.625,-4.39 c 4.191,-2.414 7.929,-4.395 8.3,-4.395 0.375,0 4.11,1.973 8.301,4.391 z m 41.11,-1.145 c 3.152,1.789 5.738,3.489 5.746,3.778 0.007,0.289 -0.539,0.636 -1.219,0.773 -6.879,1.379 -23.313,3.859 -25.598,3.859 -1.402,0 -1.476,-0.078 -1.343,-1.437 0.128,-1.352 0.593,-1.699 7.757,-5.828 4.196,-2.418 7.914,-4.395 8.27,-4.395 0.355,0 3.23,1.465 6.387,3.25 z"
         style="fill:#000000;fill-opacity:1;fill-rule:nonzero;stroke:none"
         id="path32"
         inkscape:connector-curvature="0" /><g
         id="g34"
         transform="matrix(1,0,0,-1,0,595.27557)"><path
           d="m 31.09,430.461 h 134 c 5.711,0 10.308,4.594 10.308,10.305 V 574.77 c 0,5.71 -4.597,10.304 -10.308,10.304 h -134 c -5.711,0 -10.309,-4.594 -10.309,-10.304 V 440.766 c 0,-5.711 4.598,-10.305 10.309,-10.305 z"
           style="fill:#50be87;fill-opacity:1;fill-rule:nonzero;stroke:#000000;stroke-width:4.12312078;stroke-linecap:round;stroke-linejoin:round;stroke-miterlimit:4;stroke-dasharray:none;stroke-opacity:1"
           id="path36"
           inkscape:connector-curvature="0" /></g><text
         transform="matrix(1,0,0,-1,65.146621,21.590975)"
         style="font-variant:normal;font-weight:normal;font-size:16.29091072px;font-family:Arial;-inkscape-font-specification:Arial;writing-mode:lr-tb;fill:#000000;fill-opacity:1;fill-rule:nonzero;stroke:none"
         id="text40"><tspan
           sodipodi:role="line"
           id="tspan38"
           x="0"
           y="0">TURTLE</tspan></text>
<path
         d="m 79.824,65.096 c -2.179,0.203 -4.976,1.367 -7.804,3.25 -5.735,3.824 -11.543,10.664 -12.836,15.121 -0.797,2.73 0.23,6.551 2.988,11.145 0.48,0.804 0.875,1.542 0.875,1.644 0,0.203 -3.313,2.699 -4.777,3.602 l -0.915,0.562 h -3.593 c -5.785,0 -8.766,0.449 -13.321,2.012 -3.152,1.082 -4.941,1.969 -5.281,2.625 -0.387,0.754 -0.398,6.293 -0.015,7.742 0.734,2.785 2.875,5.543 5.117,6.594 1.519,0.711 2.687,0.941 4.769,0.941 5.469,0 11.508,-1.484 17.289,-4.254 l 2.051,-0.98 1.356,1.394 c 5.878,6.051 15.144,9.653 28.183,10.953 4.379,0.438 12.836,0.438 16.778,0 7.914,-0.875 16.183,-2.359 26.195,-4.707 4.82,-1.128 10.859,-2.695 11.719,-3.039 0.921,-0.371 1.289,-0.929 1.289,-1.957 0,-0.765 -0.078,-0.89 -1.45,-2.347 -1.132,-1.2 -1.406,-1.59 -1.25,-1.778 0.395,-0.48 1.934,-0.976 3.957,-1.277 2.5,-0.371 3.895,-1.023 5.653,-2.633 2.785,-2.551 4.176,-5.469 4.476,-9.379 0.27,-3.496 -0.769,-5.129 -3.761,-5.918 -1.532,-0.402 -4.809,-0.617 -6.668,-0.433 -4.028,0.398 -9.348,2.914 -14.973,7.09 -0.852,0.628 -1.621,1.144 -1.715,1.144 -0.094,0 -0.586,-0.594 -1.094,-1.316 -5.386,-7.719 -15.015,-13.34 -26.597,-15.528 -4.774,-0.906 -10.789,-1.382 -15.25,-1.215 -4.239,0.161 -7.223,0.672 -10.528,1.801 -0.707,0.239 -1.328,0.395 -1.382,0.34 -0.321,-0.32 1.429,-2.73 4.265,-5.875 2.156,-2.391 3.141,-3.715 3.641,-4.894 1.117,-2.637 1.004,-5.122 -0.336,-7.352 -1.41,-2.348 -3.774,-3.383 -7.055,-3.078 z m 2.801,4.512 c 1.902,1.269 1.57,3.859 -0.852,6.629 -0.578,0.66 -1.808,2.066 -2.734,3.121 -3.176,3.625 -4.488,6.226 -5.234,10.371 -0.223,1.238 -0.153,6.129 0.097,6.769 0.086,0.219 -0.32,0.645 -1.574,1.653 -3.683,2.961 -6.539,6.742 -8.293,10.972 l -0.742,1.793 -2.32,1.176 c -1.278,0.648 -3.153,1.48 -4.168,1.855 -5.016,1.836 -11.426,2.75 -13.981,1.993 -1.199,-0.36 -2.515,-1.551 -3.199,-2.899 -0.492,-0.969 -0.535,-1.219 -0.59,-3.336 l -0.058,-2.289 0.812,-0.347 c 1.399,-0.602 4.617,-1.606 6.395,-2 1.425,-0.317 2.504,-0.391 6.636,-0.461 3.739,-0.067 5.145,-0.153 5.793,-0.36 1.645,-0.523 8.809,-5.652 9.25,-6.621 0.422,-0.918 0.258,-1.543 -0.789,-3.043 -2.351,-3.363 -4.027,-7.09 -4.027,-8.945 0,-1.125 0.476,-2.285 1.703,-4.172 2.781,-4.27 7.438,-8.676 11.457,-10.84 2.719,-1.465 5.168,-1.855 6.418,-1.019 z M 99.922,88.58 c 7.723,0.809 14.121,2.668 19.48,5.664 2.703,1.508 6.262,4.172 5.786,4.332 -0.102,0.036 -0.825,-0.23 -1.602,-0.589 -6.582,-3.032 -14.32,-5.208 -21.781,-6.118 -3.278,-0.402 -11.457,-0.457 -13.907,-0.093 -2.472,0.367 -5.859,1.234 -7.918,2.031 -1.019,0.394 -1.937,0.664 -2.035,0.601 -0.101,-0.058 -0.183,-0.668 -0.183,-1.351 0,-1.457 -0.028,-1.43 2.504,-2.52 2.519,-1.09 5.406,-1.773 9.339,-2.218 1.075,-0.122 8.43,0.066 10.317,0.261 z m 1.883,7.434 c 12.047,1.551 22.906,5.933 33.554,13.535 3.438,2.457 8.496,6.738 8.379,7.09 -0.07,0.203 -3.023,0.996 -3.715,0.996 -0.277,0 -0.859,-0.348 -1.527,-0.906 -5.426,-4.571 -13.711,-9.481 -20.547,-12.176 -7.625,-3.008 -14.234,-4.426 -22.312,-4.785 -10.922,-0.489 -19.692,3.816 -24.696,12.125 -0.543,0.898 -1.121,1.816 -1.285,2.035 l -0.301,0.398 -0.546,-0.523 c -0.305,-0.289 -0.754,-0.82 -1.004,-1.184 -0.446,-0.636 -0.45,-0.675 -0.18,-1.441 0.914,-2.59 3.172,-5.914 5.637,-8.301 4.101,-3.973 9.511,-6.355 16.16,-7.125 2.047,-0.234 9.801,-0.07 12.383,0.262 z m 54.972,2.488 c 0.496,0.328 0.496,0.34 0.375,1.707 -0.222,2.477 -1.132,4.488 -2.773,6.129 -1.305,1.305 -1.93,1.598 -4.207,1.988 -2.676,0.457 -3.473,0.731 -5.086,1.727 -0.895,0.551 -1.375,0.754 -1.527,0.637 -0.118,-0.094 -1.063,-0.852 -2.102,-1.684 -1.035,-0.836 -2.43,-1.91 -3.094,-2.394 -0.668,-0.485 -1.211,-0.981 -1.211,-1.102 0,-0.566 5.043,-3.922 8.344,-5.551 3.332,-1.648 4.344,-1.883 7.902,-1.828 2.438,0.039 2.957,0.098 3.379,0.371 z m -57.922,5.625 c 0.215,0.082 0.258,0.961 0.258,5.332 v 5.238 l -3.222,1.852 -3.219,1.852 -2.746,-1.571 c -1.508,-0.859 -2.965,-1.722 -3.238,-1.914 l -0.493,-0.347 v -4.817 -4.82 l 0.582,-0.176 c 1.063,-0.324 2.36,-0.578 3.813,-0.742 1.43,-0.16 7.777,-0.074 8.265,0.113 z m 7.973,1.254 c 2.332,0.52 6.047,1.625 8.121,2.422 l 1.391,0.539 v 3.098 c 0,2.73 -0.039,3.132 -0.317,3.367 -0.171,0.148 -1.625,1.015 -3.23,1.933 l -2.914,1.664 -2.914,-1.664 c -1.606,-0.918 -3.059,-1.785 -3.231,-1.933 -0.285,-0.242 -0.316,-0.723 -0.316,-5.195 v -4.926 l 0.676,0.121 c 0.367,0.066 1.601,0.324 2.734,0.574 z m -24.801,5.102 c 0.032,1.914 0.012,3.648 -0.035,3.847 -0.062,0.25 -1.137,0.965 -3.347,2.235 l -3.254,1.871 -1.164,-0.602 c -0.641,-0.332 -1.204,-0.711 -1.254,-0.84 -0.106,-0.277 0.863,-2.078 2.16,-4.015 1.551,-2.317 5.918,-6.289 6.648,-6.047 0.133,0.043 0.215,1.234 0.246,3.551 z m 40.106,0.457 c 1.617,0.82 4.992,2.765 6.765,3.894 2.129,1.363 5.563,3.867 5.563,4.063 0,0.199 -0.168,0.25 -2.512,0.722 l -2.062,0.418 -4.621,-2.675 -4.621,-2.676 v -2.11 c 0,-2.418 -0.02,-2.398 1.488,-1.636 z m -34.75,9.179 c 2.683,1.559 3.035,1.817 3.086,2.266 l 0.058,0.508 -0.863,-0.125 c -3.289,-0.485 -9.027,-1.957 -9.094,-2.336 -0.035,-0.215 3.09,-2.063 3.493,-2.067 0.16,-0.003 1.652,0.789 3.32,1.754 z m 17.203,0 3.051,1.762 v 0.797 0.797 l -1.348,0.148 c -1.387,0.153 -8.859,0.028 -10.551,-0.176 l -0.949,-0.113 0.055,-0.726 0.054,-0.731 3.047,-1.754 c 1.68,-0.969 3.176,-1.758 3.325,-1.761 0.148,0 1.64,0.792 3.316,1.757 z m 16.445,-0.457 c 1.262,0.715 2.297,1.395 2.301,1.512 0,0.113 -0.219,0.254 -0.488,0.309 -2.754,0.55 -9.328,1.543 -10.239,1.543 -0.562,0 -0.593,-0.032 -0.539,-0.575 0.051,-0.539 0.239,-0.679 3.106,-2.332 1.676,-0.965 3.164,-1.757 3.305,-1.757 0.144,0 1.293,0.585 2.554,1.3 z"
         style="fill:#000000;fill-opacity:1;fill-rule:nonzero;stroke:none"
         id="path42"
         inkscape:connector-curvature="0" /><g
         id="g44"
         transform="matrix(1,0,0,-1,0,595.27557)"><path
           d="m 203.852,430.461 h 134 c 5.711,0 10.308,4.594 10.308,10.305 V 574.77 c 0,5.71 -4.597,10.304 -10.308,10.304 h -134 c -5.711,0 -10.309,-4.594 -10.309,-10.304 V 440.766 c 0,-5.711 4.598,-10.305 10.309,-10.305 z"
           style="fill:#50be87;fill-opacity:1;fill-rule:nonzero;stroke:#000000;stroke-width:4.12312078;stroke-linecap:round;stroke-linejoin:round;stroke-miterlimit:4;stroke-dasharray:none;stroke-opacity:1"
           id="path46"
           inkscape:connector-curvature="0" /></g><text
         transform="matrix(1,0,0,-1,237.90818,21.590975)"
         style="font-variant:normal;font-weight:normal;font-size:16.29091072px;font-family:Arial;-inkscape-font-specification:Arial;writing-mode:lr-tb;fill:#000000;fill-opacity:1;fill-rule:nonzero;stroke:none"
         id="text50"><tspan
           sodipodi:role="line"
           id="tspan48"
           x="0"
           y="0">TURTLE</tspan></text>
<path
         d="m 252.586,65.096 c -2.18,0.203 -4.977,1.367 -7.805,3.25 -5.734,3.824 -11.543,10.664 -12.836,15.121 -0.797,2.73 0.231,6.551 2.989,11.145 0.48,0.804 0.875,1.542 0.875,1.644 0,0.203 -3.313,2.699 -4.778,3.602 l -0.914,0.562 h -3.594 c -5.785,0 -8.765,0.449 -13.32,2.012 -3.152,1.082 -4.941,1.969 -5.281,2.625 -0.387,0.754 -0.402,6.293 -0.016,7.742 0.735,2.785 2.875,5.543 5.117,6.594 1.52,0.711 2.684,0.941 4.77,0.941 5.469,0 11.508,-1.484 17.289,-4.254 l 2.051,-0.98 1.355,1.394 c 5.879,6.051 15.141,9.653 28.184,10.953 4.379,0.438 12.836,0.438 16.777,0 7.914,-0.875 16.184,-2.359 26.196,-4.707 4.82,-1.128 10.859,-2.695 11.718,-3.039 0.922,-0.371 1.289,-0.929 1.289,-1.957 0,-0.765 -0.078,-0.89 -1.449,-2.347 -1.133,-1.2 -1.406,-1.59 -1.25,-1.778 0.395,-0.48 1.934,-0.976 3.957,-1.277 2.5,-0.371 3.895,-1.023 5.653,-2.633 2.785,-2.551 4.175,-5.469 4.476,-9.379 0.27,-3.496 -0.769,-5.129 -3.762,-5.918 -1.531,-0.402 -4.808,-0.617 -6.672,-0.433 -4.023,0.398 -9.343,2.914 -14.968,7.09 -0.852,0.628 -1.621,1.144 -1.715,1.144 -0.094,0 -0.586,-0.594 -1.094,-1.316 -5.387,-7.719 -15.015,-13.34 -26.598,-15.528 -4.773,-0.906 -10.789,-1.382 -15.25,-1.215 -4.238,0.161 -7.222,0.672 -10.527,1.801 -0.707,0.239 -1.328,0.395 -1.383,0.34 -0.32,-0.32 1.43,-2.73 4.266,-5.875 2.156,-2.391 3.141,-3.715 3.641,-4.894 1.117,-2.637 1.003,-5.122 -0.336,-7.352 -1.411,-2.348 -3.778,-3.383 -7.055,-3.078 z m 2.801,4.512 c 1.902,1.269 1.57,3.859 -0.852,6.629 -0.578,0.66 -1.808,2.066 -2.734,3.121 -3.176,3.625 -4.488,6.226 -5.235,10.371 -0.222,1.238 -0.152,6.129 0.098,6.769 0.086,0.219 -0.32,0.645 -1.574,1.653 -3.684,2.961 -6.543,6.742 -8.293,10.972 l -0.742,1.793 -2.321,1.176 c -1.277,0.648 -3.152,1.48 -4.168,1.855 -5.015,1.836 -11.425,2.75 -13.98,1.993 -1.199,-0.36 -2.516,-1.551 -3.199,-2.899 -0.492,-0.969 -0.535,-1.219 -0.59,-3.336 l -0.059,-2.289 0.813,-0.347 c 1.398,-0.602 4.617,-1.606 6.394,-2 1.426,-0.317 2.504,-0.391 6.637,-0.461 3.738,-0.067 5.145,-0.153 5.793,-0.36 1.645,-0.523 8.809,-5.652 9.25,-6.621 0.422,-0.918 0.258,-1.543 -0.789,-3.043 -2.352,-3.363 -4.027,-7.09 -4.027,-8.945 0,-1.125 0.476,-2.285 1.703,-4.172 2.777,-4.27 7.433,-8.676 11.457,-10.84 2.719,-1.465 5.168,-1.855 6.418,-1.019 z m 17.297,18.972 c 7.722,0.809 14.121,2.668 19.48,5.664 2.703,1.508 6.262,4.172 5.785,4.332 -0.101,0.036 -0.824,-0.23 -1.601,-0.589 -6.582,-3.032 -14.321,-5.208 -21.782,-6.118 -3.277,-0.402 -11.457,-0.457 -13.906,-0.093 -2.472,0.367 -5.859,1.234 -7.918,2.031 -1.019,0.394 -1.937,0.664 -2.039,0.601 -0.098,-0.058 -0.18,-0.668 -0.18,-1.351 0,-1.457 -0.027,-1.43 2.504,-2.52 2.52,-1.09 5.407,-1.773 9.336,-2.218 1.078,-0.122 8.434,0.066 10.321,0.261 z m 1.882,7.434 c 12.047,1.551 22.907,5.933 33.555,13.535 3.438,2.457 8.496,6.738 8.379,7.09 -0.07,0.203 -3.023,0.996 -3.715,0.996 -0.277,0 -0.859,-0.348 -1.527,-0.906 -5.426,-4.571 -13.711,-9.481 -20.547,-12.176 -7.625,-3.008 -14.234,-4.426 -22.313,-4.785 -10.921,-0.489 -19.691,3.816 -24.695,12.125 -0.543,0.898 -1.121,1.816 -1.285,2.035 l -0.301,0.398 -0.547,-0.523 c -0.304,-0.289 -0.754,-0.82 -1.004,-1.184 -0.445,-0.636 -0.449,-0.675 -0.179,-1.441 0.914,-2.59 3.172,-5.914 5.636,-8.301 4.102,-3.973 9.512,-6.355 16.161,-7.125 2.046,-0.234 9.8,-0.07 12.382,0.262 z m 54.973,2.488 c 0.496,0.328 0.496,0.34 0.375,1.707 -0.223,2.477 -1.133,4.488 -2.773,6.129 -1.305,1.305 -1.93,1.598 -4.207,1.988 -2.676,0.457 -3.473,0.731 -5.086,1.727 -0.895,0.551 -1.375,0.754 -1.528,0.637 -0.117,-0.094 -1.062,-0.852 -2.101,-1.684 -1.035,-0.836 -2.43,-1.91 -3.094,-2.394 -0.668,-0.485 -1.211,-0.981 -1.211,-1.102 0,-0.566 5.043,-3.922 8.344,-5.551 3.332,-1.648 4.344,-1.883 7.902,-1.828 2.434,0.039 2.957,0.098 3.379,0.371 z m -57.922,5.625 c 0.215,0.082 0.258,0.961 0.258,5.332 v 5.238 l -3.223,1.852 -3.218,1.852 -2.746,-1.571 c -1.508,-0.859 -2.965,-1.722 -3.239,-1.914 l -0.492,-0.347 v -4.817 -4.82 l 0.582,-0.176 c 1.063,-0.324 2.359,-0.578 3.813,-0.742 1.429,-0.16 7.777,-0.074 8.265,0.113 z m 7.973,1.254 c 2.332,0.52 6.047,1.625 8.121,2.422 l 1.391,0.539 v 3.098 c 0,2.73 -0.039,3.132 -0.317,3.367 -0.172,0.148 -1.625,1.015 -3.23,1.933 l -2.914,1.664 -2.914,-1.664 c -1.606,-0.918 -3.059,-1.785 -3.231,-1.933 -0.285,-0.242 -0.316,-0.723 -0.316,-5.195 v -4.926 l 0.675,0.121 c 0.368,0.066 1.602,0.324 2.735,0.574 z m -24.801,5.102 c 0.027,1.914 0.012,3.648 -0.039,3.847 -0.059,0.25 -1.133,0.965 -3.344,2.235 l -3.254,1.871 -1.164,-0.602 c -0.64,-0.332 -1.203,-0.711 -1.254,-0.84 -0.105,-0.277 0.864,-2.078 2.161,-4.015 1.55,-2.317 5.918,-6.289 6.648,-6.047 0.129,0.043 0.215,1.234 0.246,3.551 z m 40.102,0.457 c 1.621,0.82 4.996,2.765 6.769,3.894 2.129,1.363 5.563,3.867 5.563,4.063 0,0.199 -0.168,0.25 -2.512,0.722 l -2.063,0.418 -4.621,-2.675 -4.621,-2.676 v -2.11 c 0,-2.418 -0.019,-2.398 1.485,-1.636 z m -34.746,9.179 c 2.683,1.559 3.035,1.817 3.085,2.266 l 0.059,0.508 -0.863,-0.125 c -3.289,-0.485 -9.028,-1.957 -9.094,-2.336 -0.035,-0.215 3.09,-2.063 3.492,-2.067 0.16,-0.003 1.653,0.789 3.321,1.754 z m 17.203,0 3.05,1.762 v 0.797 0.797 l -1.347,0.148 c -1.387,0.153 -8.86,0.028 -10.551,-0.176 l -0.949,-0.113 0.054,-0.726 0.055,-0.731 3.047,-1.754 c 1.68,-0.969 3.172,-1.758 3.324,-1.761 0.149,0 1.641,0.792 3.317,1.757 z m 16.445,-0.457 c 1.262,0.715 2.297,1.395 2.301,1.512 0,0.113 -0.219,0.254 -0.489,0.309 -2.753,0.55 -9.328,1.543 -10.238,1.543 -0.562,0 -0.594,-0.032 -0.539,-0.575 0.051,-0.539 0.238,-0.679 3.106,-2.332 1.675,-0.965 3.164,-1.757 3.304,-1.757 0.145,0 1.293,0.585 2.555,1.3 z"
         style="fill:#000000;fill-opacity:1;fill-rule:nonzero;stroke:none"
         id="path52"
         inkscape:connector-curvature="0" /><g
         id="g54"
         transform="matrix(1,0,0,-1,0,595.27557)"><path
           d="m 435.656,429.871 h 95.719 c 4.078,0 7.359,3.281 7.359,7.363 v 95.715 c 0,4.078 -3.281,7.364 -7.359,7.364 h -95.719 c -4.078,0 -7.359,-3.286 -7.359,-7.364 v -95.715 c 0,-4.082 3.281,-7.363 7.359,-7.363 z"
           style="fill:#50be87;fill-opacity:1;fill-rule:nonzero;stroke:#000000;stroke-width:2.94508696;stroke-linecap:round;stroke-linejoin:round;stroke-miterlimit:4;stroke-dasharray:none;stroke-opacity:1"
           id="path56"
           inkscape:connector-curvature="0" /></g><text
         transform="matrix(1,0,0,-1,459.98433,63.101567)"
         style="font-variant:normal;font-weight:normal;font-size:11.63636398px;font-family:Arial;-inkscape-font-specification:Arial;writing-mode:lr-tb;fill:#000000;fill-opacity:1;fill-rule:nonzero;stroke:none"
         id="text60"><tspan
           sodipodi:role="line"
           id="tspan58"
           x="0"
           y="0">TURTLE</tspan></text>
<path
         d="m 470.469,94.178 c -1.559,0.141 -3.555,0.976 -5.574,2.32 -4.098,2.731 -8.247,7.617 -9.172,10.801 -0.567,1.949 0.164,4.68 2.136,7.961 0.344,0.574 0.625,1.102 0.625,1.176 0,0.144 -2.367,1.926 -3.41,2.57 l -0.652,0.402 h -2.57 c -4.133,0 -6.262,0.321 -9.516,1.438 -2.25,0.769 -3.527,1.406 -3.77,1.875 -0.277,0.535 -0.285,4.496 -0.011,5.531 0.523,1.988 2.054,3.957 3.652,4.707 1.086,0.512 1.922,0.676 3.41,0.676 3.906,0 8.219,-1.063 12.348,-3.039 l 1.465,-0.703 0.968,0.996 c 4.2,4.324 10.817,6.894 20.133,7.824 3.129,0.313 9.168,0.313 11.981,0 5.652,-0.625 11.562,-1.687 18.711,-3.363 3.445,-0.805 7.757,-1.926 8.375,-2.172 0.656,-0.262 0.918,-0.66 0.918,-1.395 0,-0.546 -0.055,-0.636 -1.036,-1.675 -0.808,-0.86 -1.003,-1.137 -0.894,-1.274 0.285,-0.34 1.383,-0.695 2.828,-0.91 1.785,-0.266 2.781,-0.73 4.039,-1.883 1.988,-1.82 2.981,-3.906 3.195,-6.699 0.192,-2.496 -0.546,-3.66 -2.683,-4.227 -1.098,-0.289 -3.438,-0.437 -4.766,-0.308 -2.879,0.285 -6.676,2.082 -10.695,5.062 -0.606,0.453 -1.156,0.821 -1.227,0.821 -0.066,0 -0.418,-0.426 -0.777,-0.942 -3.852,-5.515 -10.727,-9.527 -19,-11.094 -3.41,-0.644 -7.703,-0.984 -10.895,-0.863 -3.023,0.113 -5.156,0.477 -7.519,1.285 -0.504,0.172 -0.949,0.282 -0.984,0.243 -0.231,-0.227 1.019,-1.95 3.046,-4.196 1.54,-1.711 2.243,-2.656 2.598,-3.496 0.797,-1.883 0.719,-3.66 -0.238,-5.25 -1.008,-1.68 -2.695,-2.418 -5.039,-2.199 z m 2,3.219 c 1.359,0.91 1.121,2.757 -0.606,4.738 -0.414,0.473 -1.293,1.477 -1.953,2.23 -2.269,2.59 -3.211,4.446 -3.742,7.407 -0.156,0.882 -0.109,4.379 0.07,4.836 0.063,0.156 -0.23,0.457 -1.125,1.179 -2.633,2.117 -4.672,4.817 -5.922,7.836 l -0.531,1.281 -1.656,0.84 c -0.914,0.465 -2.254,1.059 -2.981,1.325 -3.582,1.312 -8.16,1.964 -9.984,1.425 -0.855,-0.257 -1.797,-1.105 -2.285,-2.07 -0.352,-0.695 -0.383,-0.871 -0.422,-2.383 l -0.039,-1.637 0.578,-0.246 c 1,-0.429 3.297,-1.148 4.567,-1.429 1.019,-0.227 1.789,-0.278 4.742,-0.328 2.668,-0.047 3.675,-0.11 4.14,-0.258 1.172,-0.375 6.289,-4.039 6.606,-4.731 0.301,-0.656 0.183,-1.101 -0.567,-2.172 -1.675,-2.402 -2.875,-5.066 -2.875,-6.39 0,-0.801 0.34,-1.633 1.219,-2.981 1.985,-3.047 5.309,-6.195 8.184,-7.742 1.937,-1.047 3.691,-1.324 4.582,-0.73 z m 12.355,13.554 c 5.516,0.578 10.086,1.907 13.914,4.043 1.93,1.078 4.473,2.985 4.133,3.098 -0.074,0.023 -0.59,-0.164 -1.144,-0.422 -4.704,-2.168 -10.231,-3.719 -15.559,-4.371 -2.34,-0.285 -8.18,-0.324 -9.934,-0.066 -1.765,0.261 -4.183,0.882 -5.652,1.449 -0.73,0.285 -1.387,0.476 -1.457,0.433 -0.07,-0.043 -0.129,-0.48 -0.129,-0.968 0,-1.039 -0.019,-1.02 1.785,-1.801 1.801,-0.774 3.867,-1.266 6.672,-1.582 0.77,-0.086 6.024,0.047 7.371,0.187 z m 1.344,5.309 c 8.605,1.109 16.363,4.238 23.969,9.668 2.453,1.754 6.066,4.812 5.984,5.066 -0.051,0.145 -2.16,0.711 -2.652,0.711 -0.199,0 -0.617,-0.25 -1.09,-0.648 -3.879,-3.266 -9.797,-6.774 -14.68,-8.695 -5.445,-2.149 -10.164,-3.161 -15.937,-3.418 -7.801,-0.352 -14.063,2.726 -17.637,8.656 -0.387,0.644 -0.801,1.301 -0.918,1.457 l -0.215,0.285 -0.394,-0.375 c -0.215,-0.207 -0.535,-0.586 -0.715,-0.844 -0.317,-0.457 -0.32,-0.484 -0.129,-1.031 0.656,-1.852 2.266,-4.223 4.027,-5.93 2.93,-2.836 6.793,-4.539 11.543,-5.086 1.461,-0.168 7,-0.054 8.844,0.184 z m 39.266,1.781 c 0.355,0.231 0.355,0.242 0.269,1.215 -0.16,1.77 -0.808,3.207 -1.98,4.379 -0.93,0.93 -1.379,1.144 -3.004,1.422 -1.914,0.324 -2.485,0.519 -3.637,1.23 -0.637,0.395 -0.98,0.539 -1.09,0.457 -0.082,-0.066 -0.758,-0.609 -1.5,-1.203 -0.738,-0.597 -1.734,-1.367 -2.211,-1.711 -0.476,-0.343 -0.863,-0.699 -0.863,-0.789 0,-0.402 3.602,-2.801 5.957,-3.965 2.383,-1.175 3.105,-1.339 5.645,-1.3 1.742,0.023 2.113,0.066 2.414,0.265 z m -41.371,4.016 c 0.152,0.058 0.183,0.687 0.183,3.808 v 3.739 l -2.301,1.324 -2.3,1.324 -1.961,-1.121 c -1.079,-0.617 -2.118,-1.23 -2.313,-1.367 l -0.351,-0.25 v -3.442 -3.441 l 0.414,-0.125 c 0.761,-0.234 1.687,-0.414 2.726,-0.531 1.02,-0.117 5.555,-0.055 5.903,0.082 z m 5.695,0.894 c 1.664,0.371 4.32,1.161 5.797,1.731 l 0.996,0.383 v 2.214 c 0,1.95 -0.028,2.235 -0.227,2.407 -0.121,0.101 -1.16,0.726 -2.304,1.379 l -2.082,1.187 -2.086,-1.187 c -1.145,-0.653 -2.184,-1.278 -2.305,-1.379 -0.203,-0.176 -0.227,-0.52 -0.227,-3.711 v -3.52 l 0.485,0.086 c 0.261,0.047 1.14,0.235 1.953,0.41 z m -17.715,3.645 c 0.02,1.367 0.008,2.605 -0.027,2.75 -0.043,0.176 -0.809,0.687 -2.391,1.594 l -2.324,1.336 -0.832,-0.43 c -0.457,-0.238 -0.86,-0.508 -0.895,-0.602 -0.074,-0.195 0.617,-1.484 1.543,-2.867 1.11,-1.652 4.227,-4.492 4.75,-4.316 0.094,0.031 0.153,0.883 0.176,2.535 z m 28.645,0.328 c 1.156,0.586 3.566,1.973 4.832,2.781 1.523,0.973 3.976,2.762 3.976,2.899 0,0.144 -0.121,0.179 -1.797,0.519 l -1.472,0.297 -3.301,-1.91 -3.301,-1.91 v -1.508 c 0,-1.73 -0.012,-1.715 1.063,-1.168 z m -24.821,6.555 c 1.918,1.113 2.168,1.297 2.207,1.621 l 0.039,0.359 -0.617,-0.09 c -2.348,-0.343 -6.449,-1.398 -6.492,-1.668 -0.027,-0.152 2.203,-1.472 2.492,-1.476 0.113,0 1.18,0.562 2.371,1.254 z m 12.289,0 2.176,1.258 v 0.57 0.57 l -0.961,0.106 c -0.988,0.109 -6.328,0.019 -7.535,-0.125 l -0.68,-0.082 0.039,-0.52 0.039,-0.519 2.18,-1.258 c 1.199,-0.688 2.266,-1.254 2.371,-1.254 0.106,0 1.176,0.562 2.371,1.254 z m 11.746,-0.325 c 0.903,0.508 1.641,0.997 1.641,1.079 0.004,0.082 -0.152,0.179 -0.348,0.218 -1.965,0.395 -6.66,1.106 -7.312,1.106 -0.403,0 -0.422,-0.024 -0.387,-0.41 0.039,-0.387 0.172,-0.489 2.219,-1.668 1.199,-0.692 2.262,-1.254 2.363,-1.254 0.102,0 0.922,0.418 1.824,0.929 z"
         style="fill:#000000;fill-opacity:1;fill-rule:nonzero;stroke:none"
         id="path62"
         inkscape:connector-curvature="0" /><g
         id="g64"
         transform="matrix(1,0,0,-1,0,595.27557)"><path
           d="m 562.957,429.871 h 95.715 c 4.078,0 7.363,3.281 7.363,7.363 v 95.715 c 0,4.078 -3.285,7.364 -7.363,7.364 h -95.715 c -4.078,0 -7.363,-3.286 -7.363,-7.364 v -95.715 c 0,-4.082 3.285,-7.363 7.363,-7.363 z"
           style="fill:#50be87;fill-opacity:1;fill-rule:nonzero;stroke:#000000;stroke-width:2.94508696;stroke-linecap:round;stroke-linejoin:round;stroke-miterlimit:4;stroke-dasharray:none;stroke-opacity:1"
           id="path66"
           inkscape:connector-curvature="0" /></g><text
         transform="matrix(1,0,0,-1,587.28232,63.101567)"
         style="font-variant:normal;font-weight:normal;font-size:11.63636398px;font-family:Arial;-inkscape-font-specification:Arial;writing-mode:lr-tb;fill:#000000;fill-opacity:1;fill-rule:nonzero;stroke:none"
         id="text70"><tspan
           sodipodi:role="line"
           id="tspan68"
           x="0"
           y="0">TURTLE</tspan></text>
<path
         d="m 597.766,94.178 c -1.555,0.141 -3.555,0.976 -5.575,2.32 -4.093,2.731 -8.242,7.617 -9.168,10.801 -0.57,1.949 0.165,4.68 2.133,7.961 0.344,0.574 0.629,1.102 0.629,1.176 0,0.144 -2.371,1.926 -3.414,2.57 l -0.652,0.402 h -2.567 c -4.136,0 -6.261,0.321 -9.515,1.438 -2.254,0.769 -3.532,1.406 -3.774,1.875 -0.277,0.535 -0.285,4.496 -0.011,5.531 0.527,1.988 2.054,3.957 3.656,4.707 1.086,0.512 1.918,0.676 3.406,0.676 3.906,0 8.223,-1.063 12.348,-3.039 l 1.468,-0.703 0.969,0.996 c 4.196,4.324 10.813,6.894 20.129,7.824 3.129,0.313 9.168,0.313 11.985,0 5.652,-0.625 11.558,-1.687 18.71,-3.363 3.442,-0.805 7.758,-1.926 8.372,-2.172 0.656,-0.262 0.918,-0.66 0.918,-1.395 0,-0.546 -0.055,-0.636 -1.036,-1.675 -0.804,-0.86 -1.004,-1.137 -0.89,-1.274 0.281,-0.34 1.379,-0.695 2.824,-0.91 1.785,-0.266 2.781,-0.73 4.039,-1.883 1.988,-1.82 2.984,-3.906 3.199,-6.699 0.188,-2.496 -0.551,-3.66 -2.687,-4.227 -1.098,-0.289 -3.438,-0.437 -4.766,-0.308 -2.875,0.285 -6.676,2.082 -10.691,5.062 -0.61,0.453 -1.16,0.821 -1.227,0.821 -0.07,0 -0.418,-0.426 -0.781,-0.942 -3.848,-5.515 -10.727,-9.527 -18.996,-11.094 -3.41,-0.644 -7.707,-0.984 -10.895,-0.863 -3.027,0.113 -5.16,0.477 -7.519,1.285 -0.508,0.172 -0.949,0.282 -0.989,0.243 -0.23,-0.227 1.02,-1.95 3.047,-4.196 1.539,-1.711 2.243,-2.656 2.602,-3.496 0.797,-1.883 0.715,-3.66 -0.242,-5.25 -1.008,-1.68 -2.696,-2.418 -5.039,-2.199 z m 2,3.219 c 1.359,0.91 1.121,2.757 -0.606,4.738 -0.414,0.473 -1.293,1.477 -1.953,2.23 -2.269,2.59 -3.207,4.446 -3.738,7.407 -0.16,0.882 -0.11,4.379 0.066,4.836 0.063,0.156 -0.226,0.457 -1.125,1.179 -2.629,2.117 -4.672,4.817 -5.922,7.836 l -0.531,1.281 -1.656,0.84 c -0.91,0.465 -2.25,1.059 -2.977,1.325 -3.582,1.312 -8.16,1.964 -9.988,1.425 -0.856,-0.257 -1.797,-1.105 -2.281,-2.07 -0.352,-0.695 -0.383,-0.871 -0.422,-2.383 l -0.043,-1.637 0.582,-0.246 c 0.996,-0.429 3.297,-1.148 4.562,-1.429 1.024,-0.227 1.789,-0.278 4.743,-0.328 2.671,-0.047 3.675,-0.11 4.14,-0.258 1.176,-0.375 6.293,-4.039 6.606,-4.731 0.3,-0.656 0.183,-1.101 -0.563,-2.172 -1.68,-2.402 -2.875,-5.066 -2.875,-6.39 0,-0.801 0.336,-1.633 1.215,-2.981 1.984,-3.047 5.309,-6.195 8.184,-7.742 1.941,-1.047 3.691,-1.324 4.582,-0.73 z m 12.355,13.554 c 5.52,0.578 10.086,1.907 13.918,4.043 1.93,1.078 4.469,2.985 4.129,3.098 -0.074,0.023 -0.59,-0.164 -1.145,-0.422 -4.699,-2.168 -10.226,-3.719 -15.558,-4.371 -2.34,-0.285 -8.18,-0.324 -9.93,-0.066 -1.765,0.261 -4.187,0.882 -5.656,1.449 -0.731,0.285 -1.383,0.476 -1.457,0.433 -0.07,-0.043 -0.129,-0.48 -0.129,-0.968 0,-1.039 -0.02,-1.02 1.789,-1.801 1.801,-0.774 3.863,-1.266 6.668,-1.582 0.77,-0.086 6.023,0.047 7.371,0.187 z m 1.344,5.309 c 8.605,1.109 16.363,4.238 23.969,9.668 2.453,1.754 6.07,4.812 5.984,5.066 -0.047,0.145 -2.16,0.711 -2.652,0.711 -0.2,0 -0.614,-0.25 -1.09,-0.648 -3.879,-3.266 -9.797,-6.774 -14.676,-8.695 -5.449,-2.149 -10.168,-3.161 -15.937,-3.418 -7.805,-0.352 -14.067,2.726 -17.641,8.656 -0.387,0.644 -0.801,1.301 -0.918,1.457 l -0.215,0.285 -0.391,-0.375 c -0.218,-0.207 -0.539,-0.586 -0.718,-0.844 -0.317,-0.457 -0.321,-0.484 -0.125,-1.031 0.652,-1.852 2.261,-4.223 4.023,-5.93 2.93,-2.836 6.793,-4.539 11.543,-5.086 1.465,-0.168 7,-0.054 8.844,0.184 z m 39.265,1.781 c 0.356,0.231 0.36,0.242 0.27,1.215 -0.156,1.77 -0.809,3.207 -1.98,4.379 -0.93,0.93 -1.379,1.144 -3.004,1.422 -1.911,0.324 -2.481,0.519 -3.633,1.23 -0.641,0.395 -0.985,0.539 -1.09,0.457 -0.086,-0.066 -0.762,-0.609 -1.504,-1.203 -0.738,-0.597 -1.734,-1.367 -2.211,-1.711 -0.473,-0.343 -0.863,-0.699 -0.863,-0.789 0,-0.402 3.601,-2.801 5.961,-3.965 2.379,-1.175 3.101,-1.339 5.644,-1.3 1.739,0.023 2.11,0.066 2.41,0.265 z m -41.371,4.016 c 0.157,0.058 0.184,0.687 0.184,3.808 v 3.739 l -2.301,1.324 -2.301,1.324 -1.961,-1.121 c -1.078,-0.617 -2.117,-1.23 -2.312,-1.367 l -0.352,-0.25 v -3.442 -3.441 l 0.418,-0.125 c 0.758,-0.234 1.684,-0.414 2.723,-0.531 1.02,-0.117 5.555,-0.055 5.902,0.082 z m 5.696,0.894 c 1.668,0.371 4.32,1.161 5.8,1.731 l 0.993,0.383 v 2.214 c 0,1.95 -0.028,2.235 -0.223,2.407 -0.125,0.101 -1.164,0.726 -2.309,1.379 l -2.082,1.187 -2.082,-1.187 c -1.144,-0.653 -2.183,-1.278 -2.308,-1.379 -0.203,-0.176 -0.223,-0.52 -0.223,-3.711 v -3.52 l 0.481,0.086 c 0.261,0.047 1.144,0.235 1.953,0.41 z m -17.715,3.645 c 0.019,1.367 0.008,2.605 -0.027,2.75 -0.043,0.176 -0.809,0.687 -2.387,1.594 l -2.328,1.336 -0.828,-0.43 c -0.457,-0.238 -0.864,-0.508 -0.899,-0.602 -0.074,-0.195 0.617,-1.484 1.543,-2.867 1.109,-1.652 4.227,-4.492 4.75,-4.316 0.094,0.031 0.152,0.883 0.176,2.535 z m 28.644,0.328 c 1.157,0.586 3.571,1.973 4.836,2.781 1.52,0.973 3.973,2.762 3.973,2.899 0,0.144 -0.121,0.179 -1.797,0.519 l -1.473,0.297 -3.3,-1.91 -3.301,-1.91 v -1.508 c 0,-1.73 -0.012,-1.715 1.062,-1.168 z m -24.82,6.555 c 1.918,1.113 2.168,1.297 2.207,1.621 l 0.043,0.359 -0.621,-0.09 c -2.348,-0.343 -6.449,-1.398 -6.492,-1.668 -0.028,-0.152 2.203,-1.472 2.492,-1.476 0.113,0 1.184,0.562 2.371,1.254 z m 12.289,0 2.18,1.258 v 0.57 0.57 l -0.961,0.106 c -0.992,0.109 -6.332,0.019 -7.539,-0.125 l -0.676,-0.082 0.035,-0.52 0.039,-0.519 2.18,-1.258 c 1.199,-0.688 2.266,-1.254 2.371,-1.254 0.109,0 1.176,0.562 2.371,1.254 z m 11.746,-0.325 c 0.903,0.508 1.641,0.997 1.645,1.079 0,0.082 -0.156,0.179 -0.352,0.218 -1.965,0.395 -6.66,1.106 -7.312,1.106 -0.399,0 -0.422,-0.024 -0.383,-0.41 0.035,-0.387 0.168,-0.489 2.215,-1.668 1.199,-0.692 2.261,-1.254 2.363,-1.254 0.102,0 0.922,0.418 1.824,0.929 z"
         style="fill:#000000;fill-opacity:1;fill-rule:nonzero;stroke:none"
         id="path72"
         inkscape:connector-curvature="0" /><g
         id="g74"
         transform="matrix(1,0,0,-1,0,595.27557)"><path
           d="m 690.789,429.871 h 95.715 c 4.078,0 7.363,3.281 7.363,7.363 v 95.715 c 0,4.078 -3.285,7.364 -7.363,7.364 h -95.715 c -4.078,0 -7.363,-3.286 -7.363,-7.364 v -95.715 c 0,-4.082 3.285,-7.363 7.363,-7.363 z"
           style="fill:#50be87;fill-opacity:1;fill-rule:nonzero;stroke:#000000;stroke-width:2.94508696;stroke-linecap:round;stroke-linejoin:round;stroke-miterlimit:4;stroke-dasharray:none;stroke-opacity:1"
           id="path76"
           inkscape:connector-curvature="0" /></g><text
         transform="matrix(1,0,0,-1,715.11517,63.101567)"
         style="font-variant:normal;font-weight:normal;font-size:11.63636398px;font-family:Arial;-inkscape-font-specification:Arial;writing-mode:lr-tb;fill:#000000;fill-opacity:1;fill-rule:nonzero;stroke:none"
         id="text80"><tspan
           sodipodi:role="line"
           id="tspan78"
           x="0"
           y="0">TURTLE</tspan></text>
<path
         d="m 725.598,94.178 c -1.555,0.141 -3.555,0.976 -5.575,2.32 -4.093,2.731 -8.242,7.617 -9.168,10.801 -0.566,1.949 0.165,4.68 2.133,7.961 0.348,0.574 0.629,1.102 0.629,1.176 0,0.144 -2.367,1.926 -3.414,2.57 l -0.652,0.402 h -2.567 c -4.132,0 -6.261,0.321 -9.515,1.438 -2.25,0.769 -3.531,1.406 -3.774,1.875 -0.277,0.535 -0.285,4.496 -0.011,5.531 0.527,1.988 2.054,3.957 3.656,4.707 1.086,0.512 1.918,0.676 3.406,0.676 3.906,0 8.223,-1.063 12.352,-3.039 l 1.465,-0.703 0.968,0.996 c 4.196,4.324 10.813,6.894 20.129,7.824 3.129,0.313 9.168,0.313 11.985,0 5.652,-0.625 11.558,-1.687 18.71,-3.363 3.446,-0.805 7.758,-1.926 8.372,-2.172 0.656,-0.262 0.921,-0.66 0.921,-1.395 0,-0.546 -0.058,-0.636 -1.035,-1.675 -0.808,-0.86 -1.008,-1.137 -0.894,-1.274 0.281,-0.34 1.383,-0.695 2.824,-0.91 1.789,-0.266 2.785,-0.73 4.039,-1.883 1.988,-1.82 2.984,-3.906 3.199,-6.699 0.192,-2.496 -0.551,-3.66 -2.687,-4.227 -1.094,-0.289 -3.438,-0.437 -4.766,-0.308 -2.875,0.285 -6.672,2.082 -10.691,5.062 -0.61,0.453 -1.16,0.821 -1.227,0.821 -0.066,0 -0.418,-0.426 -0.781,-0.942 -3.848,-5.515 -10.723,-9.527 -18.996,-11.094 -3.41,-0.644 -7.707,-0.984 -10.895,-0.863 -3.027,0.113 -5.16,0.477 -7.519,1.285 -0.504,0.172 -0.949,0.282 -0.989,0.243 -0.226,-0.227 1.024,-1.95 3.047,-4.196 1.539,-1.711 2.246,-2.656 2.602,-3.496 0.797,-1.883 0.715,-3.66 -0.242,-5.25 -1.008,-1.68 -2.696,-2.418 -5.039,-2.199 z m 2,3.219 c 1.359,0.91 1.121,2.757 -0.606,4.738 -0.414,0.473 -1.293,1.477 -1.953,2.23 -2.269,2.59 -3.207,4.446 -3.738,7.407 -0.16,0.882 -0.11,4.379 0.066,4.836 0.063,0.156 -0.226,0.457 -1.125,1.179 -2.629,2.117 -4.668,4.817 -5.922,7.836 l -0.531,1.281 -1.656,0.84 c -0.91,0.465 -2.25,1.059 -2.977,1.325 -3.582,1.312 -8.16,1.964 -9.988,1.425 -0.855,-0.257 -1.793,-1.105 -2.281,-2.07 -0.352,-0.695 -0.383,-0.871 -0.422,-2.383 l -0.043,-1.637 0.582,-0.246 c 1,-0.429 3.297,-1.148 4.566,-1.429 1.02,-0.227 1.789,-0.278 4.743,-0.328 2.667,-0.047 3.671,-0.11 4.136,-0.258 1.176,-0.375 6.293,-4.039 6.61,-4.731 0.296,-0.656 0.179,-1.101 -0.567,-2.172 -1.679,-2.402 -2.875,-5.066 -2.875,-6.39 0,-0.801 0.336,-1.633 1.215,-2.981 1.984,-3.047 5.313,-6.195 8.184,-7.742 1.941,-1.047 3.691,-1.324 4.582,-0.73 z m 12.355,13.554 c 5.52,0.578 10.086,1.907 13.918,4.043 1.93,1.078 4.469,2.985 4.129,3.098 -0.07,0.023 -0.586,-0.164 -1.145,-0.422 -4.699,-2.168 -10.226,-3.719 -15.554,-4.371 -2.344,-0.285 -8.184,-0.324 -9.934,-0.066 -1.765,0.261 -4.183,0.882 -5.656,1.449 -0.727,0.285 -1.383,0.476 -1.457,0.433 -0.07,-0.043 -0.129,-0.48 -0.129,-0.968 0,-1.039 -0.02,-1.02 1.789,-1.801 1.801,-0.774 3.863,-1.266 6.672,-1.582 0.769,-0.086 6.023,0.047 7.367,0.187 z m 1.348,5.309 c 8.601,1.109 16.363,4.238 23.965,9.668 2.457,1.754 6.07,4.812 5.984,5.066 -0.047,0.145 -2.156,0.711 -2.652,0.711 -0.2,0 -0.614,-0.25 -1.09,-0.648 -3.875,-3.266 -9.793,-6.774 -14.676,-8.695 -5.445,-2.149 -10.168,-3.161 -15.937,-3.418 -7.801,-0.352 -14.067,2.726 -17.641,8.656 -0.387,0.644 -0.801,1.301 -0.918,1.457 l -0.215,0.285 -0.391,-0.375 c -0.214,-0.207 -0.539,-0.586 -0.718,-0.844 -0.317,-0.457 -0.321,-0.484 -0.125,-1.031 0.652,-1.852 2.265,-4.223 4.023,-5.93 2.93,-2.836 6.797,-4.539 11.547,-5.086 1.461,-0.168 6.996,-0.054 8.844,0.184 z m 39.265,1.781 c 0.352,0.231 0.356,0.242 0.266,1.215 -0.156,1.77 -0.809,3.207 -1.98,4.379 -0.93,0.93 -1.379,1.144 -3.004,1.422 -1.91,0.324 -2.481,0.519 -3.633,1.23 -0.641,0.395 -0.985,0.539 -1.09,0.457 -0.086,-0.066 -0.762,-0.609 -1.5,-1.203 -0.742,-0.597 -1.738,-1.367 -2.211,-1.711 -0.476,-0.343 -0.867,-0.699 -0.867,-0.789 0,-0.402 3.605,-2.801 5.961,-3.965 2.379,-1.175 3.101,-1.339 5.644,-1.3 1.739,0.023 2.11,0.066 2.414,0.265 z m -41.371,4.016 c 0.153,0.058 0.184,0.687 0.184,3.808 v 3.739 l -2.305,1.324 -2.301,1.324 -1.957,-1.121 c -1.078,-0.617 -2.121,-1.23 -2.316,-1.367 l -0.352,-0.25 v -3.442 -3.441 l 0.418,-0.125 c 0.758,-0.234 1.684,-0.414 2.723,-0.531 1.02,-0.117 5.555,-0.055 5.906,0.082 z m 5.692,0.894 c 1.668,0.371 4.32,1.161 5.801,1.731 l 0.992,0.383 v 2.214 c 0,1.95 -0.028,2.235 -0.223,2.407 -0.125,0.101 -1.16,0.726 -2.309,1.379 l -2.082,1.187 -2.082,-1.187 c -1.144,-0.653 -2.183,-1.278 -2.308,-1.379 -0.203,-0.176 -0.223,-0.52 -0.223,-3.711 v -3.52 l 0.481,0.086 c 0.265,0.047 1.144,0.235 1.953,0.41 z m -17.711,3.645 c 0.019,1.367 0.004,2.605 -0.031,2.75 -0.043,0.176 -0.809,0.687 -2.387,1.594 l -2.328,1.336 -0.828,-0.43 c -0.457,-0.238 -0.86,-0.508 -0.899,-0.602 -0.074,-0.195 0.621,-1.484 1.543,-2.867 1.109,-1.652 4.231,-4.492 4.75,-4.316 0.094,0.031 0.152,0.883 0.18,2.535 z m 28.64,0.328 c 1.157,0.586 3.571,1.973 4.836,2.781 1.52,0.973 3.973,2.762 3.973,2.899 0,0.144 -0.121,0.179 -1.793,0.519 l -1.477,0.297 -3.296,-1.91 -3.301,-1.91 v -1.508 c 0,-1.73 -0.016,-1.715 1.058,-1.168 z m -24.82,6.555 c 1.918,1.113 2.168,1.297 2.207,1.621 l 0.043,0.359 -0.621,-0.09 c -2.348,-0.343 -6.445,-1.398 -6.492,-1.668 -0.024,-0.152 2.207,-1.472 2.492,-1.476 0.117,0 1.184,0.562 2.371,1.254 z m 12.293,0 2.176,1.258 v 0.57 0.57 l -0.961,0.106 c -0.992,0.109 -6.328,0.019 -7.535,-0.125 l -0.68,-0.082 0.039,-0.52 0.039,-0.519 2.176,-1.258 c 1.199,-0.688 2.266,-1.254 2.375,-1.254 0.105,0 1.172,0.562 2.371,1.254 z m 11.742,-0.325 c 0.903,0.508 1.641,0.997 1.645,1.079 0,0.082 -0.156,0.179 -0.348,0.218 -1.965,0.395 -6.664,1.106 -7.316,1.106 -0.399,0 -0.422,-0.024 -0.383,-0.41 0.039,-0.387 0.172,-0.489 2.219,-1.668 1.195,-0.692 2.257,-1.254 2.359,-1.254 0.102,0 0.926,0.418 1.824,0.929 z"
         style="fill:#000000;fill-opacity:1;fill-rule:nonzero;stroke:none"
         id="path82"
         inkscape:connector-curvature="0" /></g></g></svg>