<?xml version="1.0" encoding="UTF-8" standalone="no"?>
<!-- Created with Inkscape (http://www.inkscape.org/) -->

<svg
   xmlns:dc="http://purl.org/dc/elements/1.1/"
   xmlns:cc="http://creativecommons.org/ns#"
   xmlns:rdf="http://www.w3.org/1999/02/22-rdf-syntax-ns#"
   xmlns:svg="http://www.w3.org/2000/svg"
   xmlns="http://www.w3.org/2000/svg"
   xmlns:sodipodi="http://sodipodi.sourceforge.net/DTD/sodipodi-0.dtd"
   xmlns:inkscape="http://www.inkscape.org/namespaces/inkscape"
   version="1.1"
   id="svg2"
   xml:space="preserve"
   width="1122.5197"
   height="793.70074"
   viewBox="0 0 1122.5197 793.70074"
   sodipodi:docname="Baleine.svg"
   inkscape:version="0.92.2 5c3e80d, 2017-08-06"><metadata
     id="metadata8"><rdf:RDF><cc:Work
         rdf:about=""><dc:format>image/svg+xml</dc:format><dc:type
           rdf:resource="http://purl.org/dc/dcmitype/StillImage" /><dc:title></dc:title></cc:Work></rdf:RDF></metadata><defs
     id="defs6" /><sodipodi:namedview
     pagecolor="#ffffff"
     bordercolor="#666666"
     borderopacity="1"
     objecttolerance="10"
     gridtolerance="10"
     guidetolerance="10"
     inkscape:pageopacity="0"
     inkscape:pageshadow="2"
     inkscape:window-width="1120"
     inkscape:window-height="562"
     id="namedview4"
     showgrid="false"
     inkscape:zoom="0.59"
     inkscape:cx="473.81822"
     inkscape:cy="226.39797"
     inkscape:window-x="179"
     inkscape:window-y="0"
     inkscape:window-maximized="0"
     inkscape:current-layer="g12" /><g
     id="g10"
     inkscape:groupmode="layer"
     inkscape:label="Baleine"
     transform="matrix(1.3333333,0,0,-1.3333333,0,793.70077)"><g
       id="g12"><g
         id="g14"
         transform="matrix(1,0,0,-1,0,595.27557)"><path
           d="m 49.645,24.934 h 335.003 c 14.274,0 25.77,11.492 25.77,25.769 v 335.004 c 0,14.277 -11.496,25.77 -25.77,25.77 H 49.645 c -14.278,0 -25.77,-11.493 -25.77,-25.77 V 50.703 c 0,-14.277 11.492,-25.769 25.77,-25.769 z"
           style="fill:#4bb4e6;fill-opacity:1;fill-rule:nonzero;stroke:#000000;stroke-width:10.30780315;stroke-linecap:round;stroke-linejoin:round;stroke-miterlimit:4;stroke-dasharray:none;stroke-opacity:1"
           id="path16"
           inkscape:connector-curvature="0" /></g><text
         transform="scale(1,-1)"
         style="font-variant:normal;font-weight:normal;font-size:40.72727585px;font-family:Arial;-inkscape-font-specification:Arial;writing-mode:lr-tb;fill:#000000;fill-opacity:1;fill-rule:nonzero;stroke:none"
         id="text20"
         x="148.66966"
         y="-210.64557"><tspan
           sodipodi:role="line"
           id="tspan18"
           x="148.66966"
           y="-210.64557">WHALE</tspan></text>
<path
         d="m 193.352,258.725 c -3.813,1.617 -7.809,13.074 -7.981,22.867 l -0.086,5.012 -8.012,0.875 c -27.812,3.043 -50.894,11.73 -67.726,25.488 -5.953,4.863 -13.414,13.039 -17.484,19.148 -7.985,11.993 -12.461,24.438 -13.911,38.692 -0.289,2.82 -0.793,5.383 -1.121,5.687 -0.332,0.305 -1.617,0.938 -2.859,1.41 -9.594,3.649 -19.418,13.625 -23.516,23.887 -1.722,4.309 -3.273,11.852 -2.812,13.688 0.172,0.687 0.988,1.894 1.812,2.683 1.391,1.332 1.824,1.446 6.149,1.606 10.715,0.394 20.863,-3.168 29.32,-10.293 1.746,-1.473 3.328,-2.672 3.512,-2.672 0.187,0.004 1.355,1.25 2.597,2.769 5.793,7.102 14.973,12.602 24.188,14.497 6.246,1.285 8.215,1.109 10.234,-0.911 l 1.707,-1.707 -0.008,-6.949 c -0.007,-8.828 -1.136,-14.629 -4.003,-20.547 -2.438,-5.039 -7.102,-10.109 -11.672,-12.695 -2.043,-1.156 -2.883,-1.934 -2.883,-2.66 0,-1.914 3.504,-11.524 5.883,-16.129 5.75,-11.133 14.695,-19.895 24.246,-23.754 6.949,-2.805 16.441,-3.355 23.812,-1.379 14.992,4.024 32.414,22.047 50.434,52.188 2.543,4.25 4.48,6.683 8.781,11.023 6.383,6.438 12.149,10.488 21.074,14.805 14.493,7.008 28.918,10.312 47.43,10.863 17.156,0.512 30.492,-1.605 44.625,-7.078 21.609,-8.371 36.406,-25.727 46.379,-54.41 4.164,-11.965 5.062,-16.395 5.066,-24.922 0.008,-9.02 -1.027,-13.883 -4.504,-21.223 -7.203,-15.207 -20.644,-25.523 -37.125,-28.484 -3.328,-0.598 -13.261,-0.723 -57.96,-0.731 -29.668,-0.007 -54.188,-0.175 -54.481,-0.379 -0.297,-0.199 -1.512,-2.144 -2.703,-4.316 -5.422,-9.887 -14.168,-18.891 -22.375,-23.035 -4.551,-2.301 -11.891,-3.824 -14.027,-2.914 z m 10.769,13.746 c 3.52,2.055 10.277,8.703 13.07,12.859 1.192,1.782 3.239,5.395 4.547,8.035 1.309,2.641 2.875,5.25 3.481,5.801 1.086,0.981 2.082,1.004 59.64,1.258 l 58.532,0.262 3.679,1.133 c 14.391,4.429 24.907,15.867 27.895,30.347 1.418,6.86 0.98,12.957 -1.531,21.442 -7.063,23.839 -17.832,40.992 -31.047,49.445 -13.485,8.629 -31.078,12.754 -51.684,12.121 -24.449,-0.746 -45.902,-8.215 -59.336,-20.652 -4.34,-4.02 -6.086,-6.344 -11.84,-15.797 -8.222,-13.504 -15.386,-23 -24.41,-32.344 -12.168,-12.602 -21.929,-18.527 -34.004,-20.633 -12.488,-2.176 -24.664,0.438 -35.711,7.668 -4.558,2.985 -12.996,11.793 -16.808,17.543 -5.418,8.184 -9.758,19.188 -11.387,28.883 -0.887,5.281 -0.141,6.93 3.941,8.691 1.586,0.684 3.649,1.629 4.582,2.102 2.704,1.363 6.497,5.355 7.84,8.242 1.547,3.332 2.871,9.18 2.66,11.742 -0.14,1.746 -0.289,1.938 -1.406,1.809 -1.933,-0.215 -8.058,-3.418 -10.676,-5.578 -3.441,-2.844 -6.582,-6.715 -8.664,-10.684 -3.238,-6.16 -6.808,-7.031 -10.523,-2.566 -4.305,5.172 -9.074,9.453 -12.555,11.269 -3.828,2.004 -8.152,3.438 -10.371,3.438 -1.855,0 -1.84,-1 0.078,-4.813 4.164,-8.273 11.028,-13.898 20.453,-16.761 5.969,-1.813 6.567,-2.918 6.563,-12.075 -0.008,-10.035 4.199,-23.726 10.312,-33.597 12.836,-20.711 34.594,-34.403 64.051,-40.301 7.801,-1.563 13.016,-2.231 23.735,-3.047 8.168,-0.617 8.437,-0.676 9.894,-2.07 1.836,-1.758 2.012,-4.52 0.508,-7.844 -0.734,-1.609 -0.996,-3.293 -1.004,-6.379 -0.012,-3.586 0.98,-9.375 1.844,-10.773 0.406,-0.657 2.648,0.066 5.652,1.824 z m 63.961,162.875 c -2.18,1.328 -2.621,2.926 -2.875,10.344 -0.172,5.121 -0.453,7.14 -1.32,9.394 -2.981,7.793 -10.739,14.317 -19.832,16.676 -3.848,1 -12.555,1 -16.782,0.004 -6.64,-1.563 -14.062,-6.738 -17.625,-12.289 -1.894,-2.953 -3.5,-7.813 -3.5,-10.582 0,-4.301 -2.214,-6.977 -5.757,-6.957 -2.141,0.011 -3.782,1 -4.723,2.843 -1.555,3.043 0.078,12.172 3.289,18.375 2.395,4.625 9.473,11.868 14.465,14.797 9.578,5.621 22.742,7.305 34.125,4.368 4.144,-1.067 10.445,-4.165 14.047,-6.903 1.652,-1.258 3.179,-2.179 3.386,-2.051 0.571,0.352 0.458,18.696 -0.132,21.809 -2.567,13.531 -17.793,23.219 -33.243,21.148 -2.32,-0.308 -5.535,-1.027 -7.152,-1.593 -9.687,-3.407 -17.34,-12.117 -18.105,-20.614 -0.426,-4.753 -1.078,-6.461 -2.887,-7.566 -2.504,-1.523 -4.641,-1.266 -6.719,0.813 l -1.781,1.781 0.293,4.617 c 0.164,2.605 0.762,6.043 1.367,7.883 3.809,11.535 14.574,21.07 27.844,24.652 5.723,1.543 16.844,1.551 22.519,0.012 5.02,-1.36 10.371,-3.93 14.239,-6.836 1.66,-1.25 3.273,-2.274 3.578,-2.274 0.387,0 0.558,2.215 0.558,7.075 v 7.078 l 1.707,1.707 c 2.801,2.801 6.77,2.195 8.586,-1.313 0.551,-1.07 0.75,-3.168 0.75,-7.996 0,-3.75 0.2,-6.551 0.469,-6.551 0.262,0 2.129,1.188 4.152,2.641 4.336,3.113 8.375,5.008 13.778,6.477 5.66,1.531 16.793,1.523 22.496,-0.024 16.973,-4.597 29.301,-19.035 29.348,-34.359 0.007,-2.676 -0.141,-3.086 -1.696,-4.641 -3.73,-3.73 -9.336,-0.914 -9.336,4.688 0,5.523 -2.922,11.547 -7.847,16.168 -6.258,5.871 -12.578,8.277 -21.758,8.277 -9.18,0 -15.504,-2.406 -21.758,-8.277 -3.676,-3.45 -6.02,-7.176 -7.074,-11.254 -0.942,-3.637 -1.145,-23.352 -0.238,-23.352 0.296,0 1.933,0.988 3.636,2.199 6.469,4.586 12.922,7.008 20.793,7.805 13.895,1.41 26.965,-3.355 36.028,-13.133 5.621,-6.066 8.597,-12.785 9.113,-20.558 l 0.293,-4.371 -1.781,-1.778 c -2.34,-2.34 -5.09,-2.484 -7.434,-0.39 -1.363,1.218 -1.609,1.855 -1.992,5.144 -0.817,6.949 -2.707,10.887 -7.512,15.613 -5.891,5.801 -12.84,8.465 -22.074,8.465 -3.094,0 -6.559,-0.316 -8.301,-0.761 -8.461,-2.149 -15.723,-7.872 -19.152,-15.094 -1.856,-3.899 -1.891,-4.086 -2.078,-10.992 -0.215,-7.95 -0.696,-9.465 -3.356,-10.578 -2.254,-0.942 -3.187,-0.899 -5.039,0.234 z"
         style="fill:#000000;fill-opacity:1;fill-rule:nonzero;stroke:none"
         id="path22"
         inkscape:connector-curvature="0" /><g
         id="g24"
         transform="matrix(1,0,0,-1,0,595.27557)"><path
           d="M 457.746,24.934 H 792.75 c 14.277,0 25.77,11.492 25.77,25.769 v 335.004 c 0,14.277 -11.493,25.77 -25.77,25.77 H 457.746 c -14.277,0 -25.769,-11.493 -25.769,-25.77 V 50.703 c 0,-14.277 11.492,-25.769 25.769,-25.769 z"
           style="fill:#4bb4e6;fill-opacity:1;fill-rule:nonzero;stroke:#000000;stroke-width:10.30780315;stroke-linecap:round;stroke-linejoin:round;stroke-miterlimit:4;stroke-dasharray:none;stroke-opacity:1"
           id="path26"
           inkscape:connector-curvature="0" /></g><text
         transform="scale(1,-1)"
         style="font-variant:normal;font-weight:normal;font-size:40.72727585px;font-family:Arial;-inkscape-font-specification:Arial;writing-mode:lr-tb;fill:#000000;fill-opacity:1;fill-rule:nonzero;stroke:none"
         id="text30"
         x="556.77203"
         y="-210.64557"><tspan
           sodipodi:role="line"
           id="tspan28"
           x="556.77203"
           y="-210.64557">WHALE</tspan></text>
<path
         d="m 601.453,258.725 c -3.812,1.617 -7.808,13.074 -7.98,22.867 l -0.086,5.012 -8.008,0.875 c -27.816,3.043 -50.899,11.73 -67.727,25.488 -5.953,4.863 -13.418,13.039 -17.488,19.148 -7.984,11.993 -12.461,24.438 -13.91,38.692 -0.285,2.82 -0.793,5.383 -1.121,5.687 -0.332,0.305 -1.617,0.938 -2.86,1.41 -9.593,3.649 -19.418,13.625 -23.515,23.887 -1.723,4.309 -3.27,11.852 -2.809,13.688 0.172,0.687 0.985,1.894 1.809,2.683 1.39,1.332 1.824,1.446 6.148,1.606 10.719,0.394 20.867,-3.168 29.321,-10.293 1.75,-1.473 3.328,-2.672 3.515,-2.672 0.184,0.004 1.352,1.25 2.594,2.769 5.793,7.102 14.973,12.602 24.191,14.497 6.243,1.285 8.211,1.109 10.231,-0.911 l 1.707,-1.707 -0.008,-6.949 c -0.008,-8.828 -1.137,-14.629 -4,-20.547 -2.441,-5.039 -7.105,-10.109 -11.676,-12.695 -2.043,-1.156 -2.883,-1.934 -2.883,-2.66 0,-1.914 3.504,-11.524 5.887,-16.129 5.746,-11.133 14.692,-19.895 24.242,-23.754 6.95,-2.805 16.442,-3.355 23.817,-1.379 14.992,4.024 32.41,22.047 50.429,52.188 2.543,4.25 4.481,6.683 8.782,11.023 6.383,6.438 12.148,10.488 21.074,14.805 14.492,7.008 28.922,10.312 47.43,10.863 17.156,0.512 30.492,-1.605 44.625,-7.078 21.613,-8.371 36.406,-25.727 46.382,-54.41 4.161,-11.965 5.059,-16.395 5.063,-24.922 0.008,-9.02 -1.027,-13.883 -4.5,-21.223 C 782.922,303.377 769.48,293.061 753,290.1 c -3.328,-0.598 -13.262,-0.723 -57.961,-0.731 -29.668,-0.007 -54.184,-0.175 -54.48,-0.379 -0.297,-0.199 -1.512,-2.144 -2.704,-4.316 -5.421,-9.887 -14.167,-18.891 -22.375,-23.035 -4.55,-2.301 -11.89,-3.824 -14.027,-2.914 z m 10.77,13.746 c 3.519,2.055 10.277,8.703 13.07,12.859 1.195,1.782 3.242,5.395 4.547,8.035 1.308,2.641 2.875,5.25 3.484,5.801 1.086,0.981 2.078,1.004 59.637,1.258 l 58.535,0.262 3.676,1.133 c 14.391,4.429 24.906,15.867 27.898,30.347 1.414,6.86 0.981,12.957 -1.535,21.442 -7.062,23.839 -17.832,40.992 -31.043,49.445 -13.484,8.629 -31.082,12.754 -51.687,12.121 -24.446,-0.746 -45.903,-8.215 -59.336,-20.652 -4.34,-4.02 -6.082,-6.344 -11.84,-15.797 -8.219,-13.504 -15.387,-23 -24.406,-32.344 -12.172,-12.602 -21.934,-18.527 -34.008,-20.633 -12.488,-2.176 -24.664,0.438 -35.711,7.668 -4.559,2.985 -12.996,11.793 -16.805,17.543 -5.422,8.184 -9.758,19.188 -11.39,28.883 -0.887,5.281 -0.141,6.93 3.945,8.691 1.582,0.684 3.644,1.629 4.578,2.102 2.703,1.363 6.5,5.355 7.84,8.242 1.547,3.332 2.871,9.18 2.664,11.742 -0.145,1.746 -0.293,1.938 -1.41,1.809 -1.934,-0.215 -8.059,-3.418 -10.672,-5.578 -3.441,-2.844 -6.586,-6.715 -8.668,-10.684 -3.238,-6.16 -6.809,-7.031 -10.523,-2.566 -4.305,5.172 -9.071,9.453 -12.551,11.269 -3.832,2.004 -8.157,3.438 -10.371,3.438 -1.86,0 -1.844,-1 0.078,-4.813 4.16,-8.273 11.023,-13.898 20.449,-16.761 5.969,-1.813 6.57,-2.918 6.562,-12.075 -0.003,-10.035 4.2,-23.726 10.317,-33.597 12.832,-20.711 34.59,-34.403 64.047,-40.301 7.804,-1.563 13.019,-2.231 23.734,-3.047 8.168,-0.617 8.438,-0.676 9.895,-2.07 1.836,-1.758 2.015,-4.52 0.507,-7.844 -0.73,-1.609 -0.996,-3.293 -1.003,-6.379 -0.012,-3.586 0.98,-9.375 1.843,-10.773 0.407,-0.657 2.649,0.066 5.653,1.824 z m 63.961,162.875 c -2.18,1.328 -2.621,2.926 -2.871,10.344 -0.176,5.121 -0.458,7.14 -1.321,9.394 -2.984,7.793 -10.742,14.317 -19.836,16.676 -3.847,1 -12.551,1 -16.777,0.004 -6.645,-1.563 -14.066,-6.738 -17.625,-12.289 -1.895,-2.953 -3.504,-7.813 -3.504,-10.582 0,-4.301 -2.215,-6.977 -5.758,-6.957 -2.14,0.011 -3.781,1 -4.722,2.843 -1.555,3.043 0.078,12.172 3.289,18.375 2.394,4.625 9.472,11.868 14.468,14.797 9.575,5.621 22.739,7.305 34.121,4.368 4.145,-1.067 10.446,-4.165 14.047,-6.903 1.657,-1.258 3.18,-2.179 3.387,-2.051 0.57,0.352 0.457,18.696 -0.133,21.809 -2.566,13.531 -17.789,23.219 -33.242,21.148 -2.32,-0.308 -5.535,-1.027 -7.148,-1.593 -9.692,-3.407 -17.344,-12.117 -18.106,-20.614 -0.43,-4.753 -1.082,-6.461 -2.89,-7.566 -2.504,-1.523 -4.637,-1.266 -6.719,0.813 l -1.778,1.781 0.289,4.617 c 0.165,2.605 0.762,6.043 1.368,7.883 3.808,11.535 14.574,21.07 27.843,24.652 5.723,1.543 16.844,1.551 22.52,0.012 5.019,-1.36 10.371,-3.93 14.238,-6.836 1.66,-1.25 3.274,-2.274 3.582,-2.274 0.383,0 0.559,2.215 0.559,7.075 v 7.078 l 1.703,1.707 c 2.805,2.801 6.77,2.195 8.586,-1.313 0.551,-1.07 0.75,-3.168 0.75,-7.996 0,-3.75 0.199,-6.551 0.469,-6.551 0.261,0 2.129,1.188 4.152,2.641 4.336,3.113 8.375,5.008 13.781,6.477 5.657,1.531 16.789,1.523 22.492,-0.024 16.973,-4.597 29.305,-19.035 29.348,-34.359 0.008,-2.676 -0.141,-3.086 -1.695,-4.641 -3.727,-3.73 -9.336,-0.914 -9.336,4.688 0,5.523 -2.922,11.547 -7.848,16.168 -6.254,5.871 -12.578,8.277 -21.758,8.277 -9.179,0 -15.5,-2.406 -21.757,-8.277 -3.676,-3.45 -6.02,-7.176 -7.075,-11.254 -0.941,-3.637 -1.14,-23.352 -0.238,-23.352 0.297,0 1.934,0.988 3.641,2.199 6.465,4.586 12.918,7.008 20.789,7.805 13.894,1.41 26.965,-3.355 36.027,-13.133 5.621,-6.066 8.602,-12.785 9.117,-20.558 l 0.289,-4.371 -1.781,-1.778 c -2.336,-2.34 -5.09,-2.484 -7.433,-0.39 -1.364,1.218 -1.61,1.855 -1.993,5.144 -0.812,6.949 -2.707,10.887 -7.511,15.613 -5.891,5.801 -12.84,8.465 -22.075,8.465 -3.093,0 -6.558,-0.316 -8.3,-0.761 -8.457,-2.149 -15.719,-7.872 -19.153,-15.094 -1.855,-3.899 -1.89,-4.086 -2.078,-10.992 -0.215,-7.95 -0.695,-9.465 -3.355,-10.578 -2.25,-0.942 -3.184,-0.899 -5.039,0.234 z"
         style="fill:#000000;fill-opacity:1;fill-rule:nonzero;stroke:none"
         id="path32"
         inkscape:connector-curvature="0" /><g
         id="g34"
         transform="matrix(1,0,0,-1,0,595.27557)"><path
           d="m 31.09,430.461 h 134 c 5.711,0 10.308,4.594 10.308,10.305 V 574.77 c 0,5.71 -4.597,10.304 -10.308,10.304 h -134 c -5.711,0 -10.309,-4.594 -10.309,-10.304 V 440.766 c 0,-5.711 4.598,-10.305 10.309,-10.305 z"
           style="fill:#4bb4e6;fill-opacity:1;fill-rule:nonzero;stroke:#000000;stroke-width:4.12312078;stroke-linecap:round;stroke-linejoin:round;stroke-miterlimit:4;stroke-dasharray:none;stroke-opacity:1"
           id="path36"
           inkscape:connector-curvature="0" /></g><text
         transform="scale(1,-1)"
         style="font-variant:normal;font-weight:normal;font-size:16.29091072px;font-family:Arial;-inkscape-font-specification:Arial;writing-mode:lr-tb;fill:#000000;fill-opacity:1;fill-rule:nonzero;stroke:none"
         id="text40"
         x="68.000038"
         y="-20.938046"><tspan
           sodipodi:role="line"
           id="tspan38"
           x="68.000038"
           y="-20.938046">WHALE</tspan></text>
<path
         d="m 88.574,40.17 c -1.527,0.645 -3.125,5.231 -3.191,9.145 l -0.035,2.007 -3.207,0.348 c -11.125,1.219 -20.36,4.692 -27.09,10.195 -2.379,1.946 -5.367,5.219 -6.992,7.661 -3.196,4.796 -4.985,9.777 -5.567,15.476 -0.113,1.129 -0.316,2.152 -0.449,2.274 -0.133,0.125 -0.645,0.378 -1.141,0.566 -3.839,1.457 -7.769,5.449 -9.41,9.555 -0.687,1.722 -1.304,4.742 -1.121,5.476 0.067,0.274 0.395,0.754 0.723,1.071 0.558,0.535 0.73,0.578 2.461,0.644 4.285,0.156 8.343,-1.269 11.726,-4.117 0.699,-0.59 1.332,-1.07 1.407,-1.07 0.074,0 0.539,0.5 1.039,1.109 2.316,2.84 5.988,5.039 9.675,5.797 2.496,0.515 3.286,0.445 4.094,-0.363 l 0.68,-0.684 v -2.777 c -0.004,-3.532 -0.457,-5.856 -1.602,-8.223 -0.976,-2.012 -2.84,-4.043 -4.668,-5.074 -0.82,-0.465 -1.156,-0.774 -1.156,-1.067 0,-0.765 1.402,-4.609 2.355,-6.453 2.301,-4.449 5.875,-7.957 9.696,-9.5 2.781,-1.121 6.578,-1.344 9.527,-0.551 5.996,1.61 12.965,8.817 20.172,20.875 1.016,1.7 1.793,2.672 3.512,4.411 2.554,2.574 4.859,4.195 8.429,5.921 5.797,2.801 11.571,4.125 18.973,4.344 6.863,0.203 12.195,-0.64 17.852,-2.832 8.644,-3.347 14.562,-10.289 18.55,-21.762 1.664,-4.785 2.024,-6.558 2.028,-9.968 0.004,-3.61 -0.41,-5.555 -1.801,-8.489 -2.883,-6.086 -8.258,-10.211 -14.852,-11.394 -1.332,-0.242 -5.304,-0.289 -23.183,-0.293 -11.867,-0.004 -21.676,-0.07 -21.793,-0.152 -0.117,-0.079 -0.606,-0.856 -1.082,-1.727 -2.168,-3.953 -5.664,-7.555 -8.949,-9.215 C 92.363,40.416 89.43,39.807 88.57,40.17 Z m 4.309,5.496 c 1.406,0.824 4.109,3.485 5.226,5.145 0.477,0.715 1.297,2.16 1.821,3.215 0.519,1.054 1.148,2.101 1.39,2.32 0.434,0.394 0.832,0.402 23.856,0.504 l 23.414,0.105 1.469,0.453 c 5.757,1.77 9.964,6.348 11.16,12.137 0.566,2.746 0.39,5.184 -0.614,8.578 -2.824,9.535 -7.132,16.399 -12.417,19.778 -5.395,3.453 -12.434,5.101 -20.676,4.847 -9.778,-0.297 -18.36,-3.285 -23.735,-8.261 -1.734,-1.606 -2.433,-2.536 -4.734,-6.317 -3.289,-5.402 -6.156,-9.199 -9.762,-12.937 -4.871,-5.043 -8.773,-7.411 -13.605,-8.254 -4.992,-0.871 -9.863,0.175 -14.281,3.066 -1.825,1.195 -5.2,4.719 -6.723,7.02 -2.168,3.273 -3.906,7.672 -4.555,11.55 -0.355,2.114 -0.058,2.774 1.574,3.477 0.633,0.273 1.457,0.652 1.832,0.844 1.082,0.543 2.602,2.14 3.137,3.297 0.617,1.332 1.149,3.668 1.067,4.695 -0.059,0.699 -0.118,0.773 -0.567,0.723 -0.773,-0.086 -3.222,-1.368 -4.269,-2.231 -1.375,-1.137 -2.633,-2.687 -3.465,-4.273 -1.297,-2.465 -2.723,-2.813 -4.211,-1.028 -1.719,2.071 -3.629,3.782 -5.02,4.508 -1.531,0.801 -3.261,1.375 -4.148,1.375 -0.742,0 -0.738,-0.398 0.031,-1.926 1.664,-3.308 4.41,-5.558 8.18,-6.703 2.387,-0.726 2.629,-1.168 2.625,-4.832 0,-4.012 1.68,-9.488 4.125,-13.437 5.133,-8.285 13.84,-13.762 25.621,-16.121 3.121,-0.625 5.207,-0.891 9.492,-1.219 3.27,-0.246 3.375,-0.27 3.961,-0.828 0.734,-0.703 0.805,-1.809 0.199,-3.137 -0.289,-0.645 -0.394,-1.316 -0.398,-2.551 -0.004,-1.433 0.39,-3.75 0.738,-4.308 0.16,-0.262 1.059,0.027 2.262,0.726 z m 25.582,65.153 c -0.871,0.531 -1.051,1.168 -1.149,4.136 -0.07,2.051 -0.183,2.856 -0.527,3.758 -1.195,3.117 -4.297,5.727 -7.934,6.672 -1.539,0.398 -5.023,0.398 -6.714,0 -2.657,-0.625 -5.625,-2.695 -7.047,-4.914 -0.758,-1.184 -1.403,-3.125 -1.403,-4.234 0,-1.719 -0.886,-2.79 -2.304,-2.782 -0.856,0.004 -1.512,0.399 -1.887,1.137 -0.621,1.215 0.031,4.867 1.316,7.348 0.957,1.851 3.789,4.75 5.786,5.922 3.832,2.246 9.097,2.921 13.648,1.746 1.66,-0.426 4.18,-1.664 5.621,-2.762 0.66,-0.504 1.27,-0.871 1.352,-0.82 0.23,0.14 0.183,7.48 -0.051,8.722 -1.027,5.414 -7.117,9.289 -13.297,8.461 -0.93,-0.125 -2.215,-0.41 -2.859,-0.637 -3.879,-1.363 -6.938,-4.847 -7.243,-8.246 -0.171,-1.902 -0.433,-2.586 -1.156,-3.027 -1.004,-0.609 -1.855,-0.508 -2.687,0.324 l -0.711,0.715 0.113,1.848 c 0.066,1.039 0.305,2.414 0.551,3.152 1.519,4.613 5.828,8.426 11.133,9.859 2.289,0.618 6.738,0.622 9.011,0.004 2.008,-0.543 4.149,-1.57 5.692,-2.734 0.668,-0.5 1.312,-0.906 1.433,-0.906 0.153,0 0.223,0.883 0.223,2.828 v 2.832 l 0.684,0.68 c 1.121,1.121 2.707,0.878 3.433,-0.524 0.223,-0.426 0.301,-1.265 0.301,-3.199 0,-1.5 0.078,-2.617 0.187,-2.617 0.106,0 0.852,0.472 1.661,1.054 1.734,1.247 3.351,2.004 5.511,2.59 2.266,0.614 6.715,0.61 9,-0.008 6.789,-1.839 11.719,-7.613 11.739,-13.746 0.004,-1.07 -0.059,-1.234 -0.68,-1.855 -1.492,-1.492 -3.734,-0.363 -3.734,1.875 0,2.211 -1.168,4.617 -3.137,6.469 -2.504,2.347 -5.031,3.308 -8.703,3.308 -3.672,0 -6.203,-0.961 -8.703,-3.308 -1.473,-1.383 -2.411,-2.871 -2.832,-4.504 -0.375,-1.453 -0.457,-9.34 -0.094,-9.34 0.117,0 0.773,0.394 1.453,0.879 2.59,1.836 5.168,2.804 8.316,3.125 5.559,0.562 10.789,-1.344 14.414,-5.254 2.247,-2.43 3.438,-5.113 3.645,-8.227 l 0.117,-1.746 -0.711,-0.711 c -0.937,-0.937 -2.039,-0.992 -2.976,-0.156 -0.543,0.488 -0.645,0.742 -0.797,2.059 -0.324,2.777 -1.082,4.351 -3.004,6.246 -2.356,2.316 -5.137,3.383 -8.828,3.383 -1.239,0 -2.625,-0.125 -3.321,-0.305 -3.386,-0.86 -6.289,-3.149 -7.664,-6.035 -0.742,-1.563 -0.754,-1.637 -0.828,-4.399 -0.086,-3.179 -0.281,-3.785 -1.344,-4.23 -0.902,-0.375 -1.273,-0.36 -2.015,0.094 z"
         style="fill:#000000;fill-opacity:1;fill-rule:nonzero;stroke:none"
         id="path42"
         inkscape:connector-curvature="0" /><g
         id="g44"
         transform="matrix(1,0,0,-1,0,595.27557)"><path
           d="m 435.656,429.871 h 95.719 c 4.078,0 7.359,3.281 7.359,7.363 v 95.715 c 0,4.078 -3.281,7.364 -7.359,7.364 h -95.719 c -4.078,0 -7.359,-3.286 -7.359,-7.364 v -95.715 c 0,-4.082 3.281,-7.363 7.359,-7.363 z"
           style="fill:#4bb4e6;fill-opacity:1;fill-rule:nonzero;stroke:#000000;stroke-width:2.94508696;stroke-linecap:round;stroke-linejoin:round;stroke-miterlimit:4;stroke-dasharray:none;stroke-opacity:1"
           id="path46"
           inkscape:connector-curvature="0" /></g><text
         transform="scale(1,-1)"
         style="font-variant:normal;font-weight:normal;font-size:11.63636398px;font-family:Arial;-inkscape-font-specification:Arial;writing-mode:lr-tb;fill:#000000;fill-opacity:1;fill-rule:nonzero;stroke:none"
         id="text50"
         x="464.8082"
         y="-62.635223"><tspan
           sodipodi:role="line"
           id="tspan48"
           x="464.8082"
           y="-62.635223">WHALE</tspan></text>
<path
         d="m 476.719,76.373 c -1.09,0.461 -2.235,3.735 -2.281,6.531 l -0.024,1.434 -2.289,0.25 c -7.949,0.867 -14.543,3.352 -19.352,7.281 -1.699,1.391 -3.832,3.727 -4.996,5.473 -2.281,3.426 -3.558,6.98 -3.972,11.055 -0.082,0.804 -0.227,1.535 -0.321,1.625 -0.097,0.086 -0.464,0.265 -0.82,0.402 -2.738,1.043 -5.547,3.891 -6.719,6.824 -0.492,1.231 -0.933,3.387 -0.8,3.91 0.046,0.196 0.281,0.543 0.515,0.766 0.399,0.383 0.524,0.414 1.758,0.461 3.062,0.113 5.961,-0.906 8.379,-2.941 0.496,-0.422 0.949,-0.766 1.004,-0.762 0.051,0 0.387,0.355 0.738,0.789 1.656,2.031 4.281,3.601 6.914,4.144 1.785,0.364 2.348,0.317 2.922,-0.261 l 0.488,-0.489 v -1.984 c -0.004,-2.523 -0.328,-4.18 -1.144,-5.871 -0.699,-1.441 -2.031,-2.891 -3.336,-3.629 -0.582,-0.328 -0.824,-0.551 -0.824,-0.758 0,-0.547 1,-3.293 1.679,-4.609 1.645,-3.18 4.2,-5.684 6.93,-6.785 1.984,-0.805 4.695,-0.961 6.805,-0.395 4.281,1.149 9.257,6.297 14.406,14.91 0.726,1.215 1.281,1.91 2.512,3.149 1.824,1.84 3.468,2.996 6.019,4.23 4.141,2.004 8.262,2.946 13.551,3.106 4.902,0.144 8.711,-0.461 12.75,-2.024 6.176,-2.394 10.402,-7.351 13.254,-15.547 1.187,-3.418 1.445,-4.683 1.445,-7.121 0.004,-2.578 -0.293,-3.965 -1.285,-6.062 -2.059,-4.344 -5.898,-7.293 -10.609,-8.137 -0.95,-0.172 -3.789,-0.207 -16.559,-0.211 -8.477,0 -15.484,-0.051 -15.566,-0.105 -0.086,-0.059 -0.434,-0.614 -0.774,-1.235 -1.547,-2.828 -4.047,-5.398 -6.39,-6.582 -1.301,-0.656 -3.399,-1.093 -4.008,-0.832 z m 3.074,3.926 c 1.008,0.586 2.937,2.488 3.734,3.676 0.344,0.508 0.926,1.539 1.301,2.293 0.375,0.758 0.82,1.5 0.996,1.66 0.309,0.281 0.594,0.285 17.039,0.359 l 16.723,0.075 1.051,0.324 c 4.113,1.265 7.117,4.531 7.968,8.668 0.407,1.961 0.282,3.703 -0.437,6.129 -2.016,6.808 -5.094,11.711 -8.867,14.125 -3.856,2.464 -8.883,3.644 -14.77,3.464 -6.984,-0.214 -13.113,-2.347 -16.953,-5.902 -1.238,-1.148 -1.738,-1.812 -3.383,-4.512 -2.347,-3.859 -4.394,-6.57 -6.972,-9.242 -3.477,-3.601 -6.266,-5.293 -9.715,-5.894 -3.57,-0.621 -7.047,0.125 -10.203,2.191 -1.305,0.852 -3.715,3.367 -4.805,5.012 -1.547,2.34 -2.785,5.48 -3.254,8.254 -0.25,1.508 -0.039,1.976 1.129,2.48 0.453,0.195 1.039,0.469 1.309,0.602 0.769,0.39 1.855,1.531 2.238,2.355 0.441,0.953 0.82,2.621 0.762,3.356 -0.043,0.496 -0.082,0.55 -0.403,0.515 -0.554,-0.062 -2.304,-0.976 -3.051,-1.593 -0.984,-0.813 -1.878,-1.918 -2.476,-3.051 -0.926,-1.762 -1.945,-2.012 -3.004,-0.735 -1.23,1.477 -2.594,2.7 -3.59,3.219 -1.094,0.574 -2.328,0.981 -2.961,0.981 -0.531,0 -0.527,-0.286 0.024,-1.375 1.187,-2.364 3.148,-3.969 5.84,-4.786 1.707,-0.519 1.878,-0.835 1.878,-3.453 -0.003,-2.867 1.2,-6.777 2.946,-9.597 3.668,-5.918 9.883,-9.828 18.301,-11.516 2.226,-0.445 3.718,-0.637 6.781,-0.867 2.332,-0.18 2.41,-0.195 2.824,-0.594 0.527,-0.504 0.578,-1.293 0.145,-2.242 -0.208,-0.457 -0.282,-0.938 -0.286,-1.82 -0.004,-1.028 0.282,-2.68 0.528,-3.079 0.117,-0.187 0.758,0.02 1.613,0.52 z m 18.277,46.535 c -0.625,0.379 -0.75,0.836 -0.824,2.957 -0.047,1.465 -0.129,2.039 -0.375,2.684 -0.851,2.226 -3.07,4.09 -5.668,4.765 -1.098,0.286 -3.586,0.286 -4.793,0 -1.898,-0.445 -4.019,-1.925 -5.035,-3.511 -0.543,-0.844 -1,-2.231 -1,-3.024 0,-1.226 -0.633,-1.992 -1.648,-1.988 -0.61,0.004 -1.079,0.285 -1.348,0.812 -0.445,0.872 0.023,3.481 0.941,5.25 0.684,1.325 2.703,3.391 4.133,4.231 2.735,1.605 6.496,2.086 9.75,1.246 1.184,-0.305 2.985,-1.191 4.012,-1.973 0.473,-0.359 0.91,-0.621 0.969,-0.586 0.16,0.102 0.129,5.344 -0.039,6.231 -0.735,3.867 -5.082,6.633 -9.497,6.043 -0.664,-0.086 -1.582,-0.293 -2.043,-0.453 -2.769,-0.977 -4.957,-3.465 -5.175,-5.891 -0.121,-1.359 -0.309,-1.848 -0.825,-2.16 -0.714,-0.438 -1.324,-0.363 -1.917,0.23 l -0.512,0.508 0.086,1.321 c 0.047,0.742 0.215,1.726 0.39,2.25 1.086,3.296 4.164,6.023 7.953,7.046 1.637,0.442 4.813,0.442 6.434,0 1.438,-0.386 2.965,-1.121 4.07,-1.953 0.473,-0.355 0.934,-0.648 1.024,-0.648 0.109,0 0.16,0.633 0.16,2.023 v 2.02 l 0.484,0.488 c 0.801,0.801 1.938,0.629 2.453,-0.375 0.161,-0.305 0.215,-0.906 0.215,-2.285 0,-1.07 0.059,-1.871 0.137,-1.871 0.07,0 0.606,0.34 1.184,0.754 1.238,0.89 2.394,1.433 3.937,1.851 1.617,0.438 4.797,0.434 6.426,-0.007 4.851,-1.313 8.375,-5.438 8.387,-9.817 0.004,-0.762 -0.039,-0.883 -0.485,-1.324 -1.066,-1.066 -2.668,-0.262 -2.668,1.336 0,1.582 -0.836,3.301 -2.242,4.621 -1.789,1.68 -3.594,2.363 -6.215,2.363 -2.625,0 -4.429,-0.683 -6.218,-2.363 -1.051,-0.984 -1.719,-2.051 -2.02,-3.215 -0.27,-1.039 -0.328,-6.672 -0.07,-6.672 0.086,0 0.554,0.281 1.039,0.629 1.847,1.309 3.691,2 5.941,2.231 3.969,0.402 7.707,-0.961 10.293,-3.754 1.606,-1.735 2.457,-3.653 2.606,-5.875 l 0.082,-1.246 -0.508,-0.508 c -0.668,-0.668 -1.453,-0.711 -2.125,-0.113 -0.387,0.347 -0.457,0.531 -0.571,1.468 -0.23,1.989 -0.773,3.114 -2.144,4.461 -1.684,1.66 -3.668,2.422 -6.305,2.422 -0.886,0 -1.875,-0.094 -2.371,-0.219 -2.418,-0.613 -4.492,-2.25 -5.472,-4.312 -0.532,-1.113 -0.543,-1.168 -0.594,-3.141 -0.063,-2.273 -0.199,-2.707 -0.961,-3.023 -0.645,-0.27 -0.91,-0.254 -1.438,0.066 z"
         style="fill:#000000;fill-opacity:1;fill-rule:nonzero;stroke:none"
         id="path52"
         inkscape:connector-curvature="0" /><g
         id="g54"
         transform="matrix(1,0,0,-1,0,595.27557)"><path
           d="m 203.852,430.461 h 134 c 5.711,0 10.308,4.594 10.308,10.305 V 574.77 c 0,5.71 -4.597,10.304 -10.308,10.304 h -134 c -5.711,0 -10.309,-4.594 -10.309,-10.304 V 440.766 c 0,-5.711 4.598,-10.305 10.309,-10.305 z"
           style="fill:#4bb4e6;fill-opacity:1;fill-rule:nonzero;stroke:#000000;stroke-width:4.12312078;stroke-linecap:round;stroke-linejoin:round;stroke-miterlimit:4;stroke-dasharray:none;stroke-opacity:1"
           id="path56"
           inkscape:connector-curvature="0" /></g><text
         transform="scale(1,-1)"
         style="font-variant:normal;font-weight:normal;font-size:16.29091072px;font-family:Arial;-inkscape-font-specification:Arial;writing-mode:lr-tb;fill:#000000;fill-opacity:1;fill-rule:nonzero;stroke:none"
         id="text60"
         x="240.7616"
         y="-20.938046"><tspan
           sodipodi:role="line"
           id="tspan58"
           x="240.7616"
           y="-20.938046">WHALE</tspan></text>
<path
         d="m 261.336,40.17 c -1.527,0.645 -3.125,5.231 -3.195,9.145 l -0.032,2.007 -3.207,0.348 c -11.125,1.219 -20.359,4.692 -27.089,10.195 -2.379,1.946 -5.368,5.219 -6.993,7.661 -3.195,4.796 -4.984,9.777 -5.566,15.476 -0.113,1.129 -0.316,2.152 -0.449,2.274 -0.133,0.125 -0.645,0.378 -1.141,0.566 -3.84,1.457 -7.769,5.449 -9.41,9.555 -0.688,1.722 -1.305,4.742 -1.121,5.476 0.066,0.274 0.394,0.754 0.722,1.071 0.559,0.535 0.731,0.578 2.461,0.644 4.286,0.156 8.344,-1.269 11.727,-4.117 0.699,-0.59 1.332,-1.07 1.406,-1.07 0.074,0 0.539,0.5 1.039,1.109 2.317,2.84 5.989,5.039 9.676,5.797 2.496,0.515 3.285,0.445 4.094,-0.363 l 0.68,-0.684 v -2.777 c -0.004,-3.532 -0.458,-5.856 -1.602,-8.223 -0.977,-2.012 -2.844,-4.043 -4.672,-5.074 -0.816,-0.465 -1.152,-0.774 -1.152,-1.067 0,-0.765 1.402,-4.609 2.355,-6.453 2.297,-4.449 5.875,-7.957 9.696,-9.5 2.781,-1.121 6.578,-1.344 9.527,-0.551 5.996,1.61 12.965,8.817 20.172,20.875 1.015,1.7 1.793,2.672 3.511,4.411 2.555,2.574 4.86,4.195 8.43,5.921 5.797,2.801 11.57,4.125 18.973,4.344 6.863,0.203 12.195,-0.64 17.851,-2.832 8.645,-3.347 14.563,-10.289 18.551,-21.762 1.664,-4.785 2.024,-6.558 2.027,-9.968 0.004,-3.61 -0.41,-5.555 -1.8,-8.489 -2.883,-6.086 -8.258,-10.211 -14.852,-11.394 -1.332,-0.242 -5.305,-0.289 -23.183,-0.293 -11.868,-0.004 -21.676,-0.07 -21.793,-0.152 -0.118,-0.079 -0.606,-0.856 -1.082,-1.727 -2.168,-3.953 -5.668,-7.555 -8.95,-9.215 -1.82,-0.918 -4.757,-1.527 -5.613,-1.164 z m 4.305,5.496 c 1.41,0.824 4.113,3.485 5.23,5.145 0.477,0.715 1.297,2.16 1.817,3.215 0.523,1.054 1.152,2.101 1.394,2.32 0.434,0.394 0.832,0.402 23.856,0.504 l 23.414,0.105 1.468,0.453 c 5.758,1.77 9.965,6.348 11.16,12.137 0.567,2.746 0.391,5.184 -0.613,8.578 -2.824,9.535 -7.133,16.399 -12.418,19.778 -5.394,3.453 -12.433,5.101 -20.676,4.847 -9.777,-0.297 -18.359,-3.285 -23.734,-8.261 -1.734,-1.606 -2.434,-2.536 -4.734,-6.317 -3.289,-5.402 -6.157,-9.199 -9.762,-12.937 -4.871,-5.043 -8.773,-7.411 -13.605,-8.254 -4.993,-0.871 -9.864,0.175 -14.286,3.066 -1.82,1.195 -5.195,4.719 -6.718,7.02 -2.168,3.273 -3.907,7.672 -4.559,11.55 -0.352,2.114 -0.055,2.774 1.578,3.477 0.633,0.273 1.457,0.652 1.832,0.844 1.082,0.543 2.602,2.14 3.137,3.297 0.617,1.332 1.148,3.668 1.066,4.695 -0.058,0.699 -0.117,0.773 -0.566,0.723 -0.774,-0.086 -3.223,-1.368 -4.27,-2.231 -1.375,-1.137 -2.632,-2.687 -3.464,-4.273 -1.297,-2.465 -2.723,-2.813 -4.211,-1.028 -1.719,2.071 -3.629,3.782 -5.02,4.508 -1.531,0.801 -3.262,1.375 -4.148,1.375 -0.743,0 -0.739,-0.398 0.031,-1.926 1.664,-3.308 4.41,-5.558 8.18,-6.703 2.386,-0.726 2.628,-1.168 2.625,-4.832 0,-4.012 1.679,-9.488 4.125,-13.437 5.132,-8.285 13.839,-13.762 25.621,-16.121 3.121,-0.625 5.207,-0.891 9.492,-1.219 3.269,-0.246 3.375,-0.27 3.961,-0.828 0.734,-0.703 0.804,-1.809 0.199,-3.137 -0.289,-0.645 -0.398,-1.316 -0.398,-2.551 -0.004,-1.433 0.39,-3.75 0.738,-4.308 0.16,-0.262 1.058,0.027 2.258,0.726 z m 25.586,65.153 c -0.872,0.531 -1.051,1.168 -1.149,4.136 -0.07,2.051 -0.183,2.856 -0.527,3.758 -1.196,3.117 -4.297,5.727 -7.938,6.672 -1.535,0.398 -5.019,0.398 -6.711,0 -2.656,-0.625 -5.625,-2.695 -7.047,-4.914 -0.757,-1.184 -1.402,-3.125 -1.402,-4.234 0,-1.719 -0.887,-2.79 -2.305,-2.782 -0.855,0.004 -1.511,0.399 -1.886,1.137 -0.625,1.215 0.031,4.867 1.316,7.348 0.957,1.851 3.785,4.75 5.785,5.922 3.832,2.246 9.098,2.921 13.649,1.746 1.66,-0.426 4.179,-1.664 5.621,-2.762 0.66,-0.504 1.269,-0.871 1.351,-0.82 0.231,0.14 0.184,7.48 -0.05,8.722 -1.028,5.414 -7.118,9.289 -13.297,8.461 -0.93,-0.125 -2.215,-0.41 -2.86,-0.637 -3.879,-1.363 -6.937,-4.847 -7.242,-8.246 -0.172,-1.902 -0.433,-2.586 -1.156,-3.027 -1.004,-0.609 -1.856,-0.508 -2.688,0.324 l -0.711,0.715 0.114,1.848 c 0.066,1.039 0.304,2.414 0.547,3.152 1.523,4.613 5.832,8.426 11.136,9.859 2.289,0.618 6.739,0.622 9.008,0.004 2.008,-0.543 4.153,-1.57 5.695,-2.734 0.668,-0.5 1.313,-0.906 1.434,-0.906 0.152,0 0.223,0.883 0.223,2.828 v 2.832 l 0.683,0.68 c 1.121,1.121 2.707,0.878 3.434,-0.524 0.223,-0.426 0.301,-1.265 0.301,-3.199 0,-1.5 0.078,-2.617 0.187,-2.617 0.106,0 0.852,0.472 1.66,1.054 1.735,1.247 3.352,2.004 5.512,2.59 2.266,0.614 6.715,0.61 9,-0.008 6.785,-1.839 11.719,-7.613 11.738,-13.746 0.004,-1.07 -0.058,-1.234 -0.679,-1.855 -1.493,-1.492 -3.735,-0.363 -3.735,1.875 0,2.211 -1.168,4.617 -3.14,6.469 -2.5,2.347 -5.028,3.308 -8.7,3.308 -3.675,0 -6.203,-0.961 -8.703,-3.308 -1.472,-1.383 -2.41,-2.871 -2.832,-4.504 -0.375,-1.453 -0.457,-9.34 -0.093,-9.34 0.117,0 0.773,0.394 1.453,0.879 2.586,1.836 5.168,2.804 8.316,3.125 5.559,0.562 10.789,-1.344 14.414,-5.254 2.246,-2.43 3.438,-5.113 3.645,-8.227 l 0.117,-1.746 -0.715,-0.711 c -0.934,-0.937 -2.035,-0.992 -2.973,-0.156 -0.543,0.488 -0.644,0.742 -0.797,2.059 -0.324,2.777 -1.082,4.351 -3.003,6.246 -2.356,2.316 -5.137,3.383 -8.829,3.383 -1.238,0 -2.625,-0.125 -3.32,-0.305 -3.387,-0.86 -6.289,-3.149 -7.664,-6.035 -0.742,-1.563 -0.754,-1.637 -0.828,-4.399 -0.086,-3.179 -0.281,-3.785 -1.344,-4.23 -0.902,-0.375 -1.273,-0.36 -2.015,0.094 z"
         style="fill:#000000;fill-opacity:1;fill-rule:nonzero;stroke:none"
         id="path62"
         inkscape:connector-curvature="0" /><g
         id="g64"
         transform="matrix(1,0,0,-1,0,595.27557)"><path
           d="m 562.957,429.871 h 95.715 c 4.078,0 7.363,3.281 7.363,7.363 v 95.715 c 0,4.078 -3.285,7.364 -7.363,7.364 h -95.715 c -4.078,0 -7.363,-3.286 -7.363,-7.364 v -95.715 c 0,-4.082 3.285,-7.363 7.363,-7.363 z"
           style="fill:#4bb4e6;fill-opacity:1;fill-rule:nonzero;stroke:#000000;stroke-width:2.94508696;stroke-linecap:round;stroke-linejoin:round;stroke-miterlimit:4;stroke-dasharray:none;stroke-opacity:1"
           id="path66"
           inkscape:connector-curvature="0" /></g><text
         transform="scale(1,-1)"
         style="font-variant:normal;font-weight:normal;font-size:11.63636398px;font-family:Arial;-inkscape-font-specification:Arial;writing-mode:lr-tb;fill:#000000;fill-opacity:1;fill-rule:nonzero;stroke:none"
         id="text70"
         x="592.1062"
         y="-62.635223"><tspan
           sodipodi:role="line"
           id="tspan68"
           x="592.1062"
           y="-62.635223">WHALE</tspan></text>
<path
         d="m 604.016,76.373 c -1.09,0.461 -2.231,3.735 -2.282,6.531 l -0.023,1.434 -2.289,0.25 c -7.945,0.867 -14.543,3.352 -19.352,7.281 -1.699,1.391 -3.832,3.727 -4.996,5.473 -2.281,3.426 -3.558,6.98 -3.972,11.055 -0.082,0.804 -0.227,1.535 -0.321,1.625 -0.093,0.086 -0.461,0.265 -0.816,0.402 -2.742,1.043 -5.547,3.891 -6.719,6.824 -0.492,1.231 -0.937,3.387 -0.805,3.91 0.051,0.196 0.282,0.543 0.52,0.766 0.394,0.383 0.519,0.414 1.754,0.461 3.062,0.113 5.961,-0.906 8.379,-2.941 0.5,-0.422 0.949,-0.766 1.004,-0.762 0.05,0 0.386,0.355 0.742,0.789 1.652,2.031 4.277,3.601 6.91,4.144 1.785,0.364 2.348,0.317 2.926,-0.261 l 0.484,-0.489 v -1.984 c -0.004,-2.523 -0.328,-4.18 -1.144,-5.871 -0.696,-1.441 -2.028,-2.891 -3.336,-3.629 -0.582,-0.328 -0.825,-0.551 -0.825,-0.758 0,-0.547 1.004,-3.293 1.684,-4.609 1.641,-3.18 4.199,-5.684 6.926,-6.785 1.984,-0.805 4.699,-0.961 6.805,-0.395 4.281,1.149 9.257,6.297 14.41,14.91 0.726,1.215 1.277,1.91 2.508,3.149 1.824,1.84 3.468,2.996 6.019,4.23 4.141,2.004 8.266,2.946 13.551,3.106 4.902,0.144 8.715,-0.461 12.75,-2.024 6.176,-2.394 10.402,-7.351 13.254,-15.547 1.187,-3.418 1.445,-4.683 1.445,-7.121 0.004,-2.578 -0.293,-3.965 -1.285,-6.062 -2.059,-4.344 -5.899,-7.293 -10.609,-8.137 -0.95,-0.172 -3.79,-0.207 -16.559,-0.211 -8.477,0 -15.481,-0.051 -15.566,-0.105 -0.086,-0.059 -0.43,-0.614 -0.774,-1.235 -1.547,-2.828 -4.047,-5.398 -6.391,-6.582 -1.3,-0.656 -3.398,-1.093 -4.007,-0.832 z m 3.078,3.926 c 1.004,0.586 2.933,2.488 3.734,3.676 0.34,0.508 0.926,1.539 1.297,2.293 0.375,0.758 0.82,1.5 0.996,1.66 0.309,0.281 0.594,0.285 17.039,0.359 l 16.723,0.075 1.051,0.324 c 4.113,1.265 7.117,4.531 7.972,8.668 0.403,1.961 0.278,3.703 -0.437,6.129 -2.02,6.808 -5.098,11.711 -8.871,14.125 -3.852,2.464 -8.879,3.644 -14.77,3.464 -6.984,-0.214 -13.113,-2.347 -16.953,-5.902 -1.238,-1.148 -1.738,-1.812 -3.379,-4.512 -2.351,-3.859 -4.398,-6.57 -6.976,-9.242 -3.477,-3.601 -6.266,-5.293 -9.715,-5.894 -3.567,-0.621 -7.047,0.125 -10.203,2.191 -1.305,0.852 -3.715,3.367 -4.801,5.012 -1.551,2.34 -2.789,5.48 -3.254,8.254 -0.254,1.508 -0.043,1.976 1.125,2.48 0.453,0.195 1.043,0.469 1.308,0.602 0.774,0.39 1.856,1.531 2.239,2.355 0.445,0.953 0.824,2.621 0.761,3.356 -0.039,0.496 -0.082,0.55 -0.402,0.515 -0.551,-0.062 -2.301,-0.976 -3.051,-1.593 -0.98,-0.813 -1.879,-1.918 -2.472,-3.051 -0.926,-1.762 -1.946,-2.012 -3.008,-0.735 -1.231,1.477 -2.594,2.7 -3.586,3.219 -1.094,0.574 -2.332,0.981 -2.965,0.981 -0.531,0 -0.527,-0.286 0.024,-1.375 1.187,-2.364 3.148,-3.969 5.843,-4.786 1.703,-0.519 1.875,-0.835 1.875,-3.453 -0.004,-2.867 1.2,-6.777 2.946,-9.597 3.668,-5.918 9.882,-9.828 18.3,-11.516 2.231,-0.445 3.719,-0.637 6.782,-0.867 2.332,-0.18 2.41,-0.195 2.828,-0.594 0.523,-0.504 0.574,-1.293 0.144,-2.242 -0.211,-0.457 -0.285,-0.938 -0.289,-1.82 0,-1.028 0.281,-2.68 0.528,-3.079 0.117,-0.187 0.757,0.02 1.617,0.52 z m 18.273,46.535 c -0.621,0.379 -0.75,0.836 -0.82,2.957 -0.051,1.465 -0.133,2.039 -0.379,2.684 -0.852,2.226 -3.066,4.09 -5.668,4.765 -1.098,0.286 -3.586,0.286 -4.793,0 -1.898,-0.445 -4.016,-1.925 -5.035,-3.511 -0.543,-0.844 -1,-2.231 -1,-3.024 0,-1.226 -0.633,-1.992 -1.645,-1.988 -0.613,0.004 -1.082,0.285 -1.351,0.812 -0.442,0.872 0.023,3.481 0.941,5.25 0.684,1.325 2.707,3.391 4.133,4.231 2.738,1.605 6.496,2.086 9.75,1.246 1.184,-0.305 2.984,-1.191 4.012,-1.973 0.472,-0.359 0.91,-0.621 0.968,-0.586 0.165,0.102 0.133,5.344 -0.039,6.231 -0.73,3.867 -5.082,6.633 -9.496,6.043 -0.664,-0.086 -1.582,-0.293 -2.043,-0.453 -2.769,-0.977 -4.957,-3.465 -5.172,-5.891 -0.125,-1.359 -0.308,-1.848 -0.828,-2.16 -0.714,-0.438 -1.324,-0.363 -1.918,0.23 l -0.507,0.508 0.082,1.321 c 0.046,0.742 0.218,1.726 0.39,2.25 1.09,3.296 4.164,6.023 7.957,7.046 1.633,0.442 4.813,0.442 6.434,0 1.433,-0.386 2.961,-1.121 4.066,-1.953 0.477,-0.355 0.938,-0.648 1.024,-0.648 0.109,0 0.16,0.633 0.16,2.023 v 2.02 l 0.488,0.488 c 0.801,0.801 1.934,0.629 2.449,-0.375 0.161,-0.305 0.215,-0.906 0.215,-2.285 0,-1.07 0.059,-1.871 0.137,-1.871 0.074,0 0.605,0.34 1.184,0.754 1.242,0.89 2.394,1.433 3.937,1.851 1.617,0.438 4.797,0.434 6.43,-0.007 4.847,-1.313 8.371,-5.438 8.383,-9.817 0.003,-0.762 -0.04,-0.883 -0.485,-1.324 -1.066,-1.066 -2.668,-0.262 -2.668,1.336 0,1.582 -0.832,3.301 -2.242,4.621 -1.785,1.68 -3.594,2.363 -6.215,2.363 -2.625,0 -4.43,-0.683 -6.219,-2.363 -1.046,-0.984 -1.718,-2.051 -2.019,-3.215 -0.27,-1.039 -0.328,-6.672 -0.067,-6.672 0.082,0 0.551,0.281 1.04,0.629 1.847,1.309 3.691,2 5.937,2.231 3.973,0.402 7.707,-0.961 10.297,-3.754 1.605,-1.735 2.457,-3.653 2.601,-5.875 l 0.086,-1.246 -0.511,-0.508 c -0.668,-0.668 -1.453,-0.711 -2.121,-0.113 -0.391,0.347 -0.461,0.531 -0.571,1.468 -0.234,1.989 -0.773,3.114 -2.148,4.461 -1.68,1.66 -3.668,2.422 -6.305,2.422 -0.883,0 -1.875,-0.094 -2.371,-0.219 -2.418,-0.613 -4.492,-2.25 -5.473,-4.312 -0.531,-1.113 -0.539,-1.168 -0.593,-3.141 -0.063,-2.273 -0.2,-2.707 -0.957,-3.023 -0.645,-0.27 -0.914,-0.254 -1.442,0.066 z"
         style="fill:#000000;fill-opacity:1;fill-rule:nonzero;stroke:none"
         id="path72"
         inkscape:connector-curvature="0" /><g
         id="g74"
         transform="matrix(1,0,0,-1,0,595.27557)"><path
           d="m 690.789,429.871 h 95.715 c 4.078,0 7.363,3.281 7.363,7.363 v 95.715 c 0,4.078 -3.285,7.364 -7.363,7.364 h -95.715 c -4.078,0 -7.363,-3.286 -7.363,-7.364 v -95.715 c 0,-4.082 3.285,-7.363 7.363,-7.363 z"
           style="fill:#4bb4e6;fill-opacity:1;fill-rule:nonzero;stroke:#000000;stroke-width:2.94508696;stroke-linecap:round;stroke-linejoin:round;stroke-miterlimit:4;stroke-dasharray:none;stroke-opacity:1"
           id="path76"
           inkscape:connector-curvature="0" /></g><text
         transform="scale(1,-1)"
         style="font-variant:normal;font-weight:normal;font-size:11.63636398px;font-family:Arial;-inkscape-font-specification:Arial;writing-mode:lr-tb;fill:#000000;fill-opacity:1;fill-rule:nonzero;stroke:none"
         id="text80"
         x="719.93903"
         y="-62.635223"><tspan
           sodipodi:role="line"
           id="tspan78"
           x="719.93903"
           y="-62.635223">WHALE</tspan></text>
<path
         d="m 731.848,76.373 c -1.09,0.461 -2.231,3.735 -2.282,6.531 l -0.023,1.434 -2.289,0.25 c -7.945,0.867 -14.543,3.352 -19.348,7.281 -1.703,1.391 -3.836,3.727 -4.996,5.473 -2.285,3.426 -3.562,6.98 -3.976,11.055 -0.082,0.804 -0.227,1.535 -0.321,1.625 -0.093,0.086 -0.461,0.265 -0.816,0.402 -2.742,1.043 -5.547,3.891 -6.719,6.824 -0.492,1.231 -0.933,3.387 -0.805,3.91 0.051,0.196 0.286,0.543 0.52,0.766 0.395,0.383 0.52,0.414 1.758,0.461 3.058,0.113 5.961,-0.906 8.375,-2.941 0.5,-0.422 0.953,-0.766 1.004,-0.762 0.054,0 0.386,0.355 0.742,0.789 1.656,2.031 4.277,3.601 6.91,4.144 1.785,0.364 2.348,0.317 2.926,-0.261 l 0.488,-0.489 -0.004,-1.984 c -0.004,-2.523 -0.324,-4.18 -1.144,-5.871 -0.696,-1.441 -2.028,-2.891 -3.336,-3.629 -0.582,-0.328 -0.824,-0.551 -0.824,-0.758 0,-0.547 1.003,-3.293 1.683,-4.609 1.641,-3.18 4.199,-5.684 6.926,-6.785 1.984,-0.805 4.699,-0.961 6.805,-0.395 4.285,1.149 9.261,6.297 14.41,14.91 0.726,1.215 1.281,1.91 2.508,3.149 1.824,1.84 3.472,2.996 6.019,4.23 4.141,2.004 8.266,2.946 13.555,3.106 4.902,0.144 8.711,-0.461 12.75,-2.024 6.172,-2.394 10.398,-7.351 13.25,-15.547 1.187,-3.418 1.445,-4.683 1.449,-7.121 0,-2.578 -0.297,-3.965 -1.289,-6.062 -2.059,-4.344 -5.899,-7.293 -10.606,-8.137 -0.953,-0.172 -3.789,-0.207 -16.562,-0.211 -8.477,0 -15.481,-0.051 -15.566,-0.105 -0.082,-0.059 -0.43,-0.614 -0.77,-1.235 -1.551,-2.828 -4.051,-5.398 -6.395,-6.582 -1.3,-0.656 -3.398,-1.093 -4.007,-0.832 z m 3.078,3.926 c 1.004,0.586 2.937,2.488 3.734,3.676 0.34,0.508 0.926,1.539 1.297,2.293 0.375,0.758 0.824,1.5 0.996,1.66 0.313,0.281 0.594,0.285 17.039,0.359 l 16.727,0.075 1.047,0.324 c 4.113,1.265 7.117,4.531 7.972,8.668 0.407,1.961 0.282,3.703 -0.437,6.129 -2.02,6.808 -5.094,11.711 -8.871,14.125 -3.852,2.464 -8.879,3.644 -14.766,3.464 -6.984,-0.214 -13.117,-2.347 -16.953,-5.902 -1.242,-1.148 -1.738,-1.812 -3.383,-4.512 -2.351,-3.859 -4.398,-6.57 -6.976,-9.242 -3.477,-3.601 -6.266,-5.293 -9.715,-5.894 -3.567,-0.621 -7.047,0.125 -10.203,2.191 -1.301,0.852 -3.711,3.367 -4.801,5.012 -1.551,2.34 -2.789,5.48 -3.254,8.254 -0.254,1.508 -0.039,1.976 1.125,2.48 0.453,0.195 1.043,0.469 1.309,0.602 0.773,0.39 1.859,1.531 2.242,2.355 0.441,0.953 0.82,2.621 0.758,3.356 -0.04,0.496 -0.083,0.55 -0.403,0.515 -0.551,-0.062 -2.301,-0.976 -3.047,-1.593 -0.984,-0.813 -1.883,-1.918 -2.476,-3.051 -0.926,-1.762 -1.946,-2.012 -3.008,-0.735 -1.231,1.477 -2.594,2.7 -3.586,3.219 -1.094,0.574 -2.332,0.981 -2.965,0.981 -0.531,0 -0.523,-0.286 0.024,-1.375 1.191,-2.364 3.152,-3.969 5.843,-4.786 1.703,-0.519 1.875,-0.835 1.875,-3.453 0,-2.867 1.2,-6.777 2.946,-9.597 3.668,-5.918 9.886,-9.828 18.3,-11.516 2.231,-0.445 3.719,-0.637 6.782,-0.867 2.332,-0.18 2.41,-0.195 2.828,-0.594 0.523,-0.504 0.574,-1.293 0.144,-2.242 -0.211,-0.457 -0.285,-0.938 -0.289,-1.82 0,-1.028 0.282,-2.68 0.528,-3.079 0.117,-0.187 0.757,0.02 1.617,0.52 z m 18.273,46.535 c -0.621,0.379 -0.75,0.836 -0.82,2.957 -0.051,1.465 -0.129,2.039 -0.379,2.684 -0.852,2.226 -3.066,4.09 -5.664,4.765 -1.102,0.286 -3.586,0.286 -4.797,0 -1.894,-0.445 -4.016,-1.925 -5.035,-3.511 -0.539,-0.844 -1,-2.231 -1,-3.024 0,-1.226 -0.633,-1.992 -1.645,-1.988 -0.613,0.004 -1.082,0.285 -1.347,0.812 -0.446,0.872 0.019,3.481 0.937,5.25 0.684,1.325 2.707,3.391 4.133,4.231 2.738,1.605 6.5,2.086 9.75,1.246 1.184,-0.305 2.984,-1.191 4.016,-1.973 0.472,-0.359 0.906,-0.621 0.965,-0.586 0.164,0.102 0.132,5.344 -0.036,6.231 -0.734,3.867 -5.086,6.633 -9.5,6.043 -0.664,-0.086 -1.582,-0.293 -2.043,-0.453 -2.769,-0.977 -4.953,-3.465 -5.171,-5.891 -0.122,-1.359 -0.309,-1.848 -0.825,-2.16 -0.718,-0.438 -1.328,-0.363 -1.922,0.23 l -0.507,0.508 0.082,1.321 c 0.047,0.742 0.218,1.726 0.39,2.25 1.09,3.296 4.164,6.023 7.957,7.046 1.633,0.442 4.813,0.442 6.434,0 1.433,-0.386 2.965,-1.121 4.066,-1.953 0.477,-0.355 0.938,-0.648 1.024,-0.648 0.109,0 0.16,0.633 0.16,2.023 v 2.02 l 0.488,0.488 c 0.801,0.801 1.934,0.629 2.453,-0.375 0.157,-0.305 0.215,-0.906 0.215,-2.285 0,-1.07 0.055,-1.871 0.133,-1.871 0.074,0 0.609,0.34 1.187,0.754 1.239,0.89 2.391,1.433 3.938,1.851 1.613,0.438 4.797,0.434 6.426,-0.007 4.847,-1.313 8.371,-5.438 8.383,-9.817 0.003,-0.762 -0.04,-0.883 -0.485,-1.324 -1.062,-1.066 -2.664,-0.262 -2.664,1.336 0,1.582 -0.836,3.301 -2.246,4.621 -1.785,1.68 -3.59,2.363 -6.215,2.363 -2.621,0 -4.43,-0.683 -6.215,-2.363 -1.05,-0.984 -1.722,-2.051 -2.023,-3.215 -0.27,-1.039 -0.324,-6.672 -0.067,-6.672 0.083,0 0.551,0.281 1.04,0.629 1.847,1.309 3.691,2 5.941,2.231 3.969,0.402 7.703,-0.961 10.293,-3.754 1.605,-1.735 2.457,-3.653 2.605,-5.875 l 0.082,-1.246 -0.507,-0.508 c -0.668,-0.668 -1.457,-0.711 -2.125,-0.113 -0.391,0.347 -0.461,0.531 -0.571,1.468 -0.23,1.989 -0.773,3.114 -2.144,4.461 -1.684,1.66 -3.672,2.422 -6.309,2.422 -0.883,0 -1.875,-0.094 -2.371,-0.219 -2.418,-0.613 -4.492,-2.25 -5.473,-4.312 -0.531,-1.113 -0.539,-1.168 -0.593,-3.141 -0.063,-2.273 -0.2,-2.707 -0.957,-3.023 -0.645,-0.27 -0.911,-0.254 -1.442,0.066 z"
         style="fill:#000000;fill-opacity:1;fill-rule:nonzero;stroke:none"
         id="path82"
         inkscape:connector-curvature="0" /></g></g></svg>